<?xml version="1.0" encoding="UTF-8"?>
<svg width="1080px" height="1460px" viewBox="0 0 1080 1460" version="1.1" xmlns="http://www.w3.org/2000/svg" xmlns:xlink="http://www.w3.org/1999/xlink">
    <title>back</title>
    <defs>
        <rect id="path-1" x="0" y="0" width="1080" height="1460"></rect>
    </defs>
    <g id="back" stroke="none" stroke-width="1" fill="none" fill-rule="evenodd">
        <mask id="mask-2" fill="white">
            <use xlink:href="#path-1"></use>
        </mask>
        <g id="mask"></g>
        <g id="bp-back" mask="url(#mask-2)" fill="#FFFFFF">
            <g transform="translate(277.6963, 364.1194)">
                <path d="M262.303714,829.042034 C229.552001,815.288342 212.138884,779.861976 210.064361,722.763117 L314.545728,722.763117 C312.471317,779.861674 295.058034,815.288283 262.303714,829.042034 Z" id="bp-sacrum"></path>
                <path d="M210.592188,469.642264 L201.263092,710.916264 L198.708674,710.934747 C108.810824,711.792416 73.4848179,723.285006 35.7730919,745.431139 C50.9352758,691.250562 63.0388006,590.444328 63.2793549,563.738979 L63.2983723,552.053823 C86.0863715,553.389186 119.563856,547.343712 146.774959,535.103394 C168.300962,525.409103 189.91717,503.379533 209.984561,470.637717 L210.592188,469.642264 Z" id="bp-lower-back-left"></path>
                <path d="M314.001489,469.720285 C334.226423,502.968166 356.044416,525.318644 377.768894,535.10232 C405.007462,547.354993 438.522658,553.400493 461.312023,552.050033 L461.330708,563.738979 L461.359307,565.429255 L461.414548,567.252683 C462.534658,598.355066 474.27521,693.396113 488.836971,745.431139 L486.48561,744.062625 L484.229792,742.774044 C447.799309,722.165385 411.42718,711.550815 323.35611,710.913411 L314.001489,469.720285 Z" id="bp-lower-back-right"></path>
                <polygon id="bp-lumbar-vertebral-spine" points="301.236292 450.237186 311.327292 710.452186 213.291292 710.452186 223.351292 450.237186"></polygon>
                <path d="M312.983638,443.451317 L309.131496,344.128196 L311.275777,344.726151 C333.286288,350.841783 350.737605,354.996989 363.597071,357.183113 L365.118371,357.43623 C378.389059,359.598044 398.210406,361.664324 424.77953,363.667049 C420.516451,414.027566 432.840409,451.30312 461.963346,474.838983 L461.870634,478.458055 L461.74811,483.95261 L461.612419,491.326698 C461.516615,497.187573 461.448332,503.041099 461.400265,508.776081 L461.342411,517.275745 L461.300497,529.509404 L461.296186,539.976558 C454.096329,540.435464 445.139159,540.092345 435.47484,538.852948 C417.658613,536.568112 399.102615,531.540646 382.694092,524.159632 C359.609066,513.763229 335.205611,486.034304 312.983638,443.451317 Z" id="bp-infrascapular-region-right"></path>
                <path d="M215.444052,344.119993 L211.607999,443.364297 C189.373867,485.996529 164.952861,513.756165 141.849761,524.160706 C125.443624,531.540646 106.887627,536.568112 89.0713997,538.852948 C79.4357838,540.088664 70.5031224,540.433418 63.3142509,539.980626 L63.309566,529.509404 L63.267652,517.275745 L63.2097983,508.776081 L63.1216224,500.098599 C63.0865678,497.185736 63.0455461,494.257136 62.997644,491.326698 L62.8619536,483.95261 L62.7394295,478.458055 L62.6447632,474.788942 C91.7232841,451.250299 104.02677,413.991891 99.7682288,363.668717 L102.842831,363.43416 C128.885111,361.424945 148.188627,359.35242 160.949169,357.183113 L162.208507,356.965311 C175.157614,354.688449 192.554395,350.504164 214.367706,344.420711 L215.444052,344.119993 Z" id="bp-infrascapular-region-left"></path>
                <path d="M482.779021,320.24183 L482.066671,322.865715 C471.410932,362.418797 467.461488,391.028347 464.942129,421.0129 L464.493592,426.54709 L464.06207,432.237275 L463.503725,440.076963 C463.093812,445.995165 462.758643,452.414945 462.4849,459.133645 C440.820593,437.133576 432.385469,403.890609 437.309604,358.759747 L437.141367,360.36666 L444.230332,350.597507 C467.132443,318.96301 485.765414,292.484593 500.152809,271.114216 C493.814816,285.889332 487.658658,302.369048 482.779021,320.24183 Z" id="bp-lateral-chest-wall-right"></path>
                <path d="M25.2724436,273.024411 L24.5707851,271.37759 L26.7869913,274.658798 C42.1528262,297.347228 62.0651493,325.506892 86.5500627,359.191 L87.4070942,360.369201 C91.9531991,404.637855 83.484139,437.330977 62.1243818,459.069839 L62.0027855,456.218551 C61.7521757,450.555056 61.4565328,445.132971 61.1063381,440.076963 L60.5479927,432.237275 L60.1164708,426.54709 L59.6679343,421.0129 L59.1871353,415.50973 L58.6992452,410.349807 L58.4051686,407.428032 C55.7294356,381.446511 51.3643801,355.091924 41.8310421,320.24183 C37.1605514,303.135092 31.3206198,287.304564 25.2724436,273.024411 L25.2724436,273.024411 Z" id="bp-lateral-chest-wall-left"></path>
                <path d="M237.060292,95.6251071 C244.665681,99.5700988 253.1049,102.748529 262.303714,104.708961 C271.477772,102.753805 279.89648,99.5871977 287.486671,95.6555865 L300.771292,438.236742 L223.815292,438.236742 L237.060292,95.6251071 Z" id="bp-thoracic-vertebral-spine"></path>
                <path d="M31.8226866,83.5073755 L31.4710673,82.7386887 L35.1957123,83.6475183 C70.9302072,92.410598 98.8223975,100.527506 118.830477,107.97659 L120.197844,108.489261 C141.546268,116.550645 153.028507,123.803385 154.129339,128.124017 C156.397598,137.048368 158.544168,156.22566 159.557251,176.96854 L159.629342,178.48898 C159.757745,181.281112 159.865308,184.097606 159.949586,186.917488 L160.013296,189.224995 L160.059028,191.173697 C160.68871,220.314286 158.78388,245.362307 154.208076,260.258901 L153.815763,261.52292 C141.549993,300.667932 119.630328,336.069491 95.3984894,350.220941 L95.0227138,350.436576 L91.4033408,345.447978 C38.5747988,272.538868 8.20724935,226.713725 0.845330251,208.976744 C0.625825052,208.447893 0.339420543,207.967093 0,207.540081 C25.6801955,188.150438 41.8310421,144.88117 41.8310421,123.897785 C41.8310421,111.674465 38.4900079,98.201169 31.8226866,83.5073755 Z" id="bp-scapula-left"></path>
                <path d="M482.779021,123.897785 C482.779021,144.869364 498.911699,188.101757 524.568493,207.514245 C524.218951,207.946798 523.925052,208.43672 523.70091,208.976744 L523.463464,209.539929 C515.623336,227.859819 484.788038,274.251569 431.502037,347.711297 L429.522689,350.436576 L429.14775,350.220941 C404.655353,335.917321 382.525102,299.904079 370.337795,260.257701 C365.711513,245.196776 363.81553,219.75641 364.50914,190.200837 L364.532944,189.224995 C365.16902,164.099837 367.706055,138.789705 370.417762,128.120631 C371.517733,123.803385 382.999972,116.550645 404.348396,108.489261 L406.410097,107.718989 C427.076489,100.078267 456.003221,91.7380723 493.145456,82.7216254 C486.239788,97.7221805 482.779021,111.457368 482.779021,123.897785 Z" id="bp-scapula-right"></path>
                <path d="M299.642602,99.4142239 L357.761906,129.833578 L357.55558,130.929307 C355.433867,142.475069 353.639309,160.876251 352.833486,180.110196 L352.768928,181.707343 C352.675535,184.105548 352.59773,186.514065 352.536788,188.921297 L352.488748,190.970439 C351.835494,221.272479 353.825563,247.369556 358.867137,263.78247 C364.916866,283.462769 374.02677,303.83271 384.876883,320.88666 C392.369582,332.663506 400.502111,342.622343 409.181669,350.374747 L405.316946,350.035645 C388.52973,348.535633 375.477987,347.004984 366.13322,345.441386 L365.60823,345.352845 C352.117898,343.059473 333.077241,338.443597 308.643913,331.524407 L299.642602,99.4142239 Z" id="bp-interscapular-region-right"></path>
                <path d="M224.90563,99.4132239 L215.931285,331.516206 L212.727147,332.419122 C190.518962,338.645294 172.949144,342.892139 160.143215,345.144377 L158.93801,345.352845 C148.864876,347.065289 134.353114,348.738224 115.36563,350.37371 C124.044321,342.622108 132.176746,332.663367 139.669356,320.88666 C150.51947,303.83271 159.629374,283.462769 165.678734,263.783671 C170.833971,247.000726 172.798646,220.094686 172.009452,188.921297 C171.94851,186.514065 171.870705,184.105548 171.777312,181.707346 L171.712755,180.110201 C170.880898,160.254686 168.995424,141.286858 166.784542,129.833914 L224.90563,99.4132239 Z" id="bp-interscapular-region-left"></path>
                <path d="M341.793999,0 C353.070703,12.0831138 374.470215,23.6158037 400.747557,34.5980697 L415.574545,40.7530939 L429.191234,46.3643111 L443.66536,52.287495 L453.791131,56.4092418 C454.478885,56.6886312 455.16918,56.9689413 455.862015,57.2501719 L476.76408,65.7029926 L490.17827,71.0933683 L485.170961,72.3174188 C448.815104,81.2647026 420.475611,89.5724216 400.109235,97.2629742 L398.586259,97.8423591 C379.980279,104.97428 367.935584,111.602732 362.233412,118.629326 L301.574847,86.8794621 C316.753625,75.6896862 327.073023,61.915858 331.579403,51.3766509 L332.624975,48.9102935 L333.547212,46.6894123 L334.069239,45.4066957 C339.972286,30.777764 342.420172,20.2353906 341.793999,0 Z" id="bp-suprascapular-region-right"></path>
                <path d="M182.816064,0 L182.770345,1.69289441 C182.271997,23.4066174 185.521954,33.8158152 193.03066,51.3766509 C197.534521,61.9099649 207.843998,75.6742836 223.008109,86.8606891 L162.313224,118.630883 C156.456544,111.412824 143.910263,104.616276 124.437005,97.2629742 L122.303532,96.4658766 C101.165253,88.6505256 71.8818394,80.2040225 34.4086472,71.1032469 L47.8459834,65.7029926 L68.7480478,57.2501719 L83.9081231,51.0779356 C92.7469373,47.4679378 101.122736,44.0260895 109.035518,40.7530939 L123.862506,34.5980697 L125.626563,33.8568584 C151.096512,23.0972026 171.79277,11.8115831 182.816064,0 Z" id="bp-suprascapular-region-left"></path>
            </g>
        </g>
        <g id="decoration" opacity="0.15" mask="url(#mask-2)">
            <g transform="translate(-6, 15)">
                <g id="bp-lower-limb-right-back" stroke-width="1" fill="none" transform="translate(558.5879, 1292.7031)">
                    <path d="M0,67.0206548 L112.306632,35.957848 L118.775954,86.2993434 C123.436635,122.25676 128.702423,162.356829 134.03036,202.698427 L166.192804,445.179409 C167.351853,454.016571 168.222265,460.732852 168.744375,464.899566 L165.131027,465.384108 C144.983082,468.04256 120.304487,470.593372 91.0496363,473.040716 L88.115639,463.194764 C87.2751146,460.013653 86.4521379,456.867315 85.6437791,453.740652 L83.6516409,445.956242 L82.8695613,442.853687 L80.9274727,435.021949 C73.4497872,404.495802 66.8144834,372.943033 58.2471243,326.064015 L57.0677041,319.61625 C53.7009906,301.759602 41.2760834,244.623349 28.1173084,186.483924 L23.6449661,166.811529 C14.8569476,128.332216 6.15990171,91.3193094 0,67.0206548 Z" id="bp-thigh-medial-right-back" fill="#FFFFFF"></path>
                    <path d="M118.148408,34.3330065 L242.318007,0 L241.516543,36.9679773 C240.679876,77.4961522 239.695442,131.195442 239.085453,185.280039 L238.813841,212.322537 C238.235432,278.530071 238.354552,342.096278 240.141341,379.268234 C240.927148,395.312433 244.943194,426.485157 248.294587,447.792676 L244.097456,448.967315 C226.115842,453.960112 210.812273,457.687834 198.210455,460.145391 C191.383969,461.476665 183.544225,462.78207 174.686164,464.062348 L172.754468,449.079865 C167.53036,409.096854 154.909872,314.811296 142.213798,218.822899 L135.619185,168.847267 C129.132115,119.554454 122.967587,72.2667732 118.148408,34.3330065 Z" id="bp-thigh-lateral-right-back" fill="#FFFFFF"></path>
                </g>
                <g id="bp-lower-limb-left-back" stroke-width="1" fill="none" transform="translate(179.403, 1292.7031)">
                    <path d="M241.702449,35.957848 L354.009082,67.0206548 L352.451451,73.2178957 C335.145191,142.616782 301.539366,294.158555 296.655242,321.159203 L294.448191,333.214451 C286.075247,378.535798 279.490037,409.277353 271.920157,439.728272 L270.749454,444.404584 L269.963397,447.509083 C268.646447,452.687654 267.294317,457.892912 265.893443,463.194764 L262.960986,473.042889 L257.692279,472.59644 C228.991684,470.134797 204.865435,467.571095 185.264892,464.896562 L187.816384,445.177691 C193.475166,402.033268 206.01441,308.330927 218.490097,213.964078 L230.759066,120.675084 C234.788739,89.8263204 238.532273,60.8993574 241.702449,35.957848 Z" id="bp-thigh-medial-left-back" fill="#FFFFFF"></path>
                    <path d="M111.691074,0 L235.860673,34.3330065 L231.737718,66.5361668 C226.516596,107.051666 220.316096,154.318744 214.028623,201.925554 L181.629543,446.213696 C180.594072,454.119056 179.808669,460.187557 179.320468,464.080548 L175.305385,463.48069 C168.07661,462.379795 161.574884,461.271854 155.798627,460.145391 L152.842566,459.555717 C139.825243,456.90278 124.108105,452.980058 105.716312,447.792504 L106.284233,444.123945 C107.143645,438.495002 108.032273,432.328239 108.886992,426.023877 L109.539351,421.133914 C111.542982,405.864953 113.257117,390.396048 113.814267,380.29391 L113.86774,379.268234 C115.782158,339.441138 115.782158,269.31452 115.060973,198.103436 L114.780656,173.153241 C114.009291,110.387876 112.784086,49.4383351 111.927098,10.4318422 L111.691074,0 Z" id="bp-thigh-lateral-left-back" fill="#FFFFFF"></path>
                </g>
                <g id="bp-pelvic-region-back" stroke-width="1" fill="none" transform="translate(291.0416, 1078.2805)">
                    <path d="M251.9592,161.434972 L251.9592,261.9408 L221.568853,253.699962 C204.947455,207.127332 217.703097,164.662595 250.945456,161.518186 L251.9592,161.434972 Z M257.962541,161.435307 C291.954265,163.809169 305.13646,206.659112 288.347957,253.699962 L257.9592,261.9408 L257.962541,161.435307 Z" id="bp-intergluteal-cleft" fill="#FFFFFF"></path>
                    <path d="M324.312437,0 L329.733957,0.163389696 C354.184602,0.95813099 379.222082,2.57621776 399.196632,5.83826178 C428.201363,10.582391 457.389669,20.8569693 486.761548,36.6619966 C502.181785,77.1574646 509.918129,129.47394 509.918129,193.611422 L295.317752,251.812115 C311.210749,202.731631 296.184928,157.653738 257.959741,155.418568 L257.959741,116.571896 C289.309719,111.34915 324.312437,64.6229627 324.312437,0 Z" id="bp-buttock-right" fill="#FFFFFF"></path>
                    <path d="M185.605692,0 C185.605692,65.2773833 220.602316,111.39202 251.96125,116.574178 L251.957954,155.418428 C213.732513,157.651845 198.705728,202.730601 214.599059,251.812115 L0,193.611422 C0,129.47394 7.7363433,77.1574646 23.1565801,36.6619966 C52.5284598,20.8569693 81.7167652,10.582391 110.721496,5.83826178 C132.175643,2.33458487 159.470563,0.727434774 185.605692,0 Z" id="bp-buttock-left" fill="#FFFFFF"></path>
                </g>
                <g id="bp-upper-limb-right-back" stroke-width="1" fill="none" transform="translate(781.316, 432.1286)">
                    <path d="M209.300867,779.66226 L209.091068,779.740892 L209.458217,779.898156 L211.529983,785.612079 L211.529983,785.559658 C213.103477,787.971038 215.647291,790.696947 217.823958,792.531693 L220.157973,793.973279 L221.259418,794.680967 L224.282497,796.597967 C228.779509,799.475777 233.673627,802.740745 236.784555,805.296284 L237.046804,805.53218 C243.157204,810.617048 256.190975,818.742352 263.481495,826.841446 C267.179205,830.956519 270.79824,840.444778 276.934865,845.267539 L277.249564,845.503435 C280.317876,847.809973 284.907233,852.737577 289.417914,857.848655 L296.586502,866.020928 C298.610601,868.313147 300.38609,870.278675 301.691164,871.58304 C306.988592,876.851383 313.807064,877.768756 309.112809,884.347631 C304.418553,890.926507 292.538676,888.882075 286.323377,886.601748 C275.912095,882.801202 267.100531,872.343149 259.96736,866.314698 L259.233063,865.711853 L255.677136,862.638494 C251.727395,859.303539 250.437501,859.262698 249.477403,869.093028 C248.291857,881.457228 260.277069,918.705714 263.154982,931.281161 L263.455271,932.653876 L263.61262,933.466406 L264.047395,935.643711 C264.775257,939.420594 265.518295,943.898248 266.261334,948.485114 L266.838282,952.102184 L268.669585,963.406885 C269.492081,968.372687 270.262701,972.59892 270.90314,975.115143 L270.95559,975.351039 C272.922457,982.768655 272.424184,993.095655 264.714065,994.799348 C259.731336,995.900195 257.213746,992.387967 255.273104,988.063208 L255.063305,987.591417 C254.879731,987.172046 254.696156,986.726465 254.512582,986.280884 L254.381458,985.940145 L254.119209,985.311089 L253.542261,983.843292 C253.314979,983.266658 253.087696,982.701673 252.852644,982.148336 L252.283466,980.855277 C251.180641,978.46321 249.930854,973.993821 248.665597,968.949054 L247.79901,965.44341 L245.307645,954.828093 C244.468448,951.289654 243.681702,948.170586 243.052304,946.073733 L242.86873,945.497098 C242.003308,942.613926 240.770739,937.581479 239.380819,932.470401 L238.934996,930.871551 C238.882546,930.714287 238.856321,930.530812 238.803872,930.373548 L238.594072,929.63965 L238.462948,929.141647 C238.410498,928.984383 238.358048,928.827119 238.331824,928.643645 L238.200699,928.171853 L237.82153,926.881961 C235.85026,920.281578 233.698759,914.777412 231.801825,915.171366 C228.568817,915.848183 232.83257,931.946849 235.650565,941.941232 L237.099254,947.043527 L237.597527,948.878273 C238.358048,951.682814 239.22347,955.195042 240.088891,958.890745 L240.482265,960.568227 L241.970732,967.248702 C242.950218,971.736417 243.769632,975.805871 244.179975,978.417686 L244.258649,978.994321 C244.960551,983.744617 246.628599,990.824669 248.090067,996.800251 L249.451178,1002.32181 C251.050896,1008.79584 248.690656,1018.57242 241.609935,1019.38495 C234.581664,1020.19748 230.516806,1014.79808 229.36291,1011.33827 L229.36291,1011.23343 L229.179336,1010.76164 L228.675482,1009.00224 C228.197241,1007.28899 227.58711,1005.01027 226.95022,1002.5577 L224.727251,994.188312 C224.345146,992.771298 223.980968,991.446431 223.653925,990.316097 L223.095161,988.430158 L222.084531,985.139749 C221.274716,982.542952 220.258502,979.339428 219.187652,975.953884 L217.745283,971.498072 L214.866979,962.849647 C214.731606,962.447386 214.598296,962.053498 214.467171,961.669075 L213.837774,959.834329 C212.672223,956.485189 210.899615,950.14781 208.937829,943.752319 L208.042196,940.875671 C205.290085,932.182089 202.300831,924.205459 200.14838,924.47615 C198.207738,924.712046 199.650107,931.946188 201.905448,940.123913 L202.036572,940.621916 L202.56107,942.404241 L203.269142,944.868043 L203.531391,945.759205 L204.577518,949.139151 C205.621187,952.462581 206.639041,955.568544 207.465125,958.025793 L208.933719,962.350552 L209.248418,963.346557 L210.13273,966.110152 C211.178261,969.427793 212.481793,973.718269 213.785324,978.208001 L215.201468,983.161815 L216.093115,986.464358 C217.509259,991.785122 218.663154,996.686515 219.082752,999.779373 L219.135202,1000.19874 C220.105523,1008.4551 217.745283,1011.54796 212.657654,1013.04197 C207.82759,1014.45734 204.43625,1012.92372 201.613606,1008.44109 L201.171151,1007.7212 C199.749931,1005.28615 197.027017,997.524411 194.238346,989.163254 L193.093884,985.704249 L190.995892,979.335059 L188.637937,972.092437 C188.100291,970.459967 187.61048,968.990213 187.188644,967.748597 L186.69501,966.308362 C185.622703,963.232978 184.488234,959.536304 183.346858,955.678555 L179.666582,943.115179 C178.995959,940.856554 178.349882,938.745128 177.739681,936.905454 L176.685233,933.736464 C174.551657,927.145246 173.932793,923.636563 172.16642,924.004358 C170.330677,924.397518 171.091199,928.617434 173.34654,936.402 L173.975937,938.551274 L176.860675,948.091954 L185.059259,975.03714 C185.485518,976.458701 185.826966,977.618261 186.065613,978.443897 L186.511436,980.042747 C186.590111,980.331064 186.668785,980.619381 186.74746,980.933909 L186.852359,981.300858 L187.035934,982.034757 L187.140833,982.401706 L187.363534,983.339736 C188.499174,988.35733 188.709699,993.531985 183.600473,995.061454 C177.04303,997.007139 175.739643,991.026005 171.845884,984.030104 L171.196099,982.873498 L170.93385,982.427917 L170.276671,981.235701 C166.290518,973.879902 161.517733,962.844416 155.356263,946.257208 L154.96289,945.15636 C153.934948,942.342221 152.907636,939.36199 151.905432,936.334679 L151.091546,933.849698 L150.291844,931.358191 L148.801617,926.591464 C144.767349,913.477747 141.719319,901.908773 141.719319,901.908773 L141.535745,900.440976 C141.299721,898.370334 140.853898,894.333892 140.539199,889.773238 L140.38185,886.837644 L140.38185,886.103745 L140.3294,885.553322 C140.3294,885.002898 140.303175,884.452474 140.27695,883.928261 L140.2245,881.307195 L140.08779,876.038433 C140.02312,873.82856 139.942399,871.388452 139.851294,868.899279 L139.752452,866.209855 L139.647553,863.667421 L139.465618,859.704288 C139.35744,857.491535 139.234511,855.437274 139.09683,853.707371 L139.018155,852.789998 C138.729682,849.225348 139.018155,843.249318 139.490203,837.142235 L139.568878,835.988966 L139.673778,834.730854 L139.726228,833.996955 L140.274274,828.24383 C140.570508,825.263495 140.866743,822.547769 141.114207,820.423932 L141.352171,818.454035 C141.902894,813.840959 142.296267,808.022193 142.034018,803.382906 L142.217592,803.382906 L140.670324,797.17098 L140.748998,797.013716 L138.177551,788.76496 C136.710072,784.033466 135.359279,779.621036 134.124679,775.528658 C147.902327,773.640896 159.612774,771.50758 169.265167,769.129058 L171.256925,768.628195 C179.417573,766.536806 189.90151,763.390191 202.705825,759.189856 L203.777821,762.651602 C205.268535,767.380098 207.025741,772.65801 209.300867,779.66226 Z" id="bp-hand-right-dorsal" fill="#FFFFFF"></path>
                    <path d="M152.300369,482.05357 L153.127148,484.320555 C163.642018,513.279139 177.883826,588.067019 180.20329,606.090795 L180.744505,610.671516 C181.941804,621.148697 184.059582,641.245224 186.458185,662.281509 L188.288542,678.004883 C190.551983,696.998324 192.915427,714.993035 194.903401,725.537249 L195.834025,730.402794 C197.815696,740.560945 199.335422,747.22539 201.038147,753.42422 L196.36239,754.945015 C184.693977,758.704733 175.178524,761.492419 167.829602,763.303326 L165.013648,763.976165 C155.909782,766.086126 145.032663,767.999367 132.387116,769.713663 L130.436902,763.063976 C129.104928,758.458624 127.988625,754.449988 127.085829,751.04022 C124.143396,739.891953 112.823684,718.792256 104.978991,704.714003 L98.369572,692.9574 C95.4911278,687.820111 81.4031994,654.768847 68.370262,621.808329 L65.923166,615.588153 C56.6351243,591.855248 48.301646,569.091106 45.5526384,557.867664 L44.5267289,553.647979 C41.1431508,539.626885 39.2765724,530.754376 37.8687554,522.185318 L37.5041862,519.908625 L37.2814376,518.457994 L37.0645237,516.999717 C36.6805913,514.378095 36.3192342,511.694527 35.9509265,508.813828 L39.505724,507.09792 C61.7840427,496.395836 79.5896514,488.835044 92.9150181,484.415937 C106.669863,479.854401 125.162615,475.466428 148.325975,471.274538 L150.678322,477.63109 C151.211915,479.080544 151.752655,480.554657 152.300369,482.05357 L152.300369,482.05357 Z" id="bp-forearm-right-back" fill="#FFFFFF"></path>
                    <path d="M130.154142,422.437189 L131.305224,425.767382 C134.633829,435.242885 139.743998,448.333877 146.195658,465.560974 L142.076517,466.323832 C121.052278,470.276849 104.027425,474.409383 91.0263782,478.720935 L88.8440224,479.458572 C75.1594675,484.168215 57.2804129,491.854395 35.1703853,502.525004 L32.568104,481.168373 C31.9520063,476.233049 31.2474746,470.712436 30.4208754,464.452876 L30.1380494,462.430341 C28.4517667,451.010914 24.6420939,434.760758 20.3831735,415.898373 L24.3631211,415.510163 C46.6339552,413.30284 64.107807,410.968461 76.8075975,408.502522 C89.2397986,406.088541 105.28486,401.951337 124.95595,396.089686 L125.327115,399.021666 C126.439692,407.396174 128.068017,416.222052 130.154142,422.437189 Z" id="bp-elbow-right-back" fill="#FFFFFF"></path>
                    <path d="M58.2461345,122.29796 C70.0259602,122.156616 84.6933974,123.878531 106.421275,127.722995 L107.271174,134.70809 C108.849107,148.016705 110.667063,165.105943 112.404319,182.885171 L113.104883,190.138689 L114.034172,200.035765 L114.742089,207.812267 C115.822155,219.850235 116.796413,231.544904 117.564585,241.932547 L117.985792,247.664516 C121.080329,291.829476 123.493019,366.346379 123.597919,377.51212 L123.597919,378.665389 L123.624277,379.924584 C123.702221,382.587364 123.931091,386.093133 124.302929,390.021749 L118.608084,391.707273 C101.21978,396.795422 86.9023281,400.43035 75.6639278,402.612529 L73.4469643,403.03247 C60.2334937,405.475301 42.0995408,407.798555 19.0572469,409.998047 L17.7862378,404.278346 C12.2578181,379.217334 6.54692236,350.688001 4.03863345,323.177424 L3.90750899,321.762049 C3.09453732,312.27379 1.62594334,291.436316 0,268.056409 C1.78329269,260.193211 3.85505921,251.884432 6.29397421,243.025229 C15.2891124,210.130852 28.8736067,182.19029 39.4160135,161.326606 L44.7658916,150.76371 L47.649371,145.009527 C49.0164222,142.259924 50.2626291,139.702812 51.3483396,137.343853 L58.2461345,122.29796 Z" id="bp-upper-arm-right-back" fill="#FFFFFF"></path>
                    <path d="M20.009593,0 L21.0848136,0.498002519 C35.2200307,7.10308856 46.863883,13.4722787 54.2593027,19.5269409 C86.3502896,45.801609 100.471675,93.8290445 103.832199,110.175493 L104.034149,111.185615 C104.467499,113.416933 105.004746,116.94682 105.616074,121.488735 L102.47508,120.947358 C81.3454651,117.352719 66.9903123,115.902125 55.1393153,116.369412 L43.0350487,108.957709 C20.7963398,95.3281664 7.0282712,58.2138734 7.0282712,40.8886279 C7.0282712,29.4370272 11.1137714,16.7801201 18.4264476,2.70344213 L19.8522437,0 L20.009593,0 Z" id="bp-shoulder-right-back" fill="#FFFFFF"></path>
                </g>
                <g id="bp-upper-limb-left-back" stroke-width="1" fill="none" transform="translate(0, 432.1286)">
                    <path d="M107.439324,760.943545 L107.978214,759.189856 L114.186993,761.202206 C125.215203,764.730506 134.293245,767.373175 141.418872,769.129058 C151.071265,771.50758 162.781712,773.640896 176.55634,775.53183 L175.471244,779.11626 C174.728606,781.55837 173.947518,784.105381 173.128153,786.756832 L169.935041,797.013716 L170.013715,797.17098 L168.466447,803.382906 L168.650021,803.382906 C168.387772,808.022193 168.781146,813.840959 169.331868,818.454035 L169.489218,819.738357 C169.803916,822.389378 170.214951,826.157294 170.606719,830.266331 L170.957812,833.996955 L171.010261,834.730854 L171.115161,835.988966 L171.193836,837.142235 L171.343846,839.169947 C171.722866,844.547555 171.922305,849.62142 171.665884,852.789998 L171.587209,853.707371 L171.454446,855.53925 C171.347907,857.145677 171.251612,858.938957 171.165562,860.823104 L171.036486,863.667421 L170.931587,866.209855 L170.704584,872.573594 C170.651715,874.170137 170.60472,875.704614 170.565277,877.123345 L170.459539,881.307195 L170.407089,883.928261 C170.380864,884.452474 170.354639,885.002898 170.354639,885.553322 L170.302189,886.103745 L170.302189,886.837644 L170.14484,889.773238 L170.021347,891.456095 C169.721964,895.312287 169.354815,898.629164 169.148294,900.440976 L168.96472,901.908773 C168.96472,901.908773 166.289114,912.06419 162.633603,924.130693 L161.174732,928.874645 L160.392195,931.358191 C159.864451,933.018151 159.325264,934.683419 158.778608,936.334679 L158.229608,937.980555 C157.609513,939.825303 156.981639,941.644176 156.351643,943.409673 L155.327776,946.257208 L154.313619,948.970658 C148.30459,964.946787 143.650797,975.475195 139.750189,982.427917 L139.487941,982.873498 L138.564329,984.527992 C134.879352,991.306327 133.48488,996.960813 127.083566,995.061454 C121.655014,993.436394 122.231961,987.696259 123.543206,982.401706 L123.648105,982.034757 L123.83168,981.300858 L123.936579,980.933909 L124.172603,980.042747 L124.847737,977.656109 C125.185933,976.501163 125.651687,974.936911 126.218145,973.070712 L136.12091,940.513797 C136.334397,939.804471 136.531084,939.147566 136.708102,938.551274 L137.337499,936.402 C139.59284,928.617434 140.353362,924.397518 138.51762,924.004358 C136.690337,923.623881 136.091067,927.391834 133.772579,934.429278 L133.246416,936.00884 C132.548834,938.045408 131.799851,940.480116 131.017458,943.115179 L127.765414,954.225248 C126.623174,958.116075 125.480934,961.903353 124.39395,965.126869 L123.051646,969.063836 C122.121817,971.836714 120.946942,975.434913 119.688147,979.335059 L116.724734,988.325315 C113.839996,997.001043 110.981482,1005.20498 109.512888,1007.7212 L109.381764,1007.93089 C106.497026,1012.80607 103.03534,1014.50976 98.0263854,1013.04197 C92.9387563,1011.54796 90.5785159,1008.4551 91.548837,1000.19874 L91.6012868,999.779373 C92.020885,996.686515 93.1747803,991.785122 94.5909245,986.464358 L95.4825709,983.161815 L96.898715,978.208001 L98.0944591,974.142761 C98.8816009,971.500377 99.6386799,969.02359 100.30557,966.892678 L101.75032,962.350552 L103.218914,958.025793 C104.32036,954.749461 105.762729,950.31986 107.152648,945.759205 L107.414897,944.868043 L108.122969,942.404241 L108.647467,940.621916 L109.351601,937.997749 C109.443396,937.648381 109.533194,937.301849 109.620778,936.958665 L109.926138,935.738548 L110.219189,934.513773 C111.529632,928.892504 112.013271,924.655762 110.535659,924.47615 C106.638557,923.986052 99.9983665,950.531169 96.9890185,959.418276 L95.3990397,964.080456 C94.8356902,965.752113 94.2412593,967.540263 93.6468284,969.375009 L92.9387563,971.498072 L91.4963872,975.953884 L88.3629071,985.900162 L87.5888782,988.430158 L87.2217297,989.662059 C86.7234567,991.339541 86.1202842,993.567447 85.4908868,995.926406 L82.3104878,1007.90957 C81.9944129,1009.06383 81.7182487,1010.04272 81.5047031,1010.76164 L81.3211289,1011.23343 L81.3211289,1011.33827 C80.1672336,1014.79808 76.1023753,1020.19748 69.0741041,1019.38495 C61.9933831,1018.57242 59.6331427,1008.79584 61.2328612,1002.32181 L62.2609111,998.158063 C63.7931003,991.927694 65.6694959,984.110024 66.4253899,978.994321 L66.5040646,978.417686 L66.7042449,977.212124 C67.1517922,974.634634 67.8737481,971.095315 68.7133076,967.248702 L69.8346259,962.193288 L70.2017744,960.568227 L71.1709443,956.459877 C71.7444384,954.067696 72.3075721,951.808834 72.829264,949.838612 L73.3487615,947.908479 L73.5847856,947.043527 C74.4639862,943.916907 76.0525773,938.507926 77.4339308,933.023062 L77.7889801,931.591957 C79.7674565,923.489053 81.1188861,915.639604 78.8822139,915.171366 C76.8628971,914.751996 74.5551066,921.016343 72.4833401,928.171853 L72.3522156,928.643645 C72.3259907,928.827119 72.2735409,928.984383 72.2210912,929.141647 L72.0899667,929.63965 L71.8801676,930.373548 C71.8277178,930.530812 71.8014929,930.714287 71.7490431,930.871551 L71.3032199,932.470401 L70.2935616,936.256613 C69.3199624,939.963373 68.4643753,943.334719 67.8153092,945.497098 L67.631735,946.073733 L67.3044095,947.204553 C66.7386317,949.221924 66.0757247,951.879394 65.3763942,954.828093 L62.8850294,965.44341 L61.7953486,969.833028 C60.6809532,974.21998 59.5846234,978.090188 58.5966879,980.41189 L58.1907736,981.327069 C57.946008,981.868756 57.7128978,982.422092 57.4836728,982.987078 L56.5648303,985.311089 L56.3025814,985.940145 L56.1714569,986.280884 C55.9878827,986.726465 55.8043084,987.172046 55.6207342,987.591417 L55.410935,988.063208 C53.470293,992.387967 50.9527033,995.900195 45.9699737,994.799348 C38.2598553,993.095655 37.7615823,982.768655 39.7284493,975.351039 L39.7808991,975.115143 C40.541421,972.127128 41.4855171,966.727732 42.482063,960.542017 L43.8457574,952.102184 L44.4227051,948.485114 C45.3143514,942.980875 46.2059977,937.633901 47.0714192,933.466406 L47.2287686,932.653876 L47.3861179,931.919977 C49.9823823,920.020338 62.4129813,881.674144 61.2066363,869.093028 L61.0847378,867.915173 C60.1344296,859.27182 58.7920719,859.442495 55.0069036,862.638494 L51.4509763,865.711853 L50.7166793,866.314698 C43.5835085,872.343149 34.7719446,882.801202 24.3606623,886.601748 C18.1453627,888.882075 6.26548639,890.926507 1.57123062,884.347631 C-3.12302514,877.768756 3.69544692,876.851383 8.99287522,871.58304 L9.78127416,870.775385 C11.1742093,869.318859 12.9493723,867.328946 14.9199107,865.08741 L21.2661249,857.848655 L23.2958431,855.569281 C26.8944753,851.568329 30.3898863,847.918809 32.9630203,845.868769 L33.7491738,845.267539 C39.8857986,840.444778 43.5048338,830.956519 47.2025437,826.841446 C54.4930638,818.742352 67.5268354,810.617048 73.6372354,805.53218 L73.8994843,805.296284 C77.7283186,802.151005 84.2583168,797.931089 89.4246207,794.680967 L90.5260662,793.973279 L92.8600816,792.531693 C95.0367477,790.696947 97.5805623,787.971038 99.1540558,785.559658 L99.1540558,785.612079 L101.225822,779.898156 L101.592971,779.740892 L101.383172,779.66226 L106.027207,765.409275 C106.525972,763.857476 106.994149,762.380772 107.439324,760.943545 L107.439324,760.943545 Z" id="bp-hand-left-dorsal" fill="#FFFFFF"></path>
                    <path d="M160.331775,476.745334 L162.357897,471.274507 L166.517949,472.038827 C187.745485,475.998921 204.847772,480.130848 217.769021,484.415937 L219.910282,485.139807 C233.707394,489.889671 251.984376,497.781184 274.732177,508.812281 C274.340345,511.884362 273.955761,514.731364 273.543202,517.517932 L273.065934,520.632707 C272.530019,524.011366 271.932462,527.391648 271.207964,531.072525 L270.889502,532.66932 C269.528611,539.406575 267.733186,547.238552 265.131401,557.867664 L264.798637,559.179139 C261.833144,570.504944 254.107142,591.635536 245.441527,613.846275 L242.313777,621.808329 L238.020697,632.577254 C226.336581,661.657001 214.878459,688.381327 212.314467,692.9574 L206.23439,703.765201 C198.553774,717.515531 187.128769,738.673052 183.811672,750.26489 L182.528585,754.997414 C181.374143,759.191937 179.965071,764.098083 178.29975,769.712616 C164.321612,767.819158 152.504481,765.681269 142.854437,763.303326 L139.868371,762.544902 C131.954917,760.479357 121.877059,757.437618 109.649548,753.42347 L110.25465,751.166768 C111.85345,745.06728 113.357493,738.203271 115.334815,727.896208 L115.780638,725.537249 C117.983529,713.85312 120.64746,693.0205 123.125478,671.817982 L124.740386,657.746313 C127.021751,637.54078 128.996206,618.805127 130.082054,609.432459 L130.414128,606.61949 C131.547043,597.419548 136.274132,571.022794 142.055768,544.078493 L142.702382,541.083274 C147.474155,519.114219 152.883616,497.191037 157.556892,484.320555 L160.331775,476.745334 Z" id="bp-forearm-left-back" fill="#FFFFFF"></path>
                    <path d="M185.534971,397.649978 L185.730494,396.090402 L189.616153,397.239666 C207.523665,402.495611 222.273527,406.249564 233.876442,408.502522 L236.167191,408.936332 C249.428988,411.386859 267.466185,413.706077 290.298171,415.898351 L285.91272,435.332583 C283.439571,446.445407 281.435956,456.038689 280.398587,463.455101 L278.934563,474.683269 C277.42741,486.49106 276.401378,495.250749 275.515054,502.525493 L271.96634,500.821135 C250.311396,490.472297 232.888409,483.108664 219.657661,478.720935 C205.81832,474.131378 187.419542,469.744671 164.490909,465.563719 L169.604873,451.996671 C173.850612,440.789342 177.273024,431.827169 179.68564,424.889631 L180.529897,422.437189 C182.73024,415.881766 184.42128,406.421894 185.534971,397.649978 L185.534971,397.649978 Z" id="bp-elbow-left-back" fill="#FFFFFF"></path>
                    <path d="M204.260957,127.723802 L207.700171,127.122409 C227.557129,123.69898 241.291144,122.164093 252.439073,122.297974 L259.3357,137.343853 C261.145217,141.275451 263.400558,145.757474 265.918148,150.76371 L271.268026,161.326606 C281.810432,182.19029 295.394927,210.130852 304.390065,243.025229 C306.82898,251.884432 308.900746,260.193211 310.684039,268.056409 L307.959992,306.5122 C307.48906,312.912145 307.085459,318.15651 306.77653,321.762049 L306.645406,323.177424 C303.944171,352.804199 297.528671,383.61249 291.627074,409.999316 L285.809982,409.430715 C264.243107,407.272475 247.309651,404.998809 235.020111,402.612529 L232.564658,402.122663 C220.468865,399.647499 205.070679,395.613914 186.381439,390.022963 L186.555285,388.095388 C186.879039,384.318627 187.058706,381.035501 187.086121,378.665389 L187.086121,377.51212 C187.156403,370.031074 188.262653,334.111691 189.915847,297.936398 L190.302658,289.683454 C191.024571,274.671189 191.834872,259.98654 192.698248,247.664516 L192.803147,246.301562 L193.28718,239.686969 C194.084281,229.117526 195.080306,217.309893 196.174975,205.227799 L197.265994,193.437295 L198.27972,182.885171 C200.338684,161.813496 202.510911,141.711068 204.260957,127.723802 Z" id="bp-upper-arm-left-back" fill="#FFFFFF"></path>
                    <path d="M290.674446,0 L290.831795,0 L291.539868,1.3367436 C299.302436,15.9622913 303.655768,29.0676207 303.655768,40.8886279 C303.655768,58.2138734 289.887699,95.3281664 267.64899,108.957709 L255.544716,116.369411 C243.115623,115.879331 227.932108,117.498805 205.06898,121.489632 L205.541058,118.07689 C205.882549,115.687526 206.194777,113.690237 206.471082,112.146722 L206.64989,111.185615 C209.613303,95.9048009 223.643621,46.3666556 256.424736,19.5269409 C263.820156,13.4722787 275.464008,7.10308856 289.599226,0.498002519 L290.674446,0 Z" id="bp-shoulder-left-back" fill="#FFFFFF"></path>
                </g>
                <path d="M546.001325,248.467846 C577.46611,248.467846 592.34335,256.882395 608.938426,271.876612 C607.469832,276.804216 606.211037,282.491929 605.47674,288.965962 L605.396581,289.74389 C605.132033,292.576875 604.893244,297.775174 604.658518,304.331646 L603.725892,334.257007 L603.371153,345.144861 C602.797895,361.728978 602.08997,371.549672 601.070959,376.902722 C596.944082,393.672317 577.465935,422.734141 546.001307,430.555941 C514.532749,422.734141 495.054602,393.672317 490.927726,376.902722 C489.908714,371.549672 489.200789,361.728978 488.627532,345.144861 L488.272792,334.257007 L487.340166,304.331646 L487.09128,297.98966 C486.91111,293.877878 486.724382,290.728349 486.521944,288.965962 C485.787647,282.491929 484.528852,276.804216 483.060258,271.876612 C499.655334,256.882395 514.53654,248.467846 546.001325,248.467846 Z" id="bp-neck-back" fill="#FFFFFF"></path>
                <path d="M668.312899,156.575924 C664.720089,144.702495 654.675955,154.872231 654.177682,155.710972 C660.524106,125.568714 667.080329,101.035537 658.898162,70.2904345 C646.336439,23.1374591 602.619543,6.59853338 587.409105,3.08630509 C569.497504,-1.02876836 522.502496,-1.02876836 504.590895,3.08630509 C489.380457,6.57232272 445.689786,23.1374591 433.101838,70.2904345 C424.919671,101.035537 431.449669,125.568714 437.822318,155.710972 C437.324045,154.872231 427.279911,144.702495 423.687101,156.575924 C420.907263,165.775865 432.734689,190.073146 439.946535,208.997241 C445.453762,223.413104 444.457216,225.195429 446.214284,227.737863 C449.702195,232.770309 453.21633,225.457535 453.924402,223.858685 C454.003077,223.67521 454.055527,223.544157 454.055527,223.544157 C454.055527,223.67521 454.055527,223.858685 454.055527,224.015949 C456.730466,227.921337 467.79737,243.647732 472.019578,249.623763 C484.397727,239.768555 498.50672,232.717888 513.848282,228.655236 C524.233339,225.509956 535.169119,223.911106 546.498273,223.911106 C559.427145,223.911106 571.72662,225.981748 583.186898,230.096822 C596.509143,234.316738 608.782393,240.974245 619.901747,250.016923 C623.835481,244.381631 635.243309,228.02618 637.970698,224.015949 C637.970698,223.832474 637.970698,223.649 637.970698,223.517946 C637.970698,223.517946 638.023148,223.622789 638.101823,223.832474 C638.809895,225.457535 642.32403,232.744098 645.811941,227.711652 C647.569009,225.195429 646.572463,223.386893 652.07969,208.971031 C659.291536,190.073146 671.118962,165.749654 668.339124,156.549713" id="bp-head-back" fill="#FFFFFF"></path>
            </g>
        </g>
        <g id="viewport-boundary" mask="url(#mask-2)" stroke="#FF0000" stroke-width="3">
            <g transform="translate(260, 190)" id="boundary">
                <rect x="0" y="0" width="560" height="1080"></rect>
            </g>
        </g>
    </g>
</svg>