<?xml version="1.0" encoding="UTF-8"?>
<svg width="1080px" height="1460px" viewBox="0 0 1080 1460" version="1.1" xmlns="http://www.w3.org/2000/svg" xmlns:xlink="http://www.w3.org/1999/xlink">
    <title>abdomen</title>
    <defs>
        <rect id="path-1" x="0" y="0" width="1080" height="1460"></rect>
    </defs>
    <g id="abdomen" stroke="none" stroke-width="1" fill="none" fill-rule="evenodd">
        <mask id="mask-2" fill="white">
            <use xlink:href="#path-1"></use>
        </mask>
        <g id="mask"></g>
        <g id="bp-abdomen" mask="url(#mask-2)" fill="#FFFFFF">
            <g transform="translate(313.7004, 565.474)">
                <path class="hover" d="M440.115532,164.331389 L440.673622,166.670148 C441.993942,172.155923 443.491085,178.12557 445.190507,184.714734 L445.608123,186.444719 L445.778046,187.195631 C446.216275,189.157065 446.752686,191.735246 447.331353,194.605967 L451.025065,213.235527 L451.18789,213.996082 L451.894128,217.478577 L452.251896,219.159626 C452.406574,219.874483 452.542534,220.487015 452.653362,220.976886 L451.180465,222.559424 L450.309035,223.477958 C434.472061,240.077657 340.493995,333.791008 232.523286,337.295153 L232.424723,255.997389 L236.51501,255.997919 C252.390492,255.997919 260.354886,254.48259 268.412542,250.272086 L268.778891,250.078839 C276.184623,246.119125 282.033103,240.26522 286.010936,232.839361 C290.367683,224.675977 291.932362,216.676015 291.932362,200.534715 L291.932704,195.638628 C344.580611,194.294564 393.98013,183.86248 440.115532,164.331389 Z" id="bp-lower-left-quadrant-adbomen"></path>
                <path class="hover" d="M12.4714028,164.579943 C58.5891054,184.014532 107.964436,194.368069 160.581708,195.651506 L160.581723,200.534715 C160.581723,216.719415 162.134699,224.684295 166.503149,232.839361 C170.449394,240.233601 176.297873,246.087506 183.717664,250.069469 L184.447998,250.452642 C192.238289,254.460818 200.105996,255.951937 215.282305,255.996868 L220.425628,255.996305 L220.523226,337.298733 C101.816615,333.696383 -0.0799696797,220.869974 0,220.976886 L0.276148883,219.735308 L1.26855727,214.955498 L3.41946398,204.190362 L3.60942634,203.293994 L3.69083878,202.832229 L5.96699495,191.485027 L6.48865534,188.984344 C6.84609497,187.301709 7.15867549,185.90684 7.40683376,184.932145 L8.94065324,178.929831 L9.86700567,175.249176 C10.5696224,172.439021 11.2309015,169.749528 11.8535136,167.166574 L12.4714028,164.579943 Z" id="bp-lower-right-quadrant-adbomen"></path>
                <path class="hover" d="M215.354455,136.53654 L237.159984,136.53654 L239.048137,136.550161 C251.575371,136.690804 257.320893,137.936838 263.130086,141.042918 C268.456756,143.901578 272.59487,148.043532 275.428638,153.353268 L275.724353,153.91616 C278.816597,159.922182 279.932362,166.066906 279.932362,179.999744 L279.932362,200.534715 C279.932362,214.863313 278.734785,220.986341 275.428638,227.181191 C272.572184,232.513634 268.43407,236.655587 263.130086,239.491541 L262.56459,239.786877 C256.625886,242.827156 250.579016,243.962361 237.15963,243.997919 L215.999075,243.997919 C201.686069,243.997919 195.571146,242.799707 189.383999,239.491541 C184.057329,236.632881 179.919215,232.490927 177.085447,227.181191 L176.789732,226.618299 C173.745803,220.706121 172.617048,214.659542 172.581723,201.182142 L172.581723,179.354066 L172.589232,178.095928 C172.69495,165.114358 173.929579,159.266534 177.085447,153.353268 C179.941901,148.020825 184.080015,143.878872 189.383999,141.042918 L189.949495,140.747582 C195.888199,137.707302 201.935069,136.572072 215.354455,136.53654 Z M226.29959,183.193625 C222.391793,183.193625 219.243846,186.371656 219.243846,190.255917 C219.243846,194.140177 222.418931,197.318208 226.29959,197.318208 C230.18025,197.318208 233.355335,194.140177 233.355335,190.255917 C233.355335,186.371656 230.18025,183.193625 226.29959,183.193625 Z" id="bp-umbilical-region"></path>
                <path class="hover" d="M232.285723,0 L429.287944,52.3782533 L430.124104,85.0660539 L430.195981,87.5747649 C430.93852,112.738859 432.082208,127.716187 437.410316,152.436116 C392.203511,171.880094 343.732455,182.276328 291.932635,183.634618 L291.932362,179.999744 C291.932362,163.815044 290.379386,155.850164 286.010936,147.695098 C282.064691,140.300858 276.216212,134.446953 268.796421,130.46499 L268.066087,130.081817 C260.154073,126.011013 252.162204,124.53654 236.51501,124.53654 L232.517719,124.535481 L232.285723,0.265255042 L232.285723,0 Z" id="bp-upper-left-quadrant-adbomen"></path>
                <path class="hover" d="M23.3655121,52.3782533 L220.286471,0.022 L220.51769,124.535695 L215.999075,124.53654 C199.883056,124.53654 191.919669,126.098136 183.735194,130.45562 C176.329462,134.415334 170.480982,140.26924 166.503149,147.695098 C162.146402,155.858482 160.581723,163.858444 160.581723,179.999744 L160.581869,183.647848 C108.813046,182.350899 60.366385,172.034543 15.1764483,152.69139 L15.6066223,150.67744 C22.6064419,117.545917 21.9953135,101.687873 23.3655121,52.3782533 Z" id="bp-upper-right-quadrant-adbomen"></path>
            </g>
        </g>
        <g id="decoration" opacity="0.15" mask="url(#mask-2)">
            <g transform="translate(-25, -339)">
                <g id="bp-lower-limb-left-front" stroke-width="1" fill="none" transform="translate(577.9446, 1284.2438)">
                    <path d="M59.5939069,94.0642925 L115.919775,65.027639 L143.637762,285.819453 C157.467518,396.468217 167.710859,479.385395 174.367657,534.569927 L174.764599,537.846568 C150.271248,541.195 122.917574,542.287876 92.7005255,541.116772 L92.2674333,539.477596 C88.7053877,526.093446 85.4578242,513.393692 82.3270885,500.360881 L80.784369,493.870811 C74.699928,467.999993 68.9402869,440.195654 62.0074168,402.746499 L59.1475839,387.141606 C55.8068351,369.320785 42.8380321,311.821112 29.0957496,252.958349 L23.2204887,227.911709 C14.5559757,191.151749 6.0826366,156.003014 0,131.983366 L1.49082574,131.540766 C8.91732322,129.247066 42.2505052,117.891521 59.5939069,94.0642925 Z" id="bp-thigh-medial-left-front" fill="#FFFFFF"></path>
                    <path d="M121.835,61.9725 L187.425191,28.1540717 L187.139704,30.6884516 C182.721776,71.8116799 185.47356,139.923079 191.958933,159.711812 C203.375677,194.605163 220.485413,211.985261 242.878094,210.925283 L243.349491,242.274788 C244.699249,326.686911 246.656967,408.390427 248.57932,448.455521 C249.666749,470.690754 251.989283,492.307862 255.028433,513.778634 C234.453047,524.738489 209.761533,532.464723 180.950849,536.943455 L174.325212,482.468205 C164.409408,401.529526 149.74317,283.852935 130.325715,129.437363 L121.835,61.9725 Z" id="bp-thigh-lateral-left-front" fill="#FFFFFF"></path>
                    <path d="M241.984913,0.0271626603 L242.066325,0 L241.907456,8.42186362 C241.711005,20.8578946 241.614295,36.3069867 241.603684,53.942912 L241.604904,62.2981565 L241.63239,76.4387021 C241.743945,114.146512 242.163832,158.940605 242.789909,204.634727 C223.364644,205.576564 208.529401,190.258104 197.898586,157.766812 C194.037365,145.985122 191.533584,115.213239 191.262049,83.9589974 L191.242164,80.779658 L191.240049,76.5063551 C191.292707,58.0078238 192.153792,39.856558 194.005387,25.9048514 L194.1725,24.675 L241.984913,0.0271626603 Z" id="bp-trochanter-left" fill="#FFFFFF"></path>
                </g>
                <g id="bp-lower-limb-right-front" stroke-width="1" fill="none" transform="translate(143.2834, 1284.2438)">
                    <path d="M292.852254,65.027639 L349.178122,94.0642925 C366.071045,117.272631 398.133899,128.648754 406.650815,131.343635 L408.181788,131.813194 L408.772029,131.983366 L405.964963,143.172502 C400.353258,165.725178 393.302133,195.042483 386.086498,225.616396 L378.266494,258.964958 C364.754372,316.953771 352.293287,372.341347 349.422359,388.235903 L347.605479,398.188432 C337.018627,455.774309 329.229345,490.781346 319.120252,529.55191 L316.073632,541.118471 C285.854455,542.287876 258.500781,541.195 234.007429,537.846568 L239.319741,494.10225 C248.416214,419.673203 261.886985,311.413993 279.732385,169.327276 L292.852254,65.027639 Z" id="bp-thigh-medial-right-front" fill="#FFFFFF"></path>
                    <path d="M222.75861,28.8823051 L286.937467,61.9744596 L266.812084,222.096703 C250.406456,352.975846 238.216577,451.257259 230.242285,516.942292 L227.82118,536.943455 C199.010496,532.464723 174.318982,524.738489 153.741364,513.779314 C156.782746,492.307862 159.105279,470.690754 160.192708,448.455521 L160.581863,439.794812 C162.614574,391.725335 164.638385,300.118091 165.895549,210.865608 C188.941316,212.689098 206.501675,195.318206 218.143307,159.737524 C224.725073,139.654671 227.461775,69.7647348 222.75861,28.8823051 Z" id="bp-thigh-lateral-right-front" fill="#FFFFFF"></path>
                    <path d="M166.705703,0 L166.787116,0.0271626603 L216.026705,25.4117856 C217.802482,38.5082127 218.688994,55.4143314 218.84066,72.8619867 L218.86039,76.0307672 L218.86039,80.5831621 C218.747515,112.980599 216.204039,145.586206 212.203655,157.792524 C201.331153,191.022487 186.061556,206.290193 165.983914,204.57502 L166.33763,176.979305 C167.218683,103.131307 167.491318,35.0709115 166.705703,0 Z" id="bp-trochanter-right" fill="#FFFFFF"></path>
                </g>
                <g id="bp-pelvic-region-front" stroke-width="1" fill="none" transform="translate(314.2225, 1145.7142)">
                    <path d="M485.977999,0 L486.005136,0 L486.7716,2.47092609 C491.878094,18.5279222 501.527775,42.9957749 501.527775,113.648571 L458.399955,135.551221 C460.574098,99.516061 457.431594,66.0835786 448.973749,35.2930245 L451.721683,32.9763306 C473.620002,14.3550171 485.977999,0 485.977999,0 Z" id="bp-hip-left" fill="#FFFFFF"></path>
                    <path d="M443.673758,39.6519569 C451.670699,70.0569971 454.426937,103.125785 451.922145,138.84038 L313.768359,209.003398 C323.451677,184.90934 326.095548,150.478678 321.848225,105.757893 C371.581053,91.2044264 413.209946,64.0639286 442.099515,40.9221775 L443.673758,39.6519569 Z" id="bp-groin-left" fill="#FFFFFF"></path>
                    <path d="M250.777456,179.682292 C273.169166,179.682292 293.864697,183.010233 312.877724,189.659219 L313.148537,189.755775 C310.843648,199.909821 307.638529,208.644258 303.541065,215.960997 C281.710985,239.913089 257.567943,247.768462 251.428756,248.809968 C244.857003,247.731632 219.012287,238.974415 196.949063,213.987774 C193.357098,207.089893 190.50764,199.012763 188.406376,189.755775 C207.493639,183.041925 228.279382,179.682292 250.777456,179.682292 Z" id="bp-genital-organ" fill="#FFFFFF"></path>
                    <path d="M314.540948,182.836763 L314.408287,183.574298 C294.861389,176.810723 273.646677,173.432292 250.777456,173.432292 C227.908235,173.432292 206.693523,176.810723 187.146626,183.574298 C183.472478,163.38098 183.002463,138.137001 185.789892,107.83408 C206.122182,113.102014 227.855225,116.256186 250.750319,116.256186 C273.509381,116.256186 295.274085,112.959124 315.733887,107.475486 C318.448409,136.774669 318.127245,161.35796 314.81598,181.235391 L314.540948,182.836763 Z" id="bp-mons-pubis" fill="#FFFFFF"></path>
                    <path d="M179.665312,106.17078 L179.266747,110.641979 C175.66195,153.005176 178.460368,185.812875 187.794632,209.023493 L50.1039516,139.092394 C50.1529991,138.823564 50.1673241,138.5438 50.1424671,138.258411 C47.0412982,102.653172 49.0781392,69.6302171 56.2333787,39.2068547 L58.8385404,41.3428786 C87.4603437,64.609319 129.017288,91.804782 179.665312,106.17078 Z" id="bp-groin-right" fill="#FFFFFF"></path>
                    <path d="M15.5226388,0 L17.5720998,2.34756472 C21.9830071,7.33372435 33.4683632,19.7825597 50.8848871,34.7058823 C43.1900455,65.7973598 40.782162,99.516711 43.6681556,135.824911 L0,113.648571 C0,39.2772067 10.6921673,16.0802949 15.5226388,0 Z" id="bp-hip-right" fill="#FFFFFF"></path>
                </g>
                <g id="bp-upper-limb-left-front" stroke-width="1" fill="none" transform="translate(630.1571, 361.7998)">
                    <path d="M385.341446,862.960937 L385.849286,864.914661 C387.296645,870.377465 388.83115,875.29338 390.837368,881.484432 L394.913991,894.002613 L397.184163,900.089073 C398.839549,902.588038 401.471885,905.412955 403.724296,907.314341 L406.139531,908.808287 L408.285778,910.159152 C413.458171,913.43273 419.620075,917.473176 423.371832,920.515394 L423.643206,920.759858 C429.966239,926.029414 443.453567,934.449839 450.997787,942.843101 C454.824171,947.107638 458.569144,956.940521 464.919314,961.938451 L465.244964,962.182915 C468.409544,964.561838 473.149849,969.681759 477.821083,974.954722 L478.753922,976.010588 C483.408636,981.292454 487.884626,986.554831 490.537095,989.209762 C496.018867,994.669456 503.074611,995.620149 498.217002,1002.43798 C493.359393,1009.2558 481.066115,1007.13712 474.634532,1004.77397 C463.860952,1000.83538 454.742759,989.997479 447.361364,983.750067 L446.601515,983.125326 L444.963883,981.722558 C439.228843,976.737399 437.627461,974.884353 436.506372,986.629309 C435.84476,993.53949 439.147066,1007.94995 442.797358,1021.80526 L443.211891,1023.37098 C446.329122,1035.0896 449.598849,1046.18887 450.807824,1051.73821 L450.970649,1052.49876 C452.001873,1057.33371 453.087373,1063.93424 454.172872,1070.61625 L456.249984,1083.54266 C457.157822,1089.06168 457.996349,1093.79182 458.704831,1096.52943 L458.759106,1096.7739 C460.794417,1104.46094 460.278805,1115.16302 452.300386,1116.92859 C447.089989,1118.06942 444.484791,1114.34814 442.44948,1109.78481 L441.743906,1108.10073 L441.608218,1107.74761 L441.336844,1107.09571 L440.739819,1105.5746 C440.504627,1104.97702 440.269436,1104.39151 440.026204,1103.81808 L439.43722,1102.47805 C438.053208,1099.463 436.397822,1093.16126 434.796711,1086.50641 L432.21865,1075.50553 C431.422617,1072.14415 430.672191,1069.14796 430.050981,1066.99817 L429.441377,1064.9382 C428.651663,1062.18504 427.641738,1058.12812 426.510458,1053.86416 L426.290011,1053.03659 C426.253027,1052.89833 426.215922,1052.75992 426.178701,1052.62142 L425.954008,1051.7894 C425.727971,1050.95671 425.497986,1050.1229 425.264768,1049.2959 L425.0305,1048.47148 C422.834437,1040.80357 420.377638,1033.96086 418.242848,1034.40843 C415.873203,1034.90523 417.39554,1043.42015 419.521511,1052.02594 L419.739665,1052.9011 L419.961211,1053.77505 C421.336298,1059.15677 422.861104,1064.36287 423.724619,1067.43822 L424.442895,1070.09145 C425.17524,1072.86559 425.996766,1076.23152 426.818292,1079.74291 L427.225354,1081.48132 L427.605278,1083.1654 L427.849516,1084.27907 L428.747573,1088.29503 C429.828522,1093.22191 430.726089,1097.68456 431.133151,1100.38653 L431.133151,1100.57667 C432.137238,1107.15003 434.905261,1118.04226 436.53351,1124.75144 C438.188896,1131.46061 435.746523,1141.59229 428.419403,1142.43433 C421.146558,1143.27637 416.940249,1137.68086 415.7462,1134.09539 L415.7462,1133.98674 L415.525389,1133.30852 C414.971085,1131.52894 414.151873,1128.4184 413.249551,1124.9959 L411.43134,1118.12375 C410.780041,1115.67911 410.155879,1113.37028 409.640266,1111.63187 L408.385436,1107.51764 C407.809964,1105.66511 407.117834,1103.4676 406.362779,1101.09493 L403.697158,1092.80815 L401.14523,1085.12112 C400.856769,1084.25493 400.576348,1083.41892 400.304973,1082.62215 L399.653674,1080.72076 C398.53596,1077.50435 396.878768,1071.62846 395.026243,1065.50973 L394.23564,1062.92575 C391.234729,1053.23212 387.867253,1043.77867 385.487909,1044.07834 C383.437917,1044.33482 385.026871,1052.11247 387.448978,1060.76716 L387.859896,1062.21658 L388.283356,1063.67542 C389.283817,1067.08503 390.363131,1070.51563 391.35628,1073.57645 L393.057994,1078.74977 C393.069442,1078.78542 393.079619,1078.81938 393.086403,1078.84654 L394.606102,1083.32838 L395.360039,1085.66331 C396.543537,1089.37772 398.179274,1094.7111 399.778919,1100.27227 L401.09196,1104.86837 L401.607572,1106.76976 C403.290096,1112.99 404.701245,1118.82998 405.135445,1122.3068 L405.135445,1122.5241 C406.166669,1131.08034 403.724296,1134.28553 398.459625,1135.8338 C393.194953,1137.38207 389.585668,1135.53501 386.573408,1130.31978 C385.216534,1127.96092 382.66942,1120.83668 380.01277,1112.88887 L379.693515,1111.93143 C379.533694,1111.45099 379.373634,1110.96815 379.213569,1110.48376 L378.893501,1109.51318 L378.676401,1108.88844 L377.536627,1105.49311 L373.162658,1092.10709 C372.784055,1090.95843 372.434413,1089.90591 372.120583,1088.97455 L371.593519,1087.42994 C370.483898,1084.24286 369.30995,1080.41191 368.128856,1076.41405 L364.320511,1063.39435 C363.626552,1061.05369 362.957993,1058.86558 362.326558,1056.95909 L361.715476,1055.13354 C359.110278,1047.36502 358.513253,1043.18197 356.559355,1043.58941 C354.632594,1043.99685 355.473856,1048.47869 357.861954,1056.70897 L359.039466,1060.69849 C359.702214,1062.90376 360.521427,1065.59795 361.416964,1068.55189 L369.042596,1093.59587 L370.969357,1100.00625 L371.430694,1101.66318 C371.512107,1101.96196 371.593519,1102.26075 371.674931,1102.58671 L371.783481,1102.96698 L371.973444,1103.72754 L372.081994,1104.10781 L372.312444,1105.07991 C373.487602,1110.27975 373.705453,1115.64236 368.418434,1117.22738 C361.794364,1119.19572 360.351366,1113.33586 356.538157,1106.31133 L354.911413,1103.39666 C350.728793,1095.78349 345.705058,1084.19967 339.191367,1066.65051 L338.784305,1065.50967 C337.623891,1062.3282 336.464252,1058.94188 335.338275,1055.51084 L334.224736,1052.07083 L333.169525,1048.7282 C328.623248,1034.16014 325.079878,1020.69128 325.079878,1020.69128 L324.917053,1019.46897 L324.648523,1017.11082 C324.399563,1014.81231 324.088561,1011.61257 323.858691,1008.14214 L323.695866,1005.09992 L323.695866,1004.33936 L323.641591,1003.76895 C323.641591,1003.19853 323.614454,1002.62812 323.587316,1002.08486 L323.533041,999.368597 C323.478766,997.032608 323.388308,993.899848 323.277748,990.485401 L323.044567,983.722904 L322.936017,981.088126 L322.780042,977.770139 C322.64042,974.889876 322.496883,972.235568 322.338992,970.141574 L322.338992,969.842785 C322.030482,966.111493 322.306517,959.869198 322.820986,953.51784 L323.017429,951.154875 L323.071704,950.39432 L323.272176,948.126982 C323.716008,943.254524 324.211478,938.7017 324.564265,935.617833 L324.72709,934.286863 C325.296977,929.506234 325.70404,923.476124 325.432665,918.668333 L324.157203,912.20362 L323.967241,911.551716 L321.154379,902.527641 C318.290415,893.276655 315.863302,885.224989 313.875961,878.375567 L317.994243,877.85533 C333.572446,875.836512 346.752607,873.535003 357.542507,870.948355 L358.936331,870.609349 C365.92438,868.884834 374.726731,866.335026 385.341446,862.960937 Z M377.753727,924.073702 C375.202804,937.383406 378.812089,949.633766 388.445894,960.580318 C396.234351,969.435345 408.581905,974.759226 425.00008,977.882932 C426.465504,978.154559 427.876653,977.203866 428.148028,975.737082 C428.419403,974.270298 427.469591,972.85784 426.004167,972.586214 L425.027218,972.396075 C410.155879,969.462508 399.165199,964.627554 392.489379,957.022009 C383.941073,947.297777 380.820262,936.704339 383.045536,925.078721 C383.31691,923.611937 382.367099,922.199479 380.901675,921.927852 C379.436251,921.656226 378.025102,922.606919 377.753727,924.073702 Z" id="bp-hand-left-palmar" fill="#FFFFFF"></path>
                    <path d="M336.776132,587.935781 L337.440161,589.811866 C348.135906,620.731572 362.150465,694.290671 364.717992,713.544948 L365.083007,716.504726 C367.489216,736.922165 374.77335,809.386084 379.841661,837.00208 L380.549933,840.748997 C381.792362,847.234391 382.856216,852.395136 383.876005,856.868986 L378.95831,858.416492 C370.463133,861.055711 363.287789,863.097992 357.438877,864.541389 C345.527488,867.480888 330.424735,870.066453 312.142159,872.292753 L311.144993,868.707616 C310.727155,867.181406 310.342909,865.74472 309.991438,864.397338 C306.60061,851.531291 292.458862,825.875359 284.505228,811.722473 L280.275897,804.204883 C277.451354,799.156374 264.196173,768.095166 251.332389,735.768664 L246.829995,724.357023 C237.35258,700.118058 228.812986,676.805726 225.792299,664.89588 L224.559402,659.835583 C221.171027,645.773948 219.252797,636.709221 217.812241,628.090695 L217.292485,624.870776 L217.061986,623.367457 C216.574785,620.138424 216.129199,616.85478 215.672836,613.276303 L221.149916,610.635959 C243.312066,600.030621 261.098935,592.501373 274.503635,588.049416 L277.144818,587.192145 C291.069799,582.773192 309.316015,578.514031 331.825657,574.434061 L334.251542,581.01334 C335.076874,583.263458 335.918656,585.570769 336.776132,587.935781 Z" id="bp-front-of-forearm-left" fill="#FFFFFF"></path>
                    <path d="M313.030836,523.804741 C316.373028,533.798802 322.127036,548.443942 329.612159,568.483435 L325.350366,569.273674 C303.598118,573.368638 285.985046,577.650537 272.533695,582.117988 L270.219081,582.901833 C256.091872,587.775152 237.652496,595.713126 214.863394,606.723899 L212.333191,585.916538 C211.660778,580.502334 210.885194,574.396938 209.962686,567.40081 L209.669772,565.303149 C207.923252,553.459321 203.976128,536.60166 199.564828,517.034588 L203.673524,516.632556 C226.665181,514.346742 244.711093,511.931118 257.832682,509.379528 L260.455387,508.855409 C272.92728,506.298422 288.655897,502.186031 307.652402,496.517197 C308.799283,506.037953 310.622963,516.604546 313.030836,523.804741 Z" id="bp-elbow-front-left" fill="#FFFFFF"></path>
                    <path d="M295.495526,284.176633 L296.145123,291.085143 C297.857468,309.502042 299.396966,327.742486 300.439045,342.684122 L300.737096,347.041591 C301.673903,361.111019 302.54251,377.664891 303.300109,394.197543 L304.002559,410.234593 C305.327955,441.874791 306.179942,470.346705 306.242738,477.167323 L306.246466,477.872682 C306.246466,480.745196 306.494274,485.130741 306.972349,490.193591 L303.019404,491.370039 C284.79919,496.752449 269.75529,500.627333 257.89791,502.996382 L256.639671,503.244447 C242.823182,505.931165 223.333616,508.480183 198.185899,510.88636 L196.871697,504.962959 C191.155747,479.010197 185.255355,449.475311 182.66238,420.994071 L182.246604,416.054186 C182.015139,413.16384 181.749698,409.669643 181.456523,405.691982 L175.530518,321.62043 C175.199515,317.007476 174.871489,312.484899 174.549654,308.114705 C206.506913,303.056384 221.526858,282.260493 219.118058,246.728231 L223.725351,246.358973 C242.740134,244.778885 256.208716,242.931672 264.309102,240.774524 C266.367837,240.227606 268.468045,239.625023 270.605627,238.969425 C276.877562,237.045816 283.398905,234.690679 290.087391,231.977435 L290.79853,238.296223 C292.320127,252.013722 293.958798,268.012776 295.495526,284.176633 Z" id="bp-front-of-upper-arm-left" fill="#FFFFFF"></path>
                    <path d="M122.510095,156.591601 C130.247116,158.714061 137.497703,160.938163 144.587079,163.374614 C171.805188,172.728832 190.64011,183.674568 199.491915,196.528663 C203.517836,202.371666 205.986081,207.194279 207.588547,212.167462 C208.755068,215.787712 209.471843,219.337923 210.251568,225.051412 L210.712516,228.601261 L211.554967,235.32578 C211.666737,236.192133 211.774601,237.010531 211.884655,237.825615 L211.995665,238.641247 C217.180219,276.155022 204.745287,296.818492 174.084969,301.865022 L173.001054,287.748667 C172.342076,279.429286 171.741859,272.414623 171.237501,267.41639 C168.410861,239.65425 156.242681,184.240867 123.44777,157.348672 L122.510095,156.591601 Z" id="bp-armpit-left" fill="#FFFFFF"></path>
                    <path d="M19.8374982,0 C33.1348636,17.4384279 77.1993473,36.1263382 122.739432,54.3932272 L152.273948,66.1998968 C187.361558,80.3012428 219.458519,93.9221889 234.494968,106.260327 C268.055948,133.778991 282.624269,184.322695 285.90014,200.730769 L286.001906,201.24815 C286.818708,205.466183 287.993624,214.159008 289.33947,225.525932 C282.24732,228.456943 275.355228,230.975368 268.773003,232.994143 C266.709482,233.627027 264.685116,234.20785 262.702585,234.734523 C254.412023,236.942316 239.692136,238.870753 218.536686,240.505344 L218.369295,239.153856 L217.862237,235.362355 L216.729484,226.366706 L216.436031,224.146548 C215.612515,218.122993 214.834319,214.275719 213.53735,210.250631 C211.737248,204.664091 208.993384,199.302957 204.638988,192.983224 C194.833695,178.744527 174.998504,167.217494 146.618438,157.463939 C133.72881,153.034079 120.36623,149.307321 104.633598,145.635836 C79.3405664,132.976707 44.462928,124.103953 0,118.999615 L1.42002381,116.191285 C11.6303854,95.8397754 17.3715271,80.832534 18.643449,71.1933326 L18.8309335,69.6310781 C19.5939165,62.6317576 19.9953221,50.5255981 20.070112,33.2951024 L20.0817355,27.3256362 C20.0817355,19.2311635 20.000323,10.1588349 19.8646356,0.0814879808 L19.8374982,0 Z" id="bp-shoulder-left-front" fill="#FFFFFF"></path>
                </g>
                <g id="bp-thorax" stroke-width="1" fill="none" transform="translate(350.156, 501.9614)">
                    <path d="M241.720018,194.029514 C243.414077,195.472447 245.116377,196.873412 246.826786,198.232703 C276.226419,221.597089 307.502762,232.34711 339.662596,232.531416 C364.614017,232.674411 388.612498,226.507285 410.791396,216.148715 C417.776106,212.886533 424.124182,209.410957 429.756908,205.912946 L429.772875,210.644166 L429.854287,210.671328 L429.854287,215.777908 L429.804268,220.086758 C429.772498,221.958545 429.727646,223.598491 429.664325,224.850237 L429.359007,230.939864 C428.193994,255.172702 427.084523,289.359678 425.814554,324.101456 L424.902514,348.24195 C423.625105,380.73599 422.160812,411.788192 420.329032,433.540956 L328.561012,407.408278 C269.407441,390.625367 233.333675,380.55665 220.339714,377.207751 L217.892815,376.589109 C217.944737,376.378123 217.96903,376.156375 217.96903,375.928953 L217.966598,314.685 L239.620648,271.364611 C244.122962,262.406601 246.172088,252.388319 245.590175,242.321399 L245.50372,241.062854 L241.720018,194.029514 Z" id="bp-side-of-chest-left" fill="#FFFFFF"></path>
                    <path d="M187.963972,194.079191 L184.228599,240.49522 L184.172002,240.743158 C184.152759,240.847895 184.138686,240.954548 184.130065,241.062854 C183.298178,251.514156 185.333881,261.997414 190.012793,271.363921 L211.716598,314.785 L211.71903,375.928953 C211.71903,376.169859 211.74629,376.404397 211.797893,376.629653 L208.304749,377.520681 C188.043671,382.806579 121.782706,401.485279 9.52185354,433.540956 L9.19600805,429.515897 C5.17152982,377.984103 2.95082199,281.557305 0.467257813,230.368254 L0.186560288,224.823074 C0.0702568005,222.657822 0.0137665352,219.355064 0,215.701647 L0,205.91895 C5.62745711,209.416051 11.9713474,212.888924 18.9509391,216.148715 C41.1298374,226.507285 65.1283179,232.674411 90.0797395,232.531416 C122.239574,232.34711 153.515916,221.597089 182.915549,198.232703 C184.606323,196.889016 186.289174,195.504607 187.963972,194.079191 Z" id="bp-side-of-chest-right" fill="#FFFFFF"></path>
                    <path d="M214.659098,28.665 L214.871168,28.790155 L215.051966,28.6826201 L248.295337,47.7706356 C251.603975,49.6630452 252.838543,53.8214766 251.1772,57.2063782 L250.971099,57.5927199 L250.751216,57.9417746 L238.143679,77.2511409 C231.164614,87.9163039 227.929366,100.615032 228.961579,113.328773 L239.273628,241.561303 L239.356262,242.78089 C239.856354,251.722798 238.029374,260.613112 234.033215,268.564066 L214.816099,307.00772 L195.603655,268.57022 L195.073106,267.475792 C191.452996,259.776349 189.803581,251.281975 190.278106,242.774171 L190.323599,242.08522 L190.372268,241.880778 C190.391579,241.776116 190.405728,241.669537 190.414432,241.561303 L200.726674,113.326384 C201.758745,100.643109 198.52381,87.9456117 191.544735,77.2516823 L178.952591,57.9656521 C176.856939,54.7554186 177.634619,50.520258 180.657989,48.2630468 L181.128284,47.9397472 L181.571232,47.6600033 L214.659098,28.665 Z" id="bp-sternum" fill="#FFFFFF"></path>
                    <path d="M390.532078,37.0747664 C411.835,58.0986655 429.311538,107.507544 429.61005,191.90193 L429.61005,194.808335 C429.620059,195.399445 429.644837,196.737026 429.672126,198.548471 L428.87678,199.071773 L428.024315,199.619118 C422.217086,203.320254 415.554643,207.025995 408.146597,210.485894 C386.7504,220.478906 363.636527,226.418706 339.698414,226.281518 C308.922285,226.105142 279.005643,215.822466 250.715348,193.339688 C247.874003,191.081624 245.053918,188.703154 242.255738,186.202649 L240.999098,185.0625 L235.191274,112.825396 C234.303005,101.884589 236.96013,90.9575682 242.743612,81.6605208 L243.375215,80.6707194 L256.17705,61.0527573 L256.278663,60.8903344 C260.069952,54.2643467 257.837819,46.0284582 251.402898,42.3479485 L221.221617,25.0191752 L237.185998,15.612268 C249.982158,8.12832591 258.457473,3.34209432 262.603747,1.25767441 L262.943831,1.08795795 C264.317908,0.407605158 265.155227,0.0622463195 265.455431,0.0520604737 C300.598468,-1.17025924 372.567066,19.3647119 390.532078,37.0747664 Z M339.45934,140.999105 C332.702107,140.999105 327.220336,146.485962 327.220336,153.222302 C327.220336,159.958641 332.702107,165.445499 339.45934,165.445499 C346.216573,165.445499 351.698344,159.958641 351.698344,153.222302 C351.698344,146.485962 346.216573,140.999105 339.45934,140.999105 Z M339.78499,149.310879 C342.033132,149.310879 343.855612,151.135049 343.855612,153.385278 C343.855612,155.635506 342.033132,157.459677 339.78499,157.459677 C337.536847,157.459677 335.714368,155.635506 335.714368,153.385278 C335.714368,151.135049 337.536847,149.310879 339.78499,149.310879 Z" id="bp-breast-left" fill="#FFFFFF"></path>
                    <path d="M164.286904,0.0520604737 L164.440308,0.0760351011 C166.568116,0.578260761 181.242691,8.89514347 208.484172,25.0065243 L178.280637,42.3505415 L177.586517,42.7871257 C171.391451,46.8386348 169.655104,55.1567882 173.719166,61.382342 L186.311091,80.6680362 L186.942836,81.6606169 C192.727609,90.9827139 195.385012,101.909817 194.497025,112.822439 L188.684831,185.123203 C185.493963,188.020929 182.27436,190.758947 179.026988,193.339688 C150.736692,215.822466 120.82005,226.105142 90.0439217,226.281518 C66.1058086,226.418706 42.9919348,220.478906 21.5957379,210.485894 C14.1876923,207.025995 7.52524964,203.320254 1.71801986,199.619118 C1.14989922,199.257036 0.601767414,198.902416 0.0739246308,198.55595 L0.132285327,194.45522 C0.0780103664,108.4854 17.6902351,58.3159667 39.2102571,37.0747664 C57.1481316,19.3647119 129.11673,-1.14309658 164.286904,0.0520604737 Z M94.1365174,140.999105 C87.3792848,140.999105 81.8975137,146.485962 81.8975137,153.222302 C81.8975137,159.958641 87.3792848,165.445499 94.1365174,165.445499 C100.89375,165.445499 106.375521,159.958641 106.375521,153.222302 C106.375521,146.485962 100.89375,140.999105 94.1365174,140.999105 Z M94.4621672,149.310879 C96.7103096,149.310879 98.5327892,151.135049 98.5327892,153.385278 C98.5327892,155.635506 96.7103096,157.459677 94.4621672,157.459677 C92.2140247,157.459677 90.3915451,155.635506 90.3915451,153.385278 C90.3915451,151.135049 92.2140247,149.310879 94.4621672,149.310879 Z" id="bp-breast-right" fill="#FFFFFF"></path>
                </g>
                <g id="bp-upper-limb-right-front" stroke-width="1" fill="none" transform="translate(0, 361.7998)">
                    <path d="M114.499466,862.960302 L117.791508,863.998499 C126.409604,866.693942 133.742172,868.804704 139.788055,870.330181 L140.906579,870.609349 C152.868406,873.561294 167.884015,876.148761 185.964375,878.376816 L184.392666,883.738671 C182.049046,891.654017 179.208425,900.926422 175.875669,911.551716 L175.685706,912.20362 L174.439462,918.492227 L174.410245,918.668333 C174.13887,923.476124 174.545932,929.506234 175.115819,934.286863 L175.278644,935.617833 C175.685706,939.176141 176.282731,944.690161 176.771206,950.39432 L176.825481,951.154875 L177.105401,954.574978 C177.565259,960.555036 177.795288,966.318787 177.503918,969.842785 L177.503918,970.141574 L177.331795,972.716068 C177.183202,975.183278 177.045047,978.085418 176.906893,981.088126 L176.798343,983.722904 L176.471519,993.46844 C176.403583,995.707794 176.347861,997.733404 176.309868,999.368597 L176.255593,1002.08486 L176.218279,1002.91672 L176.201318,1003.76895 C176.201318,1003.76895 176.147044,1004.33936 176.147044,1004.33936 L176.147044,1005.09992 L175.984219,1008.14214 L175.863185,1009.85187 C175.547014,1014.05523 175.14136,1017.67144 174.925857,1019.46897 L174.763032,1020.69128 C174.763032,1020.69128 171.219661,1034.16014 166.673384,1048.7282 L165.618174,1052.07083 L164.785409,1054.65225 C163.814622,1057.63131 162.816493,1060.5868 161.81243,1063.4145 L160.651542,1066.65051 L159.608226,1069.44434 C153.597202,1085.44038 148.888029,1096.19501 144.931496,1103.39666 L143.304752,1106.31133 C139.491543,1113.33586 138.048545,1119.19572 131.424476,1117.22738 C126.074515,1115.62349 126.361274,1110.15154 127.572835,1104.89428 L127.696899,1104.36942 C127.718032,1104.28212 127.739378,1104.19491 127.760916,1104.10781 L127.869466,1103.72754 L128.059428,1102.96698 L128.167978,1102.58671 L128.412216,1101.66318 L128.873553,1100.00625 L130.800314,1093.59587 L141.221216,1059.30326 L141.980956,1056.70897 C144.369054,1048.47869 145.210316,1043.99685 143.283555,1043.58941 C141.392685,1043.19511 140.772561,1047.09992 138.373393,1054.39297 L137.828921,1056.02991 C137.107064,1058.14044 136.332018,1060.66358 135.522398,1063.39435 L132.157188,1074.90795 C130.9752,1078.9401 129.793212,1082.86494 128.668402,1086.20553 L127.950878,1088.29915 C126.621142,1092.21057 124.531556,1098.70245 122.306282,1105.49311 L121.627845,1107.53031 L120.949408,1109.51318 L119.190106,1114.79359 C116.770406,1121.95476 114.51695,1128.15115 113.269501,1130.31978 C110.257241,1135.53501 106.647956,1137.38207 101.383285,1135.8338 C96.1186139,1134.28553 93.6762406,1131.08034 94.7074649,1122.5241 L94.7074649,1122.3068 C95.1416646,1118.82998 96.5528135,1112.99 98.2353373,1106.76976 L98.7509495,1104.86837 L100.629274,1098.32123 C102.419051,1092.18722 104.182146,1086.54222 105.236807,1083.32838 L106.756506,1078.84654 C106.783644,1078.73789 106.865056,1078.52059 106.865056,1078.52059 L107.082156,1077.84152 L107.787998,1075.71318 C108.889294,1072.36964 110.16247,1068.39266 111.344022,1064.40623 L112.151924,1061.62518 C114.707391,1052.63311 116.472531,1044.34327 114.355001,1044.07834 C112.072116,1043.79082 108.879595,1052.48166 105.973962,1061.74861 L105.729125,1062.53292 C105.688442,1062.6638 105.647822,1062.79475 105.607269,1062.92575 L105.110744,1064.54195 C103.23861,1070.67955 101.543698,1076.7015 100.37015,1080.19116 L99.1242154,1083.8456 L96.1457513,1092.80815 L92.9264773,1102.83894 C92.1162139,1105.39772 91.4025915,1107.68109 90.8621176,1109.44723 L90.2026431,1111.63187 C89.687031,1113.37028 89.062869,1115.67911 88.4115694,1118.12375 L85.4933362,1129.14415 C84.9235552,1131.26411 84.4359286,1133.00209 84.09671,1133.98674 L84.09671,1134.09539 C82.9026609,1137.68086 78.6963514,1143.27637 71.4235067,1142.43433 C64.096387,1141.59229 61.6540138,1131.46061 63.3094001,1124.75144 L64.9680011,1117.96232 C66.4133081,1112.00867 68.0009915,1105.21669 68.7097587,1100.57667 L68.7097587,1100.38653 L68.8980158,1099.21491 C69.4304192,1096.06648 70.4123774,1091.33022 71.5367688,1086.30259 L72.6175558,1081.48132 L73.5713231,1077.42843 C74.2976534,1074.38425 75.008325,1071.53338 75.6407038,1069.18927 L76.6545854,1065.5451 C77.4426802,1062.77554 78.5044693,1059.05975 79.5236177,1055.16031 L79.7337638,1054.35116 C79.8384288,1053.94553 79.9424041,1053.53849 80.0453394,1053.13089 L80.2497195,1052.31521 C82.4127699,1043.61195 83.9962554,1034.9108 81.6000619,1034.40843 C79.4217041,1033.95173 76.9080609,1041.0859 74.6782873,1048.94192 L74.2636825,1050.4217 C72.551283,1056.60875 71.0357627,1062.97434 70.0123577,1066.24307 L69.6193668,1067.6051 C69.0339008,1069.69574 68.3479256,1072.44973 67.6242595,1075.50553 L65.0461988,1086.50641 L64.16944,1090.08368 C62.9252854,1095.0519 61.684077,1099.4908 60.59607,1102.04681 L60.1885898,1102.96698 C59.9353067,1103.52834 59.6940846,1104.10178 59.4568829,1104.68728 L58.506066,1107.09571 L58.2346912,1107.74761 L58.0990038,1108.10073 L57.3934293,1109.78481 C55.3581183,1114.34814 52.7529202,1118.06942 47.542524,1116.92859 C39.5641047,1115.16302 39.0484926,1104.46093 41.0838036,1096.7739 L41.1380786,1096.52943 L41.393432,1095.48244 C41.972444,1092.98065 42.6270577,1089.34027 43.3279701,1085.14202 L43.5202539,1083.98365 C43.8103354,1082.22666 44.1077195,1080.38514 44.4103998,1078.49885 L45.6700378,1070.61625 C46.755537,1063.93424 47.8410362,1057.33371 48.8722605,1052.49876 L49.0350854,1051.73821 C51.7216959,1039.40636 64.5848616,999.667386 63.3365375,986.629309 L63.1516656,984.857192 C61.9263804,974.170627 59.9759387,977.469258 53.2413948,983.125326 L52.4815454,983.750067 C45.1001507,989.997479 35.9819573,1000.83538 25.2083776,1004.77397 C18.7767948,1007.13712 6.48351614,1009.2558 1.62590715,1002.43798 C-3.23170184,995.620149 3.82404306,994.669456 9.3058141,989.209762 C14.7875851,983.722904 28.057813,967.099356 34.5979458,962.182915 L34.9235956,961.938451 C41.273766,956.940521 45.0187383,947.107638 48.845123,942.843101 C56.3893426,934.449839 69.8766703,926.029414 76.1997033,920.759858 L76.4710781,920.515394 C80.7588,917.038573 88.1944696,912.257945 93.7033781,908.808287 L96.1186139,907.314341 C98.3710247,905.412955 101.00336,902.588038 102.658747,900.089073 L104.938295,893.977475 L109.615849,879.594324 C111.267204,874.459792 112.596376,870.135293 113.850796,865.44766 L114.499466,862.960302 Z M118.941235,921.927852 C117.475811,922.199479 116.525999,923.611937 116.797374,925.078721 C119.022647,936.704339 115.901837,947.297777 107.353531,957.022009 C100.677711,964.627554 89.687031,969.462508 74.8156918,972.396075 L73.8387425,972.586214 C72.3733185,972.85784 71.4235067,974.270298 71.6948815,975.737082 C71.9662563,977.203866 73.3774053,978.154559 74.8428292,977.882932 C91.2610049,974.759226 103.608558,969.435345 111.397015,960.580318 C120.789976,949.907429 124.455876,937.995109 122.268954,925.06994 L122.089183,924.073702 C121.817808,922.606919 120.406659,921.656226 118.941235,921.927852 Z" id="bp-hand-right-palmar" fill="#FFFFFF"></path>
                    <path d="M164.993206,582.64624 L168.017096,574.434032 L172.320561,575.225938 C194.27991,579.328957 211.972084,583.609916 225.339274,588.049416 C239.830842,592.862343 259.44401,601.27181 284.167671,613.275279 C283.713711,616.85478 283.268124,620.138424 282.780924,623.367457 L282.372876,625.996326 L281.940003,628.629975 L281.480269,631.2734 C279.995983,639.578396 277.977813,648.776298 274.590141,662.698603 L274.221898,664.208532 C271.12931,676.853293 261.206762,703.633416 250.610254,730.471595 L248.435339,735.95757 L244.167567,746.600471 C233.106667,773.986177 222.661615,798.354142 219.79138,803.790863 L219.567012,804.204883 C214.275203,813.711814 194.003506,848.642995 189.851471,864.397338 L189.005379,867.579623 C188.604779,869.060927 188.171448,870.631491 187.705445,872.291254 L183.69403,871.790918 C167.19824,869.681464 153.433097,867.263147 142.404033,864.541389 C135.458449,862.827355 126.642391,860.268801 115.967529,856.868725 L116.630212,853.891901 C117.450882,850.122541 118.316791,845.84466 119.292978,840.748996 L119.836772,837.886581 C122.073635,826.019045 124.765887,805.035277 127.285667,783.511317 L128.017656,777.20416 L130.028212,759.398216 C132.247023,739.421357 134.085219,721.949418 134.979486,714.676754 L135.124918,713.544948 C137.745935,693.88954 152.295912,617.64304 163.066778,587.935781 L164.993206,582.64624 Z" id="bp-front-of-forearm-right" fill="#FFFFFF"></path>
                    <path d="M191.868096,499.080934 L192.193014,496.517945 L196.213455,497.708795 C214.080408,502.960429 228.909716,506.764997 240.711389,509.123431 L242.010227,509.379528 C255.903675,512.081211 275.317816,514.630462 300.276506,517.032665 L296.085311,535.612554 C293.361404,547.813429 291.143678,558.324456 290.020473,566.365984 L288.878515,575.089338 C287.121117,588.745808 285.967565,598.626603 284.982486,606.728008 C260.925273,595.10181 241.715989,586.902754 227.309215,582.117988 C212.989901,577.36227 193.954459,572.816822 170.233356,568.484585 L181.427813,538.773057 C183.608346,532.94019 185.419552,527.968759 186.812073,523.804741 C189.005511,517.245765 190.714175,507.893288 191.868096,499.080934 L191.868096,499.080934 Z" id="bp-elbow-front-right" fill="#FFFFFF"></path>
                    <path d="M209.755519,231.977435 C216.444005,234.690679 222.965347,237.045816 229.237282,238.969425 C231.374865,239.625023 233.475073,240.227606 235.535626,240.775007 L236.859027,241.112975 C245.75152,243.293129 260.309774,245.149616 280.724703,246.729057 C278.315368,282.25897 293.334642,303.055446 325.291597,308.118365 L324.312184,321.620888 L318.522765,403.83427 C317.974158,411.335629 317.51421,417.297301 317.180529,420.994071 C314.388095,451.666176 307.759839,483.56026 301.657931,510.887263 L297.629381,510.495682 C274.418889,508.204211 256.27289,505.785937 243.203239,503.244447 C230.327282,500.740622 213.544856,496.391027 192.870415,490.197009 L193.049373,488.20878 C193.382548,484.312823 193.566773,480.923553 193.593144,478.467112 L193.616577,475.914488 C193.759512,466.991828 194.654031,437.951901 195.997141,406.529201 L196.546215,394.123061 C197.342953,376.743854 198.262289,359.345355 199.254493,344.838154 L199.709797,338.397379 C200.559167,326.747839 201.671218,313.407375 202.909023,299.69323 L203.858815,289.358137 L204.347384,284.176633 C205.859166,268.275165 207.469608,252.533192 208.969632,238.962004 L209.755519,231.977435 Z" id="bp-front-of-upper-arm-right" fill="#FFFFFF"></path>
                    <path d="M377.33697,156.58876 C344.60287,182.57237 332.039019,236.821519 328.817439,265.439566 L328.605408,267.41639 C327.835599,275.045272 326.842472,287.37171 325.757381,301.862773 C295.410455,296.869946 282.918337,276.575281 287.693622,239.787382 L288.287909,235.326024 L289.312696,227.161399 L289.591342,225.051412 C290.371067,219.337923 291.087841,215.787712 292.254363,212.167462 C293.856828,207.194279 296.325073,202.371666 300.350539,196.529325 C309.202799,183.674568 328.037722,172.728832 355.25583,163.374614 C361.942592,161.076532 368.772775,158.967365 376.019278,156.954216 L377.33697,156.58876 Z" id="bp-armpit-right" fill="#FFFFFF"></path>
                    <path d="M480.005411,0 L479.978274,0.0814879808 L479.847342,11.2647274 C479.805839,15.5608538 479.778121,19.6451189 479.766856,23.5201933 L479.761174,29.1183718 C479.788312,50.0064576 480.249649,64.0223902 481.199461,71.1933326 C482.529197,81.2706795 488.74368,97.2151611 499.84291,118.999615 C455.379982,124.103953 420.502343,132.976707 395.209994,145.635517 C379.47668,149.307321 366.114099,153.034079 353.224471,157.463939 C324.844406,167.217494 305.009215,178.744527 295.203466,192.983885 C290.849525,199.302957 288.105661,204.664091 286.30556,210.250631 C284.932299,214.512489 284.140637,218.574998 283.260967,225.232598 L281.980593,235.362934 L281.655236,237.791814 C281.528981,238.705355 281.412867,239.610388 281.306888,240.5069 L276.766164,240.143046 C258.030729,238.587004 244.824353,236.780794 237.142142,234.735007 C235.157793,234.20785 233.133427,233.627027 231.069907,232.994143 C224.486995,230.975158 217.594151,228.456417 210.503549,225.530527 L211.574332,216.768865 C212.470262,209.703498 213.249526,204.302588 213.841004,201.24815 L214.052369,200.189707 C217.534134,183.238396 232.147833,133.483092 265.347942,106.260327 C280.384391,93.9221889 312.481352,80.3012428 347.568961,66.1998968 L380.171028,53.1611326 C424.608452,35.287063 467.006863,17.0465531 480.005411,0 Z" id="bp-shoulder-right-front" fill="#FFFFFF"></path>
                </g>
                <path d="M504.754794,342.242729 C505.460368,352.021286 505.324681,397.89902 506.111668,416.99437 C507.387129,448.910496 514.795661,460.020024 530.236888,476.399108 C537.86252,484.493581 561.797777,501.33443 565,503.588931 C568.202223,501.33443 592.13748,484.493581 599.763112,476.399108 C615.204339,459.992861 622.612871,448.883333 623.888332,416.99437 C624.648182,397.89902 624.512494,352.021286 625.245206,342.242729 C625.245206,342.242729 614.227389,368.155907 565,368.29172 C515.772611,368.155907 504.754794,342.242729 504.754794,342.242729 L504.754794,342.242729 Z" id="bp-neck-front" fill="#FFFFFF"></path>
                <path d="M522.149918,3.19840325 C540.684818,-1.06613442 589.315182,-1.06613442 607.850082,3.19840325 C623.58982,6.83819972 668.800862,23.9778384 681.826853,72.8977895 C690.293747,104.786753 683.536514,130.238165 676.942107,161.475225 C677.457719,160.606019 687.851374,150.039745 691.569209,162.371592 C693.713069,169.433884 687.552861,185.079576 681.175554,200.670943 L680.659941,201.947588 L680.144329,203.224233 L679.628717,204.473716 C677.919056,208.683928 676.236532,212.812653 674.743971,216.751238 C669.0451,231.690701 670.076324,233.564925 668.258113,236.17254 C664.214628,242.012512 660.144006,231.826515 660.144006,231.826515 C660.415381,234.406967 658.027283,246.874629 654.770785,259.668241 L654.526548,260.618935 L654.28231,261.569628 C653.658148,263.932779 653.033986,266.323093 652.355549,268.604757 C648.284927,282.946641 631.785339,300.49372 626.303568,308.235078 C618.596524,319.127305 607.144507,340.42283 565.2171,342.188403 L565.2171,342.188403 C565.2171,342.188403 565.054275,342.188403 564.972863,342.188403 C564.89145,342.188403 564.810038,342.188403 564.728625,342.188403 L564.728625,342.188403 C522.774081,340.395668 511.349201,319.100142 503.642157,308.207915 C498.160386,300.466557 481.660798,282.919479 477.590176,268.577594 C473.221041,253.203528 469.476069,234.950221 469.828856,231.772189 C469.828856,231.772189 465.758234,241.958187 461.71475,236.118215 C459.896538,233.5106 460.927763,231.636376 455.228892,216.696913 C453.73633,212.78549 452.053807,208.629603 450.344145,204.419391 L449.828533,203.169908 L449.312921,201.893263 L448.797309,200.616618 C442.420001,185.025251 436.286931,169.379559 438.403654,162.317267 C442.121489,149.985419 452.515144,160.551694 453.030756,161.420899 C446.463486,130.156677 439.679116,104.705265 448.146009,72.8434642 C461.144863,23.9506757 506.383042,6.7838744 522.122781,3.14407793 L522.149918,3.19840325 Z M590.454957,288.026059 C595.149741,285.717233 591.051981,278.709266 586.357197,280.99093 C574.498118,286.776576 552.435347,287.808758 540.603405,281.316882 C536.017171,278.790754 531.919411,285.825883 536.505646,288.352011 C551.078473,296.337833 575.854992,295.169838 590.454957,288.026059 Z M553.602258,161.149273 C552.679584,155.988367 544.86399,158.188543 545.759526,163.322286 C549.857286,186.464872 548.663237,208.656766 541.254705,231.093123 C540.929055,231.989491 540.54913,232.913021 540.169205,233.836552 L540.006381,234.216829 C540.006381,234.216829 539.952106,234.352642 539.924968,234.406967 L539.626456,235.140359 C539.490768,235.439149 539.382219,235.7651 539.246531,236.06389 L539.110844,236.444167 C537.591145,240.274102 536.641333,244.185525 539.436493,248.01546 C541.471805,250.786052 544.972539,252.334323 548.256175,250.840377 C550.481448,249.835358 551.621222,248.395737 553.982183,250.269961 C558.025668,253.52948 563.805951,247.798159 559.735329,244.511477 C557.130131,242.39279 554.307833,240.844518 550.834235,241.17047 C550.372898,241.224795 547.469188,241.931024 545.759526,242.664416 C545.732389,242.582928 545.705251,242.474278 545.678114,242.447115 C545.542427,241.632235 546.166589,240.518566 546.465101,239.785174 C547.3335,237.612161 548.31045,235.493474 549.097436,233.293298 C556.994443,209.41732 557.944255,185.758643 553.602258,161.176435 L553.602258,161.149273 Z M583.887686,231.120286 C582.12375,226.231007 574.281018,228.322532 576.044955,233.293298 C576.831941,235.493474 577.808891,237.612161 578.67729,239.785174 C578.948665,240.491403 579.491415,241.442096 579.464277,242.202651 C579.464277,242.311302 579.410002,242.474278 579.32859,242.637254 C577.618928,241.903862 574.742355,241.197633 574.335293,241.17047 C570.861696,240.844518 568.066535,242.39279 565.4342,244.511477 C561.363578,247.798159 567.143861,253.52948 571.187346,250.269961 C573.521169,248.395737 574.68808,249.835358 576.913354,250.840377 C580.196989,252.334323 583.697724,250.786052 585.733035,248.01546 C588.69102,243.968224 587.442696,239.785174 585.760172,235.710775 L585.597348,235.330498 C585.488798,235.086034 585.380248,234.84157 585.298835,234.597106 L585.13601,234.216829 C585.000323,233.91804 584.864636,233.592088 584.756086,233.293298 L584.593261,232.940184 C584.593261,232.940184 584.538986,232.831533 584.511848,232.750045 L584.376161,232.396931 C584.213336,231.962328 584.050511,231.554888 583.887686,231.120286 L583.887686,231.120286 Z M647.525078,168.456028 C630.319915,150.90895 602.531135,152.620197 588.880983,173.236657 C585.977272,177.609845 593.00588,181.711407 595.90959,177.338218 C598.596201,173.263819 601.988386,170.194439 605.733358,168.075751 C605.217746,169.270908 604.837821,170.547553 604.620721,171.905686 C604.512171,172.285963 604.457896,172.666241 604.457896,173.100843 C604.403622,173.535446 604.457896,173.942886 604.512171,174.296 C605.136333,181.684244 610.780929,187.958818 618.515111,188.203282 C626.439256,188.447746 633.250763,182.064521 633.549275,174.133024 C633.630688,171.74271 633.115076,169.461047 632.110989,167.423847 C635.584586,169.026444 638.895359,171.280945 641.771932,174.214512 C645.435492,177.962959 651.188638,172.204475 647.525078,168.456028 L647.525078,168.456028 Z M540.739093,173.236657 C527.061802,152.64736 499.30016,150.90895 482.094997,168.456028 C478.431438,172.204475 484.157446,177.962959 487.848143,174.214512 C490.751854,171.253782 494.062626,168.999282 497.536224,167.396685 C496.532137,169.461047 495.989387,171.74271 496.0708,174.133024 C496.2879,181.874382 502.85517,188.17612 510.535077,188.203282 C518.513496,188.257608 524.483742,181.928708 525.107904,174.323163 C525.189316,173.942886 525.216454,173.562608 525.162179,173.100843 C525.162179,172.666241 525.107904,172.285963 524.999354,171.905686 C524.782254,170.574716 524.402329,169.298071 523.886717,168.075751 C527.63169,170.194439 531.023875,173.263819 533.710485,177.311056 C536.587058,181.657081 543.642803,177.582682 540.739093,173.209494 L540.739093,173.236657 Z M612.572003,173.100843 C613.386128,164.789069 626.032193,165.875576 625.435169,174.133024 C624.811007,182.553449 612.653416,181.303967 612.572003,173.100843 Z M504.212044,174.133024 C503.587882,165.875576 516.233948,164.789069 517.07521,173.100843 C516.993797,181.303967 504.836206,182.526286 504.212044,174.133024 Z M657.647358,139.011705 C645.598317,132.682805 631.812477,127.63055 618.053774,128.988683 C606.411795,130.129515 594.606991,134.421215 584.457573,140.234024 C579.925614,142.84164 583.996236,149.876769 588.555333,147.269153 C597.456427,142.189736 607.850082,138.25115 618.053774,137.137481 C630.347053,135.806511 642.803156,140.369838 653.549599,146.046834 C658.190108,148.491473 662.287867,141.456344 657.647358,139.011705 L657.647358,139.011705 Z M511.864813,128.988683 C498.106111,127.603387 484.293133,132.682805 472.27123,139.011705 C467.63072,141.456344 471.755617,148.491473 476.368989,146.046834 C487.115431,140.397 499.571535,135.806511 511.864813,137.137481 C522.068506,138.25115 532.462161,142.162573 541.363255,147.269153 C545.922351,149.876769 550.020111,142.84164 545.461014,140.234024 C535.311596,134.421215 523.506792,130.156677 511.864813,128.988683 L511.864813,128.988683 Z" id="bp-head-front" fill="#FFFFFF"></path>
            </g>
        </g>
        <g id="viewport-boundary" mask="url(#mask-2)" stroke="#FF0000" stroke-width="3">
            <g transform="translate(260, 190)" id="boundary">
                <rect x="0" y="0" width="560" height="1080"></rect>
            </g>
        </g>
    </g>
</svg>