<?xml version="1.0" encoding="UTF-8"?>
<svg width="1080px" height="1460px" viewBox="0 0 1080 1460" version="1.1" xmlns="http://www.w3.org/2000/svg" xmlns:xlink="http://www.w3.org/1999/xlink">
    <title>fourth-toe-right-dorsal</title>
    <defs>
        <rect id="path-1" x="0" y="0" width="1080" height="1460"></rect>
    </defs>
    <g id="fourth-toe-right-dorsal" stroke="none" stroke-width="1" fill="none" fill-rule="evenodd">
        <mask id="mask-2" fill="white">
            <use xlink:href="#path-1"></use>
        </mask>
        <g id="mask"></g>
        <g id="bp-fourth-toe-right-dorsal" mask="url(#mask-2)" fill="#FFFFFF">
            <g transform="translate(320.6836, 302.0551)">
                <path class="hover" d="M308.727742,459.929989 L307.15626,463.249076 C288.913288,502.189207 275.978462,540.416786 281.574304,566.761544 C250.125357,653.619454 231.972228,737.299986 217.804856,856.930156 C149.929046,822.753496 77.2337823,791.208831 0,762.62198 L2.53357742,747.34054 C21.1044088,636.439712 39.5850532,550.736125 64.7083983,464.470274 C81.6562301,451.568833 92.9155969,422.034448 101.499099,387.842346 C165.112935,424.619266 235.234175,449.158689 308.727742,459.929989 Z" id="bp-proximal-phalanx-fourth-toe-right-dorsal"></path>
                <path class="hover" d="M342.682743,395.143137 L341.179312,397.850562 C332.944125,412.723653 324.326884,428.55958 316.251985,444.577422 C241.280315,434.296761 169.833463,409.300379 105.383267,371.302884 C109.677865,351.872008 113.305959,331.607087 116.769762,312.492727 C185.275403,355.294373 261.959817,383.519825 342.682743,395.143137 Z" id="bp-proximal-interphalangeal-joint-fourth-toe-right-dorsal"></path>
                <path class="hover" d="M401.865152,274.195645 L398.247746,282.618109 C390.254625,301.000888 382.873941,316.570022 378.129638,327.713588 L377.363678,329.529595 C372.171649,341.965425 362.480421,359.56446 351.16027,379.901916 C268.265827,368.896229 189.629458,339.915098 119.926332,295.26832 L121.288486,288.094695 C124.698046,270.41792 128.161044,254.758264 132.175062,243.083135 L134.432562,236.75441 C138.874712,224.03344 144.238598,206.204139 150.979328,185.975157 C226.349249,234.080323 311.845765,264.401954 401.865152,274.195645 Z" id="bp-middle-phalanx-fourth-toe-right-dorsal"></path>
                <path class="hover" d="M427.61652,201.923678 L426.605189,205.54832 C421.37048,224.047041 414.916164,241.993042 408.315769,258.531337 C317.741733,249.43224 231.774649,218.989181 156.388922,170.140138 C162.935224,151.498942 170.626695,131.543088 179.770416,112.095479 C252.613122,159.358227 335.084406,189.906012 422.058891,201.227185 L427.61652,201.923678 Z" id="bp-distal-interphalangeal-joint-fourth-toe-right-dorsal"></path>
                <path class="hover" d="M358.928556,10.4080973 C441.242254,43.5499404 447.331186,116.530046 431.592203,186.025327 C343.659401,175.755868 260.291963,145.315245 187.015572,97.4261248 L189.105764,93.4571074 C223.612217,28.8806357 276.167353,-22.9139241 358.928556,10.4080973 Z M407.592535,78.4762757 C396.538599,57.5927793 298.281387,19.5111093 276.173514,26.8817551 C254.065641,34.2524009 231.098826,62.1522205 241.538655,77.5077326 C274.086356,126.645371 363.131955,153.671073 401.206625,138.929781 C416.559314,132.787576 418.646472,99.9739927 407.592535,78.4762757 Z" id="bp-distal-phalanx-fourth-toe-right-dorsal"></path>
                <path class="hover" d="M372.093075,42.2976585 C362.582705,39.1269526 336.710082,48.0233937 312.660435,57.4651775 C289.192865,66.6784409 264.854463,77.2734058 260.179817,86.0645636 C255.980837,94.3232265 254.409194,104.768444 255.343087,113.609328 C255.710924,117.091539 256.420777,120.329002 257.805749,122.842444 C275.715104,130.511886 305.325752,125.907569 333.32595,115.136282 C359.340515,105.12884 384.601028,89.2470056 398.321477,68.5330859 C397.751646,65.3069785 396.252096,62.5717791 394.407304,59.8752357 C389.200013,52.2637085 380.618439,45.1399692 372.093075,42.2976585 Z" id="bp-nail-of-fourth-toe-right" transform="translate(326.7021, 84.1463) scale(-1, 1) translate(-326.7021, -84.1463)"></path>
            </g>
        </g>
        <g id="decoration" opacity="0.15" mask="url(#mask-2)">
            <g transform="translate(-1208.9113, -414)">
                <g id="bp-dorsum-of-foot-right" transform="translate(0, 1371.4136)">
                    <path d="M1802.08651,304.697936 C1820.11791,315.031246 1837.72984,325.567924 1854.91565,336.299756 C1960.72546,402.373645 2044.80667,472.998738 2100.91332,539.953348 C2143.91682,591.271382 2167.04343,636.86793 2169.301,666.600939 C2168.55758,677.625832 2167.76344,688.801469 2166.92753,700.146022 L2165.2027,723.065737 C2164.41793,733.381849 2161.81997,751.851503 2157.70037,777.283355 L2155.14781,792.779925 C2144.10742,827.797199 2122.06802,839.380216 2072.45971,837.618449 L2067.67567,837.407692 C2044.21248,836.178972 2015.69175,831.892956 1976.77099,824.052367 L1965.77185,821.795954 C1940.08478,816.392112 1856.34464,797.76934 1829.59287,792.031247 L1826.66356,791.406193 C1807.9479,787.438711 1789.5568,783.702247 1771.43919,780.20225 C1772.36548,764.107839 1773.23674,748.003801 1774.05499,731.888748 L1775.14508,709.67737 L1775.22985,708.611052 L1778.58103,649.01664 C1784.58704,544.013577 1790.15442,456.486045 1794.85565,391.772423 L1795.98492,376.44338 L1797.30406,360.126679 C1798.40405,346.695399 1799.50671,333.675298 1800.61852,321.038279 L1802.08651,304.697936 Z" id="bp-metatarsophalangeal-joint-fifth-toe-right-dorsal" fill="#FFFFFF"></path>
                    <path d="M1519.25971,172.77077 C1597.98147,202.426733 1671.66445,235.227491 1739.9968,270.788667 L1738.61122,285.294515 C1736.08557,312.196749 1733.63588,340.811777 1731.19125,371.433478 L1728.57271,407.599586 C1724.26781,468.816211 1719.33941,547.075999 1714.06998,638.84689 L1710.35933,704.620436 C1709.31543,725.965819 1708.2102,747.286477 1707.01293,768.586052 C1625.19379,754.948475 1547.99747,746.606458 1470.22614,744.110005 C1471.65001,714.468166 1473.02368,684.828058 1474.35108,655.186221 L1476.22992,612.503631 L1478.87108,576.311775 C1491.63331,403.941042 1504.89346,270.816898 1518.60559,177.152982 L1519.25971,172.77077 Z" id="bp-metatarsophalangeal-joint-fourth-toe-right-dorsal" fill="#FFFFFF"></path>
                    <path d="M1208.03498,78.6936402 C1295.42826,99.3180899 1378.48766,123.307103 1456.93319,150.3156 L1456.57395,152.606404 C1441.75039,248.977163 1427.5795,388.779101 1414.00413,572.283786 L1411.4161,607.912078 C1409.42797,653.080978 1407.37137,698.241273 1405.21118,743.404786 C1362.37478,743.826633 1318.94725,746.04504 1274.07667,750.139496 C1261.27279,751.307854 1248.35329,752.706899 1235.30837,754.33322 C1213.21581,757.087515 1191.36918,760.327454 1169.36813,764.128555 C1170.12118,684.790761 1170.19426,605.169688 1169.59778,525.225775 L1169.616,517.165745 C1170.14698,379.711976 1182.89049,233.916898 1207.82348,79.955775 L1208.03498,78.6936402 Z" id="bp-metatarsophalangeal-joint-third-toe-right-dorsal" fill="#FFFFFF"></path>
                </g>
                <g id="bp-second-toe-right-dorsal" transform="translate(840.4224, 261.7487)">
                    <path d="M374.780474,615.239277 L381.745832,614.47341 L379.614663,626.778587 C369.955927,684.274358 362.499161,755.713021 386.183832,794.009235 C357.441317,902.615901 333.760744,1007.97553 315.160713,1110.04441 C215.079485,1088.86992 109.89855,1071.94583 0,1059.71262 C6.72488488,928.452651 18.3334181,810.220467 34.8137695,704.931564 L36.7277122,692.928562 C56.1582973,665.210743 73.376416,621.646522 82.2958023,570.162516 C173.753391,609.829128 274.010841,625.651836 374.780474,615.239277 L374.780474,615.239277 Z" id="bp-proximal-phalanx-second-toe-right-dorsal" fill="#FFFFFF"></path>
                    <path d="M399.456034,517.182285 L405.317493,516.49954 L400.803695,532.227087 C394.657271,553.932293 389.629729,573.101162 386.541615,588.579506 L384.804703,597.740722 C281.460154,610.565082 178.336778,594.921702 84.8415309,553.543452 C87.3542001,534.758194 88.7441081,515.088855 88.7441081,494.884128 L88.7690586,480.641989 C88.7859604,475.972599 88.811715,471.379396 88.8471267,466.856974 C185.301064,511.489846 292.168809,529.224281 399.456034,517.182285 L399.456034,517.182285 Z" id="bp-proximal-interphalangeal-joint-second-toe-right-dorsal" fill="#FFFFFF"></path>
                    <path d="M441.487663,386.077387 L443.164027,385.890444 C432.362335,425.585719 420.557591,464.642071 410.299984,499.472383 C299.285841,514.425732 188.314005,496.477443 89.0469616,449.006716 C89.6885601,404.447022 91.4636288,366.580794 95.2381065,329.56282 C201.206617,377.898276 318.02748,397.904398 435.608048,386.665389 L441.487663,386.077387 Z" id="bp-middle-phalanx-second-toe-right-dorsal" fill="#FFFFFF"></path>
                    <path d="M460.392983,288.640092 L466.48957,287.984594 C461.412396,314.289918 454.865186,341.695701 447.674631,369.039113 C326.562397,383.165444 205.868525,363.216538 97.1235941,312.54209 C100.316409,285.815696 104.628752,259.068581 110.389957,230.077039 C219.092424,280.582976 339.420872,301.16565 460.392983,288.640092 L460.392983,288.640092 Z" id="bp-distal-interphalangeal-joint-second-toe-right-dorsal" fill="#FFFFFF"></path>
                    <path d="M342.536925,7.51383764 C484.884336,42.7340683 488.473666,161.129115 469.541457,271.263876 C346.567907,286.053994 223.947692,265.698096 113.750242,213.697738 C115.378249,205.973545 117.109076,198.07038 118.946825,189.951272 L120.345249,183.820875 C146.340132,70.7223433 196.915839,-28.51638 342.536925,7.51383764 Z M418.153234,75.499643 C397.743387,50.6153492 257.323036,27.7628209 230.122157,44.1046061 C203.569567,60.4917325 174.491972,122.312775 192.159034,139.837873 C248.868623,195.278846 373.852406,205.974907 420.248032,175.989284 C438.010202,164.199989 438.517748,101.032345 418.107901,76.1480512 Z" id="bp-distal-phalanx-second-toe-right-dorsal" fill="#FFFFFF"></path>
                    <path d="M387.884746,63.1584293 C376.602866,55.4730193 341.37584,56.1406274 306.637782,59.2443459 L301.681167,59.7036676 C265.952536,63.1307773 229.125911,68.9997667 219.395581,79.3036153 C210.672555,88.9372981 206.174922,106.274359 204.714832,122.336034 C203.521503,135.463208 202.301493,150.678666 208.388238,155.363537 C229.507028,171.078059 271.129792,176.81413 313.199949,173.128815 C351.900389,169.738685 391.718147,158.050403 418.009485,135.711531 C418.789768,134.970448 418.909721,133.79624 418.910772,132.547291 L418.889612,131.035612 L418.901199,130.295872 C419.191538,123.704688 417.611553,115.812632 415.047356,107.744336 C409.444845,90.1159212 399.056043,71.190361 387.884746,63.1584293 Z" id="bp-nail-of-second-toe-right" fill="#FFFFFF" transform="translate(311.3372, 115.6335) scale(-1, 1) rotate(-4) translate(-311.3372, -115.6335)"></path>
                </g>
                <g id="bp-third-toe-right-dorsal" transform="translate(1219.0678, 474.9062)">
                    <path d="M336.787977,553.000366 L336.618162,553.430655 C316.850777,605.241763 304.933468,652.204366 314.509356,681.728053 C287.417476,773.744024 267.899184,864.078232 248.303261,981.713576 C169.790022,955.091094 86.9350285,931.42585 0,911.033144 C18.3470041,809.927197 41.8019289,705.405323 70.3535405,597.521769 C87.0969193,580.366499 97.0627498,541.942044 104.193969,496.376331 C176.508869,530.918926 255.436624,550.361364 336.787977,553.000366 Z" id="bp-proximal-phalanx-third-toe-right-dorsal" fill="#FFFFFF"></path>
                    <path d="M369.840606,475.019247 L368.859094,477.176993 C359.85598,497.143573 351.037351,517.272741 343.109643,536.912571 C260.267385,535.069075 179.906124,515.30811 106.667082,479.525562 C109.879999,456.264194 112.516306,431.682707 115.052152,407.478338 C191.63043,448.038587 276.40957,471.194824 364.116492,474.811126 L369.840606,475.019247 Z" id="bp-proximal-interphalangeal-joint-third-toe-right-dorsal" fill="#FFFFFF"></path>
                    <path d="M432.278707,332.311025 L431.083102,335.413845 C427.625537,344.365357 424.1674,353.000146 420.801063,361.235539 C408.91657,390.309712 393.077664,424.065235 377.141632,458.942453 C285.265211,457.147787 196.400911,433.313187 116.875229,390.023801 L118.790238,372.098767 C122.494598,338.135712 126.4781,306.734764 132.190826,283.085596 L132.94589,280.045309 C135.085525,271.668437 137.116415,262.438834 139.154609,252.586517 C227.641191,304.275432 328.236958,332.024977 432.278707,332.311025 Z" id="bp-middle-phalanx-third-toe-right-dorsal" fill="#FFFFFF"></path>
                    <path d="M461.509789,241.294229 L460.798506,244.19503 C454.601921,268.882523 446.676245,293.231834 438.360196,316.044792 C333.177392,316.861651 231.446527,288.813027 142.55962,235.725786 L146.413532,216.368779 C150.395159,196.575051 154.835389,175.620721 160.413353,154.851819 C250.667109,210.303991 354.204886,240.40664 461.509789,241.294229 Z" id="bp-distal-interphalangeal-joint-third-toe-right-dorsal" fill="#FFFFFF"></path>
                    <path d="M351.972296,4.79229038 C474.348827,31.191037 485.578748,128.349468 465.222085,225.060396 C358.072151,224.843357 254.696271,194.673395 165.047523,138.61133 L166.591623,133.599656 C192.250689,51.9405294 239.701842,-19.4263995 351.972296,4.79229038 Z M434.205236,70.5526978 C418.029998,46.8631729 295.560337,16.2401285 270.142106,28.3737876 C245.301561,40.5074467 214.684146,93.0866361 229.126323,109.842642 C275.34129,162.999624 385.101835,182.066803 428.428365,158.955071 C445.181291,149.710379 450.380474,93.6644294 434.205236,69.9749045 Z" id="bp-distal-phalanx-third-toe-right-dorsal" fill="#FFFFFF"></path>
                    <path d="M391.700397,42.9869666 C380.302282,37.6894299 347.189962,44.0958112 316.143334,52.0775737 C313.055215,52.8714969 309.95875,53.6859387 306.880619,54.5193514 L302.280505,55.7835051 C277.092185,62.8124777 254.059489,71.0799866 248.162156,79.7169556 C241.844992,88.745025 240.515252,103.953655 241.41115,117.663416 C242.117695,128.475551 242.653254,141.5595 248.365936,144.721989 C268.753654,155.46566 305.45665,154.630556 341.274455,145.804256 C374.492765,137.618531 407.631226,122.107376 427.518954,99.2325104 C428.251496,98.3826058 427.28596,96.8678241 427.163978,95.7805323 C426.532235,90.1494331 424.099344,83.6693735 420.828372,77.1723055 C413.671949,62.9576397 402.333702,48.193264 391.700397,42.9869666 Z" id="bp-nail-of-third-toe-right" fill="#FFFFFF" transform="translate(334.4754, 96.8258) scale(-1, 1) translate(-334.4754, -96.8258)"></path>
                </g>
                <g id="bp-fifth-toe-right-dorsal" transform="translate(1809.1158, 989.4367)">
                    <path d="M336.712392,368.844976 L336.507513,369.730578 C321.487669,435.421325 311.895557,509.910358 323.593255,555.149771 C358.23185,686.030744 368.107329,794.677106 366.366743,911.647479 C307.857602,831.529388 208.447832,743.216161 80.2169551,663.141233 C54.3808506,647.007645 27.6347986,631.308183 0,616.068025 C13.4563166,493.232862 30.1035224,410.114505 59.1840371,326.698216 C78.9331168,322.506973 93.3317801,305.325148 104.763685,282.680084 C174.808844,327.510502 253.628022,356.969883 336.712392,368.844976 Z" id="bp-proximal-phalanx-fifth-toe-right-dorsal" fill="#FFFFFF"></path>
                    <path d="M352.619901,308.814352 L351.756699,311.676715 C347.919644,324.514948 344.105957,338.426582 340.50247,352.963469 C258.414738,341.457624 180.590172,312.303943 111.594983,267.753716 C117.613926,253.366628 122.784626,237.660673 127.587825,222.131168 C194.008931,265.25269 268.44452,294.471459 347.001716,307.883273 L352.619901,308.814352 Z" id="bp-proximal-interphalangeal-joint-fifth-toe-right-dorsal" fill="#FFFFFF"></path>
                    <path d="M386.15418,213.398742 L385.536095,215.442663 C380.524187,231.821067 375.005354,246.608216 370.183993,258.62916 L369.0843,261.353585 C365.462031,270.178685 361.547731,280.942157 357.555775,293.12979 C276.751358,280.502697 200.27171,250.714543 132.520659,205.942904 L136.063594,194.28898 C139.97347,181.555544 143.824796,169.636263 147.922719,159.493758 L149.159799,156.505272 C152.260736,149.199888 155.466097,140.93029 158.901998,132.101728 C226.315048,173.61763 301.474438,201.071388 380.502771,212.602216 L386.15418,213.398742 Z" id="bp-middle-phalanx-fifth-toe-right-dorsal" fill="#FFFFFF"></path>
                    <path d="M399.270865,151.933739 L399.211335,152.490459 C397.445977,167.890092 394.3407,183.151559 390.590229,197.597122 C309.954928,186.958735 233.309064,159.315318 164.944348,116.736691 C171.024801,101.551412 177.900704,85.4964945 186.118034,70.311276 C250.983648,111.215971 323.207502,138.986141 399.270865,151.933739 Z" id="bp-distal-interphalangeal-joint-fifth-toe-right-dorsal" fill="#FFFFFF"></path>
                    <path d="M325.812435,9.11916975 C387.024719,32.4851578 402.939161,83.4513986 400.572552,135.661716 C326.959134,122.946293 257.083406,95.9390243 194.30425,56.2718717 L196.344976,53.0971382 C222.856348,12.6696644 261.874459,-15.2872705 325.812435,9.11916975 Z M367.043565,50.7565515 C358.595228,34.5067625 292.982343,7.54393996 276.085669,13.393864 C259.838867,19.2437881 240.781542,45.0839664 244.56257,50.7565515 C255.695772,67.0311468 344.99871,106.908269 362.215337,100.020352 C373.263163,95.4704114 371.246448,58.840506 367.043565,50.7565515 Z" id="bp-distal-phalanx-fifth-toe-right-dorsal" fill="#FFFFFF"></path>
                    <path d="M335.456738,28.7168765 C328.80724,26.5296006 312.960719,32.835572 298.406303,38.8140756 C283.554345,44.9148 267.653145,51.8519722 264.324996,58.2534362 C262.58241,61.6051799 262.287043,71.9686368 263.110878,80.3744539 C263.285492,82.1560947 263.502077,83.8751519 263.863084,85.400406 C272.317456,85.3141407 289.416873,77.5471096 305.845972,70.6678848 C324.865133,62.704144 344.808157,53.3365373 354.282903,46.1163397 C353.177115,44.463258 351.852467,42.7322988 350.399003,41.009583 C346.133005,35.9533179 340.738972,30.6570635 335.456738,28.7168765 Z" id="bp-nail-of-fifth-toe-right" fill="#FFFFFF" transform="translate(308.4771, 56.8369) scale(-1, 1) translate(-308.4771, -56.8369)"></path>
                </g>
            </g>
        </g>
        <g id="viewport-boundary" mask="url(#mask-2)" stroke="#FF0000" stroke-width="3">
            <g transform="translate(260, 190)" id="boundary">
                <rect x="0" y="0" width="560" height="1080"></rect>
            </g>
        </g>
    </g>
</svg>