<?xml version="1.0" encoding="UTF-8"?>
<svg width="1080px" height="1460px" viewBox="0 0 1080 1460" version="1.1" xmlns="http://www.w3.org/2000/svg" xmlns:xlink="http://www.w3.org/1999/xlink">
    <title>foot-right-dorsal</title>
    <defs>
        <rect id="path-1" x="0" y="0" width="1080" height="1460"></rect>
    </defs>
    <g id="foot-right-dorsal" stroke="none" stroke-width="1" fill="none" fill-rule="evenodd">
        <mask id="mask-2" fill="white">
            <use xlink:href="#path-1"></use>
        </mask>
        <g id="mask"></g>
        <g id="bp-foot-right-dorsal" mask="url(#mask-2)">
            <g transform="translate(379.8303, 197.3682)">
                <g id="bp-ankle-right-front" transform="translate(8.1737, 536.9318)">
                    <path class="hover" d="M111.1,0 C128.401561,0 145.125309,0.901296051 161.271922,2.70369368 C137.044165,156.26727 123.4802,368.748983 129.812617,526.844037 C69.4687487,525.412623 7.79799677,496.944971 0,487.1 C1,468.9 3.9,446 6.9,425.1 L6.8,425.2 L11.9824256,390.379817 C17.89364,350.51592 22.7,316.068 22.7,296.1 C22.7,270.5 11.4,242.9 11.4,207.1 C11.4,171.658 33.35424,82.21249 40.391358,40.8389248 L40.6,39.6 C41.9938348,31.2164934 43.4590952,22.009492 44.719334,12.1658775 C64.7720979,4.04995503 86.8889027,0 111.1,0 Z" id="bp-ankle-medial-right-front" fill="#FFFFFF"></path>
                    <path class="hover" d="M171.201149,3.93558305 C211.451975,9.43759483 248.008988,20.7080351 280.883169,37.743754 L280.445218,41.0489265 C279.49944,48.2979594 278.738522,54.9005271 278.2,60.7 C267.3,177 270.7,185.1 267.4,223.8 C264.1,262.5 249.1,282.5 251.6,307.4 L251.758875,308.949757 C254.49676,335.16068 264.138,404.774 266,428 L266.243845,431.136018 C267.949632,453.774243 268.451471,476.061765 267.4,490.4 C260.212232,497.879164 199.907518,525.26539 139.82058,526.83011 C133.484163,369.559889 146.970154,157.812116 171.06485,4.79343297 L171.201149,3.93558305 Z" id="bp-ankle-lateral-right-front" fill="#FFFFFF"></path>
                </g>
                <g id="bp-dorsum-of-foot-right" transform="translate(0, 210.9894)">
                    <g id="bp-metatarsal-region-of-foot-right-dorsal" transform="translate(22.5903, 124.379)" fill="#FFFFFF">
                        <path class="hover" d="M249.370004,5.72037235 C251.10668,6.06114947 252.861216,6.41636968 254.635628,6.78583465 L258.447645,7.59839657 L277.09467,11.680996 C277.577289,11.784095 277.986169,11.8703844 278.305227,11.9362154 L279.700568,12.2205696 C286.553147,13.5987546 291.570588,14.3249605 295.957552,14.4807285 C299.851777,14.6190008 303.288095,14.2557272 306.259556,13.3457146 L305.714756,16.3323982 C296.602585,66.1272038 277.155282,164.953715 267.927375,228.82687 C252.944885,221.271551 237.238094,214.868401 220.811436,209.613023 C227.39853,173.270335 233.17701,138.826515 238.254343,105.367076 L239.228327,98.9031015 C243.794425,68.9874004 247.11009,38.7715126 249.199491,8.27563033 L249.370004,5.72037235 Z" id="bp-fifth-metatarsal-right-dorsal"></path>
                        <path class="hover" d="M203.155934,0.0940864663 C215.041794,0.467832643 226.859218,1.76620167 239.467497,3.90462322 C237.417257,35.3795995 234.050314,66.552149 229.340602,97.4088824 C224.097699,132.453413 218.086432,168.518471 211.177629,206.686982 C202.180896,204.095588 192.97514,201.837749 183.56126,199.912787 C190.577469,162.560438 195.373435,125.027527 197.971541,87.306877 C199.781086,61.0349635 201.361176,34.8820314 202.715668,8.75711637 L203.155934,0.0940864663 Z" id="bp-fourth-metatarsal-right-dorsal"></path>
                        <path class="hover" d="M193.148814,0 C191.707242,28.8095566 189.991103,57.6418473 187.995178,86.6197295 C185.424533,123.941682 180.679913,161.077506 173.738298,198.038768 C164.665201,196.429133 155.404703,195.119873 145.957225,194.110568 C149.970359,155.052492 152.940133,116.146459 154.877183,77.2117522 C156.095476,52.7240627 156.876985,28.1262862 157.228496,3.36000763 C161.088554,2.65711681 164.890353,2.07573898 168.731439,1.59695592 C170.630646,1.36022382 172.509245,1.15682883 174.368622,0.987191224 C180.471788,0.430377659 186.397387,0.108709164 192.244649,0.0124194651 L193.148814,0 Z" id="bp-third-metatarsal-right-dorsal"></path>
                        <path class="hover" d="M147.196977,5.42842775 C146.832767,29.3303575 146.065662,53.0747244 144.889536,76.7148543 C143.06355,113.417185 140.315664,150.094474 136.636833,186.901986 L136.001978,193.163809 C126.384706,192.360482 116.579062,191.859571 106.585479,191.661051 C108.908884,151.930622 110.08336,112.484912 110.08336,73.4633032 C110.08336,54.5273956 109.806789,35.491619 109.256513,16.3717281 L112.394628,15.3494625 C125.803789,11.009105 136.790641,7.82418073 146.878435,5.50030655 L147.196977,5.42842775 Z" id="bp-second-metatarsal-right-dorsal"></path>
                        <path class="hover" d="M99.3451653,19.6744978 C99.836494,37.6851827 100.08336,55.6192451 100.08336,73.4633032 C100.08336,112.446898 98.9051105,151.860069 96.5736631,191.563282 C73.1102405,191.574735 51.4457098,195.228476 31.6064336,202.508764 C35.3224027,166.778715 35.3278429,124.208576 20.0509845,82.623158 L19.5833596,81.3633032 C11.9439896,60.8961576 5.44952873,45.0593086 0,31.6403593 C7.56254206,36.0472678 16.5841621,38.0442294 27.0762581,37.8517152 C36.8600343,37.6721976 47.873038,35.661334 61.4637325,31.8559828 L62.3943809,31.5937468 C67.6316571,30.1087791 73.2020776,28.3808852 79.8912316,26.1898718 L82.528531,25.3206458 L90.8258259,22.5417161 L99.3451653,19.6744978 Z" id="bp-first-metatarsal-right-dorsal"></path>
                    </g>
                    <path class="hover" d="M277.298651,46.8772141 C280.073259,48.4669747 282.78332,50.0880231 285.427811,51.7390957 C301.709447,61.9044414 314.647565,72.7699812 323.281056,83.0708243 C329.898282,90.9660088 333.456922,97.9809535 333.804308,102.555322 C333.689914,104.251481 333.567714,105.970832 333.439088,107.716171 L333.173678,111.242327 C333.052919,112.829441 332.653155,115.670964 332.019245,119.583607 L331.626467,121.967726 C329.92761,127.355069 326.536266,129.137094 318.902716,128.86605 L318.166565,128.833625 C314.556132,128.644589 310.167464,127.985193 304.178477,126.778933 L302.485967,126.431788 C298.533334,125.600417 285.6477,122.735338 281.531232,121.852543 L281.080481,121.75638 C278.200582,121.14599 275.370624,120.571142 272.58275,120.032674 C272.725286,117.556578 272.859352,115.079002 272.985261,112.599731 L273.153,109.182551 L273.166045,109.0185 L273.681712,99.85001 C274.605895,83.6954829 275.462583,70.229534 276.185992,60.2734629 L276.359761,57.915118 L276.562745,55.4048237 C276.732008,53.338446 276.901681,51.3353276 277.072762,49.3911456 L277.298651,46.8772141 Z" id="bp-metatarsophalangeal-joint-fifth-toe-right-dorsal" fill="#FFFFFF"></path>
                    <path class="hover" d="M233.778272,26.5804636 C245.891695,31.1429786 257.229769,36.1893146 267.744508,41.6603357 L267.5313,43.8920336 C267.142662,48.0308926 266.765712,52.4332618 266.389541,57.1443538 L265.986609,62.7084426 C265.324188,72.1265073 264.565822,84.166631 263.754981,98.2854129 L263.184,108.404551 C263.023369,111.688499 262.853299,114.968643 262.669067,118.245543 C250.07903,116.147427 238.200335,114.864023 226.233161,114.479948 C226.452261,109.919606 226.663636,105.359531 226.86789,100.799189 L227.157,94.2325512 L227.563412,88.664501 C229.527219,62.1455824 231.567643,41.6646791 233.677617,27.2546587 L233.778272,26.5804636 Z" id="bp-metatarsophalangeal-joint-fourth-toe-right-dorsal" fill="#FFFFFF"></path>
                    <path class="hover" d="M185.888118,12.106871 C199.335886,15.2799045 212.116769,18.9705698 224.187689,23.1257772 L224.13241,23.4782131 C221.851414,38.3046761 219.670847,59.8129459 217.581917,88.0448024 L217.183681,93.5261492 C216.877754,100.475301 216.561292,107.423129 216.228889,114.371452 C209.637377,114.436352 202.954904,114.77765 196.050378,115.407574 C194.080163,115.587324 192.092156,115.802565 190.08485,116.052771 C186.685327,116.476514 183.323645,116.974973 179.938201,117.559765 C180.054078,105.353792 180.065324,93.1042375 179.973538,80.8050143 L179.976342,79.5649937 C180.058049,58.4179854 182.018974,35.9876822 185.855573,12.3010481 L185.888118,12.106871 Z" id="bp-metatarsophalangeal-joint-third-toe-right-dorsal" fill="#FFFFFF"></path>
                    <path class="hover" d="M128.876169,2.32753694 C145.363046,4.18310923 161.127268,6.73582473 176.113242,9.91717124 C172.128139,34.2832776 170.080126,57.3927666 169.97772,79.2216544 L169.973817,80.8796391 C170.070349,93.8149348 170.052397,106.694594 169.919018,119.526822 L168.267019,119.894152 C157.485639,122.329452 145.827978,125.69966 131.520386,130.338191 C130.890905,111.777296 130.004691,93.1386541 128.864408,74.4380138 C128.047716,48.3657872 128.046632,24.4787343 128.858659,2.76257673 L128.876169,2.32753694 Z" id="bp-metatarsophalangeal-joint-second-toe-right-dorsal" fill="#FFFFFF"></path>
                    <path class="hover" d="M45.3637934,5.18089466 C65.3362449,-0.163290086 90.7672206,-1.22038419 118.906132,1.30781905 C118.041671,23.6304102 118.032398,48.18697 118.876151,74.9995915 C118.879879,75.1180445 118.887697,75.2354053 118.899467,75.3515426 C120.087174,94.8429337 120.995443,114.266508 121.623318,133.605003 L101.996007,140.199739 L99.3778451,141.062731 C93.0884278,143.122879 87.826593,144.75987 82.9233177,146.162226 L82.2568489,146.35202 C68.9932458,150.112758 58.4788264,152.067364 49.4831219,152.232422 C30.2738597,152.584883 17.9816268,144.660268 10.6121215,124.826187 L10.5080776,124.540727 C5.8856776,110.878327 2.7736776,97.9423267 0.973677601,81.3423267 C-0.309850768,69.6933344 -0.243200323,58.320429 0.699964828,47.3464397 C0.972251077,46.1879195 1.25125608,44.9622829 1.54374132,43.650596 C5.86201496,24.2847537 20.8854588,11.7307537 45.3637934,5.18089466 Z" id="bp-metatarsophalangeal-joint-great-toe-right-dorsal" fill="#FFFFFF"></path>
                </g>
                <g class="hover" id="bp-great-toe-right-dorsal" transform="translate(5.7614, 0)">
                    <path d="M67.6578248,114.372133 C82.7130807,114.443429 98.3607594,112.867804 115.322393,109.693569 C114.936817,112.662171 114.712316,115.718396 114.712316,119.031775 L114.718551,121.41621 C114.78485,133.501741 115.423303,144.915895 118.665817,149.603591 C116.291062,165.398657 114.602782,182.958006 113.597962,202.297124 C84.5640302,199.722742 58.1861822,200.845943 37.0175889,206.510189 C21.41926,210.683956 8.90237607,217.261764 0,226.390832 C6.98647404,194.954079 17.8687792,168.644662 18.1123161,151.231775 C18.2643161,140.363775 16.8279161,127.705215 15.1529673,114.979076 L14.8867161,112.969375 L14.3643195,109.080511 C32.1430559,112.378665 50.4186365,114.290495 67.6578248,114.372133 Z" id="bp-proximal-phalanx-great-toe-right-dorsal" fill="#FFFFFF"></path>
                    <path d="M115.706956,107.076269 C98.5625372,110.330496 82.8030014,111.943827 67.6696637,111.872161 C50.3249125,111.790023 31.9040035,109.835902 14.0119011,106.472344 L13.3396135,101.477559 C12.0140123,91.5369051 10.839448,81.9372348 10.4853778,73.5333326 C29.1646318,77.166671 48.4869496,79.2860832 66.6578248,79.3721335 C84.2121331,79.4552639 102.571862,77.2993427 122.880793,72.9809565 C120.48194,87.7772941 117.402181,97.0166652 115.796268,106.53704 L115.706956,107.076269 Z" id="bp-interphalangeal-joint-great-toe-right-dorsal" fill="#FFFFFF"></path>
                    <path d="M69.6123161,0.0317754848 C112.412316,1.33177548 127.012316,43.7317755 123.612316,68.1317755 L123.401223,69.6104971 C123.365623,69.8540211 123.329821,70.096095 123.293823,70.3367407 C102.776975,74.752611 84.2984486,76.9556446 66.6696637,76.8721615 C48.4805581,76.7860249 29.1079683,74.64121 10.4028464,70.9711558 C10.3122546,66.8200525 10.4526232,63.0028566 10.9123161,59.6317755 C13.9123161,37.6317755 26.8123161,-1.26822452 69.6123161,0.0317754848 Z M100.528693,19.0858817 C92.8168745,11.9184271 46.1830562,10.9204271 38.1990562,17.4527907 C30.2150561,23.9851544 23.6826925,45.3967908 30.2150561,50.2053363 C51.0823289,65.6289727 92.1817836,63.3607909 105.790875,51.4755181 C111.053056,46.8484272 108.240511,26.2533362 100.528693,19.0858817 Z" id="bp-distal-phalanx-great-toe-right-dorsal" fill="#FFFFFF"></path>
                    <path d="M96.333019,19.387684 C92.5172529,16.2656936 79.2867473,15.3013056 66.3811347,15.6394439 C53.7141048,15.9713312 40.9080522,17.5529792 37.2884308,20.9170979 C33.8414889,24.1207263 31.5830457,30.3105042 30.6241736,36.2125271 C29.7181191,41.7894489 29.6647653,47.5665604 31.9687784,49.5925219 C38.817874,55.5740654 53.0101928,58.8190003 67.7155476,58.5718515 C81.0468951,58.3477952 94.9173404,55.2142664 104.41807,48.1919941 C105.418376,47.455658 105.796194,46.0649816 105.976769,44.4860996 C106.255466,42.0492685 105.910598,39.0726668 105.162955,36.0056299 C103.580588,29.5143271 100.191332,22.5444856 96.333019,19.387684 Z" id="bp-nail-of-great-toe-right" fill="#FFFFFF" transform="translate(68.0576, 37.0802) scale(-1, 1) translate(-68.0576, -37.0802)"></path>
                </g>
                <g class="hover" id="bp-second-toe-right-dorsal" transform="translate(129.3212, 40.2695)">
                    <path d="M57.6698839,94.6534253 L58.7416884,94.5355981 L58.4137518,96.4287267 C56.9274999,105.274345 55.7800793,116.265051 59.4245921,122.156853 C55.0017963,138.865788 51.3579141,155.075172 48.4958076,170.77828 C33.0956648,167.520623 16.9107973,164.916884 0,163.034827 C1.03480132,142.840724 2.82108106,124.650921 5.35701881,108.452418 L5.65152949,106.605778 C8.6414387,102.341443 11.2909015,95.639168 12.6633848,87.7184489 C26.7365527,93.8210838 42.1638119,96.2553782 57.6698839,94.6534253 L57.6698839,94.6534253 Z" id="bp-proximal-phalanx-second-toe-right-dorsal" fill="#FFFFFF"></path>
                    <path d="M61.4668712,79.5675384 L62.3688117,79.4624992 L61.6742445,81.8821533 C60.7284547,85.2214591 59.9548344,88.1705542 59.4796464,90.5518688 L59.2123767,91.9613048 C43.3100856,93.934309 27.4418279,91.5276038 13.0551125,85.1616367 C13.4417531,82.2715594 13.6556272,79.2454679 13.6556272,76.1370081 L13.6594665,73.9458814 C13.6620672,73.2275043 13.6660303,72.5208484 13.6714793,71.8250823 C28.5134675,78.6917671 44.9578953,81.4201771 61.4668712,79.5675384 L61.4668712,79.5675384 Z" id="bp-proximal-interphalangeal-joint-second-toe-right-dorsal" fill="#FFFFFF"></path>
                    <path d="M67.9345485,59.3972922 L68.1925015,59.3685313 C66.5303756,65.475576 64.7139037,71.4843236 63.1354996,76.8429026 C46.0530388,79.1434478 28.9770881,76.3821366 13.7022292,69.0788531 C13.8009561,62.2234265 14.0740973,56.3977774 14.6549005,50.7026305 C30.9609573,58.138951 48.9369355,61.2168559 67.0298144,59.4877551 L67.9345485,59.3972922 Z" id="bp-middle-phalanx-second-toe-right-dorsal" fill="#FFFFFF"></path>
                    <path d="M70.8436318,44.4067445 L71.7817529,44.3058974 C71.0004954,48.3529227 69.9930341,52.5692519 68.8865771,56.7759852 C50.2502581,58.9492952 31.6783151,55.8801928 14.9450326,48.0840226 C15.4363316,43.9722164 16.0998996,39.8572222 16.9864133,35.3969271 C33.7131616,43.1671721 52.2288745,46.3337784 70.8436318,44.4067445 L70.8436318,44.4067445 Z" id="bp-distal-interphalangeal-joint-second-toe-right-dorsal" fill="#FFFFFF"></path>
                    <path d="M52.7083615,1.15599003 C74.6122741,6.5745574 75.1645873,24.7894164 72.2513665,41.7334457 C53.3286347,44.008878 34.4602728,40.8771608 17.503482,32.8770019 C17.7539939,31.688649 18.0203274,30.4727617 18.3031136,29.223652 L18.5182981,28.2805017 C22.5182981,10.8805017 30.3007077,-4.38719234 52.7083615,1.15599003 Z M64.3439298,11.6154805 C61.2033353,7.78707789 39.595952,4.27125866 35.4103776,6.78541211 C31.3245597,9.3065412 26.8502029,18.8175943 29.5687474,21.5137982 C38.295017,30.0432894 57.5270762,31.6888586 64.6662697,27.0756259 C67.3994492,25.2618646 67.4775486,15.5436395 64.3369541,11.7152369 Z" id="bp-distal-phalanx-second-toe-right-dorsal" fill="#FFFFFF"></path>
                    <path d="M59.686137,9.71694851 C57.950108,8.53453913 52.5295048,8.63718016 47.1841471,9.11461356 L46.4214425,9.18526965 C40.9236597,9.7124543 35.2569266,10.6153158 33.7596797,12.2005261 C32.4174316,13.6826345 31.7253867,16.3499029 31.500745,18.8209612 C31.3171459,20.8405521 31.1294451,23.1814218 32.0660601,23.9021933 C35.3157723,26.3198872 41.7205405,27.2024537 48.1941333,26.6355572 C54.1492072,26.1140677 60.2761934,24.3159239 64.3217633,20.8791783 C64.4418288,20.7651655 64.4602844,20.5845158 64.4604437,20.3923671 L64.4571847,20.159798 L64.4589662,20.0459903 C64.5036296,19.0319484 64.2604917,17.817766 63.8659068,16.5764675 C63.0037783,13.8643549 61.4051507,10.9526694 59.686137,9.71694851 Z" id="bp-nail-of-second-toe-right" fill="#FFFFFF" transform="translate(47.9074, 17.79) scale(-1, 1) rotate(-4) translate(-47.9074, -17.79)"></path>
                </g>
                <g class="hover" id="bp-third-toe-right-dorsal" transform="translate(187.5858, 73.0634)">
                    <path d="M51.823734,85.0780838 L51.7976035,85.1442831 C48.7558687,93.1153261 46.9220756,100.340436 48.3955791,104.8826 C44.2267771,119.039087 41.2233718,132.936838 38.2080211,151.034818 C26.1266837,146.938999 13.3772524,143.298145 -1.42108547e-14,140.160765 C2.82317162,124.605802 6.43233188,108.525305 10.8257521,91.9276194 C13.4021636,89.2883129 14.9356701,83.3767814 16.0329967,76.3665807 C27.1605559,81.6808951 39.3056775,84.6720782 51.823734,85.0780838 Z" id="bp-proximal-phalanx-third-toe-right-dorsal" fill="#FFFFFF"></path>
                    <path d="M56.9097547,73.0808328 L56.7587232,73.4127981 C55.373356,76.4846195 54.0163768,79.5814548 52.7964893,82.6030063 C40.0490179,82.3193878 27.6833134,79.2791999 16.4135505,73.7741211 C16.9079428,70.1954026 17.3136083,66.4135864 17.7038152,62.6897888 C29.4874078,68.9299082 42.5329198,72.4924524 56.0289485,73.0488138 L56.9097547,73.0808328 Z" id="bp-proximal-interphalangeal-joint-third-toe-right-dorsal" fill="#FFFFFF"></path>
                    <path d="M66.5175072,51.1254367 L66.3335318,51.6027998 C65.801494,52.9799734 65.2693682,54.3084198 64.7513682,55.5754198 C62.9226248,60.0484275 60.4853904,65.2416523 58.0332106,70.6074478 C43.8955943,70.3313417 30.2214723,66.6644326 17.9843439,60.0044407 L18.2790186,57.2467073 C18.8490323,52.0215542 19.4619994,47.1905764 20.3410533,43.5521955 L20.4572398,43.084453 C20.7864793,41.7956867 21.0989854,40.3757294 21.4126154,38.8599686 C35.0286154,46.8122126 50.5079336,51.0814288 66.5175072,51.1254367 Z" id="bp-middle-phalanx-third-toe-right-dorsal" fill="#FFFFFF"></path>
                    <path d="M71.015482,37.122671 L70.9060323,37.5689538 C69.9525238,41.367079 68.732949,45.1131754 67.4533051,48.6229068 C51.26815,48.7485791 35.6141669,44.4333501 21.9365663,36.2659764 L22.5295926,33.2879366 C23.1422712,30.2427081 23.825518,27.0189232 24.6838352,23.823666 C38.5717616,32.3548802 54.5037859,36.986117 71.015482,37.122671 Z" id="bp-distal-interphalangeal-joint-third-toe-right-dorsal" fill="#FFFFFF"></path>
                    <path d="M54.1602428,0.737285014 C72.9911075,4.79868338 74.7191276,19.7463284 71.5867169,34.6251258 C55.0988667,34.5917348 39.1917547,29.9501418 25.3969248,21.3250968 L25.6345254,20.5540601 C29.5828511,7.99095441 36.8844653,-2.98871564 54.1602428,0.737285014 Z M66.8139547,10.8544021 C64.3249667,7.2098125 45.4797716,2.49851374 41.5685047,4.36525475 C37.7461303,6.23199577 33.0348315,14.3212068 35.2571422,16.8990873 C42.3685366,25.0771908 59.2580982,28.010641 65.9250304,24.4549438 C68.5029108,23.0326649 69.3029427,14.4100993 66.8139547,10.7655097 Z" id="bp-distal-phalanx-third-toe-right-dorsal" fill="#FFFFFF"></path>
                    <path d="M60.2734614,6.61346533 C58.5195602,5.79844911 53.4243544,6.78405903 48.6470098,8.01203843 C48.171821,8.13418204 47.6953481,8.2594824 47.2216962,8.3877014 L46.5138471,8.58218912 C42.6379581,9.66358356 39.093769,10.9355245 38.1863083,12.2643062 C37.2142456,13.653258 37.00963,15.9930776 37.1474876,18.1022989 C37.2562083,19.765726 37.3386182,21.7786674 38.2176653,22.2652105 C41.3548547,23.9181043 47.002581,23.7896251 52.5140972,22.4317152 C57.6256123,21.1723565 62.7248406,18.785994 65.7850934,15.2667382 C65.8978143,15.135982 65.749241,14.9029356 65.730471,14.7356578 C65.6332606,13.8693236 65.258896,12.8723784 64.7555705,11.8728165 C63.6543655,9.68591646 61.9096765,7.41444455 60.2734614,6.61346533 Z" id="bp-nail-of-third-toe-right" fill="#FFFFFF" transform="translate(51.4679, 14.8965) scale(-1, 1) translate(-51.4679, -14.8965)"></path>
                </g>
                <g class="hover" id="bp-fourth-toe-right-dorsal" transform="translate(235.3686, 110.1637)">
                    <path d="M47.5059249,70.7593783 L47.2641109,71.2700138 C44.4569474,77.2608809 42.4665824,83.1421234 43.3276506,87.1952156 C38.4883987,100.558144 35.6950599,113.43224 33.5150351,131.83712 C23.0705473,126.579104 11.8844592,121.726016 2.84217094e-14,117.327982 L0.389857866,114.97696 C3.24747123,97.9150729 6.09120694,84.7297346 9.95709778,71.4578929 C12.5649698,69.47303 14.297521,64.9292195 15.6183198,59.6688278 C25.4069902,65.326889 36.1969968,69.1022339 47.5059249,70.7593783 Z" id="bp-proximal-phalanx-fourth-toe-right-dorsal" fill="#FFFFFF"></path>
                    <path d="M52.7307995,60.7920411 L52.4994569,61.2085734 C51.2322556,63.4967709 49.9062654,65.9330989 48.6637286,68.3974144 C37.1273552,66.8157537 26.1333682,62.9701065 16.2160017,57.1242622 C16.876839,54.1348578 17.4351172,51.0171372 17.9681149,48.0764282 C28.5095188,54.6613824 40.3094432,59.003816 52.7307995,60.7920411 Z" id="bp-proximal-interphalangeal-joint-fourth-toe-right-dorsal" fill="#FFFFFF"></path>
                    <path d="M61.8375777,42.1844931 L61.2809442,43.4802736 C60.0509911,46.3084301 58.9152778,48.7037125 58.1852413,50.4181296 L58.0673783,50.697519 C57.2684473,52.6107484 55.7771957,55.3183273 54.0352911,58.4472073 C41.2797896,56.7540028 29.1795054,52.2953093 18.4538367,45.4264851 L18.66344,44.3228361 C19.1880911,41.6032971 19.7209649,39.1940879 20.3386276,37.3978909 L20.6860037,36.4242282 C21.3695459,34.4671306 22.1949215,31.7241255 23.232161,28.611934 C34.829816,36.0128248 47.9857151,40.6777518 61.8375777,42.1844931 Z" id="bp-middle-phalanx-fourth-toe-right-dorsal" fill="#FFFFFF"></path>
                    <path d="M65.8001065,31.0655845 L65.6444865,31.6232289 C64.8389882,34.469223 63.8458209,37.2301821 62.8301757,39.7745682 C48.8929658,38.374689 35.6646571,33.6910807 24.0645701,26.1757456 C25.0718917,23.3078321 26.2554279,20.2376609 27.662431,17.2456822 C38.8712071,24.5169685 51.5615945,29.2166888 64.9449183,30.9584304 L65.8001065,31.0655845 Z" id="bp-distal-interphalangeal-joint-fourth-toe-right-dorsal" fill="#FFFFFF"></path>
                    <path d="M55.2306473,1.60126653 C67.8967859,6.70007781 68.8337291,17.9279322 66.4118704,28.6196526 C52.8810841,27.0397153 40.0527999,22.3564818 28.7772899,14.9888292 L29.0989212,14.3782032 C34.4086511,4.4432324 42.4956482,-3.52526485 55.2306473,1.60126653 Z M62.7188871,12.0734299 C61.0179467,8.8605426 45.898477,3.00174808 42.4965963,4.13570831 C39.0947156,5.26966854 35.5606639,9.5620042 37.1671076,11.9244213 C42.175432,19.4841562 55.8774514,23.6420104 61.7362459,21.3740899 C64.0986631,20.4291231 64.4198274,15.3808139 62.7188871,12.0734299 Z" id="bp-distal-phalanx-fourth-toe-right-dorsal" fill="#FFFFFF"></path>
                    <path d="M57.2563565,6.50741656 C55.7929348,6.01960931 51.8117477,7.38831033 48.1110738,8.84091131 C44.4999676,10.2583548 40.7548611,11.8883706 40.0355432,13.240874 C39.3894192,14.511454 39.1475803,16.1184315 39.2912844,17.478585 C39.347886,18.0143167 39.4571155,18.5123944 39.6702301,18.8990829 C42.4260578,20.0790123 46.9824388,19.3706467 51.2910096,17.7135041 C55.2940381,16.1738777 59.1810358,13.7304868 61.2922897,10.5436886 C61.2046062,10.0473579 60.9738606,9.62655252 60.6899906,9.21169431 C59.8887113,8.04067492 58.5682093,6.9447008 57.2563565,6.50741656 Z" id="bp-nail-of-fourth-toe-right" fill="#FFFFFF" transform="translate(50.2718, 12.9458) scale(-1, 1) translate(-50.2718, -12.9458)"></path>
                </g>
                <g class="hover" id="bp-fifth-toe-right-dorsal" transform="translate(278.3803, 152.223)">
                    <path d="M51.8121031,56.7461175 L51.7805771,56.8823657 C49.4693771,66.9887657 47.9933771,78.4487657 49.7933771,85.4087657 C55.1234407,105.544562 56.6430442,122.259603 56.375209,140.255279 C47.3720309,127.929259 32.0752096,114.342432 12.3434992,102.023053 C8.36793153,99.5409299 4.25234435,97.1255967 -2.84217094e-14,94.7809265 C2.07061005,75.8829639 4.63222277,63.0953584 9.10702876,50.2619165 C12.1459468,49.6171015 14.3615618,46.9737095 16.1206626,43.4898082 C26.898962,50.3868852 39.0273764,54.9191565 51.8121031,56.7461175 Z" id="bp-proximal-phalanx-fifth-toe-right-dorsal" fill="#FFFFFF"></path>
                    <path d="M54.259894,47.510517 L54.1270675,47.9508863 C53.5366352,49.9260247 52.9497987,52.0663038 52.3953069,54.3027771 C39.7639392,52.5326241 27.7885722,48.0473842 17.1718384,41.1934141 C18.0980119,38.9799873 18.8936608,36.5636552 19.6327599,34.1744695 C29.853403,40.808636 41.3072863,45.3038896 53.3953876,47.3672723 L54.259894,47.510517 Z" id="bp-proximal-interphalangeal-joint-fifth-toe-right-dorsal" fill="#FFFFFF"></path>
                    <path d="M59.4200293,32.8310019 L59.3249206,33.1454553 C58.5537062,35.6652426 57.7044876,37.9402181 56.9625938,39.789618 L56.7933771,40.2087657 C56.2359951,41.5664911 55.6336766,43.2224314 55.0194087,45.0974762 C42.585513,43.1548213 30.8170972,38.5719688 20.3918068,31.683935 L20.9369811,29.8910004 C21.5386188,27.9319848 22.1312472,26.0982254 22.7618209,24.5378197 L22.9521784,24.0780468 C23.4293395,22.9541268 23.922569,21.6818645 24.4512733,20.3236065 C34.8245533,26.7107513 46.3898124,30.9344613 58.5504107,32.7084579 L59.4200293,32.8310019 Z" id="bp-middle-phalanx-fifth-toe-right-dorsal" fill="#FFFFFF"></path>
                    <path d="M61.4383781,23.3747248 L61.4292179,23.4603751 C61.1575708,25.8295803 60.6797418,28.1775287 60.1026327,30.3999519 C47.6947599,28.7632557 35.9007675,24.5103671 25.3810485,17.9597241 C26.316687,15.623497 27.3747265,13.1534776 28.63918,10.8172598 C38.6204694,17.1103715 49.7340187,21.3827607 61.4383781,23.3747248 Z" id="bp-distal-interphalangeal-joint-fifth-toe-right-dorsal" fill="#FFFFFF"></path>
                    <path d="M50.1348566,1.40296741 C59.5539849,4.99778146 62.0028424,12.8388434 61.638677,20.8713042 C50.3113065,18.9150599 39.5590785,14.7600415 29.8988456,8.65732341 L30.2128653,8.16889654 C34.2923408,1.94920445 40.2963087,-2.3519183 50.1348566,1.40296741 Z M56.479356,7.8088016 C55.179356,5.3088016 45.0830791,1.16062121 42.4830791,2.06062121 C39.9830791,2.96062121 37.0506057,6.93608487 37.6324169,7.8088016 C39.3455544,10.312618 53.0871723,16.4476396 55.7364055,15.3879463 C57.4364055,14.6879463 57.1260807,9.05250305 56.479356,7.8088016 Z" id="bp-distal-phalanx-fifth-toe-right-dorsal" fill="#FFFFFF"></path>
                    <path d="M51.6188876,4.41803835 C50.5956865,4.08153 48.1572804,5.05169205 45.9176987,5.97147376 C43.6323324,6.91005894 41.1855123,7.97733005 40.6733886,8.96218344 C40.4052456,9.47784302 40.3597957,11.0722417 40.4865644,12.3654611 C40.5134334,12.6395633 40.5467607,12.904037 40.6023112,13.1386946 C41.9032399,13.1254228 44.5344373,11.9304794 47.0624884,10.8721234 C49.9890891,9.64691662 53.0578507,8.20572764 54.5157909,7.09491359 C54.345636,6.84059003 54.141804,6.57428516 53.9181501,6.30924852 C53.2617135,5.53135148 52.431699,4.71653254 51.6188876,4.41803835 Z" id="bp-nail-of-fifth-toe-right" fill="#FFFFFF" transform="translate(47.4674, 8.7443) scale(-1, 1) translate(-47.4674, -8.7443)"></path>
                </g>
            </g>
        </g>
        <g id="decoration" opacity="0.15" mask="url(#mask-2)" fill="#FFFFFF">
            <g transform="translate(523.2, 1354.45) scale(-1, 1) translate(-523.2, -1354.45)translate(373.2, 1248.9)" id="Path">
                <path d="M18.3,0.1 C18.3,0.1 85,34.3 153.3,34.3 C221.6,34.3 271.8,10 288.9,0 C288.9,71.5 300,211.1 300,211.1 L0,211.1 L18.2,0 L18.3,0.1 Z"></path>
            </g>
        </g>
        <g id="viewport-boundary" mask="url(#mask-2)" stroke="#FF0000" stroke-width="3">
            <g transform="translate(260, 190)" id="boundary">
                <rect x="0" y="0" width="560" height="1080"></rect>
            </g>
        </g>
    </g>
</svg>