<?xml version="1.0" encoding="UTF-8"?>
<svg width="1080px" height="1460px" viewBox="0 0 1080 1460" version="1.1" xmlns="http://www.w3.org/2000/svg" xmlns:xlink="http://www.w3.org/1999/xlink">
    <title>perineum (male)</title>
    <defs>
        <rect id="path-1" x="0" y="0" width="1080" height="1460"></rect>
    </defs>
    <g id="perineum-(male)" stroke="none" stroke-width="1" fill="none" fill-rule="evenodd">
        <mask id="mask-2" fill="white">
            <use xlink:href="#path-1"></use>
        </mask>
        <g id="mask"></g>
        <g id="bp-perineum" mask="url(#mask-2)" fill="#FFFFFF">
            <g transform="translate(365.8393, 246)">
                <path class="hover" d="M174.160656,807 C213.372873,807 245.160656,838.787783 245.160656,878 C245.160656,917.212217 213.372873,949 174.160656,949 C134.948438,949 103.160656,917.212217 103.160656,878 C103.160656,838.787783 134.948438,807 174.160656,807 Z M174.160656,868.6 C168.960656,868.6 164.760656,872.8 164.760656,878 C164.760656,883.2 168.960656,887.4 174.160656,887.4 C179.360656,887.4 183.560656,883.2 183.560656,878 C183.560656,872.8 179.360656,868.6 174.160656,868.6 Z" id="bp-anus" stroke="none" fill-rule="nonzero"></path>
                <path class="hover" d="M174.161781,570.978465 C187.68707,578.432869 201.051714,584.080572 214.261286,587.914184 L214.262115,805.312901 C202.37515,798.740865 188.704765,795 174.160656,795 C159.575836,795 145.869639,798.761836 133.95942,805.368155 L133.960939,587.942862 C146.769683,584.234186 159.724144,578.819641 172.829482,571.705973 L174.161781,570.978465 Z" id="bp-intergluteal-cleft" stroke="none" fill-rule="nonzero"></path>
                <path class="hover" d="M181.280211,324.419158 C220.47541,310.252327 257.354006,313.158101 292.391193,333.113664 C316.957352,347.071713 333.637188,374.27151 342.18698,410.104999 C349.277925,439.824238 350.061965,473.827351 345.362564,498.998854 C336.498088,546.479843 309.77312,576.736854 269.100906,581.236383 L268.21716,581.330711 C240.221351,584.216726 211.226594,577.501492 180.960543,561.020428 L180.160656,560.582166 L180.160656,324.828166 L181.280211,324.419158 Z" id="bp-scrotum-left" stroke="#979797" stroke-width="1" fill-rule="evenodd"></path>
                <path class="hover" d="M55.924712,333.116739 C90.9670891,313.158224 127.845892,310.252332 167.0411,324.419158 L168.160206,324.828166 L168.160206,560.582166 L167.360768,561.020428 C136.776125,577.674977 107.489629,584.357011 79.2189941,581.236227 C38.5481907,576.736854 11.8232231,546.479843 2.95874659,498.998854 C-1.74065428,473.827351 -0.956614174,439.824238 6.13433127,410.104999 C14.6841234,374.27151 31.3639588,347.071713 55.924712,333.116739 Z" id="bp-scrotum-right" stroke="none" fill-rule="evenodd"></path>
                <path class="hover" d="M174.002373,89.5 L174.160656,89.5 C176.384373,89.5 177.583922,90.4590304 179.6792,94.4913426 L180.094957,95.3107572 L180.617917,96.4130132 L184.813505,105.52023 L185.512266,107.003799 C185.5776,107.140173 185.638327,107.265892 185.693938,107.379793 C188.484507,113.095362 191.444813,118.17084 195.123936,123.233711 L197.130321,125.959194 C209.465333,142.558244 226.650513,150.2997 242.571613,148.26405 C243.381746,148.160467 244.178681,148.03153 244.961146,147.87822 L244.961146,304.568795 C222.041147,301.782221 198.41165,305.014883 174.160702,314.263056 C149.91029,305.015122 126.281354,301.782404 103.361012,304.569132 L103.361012,147.293765 C104.101941,147.44718 104.855422,147.57924 105.620302,147.689077 C121.635338,149.988843 138.815292,142.54484 151.169465,125.988225 C155.205893,120.572894 158.445015,115.194838 161.52066,109.116047 L162.005022,108.150306 L162.429277,107.280199 C163.851947,104.327198 167.000598,97.5608497 168.069592,95.4488317 L168.230732,95.1359045 C170.550052,90.7371096 171.859854,89.555715 174.002373,89.5 L174.002373,89.5 Z" id="bp-penis-shaft" stroke="none" fill-rule="nonzero"></path>
                <path class="hover" d="M174.160656,0 C199.994368,0 216.689554,9.69720416 232.465465,37.0016656 C236.328731,43.6880876 239.45607,50.9217605 241.986644,58.7915993 C244.420726,66.3613581 246.264507,74.3607178 247.796716,83.4492536 L248.040044,84.9169885 C248.481109,87.6226035 248.896843,90.4228743 249.326172,93.5394465 L249.8268,97.2774082 L251.008149,106.399426 C252.000633,113.971448 252.763962,118.775905 253.750152,123.051784 L253.926591,123.801319 C255.358573,129.763038 250.280908,135.180661 241.049699,136.36095 C229.529731,137.833877 216.565242,131.993728 206.776514,118.821243 L205.390991,116.940806 C202.081225,112.484452 199.428763,108.047458 196.918859,103.010204 L196.293326,101.733336 C195.044924,99.1188112 191.768325,91.8469637 190.781952,89.8503685 L190.70708,89.7002385 C186.591322,81.5388971 181.975081,77.5 174.160656,77.5 C166.656153,77.5 162.009349,81.3767785 157.835131,89.1275654 L157.474389,89.8119621 C156.961354,90.8151013 156.044838,92.7285066 155.061617,94.8018556 L151.704918,101.891842 C151.522724,102.27161 151.371536,102.583283 151.259977,102.807649 C148.337011,108.686258 145.329019,113.744264 141.549986,118.81427 C131.785195,131.90069 118.918788,137.47565 107.32601,135.810923 C98.1497671,134.49321 93.0181275,129.114881 94.3686369,123.905773 L94.5486756,123.19545 C95.5252819,119.253396 96.2854029,114.692088 97.2258657,107.673072 L98.7101479,96.3018821 L99.0522928,93.7781646 C99.4648453,90.7857886 99.8605931,88.1086287 100.281545,85.4966345 L100.397007,84.7857003 C101.859821,75.8476567 103.585988,68.000548 105.840953,60.5758558 C108.462904,51.9428252 111.745224,44.1162044 115.855846,37.0016656 C131.631757,9.69720416 148.326944,0 174.160656,0 Z" id="bp-glans" stroke="none" fill-rule="evenodd"></path>
            </g>
        </g>
        <g id="decoration" opacity="0.15" mask="url(#mask-2)" fill="#FFFFFF">
            <g transform="translate(0, 259.8)" id="Path">
                <path d="M1080,0 L1080,1003.5 C979.1,1080.8 883.5,1119.4 793.4,1119.4 C662.6,1119.4 554.9,1003.5 540,1003.5 C525.1,1003.5 417.7,1119.4 286.6,1119.4 L286.6,1119.5 C196.4,1119.5 100.9,1080.9 0,1003.6 L0,0.1 L1.7,1.6 L6.78996795,6.24512384 C49.2187901,44.9281254 279.59505,254.084284 372.598458,317.897294 C357.014683,336.764583 346.086515,360.876342 339.488361,388.530214 C331.303373,422.834755 330.409962,461.581189 335.967083,491.346918 C347.330818,552.214741 384.630908,594.44451 441.476149,600.733246 L442.590113,600.852343 C452.246104,601.850106 461.944516,601.953079 471.685,601.166426 L472.39955,601.106 L472.39955,784.612 L472.103107,784.863679 C449.760681,804.033274 435.6,832.471693 435.6,864.2 C435.6,921.887831 482.412169,968.7 540.1,968.7 C597.787831,968.7 644.6,921.887831 644.6,864.2 L644.585992,862.472664 C644.082361,831.440633 630.033093,803.684736 608.096893,784.863679 L607.69955,784.528 L607.69955,601.101 L608.463651,601.165883 C618.601453,601.983332 628.693696,601.84155 638.720292,600.733639 C695.569092,594.44451 732.869182,552.214741 744.232917,491.346918 C749.790038,461.581189 748.896627,422.834755 740.711639,388.530214 C734.102465,360.830154 723.1488,336.684049 707.525425,317.798364 L707.509029,317.815577 C810.237486,247.276059 1080,0 1080,0 Z"></path>
            </g>
        </g>
        <g id="viewport-boundary" mask="url(#mask-2)" stroke="#FF0000" stroke-width="3">
            <g transform="translate(260, 190)" id="boundary">
                <rect x="0" y="0" width="560" height="1080"></rect>
            </g>
        </g>
    </g>
</svg>