<?xml version="1.0" encoding="UTF-8"?>
<svg width="1080px" height="1460px" viewBox="0 0 1080 1460" version="1.1" xmlns="http://www.w3.org/2000/svg" xmlns:xlink="http://www.w3.org/1999/xlink">
    <title>head-front</title>
    <defs>
        <rect id="path-1" x="0" y="0" width="1080" height="1460"></rect>
    </defs>
    <g id="head-front" stroke="none" stroke-width="1" fill="none" fill-rule="evenodd">
        <mask id="mask-2" fill="white">
            <use xlink:href="#path-1"></use>
        </mask>
        <g id="mask"></g>
        <g id="bp-head-front" mask="url(#mask-2)" fill="#FFFFFF">
            <g transform="translate(272.6913, 404.3169)">
                <path class="hover" d="M224.780687,585.436174 C227.495208,589.044061 230.337346,591.825097 233.83576,594.415794 C242.196457,600.604578 252.855381,603.693066 267.298682,603.693066 C283.001171,603.693066 294.555149,599.772873 303.409083,591.992143 C305.58918,590.080225 307.523155,588.067971 309.314939,585.808054 C321.36173,589.141685 333.022564,593.874477 344.008682,599.933066 L354.798682,605.883066 C338.108682,620.933066 312.898682,634.823066 269.008682,636.653066 L268.138682,636.653066 C267.828682,636.643066 267.528682,636.633066 267.228682,636.613066 L266.318682,636.653066 L265.448682,636.653066 C220.988682,634.803066 195.708682,620.563066 179.018682,605.293066 L188.708682,599.943066 C199.95099,593.743194 211.902099,588.927174 224.251401,585.577193 L224.780687,585.436174 Z" id="bp-chin" fill-rule="evenodd"></path>
                <path class="hover" d="M221.027302,537.975474 C219.844492,538.124881 218.749574,538.61889 217.876147,539.384721 C216.990066,540.161647 216.349038,541.183387 216.039598,542.328279 C214.616735,547.642584 214.967174,552.305949 216.984372,556.468583 L218.535235,559.690328 L219.320102,561.34126 C226.784312,577.054009 230.945841,583.565303 238.001039,588.78992 C245.076518,594.027356 254.27636,596.693066 267.298682,596.693066 C281.144666,596.693066 290.953543,593.441989 298.419596,587.053672 L298.790954,586.731642 C306.281912,580.16216 310.679206,571.713426 317.687694,552.794413 C318.78802,549.831997 319.058282,546.531838 318.448131,542.879325 C318.229943,541.595132 317.610867,540.435384 316.687013,539.550025 C315.767264,538.668598 314.580817,538.10308 313.311269,537.950431 L312.96225,537.910543 C308.589971,537.412103 304.239911,537.528957 299.902587,538.259697 L299.089486,538.403905 C299.018593,538.417108 298.947578,538.428074 298.876533,538.436832 L298.700202,538.452487 L298.098219,538.571237 C296.292217,538.933415 294.18084,539.434227 289.74291,540.527624 L284.921012,541.722003 L281.655479,542.508808 L279.96802,542.902271 C275.604924,543.901828 272.315509,544.504797 269.603406,544.730849 L269.603682,575.903066 C269.603682,577.17056 268.576176,578.198066 267.308682,578.198066 C266.041189,578.198066 265.013682,577.17056 265.013682,575.903066 L265.014104,544.730546 C262.162384,544.488741 258.60744,543.815512 253.651669,542.671917 L250.261041,541.876221 L247.935403,541.310921 L242.302366,539.921735 C239.100523,539.141618 237.2177,538.716519 235.509633,538.392359 C230.730912,537.490538 225.90973,537.351198 221.027302,537.975474 Z" id="bp-tongue" fill-rule="nonzero"></path>
                <path class="hover" d="M193.768682,483.563066 C199.108682,489.833066 206.818682,493.403066 215.128682,493.403066 L318.598682,493.403066 C326.828682,493.403066 334.458682,489.903066 339.798682,483.763066 L370.178682,590.263066 C368.388682,592.443066 366.488682,594.693066 364.438682,596.963066 L350.428682,589.223066 C339.520218,583.20064 327.995855,578.386462 316.096912,574.842981 C318.524559,569.971977 320.94998,564.065051 323.738205,556.606259 L324.250721,555.228887 C325.787567,551.091228 326.159088,546.55461 325.350844,541.716371 C324.899708,539.061036 323.654287,536.645644 321.799453,534.761609 L321.716902,534.681066 L321.829691,534.577498 C320.580282,533.230279 319.248838,531.958111 317.835593,530.760782 L318.338682,530.633066 L317.131825,530.176225 C305.714304,520.878793 289.157659,516.283066 267.578682,516.283066 C242.839866,516.283066 224.359444,522.424966 212.293947,534.848739 L212.399602,534.949864 C210.925314,536.503903 209.847808,538.408663 209.27991,540.509885 C207.432117,547.411243 207.912149,553.799141 210.689025,559.529389 C210.965338,560.095842 211.225077,560.63226 211.509287,561.223747 L212.996823,564.343949 C214.827045,568.196709 216.479972,571.544297 218.041393,574.49 C205.70369,578.067164 193.757608,583.00862 182.468682,589.243066 L169.638682,596.333066 C167.488682,593.923066 165.498682,591.533066 163.628682,589.233066 Z" id="bp-mouth" fill-rule="evenodd"></path>
                <path class="hover" d="M322.388682,366.113066 C342.198682,379.373066 365.028682,385.643066 392.908682,385.643066 L460.088682,385.643066 C456.778682,408.653066 456.658682,423.443066 456.168682,432.853066 C454.858682,458.333066 450.288682,472.253066 438.598682,498.613066 C425.838682,527.383066 393.358682,562.623066 383.468682,572.993066 C382.598682,573.903066 381.718682,574.883066 380.828682,575.913066 L340.638682,435.043066 L322.378682,366.123066 L322.388682,366.113066 Z" id="bp-cheek-left" fill-rule="evenodd"></path>
                <path class="hover" d="M212.228682,366.113066 C192.418682,379.373066 169.588682,385.643066 141.708682,385.643066 L74.5286821,385.643066 C77.8386821,408.653066 77.9586821,423.443066 78.4486821,432.853066 C79.7586821,458.333066 84.3286821,472.253066 96.0186821,498.613066 C108.778682,527.383066 141.258682,562.623066 151.148682,572.993066 C152.018682,573.903066 152.898682,574.883066 153.788682,575.913066 L193.978682,435.043066 L212.238682,366.123066 L212.228682,366.113066 Z" id="bp-cheek-right" fill-rule="evenodd"></path>
                <path class="hover" d="M497.108682,299.293066 C505.308682,281.013066 530.608682,283.403066 533.948682,301.813066 C540.398682,337.353066 497.638682,364.413066 485.938682,410.463066 C483.258682,421.013066 484.538682,425.843066 481.148682,430.733066 C476.358682,437.633066 469.058682,433.403066 468.988682,424.423066 C468.948682,418.753066 470.198682,391.383066 477.058682,363.823066 C483.078682,339.633066 493.438682,307.453066 497.098682,299.303066 L497.108682,299.293066 Z M523.178682,298.703066 C519.538682,296.613066 515.318682,295.953066 512.148682,296.973066 C499.338682,301.103066 491.528682,329.933066 485.588682,357.583066 C485.088682,359.913066 484.688682,361.763066 484.388682,363.013066 C483.968682,364.753066 484.028682,367.533066 486.768682,370.833066 C487.168682,371.313066 487.298682,371.943066 487.138682,372.553066 C486.958682,373.203066 486.498682,373.713066 485.868682,373.943066 C481.418682,375.593066 480.178682,376.663066 479.688682,377.773066 C478.198682,381.133066 476.868682,386.513066 475.708682,391.823066 L475.588682,392.353066 C475.378682,393.323066 475.168682,394.293066 474.968682,395.243066 C472.838682,405.353066 473.718682,410.933066 477.588682,411.823066 C477.888682,411.893066 478.178682,411.923066 478.468682,411.923066 C481.438682,411.923066 484.078682,408.543066 484.948682,405.023066 C485.218682,403.943066 484.558682,402.843066 483.478682,402.573066 C482.398682,402.303066 481.298682,402.963066 481.038682,404.043066 C480.478682,406.303066 479.098682,407.663066 478.538682,407.843066 C478.248682,407.443066 477.008682,405.113066 478.918682,396.053066 C479.838682,391.703066 481.538682,383.653066 483.298682,379.563066 C483.528682,379.373066 484.428682,378.763066 487.268682,377.713066 C489.118682,377.033066 490.528682,375.483066 491.038682,373.573066 C491.548682,371.673066 491.128682,369.723066 489.878682,368.223066 C488.538682,366.613066 488.018682,365.173066 488.318682,363.943066 C488.638682,362.643066 489.038682,360.773066 489.548682,358.413066 C492.698682,343.743066 501.078682,304.773066 513.408682,300.803066 C515.498682,300.133066 518.548682,300.673066 521.188682,302.193066 C523.478682,303.503066 525.008682,305.293066 525.408682,307.083066 C527.008682,314.373066 524.158682,322.583066 524.128682,322.673066 C523.758682,323.723066 524.308682,324.883066 525.358682,325.253066 C526.408682,325.623066 527.558682,325.073066 527.928682,324.023066 C528.058682,323.643066 531.198682,314.653066 529.338682,306.223066 C528.698682,303.323066 526.458682,300.573066 523.188682,298.693066 L523.178682,298.703066 Z M514.068682,332.913066 C510.568682,327.233066 502.618682,327.553066 502.288682,327.563066 C501.178682,327.613066 500.318682,328.563066 500.368682,329.673066 C500.418682,330.783066 501.368682,331.643066 502.478682,331.593066 L502.488682,331.593066 C502.488682,331.593066 502.548682,331.593066 502.608682,331.593066 L502.708682,331.593066 C503.818682,331.593066 508.668682,331.803066 510.648682,335.043066 C512.628682,338.273066 511.428682,343.973066 507.188682,351.513066 C505.388682,354.713066 502.888682,358.033066 500.878682,360.703066 C499.418682,362.653066 498.258682,364.193066 497.608682,365.343066 C496.728682,366.893066 495.928682,368.303066 495.178682,369.613066 C490.308682,378.153066 487.858682,382.443066 484.668682,390.973066 C484.278682,392.013066 484.808682,393.183066 485.848682,393.573066 C486.078682,393.663066 486.318682,393.703066 486.558682,393.703066 C487.378682,393.703066 488.138682,393.203066 488.448682,392.393066 C491.528682,384.163066 493.918682,379.973066 498.688682,371.623066 C499.438682,370.303066 500.248682,368.893066 501.128682,367.343066 C501.648682,366.423066 502.788682,364.903066 504.118682,363.143066 C506.198682,360.383066 508.778682,356.943066 510.718682,353.503066 C515.808682,344.473066 516.938682,337.543066 514.088682,332.923066 L514.068682,332.913066 Z" id="bp-ear-left" fill-rule="evenodd"></path>
                <path class="hover" d="M0.668682127,301.813066 C4.00868213,283.403066 29.3086821,281.013066 37.5086821,299.293066 C41.1686821,307.443066 51.5286821,339.623066 57.5486821,363.813066 C64.4086821,391.373066 65.6586821,418.743066 65.6186821,424.413066 C65.5486821,433.393066 58.2486821,437.623066 53.4586821,430.723066 C50.0686821,425.843066 51.3486821,421.003066 48.6686821,410.453066 C36.9686821,364.413066 -5.79131787,337.353066 0.658682127,301.803066 L0.668682127,301.813066 Z M22.4686821,296.963066 C19.2986821,295.943066 15.0786821,296.603066 11.4386821,298.693066 C8.16868213,300.573066 5.92868213,303.313066 5.28868213,306.223066 C3.43868213,314.663066 6.56868213,323.653066 6.69868213,324.023066 C7.06868213,325.073066 8.21868213,325.623066 9.26868213,325.253066 C10.3186821,324.883066 10.8686821,323.723066 10.4986821,322.673066 C10.4686821,322.593066 7.61868213,314.373066 9.21868213,307.083066 C9.61868213,305.283066 11.1486821,303.503066 13.4386821,302.193066 C16.0786821,300.673066 19.1286821,300.133066 21.2186821,300.803066 C33.5386821,304.773066 41.9186821,343.743066 45.0786821,358.413066 C45.5886821,360.773066 45.9886821,362.643066 46.3086821,363.943066 C46.6086821,365.173066 46.0786821,366.613066 44.7486821,368.223066 C43.5086821,369.723066 43.0786821,371.673066 43.5886821,373.573066 C44.0986821,375.483066 45.5086821,377.023066 47.3586821,377.713066 C50.1986821,378.763066 51.0986821,379.383066 51.3286821,379.563066 C53.0986821,383.663066 54.7886821,391.703066 55.7086821,396.053066 C57.6186821,405.113066 56.3786821,407.443066 56.0886821,407.843066 C55.5186821,407.663066 54.1486821,406.303066 53.5786821,404.043066 C53.3086821,402.963066 52.2186821,402.303066 51.1386821,402.573066 C50.0586821,402.843066 49.3986821,403.933066 49.6686821,405.023066 C50.5386821,408.543066 53.1786821,411.923066 56.1486821,411.923066 C56.4386821,411.923066 56.7386821,411.893066 57.0286821,411.823066 C60.8986821,410.933066 61.7786821,405.353066 59.6486821,395.243066 C59.4686821,394.383066 59.2786821,393.503066 59.0886821,392.613066 L58.9686821,392.083066 C58.8886821,391.733066 58.8086821,391.373066 58.7386821,391.023066 L58.6186821,390.493066 C57.5286821,385.623066 56.2986821,380.843066 54.9286821,377.763066 C54.4386821,376.653066 53.1986821,375.583066 48.7486821,373.943066 C48.1186821,373.713066 47.6586821,373.203066 47.4786821,372.553066 C47.3186821,371.933066 47.4486821,371.313066 47.8486821,370.833066 C50.5886821,367.533066 50.6486821,364.763066 50.2286821,363.013066 C49.9286821,361.763066 49.5286821,359.923066 49.0286821,357.583066 C43.0786821,329.933066 35.2786821,301.103066 22.4686821,296.973066 L22.4686821,296.963066 Z M32.3286821,327.563066 C31.9986821,327.553066 24.0486821,327.233066 20.5486821,332.913066 C17.6986821,337.533066 18.8386821,344.463066 23.9186821,353.493066 C25.8486821,356.923066 28.4386821,360.363066 30.5186821,363.133066 C31.8386821,364.893066 32.9786821,366.413066 33.5086821,367.333066 C34.3886821,368.883066 35.1986821,370.303066 35.9486821,371.613066 C40.7086821,379.963066 43.1086821,384.163066 46.1886821,392.383066 C46.4886821,393.193066 47.2586821,393.693066 48.0786821,393.693066 C48.3086821,393.693066 48.5486821,393.653066 48.7886821,393.563066 C49.8286821,393.173066 50.3586821,392.003066 49.9686821,390.963066 C46.7686821,382.433066 44.3286821,378.143066 39.4586821,369.603066 C38.7086821,368.293066 37.9086821,366.873066 37.0286821,365.333066 C36.3786821,364.183066 35.2186821,362.643066 33.7586821,360.693066 C31.7486821,358.023066 29.2586821,354.703066 27.4486821,351.503066 C23.2086821,343.963066 22.0086821,338.273066 23.9886821,335.033066 C26.2186821,331.393066 32.0586821,331.583066 32.1586821,331.583066 C33.2686821,331.633066 34.2086821,330.773066 34.2686821,329.663066 C34.3186821,328.553066 33.4586821,327.603066 32.3486821,327.553066 L32.3286821,327.563066 Z" id="bp-ear-right" fill-rule="evenodd"></path>
                <path class="hover" d="M287.388682,285.923066 L334.028682,461.333066 C335.248682,465.903066 334.278682,470.683066 331.378682,474.423066 C328.478682,478.173066 324.088682,480.323066 319.328682,480.323066 L215.298682,480.323066 C210.538682,480.323066 206.148682,478.173066 203.248682,474.423066 C200.348682,470.673066 199.378682,465.903066 200.598682,461.333066 L247.238682,285.923066 L287.398682,285.923066 L287.388682,285.923066 Z M248.248682,380.403066 C246.828682,380.053066 245.868682,380.943066 245.488682,382.703066 C241.068682,403.163066 235.658682,422.713066 230.118682,436.763066 L224.688682,448.823066 C222.968682,452.633066 223.628682,456.953066 226.398682,460.103066 C228.458682,462.443066 231.338682,463.713066 234.338682,463.713066 C235.358682,463.713066 236.398682,463.563066 237.418682,463.263066 C237.458682,463.253066 237.498682,463.243066 237.528682,463.223066 L242.288682,461.513066 C244.818682,460.603066 247.588682,460.633066 250.098682,461.603066 L255.118682,463.533066 C256.168682,463.933066 257.348682,463.413066 257.748682,462.373066 C258.158682,461.333066 257.628682,460.153066 256.578682,459.753066 L251.558682,457.823066 C248.138682,456.503066 244.348682,456.463066 240.898682,457.703066 L236.198682,459.393066 C233.698682,460.113066 231.178682,459.383066 229.458682,457.423066 C227.728682,455.453066 227.338682,452.853066 228.408682,450.473066 L233.858682,438.373066 C233.858682,438.373066 233.888682,438.313066 233.898682,438.283066 C239.518682,424.043066 245.008682,404.213066 249.478682,383.463066 C249.748682,382.203066 249.668682,380.753066 248.248682,380.403066 L248.248682,380.403066 Z M301.238682,429.723066 C300.878682,428.663066 299.728682,428.093066 298.658682,428.443066 C297.588682,428.793066 297.018682,429.943066 297.378682,431.003066 C298.218682,433.503066 299.118682,435.953066 300.038682,438.283066 C300.048682,438.313066 300.058682,438.343066 300.078682,438.373066 L305.518682,450.473066 C306.588682,452.863066 306.198682,455.453066 304.468682,457.423066 C302.748682,459.373066 300.228682,460.103066 297.728682,459.393066 L293.028682,457.703066 C289.578682,456.463066 285.788682,456.503066 282.368682,457.823066 L277.348682,459.753066 C276.298682,460.153066 275.778682,461.333066 276.178682,462.373066 C276.578682,463.413066 277.758682,463.933066 278.808682,463.533066 L283.828682,461.603066 C286.338682,460.643066 289.108682,460.613066 291.638682,461.513066 L296.398682,463.223066 C296.398682,463.223066 296.468682,463.253066 296.508682,463.263066 C297.528682,463.563066 298.568682,463.713066 299.588682,463.713066 C302.588682,463.713066 305.458682,462.443066 307.528682,460.093066 C310.298682,456.953066 310.948682,452.633066 309.238682,448.823066 L303.808682,436.763066 C302.918682,434.503066 302.048682,432.133066 301.238682,429.713066 L301.238682,429.723066 Z" id="bp-nose" fill-rule="evenodd"></path>
                <path class="hover" d="M442.134537,231.653066 C449.951537,252.379832 464.876748,266.268378 486.597516,272.982091 C485.484171,280.966094 483.999503,289.211022 481.578682,298.343066 C476.038682,319.243066 468.938682,339.433066 464.758682,360.053066 C463.808682,364.743066 462.978682,369.183066 462.238682,373.403066 L393.058682,373.403066 C361.708682,373.403066 337.578682,364.713066 317.108682,346.053066 L299.708682,280.253066 C321.358682,244.453066 362.408682,231.653066 391.458682,231.653066 L442.134537,231.653066 Z M382.328682,300.503066 C371.158682,300.503066 362.078682,309.583066 362.078682,320.753066 C362.078682,331.923066 371.158682,341.003066 382.328682,341.003066 C393.498682,341.003066 402.578682,331.923066 402.578682,320.753066 C402.578682,309.583066 393.498682,300.503066 382.328682,300.503066 Z M382.328682,304.553066 C391.258682,304.553066 398.528682,311.823066 398.528682,320.753066 C398.528682,329.683066 391.258682,336.953066 382.328682,336.953066 C373.398682,336.953066 366.128682,329.683066 366.128682,320.753066 C366.128682,311.823066 373.398682,304.553066 382.328682,304.553066 Z M382.868682,293.663066 C353.828682,293.663066 333.278682,318.483066 332.418682,319.543066 C331.708682,320.413066 331.838682,321.683066 332.708682,322.393066 C333.088682,322.703066 333.538682,322.853066 333.988682,322.853066 C334.519682,322.853066 335.042582,322.650566 335.433452,322.252856 L335.570615,322.098741 L336.065408,321.524533 C339.345209,317.800875 358.16802,297.723066 382.868682,297.723066 C395.308682,297.723066 407.358682,303.993066 415.278682,309.253066 L416.065879,309.781763 C423.335582,314.715263 428.415318,319.577106 429.552138,320.706262 L429.788682,320.943066 C430.568682,321.743066 431.848682,321.753066 432.658682,320.973066 C433.458682,320.193066 433.478682,318.913066 432.688682,318.113066 L431.908832,317.343936 C430.054336,315.551584 425.035691,310.930394 418.004589,306.210783 L417.588682,305.933066 C409.188682,300.343066 396.338682,293.683066 382.858682,293.683066 L382.868682,293.663066 Z M351.508682,258.273066 L351.518682,258.263066 C331.448682,266.023066 319.428682,277.343066 318.928682,277.823066 C318.118682,278.593066 318.088682,279.873066 318.858682,280.683066 C319.588156,281.450435 320.775358,281.517748 321.587024,280.868 L322.450958,280.094962 C325.322106,277.577962 336.469082,268.390066 353.118682,261.983066 C378.720082,252.132566 404.615512,253.112171 430.096654,264.892772 L430.868682,265.253066 C444.098682,271.483066 456.948682,280.833066 457.078682,280.923066 C457.438682,281.183066 457.858682,281.313066 458.268682,281.313066 C458.888682,281.313066 459.508682,281.023066 459.908682,280.483066 C460.535682,279.628066 460.386532,278.439141 459.598412,277.756519 L459.468682,277.653066 C459.270315,277.509801 457.425633,276.168235 454.497271,274.21083 L453.139093,273.310654 C449.301384,270.788506 444.054364,267.519773 438.337837,264.477381 L437.531855,264.05161 C435.914101,263.203445 434.262764,262.37674 432.598682,261.593066 C399.188682,245.863066 370.058682,251.103066 351.508682,258.273066 Z" id="bp-eye-left" fill-rule="evenodd"></path>
                <path class="hover" d="M190.444537,231.653066 C198.261537,252.379832 213.186748,266.268378 234.907516,272.982091 C233.794171,280.966094 232.309503,289.211022 229.888682,298.343066 C224.348682,319.243066 217.248682,339.433066 213.068682,360.053066 C212.118682,364.743066 211.288682,369.183066 210.548682,373.403066 L141.368682,373.403066 C110.018682,373.403066 85.8886821,364.713066 65.4186821,346.053066 L48.0186821,280.253066 C69.6686821,244.453066 110.718682,231.653066 139.768682,231.653066 L190.444537,231.653066 Z M130.638682,300.503066 C119.468682,300.503066 110.388682,309.583066 110.388682,320.753066 C110.388682,331.923066 119.468682,341.003066 130.638682,341.003066 C141.808682,341.003066 150.888682,331.923066 150.888682,320.753066 C150.888682,309.583066 141.808682,300.503066 130.638682,300.503066 Z M130.638682,304.553066 C139.568682,304.553066 146.838682,311.823066 146.838682,320.753066 C146.838682,329.683066 139.568682,336.953066 130.638682,336.953066 C121.708682,336.953066 114.438682,329.683066 114.438682,320.753066 C114.438682,311.823066 121.708682,304.553066 130.638682,304.553066 Z M131.178682,293.663066 C102.138682,293.663066 81.5886821,318.483066 80.7286821,319.543066 C80.0186821,320.413066 80.1486821,321.683066 81.0186821,322.393066 C81.3986821,322.703066 81.8486821,322.853066 82.2986821,322.853066 C82.8296821,322.853066 83.3525821,322.650566 83.7434521,322.252856 L83.8806154,322.098741 L84.3754076,321.524533 C87.6552094,317.800875 106.47802,297.723066 131.178682,297.723066 C143.618682,297.723066 155.668682,303.993066 163.588682,309.253066 L164.375879,309.781763 C171.645582,314.715263 176.725318,319.577106 177.862138,320.706262 L178.098682,320.943066 C178.878682,321.743066 180.158682,321.753066 180.968682,320.973066 C181.768682,320.193066 181.788682,318.913066 180.998682,318.113066 L180.218832,317.343936 C178.364336,315.551584 173.345691,310.930394 166.314589,306.210783 L165.898682,305.933066 C157.498682,300.343066 144.648682,293.683066 131.168682,293.683066 L131.178682,293.663066 Z M99.8186821,258.273066 L99.8286821,258.263066 C79.7586821,266.023066 67.7386821,277.343066 67.2386821,277.823066 C66.4286821,278.593066 66.3986821,279.873066 67.1686821,280.683066 C67.8981558,281.450435 69.085358,281.517748 69.8970245,280.868 L70.7609583,280.094962 C73.6321061,277.577962 84.7790821,268.390066 101.428682,261.983066 C127.030082,252.132566 152.925512,253.112171 178.406654,264.892772 L179.178682,265.253066 C192.408682,271.483066 205.258682,280.833066 205.388682,280.923066 C205.748682,281.183066 206.168682,281.313066 206.578682,281.313066 C207.198682,281.313066 207.818682,281.023066 208.218682,280.483066 C208.845682,279.628066 208.696532,278.439141 207.908412,277.756519 L207.778682,277.653066 C207.580315,277.509801 205.735633,276.168235 202.807271,274.21083 L201.449093,273.310654 C197.611384,270.788506 192.364364,267.519773 186.647837,264.477381 L185.841855,264.05161 C184.224101,263.203445 182.572764,262.37674 180.908682,261.593066 C147.498682,245.863066 118.368682,251.103066 99.8186821,258.273066 Z" id="bp-eye-left-copy" fill-rule="evenodd" transform="translate(141.4631, 302.5281) scale(-1, 1) translate(-141.4631, -302.5281)"></path>
                <path class="hover" d="M484.885327,127.375045 C490.42767,141.745714 499.25163,191.738005 488.278302,259.814795 C474.257855,255.521186 448.803128,240.46334 448.803128,195.801711 C448.803128,152.74256 481.487286,129.857871 484.885327,127.375045 Z" id="bp-temple-region-left" fill-rule="evenodd"></path>
                <path class="hover" d="M77.1808812,127.375045 C82.7232244,141.745714 91.5471837,191.738005 80.5738561,259.814795 C66.5534093,255.521186 41.0986821,240.46334 41.0986821,195.801711 C41.0986821,152.74256 73.7828405,129.857871 77.1808812,127.375045 Z" id="bp-temple-region-right" fill-rule="evenodd" transform="translate(63.4544, 193.5949) scale(-1, 1) translate(-63.4544, -193.5949)"></path>
                <path class="hover" d="M266.086101,141.745714 L268.068682,141.753066 C306.298682,141.953066 344.608682,146.603066 381.948682,155.563066 C401.082941,160.157552 420.002785,165.898234 438.57202,172.737444 C436.068761,182.785964 435.29606,193.395883 436.272571,204.555988 C436.711278,209.569778 437.419526,214.333465 438.395064,218.844624 L390.348682,218.843066 C358.158682,218.843066 312.648682,233.113066 288.138682,272.973066 L266.838682,272.943066 L266.828682,272.933066 L245.588682,272.963066 C221.078682,233.093066 175.568682,218.833066 143.378682,218.833066 L96.2238526,218.834626 C97.1982752,214.326426 97.905801,209.566074 98.3441841,204.555988 C99.3365925,193.214193 98.5223706,182.440644 95.9216058,172.24786 C114.983507,165.126103 134.35868,159.004119 154.138682,154.433066 C190.766096,145.981342 228.417273,141.692278 266.086101,141.745714 L266.086101,141.745714 Z" id="bp-forehead" fill-rule="evenodd"></path>
                <path class="hover" d="M258.828513,128.490361 C222.602459,129.227992 186.359633,133.887585 150.981275,142.363066 C131.027606,147.143908 111.314466,153.149779 91.9897304,160.325314 C84.9196434,143.231263 72.3571564,127.946136 54.4086821,114.534848 C84.9207959,40.3807775 157.212467,12.742048 184.886417,6.16592191 L185.711275,5.97306621 C200.830972,2.49579348 226.63963,0.537090287 253.826943,0.083468579 L255.748216,0.0539478367 L258.637121,0.0190386271 L260.841049,0 L273.808909,0 L276.012837,0.0190386271 L278.901741,0.0539478367 L282.739708,0.1179889 C308.899908,0.623935209 333.573177,2.53089216 348.400623,5.85096946 L348.938682,5.97306621 C375.97279,12.1884358 449.420958,39.6317465 480.241275,114.534848 C462.292801,127.946136 449.730314,143.231263 442.660227,160.325314 C423.335491,153.149779 403.622352,147.143908 383.668682,142.363066 C347.63517,133.730632 310.704875,129.056723 273.808909,128.453418 L260.841049,128.453418 L258.828513,128.490361 Z" id="bp-frontal-scalp-region" fill-rule="evenodd"></path>
            </g>
        </g>
        <g id="decoration" opacity="0.15" mask="url(#mask-2)">
            <g transform="translate(-511, 1041)">
                <g id="bp-upper-limb-left-front" stroke-width="1" fill="none" transform="translate(1172.2037, 36.3726)">
                    <path d="M227.890459,291.231301 C242.282688,295.178683 255.770064,299.315099 268.957558,303.846445 C319.588057,321.243554 354.624346,341.60059 371.09027,365.50682 C378.579197,376.373721 383.170569,385.342885 386.151438,394.592081 C388.321375,401.325075 389.654702,407.927809 391.105128,418.553837 L391.962575,425.155897 L393.529682,437.662253 C393.737595,439.273509 393.93824,440.795578 394.14296,442.311482 L394.349459,443.828406 C403.993646,513.597062 380.862472,552.02728 323.828854,561.412887 L321.812581,535.159089 C320.586765,519.686586 319.470255,506.640615 318.53206,497.34483 C313.274009,445.712404 290.63904,342.653801 229.634701,292.639312 L227.890459,291.231301 Z" id="bp-armpit-left" fill="#FFFFFF"></path>
                    <path d="M36.9012576,0 C61.6367108,32.4322378 143.60445,67.1882807 228.317067,101.161302 L283.256495,123.119516 C348.525659,149.3454 408.231687,174.677831 436.202144,197.624477 C498.631506,248.804083 525.731163,342.805987 531.824862,373.321956 L532.014165,374.284189 C533.533562,382.128948 535.719114,398.295987 538.222624,419.436356 C525.02997,424.887492 512.209459,429.571296 499.965356,433.325842 C496.126842,434.502888 492.361163,435.583111 488.673305,436.562626 C473.251391,440.668709 445.869796,444.255245 406.516914,447.29528 L406.205539,444.781765 L405.262321,437.730276 L403.1552,421.000039 L402.609325,416.870957 C401.07744,405.668264 399.629857,398.51305 397.217265,391.027132 C393.868757,380.637206 388.764685,370.666492 380.664736,358.912961 C362.425157,332.431629 325.52819,310.993489 272.736245,292.853687 C248.759256,284.61497 223.902492,277.683892 194.637012,270.855612 C147.587496,247.311983 82.7089156,230.810307 2.27373675e-13,221.317186 L2.64149562,216.094215 C21.6345753,178.244186 32.314115,150.333504 34.6801149,132.406379 L35.0288692,129.500876 C36.4481526,116.483439 37.194838,93.9682304 37.3339605,61.922708 L37.3555823,50.8206093 C37.3555823,35.766393 37.2041407,18.8935466 36.9517382,0.151552513 L36.9012576,0 Z" id="bp-shoulder-left-front" fill="#FFFFFF"></path>
                </g>
                <g id="bp-thorax" stroke-width="1" fill="none" transform="translate(651.3521, 297.0471)">
                    <path d="M399.303915,53.3115772 L399.698402,53.5443424 L400.03472,53.3443474 L461.873272,88.8445117 C468.027926,92.3640422 470.324441,100.097953 467.234048,106.393241 L466.850663,107.111765 L466.441643,107.760942 L442.989392,143.672777 C430.007097,163.508 423.988962,187.125276 425.909061,210.770473 L445.091298,449.259168 L445.245011,451.527374 C446.175271,468.157662 442.776765,484.691995 435.343203,499.479293 L399.595964,570.977351 L363.857418,499.49074 L362.870504,497.455306 C356.136457,483.135772 353.068254,467.337814 353.950954,451.514878 L354.035579,450.233557 L354.126113,449.853333 C354.162035,449.65868 354.188354,449.460464 354.204545,449.259168 L373.387141,210.76603 C375.306975,187.177495 369.289423,163.562507 356.307109,143.673784 L332.883492,107.805349 C328.985209,101.834911 330.431832,93.9582988 336.055835,89.7603051 L336.930666,89.159028 L337.754627,88.6387563 L399.303915,53.3115772 Z" id="bp-sternum" fill="#FFFFFF"></path>
                    <path d="M726.458786,68.9521812 C766.085992,108.052729 798.595444,199.94407 799.15073,356.901956 L799.15073,362.307329 C799.16935,363.406684 799.21544,365.894336 799.266203,369.263288 L797.786719,370.236533 L796.200983,371.254492 C785.398508,378.137917 773.005185,385.029908 759.224909,391.464679 C719.424196,410.049825 676.4283,421.09675 631.899173,420.841606 C574.650128,420.513579 518.999878,401.38971 466.374921,359.575919 C461.089517,355.376338 455.843659,350.952826 450.63855,346.302351 L448.300977,344.181886 L437.497397,209.834286 C435.845058,189.486416 440.787781,169.164187 451.546082,151.873405 L452.720975,150.032558 L476.534653,113.546792 L476.723673,113.244715 C483.776141,100.921609 479.623979,85.6043853 467.653887,78.7593207 L411.511361,46.5310201 L441.207936,29.0359194 C474.062951,9.82413391 491.60503,0.171082439 493.794085,0.096822814 C559.166354,-2.17646488 693.040684,36.0147684 726.458786,68.9521812 Z M631.454454,262.232153 C618.884805,262.232153 608.687741,272.436688 608.687741,284.96503 C608.687741,297.493371 618.884805,307.697906 631.454454,307.697906 C644.024103,307.697906 654.221167,297.493371 654.221167,284.96503 C654.221167,272.436688 644.024103,262.232153 631.454454,262.232153 Z M632.06022,277.690509 C636.242163,277.690509 639.632298,281.083127 639.632298,285.268135 C639.632298,289.453142 636.242163,292.84576 632.06022,292.84576 C627.878277,292.84576 624.488143,289.453142 624.488143,285.268135 C624.488143,281.083127 627.878277,277.690509 632.06022,277.690509 Z" id="bp-breast-left" fill="#FFFFFF"></path>
                    <path d="M305.602719,0.096822814 L305.888077,0.141411169 C309.846177,1.07545764 337.143484,16.5433151 387.817461,46.5074919 L331.63354,78.7641432 L330.342353,79.5761086 C318.818434,87.1111632 315.58852,102.581384 323.148396,114.159758 L346.571605,150.027568 L347.746763,151.873584 C358.507463,169.210953 363.450704,189.533337 361.798891,209.828786 L350.987181,344.294783 C345.051601,349.684015 339.06257,354.776219 333.021883,359.575919 C280.396926,401.38971 224.746677,420.513579 167.497631,420.841606 C122.968504,421.09675 79.9726079,410.049825 40.1718947,391.464679 C26.3916188,385.029908 13.9982962,378.137917 3.19582102,371.254492 C2.13901607,370.581088 1.1193939,369.921559 0.137512897,369.277197 L0.246074122,361.650601 C0.145113089,201.7627 32.9069684,108.45687 72.938018,68.9521812 C106.30564,36.0147684 240.17997,-2.12594738 305.602719,0.096822814 Z M175.110584,262.232153 C162.540935,262.232153 152.343871,272.436688 152.343871,284.96503 C152.343871,297.493371 162.540935,307.697906 175.110584,307.697906 C187.680232,307.697906 197.877297,297.493371 197.877297,284.96503 C197.877297,272.436688 187.680232,262.232153 175.110584,262.232153 Z M175.71635,277.690509 C179.898293,277.690509 183.288427,281.083127 183.288427,285.268135 C183.288427,289.453142 179.898293,292.84576 175.71635,292.84576 C171.534407,292.84576 168.144272,289.453142 168.144272,285.268135 C168.144272,281.083127 171.534407,277.690509 175.71635,277.690509 Z" id="bp-breast-right" fill="#FFFFFF"></path>
                </g>
                <g id="bp-upper-limb-right-front" stroke-width="1" fill="none" transform="translate(0, 36.3726)">
                    <path d="M701.91355,291.226016 C641.022331,339.550707 617.651344,440.444051 611.658633,493.668303 L611.26422,497.34483 C609.832237,511.533133 607.984846,534.45802 605.966385,561.408705 C549.515731,552.122974 526.278181,514.378666 535.161057,445.960004 L536.266535,437.662708 L538.172821,422.478021 L538.691151,418.553837 C540.141578,407.927809 541.474905,401.325075 543.644842,394.592081 C546.62571,385.342885 551.217083,376.373721 558.705162,365.50805 C575.171933,341.60059 610.208223,321.243554 660.838721,303.846445 C673.277283,299.57244 685.982631,295.649781 699.462409,291.905697 L701.91355,291.226016 Z" id="bp-armpit-right" fill="#FFFFFF"></path>
                    <path d="M892.895022,0 L892.844541,0.151552513 L892.600985,20.9503011 C892.523782,28.9402986 892.472222,36.5362734 892.451267,43.743192 L892.440697,54.1547646 C892.491178,93.0027254 893.349347,119.069758 895.116165,132.406379 C897.58971,151.148373 909.149748,180.802148 929.79628,221.317186 C847.087364,230.810307 782.208784,247.311983 735.160538,270.855019 C705.893788,277.683892 681.037024,284.61497 657.060034,292.853687 C604.26809,310.993489 567.371123,332.431629 549.130696,358.914191 C541.031595,370.666492 535.927522,380.637206 532.579015,391.027132 C530.024506,398.953398 528.551875,406.50891 526.915533,418.890809 L524.53381,437.731354 L523.928589,442.24862 C523.693733,443.947635 523.477741,445.630828 523.280601,447.298174 L514.83405,446.621474 C479.982826,443.727524 455.416628,440.36831 441.126357,436.563526 C437.435116,435.583111 433.669437,434.502888 429.830924,433.325842 C417.585543,429.570904 404.763633,424.886514 391.573859,419.444902 L393.565704,403.149837 C395.232293,390.009566 396.681862,379.964876 397.782115,374.284189 L398.175293,372.315681 C404.65199,340.789392 431.836057,248.253765 493.594136,197.624477 C521.564593,174.677831 581.270621,149.3454 646.539785,123.119516 L707.185399,98.8698353 C789.846872,65.6273849 868.715422,31.7034234 892.895022,0 Z" id="bp-shoulder-right-front" fill="#FFFFFF"></path>
                </g>
                <path d="M938.933253,0 C940.245747,18.1863015 939.993344,103.510366 941.457279,139.024172 C943.829863,198.382239 957.611044,219.043899 986.334458,249.505954 C1000.51948,264.56017 1045.0433,295.881023 1051,300.073976 C1056.9567,295.881023 1101.48052,264.56017 1115.66554,249.505954 C1144.38896,218.993381 1158.17014,198.331722 1160.54272,139.024172 C1161.95618,103.510366 1161.70377,18.1863015 1163.06675,0 C1163.06675,0 1142.57166,48.1936991 1051,48.4462866 C959.428343,48.1936991 938.933253,0 938.933253,0 L938.933253,0 Z" id="bp-neck-front" fill="#FFFFFF"></path>
            </g>
        </g>
        <g id="viewport-boundary" mask="url(#mask-2)" stroke="#FF0000" stroke-width="3">
            <g transform="translate(260, 190)" id="boundary">
                <rect x="0" y="0" width="560" height="1080"></rect>
            </g>
        </g>
    </g>
</svg>