<?xml version="1.0" encoding="UTF-8"?>
<svg width="1080px" height="1460px" viewBox="0 0 1080 1460" version="1.1" xmlns="http://www.w3.org/2000/svg" xmlns:xlink="http://www.w3.org/1999/xlink">
    <title>head-back</title>
    <defs>
        <rect id="path-1" x="0" y="0" width="1080" height="1460"></rect>
    </defs>
    <g id="head-back" stroke="none" stroke-width="1" fill="none" fill-rule="evenodd">
        <mask id="mask-2" fill="white">
            <use xlink:href="#path-1"></use>
        </mask>
        <g id="mask"></g>
        <g id="bp-head-back" mask="url(#mask-2)" fill="#FFFFFF">
            <g transform="translate(272.7321, 404.4)">
                <path d="M491.057256,270.357367 C440.214312,291.227279 412.465034,319.832828 408.797976,356.299676 C406.328978,380.405979 409.770244,398.838143 418.836721,413.89647 C424.148537,422.718758 430.543884,429.637177 440.387184,437.571808 C431.954786,456.336115 422.717073,474.378721 412.667868,491.7 L408.906385,488.613928 C388.082629,471.591635 348.293369,441.3 267.367868,441.3 C181.27691,441.3 141.663479,475.567067 122.067868,491.7 C112.021658,474.334407 102.774619,456.243793 94.3267522,437.428157 C104.069472,429.553096 110.419451,422.665193 115.699016,413.89647 C124.765493,398.838143 128.206759,380.405979 125.736644,356.288673 C122.075826,319.883778 94.3998097,291.308121 43.6966073,270.446934 C41.3653551,256.85028 39.719766,243.819462 38.7376764,231.334747 L38.7328135,231.35107 C108.162864,263.846122 185.645684,282 267.368569,282 C349.091454,282 426.574274,263.846122 496.004325,231.35107 L496.004325,231.334747 C495.020324,243.791856 493.38008,256.792954 491.057256,270.357367 Z" id="bp-occipital-region"></path>
                <path d="M267.567868,0 C337.367868,0 389.867868,13.9 425.167868,41.6 C474.014719,79.9910709 500.119054,136.729046 496.820067,217.661197 C427.438116,251.202407 349.598549,270 267.368569,270 C185.13851,270 107.298872,251.202371 37.912344,217.669802 C34.6167479,136.728904 60.7210784,79.9910228 109.567868,41.6 C144.467868,14.2 196.267868,0.3 265.067868,0 L267.567868,0 Z" id="bp-parietal-region"></path>
                <path d="M488.418931,284.532474 L488.567868,283.8 C478.334518,335.032349 463.970144,382.477925 445.390063,426.13673 C438.037355,419.920353 433.135806,414.381243 429.117142,407.706726 C421.475288,395.014526 418.517914,379.174193 420.736644,357.511327 C423.724706,327.796799 446.005382,303.43798 488.418931,284.532474 Z" id="bp-postauricular-region-right"></path>
                <path d="M46.3365974,284.630562 C88.6073226,303.522098 110.816079,327.847016 113.797976,357.500324 C116.017822,379.174193 113.060448,395.014526 105.418595,407.706726 C101.432709,414.326803 96.5782811,419.82992 89.326573,425.983896 C71.0580876,383.032775 56.8293487,336.418314 46.6387783,286.14036 L46.3365974,284.630562 Z" id="bp-postauricular-region-left"></path>
                <path d="M0.66786831,301.8 C-5.83213169,337.3 36.9678683,364.4 48.6678683,410.4 C51.3678683,420.9 50.0678683,425.8 53.4678683,430.7 C58.2678683,437.6 65.5678683,433.4 65.6678683,424.4 C65.6678683,418.7 64.4678683,391.4 57.5678683,363.8 C51.5678683,339.6 41.1678683,307.4 37.5678683,299.3 C29.3678683,281 4.06786831,283.4 0.76786831,301.8 L0.66786831,301.8 Z" id="bp-ear-left"></path>
                <path d="M497.067868,299.3 C493.367868,307.5 483.067868,339.6 477.067868,363.8 C470.167868,391.4 468.967868,418.7 468.967868,424.4 C468.967868,433.4 476.367868,437.6 481.167868,430.7 C484.567868,425.8 483.267868,421 485.967868,410.4 C497.667868,364.4 540.467868,337.3 533.967868,301.8 C530.667868,283.4 505.367868,281 497.167868,299.3 L497.067868,299.3 Z" id="bp-ear-right"></path>
            </g>
        </g>
        <g id="decoration" opacity="0.15" mask="url(#mask-2)">
            <g transform="translate(-511, 888.2811)">
                <g id="bp-upper-limb-right-back" stroke-width="1" fill="none" transform="translate(1503.9617, 353.5325)">
                    <path d="M38.5166342,0 L40.5863354,0.958615698 C67.7953338,13.6728871 90.2086832,25.9330773 104.444189,37.5878261 C166.2164,88.1644965 193.398774,180.613534 199.867475,212.079162 L200.256209,214.023568 C201.09037,218.318679 202.124521,225.113435 203.301271,233.856264 L197.255144,232.814156 C156.582571,225.894758 128.950217,223.102479 106.138133,224.001969 L82.8385278,209.735024 C40.0310497,183.499226 13.5287785,112.05713 13.5287785,78.7073942 C13.5287785,56.6639631 21.3929922,32.3004121 35.4692242,5.20391357 L38.2137511,0 L38.5166342,0 Z" id="bp-shoulder-right-back" fill="#FFFFFF"></path>
                </g>
                <g id="bp-back" stroke-width="1" fill="none" transform="translate(541.7312, 193.7464)">
                    <path d="M563.486846,181.034497 L589.377701,848.751736 L429.23302,848.751736 L455.05167,181.034497 C471.120886,190.035304 489.261452,197.292571 509.268768,201.556519 C529.276083,197.292571 547.417052,190.035304 563.486846,181.034497 Z" id="bp-thoracic-vertebral-spine" fill="#FFFFFF"></path>
                    <path d="M62.5385622,154.176285 L61.4089737,151.866671 L75.2831336,155.248548 C222.682277,191.53387 301.060897,222.486978 306.697843,244.611441 C320.467298,298.787026 324.179397,445.417009 306.773623,502.082128 L305.919059,504.832604 C281.18898,583.590633 236.513918,654.556779 186.634149,680.951737 L185.633517,681.466288 L172.60591,663.507023 C74.5730629,528.064559 17.3947197,441.910272 1.65843399,406.10242 L0.710660728,403.88612 C0.521965792,403.431497 0.281905248,403.013767 0,402.636867 C51.956345,367.053631 84.8790645,280.059063 84.8790645,238.493495 C84.8790645,213.154647 77.4204124,185.025287 62.5385622,154.176285 Z" id="bp-scapula-left" fill="#FFFFFF"></path>
                    <path d="M933.663544,238.493495 C933.663544,280.057831 966.584311,367.048472 1018.5408,402.646032 C1018.25563,403.013767 1018.01557,403.431497 1017.82687,403.88612 L1017.36226,404.988383 C1001.87266,441.199258 941.370961,532.097622 836.522098,676.485836 L832.900481,681.466288 L831.903387,680.951737 C781.44362,654.24986 736.310292,581.934192 711.763558,502.080972 C694.358138,445.417009 698.070237,298.787026 711.840522,244.608182 C717.651015,221.802567 800.773165,189.610731 957.129022,151.866559 C941.497809,183.624384 933.663544,212.52446 933.663544,238.493495 Z" id="bp-scapula-right" fill="#FFFFFF"></path>
                    <path d="M575.037903,181.027307 L699.581443,246.212655 C686.215995,305.345615 683.088161,448.060709 700.723574,505.473424 C723.526242,579.653002 763.490661,647.52393 810.446843,681.167771 L800.27552,680.343035 C760.381493,677.037438 729.979165,673.651535 708.942911,670.169139 L703.293818,669.193582 C678.665298,664.771013 645.362456,656.693709 603.568369,644.986098 L593.234869,642.066715 C593.128194,642.03633 593.021364,642.009153 592.914484,641.985127 L575.037903,181.027307 Z" id="bp-interscapular-region-right" fill="#FFFFFF"></path>
                    <path d="M443.494281,181.027307 L425.671169,641.978221 L425.302667,642.066715 L411.264106,646.020663 C371.230475,657.162986 339.184698,664.891724 315.293652,669.184612 L311.325968,669.878716 L306.00184,670.748646 C283.311294,674.316785 250.720109,677.783675 208.096457,681.163538 C255.046868,647.52395 295.011247,579.653155 317.813606,505.47458 C335.44982,448.059259 332.321379,305.33826 318.955826,246.2111 L443.494281,181.027307 Z" id="bp-interscapular-region-left" fill="#FFFFFF"></path>
                    <path d="M662.280287,0 C683.986909,23.259044 725.179011,45.4585655 775.760488,66.5985643 L804.301082,78.4465018 L830.511962,89.2476538 L858.373329,100.649317 C866.023092,103.769705 873.848906,106.953999 881.850773,110.20208 L922.085333,126.473095 L956.239421,140.197151 L947.186747,142.386438 C800.680262,178.028829 720.492064,208.008825 703.51755,235.243545 L580.104158,170.640774 C611.927609,148.544627 633.480782,120.265938 642.618126,98.8960139 L644.630756,94.1484698 L646.405979,89.8734482 C658.495528,60.4055198 663.52055,40.0805662 662.280287,0 Z" id="bp-suprascapular-region-right" fill="#FFFFFF"></path>
                    <path d="M356.262322,0 C354.899617,44.0374165 361.100307,64.2260363 375.924483,98.8960139 C385.061827,120.265938 406.613073,148.544627 438.435044,170.640774 L315.017778,235.241552 C297.69006,207.450003 214.551224,176.802612 62.3027387,140.198263 L96.4572758,126.473095 L136.691836,110.20208 L165.873592,98.3210104 C182.8875,91.3720485 199.010145,84.7467611 214.241527,78.4465018 L242.782121,66.5985643 C293.363598,45.4585655 334.5557,23.259044 356.262322,0 Z" id="bp-suprascapular-region-left" fill="#FFFFFF"></path>
                </g>
                <g id="bp-upper-limb-left-back" stroke-width="1" fill="none" transform="translate(0, 353.5325)">
                    <path d="M559.52169,0 L559.824573,0 L561.187547,2.57312635 C576.12978,30.7261558 584.509546,55.9528847 584.509546,78.7073942 C584.509546,112.05713 558.007275,183.499226 515.199797,209.735024 L491.900177,224.001968 C467.975311,223.058603 438.748435,226.175962 394.739007,233.85799 L395.647715,227.28873 C396.305054,222.689393 396.906064,218.844768 397.437925,215.873623 L397.782115,214.023568 C403.486413,184.609202 430.49349,89.2521668 493.594136,37.5878261 C507.829641,25.9330773 530.242991,13.6728871 557.451989,0.958615698 L559.52169,0 Z" id="bp-shoulder-left-back" fill="#FFFFFF"></path>
                </g>
                <path d="M1051.00255,0 C1111.56938,0 1140.20671,16.1973457 1172.15071,45.0600347 C1169.3238,54.5452848 1166.90073,65.4936851 1165.48728,77.9556892 L1165.33298,79.4531409 C1164.82375,84.9064134 1164.3641,94.9127294 1163.91228,107.533424 L1162.11706,165.137391 L1161.43422,186.095655 C1160.33075,218.018776 1158.96806,236.922839 1157.00655,247.22704 C1149.06269,279.507191 1111.56904,335.448917 1051.00252,350.505268 C990.428424,335.448917 952.934775,279.507191 944.990915,247.22704 C943.029412,236.922839 941.666721,218.018776 940.563252,186.095655 L939.880411,165.137391 L938.085192,107.533424 L937.606109,95.3255991 C937.259297,87.4107417 936.899864,81.348147 936.510188,77.9556892 C935.096734,65.4936851 932.673669,54.5452848 929.84676,45.0600347 C961.790762,16.1973457 990.435722,0 1051.00255,0 Z" id="bp-neck-back" fill="#FFFFFF"></path>
            </g>
        </g>
        <g id="viewport-boundary" mask="url(#mask-2)" stroke="#FF0000" stroke-width="3">
            <g transform="translate(260, 190)" id="boundary">
                <rect x="0" y="0" width="560" height="1080"></rect>
            </g>
        </g>
    </g>
</svg>