<?xml version="1.0" encoding="UTF-8"?>
<svg width="1080px" height="1460px" viewBox="0 0 1080 1460" version="1.1" xmlns="http://www.w3.org/2000/svg" xmlns:xlink="http://www.w3.org/1999/xlink">
    <title>hand-right-palmar</title>
    <defs>
        <rect id="path-1" x="0" y="0" width="1080" height="1460"></rect>
    </defs>
    <g id="hand-right-palmar" stroke="none" stroke-width="1" fill="none" fill-rule="evenodd">
        <mask id="mask-2" fill="white">
            <use xlink:href="#path-1"></use>
        </mask>
        <g id="mask"></g>
        <g id="bp-hand-right-palmar" mask="url(#mask-2)">
            <g transform="translate(532.0509, 730) scale(-1, 1) translate(-532.0509, -730)translate(273, 368)">
                <g id="bp-index-finger-right-palmar" stroke-width="1" fill="none" fill-rule="evenodd" transform="translate(277.1453, 411.9773)">
                    <path d="M142.455554,185.794123 L142.993679,185.702077 L146.240951,194.265558 C150.987042,206.843902 154.427315,216.276473 155.135858,218.938929 C160.644515,239.251262 155.800696,251.59053 140.604401,255.67198 C125.218152,259.848347 116.100375,250.926108 99.0995202,214.572727 L96.506631,209.31061 C95.9733999,208.220909 95.3873194,207.020783 94.7566394,205.727546 C101.004917,201.350397 108.406939,197.338983 116.968949,193.702404 C126.09303,189.840505 134.595537,187.204717 142.455554,185.794123 Z" id="bp-distal-phalanx-index-finger-right-palmar" fill="#FFFFFF" fill-rule="nonzero"></path>
                    <path d="M130.15013,153.461898 L130.553529,153.398399 L134.328963,163.138201 C137.014951,170.084852 139.645644,176.926968 142.085971,183.321236 C134.009237,184.763271 125.305384,187.459168 115.99305,191.400749 C107.426311,195.039335 99.9789881,199.05776 93.647666,203.452107 L79.629986,174.611923 C86.155448,169.857794 94.0083314,165.52318 103.197307,161.620308 C112.891643,157.51704 121.88428,154.797937 130.15013,153.461898 Z" id="bp-distal-interphalangeal-joint-index-finger-right-palmar" fill="#FFFFFF" fill-rule="nonzero"></path>
                    <path d="M104.532859,90.1203832 L105.118343,90.0399593 L109.072089,99.0581987 L109.64195,100.48196 L111.295972,104.551286 C115.638507,115.299654 122.553958,132.834081 129.626884,151.015066 C121.182993,152.391481 112.040451,155.1626 102.221407,159.318653 C93.0351584,163.220366 85.1360816,167.558842 78.5199673,172.329249 L73.2549211,161.523234 C72.2910878,159.549076 71.3713057,157.668106 70.5114901,155.913747 L69.6566985,154.205233 L60.9741847,136.400993 C57.1389965,128.54707 53.2479562,120.58647 49.8249851,113.572687 C56.8519502,107.995689 65.6160155,102.965393 76.1289065,98.5002084 C86.3934972,94.155572 95.8714091,91.3627324 104.532859,90.1203832 Z" id="bp-middle-phalanx-index-finger-right-palmar" fill="#FFFFFF" fill-rule="nonzero"></path>
                    <path d="M89.0629912,53.8590528 L89.3151301,53.828823 L91.8994997,59.8067873 C96.4478867,70.302168 100.712011,80.0130775 104.073082,87.6614777 C95.2102543,88.94354 85.5617286,91.7929103 75.1530066,96.1985531 C64.6582439,100.656037 55.8434662,105.683573 48.7023969,111.273955 L43.6330432,100.86163 L42.4933211,98.488694 C38.8994183,91.1009808 35.4673151,84.3061615 32.1914807,78.0876543 C39.3384173,72.2777335 48.3444132,67.0520997 59.2230282,62.43158 C70.057874,57.8455748 80.0162041,54.988578 89.0629912,53.8590528 Z" id="bp-proximal-interphalangeal-joint-index-finger-right-palmar" fill="#FFFFFF" fill-rule="nonzero"></path>
                    <path d="M67.3270958,0 L67.4549321,0.00195795437 L68.3010383,2.3012113 C72.1044418,12.5880062 75.8438348,22.0489707 79.1543829,29.9583 C79.8439148,31.6041685 80.5399431,33.2589212 81.2403138,34.9181093 L82.6462066,38.2410809 L84.7683806,43.2304132 C85.941902,45.9812178 87.1174849,48.7238561 88.2853559,51.4381422 C79.1169725,52.6373077 69.0948899,55.5384521 58.2471283,60.1299247 C47.3581924,64.7548274 38.2778086,69.9934072 30.9989662,75.837617 L30.0192686,74.0070091 C23.6823171,62.2229111 17.9507636,52.6762588 12.7821384,45.238483 L8.6547507,39.3191073 C5.30211496,34.5282782 2.61694416,30.8591943 0,28.4284485 C8.46595517,20.1692909 18.8428651,12.8294029 30.169233,7.75363322 C41.6137816,2.62490237 55.0753358,0.0629888112 67.3270958,0 Z" id="bp-proximal-phalanx-index-finger-right-palmar" fill="#FFFFFF" fill-rule="nonzero"></path>
                </g>
                <g id="bp-middle-finger-right-palmar" stroke-width="1" fill="none" fill-rule="evenodd" transform="translate(193.401, 443.3113)">
                    <path d="M58.9333706,210.869045 C68.0890851,209.924209 76.3979127,209.822702 83.8560631,210.564296 L88.151936,247.307973 L88.151936,248.352065 C89.1966813,258.413314 84.8277464,278.915482 68.3967524,280.623996 L68.3017755,280.529078 C52.2506889,282.142675 45.7922635,271.132251 42.5630508,264.962618 L42.3730971,264.582948 C40.5954708,261.245254 39.0317063,253.724595 37.7857707,245.969246 L37.5917004,244.743342 L37.3608767,243.238571 C36.6051403,238.228639 35.9870963,233.313897 35.5347643,229.558411 L35.2498338,226.900723 L34.7900902,223.090275 C34.5121782,220.799823 34.2175988,218.393544 33.908228,215.88525 C41.1854418,213.517207 49.5127257,211.848615 58.9333706,210.869045 Z" id="bp-distal-phalanx-middle-finger-right-palmar" fill="#FFFFFF" fill-rule="nonzero"></path>
                    <path d="M53.2568784,174.038578 C62.9351651,172.829551 71.6785031,172.616865 79.5093904,173.392991 L83.5585244,208.025585 C76.0627786,207.322478 67.7673502,207.444135 58.6757772,208.382351 C49.2879403,209.358509 40.9410826,211.011875 33.5955812,213.35933 L31.725115,198.420343 C30.9515773,192.298122 30.1293897,185.849165 29.2766588,179.206414 C36.3074373,176.854868 44.3010348,175.13134 53.2568784,174.038578 Z" id="bp-distal-interphalangeal-joint-middle-finger-right-palmar" fill="#FFFFFF" fill-rule="nonzero"></path>
                    <path d="M49.6477584,117.183029 C58.074546,116.130342 65.7925481,115.832981 72.8166147,116.285978 L79.2127353,170.85397 C71.3249709,170.119705 62.5775102,170.354801 52.9505325,171.557421 C44.0376109,172.644943 36.0376013,174.351339 28.9516233,176.679504 L26.9083095,160.859251 L25.0811553,146.82328 C24.0616512,139.0169 23.0393676,131.229573 22.0400396,123.650791 C29.9118018,120.626144 39.1142121,118.468297 49.6477584,117.183029 Z" id="bp-middle-phalanx-middle-finger-right-palmar" fill="#FFFFFF" fill-rule="nonzero"></path>
                    <path d="M42.9044024,78.8363822 C52.2298332,77.6714352 60.6872464,77.4315021 68.2967675,78.1098493 L69.0808801,84.999804 C69.7375296,90.6891311 70.4809193,96.9496084 71.3216854,103.87777 L72.3857798,112.620121 L72.5200735,113.76284 C65.4538993,113.340525 57.7316868,113.653744 49.3414124,114.701872 C38.8672924,115.979886 29.6539074,118.112568 21.7030746,121.104614 L18.8271538,99.4052457 C18.1402331,94.2472537 17.4822105,89.3248628 16.8640063,84.7178664 C24.382485,81.999927 33.062398,80.0372708 42.9044024,78.8363822 Z" id="bp-proximal-interphalangeal-joint-middle-finger-right-palmar" fill="#FFFFFF" fill-rule="nonzero"></path>
                    <path d="M32.4833912,0.380558121 C43.5258758,-0.554847872 54.970518,0.260277696 65.3342215,2.53811008 C64.4641866,6.38507437 64.3318404,11.5954295 64.3149679,18.4456595 L64.3127481,25.1062386 L64.3393173,27.7336978 C64.5020877,38.9408801 65.3336436,51.3395198 68.0141289,75.5745106 C60.3488246,74.9354662 51.8824584,75.195401 42.5980565,76.3552254 C32.8037227,77.5502942 24.1117873,79.4926924 16.5237359,82.18626 L13.7851034,61.9786264 C13.1053233,57.0236897 12.583653,53.2908077 12.2654375,51.113618 L12.0531083,49.7081468 C9.33619716,32.23081 4.3034176,18.2093152 1.34310038,12.2923837 L0.879516472,11.3762541 C0.576695974,10.7857612 0.285405506,10.2355581 0,9.72426104 C7.51885162,4.9523547 19.9522702,1.44206612 32.4833912,0.380558121 Z" id="bp-proximal-phalanx-middle-finger-right-palmar" fill="#FFFFFF" fill-rule="nonzero"></path>
                </g>
                <g id="bp-ring-finger-right-palmar" stroke-width="1" fill="none" fill-rule="evenodd" transform="translate(110.6318, 422.0597)">
                    <path d="M5.31913104,209.072442 C12.1837769,208.191609 19.7757452,207.965735 28.106353,208.396359 C36.4768682,208.848538 44.0394986,209.886574 50.811729,211.510886 L50.5854168,217.683862 L50.5854168,218.633036 L50.4281945,223.111028 C49.425987,250.365836 48.2394888,256.984429 43.3671767,264.288327 C34.7242838,277.386934 15.3490076,276.437759 9.36546644,262.959482 C8.43770821,260.894404 7.34143091,255.44234 6.48401203,249.74395 L6.27486927,248.316039 C5.32250565,241.632927 4.74285927,234.970851 5.18648529,233.34524 L5.19035755,233.27687 C5.21390287,232.31645 4.92008284,222.20717 4.58760622,209.169631 L5.31913104,209.072442 Z" id="bp-distal-phalanx-ring-finger-right-palmar" fill="#FFFFFF" fill-rule="nonzero"></path>
                    <path d="M4.47045989,176.152776 C11.7279316,175.102487 19.8235011,174.807649 28.7711909,175.270171 C37.433056,175.738089 45.229818,176.833357 52.1808515,178.55644 L51.4619945,195.324401 C51.2477626,200.45753 51.0612196,205.069563 50.9092703,208.965781 C44.1062619,207.369089 36.5540913,206.349066 28.2383086,205.899846 C19.5736544,205.451952 11.6729472,205.702495 4.52354897,206.655273 L4.3279391,198.627073 C4.28910039,196.982331 4.25068784,195.31959 4.21316259,193.648677 L4.11799579,189.297614 L4.06352164,186.685218 C3.9912561,183.149014 3.92565924,179.636927 3.87086678,176.241263 L4.47045989,176.152776 Z" id="bp-distal-interphalangeal-joint-ring-finger-right-palmar" fill="#FFFFFF" fill-rule="nonzero"></path>
                    <path d="M3.6096167,112.452133 C10.6726536,111.488367 18.5174358,111.228911 27.1565846,111.675484 C37.7872528,112.249758 47.1148559,113.76898 55.17521,116.234011 L54.9220339,121.010806 C53.9930571,138.733494 53.0617534,158.602198 52.292422,176.012653 C45.3036901,174.315676 37.5126745,173.238747 28.9031465,172.773658 C19.6865539,172.297234 11.334335,172.61106 3.83127961,173.71971 L3.77389144,169.380153 C3.7697054,169.026772 3.76568233,168.675612 3.76183263,168.326791 L3.76183263,166.808112 L3.63816619,154.511491 C3.57612339,147.623498 3.5206303,140.293175 3.47307642,132.930169 L3.39347931,119.171284 C3.3819426,116.917297 3.37125882,114.684964 3.36146983,112.486627 L3.6096167,112.452133 Z" id="bp-middle-phalanx-ring-finger-right-palmar" fill="#FFFFFF" fill-rule="nonzero"></path>
                    <path d="M3.26615149,75.3597971 L3.33073776,75.3504509 C10.5882095,74.3001622 18.683779,74.0053246 27.6314688,74.4678467 C39.0735582,75.0859534 49.0060692,76.7987665 57.4736613,79.6073603 L57.2899627,81.8906039 C56.6929696,89.575512 56.0105182,100.825641 55.313382,113.663822 C47.1824476,111.241189 37.8515366,109.749587 27.2885401,109.178971 C18.5334602,108.726403 10.5583558,108.986925 3.35018908,109.964458 L3.30012782,94.6354551 C3.29146914,90.7836528 3.28694841,87.2176074 3.28694841,84.0401019 L3.28626837,81.4530936 L3.27963225,78.3787598 C3.27626401,77.3631919 3.27175498,76.3568525 3.26615149,75.3597971 Z" id="bp-proximal-interphalangeal-joint-ring-finger-right-palmar" fill="#FFFFFF" fill-rule="nonzero"></path>
                    <path d="M0.244640573,1.39922769 C10.973917,-0.91901582 27.6752133,-0.464463809 38.0567652,3.57442047 C48.0718933,7.47074959 61.1077188,19.7155021 67.8053085,29.3912612 C67.1132274,30.5284481 66.6012926,31.7642043 66.1616193,32.8796 L65.5917582,34.3982791 C62.2675687,42.8459315 59.8931475,57.3683003 57.803657,75.9721192 L57.699536,77.0454939 C49.1297422,74.2759581 39.1642242,72.5872073 27.7634244,71.9713332 C18.7741853,71.5066616 10.6072014,71.7937333 3.24836054,72.8367926 L3.22849719,70.4899752 C2.87145776,32.4546859 0.936013534,8.949411 0.247689394,3.36027515 L0.247689394,3.17044026 C0.172496493,2.56927327 0.0907924978,1.9969231 0,1.45292978 L0.244640573,1.39922769 Z" id="bp-proximal-phalanx-ring-finger-right-palmar" fill="#FFFFFF" fill-rule="nonzero"></path>
                </g>
                <g id="bp-little-finger-right-palmar" stroke-width="1" fill="none" fill-rule="evenodd" transform="translate(0, 388.0755)">
                    <path d="M6.08840496,165.96149 C11.9868351,166.545771 18.2902111,167.67641 25.0023798,169.353403 C32.9252476,171.34394 39.9818582,173.720326 46.1885488,176.49222 L43.9081361,183.65747 C41.7896066,190.279565 40.2098419,195.111818 39.6468744,196.71083 L39.6468744,196.995583 C35.6578469,208.195841 29.3893752,218.541842 24.640533,221.294448 C15.6177328,226.609825 3.46069673,221.104613 0.611391407,210.568777 C-1.13287898,204.031854 0.970673189,189.272619 5.44983755,168.838914 L6.08840496,165.96149 Z" id="bp-distal-phalanx-little-finger-right-palmar" fill="#FFFFFF" fill-rule="nonzero"></path>
                    <path d="M12.2202287,140.363881 C17.7735285,140.977362 23.6794698,142.066328 29.9411757,143.630776 C39.0320479,145.914762 46.9824257,148.706747 53.8169893,152.021324 L52.2806096,157.012469 C50.4502868,162.93818 48.6233733,168.778408 46.9453097,174.094478 C40.6619054,171.307957 33.5545839,168.92436 25.6099544,166.928356 C18.9017435,165.252352 12.5810035,164.110196 6.64331187,163.5047 L7.25058881,160.861488 C8.5903069,155.076141 10.084289,148.913731 11.7048461,142.42235 L12.2202287,140.363881 Z" id="bp-distal-interphalangeal-joint-little-finger-right-palmar" fill="#FFFFFF" fill-rule="nonzero"></path>
                    <path d="M23.8173316,95.2177245 C29.5331243,95.8187593 35.6256012,96.9278495 42.0982118,98.5449901 C51.6645635,100.948435 59.9679984,103.91441 67.0372754,107.459916 L66.2739511,109.995613 C64.736855,115.118733 63.1370305,120.553151 61.4737113,126.315783 L60.6367569,129.224528 C58.8688039,135.347985 56.7550182,142.403372 54.5568062,149.602239 C47.6362363,146.281934 39.6408115,143.490013 30.5487503,141.205729 C24.3107228,139.647197 18.4077534,138.5503 12.836286,137.9173 L13.6952487,134.529873 C15.2884018,128.270466 16.9813488,121.743232 18.7519686,114.986912 L20.6495163,107.626755 C21.2311286,105.363158 21.8311003,103.020155 22.4460149,100.609891 L23.8173316,95.2177245 Z" id="bp-middle-phalanx-little-finger-right-palmar" fill="#FFFFFF" fill-rule="nonzero"></path>
                    <path d="M30.8781101,66.9816635 C36.721648,67.5712927 42.9614975,68.6955764 49.6013825,70.3545095 C59.7041228,72.8927168 68.3983517,76.058304 75.7179415,79.871298 L74.397945,83.9070909 C72.3452079,90.229852 70.1373078,97.2485747 67.7721844,105.03121 C60.6125384,101.484582 52.2653132,98.5216736 42.7057864,96.1199436 C36.2601752,94.5095482 30.1722927,93.3920227 24.4382159,92.7698626 L26.2274164,85.6771189 C27.5867664,80.268792 28.9809585,74.6764805 30.3801634,69.0064676 L30.8781101,66.9816635 Z" id="bp-proximal-interphalangeal-joint-little-finger-right-palmar" fill="#FFFFFF" fill-rule="nonzero"></path>
                    <path d="M46.2837858,0.249285249 L46.6800529,0.220842791 C69.2898298,-1.39862383 83.0376444,5.95707542 92.1050146,20.0365061 C92.7645321,21.060577 93.3409712,22 93.8851108,22.9508191 L94.1790162,23.4711595 C95.0724015,25.0739288 95.9012412,26.7574905 96.9032182,28.971482 C94.9318636,30.5962106 93.6317982,33.1291682 92.3590229,35.8257642 L92.1690692,36.1105165 L91.4405722,37.6932437 C88.3401965,44.5380501 83.3952724,56.7906558 76.5143487,77.4670595 C69.0837397,73.6410733 60.3251487,70.4710491 50.2089571,67.929463 C43.5908526,66.2759712 37.3498795,65.142082 31.4817915,64.5304968 L32.7070655,59.5219341 C37.9051323,38.2036601 42.9437742,16.6219559 46.2837858,0.249285249 Z" id="bp-proximal-phalanx-little-finger-right-palmar" fill="#FFFFFF" fill-rule="nonzero"></path>
                </g>
                <g id="bp-thumb-right-palmar" stroke-width="1" fill="none" fill-rule="evenodd" transform="translate(333.2914, 208.7583)">
                    <path d="M144.472268,98.8174707 L144.69725,98.6110627 L145.389178,99.2863099 C149.244616,103.00411 154.580501,107.434952 163.289089,114.340705 L164.333834,115.194962 L170.351831,119.979656 C184.789054,131.494119 185.250584,132.307628 184.658879,135.602212 L184.658879,135.792047 C181.429666,149.744911 166.613278,156.009463 146.09828,152.212765 C136.045512,150.244475 125.31914,146.185774 114.547131,140.85557 C117.977728,132.355076 123.349546,123.410596 130.652192,114.066328 C135.241624,108.192309 139.843734,103.114316 144.472268,98.8174707 Z" id="bp-distal-phalanx-thumb-right-palmar" fill="#FFFFFF" fill-rule="nonzero"></path>
                    <path d="M120.393241,68.4666168 C125.825809,74.1768919 130.79818,80.485408 136.315665,88.4282431 C137.77261,90.5505971 139.113987,92.3842123 140.608555,94.1793289 L140.956297,94.5930171 C141.584436,95.333145 142.242278,96.0699844 142.948799,96.821205 C138.157026,101.248592 133.407018,106.479831 128.682284,112.527021 C121.300206,121.97293 115.834325,131.051599 112.306304,139.728361 C101.686893,134.305937 91.0659625,127.703504 81.0440152,120.705125 C84.3385103,111.175108 90.1473371,101.062199 98.4550416,90.4318843 C105.530417,81.3761061 112.635923,74.2122682 119.821927,68.885864 L120.393241,68.4666168 Z" id="bp-interphalangeal-joint-thumb-right-palmar" fill="#FFFFFF" fill-rule="nonzero"></path>
                    <path d="M56.3400338,0.462433369 L57.0785124,0 L64.3029829,8.23477311 C81.6998164,27.9975398 106.391598,55.5914511 112.761408,61.0920194 C114.810377,62.9171325 116.754897,64.7579032 118.634155,66.6547194 C111.149582,72.1497435 103.787174,79.546692 96.4851342,88.8925777 C88.2142417,99.475789 82.3487516,109.598005 78.9191298,119.210466 C77.0051357,117.850669 75.1140139,116.478873 73.2510405,115.100045 L72.0163415,114.15087 C39.6805303,90.4088058 14.3640269,78.773132 5.68434189e-14,79.1128249 C5.13886604,61.3004779 12.3924684,44.3929928 21.1754308,33.1324236 C31.884227,19.4027575 44.427703,7.96396124 56.3400338,0.462433369 L56.3400338,0.462433369 Z" id="bp-proximal-phalanx-thumb-right-palmar" fill="#FFFFFF" fill-rule="nonzero"></path>
                </g>
                <path d="M238.816038,92.8234053 C239.009564,93.0940548 239.198722,93.3493493 239.383178,93.588599 C244.701881,100.327737 263.792227,113.331427 300.928173,135.731944 L303.25838,137.150823 C340.736232,160.100908 368.759402,183.533255 379.52644,196.186148 L381.049611,198.003619 C381.722056,198.794526 382.626325,199.847617 383.726676,201.12114 C370.965722,209.274237 357.804656,221.351627 346.581695,235.7405 C335.185607,250.351337 326.503512,272.561095 321.065559,294.954527 C313.290315,312.016599 326.611613,360.972296 341.038928,402.052038 C328.40601,402.532039 314.953616,405.349359 303.225016,410.605384 C289.143732,416.915735 276.491622,426.33655 266.63929,436.838941 L266.140003,437.375716 C253.4685,433.915854 238.987377,432.546133 225.040277,433.727589 C210.29505,434.976653 195.749827,439.157363 186.544679,445.598367 C178.724249,434.36549 164.325945,420.98763 152.314305,416.314569 C139.36451,411.276524 119.336504,410.895289 106.59065,414.212038 L105.897093,412.663873 C104.854737,410.36787 103.966372,408.565151 103.00245,406.827742 L102.678516,406.251294 C102.023815,405.100885 101.324344,403.958382 100.512367,402.697579 C89.8260491,386.104314 73.3162605,376.996195 48.2520669,378.187803 L48.6271245,376.084114 C49.0248335,373.807062 49.3583219,371.734087 49.619443,369.893276 C52.4402553,349.314225 45.9523871,246.12579 46.651751,218.184457 L46.7139919,216.191573 C47.3745395,196.930265 49.593275,160.546219 48.7729277,131.191917 C98.164192,131.164002 141.825648,125.259504 179.797368,113.455077 C199.561305,107.348677 218.743198,100.662996 237.353538,93.3967579 L238.816038,92.8234053 Z" id="bp-palm-right" fill="#FFFFFF" fill-rule="nonzero"></path>
                <path d="M210.225287,0 C211.076279,5.50141501 212.269796,12.0595269 213.58692,18.7617068 L213.870973,20.1997608 C214.156758,21.6393546 214.447501,23.0825706 214.741048,24.5204286 L215.683859,29.0757257 C218.500812,42.5058445 221.364025,54.5961129 222.436921,57.6901728 L222.477299,57.8047229 C225.813408,67.2612211 229.963014,76.8725743 233.689126,84.0921729 C215.312699,91.2662417 196.365813,97.8695581 176.837076,103.903292 C139.765961,115.427738 96.9511779,121.197374 48.3523126,121.193376 L48.24441,119.445419 C47.7550897,111.932097 46.9805453,105.227111 45.8203692,99.8531503 L45.7321175,99.482443 C44.1535636,93.049354 35.9180835,68.2076747 30.0542131,43.0925192 L31.7991786,42.5859646 C62.2472603,33.8589503 186.769805,3.2556683 210.225287,0 Z" id="bp-wrist-right-palmar" fill="#FFFFFF" fill-rule="nonzero"></path>
            </g>
        </g>
        <g id="decoration" opacity="0.15" mask="url(#mask-2)" fill="#FFFFFF">
            <g transform="translate(585.0109, -398.8375)" id="bp-forearm-right-front">
                <path d="M130.0297,21.7810526 L138.049894,0 L149.463878,2.10035348 C207.706164,12.9826992 254.630719,24.3369898 290.084218,36.1117753 C328.519875,48.8769928 380.53944,71.1812343 446.113448,103.017764 C444.909421,112.511592 443.727601,121.220729 442.435411,129.785019 L441.353154,136.757509 L440.205055,143.742679 L438.985714,150.753775 C435.048975,172.780929 429.696227,197.176317 420.711182,234.102133 L419.734498,238.106882 C411.532099,271.644298 385.214747,342.672616 357.109868,413.854913 L351.341389,428.405242 L340.022073,456.633166 C310.685498,529.267659 197.697478,730.162733 186.68513,771.947622 L184.441059,780.387925 C183.378556,784.316755 182.229243,788.482326 180.993275,792.884479 C139.119008,781.761788 108.431162,773.794157 88.9297372,768.981586 C70.5081222,764.435491 30.0188447,755.827961 0,749.095172 L1.75761882,741.199809 C3.93426516,731.202421 6.23089443,719.856295 8.82001463,706.341179 L10.2623062,698.749261 C16.1950885,667.273263 23.335689,611.618487 30.0188447,554.530971 L31.9602819,537.802641 L37.2928324,490.576337 C43.1777359,437.592166 48.0531407,391.251733 50.4249856,371.962612 L50.8107115,368.960748 C57.7623761,316.829152 96.3529529,114.602277 124.920278,35.8103851 L130.0297,21.7810526 Z"></path>
            </g>
        </g>
        <g id="viewport-boundary" mask="url(#mask-2)" stroke="#FF0000" stroke-width="3">
            <g transform="translate(260, 190)" id="boundary">
                <rect x="0" y="0" width="560" height="1080"></rect>
            </g>
        </g>
    </g>
</svg>