<?xml version="1.0" encoding="UTF-8"?>
<svg width="1080px" height="1460px" viewBox="0 0 1080 1460" version="1.1" xmlns="http://www.w3.org/2000/svg" xmlns:xlink="http://www.w3.org/1999/xlink">
    <title>little-finger-right-palmar</title>
    <defs>
        <rect id="path-1" x="0" y="0" width="1080" height="1460"></rect>
    </defs>
    <g id="little-finger-right-palmar" stroke="none" stroke-width="1" fill="none" fill-rule="evenodd">
        <mask id="mask-2" fill="white">
            <use xlink:href="#path-1"></use>
        </mask>
        <g id="mask"></g>
        <g id="bp-little-finger-right-palmar" mask="url(#mask-2)" fill="#FFFFFF" fill-rule="nonzero">
            <g transform="translate(539.7198, 729.1757) scale(-1, 1) translate(-539.7198, -729.1757)translate(394.3888, 394.1168)">
                <path class="hover" d="M17.7623766,500.191338 C35.5830726,501.90717 54.6662148,505.30723 75.023253,510.394368 C98.5417293,516.304372 119.484712,523.348464 137.90154,531.550767 L131.286183,552.334641 C125.141448,571.533516 120.572631,585.504692 118.921118,590.19681 L118.921118,591.05116 C106.955998,624.655597 88.153667,655.696984 73.9094767,663.955702 C46.845515,679.90357 10.3803877,663.386135 1.83387344,631.775182 C-3.39807961,612.162275 2.91154203,567.879743 16.3468315,506.571948 L17.7623766,500.191338 Z" id="bp-distal-phalanx-little-finger-right-palmar"></path>
                <path class="hover" d="M36.0920287,423.382117 C52.9005446,425.191718 70.8122698,428.4724 89.8365494,433.226487 C116.869443,440.019636 140.499609,448.311135 160.801975,458.137618 L156.816108,471.088744 L153.412143,482.084315 C149.338247,495.211428 145.320169,508.044858 141.538411,520.040026 C122.753169,511.771342 101.566708,504.691442 77.9401836,498.754289 C57.603861,493.672325 38.4365832,490.215813 20.4240598,488.395848 L21.7481994,482.637063 L22.7214799,478.449511 C26.4861182,462.314532 30.6367757,445.231782 35.10878,427.313617 L36.0920287,423.382117 Z" id="bp-distal-interphalangeal-joint-little-finger-right-palmar"></path>
                <path class="hover" d="M70.8645184,287.947289 C88.1613133,289.715506 106.636384,293.055263 126.300048,297.96913 C154.765881,305.122365 179.458687,313.937007 200.465952,324.455831 L198.789249,330.022805 L196.366669,338.127491 C192.503848,351.09494 188.512354,364.705789 184.390891,378.98865 L181.88044,387.715838 L180.505064,392.463768 C175.693414,409.016802 170.131763,427.574878 164.352685,446.531212 C143.643585,436.675214 119.796975,428.382217 92.75348,421.586407 C73.8453251,416.861337 55.9477826,413.541432 39.0493664,411.635611 L41.0790085,403.633606 L42.5979367,397.676419 C46.9293199,380.72281 51.4947436,363.135695 56.2466806,344.998333 L61.9383901,322.915455 L64.8952074,311.38189 C65.6963522,308.250778 66.5072503,305.076605 67.3270021,301.86257 L70.8645184,287.947289 Z" id="bp-middle-phalanx-little-finger-right-palmar"></path>
                <path class="hover" d="M92.0585494,203.244635 C109.731894,204.976051 128.643625,208.35948 148.804864,213.397688 C178.860346,220.950389 204.709631,230.355238 226.455697,241.662582 L223.157234,251.748708 L221.616969,256.507849 C216.106357,273.58301 210.231721,292.302795 203.988795,312.808 C182.552575,302.275219 157.651941,293.474525 129.216979,286.329051 C109.684984,281.448085 91.2313874,278.066536 73.8435294,276.194235 L78.6693463,257.059371 L81.3040362,246.554984 C84.5396566,233.631018 87.8279593,220.408453 91.1255442,207.041966 L92.0585494,203.244635 Z" id="bp-proximal-interphalangeal-joint-little-finger-right-palmar"></path>
                <path class="hover" d="M276.269731,60.1160696 C278.247959,63.1886173 279.976993,66.0071763 281.609144,68.8599615 L282.490716,70.4211528 C285.170432,75.2299848 287.656544,80.2812204 290.661982,86.9239189 C284.748888,91.7986358 280.849331,99.3983368 277.031631,107.489007 L276.461864,108.343357 L274.276731,113.092056 L273.148714,115.602378 C263.917091,136.301551 249.702572,171.906187 230.271393,230.127766 C207.998318,218.753411 181.84303,209.32683 151.721795,201.757609 C131.666794,196.745946 112.748717,193.315075 94.9538599,191.475636 L98.1051058,178.585264 L100.90544,167.067152 L102.763636,159.389434 L105.453515,148.223013 C118.35287,94.5194496 130.395715,42.0969961 138.828587,0.747937256 L140.017194,0.662600582 C207.835401,-4.1963288 249.072082,17.8731741 276.269731,60.1160696 Z" id="bp-proximal-phalanx-little-finger-right-palmar"></path>
            </g>
        </g>
        <g id="decoration" opacity="0.15" mask="url(#mask-2)">
            <g transform="translate(-137.0486, 315.8816) scale(-1, 1) translate(137.0486, -315.8816)translate(-869, -770.2367)">
                <g id="bp-middle-finger-right-palmar" stroke-width="1" fill="none" fill-rule="evenodd" transform="translate(489.9599, 1330.079)">
                    <path d="M176.771118,632.676083 C204.233758,629.841267 229.156153,629.536713 251.526935,631.761737 L264.41244,742.004782 L264.41244,745.137399 C267.546162,775.324436 254.441507,836.837643 205.156608,841.963743 L204.871724,841.67896 C156.726361,846.520277 137.354262,813.485407 127.668213,794.974488 L127.098445,793.835355 C121.766441,783.821181 117.075917,761.256747 113.338723,737.988163 L112.756607,734.310051 L112.06425,729.795246 C109.797412,714.763812 107.943585,700.017977 106.586811,688.750293 L105.73216,680.776359 L104.353155,669.343768 C103.519556,662.471664 102.635963,655.25204 101.708002,647.726339 C123.536064,640.621434 148.513819,635.615112 176.771118,632.676083 Z" id="bp-distal-phalanx-middle-finger-right-palmar" fill="#FFFFFF" fill-rule="nonzero"></path>
                    <path d="M159.744435,522.172639 C188.774533,518.545165 215.000246,517.907035 238.489055,520.235666 L250.634465,624.144773 C228.150916,622.035223 203.268711,622.400233 175.998465,625.215189 C147.839573,628.143983 122.803106,633.104619 100.770216,640.147752 L95.1597373,595.325908 C92.8395048,576.957241 90.3733466,557.608262 87.8155734,537.677836 C108.90445,530.622432 132.88131,525.451283 159.744435,522.172639 Z" id="bp-distal-interphalangeal-joint-middle-finger-right-palmar" fill="#FFFFFF" fill-rule="nonzero"></path>
                    <path d="M148.91885,351.587403 C174.195067,348.428998 197.345277,347.536818 218.414021,348.895956 L237.599236,512.617773 C213.939823,510.414739 187.701745,511.120105 158.825548,514.728357 C132.091168,517.991279 108.095075,523.111026 86.8406266,530.096281 L80.7116904,482.630351 L75.2311269,440.517848 C72.1731159,417.096153 69.1067682,393.731628 66.1092759,370.992803 C89.7206898,361.917875 117.323394,355.443628 148.91885,351.587403 Z" id="bp-middle-phalanx-middle-finger-right-palmar" fill="#FFFFFF" fill-rule="nonzero"></path>
                    <path d="M128.6921,236.534924 C156.663804,233.039702 182.031883,232.319824 204.856703,234.355088 L207.208655,255.027204 C209.17828,272.097046 211.408084,290.880525 213.929968,311.667274 L217.121728,337.897187 L217.524543,341.325716 C196.329497,340.058634 173.166658,340.998394 147.999963,344.143122 C116.582756,347.977581 88.9471336,354.376323 65.0985465,363.353439 L56.4721991,298.24824 C54.4117749,282.772577 52.4380308,268.003795 50.5837224,254.1813 C73.1354596,246.026593 99.1709284,240.137982 128.6921,236.534924 Z" id="bp-proximal-interphalangeal-joint-middle-finger-right-palmar" fill="#FFFFFF" fill-rule="nonzero"></path>
                    <path d="M97.434193,1.1417988 C130.556214,-1.66472503 164.88451,0.78091819 195.970522,7.61516014 C193.360846,19.1573108 192.963872,34.7900797 192.913263,55.3430098 L192.906605,75.3269247 L192.986299,83.2101614 C193.47453,116.835373 195.968789,154.035346 204.008926,226.748242 C181.016784,224.830901 155.621851,225.61079 127.773213,229.090642 C98.3950299,232.67624 72.3234997,238.504069 49.5630785,246.585653 L41.3485283,185.956144 C39.3095224,171.089714 37.7447681,159.889848 36.7902782,153.357567 L36.1533952,149.140693 C28.0039984,96.7029687 12.9081357,54.6338997 4.02864037,36.8811704 L2.63811672,34.132482 C1.72980421,32.3608102 0.856076108,30.7100211 0,29.1759627 C22.5528559,14.8586834 59.8469947,4.32666988 97.434193,1.1417988 Z" id="bp-proximal-phalanx-middle-finger-right-palmar" fill="#FFFFFF" fill-rule="nonzero"></path>
                </g>
                <g id="bp-ring-finger-right-palmar" stroke-width="1" fill="none" fill-rule="evenodd" transform="translate(241.6932, 1266.3171)">
                    <path d="M15.9547763,627.285687 C36.5453366,624.642901 59.3175068,623.965204 84.3052316,625.257217 C109.412659,626.613902 132.09683,629.728348 152.410189,634.601817 L151.731364,653.122762 L151.731364,655.970596 L151.259775,669.406034 C148.253645,751.179371 144.694734,771.037315 130.080195,792.951395 C104.155768,832.251499 46.0394717,829.403665 28.0917918,788.964427 C25.3089736,782.768517 22.020681,766.410542 19.4488462,749.31351 L18.8215208,745.029308 C15.9648984,724.97779 14.2262445,704.989383 15.5569043,700.112018 L15.5685192,699.906884 C15.6391435,697.025312 14.757828,666.694165 13.7605617,627.577286 L15.9547763,627.285687 Z" id="bp-distal-phalanx-ring-finger-right-palmar" fill="#FFFFFF" fill-rule="nonzero"></path>
                    <path d="M13.4091804,528.515924 C35.1780251,525.364714 59.4607508,524.480105 86.2994183,525.867823 C112.280752,527.271729 135.667202,530.55789 156.516883,535.727704 L154.360666,586.037068 C153.718076,601.438134 153.158538,615.27574 152.702765,626.965669 C132.297087,622.175071 109.644291,619.114669 84.7010335,617.76686 C58.7113336,616.423034 35.0130989,617.174742 13.5684215,620.033389 L12.9816881,595.946164 C12.8651911,591.011401 12.7499723,586.022633 12.637415,581.009349 L12.3519615,567.954737 L12.1885658,560.116694 C11.9718047,549.506926 11.7750464,538.969517 11.610696,528.781414 L13.4091804,528.515924 Z" id="bp-distal-interphalangeal-joint-ring-finger-right-palmar" fill="#FFFFFF" fill-rule="nonzero"></path>
                    <path d="M10.8270743,337.393168 C32.0127103,334.501554 55.5431974,333.723103 81.4563936,335.062968 C113.343168,336.785976 141.321389,341.344138 165.498486,348.74004 L164.739082,363.071984 C161.952608,416.245845 159.159156,475.858451 156.85154,528.09551 C135.888782,523.004023 112.519568,519.772885 86.6952201,518.377466 C59.0499767,516.948038 33.997429,517.889619 11.491954,521.215933 L11.3198177,508.195841 C11.3072616,507.135584 11.2951944,506.081989 11.2836472,505.035413 L11.2836472,500.478879 L10.9127087,463.584995 C10.7266108,442.918763 10.5601589,420.925397 10.4175206,398.833971 L10.1787684,357.552818 C10.144164,350.790121 10.1121179,344.092391 10.0827558,337.496661 L10.8270743,337.393168 Z" id="bp-middle-phalanx-ring-finger-right-palmar" fill="#FFFFFF" fill-rule="nonzero"></path>
                    <path d="M9.79684763,226.104032 L9.99057467,226.07599 C31.7594194,222.924781 56.0421451,222.040171 82.8808126,223.427889 C117.201452,225.282411 146.994098,230.421411 172.392709,238.84811 L171.841704,245.698588 C170.051018,268.755825 168.003999,302.509891 165.912934,341.028632 C141.524131,333.759941 113.535988,329.284645 81.8521954,327.572611 C55.5912627,326.214761 31.6698729,326.996412 10.0489191,329.929329 L9.89875991,283.937308 C9.87278813,272.380642 9.85922816,261.68134 9.85922816,252.147784 L9.85718839,244.385914 L9.8372833,235.161907 C9.82718021,232.114871 9.81365536,229.095524 9.79684763,226.104032 Z" id="bp-proximal-interphalangeal-joint-ring-finger-right-palmar" fill="#FFFFFF" fill-rule="nonzero"></path>
                    <path d="M0.733801365,4.19814057 C32.9163523,-2.75734795 83.0120245,-1.39354329 114.151573,10.7244302 C144.19203,22.4146915 183.293093,59.1529528 203.382568,88.1833937 C201.306665,91.5953261 199.771112,95.3029988 198.452309,98.6495507 L196.743006,103.206085 C186.772072,128.551804 179.649977,172.123659 173.382533,227.941198 L173.070222,231.161673 C147.365056,222.85216 117.473405,217.785356 83.2766144,215.937532 C56.3133197,214.543365 31.8163859,215.404674 9.74348355,218.534193 L9.68390325,211.492974 C8.61296062,97.3746694 2.80758011,26.8511592 0.742946328,10.0819242 L0.742946328,9.51235742 C0.517404618,7.7086599 0.272332827,5.99142224 0,4.3592644 L0.733801365,4.19814057 Z" id="bp-proximal-phalanx-ring-finger-right-palmar" fill="#FFFFFF" fill-rule="nonzero"></path>
                </g>
                <path d="M626.182771,278.500567 C626.763254,279.312603 627.330636,280.07857 627.883911,280.796398 C643.837404,301.016017 701.09905,340.031338 812.488618,407.240212 L819.478094,411.497313 C931.89321,480.355072 1015.94894,550.659774 1048.24475,588.62259 L1052.81352,594.075597 C1054.83052,596.448577 1057.54288,599.608194 1060.8434,603.429181 C1022.56681,627.891139 983.090087,664.127257 949.426725,707.29858 C915.244068,751.135869 889.202055,817.772406 872.890871,884.960022 C849.568964,936.151818 889.526303,1083.03492 932.801149,1206.28757 C894.908611,1207.72773 854.558047,1216.18062 819.378017,1231.95041 C777.141095,1250.88352 739.190988,1279.14905 709.638839,1310.65966 L708.141223,1312.27016 C670.132949,1301.88944 626.696704,1297.77983 584.862266,1301.32458 C540.63384,1305.07218 497.005326,1317.61568 469.39441,1336.9408 C445.936967,1303.2385 402.749138,1263.10054 366.720127,1249.07983 C327.877114,1233.96405 267.802949,1232.82022 229.571657,1242.77155 L227.491327,1238.12655 C224.364774,1231.23779 221.700114,1225.82904 218.808822,1220.61625 L217.837181,1218.88672 C215.873399,1215.43511 213.775329,1212.00723 211.339799,1208.22441 C179.286102,1158.43919 129.764859,1131.11185 54.5846087,1134.68707 L55.7095971,1128.37531 C56.9025282,1121.54341 57.9028293,1115.32381 58.6860643,1109.80077 C67.1471134,1048.05689 47.6867005,738.457846 49.7844484,654.624711 L49.9711403,648.645409 C51.9524582,590.855186 58.607573,481.691152 56.1469349,393.618647 C204.296429,393.534893 335.259316,375.819467 449.155796,340.402328 C508.437885,322.081131 565.974127,302.021902 621.795992,280.220812 L626.182771,278.500567 Z" id="bp-palm-right" fill="#FFFFFF" fill-rule="nonzero"></path>
            </g>
        </g>
        <g id="viewport-boundary" mask="url(#mask-2)" stroke="#FF0000" stroke-width="3">
            <g transform="translate(260, 190)" id="boundary">
                <rect x="0" y="0" width="560" height="1080"></rect>
            </g>
        </g>
    </g>
</svg>