<?xml version="1.0" encoding="UTF-8"?>
<svg width="1080px" height="1460px" viewBox="0 0 1080 1460" version="1.1" xmlns="http://www.w3.org/2000/svg" xmlns:xlink="http://www.w3.org/1999/xlink">
    <title>lower-limb-right-front</title>
    <defs>
        <rect id="path-1" x="0" y="0" width="1080" height="1460"></rect>
    </defs>
    <g id="lower-limb-right-front" stroke="none" stroke-width="1" fill="none" fill-rule="evenodd">
        <mask id="mask-2" fill="white">
            <use xlink:href="#path-1"></use>
        </mask>
        <g id="mask"></g>
        <g id="bp-lower-limb-right-front" mask="url(#mask-2)" fill="#FFFFFF">
            <g transform="translate(363.2148, 246.6555)">
                <path class="hover" d="M87.1691434,762.036797 C106.493961,767.261625 126.831515,769.827815 148.17141,769.737853 L145.226793,782.801518 L144.452652,786.335584 C144.429776,786.441834 144.407562,786.545266 144.386017,786.645852 L145.06965,789.094622 L145.373687,790.208539 C147.00252,796.255468 147.887908,801.057551 146.653654,808.02178 C146.067196,811.346489 144.737892,815.570826 143.408588,819.051993 L143.330393,834.873699 L144.301441,837.95485 L144.65553,839.111181 C146.601159,845.543535 148.462236,853.136191 147.572438,860.082821 L147.43555,861.057247 L147.329263,861.722078 C146.024524,869.452058 142.994864,872.413964 132.26589,881.517419 C123.820898,888.714438 104.858764,931.309835 98.9355408,939.934523 C93.3527887,948.087395 87.1057578,953.905298 82.6548231,962.896365 L82.0846544,964.08756 C80.1297952,968.331454 74.4411549,977.71887 70.2773048,980.554652 C65.1946708,984.016261 51.2956219,984.896331 47.0144802,979.459453 C44.0440088,975.64227 46.6838288,969.157149 49.8257842,962.932944 L50.3403657,961.923484 L51.3084922,960.059737 C52.4872598,957.80504 53.6257609,955.649097 54.4624938,953.741846 C52.3306112,955.57098 50.5097262,957.7393 48.7218387,959.949345 L47.4859258,961.482386 C44.7359832,964.887712 41.9122977,968.229323 38.0025793,970.424066 C36.4386919,971.284579 31.5906411,970.091595 30.2613368,969.055068 L29.9798425,968.82176 C25.7695404,965.187357 28.6523848,960.653125 36.5559835,947.366227 C36.4803956,947.23389 34.1762247,950.537261 31.3209972,953.902157 L30.5154685,954.837045 C29.4989417,955.990915 28.4433178,957.10567 27.3876938,958.063969 C24.4163078,960.782408 22.1291225,961.994949 19.8223887,961.525578 C17.5352034,961.056207 15.5998928,959.569867 14.7984005,957.594598 C13.3909019,955.013059 15.1698237,950.319351 22.2464141,942.692076 C20.6825267,942.789862 16.6359681,947.913826 10.986425,949.673966 C6.35340872,951.121193 3.87073753,947.659583 4.28125796,944.686902 C4.92608041,940.153742 9.84352077,934.128399 11.7478998,931.945873 L12.8897657,930.668997 C14.1933891,929.171255 4.49008657,939.181729 1.01664309,934.986573 C-3.37465334,929.665485 7.55551661,916.056931 12.9386804,910.742246 L13.4495476,910.246822 C34.4098651,890.285878 59.8856931,855.791241 72.1771105,840.178647 L73.1704964,838.922022 C73.9719887,837.905052 75.4381331,835.734212 76.9433747,833.485144 L79.3531968,829.866734 L80.3057325,828.458965 L83.2966671,812.911058 L83.3357643,812.324345 L83.7007731,807.749813 L84.8801031,793.432171 L86.0249454,778.78326 L86.3153377,774.905347 C86.5970511,771.068077 86.8509548,767.363275 87.0610922,763.885782 L87.1691434,762.036797 Z" id="bp-foot-right-dorsal"></path>
                <path class="hover" d="M205.577052,508.567678 L205.279882,521.97941 C203.452088,539.745419 199.32462,557.232061 194.794709,574.57491 L193.062012,581.159241 L191.068055,588.512716 L190.110174,592.111226 L188.125407,599.739626 L187.163878,603.546999 C183.535944,618.0625 176.854457,646.191552 169.808962,676.248784 L165.871199,693.085249 L156.422742,733.769503 L150.917992,757.688607 C150.761188,758.373171 150.606342,759.049539 150.453523,759.717404 C142.951388,759.81929 135.584195,759.581905 128.351119,759.005639 L130.402968,748.325282 C132.466875,737.621767 134.587743,726.739419 136.952698,714.694012 L146.48745,666.243941 C152.485798,635.574114 156.359038,614.680624 159.688061,594.470717 L160.189755,591.404934 L160.437847,589.873773 C164.634089,563.889855 167.877011,539.039026 170.604342,511.377408 C182.087731,511.666698 193.308784,510.812305 204.263736,508.81308 L205.577052,508.567678 Z" id="bp-lower-leg-medial-right-front"></path>
                <path class="hover" d="M133.318628,506.641027 C142.568845,508.716121 151.665999,510.117867 160.608542,510.845173 C158.000516,537.210581 154.919678,561.000673 150.976734,585.718971 L150.442667,589.040395 L149.694453,593.612492 L148.906103,598.334908 C146.105471,614.946198 142.842648,632.584911 138.253436,656.218001 L132.807008,683.991528 L126.488841,716.086251 C123.543756,731.105541 120.962883,744.402977 118.36465,757.98314 C116.744439,757.780995 115.132101,757.560485 113.526701,757.322399 L114.711882,731.548805 C117.503977,671.692614 119.576536,634.079138 122.04174,600.505296 L122.429712,595.309934 C125.516202,554.677398 128.964752,525.840594 133.113007,507.533858 L133.318628,506.641027 Z" id="bp-lower-leg-tibial-anterior-right"></path>
                <path class="hover" d="M89.1176607,492.104199 C100.835877,497.123234 112.335207,501.166459 123.612942,504.231965 L123.338584,505.427337 C119.011823,524.573436 115.501365,554.151646 112.364647,595.791992 L112.068589,599.773004 C109.274051,637.83207 106.986226,680.994595 103.594714,755.604283 C98.1792957,754.538762 92.8460304,753.262542 87.5941435,751.779162 L87.6361883,748.941245 C87.6573821,747.049559 87.6697388,744.933817 87.6740884,742.621231 L87.6752499,739.456607 C87.6605912,725.119073 87.390624,704.605244 87.0255987,683.169451 L86.8930801,675.57415 L85.8657412,624.118066 C85.3685843,601.265314 84.9583961,584.648934 84.9387488,584.249265 C83.3162157,557.651588 84.8996516,532.051324 88.0860722,506.920431 L89.1176607,492.104199 Z" id="bp-lower-leg-lateral-right-front"></path>
                <path class="hover" d="M109.600171,377.473879 C138.443278,392.124 177.182142,398.547447 225.767374,396.880422 L224.085627,403.267719 L220.589161,415.910969 L206.941512,464.735733 C204.302452,474.220934 204.615229,483.882149 205.103944,493.719378 L205.260333,497.474344 L205.307142,498.423069 C170.252061,505.525968 132.099104,500.053841 90.7402567,481.910502 L90.2643282,484.802023 C92.4262894,471.408749 94.9083331,458.102088 97.4516025,444.785028 L99.4633527,434.265747 L101.656766,422.848059 C103.838572,411.421814 105.968147,399.962567 107.888796,388.404312 L109.600171,377.473879 Z" id="bp-knee-right"></path>
                <path class="hover" d="M213.451319,48.1094545 L251.53185,67.7262906 C263.700735,84.4362947 286.79734,92.6271025 292.932534,94.5674174 L294.035377,94.9054995 L294.460559,95.0280237 L292.438478,103.084201 L290.751835,109.896933 C287.026411,125.02157 282.617053,143.393906 278.118946,162.443805 L272.485775,186.45477 L268.741606,202.584716 C260.535153,238.094718 253.507021,269.5735 251.707788,279.52985 L250.398991,286.695671 C244.219888,320.289626 239.363761,343.211247 233.869819,365.549002 L233.056144,368.834608 C232.575682,370.761612 232.089741,372.687954 231.597057,374.620138 L231.173076,376.277878 C230.747384,377.937353 230.316472,379.602487 229.879545,381.277375 L228.430353,386.773433 C207.536906,387.629702 188.575838,386.980087 171.542777,384.836643 L173.741831,366.697227 C181.677668,301.505154 194.913857,195.307426 213.451319,48.1094545 Z" id="bp-thigh-medial-right-front"></path>
                <path class="hover" d="M163.305831,22.2588073 L203.986988,43.2289606 L188.743752,164.544722 C176.254266,264.231008 167.22213,337.178134 161.647028,383.388728 C142.011114,380.086131 125.183781,374.613379 111.155495,366.989644 C113.146994,352.492558 114.661628,337.885554 115.395455,322.887975 L115.675784,316.652265 L115.873372,311.792488 L116.132777,304.847038 C117.27912,272.758114 118.38628,223.396294 119.18841,172.854482 L119.275851,167.261702 C119.340426,163.068171 119.402839,158.870611 119.462939,154.678178 C137.34042,156.026736 150.974098,142.605426 159.687484,115.968746 C164.476517,101.352916 166.480269,52.2323642 163.305831,22.2588073 Z" id="bp-thigh-lateral-right-front"></path>
                <path class="hover" d="M120.087117,0 L120.145763,0.0195571154 L152.700015,16.7947292 C152.65295,17.2080165 152.657075,17.6339671 152.718103,18.0649835 C156.631348,45.7026608 154.742384,98.9449609 150.183843,112.857347 C142.700342,135.734287 132.73171,145.789096 119.601842,144.610198 L119.859526,124.240023 C120.464195,72.3039025 120.641719,24.7460352 120.087117,0 Z" id="bp-trochanter-right"></path>
            </g>
        </g>
        <g id="decoration" opacity="0.15" mask="url(#mask-2)">
            <g transform="translate(260, -678)">
                <g id="bp-lower-limb-left-front" transform="translate(416.3247, 924.6555)">
                    <path d="M208.576671,780.619588 L209.580456,793.432171 L210.759785,807.749813 C210.885324,809.296659 211.007503,810.823336 211.124794,812.324345 L211.163892,812.911058 L214.154826,828.458965 L215.459695,830.392675 L218.115713,834.378049 C219.302668,836.145317 220.411221,837.770731 221.121087,838.703562 L223.337873,841.522688 C235.806008,857.465343 259.931195,889.896842 280.135099,909.406795 L281.521878,910.742246 C286.905042,916.056931 297.835212,929.665485 293.443916,934.986573 C289.970472,939.181729 280.26717,929.171255 281.570793,930.668997 L282.772242,932.014285 C284.717532,934.251929 289.541097,940.20027 290.179301,944.686902 C290.589821,947.659583 288.10715,951.121193 283.474134,949.673966 C277.82459,947.913826 273.778032,942.789862 272.214145,942.692076 C279.290735,950.319351 281.069657,955.013059 279.662158,957.594598 C278.860666,959.569867 276.925355,961.056207 274.63817,961.525578 C272.331436,961.994949 270.044251,960.782408 267.072865,958.063969 C266.017241,957.10567 264.961617,955.990915 263.94509,954.837045 L263.436827,954.250331 L262.846228,953.554423 C260.128075,950.313527 257.977557,947.238454 257.904575,947.366227 L260.763403,952.18195 C266.585635,962.071834 268.217403,965.852748 264.199222,969.055068 C262.869918,970.091595 258.021867,971.284579 256.457979,970.424066 C249.420486,966.473528 245.90174,958.807139 239.998065,953.741846 C243.438617,961.58425 251.981352,973.631433 247.446078,979.459453 C243.164937,984.896331 229.265888,984.016261 224.183254,980.554652 C220.149524,977.807488 214.684814,968.91177 212.569951,964.500137 L212.375904,964.08756 C207.899277,954.406788 201.350498,948.441868 195.525018,939.934523 L195.147884,939.367108 C192.135665,934.703085 186.37859,922.923322 180.283186,911.114682 L179.326702,909.267144 C172.936277,896.962072 166.314177,885.02816 162.194668,881.517419 L159.790534,879.467297 C150.350689,871.360355 147.974154,868.412703 146.888121,860.082821 C145.7934,851.536361 148.862529,842.012046 151.130165,834.873699 L151.051971,819.051993 C149.722667,815.570826 148.393362,811.346489 147.806905,808.02178 C146.34076,799.74912 147.86555,794.52737 150.074541,786.645852 L149.117163,782.276038 C148.285498,778.531173 147.127182,773.400024 145.72096,767.224719 C167.242053,767.357984 187.72032,764.771527 207.152354,759.463477 C207.475847,765.743735 207.989012,773.021899 208.576671,780.619588 Z" id="bp-foot-left-dorsal" fill="#FFFFFF"></path>
                    <path d="M88.8685458,505.888356 C100.995798,508.23876 113.461327,509.158339 126.262679,508.648621 C128.918643,536.057985 132.061781,560.613635 136.112155,586.099931 L137.227342,593.003874 L138.550465,600.93598 C141.441129,617.982373 144.832784,636.21031 149.640928,660.880663 L162.692074,727.257466 C165.035882,739.253432 167.183153,750.351215 169.356355,761.7187 C161.299185,762.470858 153.078267,762.802417 144.69309,762.714768 L134.976531,720.543011 C133.275597,713.206675 131.513965,705.628499 129.734607,697.995289 L117.378595,645.373558 C112.610016,625.247828 108.565632,608.458353 106.335152,599.739626 L104.350384,592.111226 L103.392503,588.512716 L101.398547,581.159241 L99.6658494,574.57491 C95.1359384,557.232061 91.0084704,539.745419 89.180677,521.97941 L88.8483509,506.939988 L88.8685458,505.888356 Z" id="bp-lower-leg-medial-left-front" fill="#FFFFFF"></path>
                    <path d="M163.143729,503.446654 C171.339243,535.788158 176.053582,595.302832 182.408332,730.142128 L183.783663,759.900483 C180.50148,760.425422 177.190761,760.877298 173.851476,761.256097 L170.55679,744.119168 C169.446848,738.379341 168.3157,732.562154 167.134865,726.518074 L153.743197,658.393133 C148.795345,632.967555 145.368946,614.436852 142.423458,596.823558 L141.857807,593.416603 C141.607232,591.896334 141.359771,590.380062 141.114744,588.863882 C137.068987,563.829445 133.914251,539.859478 131.25238,513.370331 L130.763213,508.411442 C140.884398,507.74847 151.21278,506.202999 161.74717,503.775772 L163.143729,503.446654 Z" id="bp-lower-leg-anterior-left" fill="#FFFFFF"></path>
                    <path d="M204.924645,489.390036 L205.338411,492.037466 L206.374486,506.920431 C209.45103,531.184742 211.033234,555.886611 209.678287,581.501318 L209.516254,584.419874 C209.427592,587.460394 208.420115,628.963801 207.654103,670.784435 L207.219833,696.451357 C206.821074,722.534811 206.623871,745.447062 206.942387,754.859638 C200.821599,756.557554 194.593013,757.985461 188.256407,759.136695 L187.416531,740.835379 C180.779628,597.837422 176.034435,536.005439 167.513008,502.361053 C179.71255,499.20481 192.183464,494.879659 204.924645,489.390036 Z" id="bp-lower-leg-lateral-left-front" fill="#FFFFFF"></path>
                    <path d="M184.416679,374.636071 L186.571763,388.404312 C189.132628,403.815319 192.064917,419.050312 194.997206,434.265747 L195.91599,439.076798 C198.836538,454.301952 201.725418,469.495425 204.197859,484.799785 C177.65603,496.360934 152.377037,502.772001 128.348753,504.046325 L128.216694,504.046153 L128.032595,504.060214 C114.63996,504.748324 101.63548,503.836477 89.0181104,501.329146 C89.0723632,500.039243 89.1362944,498.753526 89.2002256,497.474344 L89.3566143,493.719378 L89.4735213,491.263738 C89.8769598,482.273169 89.938185,473.430501 87.5190467,464.735733 L73.1477117,413.307132 L70.2144354,402.660793 C69.906973,401.497516 69.1582013,398.66203 67.971961,394.154333 C116.970595,395.903087 155.792992,389.419002 184.416679,374.636071 Z" id="bp-knee-left" fill="#FFFFFF"></path>
                    <path d="M42.9287082,67.7262906 L83.5032715,46.8199001 L103.470034,205.790006 C113.432354,285.457116 120.811185,345.157484 125.606436,384.890347 L125.892375,387.249529 C108.248492,389.6604 88.5441637,390.447271 66.7771927,389.604076 L66.465213,388.423869 C63.8992793,378.787281 61.559884,369.643458 59.3046461,360.259834 L58.1933419,355.586984 C53.8103906,336.959995 49.6614102,316.940871 44.6672897,289.977479 L42.6071976,278.741956 C40.2006759,265.910965 30.858547,224.511201 20.9592391,182.130011 L16.7269715,164.096431 C10.485455,137.629259 4.3816515,112.32217 0,95.0280237 L1.07392226,94.7093512 C6.42362929,93.0578875 30.4353196,84.8818948 42.9287082,67.7262906 Z" id="bp-thigh-medial-left-front" fill="#FFFFFF"></path>
                    <path d="M87.7643274,44.6202 L135.012483,20.2709316 L134.806831,22.0956852 C131.624359,51.7044095 133.606617,100.744617 138.278382,114.992504 C146.502478,140.115717 158.827545,152.629388 174.958202,151.866204 L175.297775,174.437848 C176.270079,235.214576 177.680328,294.041107 179.065103,322.887975 C179.848437,338.897343 181.521483,354.46166 183.710747,369.920616 C168.889186,377.811712 151.102556,383.374601 130.348664,386.599287 L125.575861,347.377108 C118.432972,289.101259 107.868089,204.374113 93.8806478,93.1949016 L87.7643274,44.6202 Z" id="bp-thigh-lateral-left-front" fill="#FFFFFF"></path>
                    <path d="M174.314795,0.0195571154 L174.373441,0 L174.259,6.06374181 C174.117485,15.0176841 174.047819,26.1410304 174.040176,38.8388966 L174.041055,44.8546727 L174.060855,55.0358655 C174.141213,82.1854888 174.443681,114.437236 174.894678,147.337003 C160.901611,148.015126 150.214984,136.985835 142.557034,113.592105 C139.775589,105.109288 137.97198,82.9535322 137.776379,60.4504781 L137.762055,58.1613537 L137.760531,55.0845757 C137.798464,41.7656331 138.418749,28.6967218 139.752553,18.651493 L139.872934,17.766 L174.314795,0.0195571154 Z" id="bp-trochanter-left" fill="#FFFFFF"></path>
                </g>
                <g id="bp-pelvic-region-front" transform="translate(226.3515, 824.9142)">
                    <path d="M350.076187,0 L350.095735,0 L350.647861,1.77906678 C354.326344,13.340104 361.27753,30.956958 361.27753,81.8269708 L330.210233,97.5968792 C331.776386,71.6515639 329.512671,47.5801766 323.420028,25.4109776 L325.399513,23.7429581 C341.174055,10.3356123 350.076187,0 350.076187,0 Z" id="bp-hip-left" fill="#FFFFFF"></path>
                    <path d="M319.602158,28.549409 C325.362787,50.4410379 327.348254,74.2505655 325.543917,99.9650737 L226.024287,150.482447 C232.999704,133.134725 234.904227,108.344648 231.844651,76.1456831 C267.669891,65.667187 297.65743,46.1260286 318.468146,29.4639678 L319.602158,28.549409 Z" id="bp-groin-left" fill="#FFFFFF"></path>
                    <path d="M180.648539,129.37125 C196.778497,129.37125 211.686605,131.767368 225.382714,136.554638 L225.577796,136.624158 C223.91746,143.935071 221.60864,150.223866 218.657015,155.491918 C202.93163,172.737424 185.540094,178.393293 181.117706,179.143177 C176.383717,178.366775 157.766373,172.061579 141.873042,154.071197 C139.285556,149.104723 137.232937,143.289189 135.719283,136.624158 C149.468869,131.790186 164.441962,129.37125 180.648539,129.37125 Z" id="bp-genital-organ" fill="#FFFFFF"></path>
                    <path d="M226.580824,131.642469 L226.485262,132.173494 C212.404576,127.303721 197.122474,124.87125 180.648539,124.87125 C164.174605,124.87125 148.892503,127.303721 134.811817,132.173494 C132.16513,117.634305 131.826553,99.4586405 133.834489,77.6405378 C148.480935,81.4334503 164.136419,83.7044539 180.628991,83.7044539 C197.023572,83.7044539 212.701863,81.3305694 227.440163,77.3823496 C229.395579,98.4777615 229.164228,116.177731 226.778945,130.489482 L226.580824,131.642469 Z" id="bp-mons-pubis" fill="#FFFFFF"></path>
                    <path d="M129.422623,76.4429617 L129.135515,79.6622245 C126.538785,110.163727 128.554636,133.78527 135.278611,150.496915 L36.0925811,100.146523 C36.1279126,99.9529662 36.1382317,99.7515357 36.1203259,99.5460556 C33.8863865,73.9102841 35.353633,50.1337563 40.5079383,28.2289354 L42.3845769,29.7668726 C63.0024069,46.5187097 92.938117,66.099443 129.422623,76.4429617 Z" id="bp-groin-right" fill="#FFFFFF"></path>
                    <path d="M11.1817947,0 L12.6581321,1.6902466 C15.8355467,5.28028153 24.1090687,14.243443 36.6551311,24.9882352 C31.1121213,47.374099 29.3775928,71.6520319 31.4565298,97.7939363 L0,81.8269708 C0,28.2795889 7.70214527,11.5778123 11.1817947,0 Z" id="bp-hip-right" fill="#FFFFFF"></path>
                </g>
                <g id="bp-abdomen" transform="translate(243.9842, 650.6784)">
                    <path d="M320.694721,133.537458 L320.995552,134.783048 C321.331136,136.24467 321.764463,138.316638 322.236888,140.659146 L324.897668,154.07243 L325.01496,154.620029 L325.523701,157.127425 C325.743694,158.177387 325.933758,159.041567 326.070618,159.646208 L325.009611,160.785635 C315.653237,170.701808 245.680637,242.026594 165.45969,243.446509 L165.38427,182.7036 L170.405145,182.704978 C181.099093,182.704978 186.520212,181.754284 191.783741,179.143531 L192.67328,178.686068 C197.643681,176.029786 201.561473,172.110286 204.23414,167.123376 C207.112673,161.732419 208.196939,156.436701 208.252012,145.722198 L208.253325,139.292399 C246.785876,138.547879 282.881128,131.036526 316.541517,116.750492 L317.090238,119.080337 C318.124721,123.427548 319.317512,128.200236 320.694721,133.537458 Z" id="bp-lower-left-quadrant-abdomen" fill="#FFFFFF"></path>
                    <path d="M9.48591554,116.906071 C42.455561,130.84335 77.7587158,138.288002 115.397666,139.24739 L117.776075,139.2984 L117.777317,144.841471 C117.777317,155.584292 118.724599,161.005724 121.345055,166.250075 L121.797414,167.123376 C124.448862,172.089058 128.366655,176.008558 133.351697,178.682555 C138.741025,181.562727 144.035318,182.647645 154.745998,182.702752 L160.882058,182.7036 L160.9566,243.447022 L163.035326,243.468004 C75.7508622,243.468004 -0.0585778087,159.567979 0,159.646208 L0.198891023,158.752272 L0.913776355,155.310808 C1.36824059,153.069923 1.90992469,150.33809 2.46319057,147.55991 L2.60003071,146.914525 L2.65867649,146.582054 L4.29831465,138.41207 C4.7357144,136.285233 5.11202479,134.54465 5.37593079,133.537458 L6.44040124,129.372328 C7.35241809,125.772937 8.1745021,122.441664 8.91634482,119.32728 L9.48591554,116.906071 Z" id="bp-lower-right-quadrant-abdomen" fill="#FFFFFF"></path>
                    <path d="M170.405145,96.6927848 L172.077194,96.7010162 C181.540405,96.7977031 186.017529,97.7575799 190.553937,100.181931 C194.753673,102.43469 198.029763,105.712208 200.263828,109.896201 C202.766391,114.56572 203.702565,119.150079 203.750104,129.22709 L203.752025,144.841471 C203.752025,155.470753 202.82599,160.203104 200.263828,165.001562 C198.011884,169.203441 194.735795,172.480959 190.553937,174.715832 L189.771979,175.11768 C185.205257,177.379103 180.448726,178.204978 170.405145,178.204978 L155.626409,178.204978 C145.002627,178.204978 140.273249,177.278718 135.477618,174.715832 C131.277881,172.463073 128.001791,169.185555 125.767727,165.001562 C123.243423,160.291478 122.312842,155.668039 122.280412,145.406801 L122.279529,130.056292 C122.279529,119.42701 123.205565,114.694659 125.767727,109.896201 C128.01967,105.694322 131.29576,102.416804 135.477618,100.181931 L136.259576,99.7800828 C140.741728,97.5605383 145.406725,96.7238651 155.07384,96.6936384 L170.405145,96.6927848 Z M163.015777,132.44226 C160.20078,132.44226 157.933143,134.730443 157.933143,137.52711 C157.933143,140.323778 160.220329,142.61196 163.015777,142.61196 C165.811226,142.61196 168.098411,140.323778 168.098411,137.52711 C168.098411,134.730443 165.811226,132.44226 163.015777,132.44226 Z" id="bp-umbilical-region" fill="#FFFFFF"></path>
                    <path d="M165.287022,0 L309.239246,38.2551923 L309.841577,61.7904087 C310.396531,81.6993615 311.179828,92.6801451 315.525753,112.288357 C282.215783,126.54478 246.469442,134.042834 208.253281,134.791373 L208.254237,130.056292 C208.254237,118.716647 207.198778,113.306081 204.23414,107.774387 C201.582692,102.808705 197.6649,98.8892052 192.679857,96.2152084 C187.290529,93.3350359 181.996236,92.2501177 171.285557,92.1950113 L165.458494,92.1917459 L165.287022,0 Z" id="bp-upper-left-quadrant-abdomen" fill="#FFFFFF"></path>
                    <path d="M16.8314057,38.2551923 L160.78481,0 L160.956269,92.1911362 L155.626409,92.1927848 C144.329636,92.1927848 138.916914,93.2536822 133.358274,96.2116947 C128.387873,98.8679769 124.470081,102.787477 121.797414,107.774387 C118.918881,113.165344 117.834615,118.461062 117.779542,129.175565 L117.776114,134.798394 C79.5617487,134.09365 43.8150269,126.645661 10.5013817,112.448139 L10.9266343,110.506948 C16.3031695,85.631911 15.8242343,74.4826681 16.8314057,38.2551923 Z" id="bp-upper-right-quadrant-abdomen" fill="#FFFFFF"></path>
                </g>
                <g id="bp-upper-limb-left-front" transform="translate(453.9362, 260.4959)">
                    <path d="M277.582245,621.331875 L277.94807,622.738556 C278.990681,626.671775 280.096067,630.211234 281.541255,634.668791 L284.477866,643.681882 L286.113193,648.064133 C287.305658,649.863387 289.201871,651.897327 290.824404,653.266325 L292.564229,654.341967 L294.110286,655.31459 C297.83624,657.671566 302.274992,660.580687 304.977585,662.771084 L305.173071,662.947098 C309.727893,666.741178 319.443543,672.803884 324.878052,678.847032 C327.634403,681.917499 330.332109,688.997175 334.906479,692.595685 L335.141062,692.771699 C339.852273,696.311536 349.411535,708.280491 353.36035,712.231028 C357.309166,716.162009 362.3918,716.846508 358.892602,721.755344 C355.393404,726.66418 346.537892,725.138725 341.904875,723.437255 C334.144084,720.601474 327.575757,712.798185 322.25854,708.300048 L321.71118,707.850235 L320.531505,706.840242 C316.400246,703.250928 315.246685,701.916734 314.439103,710.373102 C314.00499,714.904958 315.939952,723.91723 318.27552,733.02679 L318.611685,734.328344 C321.037354,743.654109 323.784679,752.863071 324.741211,757.251508 L324.858503,757.799107 C325.601349,761.280274 326.383293,766.032653 327.165237,770.843703 L328.661493,780.150718 C329.315457,784.124406 329.919494,787.530113 330.429852,789.501191 L330.468949,789.677205 C331.935093,795.211869 331.56367,802.917372 325.816384,804.188585 C322.063054,805.009984 320.186389,802.330659 318.720245,799.045064 L318.211982,797.832522 L318.114239,797.57828 L317.918753,797.108909 L317.488684,796.013711 C317.319263,795.583454 317.149841,795.16189 316.974628,794.749017 L316.550351,793.7842 C315.553373,791.61336 314.360909,787.076109 313.207542,782.284616 L311.350426,774.363984 C310.777,771.943791 310.236428,769.786532 309.788937,768.23868 L309.349806,766.755504 C308.837692,764.971008 308.197023,762.425782 307.479752,759.695902 L307.298868,759.009918 L307.114973,758.318241 C306.991413,757.855669 306.865965,757.390636 306.73887,756.925807 L306.547023,756.22905 C304.874167,750.197603 302.943322,744.426126 301.282901,744.774068 C299.592497,745.128294 300.651502,751.143965 302.159494,757.278158 L302.335355,757.98616 C302.424151,758.340108 302.514146,758.693742 302.6049,759.045996 L302.787288,759.74835 C303.702973,763.247767 304.665027,766.538281 305.231717,768.555521 L305.74913,770.465844 C306.276678,772.463226 306.868467,774.886692 307.460256,777.414894 L307.753485,778.666549 L308.027165,779.87909 L308.203103,780.680932 L308.850022,783.57242 C309.628688,787.119774 310.275253,790.332883 310.568482,792.278302 L310.568482,792.415201 C311.29178,797.148023 313.285736,804.990427 314.458652,809.821034 C315.651116,814.651642 313.891743,821.946446 308.613623,822.552716 C303.3746,823.158987 300.344569,819.130221 299.48443,816.548682 L299.48443,816.470453 L299.325369,815.982137 C298.926074,814.70084 298.335951,812.461245 297.68596,809.997048 L296.376204,805.049098 C295.907038,803.288958 295.457421,801.626603 295.085997,800.374947 L294.182075,797.412699 C293.767532,796.078883 293.268953,794.496671 292.725046,792.788351 L290.804856,786.821866 L288.966564,781.287203 C288.75877,780.663548 288.556768,780.061624 288.361282,779.487948 L287.892115,778.11895 C287.086966,775.803135 285.893201,771.572493 284.558727,767.167004 L283.989213,765.30654 L283.880912,764.957745 L283.663097,764.261781 C283.408101,763.451532 283.150174,762.648297 282.890868,761.862954 L282.668303,761.194439 C280.885657,755.885424 279.058926,751.563794 277.68775,751.736401 C276.21103,751.921072 277.35564,757.520977 279.100414,763.752352 L279.396421,764.795941 L279.701462,765.846303 C280.422148,768.301219 281.199636,770.771251 281.915055,772.975047 L283.140891,776.699837 C283.149138,776.725506 283.156469,776.749952 283.161356,776.769509 L284.256077,779.996433 L284.799179,781.677581 C285.651716,784.351961 286.830025,788.191989 287.982337,792.196034 L288.928191,795.505226 L289.299614,796.874224 C290.511627,801.352803 291.528153,805.557583 291.840931,808.060894 L291.840931,808.217351 C292.583777,814.377842 290.824404,816.685582 287.031977,817.800337 C283.23955,818.915093 280.639588,817.585209 278.469694,813.830243 C277.355424,811.894088 275.126885,805.498912 272.937442,798.849492 L272.781054,798.399679 L271.960013,795.955039 L268.809207,786.317104 C268.536478,785.490071 268.284613,784.732253 268.058544,784.061677 L267.678871,782.949558 C266.879551,780.654856 266.033893,777.896578 265.183087,775.018114 L262.439731,765.643936 C261.939835,763.95866 261.458235,762.383217 261.003379,761.010542 L260.563184,759.696147 C258.686519,754.102812 258.25645,751.091017 256.848951,751.384373 C255.461001,751.67773 256.067007,754.904654 257.787284,760.83046 L258.635509,763.702911 C259.112922,765.290705 259.703046,767.230526 260.348149,769.357362 L265.841304,787.389023 L267.229254,792.004502 L267.56158,793.197486 C267.620225,793.412614 267.678871,793.627743 267.737517,793.862428 L267.815711,794.136228 L267.952551,794.683827 L268.030746,794.957626 L268.196752,795.657539 C269.043282,799.401423 269.200212,803.262498 265.391686,804.403713 C260.620011,805.820922 259.580542,801.601821 256.833681,796.544158 L255.66185,794.445597 C252.81627,789.268637 249.430242,781.541647 245.110022,770.054742 L244.597427,768.685921 C244.511268,768.454869 244.424744,768.222353 244.337852,767.988364 L244.044623,767.166965 C243.208715,764.876304 242.373364,762.438155 241.562262,759.967808 L240.76012,757.490999 L239.999994,755.084302 C236.725065,744.595302 234.172584,734.897725 234.172584,734.897725 L234.055293,734.017655 L233.861856,732.319792 C233.682517,730.664862 233.458486,728.361047 233.292898,725.862338 L233.175606,723.671941 L233.175606,723.124342 L233.136509,722.713642 C233.136509,722.302943 233.11696,721.892243 233.097412,721.501101 L233.058315,719.54539 C233.019217,717.863478 232.954055,715.60789 232.874413,713.149488 L232.70644,708.280491 L232.628246,706.383451 L232.515889,703.9945 C232.415311,701.920711 232.311914,700.009609 232.198177,698.501933 L232.198177,698.286805 C231.97594,695.600275 232.174783,691.105822 232.545383,686.532845 L232.686891,684.83151 L232.725989,684.28391 L232.870399,682.651427 C233.190116,679.143257 233.547029,675.865224 233.801161,673.64484 L233.918453,672.686541 C234.328973,669.244489 234.622202,664.902809 234.426716,661.4412 L233.507932,656.786606 L233.371092,656.317235 L231.344836,649.819902 C229.281768,643.159191 227.533387,637.361992 226.101798,632.430408 L229.068419,632.055837 C240.29024,630.602289 249.784621,628.945202 257.557169,627.082815 L258.561215,626.838731 C263.595084,625.597081 269.935893,623.761219 277.582245,621.331875 Z M272.116402,665.333066 C270.278834,674.916052 272.878797,683.736311 279.818547,691.617829 C285.428993,697.993448 294.323602,701.826643 306.1505,704.075711 C307.206124,704.271282 308.222651,703.586783 308.418137,702.530699 C308.613623,701.474615 307.929422,700.457645 306.873798,700.262074 L306.170049,700.125174 C295.457421,698.013005 287.540241,694.531839 282.731287,689.055847 C276.573481,682.054399 274.325392,674.427124 275.928377,666.056679 C276.123863,665.000595 275.439662,663.983625 274.384038,663.788054 C273.328414,663.592482 272.311887,664.276981 272.116402,665.333066 Z" id="bp-hand-left-palmar" fill="#FFFFFF"></path>
                    <path d="M242.598028,423.313763 L243.076364,424.664544 C250.781086,446.926732 260.87653,499.889283 262.726058,513.752363 L262.988998,515.883402 C264.72232,530.583959 269.969475,582.757981 273.620453,602.641498 L274.13066,605.339277 C275.025648,610.008762 275.792,613.724498 276.526609,616.94567 L272.984128,618.059874 C266.864593,619.960112 261.695806,621.430554 257.482518,622.4698 C248.902102,624.586239 238.022774,626.447846 224.852847,628.050782 L224.134535,625.469483 C223.833544,624.370612 223.556751,623.336198 223.303567,622.366083 C220.860971,613.102529 210.673906,594.630258 204.944474,584.440181 L201.897859,579.027515 C199.863187,575.392589 190.314765,553.02852 181.048287,529.753438 L177.80497,521.537057 C170.977876,504.085001 164.826346,487.300123 162.650382,478.725034 L161.76226,475.08162 C159.32143,464.957243 157.939625,458.430639 156.901915,452.225301 L156.527507,449.906959 L156.361466,448.824569 C156.010509,446.499666 155.689529,444.135441 155.360786,441.558938 L159.306223,439.65789 C175.270816,432.022047 188.083658,426.600989 197.739787,423.39558 L199.642373,422.778344 C209.673289,419.596698 222.817023,416.530103 239.031934,413.592524 L240.779429,418.329605 C241.37396,419.94969 241.980342,421.610953 242.598028,423.313763 Z" id="bp-forearm-left-front" fill="#FFFFFF"></path>
                    <path d="M225.493009,377.139413 C227.90057,384.335137 232.045493,394.879638 237.437431,409.308074 L234.367432,409.877046 C218.698113,412.825419 206.010467,415.908387 196.320732,419.124952 L194.653391,419.68932 C184.4768,423.19811 171.193922,428.913451 154.777701,436.841207 L152.95506,421.859907 C152.470684,417.96168 151.911989,413.565796 151.247457,408.528583 L151.036455,407.018267 C149.778342,398.490711 146.935016,386.353195 143.757319,372.264904 L146.717034,371.97544 C163.279166,370.329654 176.278611,368.590405 185.7308,366.75326 L187.620075,366.375894 C196.604253,364.534864 207.934425,361.573942 221.618633,357.492382 C222.444793,364.347326 223.758489,371.955273 225.493009,377.139413 Z" id="bp-elbow-left-front" fill="#FFFFFF"></path>
                </g>
                <g id="bp-upper-limb-right-front" transform="translate(0, 260.4959)">
                    <path d="M82.480146,621.331418 L84.8515821,622.078919 C91.0596617,624.019638 96.3417064,625.539387 100.696882,626.63773 L101.502615,626.838731 C110.119365,628.964132 120.935919,630.827108 133.960178,632.431307 L132.827991,636.291843 C131.139756,641.990892 129.093502,648.667024 126.692738,656.317235 L126.555898,656.786606 L125.658161,661.314404 L125.637114,661.4412 C125.441628,664.902809 125.734857,669.244489 126.145378,672.686541 L126.262669,673.64484 C126.555898,676.206822 126.985967,680.176916 127.337842,684.28391 L127.376939,684.83151 L127.578581,687.293984 C127.909841,691.599626 128.075544,695.749527 127.865654,698.286805 L127.865654,698.501933 L127.741665,700.355569 C127.634625,702.13196 127.535105,704.221501 127.435585,706.383451 L127.35739,708.280491 L127.121962,715.297277 C127.073024,716.909612 127.032884,718.368051 127.005516,719.54539 L126.966419,721.501101 L126.939539,722.100038 L126.927321,722.713642 C126.927321,722.713642 126.888224,723.124342 126.888224,723.124342 L126.888224,723.671941 L126.770933,725.862338 L126.683746,727.093349 C126.455991,730.119766 126.163776,732.723434 126.008538,734.017655 L125.891246,734.897725 C125.891246,734.897725 123.338765,744.595302 120.063836,755.084302 L119.303711,757.490999 L118.703825,759.349618 C118.004515,761.494542 117.285509,763.622498 116.562228,765.658437 L115.725978,767.988364 L114.974421,769.999927 C110.644356,781.517071 107.252085,789.260407 104.401981,794.445597 L103.230149,796.544158 C100.483289,801.601821 99.4438195,805.820922 94.6721445,804.403713 C90.9309866,803.282685 91.0162377,799.537166 91.8228222,795.856306 L91.9249817,795.406095 C91.9600958,795.256254 91.9962005,795.106703 92.0330846,794.957626 L92.111279,794.683827 L92.2481191,794.136228 L92.3263135,793.862428 L92.5022508,793.197486 L92.8345769,792.004502 L94.2225269,787.389023 L101.729265,762.698346 L102.276547,760.83046 C102.627624,759.621112 102.932292,758.52417 103.183074,757.54163 L103.327018,756.96585 C104.174055,753.500061 104.262923,751.605888 103.214879,751.384373 C101.852784,751.10048 101.406075,753.911942 99.677825,759.16294 L99.2856123,760.341532 C98.7656197,761.86112 98.2073119,763.677781 97.6240992,765.643936 L95.1999565,773.933727 C94.3485067,776.836873 93.497057,779.662755 92.686796,782.067985 L92.1699248,783.575385 C91.2120437,786.39161 89.7068022,791.065761 88.1038176,795.955039 L87.6151028,797.421823 L87.126388,798.849492 L85.8590676,802.651386 C84.1160269,807.807425 82.4927411,812.268828 81.5941365,813.830243 C79.4242427,817.585209 76.82428,818.915093 73.0318531,817.800337 C69.2394263,816.685582 67.480053,814.377842 68.2228995,808.217351 L68.2228995,808.060894 C68.535677,805.557583 69.5522037,801.352803 70.7642164,796.874224 L71.1356397,795.505226 L72.4886986,790.791283 C73.7779712,786.374801 75.0480238,782.310396 75.8077532,779.996433 L76.9024744,776.769509 C76.9220229,776.691281 76.9806687,776.534824 76.9806687,776.534824 L77.1370575,776.045896 L77.6455135,774.51349 C78.4388365,772.106137 79.3559741,769.242714 80.2071099,766.372485 L80.7890854,764.370129 L80.977395,763.702395 C82.7142913,757.491077 83.8488526,751.920578 82.3760801,751.736401 C80.7478085,751.53143 78.4771332,757.664036 76.4007332,764.261781 L76.1829184,764.957745 C76.1467476,765.073941 76.1106456,765.190216 76.074617,765.30654 L75.7169429,766.470201 C74.368344,770.889275 73.1474072,775.22508 72.3020373,777.737636 L71.4045233,780.368833 L69.2589749,786.821866 L66.939958,794.044035 C66.3562815,795.886361 65.8422208,797.530388 65.4528883,798.802003 L64.9778332,800.374947 C64.6064099,801.626603 64.1567923,803.288958 63.6876261,805.049098 L61.5854652,812.983786 C61.1750211,814.510158 60.8237574,815.761508 60.5794,816.470453 L60.5794,816.548682 C59.7192619,819.130221 56.6892302,823.158987 51.4502075,822.552716 C46.1720876,821.946446 44.4127143,814.651642 45.6051785,809.821034 L46.7999583,804.93287 C47.841091,800.646243 48.9847851,795.756017 49.4953483,792.415201 L49.4953483,792.278302 L49.63096,791.434737 C50.014479,789.167862 50.7218365,785.757756 51.5317963,782.137865 L52.3103455,778.666549 L52.9973956,775.748469 C53.5206105,773.556662 54.0325457,771.504031 54.4880822,769.816271 L55.2184359,767.192475 C55.9468492,764.633909 56.9998406,760.953741 57.8960674,757.311777 L58.0621553,756.629639 C59.4836258,750.72657 60.4116997,745.115798 58.7809295,744.774068 C57.2698589,744.457422 55.5348235,749.208857 53.9740901,754.612091 L53.7948016,755.238182 L53.4961394,756.303628 C52.2626056,760.758299 51.1708946,765.341524 50.4336807,767.695008 L50.1505881,768.67567 C49.7288454,770.180934 49.2347004,772.163808 48.7134046,774.363984 L46.8562883,782.284616 L46.2247117,784.860248 C45.32848,788.437371 44.4343705,791.633376 43.6506203,793.473706 L43.3570904,794.136228 C43.1746368,794.540408 43.0008716,794.95328 42.8300024,795.374845 L42.1450777,797.108909 L41.9495917,797.57828 L41.8518488,797.832522 L41.3435854,799.045064 C39.877441,802.330659 38.0007761,805.009984 34.2474465,804.188585 C28.5001604,802.917372 28.1287371,795.211869 29.5948816,789.677205 L29.6339787,789.501191 L29.8179236,788.747359 C30.443564,786.045426 31.1917394,781.498967 31.9912084,776.519172 L32.8985936,770.843703 C33.6805373,766.032653 34.462481,761.280274 35.2053275,757.799107 L35.322619,757.251508 C36.212417,753.169241 38.6518458,744.915617 40.9404675,736.276946 L41.2824172,734.97873 C43.8353684,725.227557 46.0898487,715.228662 45.624727,710.373102 L45.4915538,709.097178 C44.6089147,701.402851 43.2039063,703.777866 38.3526508,707.850235 L37.8052902,708.300048 C32.4880732,712.798185 25.9197462,720.601474 18.1589552,723.437255 C13.5259389,725.138725 4.67042667,726.66418 1.17122869,721.755344 C-2.32796929,716.846508 2.75466465,716.162009 6.70348024,712.231028 C10.6522958,708.280491 20.2115574,696.311536 24.9227681,692.771699 L25.1573512,692.595685 C29.7317217,688.997175 32.4294274,681.917499 35.1857789,678.847032 C40.6202875,672.803884 50.3359377,666.741178 54.8907597,662.947098 L55.0862456,662.771084 C58.1749232,660.267773 63.5312374,656.82572 67.4996016,654.341967 L69.2394263,653.266325 C70.8619594,651.897327 72.7581728,649.863387 73.950637,648.064133 L75.5927187,643.663782 L78.9622135,633.307913 C80.1517734,629.61105 81.1092479,626.497411 82.0128745,623.122315 L82.480146,621.331418 Z M85.6797922,663.788054 C84.6241682,663.983625 83.9399675,665.000595 84.1354534,666.056679 C85.738438,674.427124 83.4903499,682.054399 77.3325434,689.055847 C72.5235897,694.531839 64.6064099,698.013005 53.8937815,700.125174 L53.1900322,700.262074 C52.1344082,700.457645 51.4502075,701.474615 51.6456934,702.530699 C51.8411793,703.586783 52.8577061,704.271282 53.9133301,704.075711 C65.7402283,701.826643 74.6348377,697.993448 80.2452836,691.617829 C87.01154,683.933349 89.652286,675.356478 88.0769276,666.050357 L87.9474289,665.333066 C87.751943,664.276981 86.7354162,663.592482 85.6797922,663.788054 Z" id="bp-hand-right-palmar" fill="#FFFFFF"></path>
                    <path d="M118.853513,419.505293 L121.031784,413.592503 L124.131802,414.162675 C139.950307,417.116849 152.694935,420.19914 162.324044,423.39558 C172.763102,426.860887 186.891526,432.915704 204.701313,441.558201 C204.374301,444.135441 204.053321,446.499666 203.702365,448.824569 L203.408426,450.717355 L203.096604,452.613582 L202.765433,454.516848 C201.696221,460.496445 200.242424,467.118935 197.802102,477.142994 L197.536836,478.230143 C195.309078,487.334371 188.161331,506.61606 180.528095,525.939549 L178.961386,529.889451 L175.887079,537.552339 C167.919316,557.270048 160.395181,574.814982 158.327596,578.729421 L158.165972,579.027515 C154.353996,585.872506 139.751198,611.022956 136.760263,622.366083 L136.150777,624.657328 C135.862203,625.723867 135.550052,626.854673 135.214365,628.049703 L132.324726,627.689461 C120.441918,626.170654 110.526142,624.429466 102.581312,622.4698 C97.5780334,621.235695 91.2273506,619.393536 83.5376711,616.945482 L84.0150373,614.802168 C84.6062107,612.088229 85.2299712,609.008156 85.9331718,605.339277 L86.3248957,603.278339 C87.9362292,594.733713 89.8756039,579.6254 91.6907375,564.128148 L92.2180284,559.586995 L93.66634,546.766715 C95.2646696,532.383377 96.5888211,519.803581 97.2330101,514.567263 L97.3377726,513.752363 C99.2258327,499.600469 109.706967,444.702989 117.465803,423.313763 L118.853513,419.505293 Z" id="bp-forearm-right-front" fill="#FFFFFF"></path>
                    <path d="M138.212947,359.338272 L138.447003,357.492921 L141.343143,358.350333 C154.213674,362.131509 164.896025,364.870798 173.397408,366.56887 L174.333031,366.75326 C184.341231,368.698472 198.326285,370.533933 216.305377,372.263518 L213.286233,385.641039 C211.324056,394.425669 209.726508,401.993608 208.917403,407.783509 L208.094789,414.064323 C206.82884,423.896982 205.997874,431.011154 205.288269,436.844166 C187.95856,428.473303 174.121075,422.569983 163.743098,419.124952 C153.428123,415.700834 139.715867,412.428112 122.628276,409.308901 L130.692248,387.916601 C132.263004,383.716937 133.567712,380.137507 134.570821,377.139413 C136.150873,372.416951 137.381715,365.683168 138.212947,359.338272 L138.212947,359.338272 Z" id="bp-elbow-right-front" fill="#FFFFFF"></path>
                </g>
            </g>
        </g>
        <g id="viewport-boundary" mask="url(#mask-2)" stroke="#FF0000" stroke-width="3">
            <g transform="translate(260, 190)" id="boundary">
                <rect x="0" y="0" width="560" height="1080"></rect>
            </g>
        </g>
    </g>
</svg>