<?xml version="1.0" encoding="UTF-8"?>
<svg width="1080px" height="1460px" viewBox="0 0 1080 1460" version="1.1" xmlns="http://www.w3.org/2000/svg" xmlns:xlink="http://www.w3.org/1999/xlink">
    <title>pelvic-region-back</title>
    <defs>
        <rect id="path-1" x="0" y="0" width="1080" height="1460"></rect>
    </defs>
    <g id="pelvic-region-back" stroke="none" stroke-width="1" fill="none" fill-rule="evenodd">
        <mask id="mask-2" fill="white">
            <use xlink:href="#path-1"></use>
        </mask>
        <g id="mask"></g>
        <g id="bp-pelvic-region-back" mask="url(#mask-2)" fill="#FFFFFF">
            <g transform="translate(277.1694, 553.0033)">
                <path d="M257.935862,169.747087 L257.935862,270.347087 L233.063356,263.601232 C224.661808,241.263763 222.633182,218.793058 227.217345,201.032418 C231.84694,183.095762 242.570989,171.998327 257.935862,169.747087 Z M300.6525,201.032418 C305.232422,218.776622 303.211786,241.222177 294.829799,263.539217 L269.935862,270.290087 L269.936715,169.747473 C285.300082,171.999595 296.023171,183.096787 300.6525,201.032418 Z" id="bp-intergluteal-cleft"></path>
                <path d="M335.598034,0 L341.208216,0.169105766 L344.187311,0.269858443 C368.533709,1.12561573 393.229028,2.79874347 413.08809,6.04250914 C443.102143,10.9526083 473.306159,21.5866353 503.700137,37.9445901 C519.656976,79.8567627 527.662532,134.003492 527.662532,200.384778 L308.837825,259.741789 C324.781772,208.941658 309.505902,161.928408 269.93617,157.639585 L269.93617,120.030881 C301.568862,112.255336 335.598034,64.8287317 335.598034,0 Z" id="bp-buttock-right"></path>
                <path d="M192.064498,0 C192.064498,65.6288741 226.237166,112.542808 257.936685,120.088846 L257.936685,157.639241 C218.348655,161.927642 203.075217,208.978575 219.051502,259.803815 L0,200.384778 C0,134.003492 8.00555671,79.8567627 23.9623952,37.9445901 C54.3563732,21.5866353 84.5603889,10.9526083 114.574442,6.04250914 C136.775162,2.41625863 165.019904,0.752883553 192.064498,0 Z" id="bp-buttock-left"></path>
            </g>
        </g>
        <g id="decoration" opacity="0.15" mask="url(#mask-2)">
            <g transform="translate(-24, -563)">
                <g id="bp-lower-limb-right-back" transform="translate(578.026, 1337.9274)">
                    <path d="M174.302593,647.870023 L176.41876,647.751352 L177.467438,658.978077 C178.302854,668.112429 179.144306,677.76016 180.046445,688.50848 L182.292657,715.92827 L188.120854,788.772781 L189.033418,799.791373 C191.743426,832.23014 194.323645,860.401731 197.165407,887.866839 L197.494486,891.032957 C204.765815,960.676201 213.570015,1023.60286 225.211936,1085.10873 L220.449892,1085.71018 C214.994193,1086.37759 209.888587,1086.92488 205.133415,1087.35119 L201.982823,1069.11994 C184.827185,970.387726 154.828344,805.643304 147.293238,775.657972 L146.386256,772.178518 C139.790252,747.179579 127.259144,702.949737 123.719773,668.695829 C122.99285,661.660695 122.669788,654.791105 122.591166,648.198952 L126.843962,648.292163 C145.75316,648.672995 161.578747,648.532482 174.302593,647.870023 Z" id="bp-lower-leg-medial-right-back" fill="#FFFFFF"></path>
                    <path d="M227.336619,641.72838 L228.076407,647.502544 C237.45008,722.262265 240.633366,794.730836 243.089691,948.315221 L244.758205,1057.28032 L245.06191,1073.79877 C245.114915,1076.55513 245.169679,1079.34633 245.226985,1082.21836 C240.412266,1082.97402 235.794582,1083.65844 231.37315,1084.27501 L230.005687,1076.97988 C219.355569,1019.55703 211.131237,960.702787 204.271458,896.102985 L203.014942,884.0599 C200.630799,860.807605 198.422391,836.947432 196.153025,810.324893 L194.044198,785.034669 L188.015163,709.64551 C185.975151,684.426236 184.329526,665.310027 182.614363,647.313601 L185.769916,647.047739 C197.530624,646.006336 211.385255,644.232636 227.336619,641.72838 Z" id="bp-lower-leg-posterior-right" fill="#FFFFFF"></path>
                    <path d="M291.174117,747.668733 L290.926607,752.122882 C290.869684,753.10327 290.811107,754.085511 290.750965,755.070171 L290.750965,755.395702 L290.593476,762.688136 C289.830674,801.895559 286.874132,979.995128 287.263153,993.958661 L287.277367,994.362905 C287.689857,1003.49949 288.449707,1014.47641 289.334605,1026.04362 L290.425315,1040.01869 L290.859515,1045.22719 L292.514901,1065.41014 L293.057651,1072.21917 L293.350846,1073.71449 L287.317323,1074.87031 C274.391985,1077.32355 262.424129,1079.44502 251.414957,1081.23478 L250.763133,1045.20301 L249.380342,953.430836 C246.843679,791.88874 243.587527,718.829356 233.474438,640.747549 C249.358407,638.154375 267.193859,634.883851 286.981654,630.934595 L287.487985,635.688927 C292.646509,685.014557 292.861705,715.809597 291.174117,747.668733 L291.174117,747.668733 Z" id="bp-lower-leg-lateral-right-back" fill="#FFFFFF"></path>
                    <path d="M257.929915,469.628952 L258.619017,473.668494 C259.344027,477.812347 259.994052,481.168166 260.519812,483.414186 C263.003047,498.325305 265.86455,512.328915 268.822978,526.346286 L269.37875,528.97493 C269.471545,529.413139 269.564418,529.851418 269.657359,530.289794 L270.215766,532.921452 C276.086279,560.570901 282.162084,588.831638 286.296306,624.733744 L281.644892,625.658344 C234.729369,634.928699 199.21683,640.241886 175.154016,641.604676 L173.979831,641.668514 C160.443611,642.373269 143.301472,642.479759 122.589488,641.986005 C122.812356,618.153984 125.720396,598.659875 123.095611,589.266158 L117.882704,570.580925 C113.394658,554.608969 106.108194,529.634322 96.0233118,495.672294 L103.186561,495.059496 C148.765504,491.096821 183.053716,486.871823 206.296314,482.33833 L209.357605,481.727756 C222.832543,478.982749 239.028535,474.948451 257.929915,469.628952 Z M189.283926,547.353986 L189.283926,547.408241 L188.388389,547.571007 C173.489912,550.175258 155.497763,556.19759 145.375482,568.133742 C141.983297,572.121502 147.763581,577.899686 151.155766,573.884798 C159.975447,563.494919 175.498086,558.340672 188.361251,555.817803 L188.741176,555.73642 C206.000614,552.399723 226.815061,553.322062 242.527662,562.219921 C247.113896,564.824173 251.238793,557.770992 246.652559,555.16674 C229.773046,545.59069 207.98165,544.261437 189.283926,547.353986 Z" id="bp-popliteal-fossa-right" fill="#FFFFFF"></path>
                    <path d="M0,69.3653239 L116.214739,37.2158073 L122.909183,89.3184635 C127.732049,126.533825 133.181079,168.036766 138.69442,209.789685 L171.97607,460.753689 C173.175452,469.900012 174.076153,476.851258 174.616432,481.163741 L170.877344,481.665235 C150.028281,484.41669 124.490907,487.05674 94.2180303,489.589703 L91.1819341,479.399298 C90.3121607,476.106898 89.4605456,472.850488 88.6240571,469.61444 L86.5625955,461.557699 L85.7533006,458.346603 L83.7436302,450.240877 C76.0057321,418.646795 69.1395295,385.990175 60.2740389,337.471129 L59.0535766,330.797793 C55.5697064,312.316443 42.7124306,253.18132 29.0957496,193.007929 L24.4677763,172.64731 C15.3739476,132.821825 6.37425726,94.5140494 0,69.3653239 Z" id="bp-thigh-medial-right-back" fill="#FFFFFF"></path>
                    <path d="M122.2598,35.5341219 L250.750319,0 L249.920965,38.2612752 C249.055183,80.2072991 248.036493,135.785219 247.405276,191.761928 L247.124213,219.750488 C246.525676,288.274244 246.648941,354.064269 248.497908,392.536659 C249.31106,409.142152 253.466858,441.405431 256.934875,463.458379 L252.591689,464.674112 C233.984342,469.841579 218.148231,473.699712 205.107888,476.243245 C198.04385,477.621093 189.931296,478.972166 180.764986,480.297234 L178.76607,464.7906 C173.360171,423.408812 160.300508,325.824742 147.16263,226.47826 L140.338534,174.754267 C133.625723,123.73698 127.246679,74.794974 122.2598,35.5341219 Z" id="bp-thigh-lateral-right-back" fill="#FFFFFF"></path>
                </g>
                <g id="bp-lower-limb-left-back" transform="translate(185.6459, 1337.9274)">
                    <path d="M189.722799,657.271259 L190.611993,647.792607 L192.025486,647.870023 L194.904141,648.008648 C208.087786,648.593794 224.371906,648.656937 243.737028,648.197709 C243.658291,654.791105 243.335229,661.660695 242.608306,668.695829 C238.944746,704.151628 225.647381,750.29571 219.270073,774.737695 C211.691651,803.83885 177.701644,991.244919 161.190775,1087.35285 C155.273059,1086.82028 148.809961,1086.10201 141.804252,1085.19621 C153.1317,1025.37143 161.772827,964.205317 168.929358,896.823846 L169.539168,891.032957 C172.071344,866.780315 174.387072,842.081988 176.757253,814.473082 L179.044745,787.164156 L185.763725,703.296803 C187.212279,685.561206 188.470485,670.879968 189.722799,657.271259 L189.722799,657.271259 Z" id="bp-lower-leg-medial-left-back" fill="#FFFFFF"></path>
                    <path d="M138.957246,647.502544 L139.680309,641.836274 L143.986187,642.499026 C159.581656,644.861949 173.056964,646.485994 184.416081,647.371022 L183.484643,657.319832 C182.244655,670.81305 180.997503,685.378088 179.564541,702.926041 L173.257691,781.745737 C172.761866,787.838527 172.290156,793.562807 171.813006,799.274292 L170.571525,813.938319 C168.204288,841.513088 165.891918,866.175697 163.363956,890.387982 C156.184678,959.149578 147.510583,1021.32753 136.081927,1082.043 L135.643293,1084.37068 C131.228776,1083.75929 126.616795,1083.07964 121.807463,1082.33172 L122.442556,1047.47976 C122.717987,1030.89428 123.014683,1010.94312 123.466011,979.776362 L123.783002,958.560094 C126.263353,797.915162 129.377558,723.905335 138.957246,647.502544 L138.957246,647.502544 Z" id="bp-lower-leg-posterior-left" fill="#FFFFFF"></path>
                    <path d="M78.9953861,634.177143 L79.3439474,630.934101 L85.3065206,632.115193 C103.013395,635.59559 119.092761,638.510072 133.54728,640.858546 C132.863155,646.124856 132.212734,651.367803 131.591604,656.61679 L131.015101,661.564056 L130.505247,666.073666 C122.793934,735.298044 119.948184,808.538088 117.692795,950.927271 L116.003449,1060.794 L115.614068,1081.3439 L110.718762,1080.5415 C99.1515318,1078.61867 86.5704442,1076.34196 72.9772333,1073.71449 L73.2704282,1072.21917 L73.8131778,1065.41014 L75.4685641,1045.22719 L75.9027638,1040.01869 L76.9934734,1026.04362 C77.76776,1015.92231 78.4463056,1006.25294 78.8801796,997.872948 L79.0507115,994.362905 C79.0816483,993.677662 79.0974423,992.24796 79.0997348,990.163587 L79.0879763,985.380667 C78.8728395,942.020068 75.8462527,763.809344 75.577114,755.395702 L75.577114,755.070171 C75.2463302,749.654545 74.9629179,744.312048 74.7414065,738.948945 L74.6268083,736.021008 L74.4767942,731.537848 C73.6698497,704.56271 74.5729404,676.000169 78.9953861,634.177143 Z" id="bp-lower-leg-lateral-left-back" fill="#FFFFFF"></path>
                    <path d="M108.398587,469.629071 L112.712373,470.833819 C131.197282,475.955517 146.975634,479.791718 160.031765,482.33833 L162.475583,482.806213 C186.894115,487.396282 222.751256,491.668707 270.307397,495.670174 L259.635735,531.80785 C254.588185,549.024894 250.692885,562.540336 247.949249,572.35061 L243.232468,589.266158 C240.607683,598.659875 243.515723,618.153984 243.742751,641.983419 L239.507659,642.07751 C221.376671,642.447977 206.120254,642.334139 193.761409,641.739285 L192.348248,641.668514 C167.495893,640.374591 130.039075,634.732274 80.034809,624.739574 C84.6091843,584.98293 91.5667657,554.599609 97.9905487,524.041797 L98.9690999,519.362553 C101.403125,507.654705 103.737249,495.850058 105.808267,483.414186 L106.180343,481.738488 C106.743248,479.086509 107.412925,475.454108 108.143062,471.138526 L108.398587,469.629071 Z M119.67552,555.16674 C115.089285,557.770992 119.214183,564.824173 123.800417,562.219921 C139.513018,553.322062 160.327465,552.399723 177.586903,555.73642 L177.966828,555.817803 C190.829993,558.340672 206.352632,563.494919 215.172313,573.884798 C218.564498,577.899686 224.344782,572.121502 220.952596,568.133742 C211.071323,556.481784 193.690474,550.465388 179.00898,547.762871 L177.044153,547.408241 L177.044153,547.353986 C158.346429,544.261437 136.555032,545.59069 119.67552,555.16674 Z" id="bp-popliteal-fossa-left" fill="#FFFFFF"></path>
                    <path d="M250.11334,37.2158073 L366.328079,69.3653239 L364.716245,75.7793708 C346.807753,147.606127 312.032494,304.44948 306.978409,332.394726 L304.694557,344.871717 C296.030246,391.778599 289.215881,423.595626 281.38258,455.111848 L280.171139,459.951756 L279.357728,463.164865 C277.99495,468.524604 276.595767,473.911964 275.146145,479.399298 L272.111643,489.591953 L266.659593,489.129885 C236.960259,486.582123 211.994451,483.928731 191.711839,481.160631 L194.352119,460.751911 C200.207818,416.098112 213.18341,319.117662 226.093232,221.449456 L238.789144,124.896814 C242.959043,92.9688292 246.832847,63.0298774 250.11334,37.2158073 Z" id="bp-thigh-medial-left-back" fill="#FFFFFF"></path>
                    <path d="M115.57776,0 L244.068279,35.5341219 L239.801851,68.8638865 C234.399041,110.796791 227.982773,159.717473 221.476505,208.989774 L187.949984,461.82416 C186.878481,470.006082 186.065748,476.286886 185.560557,480.316071 L181.405756,479.695227 C173.92543,478.555817 167.197453,477.409116 161.220191,476.243245 L158.161264,475.632942 C144.690956,472.887193 128.426885,468.827238 109.395085,463.458201 L109.982769,459.6613 C110.872087,453.835433 111.791638,447.45293 112.6761,440.928014 L113.35116,435.86698 C115.424514,420.063845 117.198298,404.053771 117.774837,393.598218 L117.830171,392.536659 C119.811207,351.316241 119.811207,278.736294 119.064926,205.033942 L118.774854,179.210881 C117.976647,114.249716 116.708807,51.1678995 115.821997,10.7967927 L115.57776,0 Z" id="bp-thigh-lateral-left-back" fill="#FFFFFF"></path>
                </g>
                <g id="bp-upper-limb-right-back" transform="translate(808.5046, 447.2463)">
                    <path d="M216.584231,806.93818 L216.367131,807.019563 L216.747056,807.182328 L218.890917,813.09615 L218.890917,813.041894 C220.519166,815.537635 223.151501,818.358908 225.403912,820.257841 L227.819148,821.74986 L228.958922,822.482306 L232.087199,824.466371 C236.740701,827.444859 241.805127,830.824049 245.02431,833.468992 L245.295685,833.713141 C251.618718,838.975899 265.106046,847.385461 272.650265,855.767896 C276.47665,860.026932 280.221622,869.84713 286.571793,874.838612 L286.897443,875.082761 C290.072528,877.469991 294.821587,882.569984 299.489234,887.85987 L306.907277,896.318044 C309.001812,898.690455 310.839086,900.724745 312.189574,902.074743 C317.671345,907.527394 324.72709,908.476861 319.869481,915.285893 C315.011872,922.094926 302.718594,919.978972 296.287011,917.618869 C285.513431,913.685364 276.395238,902.861444 269.013843,896.622091 L268.253994,895.998156 L264.574325,892.817278 C260.487139,889.365651 259.152359,889.323382 258.158851,899.497619 C256.93205,912.294372 269.33433,950.845969 272.31239,963.861359 L272.623128,965.282097 L272.785953,966.123053 L273.235857,968.376529 C273.989048,972.285544 274.757943,976.919846 275.526838,981.667179 L276.123863,985.410791 L278.018893,997.110978 C278.870011,1002.25051 279.667447,1006.62459 280.330172,1009.22884 L280.384447,1009.47299 C282.419758,1017.15011 281.904146,1027.83839 273.925727,1029.60168 C268.769606,1030.74104 266.164408,1027.10594 264.156234,1022.62989 L263.939134,1022.14159 C263.749172,1021.70755 263.55921,1021.24638 263.369247,1020.78521 L263.23356,1020.43255 L262.962185,1019.78149 L262.36516,1018.26234 C262.129969,1017.66553 261.894777,1017.08078 261.651545,1016.50809 L261.062561,1015.16979 C259.921359,1012.69404 258.628081,1008.06829 257.318796,1002.84704 L256.422052,999.218749 L253.843992,988.232063 C252.975592,984.569835 252.161468,981.341648 251.510168,979.171438 L251.320206,978.574631 C250.424669,975.590592 249.149207,970.382089 247.710921,965.092204 L247.249584,963.437419 C247.195309,963.274653 247.168171,963.08476 247.113896,962.921994 L246.896797,962.162421 L246.761109,961.646996 C246.706834,961.48423 246.652559,961.321464 246.625422,961.131571 L246.489734,960.643274 L246.097371,959.308256 C244.057503,952.476964 241.831134,946.780238 239.868189,947.187974 C236.522677,947.888469 240.934802,964.550336 243.85086,974.894365 L245.34996,980.17516 L245.865572,982.074094 C246.652559,984.976749 247.548096,988.61185 248.443633,992.436844 L248.850695,994.173012 L250.390958,1001.0872 C251.404529,1005.73191 252.252458,1009.94373 252.67708,1012.64692 L252.758492,1013.24373 C253.484819,1018.16021 255.210913,1025.48795 256.723238,1031.67259 L258.131713,1037.38731 C259.7871,1044.08783 257.344727,1054.20643 250.017607,1055.04739 C242.744762,1055.88835 238.538453,1050.30006 237.344403,1046.71921 L237.344403,1046.6107 L237.154441,1046.1224 L236.633053,1044.30145 C236.13817,1042.52827 235.506808,1040.16983 234.847755,1037.63146 L232.54743,1028.96927 C232.152028,1027.50268 231.775178,1026.13147 231.436754,1024.96159 L230.858546,1023.00967 L229.812748,1019.60415 C228.974752,1016.91651 227.923175,1013.60091 226.815061,1010.09692 L225.3225,1005.48523 L222.344036,996.534245 C222.203951,996.117912 222.066002,995.710244 221.930315,995.312372 L221.279015,993.413439 C220.072905,989.947132 218.238612,983.388044 216.208559,976.768811 L215.28176,973.791526 C212.433879,964.793806 209.340604,956.538118 207.11325,956.818279 C205.105077,957.062428 206.597638,964.549651 208.931462,973.013469 L209.067149,973.528893 L209.609899,975.373571 L210.34261,977.923568 L210.613985,978.845907 L211.696516,982.344098 C212.776503,985.783796 213.829777,988.998418 214.684607,991.541633 L216.204306,996.01769 L216.529956,997.04854 L217.445041,999.908817 C218.526955,1003.34252 219.875848,1007.7831 221.22474,1012.4299 L222.690164,1017.55702 L223.612838,1020.9751 C225.078262,1026.48201 226.272311,1031.55487 226.706511,1034.75593 L226.760786,1035.18997 C227.764873,1043.73517 225.3225,1046.93623 220.057828,1048.48251 C215.059686,1049.9474 211.550332,1048.36012 208.629464,1043.72068 L208.171612,1042.9756 C206.700936,1040.45536 203.883269,1032.42208 200.997556,1023.76841 L199.813268,1020.1884 L197.64227,1013.59639 L195.20226,1006.10039 C194.645906,1004.41081 194.13905,1002.88963 193.702535,1001.60458 L193.191723,1000.11396 C192.082101,996.930987 190.908154,993.104988 189.72706,989.112278 L185.918715,976.109381 C185.224756,973.77174 184.556197,971.586447 183.924762,969.682414 L182.833621,966.402559 C180.625799,959.580752 179.985399,955.949321 178.157559,956.329982 C176.257935,956.736897 177.044922,961.104443 179.378745,969.161346 L180.030045,971.385811 L183.015168,981.260265 L191.49905,1009.14811 C191.940142,1010.6194 192.293472,1011.81953 192.540423,1012.67405 L193.001761,1014.32883 C193.083173,1014.62724 193.164585,1014.92564 193.245998,1015.25117 L193.354548,1015.63096 L193.54451,1016.39053 L193.65306,1016.77032 L193.88351,1017.74117 C195.058669,1022.9343 195.27652,1028.28998 189.9895,1029.87296 C183.203868,1031.88671 181.855125,1025.69633 177.825869,1018.45569 L177.153472,1017.25862 L176.882097,1016.79745 L176.20205,1015.56352 C172.077185,1007.95039 167.138313,996.528832 160.762434,979.361332 L160.355372,978.221972 C159.291659,975.309382 158.228597,972.224889 157.191518,969.091671 L156.34931,966.519754 L155.52178,963.941084 L153.979695,959.007596 C149.805041,945.435105 146.650944,933.461399 146.650944,933.461399 L146.460982,931.942252 C146.216744,929.79917 145.755407,925.621517 145.429757,920.901311 L145.266933,917.863017 L145.266933,917.103444 L145.212658,916.533764 C145.212658,915.964084 145.18552,915.394404 145.158383,914.851852 L145.104108,912.13909 L144.96264,906.686004 C144.895719,904.39882 144.81219,901.873347 144.717914,899.297091 L144.615633,896.513581 L144.507083,893.882201 L144.318817,889.780421 C144.206875,887.490256 144.079668,885.364129 143.937196,883.573706 L143.855784,882.624239 C143.557271,878.934883 143.855784,872.749786 144.344258,866.42905 L144.425671,865.235435 L144.534221,863.933309 L144.588496,863.173736 L145.155613,857.219342 C145.462156,854.134742 145.768699,851.324008 146.024774,849.12587 L146.271019,847.087057 C146.840906,842.312596 147.247969,836.290265 146.976594,831.488676 L147.166556,831.488676 L145.565445,825.05943 L145.646857,824.896664 L142.985928,816.359332 C141.467382,811.462309 140.069584,806.895514 138.792022,802.659967 C153.049111,800.706163 165.167064,798.498215 175.155347,796.036481 L177.216415,795.518096 C185.661041,793.353542 196.509805,790.096845 209.75969,785.749564 L210.868991,789.332417 C212.411579,794.226336 214.229934,799.688892 216.584231,806.93818 Z" id="bp-hand-right-dorsal" fill="#FFFFFF"></path>
                    <path d="M157.600198,498.917865 L158.455748,501.264159 C169.336521,531.235839 184.073923,608.640118 186.474101,627.294443 L187.034149,632.035417 C188.273112,642.879135 190.464586,663.678724 192.946657,685.450949 L194.840708,701.724394 C197.182912,721.382307 199.628601,740.006549 201.685754,750.919645 L202.648762,755.955407 C204.699393,766.468934 206.272003,773.36653 208.03398,779.782221 L203.195513,781.356221 C191.121057,785.24747 181.27448,788.132681 173.669826,790.00694 L170.755881,790.703319 C161.335214,792.887095 150.079587,794.867269 136.993994,796.641538 L134.975915,789.759217 C133.59759,784.992751 132.442442,780.843875 131.50823,777.314819 C128.463405,765.776538 116.749783,743.938683 108.632106,729.367912 L101.792689,717.200013 C98.8140791,711.883 84.2359115,677.675462 70.7494469,643.561844 L68.2171955,637.12406 C58.6059437,612.560876 49.9824725,589.000347 47.1378034,577.384261 L46.0761939,573.016953 C42.5748722,558.505342 40.6433395,549.322434 39.1865326,540.453594 L38.8092769,538.097252 L38.5787771,536.595872 L38.3543148,535.086579 C37.9570221,532.373241 37.5830904,529.595789 37.2019661,526.614312 L40.8804653,524.838374 C63.9340368,513.761885 82.3592546,505.936584 96.1483246,501.362878 C110.381818,496.64176 129.518091,492.100277 153.487501,487.761737 L155.921706,494.340668 C156.473868,495.84083 157.033425,497.366514 157.600198,498.917865 L157.600198,498.917865 Z" id="bp-forearm-right-back" fill="#FFFFFF"></path>
                    <path d="M134.683315,437.215849 L135.874453,440.662546 C139.318889,450.469542 144.606884,464.018513 151.283053,481.848288 L147.020572,482.637834 C125.26472,486.729145 107.647427,491.006252 94.1939628,495.468641 L91.9356642,496.232083 C77.7749068,501.10649 59.2736873,509.061565 36.3942632,520.105478 L33.7014263,498.0017 C33.0638893,492.893718 32.3348409,487.17997 31.4794772,480.701424 L31.1868094,478.608132 C29.4418464,466.789204 25.4996027,449.970548 21.0924781,430.448277 L25.210922,430.046486 C48.2567485,427.761941 66.3386648,425.345896 79.4803894,422.793687 C92.3452129,420.295254 108.948619,416.013313 129.304234,409.946597 L129.688315,412.98115 C130.839608,421.648634 132.524596,430.783279 134.683315,437.215849 Z" id="bp-elbow-right-back" fill="#FFFFFF"></path>
                    <path d="M60.2730146,126.576465 C72.462761,126.430177 87.6406035,128.212331 110.124579,132.191292 L111.004053,139.420755 C112.636896,153.194963 114.518114,170.882055 116.315824,189.283276 L117.040768,196.790553 L118.002394,207.033871 L118.734946,215.082429 C119.852597,227.541537 120.860757,239.645335 121.655661,250.396382 L122.091524,256.32888 C125.293747,302.038919 127.790395,379.162743 127.898945,390.719109 L127.898945,391.912724 L127.926221,393.215971 C128.006877,395.971906 128.243712,399.600322 128.628488,403.666378 L122.735472,405.410869 C104.74208,410.677023 89.9264018,414.439116 78.2969216,416.697637 L76.002811,417.13227 C62.3295311,419.660561 43.5645432,422.065093 19.7204112,424.341532 L18.4051728,418.421732 C12.6843722,392.483978 6.77474567,362.956567 4.17917198,334.483553 L4.04348458,333.018661 C3.20222269,323.198463 1.68252378,301.632005 0,277.434168 C1.84534867,269.295882 3.98920962,260.696427 6.51299529,251.527291 C15.8211511,217.482128 29.8783659,188.564086 40.787633,166.9705 L46.323679,156.038069 L49.3074993,150.08258 C50.7221218,147.236784 52.0116949,144.590214 53.1351866,142.148728 L60.2730146,126.576465 Z" id="bp-upper-arm-right-back" fill="#FFFFFF"></path>
                    <path d="M20.7058975,0 L21.8185342,0.515424777 C36.4456362,7.35158498 48.4946775,13.9435966 56.1474469,20.2100768 C89.3551532,47.4039451 103.967942,97.1115858 107.445408,114.029902 L107.654385,115.075363 C108.102815,117.384742 108.658758,121.03812 109.291359,125.73893 L106.041062,125.178614 C84.1761681,121.458219 69.321477,119.956877 57.0580826,120.440511 L44.5326053,112.769516 C21.5200219,98.6631534 7.27284474,60.2504437 7.27284474,42.319087 C7.27284474,30.4668603 11.5005144,17.3671605 19.067661,2.7980201 L20.5430727,0 L20.7058975,0 Z" id="bp-shoulder-right-back" fill="#FFFFFF"></path>
                </g>
                <g id="bp-back" transform="translate(291.2256, 361.3331)">
                    <path d="M219.546034,741.519573 L328.005473,741.517383 L328.003202,741.65333 C326.950265,804.506189 308.874815,843.303917 273.774361,858.04547 C238.651663,843.293463 220.575554,804.451148 219.546034,741.519573 Z" id="bp-sacrum" fill="#FFFFFF"></path>
                    <path d="M223.703326,477.929685 L213.732847,735.76569 L207.966307,735.806285 C114.940143,736.693959 78.3848446,748.588608 39.3608057,771.509508 C55.0506114,715.433463 67.5753212,611.100596 67.8242464,583.460979 L67.8490945,567.946733 C90.8076592,569.34639 125.14554,563.198484 152.983504,550.673938 C176.599149,540.036662 201.364656,515.132719 222.7055,479.602913 L223.703326,477.929685 Z" id="bp-lower-back-structure-left" fill="#FFFFFF"></path>
                    <path d="M323.890993,478.006673 C345.445321,514.386942 370.597321,539.877996 394.563984,550.673382 C422.403947,563.198828 456.743494,569.346813 479.702104,567.946578 L479.727204,583.460979 L479.756797,585.210389 L479.813961,587.097608 C480.973049,619.288085 493.122155,717.654074 508.190644,771.509508 L505.757459,770.093118 L503.423142,768.759457 C465.304899,747.192165 427.248395,736.200381 333.885,735.765997 L323.890993,478.006673 Z" id="bp-lower-back-structure-right" fill="#FFFFFF"></path>
                    <path d="M316.839582,462.563453 C317.262234,463.37445 320.867472,554.289125 327.655297,735.307477 L219.967538,735.307477 L230.312823,462.563453 L316.839582,462.563453 Z" id="bp-lumbar-vertebral-spine" fill="#FFFFFF"></path>
                    <path d="M323.366378,464.49507 L318.995535,351.703023 L324.680213,353.300387 C347.039871,359.527125 364.849378,363.800945 378.054736,366.111835 L379.144524,366.299865 C393.244789,368.697356 415.229632,370.98997 445.312028,373.209917 L445.279892,373.534379 C440.357388,425.00885 452.056888,462.990921 480.503023,487.172573 L480.432845,489.555261 L480.285918,495.196564 L480.15913,500.883342 L480.018718,508.515407 C479.91958,514.581321 479.848921,520.639628 479.799181,526.575244 L479.739314,535.372263 L479.695941,548.033907 L479.690728,558.991845 L479.695942,561.746033 C458.024223,563.171967 424.301879,557.243469 397.112278,545.010627 C372.27762,533.824267 345.562475,505.396902 323.366378,464.49507 Z" id="bp-infrascapular-region-right" fill="#FFFFFF"></path>
                    <path d="M228.582857,351.694281 L224.226696,464.413312 C202.021839,505.359022 175.287586,533.816842 150.43521,545.011183 C123.247663,557.2431 89.5270513,563.17153 67.8552734,561.746201 L67.8607224,558.991845 L67.8555088,548.033907 L67.8121362,535.372263 L67.7522693,526.575244 L67.661025,517.594187 C67.6247505,514.579419 67.5823014,511.548364 67.5327323,508.515407 L67.3923201,500.883342 L67.2655323,495.196564 L67.1186052,489.555261 L67.0481817,487.170462 C95.5522641,462.937916 107.240264,424.847729 102.237592,373.209837 L111.375051,372.51369 C135.631512,370.604235 153.995473,368.639384 166.600635,366.598999 L168.404199,366.299865 C182.046811,363.980189 200.801268,359.481532 224.604434,352.815602 L228.582857,351.694281 Z" id="bp-infrascapular-region-left" fill="#FFFFFF"></path>
                    <path d="M501.921886,331.445259 C490.338563,373.796886 486.128623,404.026135 483.464296,435.741732 L483.000151,441.469532 L482.553613,447.358784 L481.975838,455.472737 C481.47382,462.722024 481.080138,470.698446 480.771949,479.054299 C456.432791,455.88087 446.702931,420.440473 451.635596,372.358187 L451.727439,371.502918 L459.632561,360.608302 C489.589381,319.218665 512.474659,286.368093 528.302644,262.023038 C519.016358,281.603238 509.125069,305.057221 501.921886,331.445259 Z" id="bp-lateral-chest-wall-right" fill="#FFFFFF"></path>
                    <path d="M20.3113248,264.275001 L19.2493172,262.028019 L22.5868597,267.128648 C39.1944515,292.355579 62.7063339,325.904721 93.1362911,367.808529 L95.8244011,371.506883 C100.959779,420.020741 91.2600256,455.741918 66.7826943,479.053098 C66.4712338,470.696872 66.0775802,462.721309 65.5756118,455.472737 L64.9978368,447.358784 L64.5512986,441.469532 L64.0871537,435.741732 L63.5896235,430.046038 L63.0847556,424.705599 C60.3428516,396.82452 55.8645886,368.867157 45.6295637,331.445259 C38.7005072,306.061452 29.2840505,283.392631 20.3113248,264.275001 L20.3113248,264.275001 Z" id="bp-lateral-chest-wall-left" fill="#FFFFFF"></path>
                    <path d="M302.921093,97.3379274 L316.839582,456.353547 L230.748484,456.353547 L244.628158,97.3379274 C253.266699,102.177446 263.018763,106.079506 273.774361,108.372129 C284.529959,106.079506 294.28224,102.177446 302.921093,97.3379274 Z" id="bp-thoracic-vertebral-spine" fill="#FFFFFF"></path>
                    <path d="M33.6196838,82.8969082 L33.0124359,81.6550835 L40.4709519,83.4734381 C119.710263,102.983189 161.845297,119.625937 164.875624,131.521732 C172.277853,160.650651 174.273415,239.490093 164.916362,269.957574 L164.456963,271.43644 C151.162487,313.782752 127.145922,351.939555 100.331393,366.131494 L99.7934703,366.408155 L92.7900468,356.751887 C40.0892298,283.927707 9.35111004,237.604604 0.891546342,218.351577 L0.382039307,217.159925 C0.280600069,216.915485 0.151547541,216.690882 0,216.488232 C27.930861,197.355975 45.6295637,150.581073 45.6295637,128.232259 C45.6295637,114.608165 41.6199172,99.4836801 33.6196838,82.8969082 Z" id="bp-scapula-left" fill="#FFFFFF"></path>
                    <path d="M501.921886,128.232259 C501.921886,150.58041 519.619539,197.353201 547.550479,216.49316 C547.397175,216.690882 547.268123,216.915485 547.166683,217.159925 L546.916914,217.752586 C538.589966,237.222309 506.065264,286.096189 449.700271,363.730285 L447.753351,366.408155 L447.21733,366.131494 C420.091004,351.774531 395.828083,312.892123 382.632169,269.956953 C373.275307,239.490093 375.27087,160.650651 382.673544,131.51998 C385.797168,119.257945 430.482244,101.949164 514.536534,81.6550237 C506.133456,98.7304476 501.921886,114.269329 501.921886,128.232259 Z" id="bp-scapula-right" fill="#FFFFFF"></path>
                    <path d="M309.130747,97.3340613 L376.083269,132.382667 C368.898227,164.177048 367.216756,240.911547 376.697259,271.780994 C388.955591,311.665582 410.439794,348.158159 435.682651,366.24765 L430.214718,365.804209 C408.768357,364.026868 392.424575,362.206349 381.115837,360.333948 L378.078979,359.809414 C364.839099,357.431504 346.936049,353.088531 324.468248,346.793628 L318.913131,345.223945 C318.855784,345.207608 318.798355,345.192996 318.740898,345.180077 L309.130747,97.3340613 Z" id="bp-interscapular-region-right" fill="#FFFFFF"></path>
                    <path d="M238.415099,97.3340613 L228.833692,345.176364 L228.635591,345.223945 L221.088696,347.349889 C199.567287,353.34085 182.340014,357.496408 169.496588,359.804591 L167.363627,360.177794 L164.501465,360.645535 C152.303408,362.564038 134.782932,364.428102 111.869171,366.245374 C137.108925,348.15817 158.593106,311.665664 170.851273,271.781615 C180.332206,240.910767 178.650409,164.173093 171.465311,132.381831 L238.415099,97.3340613 Z" id="bp-interscapular-region-left" fill="#FFFFFF"></path>
                </g>
                <g id="bp-upper-limb-left-back" transform="translate(0, 447.2463)">
                    <path d="M111.178055,787.564605 L111.735698,785.749564 L118.160533,787.832315 C129.572509,791.484049 138.966453,794.219171 146.340042,796.036481 C156.328324,798.498215 168.446277,800.706163 182.700242,802.66325 L181.577386,806.373079 C180.808906,808.900624 180.000637,811.536741 179.152759,814.28095 L175.848531,824.896664 L175.929944,825.05943 L174.328832,831.488676 L174.518795,831.488676 C174.24742,836.290265 174.654482,842.312596 175.224369,847.087057 L175.387194,848.416311 C175.712844,851.160076 176.138182,855.059809 176.543583,859.312598 L176.906893,863.173736 L176.961168,863.933309 L177.069718,865.235435 L177.15113,866.42905 L177.306361,868.527701 C177.69857,874.09344 177.904949,879.344811 177.639605,882.624239 L177.558193,883.573706 L177.420809,885.469672 C177.310563,887.132299 177.210918,888.988315 177.121873,890.938378 L176.988305,893.882201 L176.879755,896.513581 L176.644853,903.09995 C176.590144,904.752347 176.541514,906.340507 176.500699,907.80887 L176.391281,912.13909 L176.337006,914.851852 C176.309868,915.394404 176.282731,915.964084 176.282731,916.533764 L176.228456,917.103444 L176.228456,917.863017 L176.065631,920.901311 L175.937841,922.643042 C175.628039,926.63414 175.248114,930.067055 175.034407,931.942252 L174.844444,933.461399 C174.844444,933.461399 172.075731,943.972096 168.293014,956.460737 L166.783376,961.370653 L165.973608,963.941084 C165.4275,965.659117 164.86955,967.382642 164.30387,969.091671 L163.735766,970.795126 C163.094093,972.704412 162.44437,974.586916 161.792451,976.414178 L160.732955,979.361332 L159.683507,982.169711 C153.465372,998.704752 148.649634,1009.60149 144.613291,1016.79745 L144.341917,1017.25862 L143.386165,1018.97099 C139.572956,1025.98646 138.129958,1031.83877 131.505888,1029.87296 C125.88843,1028.19105 126.485454,1022.2501 127.842328,1016.77032 L127.950878,1016.39053 L128.140841,1015.63096 L128.249391,1015.25117 L128.493628,1014.32883 L129.192255,1011.8587 C129.54222,1010.66335 130.024182,1009.04437 130.610351,1007.11289 L140.857718,973.416992 C141.078634,972.682851 141.282166,972.002965 141.465344,971.385811 L142.116643,969.161346 C144.450466,961.104443 145.237453,956.736897 143.33783,956.329982 C141.44696,955.936194 140.826836,959.835966 138.427668,967.11961 L137.883196,968.754432 C137.161339,970.862248 136.386293,973.382133 135.576673,976.109381 L132.211463,987.608128 C131.029475,991.635072 129.847487,995.554846 128.722677,998.891134 L127.333663,1002.96583 C126.371477,1005.83572 125.155718,1009.5598 123.853119,1013.59639 L120.786584,1022.90116 C117.801461,1031.8804 114.843475,1040.37135 113.323776,1042.9756 L113.188089,1043.19262 C110.202966,1048.23836 106.620819,1050.00165 101.43756,1048.48251 C96.1728888,1046.93623 93.7305156,1043.73517 94.7346024,1035.18997 L94.7888773,1034.75593 C95.223077,1031.55487 96.4171261,1026.48201 97.8825501,1020.9751 L98.8052244,1017.55702 L100.270648,1012.4299 L101.508003,1008.22244 C102.322536,1005.48761 103.10596,1002.92418 103.796057,1000.71872 L105.291082,996.01769 L106.810781,991.541633 C107.950555,988.15068 109.443117,983.566113 110.881403,978.845907 L111.152778,977.923568 L111.88549,975.373571 L112.42824,973.528893 L113.156876,970.812922 C113.251866,970.451331 113.344789,970.092676 113.43542,969.737487 L113.751406,968.474685 L114.054655,967.207062 C115.410699,961.389137 115.911169,957.004175 114.382138,956.818279 C110.349422,956.311036 103.478163,983.784815 100.364094,992.982831 L98.7187865,997.808113 C98.1358332,999.538252 97.520717,1001.38896 96.9056008,1003.28789 L96.1728888,1005.48523 L94.6803274,1010.09692 L91.4378068,1020.39117 L90.6368428,1023.00967 L90.2569181,1024.28467 C89.741306,1026.02084 89.1171439,1028.32669 88.4658444,1030.76817 L85.1747722,1043.17056 C84.8476983,1044.3652 84.561924,1045.37833 84.3409474,1046.1224 L84.150985,1046.6107 L84.150985,1046.71921 C82.9569359,1050.30006 78.7506264,1055.88835 71.4777817,1055.04739 C64.150662,1054.20643 61.7082887,1044.08783 63.363675,1037.38731 L64.4274996,1033.0779 C66.0130068,1026.62957 67.9546982,1018.5384 68.7368961,1013.24373 L68.8183086,1012.64692 L69.0254549,1011.39918 C69.4885762,1008.73152 70.2356551,1005.06838 71.10443,1001.0872 L72.2647686,995.854924 L72.6446933,994.173012 L73.6475889,989.920934 C74.2410398,987.445065 74.8237697,985.107177 75.3636157,983.068029 L75.901191,981.070372 L76.1454283,980.17516 C77.0552238,976.939157 78.6990956,971.340947 80.1285181,965.664199 L80.4959227,964.183028 C82.5432472,955.796649 83.9417044,947.672593 81.6271993,947.187974 C79.5376133,946.753933 77.1495151,953.237434 75.0056541,960.643274 L74.8699667,961.131571 C74.8428292,961.321464 74.7885543,961.48423 74.7342793,961.646996 L74.5985919,962.162421 L74.3814921,962.921994 C74.3272171,963.08476 74.3000796,963.274653 74.2458047,963.437419 L73.7844675,965.092204 L72.7396745,969.010873 C71.7321955,972.847312 70.8468352,976.336602 70.1751826,978.574631 L69.9852202,979.171438 L69.6465043,980.341819 C69.0610383,982.429767 68.3750631,985.180206 67.6513969,988.232063 L65.0733363,999.218749 L63.9457362,1003.76194 C62.7925614,1008.30236 61.658081,1012.30797 60.6357668,1014.71089 L60.2157273,1015.65809 C59.9624442,1016.21872 59.7212221,1016.79142 59.4840204,1017.37617 L58.5332035,1019.78149 L58.2618287,1020.43255 L58.1261413,1020.78521 C57.936179,1021.24638 57.7462166,1021.70755 57.5562542,1022.14159 L57.3391544,1022.62989 C55.3309808,1027.10594 52.7257827,1030.74104 47.5696614,1029.60168 C39.5912422,1027.83839 39.0756301,1017.15011 41.1109411,1009.47299 L41.1652161,1009.22884 C41.952203,1006.13629 42.9291523,1000.548 43.9603766,994.145884 L45.3715255,985.410791 L45.9685501,981.667179 C46.8912244,975.970379 47.8138988,970.436345 48.7094356,966.123053 L48.8722605,965.282097 L49.0350854,964.522523 C51.7216959,952.206584 64.5848616,912.518876 63.3365375,899.497619 L63.2103972,898.278558 C62.2270196,889.332823 60.8379499,889.509469 56.9210632,892.817278 L53.2413948,895.998156 L52.4815454,896.622091 C45.1001507,902.861444 35.9819573,913.685364 25.2083776,917.618869 C18.7767948,919.978972 6.48351614,922.094926 1.62590715,915.285893 C-3.23170184,908.476861 3.82404306,907.527394 9.3058141,902.074743 L10.1216482,901.238832 C11.5630554,899.73135 13.3999915,897.671821 15.4391018,895.351867 L22.0061549,887.85987 L24.1065043,885.500754 C27.8303636,881.359831 31.4474099,877.582635 34.1100852,875.460876 L34.9235956,874.838612 C41.273766,869.84713 45.0187383,860.026932 48.845123,855.767896 C56.3893426,847.385461 69.8766703,838.975899 76.1997033,833.713141 L76.4710781,833.468992 C80.4331502,830.213678 87.1903828,825.846131 92.5364664,822.482306 L93.6762406,821.74986 L96.0914764,820.257841 C98.3438873,818.358908 100.976223,815.537635 102.604472,813.041894 L102.604472,813.09615 L104.748333,807.182328 L105.128257,807.019563 L104.911158,806.93818 L109.716799,792.186565 C110.23292,790.580477 110.717389,789.052112 111.178055,787.564605 L111.178055,787.564605 Z" id="bp-hand-left-dorsal" fill="#FFFFFF"></path>
                    <path d="M165.911085,493.423925 L168.007714,487.761705 L172.31253,488.552764 C194.278752,492.651399 211.976174,496.927878 225.347064,501.362878 L227.562838,502.112072 C241.840069,507.028107 260.753063,515.195699 284.292454,526.612711 C283.886987,529.792266 283.48902,532.738868 283.062105,535.622923 L282.568228,538.846666 C282.013664,542.343524 281.395313,545.842064 280.645604,549.651714 L280.31606,551.304371 C278.907811,558.277324 277.049909,566.383297 274.357585,577.384261 L274.013241,578.741617 C270.944554,590.463647 262.949699,612.333477 253.982533,635.321243 L250.745942,643.561844 L246.303468,654.707512 C234.212762,684.804593 222.355915,712.46385 219.7027,717.200013 L213.411044,728.385918 C205.463155,742.617293 193.640576,764.514994 190.208049,776.512364 L188.880312,781.410453 C187.685697,785.751718 186.227592,790.829502 184.50432,796.640455 C170.039763,794.680756 157.811413,792.468075 147.825562,790.00694 L144.735585,789.221984 C136.546754,787.084178 126.118202,783.936025 113.465192,779.781445 L114.09135,777.445794 C115.745787,771.13292 117.302168,764.028778 119.348297,753.361131 L119.809634,750.919645 C122.089183,738.826755 124.845815,717.265321 127.410064,695.321048 L129.081169,680.757092 C131.441922,659.844683 133.485085,640.453576 134.608719,630.753013 L134.952348,627.841634 C136.124687,618.319839 141.016273,590.999613 146.9991,563.112685 L147.668216,560.012681 C152.606039,537.275055 158.203741,514.584906 163.03964,501.264159 L165.911085,493.423925 Z" id="bp-forearm-left-back" fill="#FFFFFF"></path>
                    <path d="M191.991316,411.561475 L192.193643,409.947339 L196.214518,411.136809 C214.745185,416.576629 230.00832,420.461912 242.014999,422.793687 L244.385463,423.242673 C258.108752,425.77893 276.773616,428.179285 300.400122,430.448254 L295.862063,450.562378 C293.302852,462.063976 291.229515,471.992872 290.156047,479.668743 L288.641077,491.28972 C287.081478,503.510598 286.019741,512.576739 285.102574,520.105984 L281.43037,518.342 C259.021866,507.631115 240.992584,500.009871 227.301426,495.468641 C212.980496,490.718522 193.941467,486.178348 170.214951,481.851129 L175.506874,467.809447 C179.900359,456.210039 183.441866,446.93433 185.938437,439.754087 L186.812073,437.215849 C189.088985,430.431089 190.83887,420.64027 191.991316,411.561475 L191.991316,411.561475 Z" id="bp-elbow-left-back" fill="#FFFFFF"></path>
                    <path d="M211.368939,132.192127 L214.927833,131.569694 C235.475784,128.0265 249.687722,126.437916 261.223583,126.57648 L268.360202,142.148728 C270.232688,146.217871 272.566511,150.856694 275.171709,156.038069 L280.707755,166.9705 C291.617023,188.564086 305.674237,217.482128 314.982393,251.527291 C317.506179,260.696427 319.65004,269.295882 321.495388,277.434168 L318.676549,317.235307 C318.189229,323.859151 317.771583,329.286986 317.451904,333.018661 L317.316216,334.483553 C314.520983,365.146799 307.882233,397.032896 301.775269,424.342846 L295.755751,423.754353 C273.43838,421.520608 255.915665,419.167399 243.198467,416.697637 L240.657567,416.190633 C228.140858,413.628878 212.206838,409.454181 192.86724,403.667634 L193.047136,401.672624 C193.382156,397.763736 193.568074,394.365752 193.596443,391.912724 L193.596443,390.719109 C193.669172,382.976343 194.813918,345.800347 196.52464,308.359487 L196.924912,299.81782 C197.671947,284.280362 198.510444,269.081981 199.403864,256.32888 L199.512414,254.918244 L200.013291,248.072244 C200.83813,237.133037 201.868814,224.912322 203.001577,212.407545 L204.130562,200.204558 L205.179564,189.283277 C207.310177,167.474424 209.557994,146.668727 211.368939,132.192127 Z" id="bp-upper-arm-left-back" fill="#FFFFFF"></path>
                    <path d="M300.789491,0 L300.952316,0 L301.685028,1.38350861 C309.717722,16.5207205 314.222544,30.0845304 314.222544,42.319087 C314.222544,60.2504437 299.975367,98.6631534 276.962783,112.769516 L264.437298,120.440511 C251.575691,119.933286 235.863811,121.609415 212.20508,125.739859 L212.693586,122.207724 C213.046961,119.73477 213.370053,117.667608 213.655973,116.070094 L213.841004,115.075363 C216.907539,99.259961 231.426091,47.9887595 265.347942,20.2100768 C273.000711,13.9435966 285.049752,7.35158498 299.676854,0.515424777 L300.789491,0 Z" id="bp-shoulder-left-back" fill="#FFFFFF"></path>
                </g>
            </g>
        </g>
        <g id="viewport-boundary" mask="url(#mask-2)" stroke="#FF0000" stroke-width="3">
            <g transform="translate(260, 190)" id="boundary">
                <rect x="0" y="0" width="560" height="1080"></rect>
            </g>
        </g>
    </g>
</svg>