<?xml version="1.0" encoding="UTF-8"?>
<svg width="1080px" height="1460px" viewBox="0 0 1080 1460" version="1.1" xmlns="http://www.w3.org/2000/svg" xmlns:xlink="http://www.w3.org/1999/xlink">
    <title>ring-finger-right-palmar</title>
    <defs>
        <rect id="path-1" x="0" y="0" width="1080" height="1460"></rect>
    </defs>
    <g id="ring-finger-right-palmar" stroke="none" stroke-width="1" fill="none" fill-rule="evenodd">
        <mask id="mask-2" fill="white">
            <use xlink:href="#path-1"></use>
        </mask>
        <g id="mask"></g>
        <g id="bp-ring-finger-right-palmar" mask="url(#mask-2)" fill="#FFFFFF" fill-rule="nonzero">
            <g transform="translate(535.7654, 728.1703) scale(-1, 1) translate(-535.7654, -728.1703)translate(451.0226, 386.1683)">
                <path class="hover" d="M12.1549174,525.978337 C29.4065463,523.685814 48.5631116,523.079531 69.6545612,524.169934 C90.8252807,525.313746 109.886812,527.966301 126.886045,532.122392 L126.442803,544.195961 L126.442803,546.568838 L126.049812,557.763535 L125.898883,561.790172 C123.422389,626.561369 120.335369,642.810093 108.400162,660.704191 C86.7964736,693.449885 38.3662264,691.077009 23.4098265,657.382164 C21.1600356,652.373705 18.5137888,639.395957 16.4008687,625.618037 L16.2073718,624.344166 L15.6846007,620.774476 C15.4753243,619.305698 15.2732482,617.837325 15.0794771,616.377878 L14.7235862,613.633636 C12.9414235,599.553327 12.0140726,586.830112 12.9640869,583.348422 L12.973766,583.1775 L12.9769398,582.900078 L12.9767315,582.647759 C12.9595431,578.38185 12.3038249,555.515262 11.5477232,526.060751 L12.1549174,525.978337 Z" id="bp-distal-phalanx-ring-finger-right-palmar"></path>
                <path class="hover" d="M10.7320152,443.595953 C28.7765482,440.951429 48.9594487,440.20086 71.3163853,441.356687 C93.2121931,442.539673 112.851861,445.336521 130.287264,449.741469 L128.633888,488.298715 L127.763753,509.505534 C127.617243,513.14521 127.479219,516.614943 127.350287,519.897711 C110.196535,515.879444 91.1881767,513.315859 70.2880339,512.186675 C48.7689638,511.074156 29.0974782,511.672047 11.2422796,513.995355 L10.8180734,496.555187 L10.6019253,487.238179 L10.2933012,473.232127 L10.1571382,466.701301 C9.99877093,458.950766 9.85321637,451.246574 9.72744098,443.744233 L10.7320152,443.595953 Z" id="bp-distal-interphalangeal-joint-ring-finger-right-palmar"></path>
                <path class="hover" d="M8.41655989,284.367386 L8.74807086,284.322213 C26.2670232,281.915045 45.7672481,281.262024 67.2805267,282.374236 C94.124292,283.82455 117.577033,287.700531 137.734336,293.991564 L137.282568,302.519402 L136.697014,313.801183 C134.616339,354.270036 132.558754,398.275241 130.820455,437.515207 C113.197479,433.248903 93.587493,430.542457 71.949858,429.373427 C49.0710971,428.190614 28.2807775,428.941185 9.54128659,431.643175 L9.43318141,423.439727 C9.42271803,422.556298 9.41266199,421.67842 9.40303933,420.80639 L9.40303933,417.009788 L9.09392392,386.269009 L8.92062756,365.73806 C8.83395805,354.784055 8.75390704,343.565814 8.68126719,332.31706 L8.48230704,297.920714 L8.41655989,284.367386 Z" id="bp-middle-phalanx-ring-finger-right-palmar"></path>
                <path class="hover" d="M8.18025396,191.552502 L8.90684646,191.449235 C26.6900997,188.924734 46.5324363,188.223618 68.467544,189.357637 C97.3180743,190.916373 122.251621,195.277004 143.386854,202.426352 L143.20142,204.721358 L142.915785,208.472024 C141.532866,226.976538 139.982069,252.613625 138.397004,281.650124 C117.896093,275.564196 94.4272356,271.823422 67.9139994,270.390976 C46.1924741,269.26799 26.3534615,269.88775 8.36477267,272.265689 L8.24896659,236.582685 L8.21798017,216.005614 L8.21432366,203.62761 L8.19773608,195.941969 L8.18025396,191.552502 Z" id="bp-proximal-interphalangeal-joint-ring-finger-right-palmar"></path>
                <path class="hover" d="M95.1263109,8.93582633 C120.160025,18.676404 152.744245,49.2875151 169.485473,73.4763041 C167.755554,76.3191997 166.475927,79.4085126 165.376924,82.1969317 L163.952505,85.9935339 C155.643394,107.112134 149.708314,143.417142 144.485445,189.925519 L144.464998,190.144736 C122.831884,183.163133 97.7428693,178.921827 69.1010167,177.374377 C46.7918921,176.221013 26.4685075,176.905958 8.09598994,179.44593 L8.06991938,176.220504 L8.01169431,170.559011 C6.98520142,78.8021205 2.30523953,22.0935148 0.61912194,8.40047648 L0.61912194,7.92590121 C0.431170515,6.42302156 0.226944022,4.99218214 0,3.63223305 L0.611501138,3.4979812 C27.4302936,-2.29748174 69.1766871,-1.16113031 95.1263109,8.93582633 Z" id="bp-proximal-phalanx-ring-finger-right-palmar"></path>
            </g>
        </g>
        <g id="decoration" opacity="0.15" mask="url(#mask-2)">
            <g transform="translate(249.5211, 236.0228) scale(-1, 1) translate(-249.5211, -236.0228)translate(-398, -668.9545)">
                <g id="bp-index-finger-right-palmar" stroke-width="1" fill="none" fill-rule="evenodd" transform="translate(692.7496, 1029.9174)">
                    <path d="M325.321968,383.645091 L326.3303,383.486347 L335.767337,407.835241 C342.481206,425.20143 349.056858,442.30629 355.156676,458.291558 C334.968152,461.896555 313.212089,468.636127 289.93507,478.489832 C268.521736,487.586068 249.906482,497.631879 234.080772,508.617468 L199.042319,436.518823 C215.353299,424.633801 234.982288,413.797538 257.95096,404.040604 C282.182825,393.782692 304.660732,386.985105 325.321968,383.645091 Z" id="bp-distal-interphalangeal-joint-index-finger-right-palmar" fill="#FFFFFF" fill-rule="nonzero"></path>
                    <path d="M261.289293,225.295289 L262.752762,225.094234 L272.635506,247.639265 L274.059925,251.19858 L278.194303,261.371639 C289.04886,288.241883 306.334651,332.076846 324.014067,377.528167 C302.9078,380.969117 280.055194,387.896739 255.51161,398.28661 C232.549754,408.040648 212.805301,418.886565 196.267727,430.812282 L183.10727,403.797923 C180.698082,398.862652 178.399004,394.160347 176.249818,389.77456 L174.113189,385.503383 L152.410464,340.993903 C142.824066,321.35959 133.09806,301.458589 124.542036,283.924574 C142.106568,269.982428 164.013138,257.407005 190.291055,246.244325 C215.948324,235.383007 239.639218,228.401084 261.289293,225.295289 Z" id="bp-middle-phalanx-index-finger-right-palmar" fill="#FFFFFF" fill-rule="nonzero"></path>
                    <path d="M222.620965,134.644244 L223.251209,134.568671 L229.711073,149.513206 C241.080176,175.750998 251.73874,200.027661 260.140037,219.14818 C237.986602,222.353255 213.869244,229.476502 187.851706,240.490331 C161.619102,251.633761 139.585771,264.202283 121.736026,278.177889 L109.06472,252.147731 L106.215882,246.21554 C97.2325982,227.746721 88.6537472,210.7601 80.4655041,195.214224 C98.3299156,180.689787 120.841213,167.626031 148.033291,156.075023 C175.115963,144.610298 200.007706,137.467986 222.620965,134.644244 Z" id="bp-proximal-interphalangeal-joint-index-finger-right-palmar" fill="#FFFFFF" fill-rule="nonzero"></path>
                    <path d="M168.290137,0 L168.609676,0.00489476276 L170.724594,5.7528835 C180.231544,31.4692237 189.578493,55.1210397 197.853506,74.8938655 C199.577053,79.0084331 201.316839,83.1452109 203.067478,87.2930766 L206.581634,95.6002966 L211.886199,108.073314 C214.819521,114.950152 217.757997,121.806575 220.677195,128.59212 C197.759995,131.589958 172.708898,138.842636 145.593941,150.321029 C118.376065,161.882995 95.6788286,174.979115 77.4847069,189.589272 L75.0358644,185.012867 C59.1960837,155.553364 44.8695498,131.687333 31.9501058,113.093362 L21.6333286,98.2952948 C13.2531137,86.3185235 6.54128753,77.1460446 0,71.0693331 C21.1614171,50.4219586 47.0994376,32.0727001 75.4107139,19.3835953 C104.017394,6.5620908 137.66576,0.157468066 168.290137,0 Z" id="bp-proximal-phalanx-index-finger-right-palmar" fill="#FFFFFF" fill-rule="nonzero"></path>
                </g>
                <g id="bp-middle-finger-right-palmar" stroke-width="1" fill="none" fill-rule="evenodd" transform="translate(483.4231, 1108.2505)">
                    <path d="M147.309265,527.159348 C170.194798,524.797318 190.963461,524.543557 209.605779,526.397495 L220.3437,618.254376 L220.3437,620.86454 C222.955135,646.017029 212.034589,697.271159 170.96384,701.542337 L170.726437,701.305049 C130.605301,705.338939 114.461885,677.813573 106.390177,662.389876 L105.915371,661.440726 C101.472034,653.096701 97.5632639,634.295528 94.4489357,614.907642 L93.9638396,611.84296 L93.386875,608.081127 C91.4978436,595.556613 89.9529872,583.270065 88.8223425,573.881588 L88.1101329,567.237534 L86.9609627,557.711653 C86.2662964,551.985667 85.5299688,545.970122 84.7566686,539.699545 C102.94672,533.779585 123.761516,529.60821 147.309265,527.159348 Z" id="bp-distal-phalanx-middle-finger-right-palmar" fill="#FFFFFF" fill-rule="nonzero"></path>
                    <path d="M133.120362,435.085497 C157.312111,432.063007 179.166872,431.531304 198.740879,433.471569 L208.862054,520.050876 C190.125763,518.293154 169.390593,518.597288 146.665388,520.94277 C123.199644,523.383104 102.335922,527.516413 83.9751798,533.384903 L79.2997811,496.038376 C77.366254,480.733208 75.3111222,464.611222 73.1796445,448.004761 C90.7537083,442.126046 110.734425,437.817333 133.120362,435.085497 Z" id="bp-distal-interphalangeal-joint-middle-finger-right-palmar" fill="#FFFFFF" fill-rule="nonzero"></path>
                    <path d="M124.099042,292.950202 C145.162556,290.31855 164.454397,289.575167 182.011684,290.70763 L197.999363,427.124176 C178.283186,425.288561 156.418121,425.876287 132.354623,428.88276 C110.075973,431.601497 90.0792288,435.867381 72.3671889,441.687646 L67.259742,402.13801 L62.6926057,367.048965 C60.1442633,347.533504 57.5889735,328.065678 55.0910632,309.119199 C74.7672415,301.557773 97.7694946,296.163291 124.099042,292.950202 Z" id="bp-middle-phalanx-middle-finger-right-palmar" fill="#FFFFFF" fill-rule="nonzero"></path>
                    <path d="M107.243416,197.085996 C130.55317,194.173702 151.693236,193.573884 170.713919,195.26971 L172.673879,212.494163 C174.315234,226.717123 176.173403,242.367922 178.274974,259.68789 L180.934773,281.543219 L181.270453,284.399943 C163.607914,283.344183 144.305549,284.127211 123.333303,286.747466 C97.1522965,289.94242 74.1226113,295.27399 54.2487888,302.753916 L47.0601659,248.506861 C45.3431458,235.612206 43.698359,223.306538 42.153102,211.789337 C60.9462164,204.994659 82.6424404,200.088142 107.243416,197.085996 Z" id="bp-proximal-interphalangeal-joint-middle-finger-right-palmar" fill="#FFFFFF" fill-rule="nonzero"></path>
                    <path d="M81.1951608,0.951371364 C108.796845,-1.38708478 137.403759,0.650677866 163.308769,6.34511555 C161.134038,15.9622843 160.803227,28.9878442 160.761052,46.1129885 L160.755504,62.7640171 L160.821916,69.3324998 C161.228775,97.3497508 163.307324,128.34557 170.007438,188.931522 C150.84732,187.333952 129.684876,187.983772 106.477677,190.88326 C81.9958582,193.870857 60.2695831,198.72673 41.3025654,205.46048 L34.4571069,154.942667 C32.7579353,142.555637 31.4539735,133.223667 30.6585652,127.78083 L30.1278293,124.26724 C23.3366653,80.5749976 10.7567797,45.5221427 3.35720031,30.730186 L2.1984306,28.4399196 C1.44150351,26.9637245 0.713396757,25.5882514 0,24.3100409 C18.7940465,12.3805752 49.8724956,3.60507459 81.1951608,0.951371364 Z" id="bp-proximal-phalanx-middle-finger-right-palmar" fill="#FFFFFF" fill-rule="nonzero"></path>
                </g>
                <g id="bp-little-finger-right-palmar" stroke-width="1" fill="none" fill-rule="evenodd" transform="translate(0, 970.1644)">
                    <path d="M15.2185163,414.893286 C29.9621736,416.35395 45.7180293,419.180477 62.4956993,423.372854 C82.2996205,428.349071 99.938254,434.289887 115.452436,441.219447 L109.752339,459.132122 C104.456884,475.686944 100.50812,487.767272 99.1009318,491.764702 L99.1009318,492.476565 C89.1299986,520.476506 73.4613892,546.340859 61.5912305,553.2222 C39.0379291,566.510308 8.65032304,552.747625 1.52822786,526.408697 C-2.83173301,510.066801 2.42628502,473.169641 13.6223596,422.086664 L15.2185163,414.893286 Z" id="bp-distal-phalanx-little-finger-right-palmar" fill="#FFFFFF" fill-rule="nonzero"></path>
                    <path d="M30.5455618,350.900873 C44.4265347,352.434536 59.1889666,355.156884 74.8406643,359.067904 C97.5641176,364.777725 117.436803,371.757514 134.52041,380.043748 L130.68009,392.521295 C126.105034,407.335199 121.538499,421.935403 117.344028,435.225244 C101.638093,428.259117 83.8727033,422.300275 64.0143867,417.31039 C47.2466097,413.120485 31.4473508,410.265165 16.6055561,408.751465 L18.1234995,402.143602 C21.4722455,387.680597 25.2065881,372.27496 29.2573167,356.046915 L30.5455618,350.900873 Z" id="bp-distal-interphalangeal-joint-little-finger-right-palmar" fill="#FFFFFF" fill-rule="nonzero"></path>
                    <path d="M59.5335646,238.038322 C73.820703,239.540871 89.0493975,242.313526 105.22827,246.356276 C129.140228,252.364738 149.895411,259.779487 167.565705,268.643031 L165.657707,274.982114 C161.815597,287.789592 157.816692,301.375294 153.659076,315.781511 L151.567033,323.053192 C147.147875,338.361449 141.864278,355.999473 136.369649,373.996187 C119.071061,365.695634 99.085777,358.716007 76.3593517,353.00544 C60.7668403,349.109208 46.0118368,346.367035 32.0854525,344.784575 L34.2325071,336.316219 C38.2147367,320.668096 42.4464102,304.350422 46.8722338,287.460046 L51.6153251,269.060116 C53.0691173,263.401268 54.5688005,257.543907 56.1058351,251.518399 L59.5335646,238.038322 Z" id="bp-middle-phalanx-little-finger-right-palmar" fill="#FFFFFF" fill-rule="nonzero"></path>
                    <path d="M77.1826161,167.449945 C91.7890652,168.923981 107.386131,171.73462 123.983121,175.881848 C149.23583,182.227207 170.967838,190.140976 189.263811,199.673221 L185.964362,209.762449 C180.83336,225.568954 175.314515,243.115319 169.402676,262.571417 C151.506497,253.705072 130.641856,246.297986 106.746958,240.293813 C90.6355724,236.267925 75.418362,233.474182 61.0855208,231.918821 L65.5577886,214.187408 C68.9556061,200.666931 72.440515,186.686504 75.9379535,172.511828 L77.1826161,167.449945 Z" id="bp-proximal-interphalangeal-joint-little-finger-right-palmar" fill="#FFFFFF" fill-rule="nonzero"></path>
                    <path d="M115.690489,0.623197441 L116.680995,0.552093085 C173.196168,-3.49647159 207.560068,14.8923138 230.224776,50.0900048 C231.873299,52.6501177 233.314161,54.9986018 234.674287,57.3756039 L235.40893,58.6764222 C237.642027,62.6832446 239.713786,66.8920431 242.218318,72.4268826 C237.29074,76.4886018 234.041109,82.8208364 230.859693,89.5621568 L230.384886,90.2740197 L228.563942,94.230738 C220.814274,111.342324 208.453991,141.973067 191.254503,193.662776 C172.681027,184.098051 150.78814,176.17319 125.501808,169.819384 C108.95926,165.685759 93.3593864,162.851107 78.6915721,161.322183 L81.7542549,148.801091 C94.7472908,95.5067471 107.34183,41.5538441 115.690489,0.623197441 Z" id="bp-proximal-phalanx-little-finger-right-palmar" fill="#FFFFFF" fill-rule="nonzero"></path>
                </g>
                <g id="bp-thumb-right-palmar" stroke-width="1" fill="none" fill-rule="evenodd" transform="translate(833.0918, 521.8825)">
                    <path d="M140.826987,1.15605433 L142.67288,0 L160.731095,20.5864148 C204.216046,69.9920882 265.935376,138.975131 281.85729,152.726206 C286.978873,157.288873 291.839375,161.890684 296.53675,166.632606 C277.828388,180.36982 259.425384,198.861726 241.173279,222.225853 C220.499439,248.683215 205.838118,273.988118 197.26547,298.018665 C192.481269,294.61926 187.75424,291.189856 183.09757,287.742871 L180.011329,285.369995 C99.1850578,226.016327 35.9041785,196.927875 0,197.777086 C12.8450583,153.247339 30.9760904,110.979689 52.9298956,82.8289748 C79.6974958,48.5056733 111.051043,19.9094021 140.826987,1.15605433 L140.826987,1.15605433 Z" id="bp-proximal-phalanx-thumb-right-palmar" fill="#FFFFFF" fill-rule="nonzero"></path>
                </g>
                <path d="M596.942187,232.052674 C597.425923,232.729281 597.898741,233.367501 598.359804,233.96561 C611.654382,250.813033 659.372419,283.321439 752.19706,339.321321 L758.021623,342.86843 C851.700887,400.242198 921.747324,458.821592 948.660504,490.453028 L952.467807,494.996591 C954.148646,496.973809 956.408948,499.60647 959.159374,502.790198 C927.26222,523.172429 894.36495,553.365143 866.312149,589.33642 C837.826602,625.862595 816.124924,681.385593 802.53227,737.367762 C783.097348,780.02187 816.39513,902.408034 852.457503,1005.1048 C820.880387,1006.30478 787.254917,1013.3479 757.938225,1026.48763 C722.74079,1042.26311 691.115702,1065.81456 666.488911,1092.06987 L665.240898,1093.41178 C633.567335,1084.76234 597.370465,1081.33812 562.508433,1084.29169 C525.651411,1087.41427 489.294317,1097.86578 466.28522,1113.96789 C446.73735,1085.8864 410.747493,1052.44259 380.723317,1040.76023 C348.354139,1028.16544 298.292336,1027.21238 266.432926,1035.50404 L264.699317,1031.63372 C262.093856,1025.89386 259.873306,1021.38718 257.463896,1017.04376 L256.654195,1015.60268 C255.017711,1012.72673 253.269319,1009.87054 251.23971,1006.71862 C224.528297,965.236498 183.260594,942.466771 120.610385,945.445718 L121.547876,940.186626 C122.541985,934.494139 123.375569,929.311833 124.028265,924.709922 C131.079139,873.26359 114.862128,615.298992 116.610252,545.447417 L116.765828,540.465334 C118.416927,492.313275 123.962856,401.355449 121.912324,327.97154 C245.370235,327.901754 354.505975,313.140879 449.419708,283.630556 C498.821449,268.364939 546.768317,251.651158 593.286538,233.48602 L596.942187,232.052674 Z" id="bp-palm-right" fill="#FFFFFF" fill-rule="nonzero"></path>
            </g>
        </g>
        <g id="viewport-boundary" mask="url(#mask-2)" stroke="#FF0000" stroke-width="3">
            <g transform="translate(260, 190)" id="boundary">
                <rect x="0" y="0" width="560" height="1080"></rect>
            </g>
        </g>
    </g>
</svg>