<?xml version="1.0" encoding="UTF-8"?>
<svg width="1080px" height="1460px" viewBox="0 0 1080 1460" version="1.1" xmlns="http://www.w3.org/2000/svg" xmlns:xlink="http://www.w3.org/1999/xlink">
    <title>second-toe-right-dorsal</title>
    <defs>
        <rect id="path-1" x="0" y="0" width="1080" height="1460"></rect>
    </defs>
    <g id="second-toe-right-dorsal" stroke="none" stroke-width="1" fill="none" fill-rule="evenodd">
        <mask id="mask-2" fill="white">
            <use xlink:href="#path-1"></use>
        </mask>
        <g id="mask"></g>
        <g id="bp-second-toe-right-dorsal" mask="url(#mask-2)" fill="#FFFFFF">
            <g transform="translate(319.6693, 217.624)">
                <path class="hover" d="M346.00239,567.936245 L352.432903,567.229263 L350.465379,578.588348 C341.548304,631.663523 334.664117,697.609583 356.530124,732.96137 C329.994647,833.217749 308.132422,930.476741 290.960623,1024.69799 C198.564282,1005.15151 101.459824,989.528647 0,978.235994 C6.20850446,857.068026 16.925659,747.926192 32.1405418,650.732488 L33.9075195,639.652344 C51.8460978,614.065626 67.7420973,573.850865 75.9765951,526.325237 C160.411475,562.942059 252.970506,577.548228 346.00239,567.936245 L346.00239,567.936245 Z" id="bp-proximal-phalanx-second-toe-right-dorsal"></path>
                <path class="hover" d="M368.7832,477.418423 L374.194579,476.788171 L370.027379,491.306496 C364.352918,511.342885 359.711423,529.037944 356.860434,543.326226 L355.256894,551.783076 C259.847812,563.621429 164.64292,549.180798 78.3268461,510.98394 C80.6465762,493.642997 81.9297581,475.485947 81.9297581,456.834672 L81.9527927,443.687549 C81.9683966,439.377167 81.9921736,435.137115 82.0248662,430.962403 C171.072443,472.16365 269.734187,488.534562 368.7832,477.418423 L368.7832,477.418423 Z" id="bp-proximal-interphalangeal-joint-second-toe-right-dorsal"></path>
                <path class="hover" d="M407.587367,356.393601 L409.135009,356.221031 C399.162742,392.864312 388.264443,428.917794 378.794481,461.070156 C276.304726,474.873809 173.85403,458.305484 82.2093565,414.484572 C82.8016889,373.350876 84.4404563,338.396015 87.925105,304.22419 C185.756663,348.843346 293.607261,367.311285 402.159228,356.936394 L407.587367,356.393601 Z" id="bp-middle-phalanx-second-toe-right-dorsal"></path>
                <path class="hover" d="M425.041014,266.44783 L430.669465,265.84273 C425.98215,290.125554 419.937677,315.424227 413.29926,340.665325 C301.486811,353.705545 190.0606,335.290422 89.6658126,288.512108 C92.6134622,263.840589 96.5946755,239.149941 101.913498,212.387431 C202.269082,259.01019 313.357929,278.010352 425.041014,266.44783 L425.041014,266.44783 Z" id="bp-distal-interphalangeal-joint-second-toe-right-dorsal"></path>
                <path class="hover" d="M316.234711,6.93613184 C447.651762,39.4484345 450.96548,148.740609 433.487009,250.407594 C319.956168,264.060565 206.751531,245.269742 105.015758,197.267463 C106.518756,190.137148 108.116679,182.841623 109.813314,175.346758 L111.104357,169.687699 C135.103184,65.2848145 181.79536,-26.3238815 316.234711,6.93613184 Z M386.044708,69.6948088 C367.202062,46.7237584 237.564099,25.6282601 212.451881,40.7135977 C187.938171,55.8407902 161.093343,112.908686 177.403813,129.086356 C229.758871,180.264718 345.145586,190.138405 387.978653,162.458245 C404.376928,151.575376 404.845502,93.264414 386.002856,70.2933637 Z" id="bp-distal-phalanx-second-toe-right-dorsal"></path>
                <path class="hover" d="M358.099781,58.3029501 C347.68415,51.2083559 315.162105,51.8243921 283.0915,54.6892414 L278.515491,55.1132138 C245.530378,58.2765836 211.5316,63.6940812 202.548503,73.2056502 C194.495358,82.0985862 190.343205,98.1026545 188.995341,112.929416 C187.893735,125.047297 186.767511,139.092905 192.386905,143.417621 C211.884155,157.924076 250.310872,163.219415 289.150563,159.817737 C324.87929,156.688524 361.639481,145.899172 385.911833,125.278007 C386.632194,124.593907 386.742928,123.509979 386.74389,122.357056 L386.724345,120.961603 L386.735037,120.278738 C387.003037,114.194319 385.544319,106.909034 383.176964,99.4610525 C378.00453,83.1879612 368.413323,65.717423 358.099781,58.3029501 Z" id="bp-nail-of-second-toe-right" transform="translate(287.4306, 106.743) scale(-1, 1) rotate(-4) translate(-287.4306, -106.743)"></path>
            </g>
        </g>
        <g id="decoration" opacity="0.15" mask="url(#mask-2)">
            <g transform="translate(-456.22, -24)">
                <g id="bp-dorsum-of-foot-right" transform="translate(0, 1265.9717)">
                    <path d="M1402.60107,159.487189 C1475.27805,186.863035 1543.30317,217.141888 1606.38853,249.968921 L1605.10934,263.359479 C1602.77763,288.193319 1600.51603,314.608264 1598.25912,342.875597 L1595.84165,376.261053 C1591.86731,432.771002 1587.31734,505.013741 1582.45253,589.728773 L1579.02681,650.445281 C1578.06307,670.149512 1577.04271,689.830919 1575.93737,709.492864 C1500.40084,696.90382 1429.13215,689.203184 1357.33261,686.898671 C1358.64715,659.535862 1359.91534,632.174652 1361.14081,604.811845 L1362.87538,565.410931 L1365.31373,532.001707 C1377.096,372.883798 1389.33795,249.994983 1401.99717,163.532471 L1402.60107,159.487189 Z" id="bp-metatarsophalangeal-joint-fourth-toe-right-dorsal" fill="#FFFFFF"></path>
                    <path d="M1115.27419,72.6432336 C1195.95685,91.6819604 1272.6384,113.826564 1345.06038,138.758497 L1344.72872,140.873171 C1331.04342,229.834408 1317.96066,358.887593 1305.42769,528.283412 L1303.03839,561.172402 C1301.20292,602.868465 1299.30424,644.556584 1297.30992,686.247673 C1257.76278,686.637087 1217.6699,688.68493 1176.24477,692.464582 C1164.42406,693.543109 1152.4966,694.834589 1140.45335,696.335868 C1120.05721,698.878398 1099.8881,701.869232 1079.57643,705.378084 C1080.27166,632.140223 1080.33913,558.640862 1079.78845,484.843483 L1079.80527,477.403154 C1080.29549,350.517598 1092.06046,215.93206 1115.07893,73.8083284 L1115.27419,72.6432336 Z" id="bp-metatarsophalangeal-joint-third-toe-right-dorsal" fill="#FFFFFF"></path>
                    <path d="M773.219218,13.9656076 C872.135641,25.0993489 966.71635,40.4160652 1056.6278,59.5046717 C1032.71835,205.70535 1020.43088,344.366115 1019.81647,475.343062 L1019.79305,485.291244 C1020.37222,562.905163 1020.26451,640.185256 1019.46428,717.180748 L1009.55276,719.384792 C944.867649,733.996995 874.925098,754.218804 789.083742,782.050756 C785.30704,670.682308 779.99002,558.847367 773.148657,446.640425 C768.24874,290.202742 768.242241,146.876464 773.11416,16.5759184 L773.219218,13.9656076 Z" id="bp-metatarsophalangeal-joint-second-toe-right-dorsal" fill="#FFFFFF"></path>
                    <path d="M272.169456,31.086227 C391.998307,-0.979767592 544.576703,-7.32250749 713.401922,7.84713114 C708.215408,141.786379 708.159769,289.129809 713.222045,450.009984 C713.244409,450.720722 713.291317,451.424906 713.361929,452.121749 C720.487823,569.073327 725.937174,685.617997 729.704238,801.652168 L611.946126,841.221682 L596.237925,846.399776 C558.503266,858.761003 526.9338,868.583221 497.515587,876.997592 L493.516969,878.136386 C413.939241,900.701436 350.855807,912.429397 296.884219,913.41977 C181.634279,915.534594 107.884487,867.985591 63.6696164,748.977817 L63.0453838,747.265009 C35.3123395,665.288344 16.6412521,587.670199 5.84178005,488.067447 C-1.85901373,418.171561 -1.45913061,349.932244 4.19958368,284.086489 C5.83322132,277.135175 7.5071695,269.781152 9.26199516,261.910813 C35.1703706,145.712549 125.306627,70.3864674 272.169456,31.086227 Z" id="bp-metatarsophalangeal-joint-great-toe-right-dorsal" fill="#FFFFFF"></path>
                </g>
                <g id="bp-great-toe-right-dorsal" transform="translate(34.5665, 0)">
                    <path d="M405.927106,686.251764 C496.254226,686.679551 590.135709,677.225535 691.900538,658.179603 C689.587191,675.991707 688.240254,694.329561 688.240254,714.210389 L688.277661,728.517392 C688.675438,801.032579 692.50597,869.5194 711.960101,897.646353 C697.712265,992.419367 687.58308,1097.77837 681.554454,1213.81629 C507.359381,1198.36957 349.100028,1205.10896 222.094677,1239.09537 C128.509278,1264.13866 53.4116455,1303.60661 0,1358.38253 C41.9167953,1169.7568 107.207435,1011.89593 108.668585,907.415727 C109.58054,842.205926 100.962561,766.252467 90.9133598,689.893521 L89.3159307,677.834983 L86.181704,654.501152 C192.848908,674.290624 302.497032,685.761921 405.927106,686.251764 Z" id="bp-proximal-phalanx-great-toe-right-dorsal" fill="#FFFFFF"></path>
                    <path d="M694.207803,642.475367 C591.346317,662.001269 496.793724,671.681523 405.998136,671.251518 C301.934716,670.758676 191.414664,659.033624 84.0672973,638.851716 L80.0337685,608.882178 C72.0805501,549.236607 65.0335088,491.636994 62.9091917,441.212187 C174.979237,463.01282 290.907477,475.729645 399.927399,476.245961 C505.248101,476.744757 615.401092,463.808873 737.248718,437.897839 C722.856305,526.678318 704.378657,582.116077 694.74365,639.239906 L694.207803,642.475367 Z" id="bp-interphalangeal-joint-great-toe-right-dorsal" fill="#FFFFFF"></path>
                    <path d="M417.653481,0.190658177 C674.440928,7.99087372 762.036647,262.397904 741.637644,408.801949 L740.371145,417.674524 C740.157559,419.135709 739.942754,420.588192 739.726779,422.032106 C616.63171,448.52806 505.765969,461.746627 399.998429,461.245715 C290.86913,460.728881 174.639273,447.859635 62.4140275,425.838702 C61.8705035,400.931394 62.7126739,378.027585 65.4706963,357.80054 C83.4698165,225.796892 160.866033,-7.60955737 417.653481,0.190658177 Z M603.142673,114.518454 C556.874026,71.5125387 277.084793,65.5243732 229.183134,104.719638 C181.281475,143.914903 142.089209,272.388272 181.281475,301.240342 C306.478992,393.784718 553.063666,380.175251 634.714221,308.861643 C666.285769,281.098331 649.411321,157.52437 603.142673,114.518454 Z" id="bp-distal-phalanx-great-toe-right-dorsal" fill="#FFFFFF"></path>
                    <path d="M577.969861,116.329318 C555.076384,97.5968584 475.69723,91.8103705 398.26734,93.8392565 C322.268876,95.830635 245.436316,105.320785 223.719649,125.506055 C203.039008,144.728357 189.489011,181.868051 183.73606,217.281167 C178.299999,250.743622 177.979892,285.407249 191.803295,297.563354 C232.895859,333.453607 318.04561,352.923754 406.273426,351.44082 C486.257601,350.096445 569.476205,331.294753 626.477796,289.159955 C632.479336,284.741816 634.746138,276.397527 635.829534,266.923974 C637.501636,252.302583 635.432529,234.442479 630.946889,216.039749 C621.453148,177.090856 601.118608,135.270652 577.969861,116.329318 Z" id="bp-nail-of-great-toe-right" fill="#FFFFFF" transform="translate(408.3255, 222.4873) scale(-1, 1) translate(-408.3255, -222.4873)"></path>
                </g>
                <g id="bp-third-toe-right-dorsal" transform="translate(1125.4598, 438.3927)">
                    <path d="M310.927205,510.482609 L310.77043,510.879815 C292.520913,558.707396 281.518692,602.059251 290.359281,629.312993 C265.347692,714.254261 247.328141,797.643071 229.236921,906.233953 C156.75244,881.658356 80.2595914,859.812628 0,840.987827 C16.9382018,747.65547 38.5921048,651.169822 64.9513379,551.580958 C80.4090511,535.744681 89.6096403,500.274513 96.193278,458.212146 C162.95537,490.098913 235.822538,508.046508 310.927205,510.482609 Z" id="bp-proximal-phalanx-third-toe-right-dorsal" fill="#FFFFFF"></path>
                    <path d="M341.441838,438.497114 L340.535693,440.488961 C332.223896,458.920398 324.082419,477.501924 316.763452,495.631733 C240.282362,493.929976 166.091761,475.688344 98.4764893,442.656959 C101.442698,421.184054 103.876572,398.49253 106.217699,376.149127 C176.915799,413.590878 255.185045,434.966734 336.157259,438.304995 L341.441838,438.497114 Z" id="bp-proximal-interphalangeal-joint-third-toe-right-dorsal" fill="#FFFFFF"></path>
                    <path d="M399.085535,306.761097 L397.981737,309.625355 C394.789666,317.888625 391.597067,325.859523 388.489219,333.461733 C377.517295,360.300521 362.894603,391.460731 348.182244,423.656394 C263.360692,421.999711 181.319971,399.997649 107.900789,360.036593 L109.668751,343.489735 C113.088666,312.13795 116.766289,283.151283 122.040354,261.320394 L122.737439,258.513861 C124.712779,250.78105 126.587724,242.261071 128.469412,233.166255 C210.161419,280.881037 303.032788,306.497042 399.085535,306.761097 Z" id="bp-middle-phalanx-third-toe-right-dorsal" fill="#FFFFFF"></path>
                    <path d="M426.072065,222.742181 L425.415399,225.419952 C419.694627,248.209333 412.377536,270.686532 404.700048,291.745503 C307.593864,292.499557 213.674557,266.607468 131.612964,217.601871 L135.170948,199.733139 C138.84684,181.461263 142.94612,162.118019 148.095772,142.945946 C231.419257,194.134646 327.00673,221.922835 426.072065,222.742181 Z" id="bp-distal-interphalangeal-joint-third-toe-right-dorsal" fill="#FFFFFF"></path>
                    <path d="M324.945572,4.42383233 C437.925238,28.7928959 448.292852,118.481244 429.499306,207.756496 C330.577041,207.556144 235.139034,179.705817 152.3741,127.954116 L153.799634,123.327769 C177.488431,47.9470514 221.295975,-17.9327894 324.945572,4.42383233 Z M400.864133,65.1282123 C385.930935,43.2600704 272.865291,14.9914967 249.398837,26.1922523 C226.465711,37.3930079 198.199301,85.9296156 211.532513,101.397326 C254.198794,150.467303 355.53121,168.06849 395.530848,146.733718 C410.997375,138.199808 415.797331,86.4629849 400.864133,64.594843 Z" id="bp-distal-phalanx-third-toe-right-dorsal" fill="#FFFFFF"></path>
                    <path d="M361.623092,39.6818885 C351.100198,34.791656 320.530458,40.705479 291.867792,48.073559 C289.016798,48.8064409 286.158101,49.5582639 283.316328,50.3275991 L279.069441,51.4945577 C255.815244,57.9831036 234.551149,65.6149602 229.106651,73.5878708 C223.27456,81.9218118 222.046926,95.9611172 222.874031,108.616795 C223.526323,118.597633 224.020759,130.675615 229.294783,133.594954 C248.117,143.512592 282.001701,142.741695 315.069182,134.594011 C345.736773,127.037649 376.330648,112.719079 394.691267,91.6029607 C395.36756,90.8184015 394.476163,89.4200848 394.363548,88.41639 C393.780315,83.2182412 391.534237,77.2364047 388.514432,71.2388676 C381.907525,58.1171047 371.439902,44.4878966 361.623092,39.6818885 Z" id="bp-nail-of-third-toe-right" fill="#FFFFFF" transform="translate(308.7922, 89.3813) scale(-1, 1) translate(-308.7922, -89.3813)"></path>
                </g>
                <g id="bp-fourth-toe-right-dorsal" transform="translate(1412.1427, 661.0008)">
                    <path d="M285.021617,424.568002 L283.570804,427.6319 C266.728646,463.578095 254.78704,498.866525 259.953197,523.185751 C230.919104,603.36554 214.159891,680.612245 201.080382,791.044579 C138.416518,759.495612 71.30327,730.376277 0,703.987343 L2.33903286,689.880825 C19.4838749,587.506672 36.5454552,508.392456 59.7396665,428.759205 C75.3861335,416.849699 85.7809327,389.586082 93.705338,358.02286 C152.43449,391.972165 217.171365,414.624861 285.021617,424.568002 Z" id="bp-proximal-phalanx-fourth-toe-right-dorsal" fill="#FFFFFF"></path>
                    <path d="M316.369332,364.762326 L314.981345,367.261589 C307.378508,380.991154 299.422956,395.609525 291.9681,410.395827 C222.753242,400.905601 156.792545,377.83108 97.2912543,342.755044 C101.256084,324.818122 104.60559,306.111282 107.803419,288.46654 C171.048752,327.977358 241.844837,354.032679 316.369332,364.762326 Z" id="bp-proximal-interphalangeal-joint-fourth-toe-right-dorsal" fill="#FFFFFF"></path>
                    <path d="M371.007331,253.113953 L367.667693,260.88885 C360.288335,277.858258 353.474388,292.23035 349.094384,302.517137 L348.38724,304.19352 C343.593888,315.673213 334.646816,331.919136 324.195899,350.692935 C247.666631,340.533427 175.068475,313.780526 110.717608,272.566443 L111.975167,265.944365 C115.122919,249.62668 118.320006,235.171026 122.025801,224.393546 L124.109955,218.551408 C128.211008,206.808498 133.16302,190.350013 139.386153,171.676348 C208.968681,216.08292 287.900218,244.073255 371.007331,253.113953 Z" id="bp-middle-phalanx-fourth-toe-right-dorsal" fill="#FFFFFF"></path>
                </g>
            </g>
        </g>
        <g id="viewport-boundary" mask="url(#mask-2)" stroke="#FF0000" stroke-width="3">
            <g transform="translate(260, 190)" id="boundary">
                <rect x="0" y="0" width="560" height="1080"></rect>
            </g>
        </g>
    </g>
</svg>