<?xml version="1.0" encoding="UTF-8"?>
<svg width="1080px" height="1460px" viewBox="0 0 1080 1460" version="1.1" xmlns="http://www.w3.org/2000/svg" xmlns:xlink="http://www.w3.org/1999/xlink">
    <title>thumb-right-palmar</title>
    <defs>
        <rect id="path-1" x="0" y="0" width="1080" height="1460"></rect>
    </defs>
    <g id="thumb-right-palmar" stroke="none" stroke-width="1" fill="none" fill-rule="evenodd">
        <mask id="mask-2" fill="white">
            <use xlink:href="#path-1"></use>
        </mask>
        <g id="mask"></g>
        <g id="bp-thumb-right-palmar" mask="url(#mask-2)" fill="#FFFFFF" fill-rule="nonzero">
            <g transform="translate(538.9752, 736.553) scale(-1, 1) translate(-538.9752, -736.553)translate(308, 544.9281)">
                <path class="hover" d="M408.155778,285.84457 L410.767213,287.980159 L425.809739,299.941593 L428.964133,302.460942 C461.963725,328.854631 463.006143,331.007834 461.571492,338.997001 L461.571492,339.471576 C453.499784,374.352859 416.464889,390.013843 365.185804,380.522337 C340.783397,375.743784 314.793065,366.036703 288.652414,353.276085 C297.127221,332.446263 310.346965,310.485907 328.29927,287.511497 C340.098267,272.407898 351.916315,259.442645 363.788607,248.570671 L365.121868,249.839472 C374.619706,258.804424 387.645566,269.578083 408.155778,285.84457 Z" id="bp-distal-phalanx-thumb-right-palmar"></path>
                <path class="hover" d="M340.733277,221.065045 C344.375042,226.370797 347.727934,230.954719 351.463743,235.442398 L352.332956,236.476592 C353.323003,237.643315 354.342571,238.806768 355.403553,239.978028 C343.106709,251.272683 330.935149,264.644883 318.843227,280.123449 C300.506881,303.589335 286.838154,326.193157 277.901616,347.861161 C253.066052,334.985 228.272655,319.585342 204.752212,303.269404 C212.876306,279.773198 227.237662,254.766523 247.819501,228.426974 C266.132584,204.984856 284.491563,186.693969 303.028015,173.385801 C315.800037,187.077035 327.653913,202.233701 340.733277,221.065045 Z" id="bp-interphalangeal-joint-thumb-right-palmar"></path>
                <path class="hover" d="M142.67288,0 L160.731095,20.5864148 L168.741486,29.6747128 C178.284425,40.486698 188.462071,51.9640998 198.681426,63.4141087 L205.746768,71.3181249 C238.87604,108.321152 271.004914,143.353473 281.85729,152.726206 C286.274072,156.660986 290.496684,160.624878 294.587953,164.682638 C275.547511,178.608972 256.86229,197.359036 238.363458,221.038926 C217.952025,247.160399 203.324439,272.213651 194.569766,296.09695 L191.552716,293.925774 C188.710904,291.872924 185.891572,289.811062 183.09757,287.742871 L180.011329,285.369995 C99.1850578,226.016327 35.9041785,196.927875 0,197.777086 C12.8450583,153.247339 30.9760904,110.979689 52.9298956,82.8289748 C79.6974958,48.5056733 111.051043,19.9094021 140.826987,1.15605433 L142.67288,0 Z" id="bp-proximal-phalanx-thumb-right-palmar"></path>
            </g>
        </g>
        <g id="decoration" opacity="0.15" mask="url(#mask-2)">
            <g transform="translate(517.0215, 23.0455)">
                <g id="bp-index-finger-right-palmar" stroke-width="1" fill="none" fill-rule="evenodd" transform="translate(196.6356, 1350.6832) scale(-1, 1) translate(-196.6356, -1350.6832)translate(0, 1029.9174)">
                    <path d="M325.321968,383.645091 L326.3303,383.486347 L335.767337,407.835241 C342.481206,425.20143 349.056858,442.30629 355.156676,458.291558 C334.968152,461.896555 313.212089,468.636127 289.93507,478.489832 C268.521736,487.586068 249.906482,497.631879 234.080772,508.617468 L199.042319,436.518823 C215.353299,424.633801 234.982288,413.797538 257.95096,404.040604 C282.182825,393.782692 304.660732,386.985105 325.321968,383.645091 Z" id="bp-distal-interphalangeal-joint-index-finger-right-palmar" fill="#FFFFFF" fill-rule="nonzero"></path>
                    <path d="M261.289293,225.295289 L262.752762,225.094234 L272.635506,247.639265 L274.059925,251.19858 L278.194303,261.371639 C289.04886,288.241883 306.334651,332.076846 324.014067,377.528167 C302.9078,380.969117 280.055194,387.896739 255.51161,398.28661 C232.549754,408.040648 212.805301,418.886565 196.267727,430.812282 L183.10727,403.797923 C180.698082,398.862652 178.399004,394.160347 176.249818,389.77456 L174.113189,385.503383 L152.410464,340.993903 C142.824066,321.35959 133.09806,301.458589 124.542036,283.924574 C142.106568,269.982428 164.013138,257.407005 190.291055,246.244325 C215.948324,235.383007 239.639218,228.401084 261.289293,225.295289 Z" id="bp-middle-phalanx-index-finger-right-palmar" fill="#FFFFFF" fill-rule="nonzero"></path>
                    <path d="M222.620965,134.644244 L223.251209,134.568671 L229.711073,149.513206 C241.080176,175.750998 251.73874,200.027661 260.140037,219.14818 C237.986602,222.353255 213.869244,229.476502 187.851706,240.490331 C161.619102,251.633761 139.585771,264.202283 121.736026,278.177889 L109.06472,252.147731 L106.215882,246.21554 C97.2325982,227.746721 88.6537472,210.7601 80.4655041,195.214224 C98.3299156,180.689787 120.841213,167.626031 148.033291,156.075023 C175.115963,144.610298 200.007706,137.467986 222.620965,134.644244 Z" id="bp-proximal-interphalangeal-joint-index-finger-right-palmar" fill="#FFFFFF" fill-rule="nonzero"></path>
                    <path d="M168.290137,0 L168.609676,0.00489476276 L170.724594,5.7528835 C180.231544,31.4692237 189.578493,55.1210397 197.853506,74.8938655 C199.577053,79.0084331 201.316839,83.1452109 203.067478,87.2930766 L206.581634,95.6002966 L211.886199,108.073314 C214.819521,114.950152 217.757997,121.806575 220.677195,128.59212 C197.759995,131.589958 172.708898,138.842636 145.593941,150.321029 C118.376065,161.882995 95.6788286,174.979115 77.4847069,189.589272 L75.0358644,185.012867 C59.1960837,155.553364 44.8695498,131.687333 31.9501058,113.093362 L21.6333286,98.2952948 C13.2531137,86.3185235 6.54128753,77.1460446 0,71.0693331 C21.1614171,50.4219586 47.0994376,32.0727001 75.4107139,19.3835953 C104.017394,6.5620908 137.66576,0.157468066 168.290137,0 Z" id="bp-proximal-phalanx-index-finger-right-palmar" fill="#FFFFFF" fill-rule="nonzero"></path>
                </g>
                <g id="bp-middle-finger-right-palmar" stroke-width="1" fill="none" fill-rule="evenodd" transform="translate(492.2437, 1459.1025) scale(-1, 1) translate(-492.2437, -1459.1025)translate(381.8897, 1108.2505)">
                    <path d="M124.099042,292.950202 C145.162556,290.31855 164.454397,289.575167 182.011684,290.70763 L197.999363,427.124176 C178.283186,425.288561 156.418121,425.876287 132.354623,428.88276 C110.075973,431.601497 90.0792288,435.867381 72.3671889,441.687646 L67.259742,402.13801 L62.6926057,367.048965 C60.1442633,347.533504 57.5889735,328.065678 55.0910632,309.119199 C74.7672415,301.557773 97.7694946,296.163291 124.099042,292.950202 Z" id="bp-middle-phalanx-middle-finger-right-palmar" fill="#FFFFFF" fill-rule="nonzero"></path>
                    <path d="M107.243416,197.085996 C130.55317,194.173702 151.693236,193.573884 170.713919,195.26971 L172.673879,212.494163 C174.315234,226.717123 176.173403,242.367922 178.274974,259.68789 L180.934773,281.543219 L181.270453,284.399943 C163.607914,283.344183 144.305549,284.127211 123.333303,286.747466 C97.1522965,289.94242 74.1226113,295.27399 54.2487888,302.753916 L47.0601659,248.506861 C45.3431458,235.612206 43.698359,223.306538 42.153102,211.789337 C60.9462164,204.994659 82.6424404,200.088142 107.243416,197.085996 Z" id="bp-proximal-interphalangeal-joint-middle-finger-right-palmar" fill="#FFFFFF" fill-rule="nonzero"></path>
                    <path d="M81.1951608,0.951371364 C108.796845,-1.38708478 137.403759,0.650677866 163.308769,6.34511555 C161.134038,15.9622843 160.803227,28.9878442 160.761052,46.1129885 L160.755504,62.7640171 L160.821916,69.3324998 C161.228775,97.3497508 163.307324,128.34557 170.007438,188.931522 C150.84732,187.333952 129.684876,187.983772 106.477677,190.88326 C81.9958582,193.870857 60.2695831,198.72673 41.3025654,205.46048 L34.4571069,154.942667 C32.7579353,142.555637 31.4539735,133.223667 30.6585652,127.78083 L30.1278293,124.26724 C23.3366653,80.5749976 10.7567797,45.5221427 3.35720031,30.730186 L2.1984306,28.4399196 C1.44150351,26.9637245 0.713396757,25.5882514 0,24.3100409 C18.7940465,12.3805752 49.8724956,3.60507459 81.1951608,0.951371364 Z" id="bp-proximal-phalanx-middle-finger-right-palmar" fill="#FFFFFF" fill-rule="nonzero"></path>
                </g>
                <path d="M607.326105,232.052674 C607.809841,232.729281 608.28266,233.367501 608.743722,233.96561 C622.0383,250.813033 669.756338,283.321439 762.580978,339.321321 L768.405542,342.86843 C862.084805,400.242198 932.131243,458.821592 959.044422,490.453028 L962.851726,494.996591 C964.532564,496.973809 966.792866,499.60647 969.543292,502.790198 C937.646138,523.172429 904.748869,553.365143 876.696067,589.33642 C848.21052,625.862595 826.508842,681.385593 812.916189,737.367762 C793.481266,780.02187 826.779048,902.408034 862.841421,1005.1048 C831.264306,1006.30478 797.638836,1013.3479 768.322144,1026.48763 C733.124709,1042.26311 701.49962,1065.81456 676.872829,1092.06987 L675.624816,1093.41178 C643.951254,1084.76234 607.754383,1081.33812 572.892352,1084.29169 C536.035329,1087.41427 499.678235,1097.86578 476.669138,1113.96789 C457.121269,1085.8864 421.131411,1052.44259 391.107235,1040.76023 C358.738058,1028.16544 308.676254,1027.21238 276.816844,1035.50404 L275.083235,1031.63372 C272.477774,1025.89386 270.257225,1021.38718 267.847814,1017.04376 L267.038114,1015.60268 C265.401629,1012.72673 263.653238,1009.87054 261.623629,1006.71862 C234.912215,965.236498 193.644512,942.466771 130.994304,945.445718 L131.931794,940.186626 C132.925903,934.494139 133.759487,929.311833 134.412183,924.709922 C141.463057,873.26359 125.246047,615.298992 126.99417,545.447417 L127.149747,540.465334 C128.800845,492.313275 134.346774,401.355449 132.296242,327.97154 C255.754154,327.901754 364.889893,313.140879 459.803627,283.630556 C509.205367,268.364939 557.152236,251.651158 603.670456,233.48602 L607.326105,232.052674 Z" id="bp-palm-right" fill="#FFFFFF" fill-rule="nonzero" transform="translate(548.2023, 673.0103) scale(-1, 1) translate(-548.2023, -673.0103)"></path>
                <path d="M952.247578,0 C954.37471,13.7531915 957.358014,30.1480587 960.650283,46.9030868 L961.360299,50.4981312 C962.074645,54.0970254 962.801383,57.7049744 963.53513,61.299529 L965.89177,72.6874851 C972.932998,106.261937 980.089857,136.486848 982.771657,144.221803 L982.872587,144.508171 C991.21149,168.148822 1001.5838,192.1766 1010.89756,210.225142 C964.964023,228.159863 917.604575,244.667739 868.79074,259.751695 C776.12815,288.562083 669.108746,302.985811 547.631506,302.975815 L547.361794,298.606033 C546.138694,279.823201 544.202651,263.061159 541.302686,249.626594 L541.082093,248.699849 C537.136355,232.617532 516.551031,170.514896 501.893759,107.728587 L506.255458,106.462233 C582.363179,84.645246 893.61849,8.13896596 952.247578,0 Z" id="bp-wrist-right-palmar" fill="#FFFFFF" fill-rule="nonzero" transform="translate(756.3957, 151.4879) scale(-1, 1) translate(-756.3957, -151.4879)"></path>
            </g>
        </g>
        <g id="viewport-boundary" mask="url(#mask-2)" stroke="#FF0000" stroke-width="3">
            <g transform="translate(260, 190)" id="boundary">
                <rect x="0" y="0" width="560" height="1080"></rect>
            </g>
        </g>
    </g>
</svg>