<?xml version="1.0" encoding="UTF-8"?>
<svg width="1080px" height="1460px" viewBox="0 0 1080 1460" version="1.1" xmlns="http://www.w3.org/2000/svg" xmlns:xlink="http://www.w3.org/1999/xlink">
    <title>upper-limb-right-front</title>
    <defs>
        <rect id="path-1" x="0" y="0" width="1080" height="1460"></rect>
    </defs>
    <g id="upper-limb-right-front" stroke="none" stroke-width="1" fill="none" fill-rule="evenodd">
        <mask id="mask-2" fill="white">
            <use xlink:href="#path-1"></use>
        </mask>
        <g id="mask"></g>
        <g id="bp-upper-limb-right-front" mask="url(#mask-2)" fill="#FFFFFF">
            <g transform="translate(310, 289.4399)">
                <path class="hover" d="M90.6124994,694.071736 L90.9342757,692.899476 L93.4461034,693.691625 C100.577356,695.923003 106.624133,697.659925 111.587862,698.902355 L112.155793,699.043518 C121.725222,701.405067 133.675034,703.472295 148.022238,705.253062 L147.514133,706.990937 L146.822001,709.317451 C145.088168,715.119101 143.046795,721.761166 140.700535,729.241373 L140.548565,729.762896 L139.551569,734.793782 L139.528196,734.934666 C139.311096,738.780899 139.636746,743.604987 140.092655,747.42949 L140.222915,748.494266 L140.444075,750.464369 C140.743804,753.185522 141.107597,756.702822 141.416964,760.315456 L141.460384,760.9239 L141.684321,763.659982 L141.79982,765.246035 C142.087952,769.446575 142.210331,773.368274 142.003134,775.874228 L142.003134,776.113259 L141.865436,778.172854 L141.760478,780.035968 C141.680247,781.54689 141.602881,783.188984 141.525514,784.870501 L141.438674,786.978323 L141.177215,794.774752 L141.067798,798.673636 C141.06062,798.959122 141.053974,799.233246 141.047895,799.494877 L141.004475,801.66789 L140.974624,802.333375 L140.961055,803.015158 L140.917635,803.471491 L140.917635,804.079934 L140.787375,806.513709 L140.690548,807.881499 L140.55915,809.519137 C140.333663,812.168091 140.084355,814.376819 139.940686,815.575172 L139.810426,816.553028 C139.810426,816.553028 137.478585,825.416687 134.331226,835.760949 L134.087538,836.559457 C133.842293,837.360637 133.592453,838.169457 133.338707,838.982558 L132.494539,841.656665 L131.828327,843.721797 C131.051697,846.105046 130.253194,848.469442 129.449944,850.731597 L128.521234,853.320405 L127.686581,855.555474 C122.877762,868.352301 119.110423,876.956007 115.945197,882.71733 L114.643802,885.049064 L114.349648,885.598621 C111.513081,890.96936 110.26509,895.304951 105.139581,893.781904 C100.806113,892.482752 101.095459,888.011307 102.094954,883.757795 L102.208733,883.286252 L102.295573,882.98203 L102.447543,882.373586 L102.534383,882.069364 L102.729772,881.33054 L103.098842,880.005002 L104.640251,874.876692 L112.976973,847.442606 L113.584765,845.367178 C115.495243,838.782949 116.168253,835.197478 114.626844,834.871526 C113.114148,834.556089 112.618049,837.679936 110.698715,843.514378 L110.263137,844.823925 C109.685651,846.512356 109.065614,848.530867 108.417919,850.715484 L105.72575,859.926364 C104.78016,863.152081 103.834569,866.29195 102.934722,868.964428 L102.360703,870.639317 C101.296913,873.768455 99.6252447,878.961956 97.8450259,884.394488 L97.3022763,886.024248 L96.7595267,887.610547 L95.3520849,891.834874 L94.4922374,894.352525 C92.8936034,898.97844 91.4638663,902.781156 90.6156012,904.255825 C88.2057929,908.42801 85.318365,909.905659 81.106628,908.667041 C76.8948911,907.428424 74.9409925,904.864269 75.7659719,898.019279 L75.7659719,897.845438 C76.1013537,895.159893 77.1653237,890.711961 78.4498241,885.929433 L79.0007596,883.894695 L80.5034196,878.656981 L81.5288543,875.193719 C82.5831393,871.682957 83.5493756,868.61317 84.1894458,866.662704 L85.4052049,863.077232 L85.4567661,862.914256 C85.4757624,862.859931 85.4920449,862.816471 85.4920449,862.816471 L85.6657247,862.273218 L86.2303983,860.570545 L86.6813995,859.193209 C87.4489127,856.834971 88.2875164,854.182603 89.0752179,851.524983 L89.7215396,849.300143 L90.1086653,847.916411 C91.9351917,841.277486 93.068733,835.460944 91.4840005,835.262668 C89.758976,835.045411 87.3847179,841.236257 85.1678596,848.170871 L84.7117098,849.614373 L84.4858154,850.3406 L83.7699283,852.683597 C82.3993119,857.221526 81.1678984,861.56061 80.2961201,864.152929 L79.2993724,867.076481 L76.9166011,874.246518 L74.3411818,882.27115 L73.0389943,886.423539 C72.9145411,886.825466 72.7977889,887.204555 72.6896941,887.557781 L72.1621145,889.305497 L71.9489345,890.037279 C71.5825785,891.31493 71.1634552,892.869238 70.7292555,894.498998 L68.394669,903.315318 C67.9388441,905.011287 67.5487428,906.401676 67.277368,907.189393 L67.277368,907.276313 C66.3221287,910.14469 62.9570812,914.621097 57.1388054,913.947463 C51.2771096,913.273829 49.323211,905.168491 50.6475201,899.801149 L51.9744009,894.369855 L52.7362287,891.193096 C53.6496548,887.325868 54.5240571,883.366392 54.9678069,880.461335 L54.9678069,880.309224 L55.1184126,879.37193 L55.2433056,878.654283 C55.6658673,876.28694 56.3400159,873.042479 57.1074835,869.588998 L58.0940447,865.185055 L58.8570585,861.942743 L59.2897249,860.149151 C59.7184767,858.39239 60.1331358,856.757879 60.512563,855.351413 L61.3236683,852.436083 L62.1222304,849.619866 C62.5549805,848.08157 63.0275608,846.373002 63.4932904,844.606694 L63.8306457,843.311523 C64.0066489,842.626997 64.1799858,841.938012 64.3480358,841.250885 L64.6735537,839.892738 C66.1403775,833.637968 67.0166749,827.890833 65.2800495,827.526743 C63.5373633,827.161382 61.5264487,832.868721 59.7426298,839.153536 L59.410946,840.337364 L59.0049314,841.823919 C57.8024801,846.280719 56.7467378,850.64097 56.0098862,852.994453 L55.6954934,854.084078 L55.4899859,854.832518 C55.1047339,856.261131 54.6742747,857.991849 54.2229848,859.884376 L52.0369591,869.205129 L51.335552,872.066942 L50.977545,873.477627 C50.1036812,876.8721 49.242813,879.838017 48.476856,881.637452 L48.1508719,882.373586 C47.9482453,882.822676 47.7552677,883.281423 47.5655064,883.749828 L46.8048528,885.676566 L46.587753,886.198089 L46.4792031,886.48058 L45.9147435,887.827848 C44.2864947,891.47851 42.2023362,894.455538 38.0340192,893.542872 C31.6512838,892.130414 31.2387941,883.568743 32.8670429,877.419117 L32.9104629,877.223546 L33.1147456,876.385954 C33.80956,873.383807 34.6404575,868.332186 35.5283199,862.79908 L36.5360303,856.493004 C37.4044296,851.147392 38.272829,845.866971 39.0978084,841.999008 L39.2280683,841.390564 C40.3027125,836.457825 43.4126678,826.043661 46.1291296,815.558875 L46.4810195,814.191338 L46.9032992,812.522708 C49.2681277,803.084246 51.1203153,794.014791 50.66923,789.303447 L50.5213325,787.885754 L50.4550889,787.332277 C49.4698653,779.454717 47.8610258,782.075959 42.5931159,786.500261 L41.9852363,787.000054 C36.0801206,791.997983 28.7855659,800.668304 20.1667021,803.819173 L19.6709197,803.995624 C14.412581,805.808647 5.06537268,807.234198 1.30072572,801.950382 C-2.58536147,796.49612 3.05923445,795.735565 7.44465128,791.367809 L7.94721898,790.854492 C12.5950347,786.02352 22.6365088,773.536461 27.6783567,769.746332 L27.9388765,769.550761 C33.0190128,765.552417 36.0149906,757.686111 39.0760984,754.27448 C45.1114741,747.559871 55.9013363,740.823531 60.9597626,736.607886 L61.1768624,736.412315 C64.60704,733.630859 70.5555757,729.806356 74.9627025,727.04663 L76.8948911,725.851473 C78.6968198,724.330364 80.8026883,722.07043 82.1269973,720.071259 L83.950636,715.18198 L87.6926794,703.675459 C88.8105195,700.199776 89.7438195,697.188064 90.6124994,694.071736 L90.6124994,694.071736 Z M95.1529879,737.542282 C93.9806487,737.759583 93.2207993,738.88955 93.4378991,740.062977 C95.2181178,749.363471 92.7214696,757.838221 85.8828246,765.617607 C80.5421685,771.702043 71.7496248,775.570006 59.8525534,777.91686 L59.070994,778.068971 C57.8986548,778.286272 57.1388054,779.416239 57.3559052,780.589666 C57.5730051,781.763093 58.7019242,782.523647 59.8742634,782.306346 C73.0088039,779.807381 82.8868468,775.548276 89.1176123,768.464254 C96.6319806,759.925944 99.5647009,750.396087 97.8151628,740.055952 L97.6713461,739.258962 C97.4542462,738.085535 96.325327,737.32498 95.1529879,737.542282 Z" id="bp-hand-right-palmar"></path>
                <path class="hover" d="M131.994565,466.116992 L133.4943,462.045051 L135.58377,462.425582 C153.902892,465.792477 168.567653,469.305815 179.512955,472.940959 C191.125272,476.797632 206.958816,483.600564 226.980046,493.342321 L226.684389,495.52084 C226.534962,496.594538 226.382581,497.647834 226.224739,498.693965 L225.898301,500.797061 L225.552002,502.90398 L225.184215,505.01872 L224.77167,507.264047 C223.624475,513.34456 222.081124,520.258577 219.672113,530.158883 L219.377518,531.366825 C217.068386,540.808247 209.99953,560.100446 202.174996,580.087124 L201.61487,581.515801 C201.240668,582.468875 200.864968,583.42303 200.488203,584.377276 L198.748271,588.766056 L195.334053,597.280377 L192.179418,605.041168 C184.567145,623.649503 177.853749,639.205239 175.833104,643.03269 L175.65361,643.363906 C173.558708,647.127475 168.529283,655.871591 163.580094,665.272672 L162.332858,667.65989 C157.730174,676.539817 153.420649,685.676547 151.881177,691.51787 L151.204303,694.063698 L150.807161,695.520023 L149.918736,695.411218 C136.00195,693.701511 124.441493,691.730705 115.253786,689.506385 L114.55172,689.334783 C108.992063,687.962768 101.901731,685.902205 93.2942863,683.156357 L93.5521685,681.96316 C94.1352659,679.232234 94.7510512,676.166162 95.4343825,672.599197 L95.8694174,670.309265 L96.1360243,668.856404 C97.8704237,659.163009 99.9118489,643.181377 101.828534,626.809053 L102.414125,621.763328 L104.022569,607.518573 L107.147995,579.014567 L107.697531,574.148986 C107.803029,573.23827 107.898633,572.432306 107.983589,571.741403 L108.099934,570.835958 L108.237094,569.838831 C110.661138,552.686636 122.009063,493.639116 130.453422,470.348625 L131.994565,466.116992 Z" id="bp-forearm-right-front"></path>
                <path class="hover" d="M153.182539,401.542382 L153.418311,399.842996 L156.420644,400.731296 C170.929355,404.993203 182.954484,408.068734 192.51262,409.959435 L193.160489,410.08651 C204.293969,412.251498 219.775407,414.289089 239.638628,416.207595 L236.868249,428.490043 L236.094527,431.978691 C234.271884,440.260219 232.806026,447.43935 232.016379,453.092787 L231.102812,460.07147 L230.174854,467.392522 C229.41484,473.480716 228.816538,478.5018 228.290427,482.866239 L226.375558,481.946383 C208.624607,473.44689 194.265519,467.350479 183.251687,463.646798 L182.66486,463.450675 C171.162558,459.63054 155.951199,455.990689 137.040455,452.525787 L145.142251,431.018445 L146.260996,428.009205 C147.514121,424.61643 148.583201,421.634737 149.449659,419.043792 C151.0164,414.35881 152.273974,407.892258 153.182539,401.542382 L153.182539,401.542382 Z" id="bp-elbow-right-front"></path>
                <path class="hover" d="M167.502036,188.273079 C172.704938,190.366695 177.785154,192.191325 182.686288,193.694508 C184.425978,194.228072 186.136482,194.718843 187.816133,195.165055 L188.526573,195.34913 C195.422615,197.088348 206.506815,198.55762 221.984765,199.812128 C220.850975,228.087615 233.780677,245.018854 260.042453,249.119005 L259.449747,257.29671 L254.818212,323.067416 L254.253169,330.605232 C254.057897,333.125289 253.886794,335.217969 253.744423,336.795257 C251.589548,360.464419 246.579403,385.043185 241.846124,406.374881 L238.753679,406.075082 C220.079299,404.237549 205.51007,402.300663 195.069307,400.27038 L193.840157,400.027288 C183.68133,397.985279 170.564065,394.552688 154.50951,389.731485 L154.593117,388.644856 C154.749761,386.512635 154.84282,384.633897 154.869288,383.139269 L154.893262,380.73159 C155.000841,374.01604 155.640603,353.05578 156.610707,329.664913 L156.797713,325.223361 L157.236972,315.298449 L157.437887,310.985693 C158.027152,298.540084 158.691944,286.275688 159.403595,275.870523 L159.767838,270.717903 L159.949792,268.256702 C160.602814,259.539946 161.423083,249.771873 162.327218,239.754584 L163.087052,231.48651 L163.477907,227.341306 L164.063808,221.251533 C165.097345,210.634645 166.167689,200.289442 167.175706,191.169603 L167.502036,188.273079 Z" id="bp-upper-arm-right-front"></path>
                <path class="hover" d="M263.053951,212.351653 L262.884327,213.933112 L262.635541,216.49704 C262.106508,222.140057 261.471614,230.025241 260.784858,239.111299 C238.07603,235.282026 229.013256,220.285127 232.668761,192.240429 L233.032155,189.532934 L233.959377,182.175852 C234.658091,176.725304 235.227833,173.6855 236.212523,170.629557 C237.415441,166.896353 239.279789,163.253672 242.36859,158.770755 C249.069185,149.040526 263.737016,140.516456 285.046719,133.192817 C289.020055,131.827275 293.060416,130.545025 297.258628,129.315198 C274.484776,151.272356 265.474123,190.852701 263.053951,212.351653 Z" id="bp-armpit-right"></path>
                <path class="hover" d="M384.004329,5.68434189e-14 L383.982619,0.0651903846 L383.877874,9.01178188 L383.836608,14.0402839 C383.825787,15.674257 383.817991,17.2661249 383.813485,18.8161546 L383.808939,23.2946974 L383.816904,26.3172528 C383.876559,41.1177833 384.234466,51.2350035 384.924776,56.6860044 L384.959568,56.954666 C386.023358,65.0165436 390.994944,77.7721289 399.874328,95.1996917 C370.275317,98.5976541 345.98605,104.08312 327.006526,111.664219 L324.59642,112.184355 C307.889167,115.819394 294.570149,119.345751 281.796545,123.735736 C258.62771,131.698316 242.359449,141.15246 234.133273,153.098052 C230.518913,158.343738 228.213574,162.848053 226.694438,167.562628 C225.557675,171.090524 224.902551,174.416722 224.193503,179.733716 L223.302242,186.800319 C223.197043,187.625311 223.098207,188.382928 222.998108,189.129079 L222.899277,189.853309 L220.568927,189.660181 C206.293587,188.448579 196.212098,187.052406 190.386559,185.501055 C188.828834,185.087233 187.239678,184.631278 185.618487,184.134057 C180.222144,182.478994 174.549507,180.393249 168.705303,177.960151 L169.259465,173.415092 L169.664738,170.286716 C170.211902,166.160579 170.691204,162.969125 171.072803,160.99852 L171.241896,160.151765 L171.419755,159.306965 C174.500893,145.005758 186.249468,106.350909 212.278353,85.0082616 C224.064499,75.3371554 248.953174,64.6808484 276.356974,53.6431432 L278.055169,52.9599175 L304.136823,42.5289061 L307.331322,41.2412153 C341.700717,27.3549656 373.917456,13.2281252 384.004329,5.68434189e-14 Z" id="bp-shoulder-right-front"></path>
            </g>
        </g>
        <g id="decoration" opacity="0.15" mask="url(#mask-2)">
            <g transform="translate(424.6267, 0)">
                <g id="bp-lower-limb-left-front" stroke-width="1" fill="none" transform="translate(347.7289, 1027.395)">
                    <path d="M204.806729,416.262301 L207.20009,431.560346 C210.044098,448.683687 213.300596,465.611457 216.557093,482.517497 L217.577463,487.863109 C220.820922,504.779947 224.029211,521.661583 226.775017,538.666427 C197.298589,551.512149 169.224621,558.635557 142.539647,560.051473 L142.392987,560.051281 L142.188533,560.066905 C127.315139,560.831471 112.872818,559.818308 98.8604076,557.032384 C98.9206589,555.599159 98.9916587,554.170584 99.0626584,552.749271 L99.2363383,548.577087 L99.366171,545.848598 C99.8142159,535.859077 99.8822103,526.03389 97.1955998,516.373037 L81.2352965,459.230146 L77.9777023,447.400881 C77.6362452,446.108351 76.8046855,442.957811 75.4872884,437.949259 C129.903462,439.892318 173.018262,432.68778 204.806729,416.262301 Z" id="bp-knee-left" fill="#FFFFFF"></path>
                    <path d="M47.6751255,75.251434 L92.7358199,52.0221112 L114.910209,228.655563 C125.974015,317.174574 134.168687,383.508316 139.494126,427.655941 L139.811679,430.277254 C120.216998,432.956 98.3340589,433.830301 74.1604204,432.893418 L73.8139467,431.582076 C70.9643102,420.874757 68.3662594,410.714953 65.8616708,400.288705 L64.6274952,395.096649 C59.7599424,374.399994 55.1522295,352.156523 49.6059335,322.197199 L47.3180671,309.713285 C44.6454681,295.456628 34.2704257,249.45689 23.2765997,202.366679 L18.576391,182.329368 C11.6447805,152.921399 4.86610928,124.802411 0,105.586693 L1.19266059,105.232612 C7.13385858,103.397653 33.8004041,94.3132164 47.6751255,75.251434 Z" id="bp-thigh-medial-left-front" fill="#FFFFFF"></path>
                    <path d="M97.468,49.578 L149.940153,22.5232574 L149.711763,24.5507613 C146.17742,57.4493439 148.378848,111.938463 153.567146,127.769449 C162.700541,155.68413 176.38833,169.588208 194.302476,168.740227 L194.679593,193.819831 C195.759399,261.349529 197.325573,326.712341 198.863456,358.764417 C199.733399,376.552603 201.591426,393.846289 204.022747,411.022907 C187.562438,419.790791 167.809226,425.971779 144.760679,429.554764 L139.460169,385.974564 C131.527526,321.223621 119.794536,227.082348 104.260572,103.549891 L97.468,49.578 Z" id="bp-thigh-lateral-left-front" fill="#FFFFFF"></path>
                    <path d="M193.58793,0.0217301282 L193.65306,0 L193.525965,6.7374909 C193.368804,16.6863157 193.291436,29.0455893 193.282947,43.1543296 L193.283923,49.8385252 L193.305912,61.1509617 C193.395156,91.3172098 193.731065,127.152484 194.231927,163.707781 C178.691715,164.461251 166.82352,152.206483 158.318868,126.21345 C155.229892,116.788097 153.226867,92.1705913 153.009639,67.1671979 L152.993732,64.6237264 L152.992039,61.2050841 C153.034166,46.4062591 153.723033,31.8852464 155.20431,20.7238811 L155.338,19.74 L193.58793,0.0217301282 Z" id="bp-trochanter-left" fill="#FFFFFF"></path>
                </g>
                <g id="bp-lower-limb-right-front" stroke-width="1" fill="none" transform="translate(0, 1027.395)">
                    <path d="M122.210894,416.262301 C153.999361,432.68778 197.114161,439.892318 251.529859,437.946173 L248.861679,448.075244 L244.978626,462.123299 C240.653976,477.675473 235.710598,495.2141 229.822023,516.373037 C226.891175,526.912149 227.238535,537.646832 227.781285,548.577087 L227.954964,552.749271 C228.025964,554.170584 228.096964,555.599159 228.159065,557.032029 C214.145362,559.818197 199.703632,560.83139 184.830002,560.069824 L184.772482,560.060865 L184.516801,560.049386 L184.479974,560.051579 C157.794403,558.635913 129.71977,551.51247 100.244414,538.668914 C102.645412,523.787499 105.401883,509.00232 108.22635,494.205587 L110.460529,482.517497 L112.896457,469.831177 C115.319495,457.135349 117.684527,444.402852 119.817533,431.560346 L122.210894,416.262301 Z" id="bp-knee-right" fill="#FFFFFF"></path>
                    <path d="M234.281803,52.0221112 L279.342497,75.251434 C292.856836,93.8181052 318.507119,102.919003 325.320652,105.074908 L326.545431,105.450555 L327.017623,105.586693 L324.77197,114.538001 C320.282606,132.580142 314.641707,156.033986 308.869198,180.493117 L302.613195,207.171967 C291.803498,253.563017 281.83463,297.873077 279.537887,310.588723 L278.084383,318.550745 C269.614902,364.619447 263.383476,392.625077 255.296202,423.641528 L252.858906,432.894777 C228.683564,433.830301 206.800625,432.956 187.205943,430.277254 L191.455793,395.2818 C198.732971,335.738563 209.509588,249.131194 223.785908,135.461821 L234.281803,52.0221112 Z" id="bp-thigh-medial-right-front" fill="#FFFFFF"></path>
                    <path d="M178.206888,23.1058441 L229.549974,49.5795677 L213.449667,177.677362 C200.325164,282.380677 190.573261,361.005807 184.193828,413.553834 L182.256944,429.554764 C159.208396,425.971779 139.455185,419.790791 122.993092,411.023451 C125.426197,393.846289 127.284223,376.552603 128.154167,358.764417 L128.46549,351.83585 C130.09166,313.380268 131.710708,240.094473 132.716439,168.692487 C151.153053,170.151279 165.20134,156.254565 174.514646,127.790019 C179.780058,111.723736 181.96942,55.8117878 178.206888,23.1058441 Z" id="bp-thigh-lateral-right-front" fill="#FFFFFF"></path>
                    <path d="M133.364563,0 L133.429693,0.0217301282 L172.821364,20.3294285 C174.241986,30.8065701 174.951195,44.3314651 175.072528,58.2895894 L175.088312,60.8246138 L175.088312,64.4665297 C174.998012,90.3844793 172.963231,116.468964 169.762924,126.234019 C161.064923,152.81799 148.849245,165.032155 132.787131,163.660016 L133.070104,141.583444 C133.774946,82.5050455 133.993054,28.0567292 133.364563,0 Z" id="bp-trochanter-right" fill="#FFFFFF"></path>
                </g>
                <g id="bp-pelvic-region-front" stroke-width="1" fill="none" transform="translate(136.7513, 916.5714)">
                    <path d="M388.782399,0 L388.804109,0 L389.41728,1.97674087 C393.502475,14.8223378 401.22222,34.3966199 401.22222,90.9188564 L366.719964,108.440977 C368.459278,79.6128488 365.945276,52.8668629 359.178999,28.2344196 L361.377346,26.3810645 C378.896002,11.4840137 388.782399,0 388.782399,0 Z" id="bp-hip-left" fill="#FFFFFF"></path>
                    <path d="M354.939006,31.7215655 C361.336559,56.0455977 363.54155,82.5006283 361.537716,111.072304 L251.014687,167.202718 C258.761342,147.927472 260.876438,120.382942 257.47858,84.6063146 C297.264843,72.9635412 330.567957,51.2511429 353.679612,32.737742 L354.939006,31.7215655 Z" id="bp-groin-left" fill="#FFFFFF"></path>
                    <path d="M200.621965,143.745833 C218.535333,143.745833 235.091758,146.408187 250.302179,151.727375 L250.518829,151.80462 C248.674918,159.927856 246.110823,166.915406 242.832852,172.768798 C225.368788,191.930471 206.054355,198.21477 201.143005,199.047974 C195.885603,198.185306 175.20983,191.179532 157.55925,171.190219 C154.685678,165.671915 152.406112,159.21021 150.725101,151.80462 C165.994911,146.43354 182.623505,143.745833 200.621965,143.745833 Z" id="bp-genital-organ" fill="#FFFFFF"></path>
                    <path d="M251.632758,146.26941 L251.52663,146.859438 C235.889111,141.448579 218.917342,138.745833 200.621965,138.745833 C182.326588,138.745833 165.354819,141.448579 149.717301,146.859438 C146.777982,130.704784 146.40197,110.509601 148.631914,86.2672642 C164.897746,90.4816115 182.28418,93.0049488 200.600255,93.0049488 C218.807505,93.0049488 236.219268,90.3672994 252.587109,85.9803884 C254.758727,109.419735 254.501796,129.086368 251.852784,144.988313 L251.632758,146.26941 Z" id="bp-mons-pubis" fill="#FFFFFF"></path>
                    <path d="M143.73225,84.9366241 L143.413397,88.5135828 C140.52956,122.404141 142.768294,148.6503 150.235706,167.218795 L40.0831613,111.273915 C40.1223992,111.058851 40.1338593,110.83504 40.1139737,110.606728 C37.6330385,82.1225379 39.2625113,55.7041736 44.9867029,31.3654838 L47.0708324,33.0743029 C69.9682749,51.6874552 103.21383,73.4438256 143.73225,84.9366241 Z" id="bp-groin-right" fill="#FFFFFF"></path>
                    <path d="M12.418111,0 L14.0576798,1.87805178 C17.5864057,5.86697948 26.7746906,15.8260478 40.7079097,27.7647058 C34.5520364,52.6378878 32.6257296,79.6133688 34.9345245,108.659929 L-2.84217094e-14,90.9188564 C-2.84217094e-14,31.4217654 8.55373382,12.8642359 12.418111,0 Z" id="bp-hip-right" fill="#FFFFFF"></path>
                </g>
                <g id="bp-abdomen" stroke-width="1" fill="none" transform="translate(156.3337, 722.976)">
                    <path d="M356.152368,148.374954 L356.486461,149.758942 C356.859149,151.382967 357.340387,153.685153 357.865045,156.28794 L360.820015,171.191589 L360.950275,171.800032 L361.515265,174.586028 C361.759581,175.752652 361.97066,176.712852 362.122652,177.384675 L360.944335,178.650706 C350.553472,189.668675 272.844344,268.918438 183.753759,270.496121 L183.67,203.004 L189.246009,203.005531 C201.122335,203.005531 207.14284,201.949205 212.988331,199.048367 L213.976223,198.540076 C219.496177,195.588651 223.84714,191.233651 226.815311,185.69264 C230.012109,179.702688 231.216257,173.818557 231.277419,161.913554 L231.278877,154.769332 C274.071784,153.942088 314.157911,145.59614 351.539965,129.722768 L352.149355,132.311486 C353.298216,137.14172 354.622888,142.444707 356.152368,148.374954 Z" id="bp-lower-left-quadrant-abdomen" fill="#FFFFFF"></path>
                    <path d="M10.5347268,129.895634 C47.1496648,145.3815 86.3561168,153.653336 128.156621,154.719322 L130.798,154.776 L130.799379,160.934968 C130.799379,172.871436 131.851398,178.895249 134.761584,184.722306 L135.263959,185.69264 C138.208565,191.210064 142.559528,195.565064 148.095743,198.536172 C154.080942,201.736364 159.960599,202.941828 171.855506,203.003058 L178.67,203.004 L178.752784,270.496691 L181.061345,270.520005 C84.1262647,270.520005 -0.0650544706,177.297755 2.84217094e-14,177.384675 L0.220881431,176.391413 L1.01480814,172.567565 C1.51952026,170.077692 2.12109572,167.042322 2.73553351,163.955456 L2.8875034,163.238362 L2.95263335,162.868949 L4.77355828,153.791188 C5.25931918,151.428037 5.67723638,149.494055 5.97032117,148.374954 L7.15248492,143.747032 C8.16533901,139.747708 9.07831683,136.046294 9.90218147,132.585867 L10.5347268,129.895634 Z" id="bp-lower-right-quadrant-abdomen" fill="#FFFFFF"></path>
                    <path d="M189.246009,107.436428 L191.102928,107.445574 C201.61244,107.553003 206.584577,108.619533 211.622554,111.313257 C216.286635,113.816322 219.924946,117.458009 222.40602,122.10689 C225.185279,127.295245 226.224962,132.388977 226.277757,143.585656 L226.27989,160.934968 C226.27989,172.745281 225.251468,178.003449 222.40602,183.335069 C219.90509,188.003824 216.266779,191.64551 211.622554,194.128702 L210.754138,194.5752 C205.682497,197.087892 200.40006,198.005531 189.246009,198.005531 L172.833261,198.005531 C161.034858,198.005531 155.782576,196.976353 150.456715,194.128702 C145.792635,191.625637 142.154324,187.98395 139.673249,183.335069 C136.867254,178.096803 135.834465,172.95499 135.800262,161.531474 L135.799379,144.506991 C135.799379,132.696678 136.827802,127.43851 139.673249,122.10689 C142.174179,117.438136 145.81249,113.796449 150.456715,111.313257 L151.325131,110.866759 C156.306207,108.398936 161.490618,107.469709 172.241307,107.437309 L189.246009,107.436428 Z M181.039635,147.158067 C177.913397,147.158067 175.395039,149.700492 175.395039,152.8079 C175.395039,155.915308 177.935107,158.457733 181.039635,158.457733 C184.144162,158.457733 186.684231,155.915308 186.684231,152.8079 C186.684231,149.700492 184.144162,147.158067 181.039635,147.158067 Z" id="bp-umbilical-region" fill="#FFFFFF"></path>
                    <path d="M183.562,0 L343.430317,42.5057692 L344.099246,68.6560097 C344.715558,90.7770683 345.58546,102.977939 350.411893,124.764841 C313.419002,140.605311 273.720363,148.936482 231.278829,149.768192 L231.27989,144.506991 C231.27989,131.907386 230.107733,125.895646 226.815311,119.749319 C223.870705,114.231895 219.519741,109.876895 213.983527,106.905787 C207.998327,103.705595 202.11867,102.500131 190.223763,102.438901 L183.75243,102.435273 L183.562,0 Z" id="bp-upper-left-quadrant-abdomen" fill="#FFFFFF"></path>
                    <path d="M18.692372,42.5057692 L178.562,0 L178.752416,102.434596 L172.833261,102.436428 C160.287458,102.436428 154.276278,103.615202 148.103046,106.901883 C142.583093,109.853308 138.232129,114.208308 135.263959,119.749319 C132.067161,125.739271 130.863013,131.623402 130.80185,143.528406 L130.798043,149.775993 C88.3585022,148.992945 48.6594402,140.717401 11.6624681,124.942377 L12.1347389,122.785498 C18.1057313,95.1465678 17.5738425,82.7585201 18.692372,42.5057692 Z" id="bp-upper-right-quadrant-abdomen" fill="#FFFFFF"></path>
                </g>
                <g id="bp-upper-limb-left-front" stroke-width="1" fill="none" transform="translate(389.499, 289.4399)">
                    <path d="M308.273157,690.36875 L308.679429,691.931729 C309.837316,696.301972 311.06492,700.234704 312.669894,705.187546 L315.931193,715.202091 L317.74733,720.071259 C319.071639,722.07043 321.177508,724.330364 322.979437,725.851473 L324.911625,727.04663 L326.628622,728.127322 C330.766537,730.746184 335.69606,733.978541 338.697465,736.412315 L338.914565,736.607886 C343.972991,740.823531 354.762854,747.559871 360.798229,754.27448 C363.859337,757.686111 366.855315,765.552417 371.935451,769.550761 L372.195971,769.746332 C374.76446,771.677152 378.630466,775.865026 382.419896,780.147923 L383.260172,781.100363 C386.891068,785.226767 390.35657,789.29278 392.429676,791.367809 C396.815093,795.735565 402.459689,796.49612 398.573602,801.950382 C394.687515,807.404644 384.852892,805.709694 379.707626,803.819173 C371.088762,800.668304 363.794207,791.997983 357.889091,787.000054 L357.281212,786.500261 L355.971106,785.378046 C351.383074,781.38992 350.101969,779.907482 349.205098,789.303447 C348.705768,794.518678 351.028736,805.074088 353.745198,815.558875 L354.101551,816.92561 C356.728243,826.938879 359.618339,836.672292 360.646259,841.390564 L360.776519,841.999008 C361.601499,845.866971 362.469898,851.147392 363.338297,856.493004 L364.999987,866.834131 C365.726257,871.24934 366.397079,875.033459 366.963865,877.223546 L367.007285,877.419117 C368.635534,883.568743 368.223044,892.130414 361.840308,893.542872 C357.671992,894.455538 355.587833,891.47851 353.959584,887.827848 L353.395125,886.48058 L353.286575,886.198089 L353.069475,885.676566 L352.591855,884.459679 C352.403702,883.981616 352.215549,883.513211 352.020963,883.054464 L351.549776,881.982444 C350.442567,879.5704 349.118258,874.52901 347.837369,869.205129 L345.77492,860.404427 C345.138094,857.715323 344.537753,855.318369 344.040785,853.598533 L343.553101,851.95056 C342.82209,849.40205 341.855217,845.457124 340.774995,841.474963 L340.577369,840.750826 L340.377409,840.027684 L340.175278,839.307352 L339.97114,838.591646 C338.227901,832.532947 336.284873,827.172303 334.594278,827.526743 C331.381201,828.200377 337.112636,847.301159 338.979695,853.950579 L339.554316,856.07316 C340.140192,858.292474 340.797413,860.985214 341.454633,863.794327 L341.780283,865.185055 L342.084223,866.532323 L342.279613,867.423258 L342.998058,870.636022 C343.862818,874.577527 344.580871,878.147648 344.906521,880.309224 L344.906521,880.461335 C345.70979,885.720026 347.924209,894.433807 349.226808,899.801149 C350.551117,905.168491 348.597218,913.273829 342.735522,913.947463 C336.917247,914.621097 333.552199,910.14469 332.59696,907.276313 L332.59696,907.189393 L332.420312,906.646819 C331.976868,905.223156 331.321498,902.734716 330.599641,899.99672 L329.145072,894.498998 C328.624033,892.543286 328.124703,890.696225 327.712213,889.305497 L326.708348,886.01411 C326.247971,884.532092 325.694267,882.774079 325.090223,880.875946 L322.957727,874.246518 L320.916184,868.096892 C320.685415,867.403942 320.461078,866.735137 320.243979,866.09772 L319.722939,864.576611 C318.828768,862.003484 317.503015,857.30277 316.020994,852.407783 L315.388512,850.3406 L315.162618,849.614373 C312.820182,842.120646 310.234319,835.030428 308.390327,835.262668 C306.750334,835.467858 308.021497,841.689974 309.959183,848.613724 L310.287917,849.773268 L310.626685,850.940336 C311.427053,853.668021 312.290505,856.412501 313.085024,858.861163 L314.446395,862.999819 C314.455554,863.02834 314.463695,863.055502 314.469123,863.077232 L315.684882,866.662704 L316.288031,868.530646 C317.23483,871.502179 318.543419,875.768876 319.823136,880.217816 L320.873568,883.894695 L321.286058,885.415804 C322.632077,890.392004 323.760996,895.063981 324.108356,897.845438 L324.108356,898.019279 C324.933335,904.864269 322.979437,907.428424 318.7677,908.667041 C314.555963,909.905659 311.668535,908.42801 309.258727,904.255825 C308.021257,902.104543 305.546319,894.998791 303.114801,887.610547 L302.941121,887.110754 L302.029302,884.394488 L298.530127,873.685671 C298.227244,872.766746 297.947531,871.924726 297.696466,871.179642 L297.274815,869.943953 C296.387118,867.394285 295.44796,864.329532 294.503084,861.131238 L291.456409,850.715484 C290.901241,848.842955 290.366394,847.092463 289.861246,845.567269 L289.372381,844.10683 C287.288222,837.892014 286.810603,834.545574 285.247484,834.871526 C283.706075,835.197478 284.379084,838.782949 286.289563,845.367178 L287.231573,848.55879 C287.761771,850.323005 288.417142,852.478362 289.133571,854.841514 L295.234077,874.876692 L296.775486,880.005002 L297.144555,881.33054 C297.209685,881.569571 297.274815,881.808603 297.339945,882.069364 L297.426785,882.373586 L297.578755,882.98203 L297.665595,883.286252 L297.849955,884.063932 C298.790082,888.223803 298.964363,892.513887 294.734747,893.781904 C289.435491,895.35658 288.281093,890.66869 285.230526,885.049064 L283.929131,882.71733 C280.583034,876.626789 276.564047,867.359739 271.353094,853.320405 L271.027444,852.407739 C270.099113,849.86256 269.171402,847.153506 268.27062,844.408676 L267.379789,841.656665 L266.53562,838.982558 C262.898598,827.328114 260.063902,816.553028 260.063902,816.553028 L259.933642,815.575172 L259.718818,813.688658 C259.51965,811.849846 259.270849,809.290052 259.086953,806.513709 L258.956693,804.079934 L258.956693,803.471491 L258.913273,803.015158 C258.913273,802.558825 258.891563,802.102493 258.869853,801.66789 L258.826433,799.494877 C258.783013,797.626086 258.710646,795.119878 258.622198,792.38832 L258.435653,786.978323 L258.348813,784.870501 L258.224034,782.216111 C258.112336,779.911901 257.997506,777.788455 257.871194,776.113259 L257.871194,775.874228 C257.624385,772.889194 257.845214,767.895358 258.256789,762.814272 L258.413943,760.9239 L258.457363,760.315456 L258.61774,758.501586 C258.972806,754.603619 259.369183,750.96136 259.651412,748.494266 L259.781672,747.42949 C260.237582,743.604987 260.563232,738.780899 260.346132,734.934666 L259.325763,729.762896 L259.173793,729.241373 L256.923504,722.022113 C254.632332,714.621324 252.690641,708.179991 251.100768,702.700453 L254.395394,702.284264 C266.857957,700.66921 277.402086,698.828002 286.034006,696.758684 L287.149065,696.487479 C292.739504,695.107868 299.781385,693.068021 308.273157,690.36875 Z M302.202982,739.258962 C300.162243,749.906725 303.049671,759.707012 310.756715,768.464254 C316.987481,775.548276 326.865524,779.807381 340.000064,782.306346 C341.172403,782.523647 342.301323,781.763093 342.518422,780.589666 C342.735522,779.416239 341.975673,778.286272 340.803334,778.068971 L340.021774,777.91686 C328.124703,775.570006 319.332159,771.702043 313.991503,765.617607 C307.152858,757.838221 304.65621,749.363471 306.436429,740.062977 C306.653528,738.88955 305.893679,737.759583 304.72134,737.542282 C303.549001,737.32498 302.420081,738.085535 302.202982,739.258962 Z" id="bp-hand-left-palmar" fill="#FFFFFF"></path>
                    <path d="M269.420905,470.348625 L269.952129,471.849493 C278.508725,496.585258 289.720372,555.432536 291.774394,570.835958 L292.066406,573.20378 C293.991373,589.537732 299.81868,647.508867 303.873329,669.601664 L304.439946,672.599197 C305.433889,677.787513 306.284973,681.916109 307.100804,685.495189 L303.166648,686.733194 C296.370506,688.844568 290.630231,690.478393 285.951101,691.633111 C276.42199,693.98471 264.339788,696.053162 249.713727,697.834203 L248.915994,694.966093 C248.581724,693.745125 248.274327,692.595776 247.993151,691.51787 C245.280488,681.225033 233.96709,660.700287 227.604182,649.377978 L224.220718,643.363906 C221.961083,639.325099 211.356938,614.476133 201.065911,588.614931 L197.463996,579.485619 C189.882064,560.094446 183.050389,541.444581 180.633839,531.916704 L179.647522,527.868466 C176.936821,516.619158 175.402237,509.367377 174.249793,502.472556 L173.833988,499.896621 L173.649588,498.693965 C173.259828,496.110739 172.903359,493.483824 172.538269,490.621042 L176.919933,488.508767 C194.649653,480.024497 208.879148,474.001099 219.602908,470.439533 L221.715854,469.753716 C232.855839,466.218554 247.452812,462.811225 265.460526,459.547249 L267.401233,464.810672 C268.061499,466.610766 268.734925,468.456615 269.420905,470.348625 Z" id="bp-forearm-left-front" fill="#FFFFFF"></path>
                    <path d="M250.424669,419.043792 C253.098422,427.039041 257.701629,438.755154 263.689727,454.786748 L260.280293,455.41894 C242.878494,458.69491 228.788037,462.12043 218.026956,465.694391 L216.175265,466.321467 C204.873497,470.220122 190.121997,476.570501 171.890715,485.379119 L169.866553,468.733231 C169.328622,464.401867 168.708155,459.517551 167.970149,453.920648 L167.735818,452.242519 C166.338601,442.767457 163.180902,429.281328 159.651862,413.627671 L162.938819,413.306044 C181.332145,411.477393 195.768875,409.544894 206.266146,407.503622 L208.36431,407.084327 C218.341824,405.038737 230.924717,401.748825 246.121922,397.213758 C247.039426,404.830362 248.498371,413.283637 250.424669,419.043792 Z" id="bp-elbow-left-front" fill="#FFFFFF"></path>
                    <path d="M236.396421,227.341306 L236.916098,232.868115 C238.285974,247.601634 239.517573,262.193989 240.351236,274.147298 L240.589677,277.633273 C241.339123,288.888815 242.034008,302.131913 242.640087,315.358034 L243.202047,328.187674 C244.262364,353.499833 244.943953,376.277364 244.994191,381.733859 L244.997173,382.298146 C244.997173,384.596156 245.195419,388.104593 245.577879,392.154873 L242.415524,393.096031 C227.839352,397.401959 215.804232,400.501866 206.318328,402.397106 L205.311737,402.595557 C194.258546,404.744932 178.666893,406.784147 158.548719,408.709088 L157.497358,403.970367 C152.924598,383.208158 148.204284,359.580249 146.129904,336.795257 L145.797283,332.843349 C145.612112,330.531072 145.399759,327.735714 145.165219,324.553586 L140.424415,257.296344 C140.159612,253.605981 139.897191,249.987919 139.639723,246.491764 C165.20553,242.445107 177.221487,225.808394 175.294447,197.382585 L178.98028,197.087178 C194.192108,195.823108 204.966973,194.345337 211.447282,192.619619 C213.094269,192.182085 214.774436,191.700019 216.484502,191.17554 C221.50205,189.636653 226.719124,187.752543 232.069913,185.581948 L232.638824,190.636978 C233.856102,201.610978 235.167038,214.410221 236.396421,227.341306 Z" id="bp-upper-arm-left-front" fill="#FFFFFF"></path>
                    <path d="M98.0080757,125.273281 C104.197692,126.971249 109.998162,128.750531 115.669663,130.699691 C137.44415,138.183066 152.512088,146.939654 159.593532,157.222931 C162.814269,161.897333 164.788865,165.755423 166.070837,169.733969 C167.004055,172.63017 167.577474,175.470339 168.201254,180.04113 L168.570013,182.881009 L169.243974,188.260624 C169.33339,188.953706 169.419681,189.608425 169.507724,190.260492 L169.596532,190.912997 C173.744175,220.924018 163.79623,237.454794 139.267975,241.492017 L138.400844,230.198934 C137.873661,223.543429 137.393487,217.931698 136.990001,213.933112 C134.728689,191.7234 124.994145,147.392693 98.7582156,125.878937 L98.0080757,125.273281 Z" id="bp-armpit-left" fill="#FFFFFF"></path>
                    <path d="M15.8699985,-5.68434189e-14 C26.5078908,13.9507423 61.7594779,28.9010705 98.1915453,43.5145817 L121.819159,52.9599175 C149.889246,64.2409942 175.566815,75.1377511 187.595974,85.0082616 C214.444758,107.023193 226.099415,147.458156 228.720112,160.584615 L228.801525,160.99852 C229.454967,164.372946 230.3949,171.327206 231.471576,180.420746 C225.797856,182.765555 220.284182,184.780295 215.018402,186.395315 C213.367586,186.901622 211.748093,187.36628 210.162068,187.787619 C203.529618,189.553852 191.753709,191.096603 174.829348,192.404275 L174.695436,191.323085 L174.28979,188.289884 L173.383587,181.093365 L173.148825,179.317238 C172.490012,174.498395 171.867455,171.420576 170.82988,168.200505 C169.389799,163.731273 167.194707,159.442366 163.71119,154.386579 C155.866956,142.995621 139.998803,133.773995 117.294751,125.971151 C106.983048,122.427263 96.292984,119.445857 83.7068784,116.508669 C63.4724531,106.381366 35.5703424,99.2831622 5.68434189e-14,95.1996917 L1.13601905,92.9530283 C9.3043083,76.6718203 13.8972217,64.6660272 14.9147592,56.954666 L15.0647468,55.7048625 C15.6751332,50.1054061 15.9962576,40.4204785 16.0560896,26.6360819 L16.0653884,21.860509 C16.0653884,15.3849308 16.0002584,8.12706795 15.8917085,0.0651903846 L15.8699985,-5.68434189e-14 Z" id="bp-shoulder-left-front" fill="#FFFFFF"></path>
                </g>
                <g id="bp-thorax" stroke-width="1" fill="none" transform="translate(165.4981, 401.5691)">
                    <path d="M193.376014,155.223611 C194.731261,156.377957 196.093102,157.49873 197.461429,158.586162 C220.981135,177.277671 246.002209,185.877688 271.730077,186.025133 C291.691214,186.139529 310.889998,181.205828 328.633117,172.918972 C334.220885,170.309226 339.299346,167.528766 343.805526,164.730357 L343.8183,168.515332 L343.88343,168.537063 L343.88343,172.622327 L343.843415,176.069407 C343.817998,177.566836 343.782117,178.878793 343.73146,179.880189 L343.487205,184.751891 C342.555195,204.138162 341.667618,231.487743 340.651643,259.281165 L339.922011,278.59356 C338.900084,304.588792 337.728649,329.430554 336.263225,346.832765 L262.848809,325.926622 C215.525953,312.500294 186.66694,304.44532 176.271771,301.766201 L174.314252,301.271287 C174.355789,301.102498 174.375224,300.9251 174.375224,300.743163 L174.373278,251.748 L191.696518,217.091689 C195.29837,209.92528 196.93767,201.910655 196.47214,193.857119 L196.402976,192.850283 L193.376014,155.223611 Z" id="bp-side-of-chest-left" fill="#FFFFFF"></path>
                    <path d="M150.371178,155.263353 L147.382879,192.396176 L147.337602,192.594526 C147.322207,192.678316 147.310949,192.763638 147.304052,192.850283 C146.638543,201.211325 148.267104,209.597931 152.010234,217.091137 L169.373278,251.828 L169.375224,300.743163 C169.375224,300.935887 169.397032,301.123518 169.438314,301.303722 L166.6438,302.016545 C150.434937,306.245263 97.4261649,321.188223 7.61748283,346.832765 L7.35680644,343.612718 C4.13722386,302.387282 2.36065759,225.245844 0.37380625,184.294603 L0.14924823,179.858459 C0.0562054404,178.126258 0.0110132282,175.484051 0,172.561318 L0,164.73516 C4.50196569,167.532841 9.57707794,170.311139 15.1607513,172.918972 C32.9038699,181.205828 52.1026543,186.139529 72.0637916,186.025133 C97.7916588,185.877688 122.812733,177.277671 146.332439,158.586162 C147.685058,157.511213 149.031339,156.403685 150.371178,155.263353 Z" id="bp-side-of-chest-right" fill="#FFFFFF"></path>
                    <path d="M171.727278,22.932 L171.896934,23.032124 L172.041573,22.9460961 L198.636269,38.2165085 C201.28318,39.7304362 202.270835,43.0571813 200.94176,45.7651025 L200.776879,46.074176 L200.600973,46.3534197 L190.514943,61.8009127 C184.931692,70.3330431 182.343493,80.4920255 183.169263,90.6630181 L191.418903,193.249042 L191.485009,194.224712 C191.885083,201.378238 190.423499,208.490489 187.226572,214.851253 L171.852879,245.606176 L156.482924,214.856176 L156.058485,213.980634 C153.162397,207.821079 151.842865,201.02558 152.222485,194.219337 L152.258879,193.668176 L152.297814,193.504623 C152.313263,193.420893 152.324582,193.33563 152.331545,193.249042 L160.58134,90.661107 C161.406996,80.5144876 158.819048,70.3564893 153.235788,61.8013458 L143.162072,46.3725217 C141.485551,43.8043349 142.107696,40.4162064 144.526391,38.6104374 L144.902627,38.3517978 L145.256985,38.1280027 L171.727278,22.932 Z" id="bp-sternum" fill="#FFFFFF"></path>
                    <path d="M312.425663,29.6598131 C329.468,46.4789324 343.44923,86.0060356 343.68804,153.521544 L343.68804,155.846668 C343.696048,156.319556 343.71587,157.389621 343.737701,158.838777 L343.101424,159.257418 L342.419452,159.695294 C337.773669,162.656203 332.443714,165.620796 326.517278,168.388716 C309.40032,176.383125 290.909221,181.134965 271.758731,181.025215 C247.137828,180.884114 223.204515,172.657973 200.572278,154.671751 C198.299202,152.865299 196.043134,150.962523 193.80459,148.962119 L192.799278,148.05 L188.15302,90.2603168 C187.442404,81.507671 189.568104,72.7660545 194.19489,65.3284167 L194.700172,64.5365755 L204.94164,48.8422058 L205.022931,48.7122675 C208.055962,43.4114774 206.270256,36.8227666 201.122319,33.8783588 L176.977293,20.0153402 L189.748798,12.4898144 C203.878643,4.22585582 211.422905,0.0735911913 212.364345,0.0416483789 C240.478775,-0.936207391 298.053653,15.4917695 312.425663,29.6598131 Z M271.567472,112.799284 C266.161686,112.799284 261.776269,117.18877 261.776269,122.577841 C261.776269,127.966913 266.161686,132.356399 271.567472,132.356399 C276.973258,132.356399 281.358675,127.966913 281.358675,122.577841 C281.358675,117.18877 276.973258,112.799284 271.567472,112.799284 Z M271.827992,119.448703 C273.626506,119.448703 275.08449,120.908039 275.08449,122.708222 C275.08449,124.508405 273.626506,125.967741 271.827992,125.967741 C270.029478,125.967741 268.571494,124.508405 268.571494,122.708222 C268.571494,120.908039 270.029478,119.448703 271.827992,119.448703 Z" id="bp-breast-left" fill="#FFFFFF"></path>
                    <path d="M131.429523,0.0416483789 L131.552246,0.0608280809 C132.488482,0.281807371 136.461035,2.39393367 143.472586,6.39452382 L144.249539,6.83844314 C149.904096,10.0735516 157.416268,14.4629045 166.787338,20.0052195 L142.62451,33.8804332 L142.069214,34.2297005 C137.113161,37.4709078 135.724083,44.1254305 138.975333,49.1058736 L149.048873,64.534429 L149.554269,65.3284935 C154.182087,72.7861711 156.30801,81.5278538 155.59762,90.2579509 L150.947865,148.098563 C148.39517,150.416743 145.819488,152.607157 143.22159,154.671751 C120.589354,172.657973 96.6560398,180.884114 72.0351374,181.025215 C52.8846469,181.134965 34.3935478,176.383125 17.2765903,168.388716 C11.3501539,165.620796 6.02019971,162.656203 1.37441589,159.695294 C0.919919375,159.405629 0.481413931,159.121933 0.0591397046,158.84476 L0.105828262,155.564176 C0.0624082931,86.7883202 14.1521881,46.6527734 31.3682057,29.6598131 C45.7185053,15.4917695 103.293384,-0.914477262 131.429523,0.0416483789 Z M75.3092139,112.799284 C69.9034278,112.799284 65.518011,117.18877 65.518011,122.577841 C65.518011,127.966913 69.9034278,132.356399 75.3092139,132.356399 C80.715,132.356399 85.1004168,127.966913 85.1004168,122.577841 C85.1004168,117.18877 80.715,112.799284 75.3092139,112.799284 Z M75.5697337,119.448703 C77.3682477,119.448703 78.8262314,120.908039 78.8262314,122.708222 C78.8262314,124.508405 77.3682477,125.967741 75.5697337,125.967741 C73.7712197,125.967741 72.3132361,124.508405 72.3132361,122.708222 C72.3132361,120.908039 73.7712197,119.448703 75.5697337,119.448703 Z" id="bp-breast-right" fill="#FFFFFF"></path>
                </g>
                <path d="M289.17712,273.794183 C289.74158,281.617029 289.63303,318.319216 290.262619,333.595496 C291.282989,359.128396 297.209814,368.016019 309.562795,381.119286 C315.663301,387.594864 334.811507,401.067544 337.373285,402.871145 C339.935063,401.067544 359.08327,387.594864 365.183775,381.119286 C377.536756,367.994289 383.463582,359.106666 384.483951,333.595496 C385.091831,318.319216 384.983281,281.617029 385.569451,273.794183 C385.569451,273.794183 376.755197,294.524725 337.373285,294.633376 C297.991374,294.524725 289.17712,273.794183 289.17712,273.794183 L289.17712,273.794183 Z" id="bp-neck-front" fill="#FFFFFF"></path>
                <path d="M303.09322,2.5587226 C317.921139,-0.852907532 356.825431,-0.852907532 371.653351,2.5587226 C384.245141,5.47055978 420.413975,19.1822707 430.834768,58.3182316 C437.608283,83.8294021 432.202497,104.190532 426.926971,129.18018 C427.33946,128.484816 435.654384,120.031796 438.628652,129.897274 C440.343741,135.547107 435.415574,148.063661 430.313728,160.536755 L429.901238,161.558071 L429.488749,162.579387 L429.076259,163.578973 C427.70853,166.947143 426.362511,170.250122 425.168462,173.400991 C420.609365,185.352561 421.434345,186.85194 419.979776,188.938032 C416.744988,193.61001 413.48849,185.461212 413.48849,185.461212 C413.70559,187.525574 411.795112,197.499703 409.189913,207.734593 L408.994524,208.495148 L408.799134,209.255702 C408.299804,211.146223 407.800474,213.058475 407.257725,214.883805 C404.001227,226.357313 390.801557,240.394976 386.41614,246.588062 C380.250504,255.301844 371.088891,272.338264 337.546965,273.750723 L337.546965,273.750723 C337.546965,273.750723 337.416705,273.750723 337.351575,273.750723 C337.286445,273.750723 337.221315,273.750723 337.156185,273.750723 L337.156185,273.750723 C303.59255,272.316534 294.452646,255.280114 288.287011,246.566332 C283.901594,240.373246 270.701924,226.335583 267.445426,214.862075 C263.950118,202.562823 260.954141,187.960177 261.23637,185.417752 C261.23637,185.417752 257.979873,193.56655 254.745085,188.894572 C253.290516,186.80848 254.115496,185.309101 249.556399,173.35753 C248.36235,170.228392 247.016331,166.903682 245.648602,163.535512 L245.236112,162.535927 L244.823622,161.51461 L244.411133,160.493294 C239.309286,148.020201 234.40283,135.503647 236.096209,129.853814 C239.070476,119.988335 247.3854,128.441355 247.79789,129.136719 C242.544074,104.125342 237.116578,83.7642117 243.890093,58.2747713 C254.289175,19.1605406 290.479719,5.42709952 303.07151,2.51526234 L303.09322,2.5587226 Z M357.737251,230.420847 C361.493078,228.573786 358.21487,222.967413 354.459043,224.792744 C344.97178,229.421261 327.321563,230.247006 317.856009,225.053505 C314.187022,223.032603 310.908814,228.660707 314.577802,230.681609 C326.236063,237.070266 346.057279,236.135871 357.737251,230.420847 Z M328.255092,128.919418 C327.516952,124.790694 321.264477,126.550834 321.980906,130.657828 C325.259114,149.171898 324.303875,166.925412 318.377049,184.874498 C318.116529,185.591593 317.812589,186.330417 317.50865,187.069241 L317.37839,187.373463 C317.37839,187.373463 317.33497,187.482114 317.31326,187.525574 L317.07445,188.112287 C316.9659,188.351319 316.87906,188.61208 316.77051,188.851112 L316.66196,189.155334 C315.446201,192.219282 314.686352,195.34842 316.92248,198.412368 C318.550729,200.628841 321.351317,201.867459 323.978225,200.672302 C325.758444,199.868287 326.670263,198.71659 328.559032,200.215969 C331.793819,202.823584 336.418046,198.238527 333.161548,195.609182 C331.07739,193.914232 328.819552,192.675614 326.040674,192.936376 C325.671604,192.979836 323.348635,193.544819 321.980906,194.131533 C321.959196,194.066343 321.937486,193.979422 321.915777,193.957692 C321.807227,193.305788 322.306556,192.414853 322.545366,191.828139 C323.240086,190.089729 324.021645,188.394779 324.651235,186.634639 C330.96884,167.533856 331.728689,148.606914 328.255092,128.941148 L328.255092,128.919418 Z M352.483434,184.896228 C351.072285,180.984805 344.7981,182.658025 346.209249,186.634639 C346.838839,188.394779 347.620398,190.089729 348.315117,191.828139 C348.532217,192.393123 348.966417,193.153677 348.944707,193.762121 C348.944707,193.849041 348.901287,193.979422 348.836157,194.109803 C347.468428,193.523089 345.16717,192.958106 344.84152,192.936376 C342.062642,192.675614 339.826514,193.914232 337.720645,195.609182 C334.464147,198.238527 339.088374,202.823584 342.323162,200.215969 C344.19022,198.71659 345.12375,199.868287 346.903968,200.672302 C349.530877,201.867459 352.331465,200.628841 353.959713,198.412368 C356.326102,195.174579 355.327442,191.828139 353.981423,188.56862 L353.851163,188.264398 C353.764323,188.068827 353.677484,187.873256 353.612354,187.677685 L353.482094,187.373463 C353.373544,187.134432 353.264994,186.87367 353.178154,186.634639 L353.047894,186.352147 C353.047894,186.352147 353.004474,186.265227 352.982764,186.200036 L352.874214,185.917544 C352.743954,185.569862 352.613694,185.24391 352.483434,184.896228 L352.483434,184.896228 Z M403.393348,134.764823 C389.629218,120.72716 367.398194,122.096158 356.478072,138.589325 C354.155103,142.087876 359.777989,145.369125 362.100957,141.870575 C364.250246,138.611055 366.963994,136.155551 369.959972,134.460601 C369.547482,135.416726 369.243542,136.438043 369.069862,137.524549 C368.983022,137.828771 368.939603,138.132993 368.939603,138.480675 C368.896183,138.828357 368.939603,139.154309 368.983022,139.4368 C369.482352,145.347395 373.998029,150.367055 380.185374,150.562626 C386.52469,150.758197 391.973896,145.651617 392.212706,139.306419 C392.277836,137.394168 391.865346,135.568837 391.062077,133.939078 C393.840955,135.221155 396.489573,137.024756 398.790831,139.37161 C401.721679,142.370368 406.324196,137.76358 403.393348,134.764823 L403.393348,134.764823 Z M317.964559,138.589325 C307.022727,122.117888 284.813413,120.72716 271.049283,134.764823 C268.118435,137.76358 272.699242,142.370368 275.6518,139.37161 C277.974768,137.003026 280.623386,135.199425 283.402264,133.917348 C282.598995,135.568837 282.164795,137.394168 282.229925,139.306419 C282.403605,145.499506 287.657421,150.540896 293.801347,150.562626 C300.184082,150.606086 304.960279,145.542966 305.459608,139.45853 C305.524738,139.154309 305.546448,138.850087 305.503028,138.480675 C305.503028,138.132993 305.459608,137.828771 305.372768,137.524549 C305.199089,136.459773 304.895149,135.438457 304.482659,134.460601 C307.478637,136.155551 310.192385,138.611055 312.341673,141.848844 C314.642932,145.325665 320.287528,142.066146 317.964559,138.567595 L317.964559,138.589325 Z M375.430888,138.480675 C376.082187,131.831255 386.19904,132.70046 385.72142,139.306419 C385.222091,146.042759 375.496018,145.043173 375.430888,138.480675 Z M288.74292,139.306419 C288.243591,132.70046 298.360444,131.831255 299.033453,138.480675 C298.968323,145.043173 289.24225,146.021029 288.74292,139.306419 Z M411.491172,111.209364 C401.851939,106.146244 390.823267,102.10444 379.816305,103.190946 C370.502721,104.103612 361.058878,107.536972 352.939344,112.187219 C349.313777,114.273312 352.570274,119.901415 356.217552,117.815323 C363.338427,113.751789 371.653351,110.60092 379.816305,109.709985 C389.650928,108.645209 399.61581,112.29587 408.212964,116.837467 C411.925371,118.793178 415.203579,113.165075 411.491172,111.209364 L411.491172,111.209364 Z M294.865136,103.190946 C283.858174,102.08271 272.807792,106.146244 263.190269,111.209364 C259.477862,113.165075 262.777779,118.793178 266.468477,116.837467 C275.06563,112.3176 285.030513,108.645209 294.865136,109.709985 C303.02809,110.60092 311.343014,113.730059 318.463889,117.815323 C322.111166,119.901415 325.389374,114.273312 321.742097,112.187219 C313.622563,107.536972 304.178719,104.125342 294.865136,103.190946 L294.865136,103.190946 Z" id="bp-head-front" fill="#FFFFFF"></path>
            </g>
        </g>
        <g id="viewport-boundary" mask="url(#mask-2)" stroke="#FF0000" stroke-width="3">
            <g transform="translate(260, 190)" id="boundary">
                <rect x="0" y="0" width="560" height="1080"></rect>
            </g>
        </g>
    </g>
</svg>