<?xml version="1.0" encoding="UTF-8"?>
<svg width="1080px" height="1460px" viewBox="0 0 1080 1460" version="1.1" xmlns="http://www.w3.org/2000/svg" xmlns:xlink="http://www.w3.org/1999/xlink">
    <title>fifth-toe-right-dorsal</title>
    <defs>
        <rect id="path-1" x="0" y="0" width="1080" height="1460"></rect>
    </defs>
    <g id="fifth-toe-right-dorsal" stroke="none" stroke-width="1" fill="none" fill-rule="evenodd">
        <mask id="mask-2" fill="white">
            <use xlink:href="#path-1"></use>
        </mask>
        <g id="mask"></g>
        <g id="bp-fifth-toe-right-dorsal" mask="url(#mask-2)" fill="#FFFFFF">
            <g transform="translate(324.3568, 238.4994)">
                <path d="M362.627894,397.199848 L362.407246,398.15353 C346.231381,468.894239 335.901,549.109599 348.499026,597.826781 C385.803625,738.769199 396.439183,855.767725 394.56463,981.730168 C331.552258,895.453018 224.491287,800.350732 86.3909562,714.120062 C58.5663427,696.746208 29.7617464,679.839854 0,663.428112 C14.4919993,531.150025 32.4204788,441.641963 63.7392127,351.813066 C85.0083056,347.299622 100.515181,328.796948 112.826957,304.41105 C188.263231,352.687796 273.148829,384.411861 362.627894,397.199848 Z" id="bp-proximal-phalanx-fifth-toe-right-dorsal"></path>
                <path d="M379.759745,332.554383 L378.830105,335.63679 C374.697727,349.461959 370.590515,364.443047 366.709681,380.097454 C278.303961,367.7071 194.489527,336.312236 120.184034,288.337221 C126.666234,272.844129 132.234903,255.930783 137.407786,239.20745 C208.941078,285.64393 289.105698,317.108885 373.709149,331.551729 L379.759745,332.554383 Z" id="bp-proximal-interphalangeal-joint-fifth-toe-right-dorsal"></path>
                <path d="M415.875033,229.803721 L415.209376,232.004768 C409.811721,249.642258 403.868123,265.566166 398.67568,278.511217 L397.491348,281.445081 C393.590286,290.948609 389.374717,302.53952 385.075515,315.664075 C298.051883,302.066277 215.68588,269.988165 142.720282,221.774717 L146.535904,209.224901 C150.746708,195.512585 154.894457,182.677011 159.307781,171.754804 L160.640074,168.536579 C163.979679,160.669594 167.431745,151.764273 171.132095,142.257017 C243.733677,186.964445 324.677806,216.528705 409.788656,228.945963 L415.875033,229.803721 Z" id="bp-middle-phalanx-fifth-toe-right-dorsal"></path>
                <path d="M430.00126,163.61361 L429.937149,164.213128 C428.035917,180.796604 424.691639,197.231293 420.652508,212.787356 C333.811008,201.331145 251.265996,171.562646 177.639501,125.710797 C184.187945,109.358154 191.593061,92.0690177 200.442848,75.7164391 C270.300927,119.765673 348.083583,149.670668 430.00126,163.61361 Z" id="bp-distal-interphalangeal-joint-fifth-toe-right-dorsal"></path>
                <path d="M350.889008,9.82020382 C416.812575,34.9824468 433.951891,89.8667056 431.403134,146.090679 C352.123964,132.397761 276.870161,103.314315 209.259126,60.5977588 L211.456919,57.1789684 C240.008774,13.643642 282.029964,-16.4624759 350.889008,9.82020382 Z M395.293545,54.6584497 C386.194971,37.1594619 315.532106,8.1238786 297.334958,14.4235142 C279.8377,20.7231498 259.313603,48.5497859 263.385643,54.6584497 C275.375726,72.1841507 371.55198,115.126818 390.093707,107.709394 C401.991842,102.809677 399.819909,63.3638563 395.293545,54.6584497 Z" id="bp-distal-phalanx-fifth-toe-right-dorsal"></path>
                <path d="M361.275597,30.9244797 C354.114312,28.5690575 337.048143,35.3597991 321.373528,41.7978987 C305.37847,48.3676149 288.253414,55.8380806 284.669109,62.7316556 C282.792402,66.3410639 282.474303,77.5012091 283.361545,86.5532215 C283.549598,88.4718255 283.782853,90.3230348 284.171646,91.9655425 C293.276719,91.8726456 311.692215,83.5085258 329.3858,76.1004622 C349.868795,67.5245106 371.346761,57.4367713 381.550743,49.6615226 C380.359846,47.8813607 378.933245,46.0173344 377.367913,44.1621853 C372.773577,38.7172209 366.964385,33.0138182 361.275597,30.9244797 Z" id="bp-nail-of-fifth-toe-right" transform="translate(332.2194, 61.2062) scale(-1, 1) translate(-332.2194, -61.2062)"></path>
            </g>
        </g>
        <g id="decoration" opacity="0.15" mask="url(#mask-2)">
            <g transform="translate(-1624, -827)">
                <g id="bp-dorsum-of-foot-right" transform="translate(0, 1476.8407)">
                    <path d="M1940.78642,328.121519 C1960.20562,339.2492 1979.17308,350.595883 1997.68162,362.152722 C2111.63521,433.306026 2202.18785,509.360406 2262.61282,581.462137 C2308.92614,636.725233 2333.83272,685.827005 2336.26404,717.845733 C2335.4634,729.718162 2334.60814,741.752923 2333.7079,753.969586 L2331.85032,778.651248 C2331.00514,789.760409 2328.20723,809.649914 2323.77055,837.036833 L2321.02154,853.724698 C2309.1314,891.433918 2285.39572,903.907376 2231.96924,902.010174 L2226.81699,901.783215 C2201.54792,900.460037 2170.83205,895.844535 2128.91571,887.401202 L2117.07,884.971328 C2089.4059,879.152067 1999.2206,859.097673 1970.40984,852.918467 L1967.25507,852.245362 C1947.09894,847.97288 1927.29234,843.949176 1907.78028,840.180117 C1908.77787,822.848452 1909.71619,805.506421 1910.59742,788.152527 L1911.7714,764.233654 L1911.8627,763.085363 L1915.47181,698.909644 C1921.94007,585.834495 1927.93595,491.578304 1932.99902,421.889838 L1934.21521,405.382378 L1935.63588,387.811334 C1936.82053,373.347527 1938.00806,359.326509 1939.20544,345.718022 L1940.78642,328.121519 Z" id="bp-metatarsophalangeal-joint-fifth-toe-right-dorsal" fill="#FFFFFF"></path>
                    <path d="M1636.19149,186.052484 C1720.97217,217.988241 1800.32625,253.31055 1873.91789,291.605483 L1872.42567,307.226465 C1869.70563,336.196802 1867.06739,367.011604 1864.43461,399.987341 L1861.61453,438.93371 C1856.9783,504.856349 1851.67057,589.13234 1845.99558,687.958097 L1841.99934,758.787969 C1840.87509,781.774274 1839.68479,804.733953 1838.39537,827.670928 C1750.27892,812.984965 1667.14108,804.001657 1583.38399,801.31329 C1584.91745,769.392741 1586.39685,737.474057 1587.8264,705.55351 L1589.84985,659.589707 L1592.69429,620.61561 C1606.43879,434.993916 1620.71952,291.635885 1635.48702,190.771576 L1636.19149,186.052484 Z" id="bp-metatarsophalangeal-joint-fourth-toe-right-dorsal" fill="#FFFFFF"></path>
                </g>
                <g id="bp-third-toe-right-dorsal" transform="translate(1312.8949, 511.4145)">
                    <path d="M362.709297,595.512141 L362.526412,595.975509 C341.237605,651.769583 328.403065,702.342426 338.715973,734.13574 C309.538932,833.225417 288.518389,930.504046 267.414241,1057.18258 C182.85813,1028.5135 93.6260948,1003.029 0,981.068606 C19.7591049,872.190163 45.0192681,759.633195 75.7683913,643.456117 C93.8004457,624.98204 104.533309,583.603713 112.213392,534.535147 C190.094101,571.733196 275.096632,592.670266 362.709297,595.512141 Z" id="bp-proximal-phalanx-third-toe-right-dorsal" fill="#FFFFFF"></path>
                    <path d="M398.305864,511.536242 L397.248809,513.859864 C387.552758,535.36137 378.055392,557.037964 369.517518,578.187601 C280.299199,576.202386 193.75283,554.922302 114.876851,516.388979 C118.337055,491.339398 121.176268,464.868216 123.907288,438.803141 C206.379512,482.48145 297.683788,507.417817 392.141187,511.312122 L398.305864,511.536242 Z" id="bp-proximal-interphalangeal-joint-third-toe-right-dorsal" fill="#FFFFFF"></path>
                    <path d="M465.549594,357.857358 L464.261968,361.198706 C460.538287,370.838364 456.81399,380.136951 453.188558,389.005438 C440.389359,420.314681 423.331392,456.665152 406.168823,494.223548 C307.221015,492.290917 211.517159,466.624038 125.870682,420.006791 L127.933081,400.703773 C131.922552,364.129817 136.21265,330.314929 142.365063,304.847735 L143.178241,301.573727 C145.482556,292.552885 147.669756,282.613759 149.864822,272.004047 C245.161888,327.666535 353.500137,357.54932 465.549594,357.857358 Z" id="bp-middle-phalanx-third-toe-right-dorsal" fill="#FFFFFF"></path>
                    <path d="M497.030484,259.843667 L496.264456,262.967466 C489.590942,289.552805 481.055256,315.773963 472.099153,340.340662 C358.820819,341.220317 249.260107,311.015461 153.531904,253.847152 L157.682438,233.002079 C161.970516,211.686712 166.752494,189.121523 172.759773,166.756017 C269.960025,226.471062 381.466721,258.887845 497.030484,259.843667 Z" id="bp-distal-interphalangeal-joint-third-toe-right-dorsal" fill="#FFFFFF"></path>
                </g>
                <g id="bp-fourth-toe-right-dorsal" transform="translate(1647.3222, 771.1016)">
                    <path d="M332.48937,495.287 L330.796937,498.861242 C311.149871,540.794886 297.219499,581.961202 303.246032,610.331207 C269.376577,703.866298 249.826269,793.979752 234.568486,922.806464 C161.468527,886.002481 83.1781797,852.032827 0,821.248369 L2.72857746,804.792171 C22.7287367,685.365868 42.6317677,593.073838 69.6887634,500.176319 C87.9410069,486.283083 100.066965,454.478248 109.311108,417.657637 C177.821065,457.261774 253.339276,483.68766 332.48937,495.287 Z" id="bp-proximal-phalanx-fourth-toe-right-dorsal" fill="#FFFFFF"></path>
                    <path d="M369.057761,425.519675 L367.438617,428.435233 C358.569597,444.451689 349.28912,461.504998 340.592726,478.754209 C259.850765,467.683225 182.904914,440.765251 113.494226,399.846707 C118.119362,378.922087 122.026697,357.099305 125.757096,336.515533 C199.535362,382.607546 282.121891,413.002823 369.057761,425.519675 Z" id="bp-proximal-interphalangeal-joint-fourth-toe-right-dorsal" fill="#FFFFFF"></path>
                    <path d="M432.79522,295.274372 L428.899396,304.344311 C420.291074,324.140262 412.342326,340.906269 407.232871,352.906495 L406.407959,354.862107 C400.816319,368.253938 390.379193,387.205895 378.187772,409.106788 C288.913251,397.255042 204.224534,366.045992 129.156616,317.967004 L130.62361,310.241908 C134.295592,291.206236 138.025124,274.342747 142.348086,261.770095 L144.779337,254.95485 C149.563383,241.255959 155.340107,222.056034 162.599646,200.271954 C243.770511,252.075193 335.847375,284.727793 432.79522,295.274372 Z" id="bp-middle-phalanx-fourth-toe-right-dorsal" fill="#FFFFFF"></path>
                    <path d="M460.528575,217.446514 L459.439406,221.349799 C453.801801,241.270605 446.85072,260.596202 439.742317,278.405874 C342.197135,268.607286 249.613482,235.823924 168.425597,183.219621 C175.475743,163.145388 183.759198,141.655433 193.606677,120.712793 C272.055816,171.608853 360.874608,204.504993 454.543196,216.696479 L460.528575,217.446514 Z" id="bp-distal-interphalangeal-joint-fourth-toe-right-dorsal" fill="#FFFFFF"></path>
                    <path d="M386.553954,11.2082174 C475.203031,46.897832 481.760607,125.488267 464.810252,200.325981 C370.109589,189.267059 280.325669,156.486321 201.409466,104.915736 L203.660532,100.641601 C240.822818,31.1008278 297.422928,-24.6754267 386.553954,11.2082174 Z M438.963419,84.5091213 C427.058702,62.0202109 321.238997,21.0110213 297.429564,28.9482838 C273.62013,36.8855463 248.885644,66.9301581 260.128988,83.4661216 C295.181765,136.381205 391.080873,165.484501 432.086009,149.609976 C448.620338,142.99559 450.868136,107.65947 438.963419,84.5091213 Z" id="bp-distal-phalanx-fourth-toe-right-dorsal" fill="#FFFFFF"></path>
                    <path d="M400.731697,45.5492813 C390.489349,42.134828 362.625406,51.715181 336.724748,61.8827998 C311.450966,71.8043306 285.239328,83.213781 280.204891,92.680757 C275.682732,101.574303 273.990125,112.822494 274.995896,122.343019 C275.392045,126.092923 276.156532,129.579266 277.6481,132.285929 C296.935871,140.544957 328.825541,135.586684 358.980811,123.987357 C386.99762,113.210596 414.202341,96.1078486 428.978802,73.801551 C428.365114,70.3274374 426.750148,67.3819701 424.763369,64.4781307 C419.155293,56.281469 409.913227,48.6100939 400.731697,45.5492813 Z" id="bp-nail-of-fourth-toe-right" fill="#FFFFFF" transform="translate(351.8472, 90.6151) scale(-1, 1) translate(-351.8472, -90.6151)"></path>
                </g>
            </g>
        </g>
        <g id="viewport-boundary" mask="url(#mask-2)" stroke="#FF0000" stroke-width="3">
            <g transform="translate(260, 190)" id="boundary">
                <rect x="0" y="0" width="560" height="1080"></rect>
            </g>
        </g>
    </g>
</svg>