<?xml version="1.0" encoding="UTF-8"?>
<svg width="1080px" height="1460px" viewBox="0 0 1080 1460" version="1.1" xmlns="http://www.w3.org/2000/svg" xmlns:xlink="http://www.w3.org/1999/xlink">
    <title>fifth-toe-right-plantar</title>
    <defs>
        <rect id="path-1" x="0" y="0" width="1080" height="1460"></rect>
    </defs>
    <g id="fifth-toe-right-plantar" stroke="none" stroke-width="1" fill="none" fill-rule="evenodd">
        <mask id="mask-2" fill="white">
            <use xlink:href="#path-1"></use>
        </mask>
        <g id="mask"></g>
        <g id="bp-fifth-toe-right-plantar" mask="url(#mask-2)" fill="#FFFFFF">
            <g transform="translate(539.8305, 729.4545) scale(-1, 1) translate(-539.8305, -729.4545)translate(324, 238.5611)">
                <path d="M362.64287,397.222823 L362.422213,398.17656 C346.24568,468.92136 335.914872,549.14136 348.513418,597.86136 C385.819558,738.811931 396.455555,855.817224 394.580925,981.786953 C331.565951,895.504812 224.500558,800.397025 86.3945241,714.161368 C58.5687614,696.786509 29.7629755,679.879177 0,663.466486 C14.4925978,531.180747 32.4218177,441.667509 63.741845,351.833416 C85.0118164,347.31971 100.519332,328.815966 112.831616,304.428658 C188.271006,352.708197 273.16011,384.434096 362.64287,397.222823 Z" id="bp-proximal-phalanx-fifth-toe-right-plantar"></path>
                <path d="M379.775429,332.573619 L378.845751,335.656204 C374.713202,349.482173 370.60582,364.464127 366.724825,380.11944 C278.315455,367.728369 194.497559,336.331689 120.188998,288.353899 C126.671465,272.859911 132.240364,255.945586 137.413461,239.221286 C208.949707,285.660452 289.117638,317.127227 373.724583,331.570906 L379.775429,332.573619 Z" id="bp-proximal-interphalangeal-joint-fifth-toe-right-plantar"></path>
                <path d="M415.892208,229.817013 L415.226524,232.018187 C409.828646,249.656698 403.884802,265.581527 398.692145,278.527326 L397.507764,281.46136 C393.606541,290.965437 389.390798,302.55702 385.091418,315.682333 C298.064192,302.083749 215.694787,270.003782 142.726176,221.787545 L146.541955,209.237003 C150.752933,195.523894 154.900854,182.687578 159.31436,171.764738 L160.646709,168.546327 C163.986452,160.678888 167.43866,151.773052 171.139162,142.265246 C243.743743,186.975259 324.691215,216.541229 409.80558,228.959205 L415.892208,229.817013 Z" id="bp-middle-phalanx-fifth-toe-right-plantar"></path>
                <path d="M430.019019,163.623074 L429.954905,164.222626 C428.053595,180.807062 424.709178,197.242701 420.66988,212.799664 C333.824794,201.34279 251.276373,171.57257 177.646838,125.718068 C184.195551,109.364479 191.600973,92.0743432 200.451126,75.7208186 C270.31209,119.772601 348.097958,149.679325 430.019019,163.623074 Z" id="bp-distal-interphalangeal-joint-fifth-toe-right-plantar"></path>
                <path d="M350.903499,9.82077184 C416.829789,34.9844702 433.969813,89.8719036 431.42095,146.099129 C352.138506,132.405419 276.881595,103.32029 209.267768,60.6012639 L211.465652,57.1822758 C240.018686,13.6444311 282.041611,-16.4634281 350.903499,9.82077184 Z" id="bp-distal-phalanx-fifth-toe-right-plantar"></path>
            </g>
        </g>
        <g id="decoration" opacity="0.15" mask="url(#mask-2)">
            <g transform="translate(1535.918, 2896.4112) scale(-1, 1) translate(-1535.918, -2896.4112)translate(367.7378, -827)">
                <g id="bp-ball-of-foot-right" transform="translate(0, 1476.9261)">
                    <path d="M1636.25906,186.063245 C1721.04324,218.00085 1800.4006,253.325202 1873.99528,291.62235 L1872.503,307.244235 C1869.78285,336.216248 1867.1445,367.032833 1864.51161,400.010477 L1861.69141,438.959098 C1857.055,504.885551 1851.74705,589.166417 1846.07181,687.99789 L1842.07541,758.831858 C1840.95112,781.819493 1839.76077,804.7805 1838.4713,827.718802 C1750.35121,813.031989 1667.20993,804.048162 1583.44938,801.359639 C1584.98291,769.437244 1586.46236,737.516714 1587.89198,705.59432 L1589.91551,659.627858 L1592.76007,620.651507 C1606.50513,435.019077 1620.78645,291.652754 1635.55456,190.782611 L1636.25906,186.063245 Z" id="bp-metatarsophalangeal-joint-fourth-toe-right-plantar" fill="#FFFFFF"></path>
                    <path d="M1940.86657,328.140499 C1960.28658,339.268823 1979.25482,350.616162 1997.76412,362.17367 C2111.72242,433.33109 2202.2788,509.389868 2262.70626,581.49577 C2309.02149,636.762062 2333.9291,685.866674 2336.36052,717.887254 C2335.55986,729.76037 2334.70455,741.795827 2333.80428,754.013197 L2331.94662,778.696287 C2331.10141,789.80609 2328.30338,809.696745 2323.86652,837.085249 L2321.11739,853.774079 C2309.22677,891.48548 2285.4901,903.95966 2232.06142,902.062348 L2226.90895,901.835375 C2201.63884,900.512121 2170.92171,895.896352 2129.00364,887.452531 L2117.15744,885.022516 C2089.49219,879.202919 1999.30316,859.147365 1970.49121,852.967801 L1967.33632,852.294657 C1947.17935,848.021928 1927.37194,843.997991 1907.85907,840.228715 C1908.8567,822.896047 1909.79506,805.553013 1910.67632,788.198115 L1911.85036,764.277858 L1911.94166,763.129501 L1915.55091,698.95007 C1922.01945,585.86838 1928.01558,491.606738 1933.07885,421.91424 L1934.29509,405.405826 L1935.71582,387.833766 C1936.90052,373.369122 1938.0881,359.347293 1939.28553,345.738019 L1940.86657,328.140499 Z" id="bp-metatarsophalangeal-joint-fifth-toe-right-plantar" fill="#FFFFFF"></path>
                </g>
                <g id="bp-third-toe-right-plantar" transform="translate(1312.9491, 511.4441)">
                    <path d="M362.724277,595.546586 L362.541384,596.009981 C341.251698,651.807283 328.416627,702.383051 338.729962,734.178203 C309.551715,833.273612 288.530304,930.557868 267.425285,1057.24373 C182.865681,1028.57299 93.6299615,1003.08701 0,981.125353 C19.7599209,872.240612 45.0211274,759.677133 75.7715204,643.493336 C93.8043196,625.01819 104.537626,583.63747 112.218026,534.566065 C190.101952,571.766266 275.107993,592.704547 362.724277,595.546586 Z" id="bp-proximal-phalanx-third-toe-right-plantar" fill="#FFFFFF"></path>
                    <path d="M398.322313,511.56583 L397.265215,513.889587 C387.568764,535.392337 378.071005,557.070184 369.532778,578.221044 C280.310776,576.235715 193.760832,554.954399 114.881595,516.418848 C118.341942,491.367818 121.181273,464.895104 123.912406,438.828522 C208.180984,483.458941 301.670171,508.522562 398.322313,511.56583 Z" id="bp-proximal-interphalangeal-joint-third-toe-right-plantar" fill="#FFFFFF"></path>
                    <path d="M465.568821,357.878057 L464.281141,361.219599 C460.557306,370.859814 456.832856,380.158938 453.207274,389.027938 C440.407547,420.338992 423.348875,456.691566 406.185597,494.252135 C307.233703,492.319392 211.525895,466.651028 125.87588,420.031085 L127.938365,400.726951 C131.928,364.150879 136.218275,330.334035 142.370942,304.865368 L143.184154,301.591171 C145.488564,292.569807 147.675855,282.630106 149.871011,272.01978 C245.172013,327.685488 353.514737,357.570002 465.568821,357.878057 Z" id="bp-middle-phalanx-third-toe-right-plantar" fill="#FFFFFF"></path>
                    <path d="M497.05101,259.858697 L496.284951,262.982677 C489.611162,289.569553 481.075123,315.792228 472.11865,340.360348 C358.835637,341.240054 249.270401,311.033451 153.538245,253.861835 L157.68895,233.015556 C161.977205,211.698957 166.759381,189.132462 172.766908,166.765662 C269.971174,226.484161 381.482475,258.902819 497.05101,259.858697 Z" id="bp-distal-interphalangeal-joint-third-toe-right-plantar" fill="#FFFFFF"></path>
                </g>
                <g id="bp-fourth-toe-right-plantar" transform="translate(1647.3902, 771.1462)">
                    <path d="M332.503101,495.315648 L330.810598,498.890097 C311.162721,540.826166 297.231774,581.994864 303.258556,610.366509 C269.387702,703.907011 249.836586,794.025677 234.578174,922.85984 C161.475196,886.053728 83.1816149,852.08211 0,821.295871 L2.72869015,804.838721 C22.7296754,685.40551 42.6335284,593.108142 69.6916415,500.20525 C87.9446388,486.31121 100.071098,454.504536 109.315622,417.681795 C177.828409,457.288223 253.349739,483.715637 332.503101,495.315648 Z" id="bp-proximal-phalanx-fourth-toe-right-plantar" fill="#FFFFFF"></path>
                    <path d="M369.073003,425.544288 L367.453792,428.460014 C358.584406,444.477397 349.303546,461.531692 340.606792,478.781901 C259.861496,467.710276 182.912468,440.790746 113.498913,399.869835 C118.124241,378.944004 122.031737,357.11996 125.76229,336.534997 C199.543603,382.629677 282.133542,413.026712 369.073003,425.544288 Z" id="bp-proximal-interphalangeal-joint-fourth-toe-right-plantar" fill="#FFFFFF"></path>
                    <path d="M432.813094,295.291451 L428.917109,304.361915 C420.308431,324.15901 412.359355,340.925988 407.24969,352.926907 L406.424743,354.882633 C400.832872,368.275239 390.395315,387.228291 378.20339,409.130451 C288.925183,397.27802 204.232968,366.067165 129.16195,317.985396 L130.629005,310.259853 C134.301138,291.223079 138.030824,274.358615 142.353964,261.785237 L144.785317,254.969597 C149.56956,241.269914 155.346523,222.068878 162.606361,200.283538 C243.780578,252.089774 335.861245,284.744262 432.813094,295.291451 Z" id="bp-middle-phalanx-fourth-toe-right-plantar" fill="#FFFFFF"></path>
                    <path d="M460.547594,217.459092 L459.45838,221.362603 C453.820543,241.284561 446.869174,260.611275 439.760478,278.421977 C342.211267,268.622823 249.623791,235.837565 168.432552,183.230219 C175.48299,163.154825 183.766787,141.663626 193.614673,120.719775 C272.067051,171.61878 360.889512,204.516822 454.561968,216.709013 L460.547594,217.459092 Z" id="bp-distal-interphalangeal-joint-fourth-toe-right-plantar" fill="#FFFFFF"></path>
                    <path d="M386.569918,11.2088657 C475.222657,46.9005447 481.780503,125.495525 464.829448,200.337568 C370.124874,189.278007 280.337246,156.495373 201.417784,104.921804 L203.668943,100.647422 C240.832764,31.1026268 297.435211,-24.676854 386.569918,11.2088657 Z" id="bp-distal-phalanx-fourth-toe-right-plantar" fill="#FFFFFF"></path>
                </g>
            </g>
        </g>
        <g id="viewport-boundary" mask="url(#mask-2)" stroke="#FF0000" stroke-width="3">
            <g transform="translate(260, 190)" id="boundary">
                <rect x="0" y="0" width="560" height="1080"></rect>
            </g>
        </g>
    </g>
</svg>