<?xml version="1.0" encoding="UTF-8"?>
<svg width="1080px" height="1460px" viewBox="0 0 1080 1460" version="1.1" xmlns="http://www.w3.org/2000/svg" xmlns:xlink="http://www.w3.org/1999/xlink">
    <title>fourth-toe-right-plantar</title>
    <defs>
        <rect id="path-1" x="0" y="0" width="1080" height="1460"></rect>
    </defs>
    <g id="fourth-toe-right-plantar" stroke="none" stroke-width="1" fill="none" fill-rule="evenodd">
        <mask id="mask-2" fill="white">
            <use xlink:href="#path-1"></use>
        </mask>
        <g id="mask"></g>
        <g id="bp-fourth-toe-right-plantar" mask="url(#mask-2)" fill="#FFFFFF">
            <g transform="translate(540.2206, 730.4653) scale(-1, 1) translate(-540.2206, -730.4653)translate(320.9, 302.0208)">
                <path d="M308.829741,459.907947 L307.25774,463.226875 C289.008741,502.16514 276.069641,540.390887 281.667332,566.734383 C250.207995,653.58813 232.048868,737.264652 217.876815,856.889088 C149.97858,822.714066 77.2592993,791.170913 0,762.585432 L2.53441448,747.304724 C21.1113814,636.409211 39.5981315,550.709732 64.7297771,464.448015 C81.6832082,451.547192 92.9462948,422.014222 101.532633,387.823759 C165.167486,424.598917 235.311893,449.137164 308.829741,459.907947 Z" id="bp-proximal-phalanx-fourth-toe-right-plantar"></path>
                <path d="M342.795961,395.1242 L341.292033,397.831496 C333.054125,412.703874 324.434037,428.539041 316.35647,444.556116 C241.360031,434.275948 169.889574,409.280764 105.418084,371.28509 C109.714101,351.855145 113.343393,331.591195 116.808341,312.477751 C185.336615,355.277346 262.046364,383.501445 342.795961,395.1242 Z" id="bp-proximal-interphalangeal-joint-fourth-toe-right-plantar"></path>
                <path d="M401.997922,274.182505 L398.379321,282.604565 C390.383559,300.986463 383.000437,316.55485 378.254566,327.697883 L377.488354,329.513803 C372.294609,341.949037 362.600179,359.547228 351.276288,379.883709 C268.354458,368.87855 189.692109,339.898808 119.965954,295.25417 L121.328558,288.080888 C124.739245,270.404961 128.203387,254.746055 132.218731,243.071486 L134.476977,236.743063 C138.920594,224.022704 144.286252,206.194257 151.029209,185.966244 C226.424032,234.069105 311.948794,264.389283 401.997922,274.182505 Z" id="bp-middle-phalanx-fourth-toe-right-plantar"></path>
                <path d="M427.757798,201.914001 L426.746133,205.538469 C421.509695,224.036303 415.053246,241.981445 408.450671,258.518947 C317.846711,249.420286 231.851224,218.978687 156.440591,170.131984 C162.989055,151.491682 170.683068,131.536784 179.829809,112.090107 C252.696581,159.350589 335.195113,189.896911 422.198333,201.217542 L427.757798,201.914001 Z" id="bp-distal-interphalangeal-joint-fourth-toe-right-plantar"></path>
                <path d="M359.047141,10.4075985 C441.388034,43.5478533 447.478978,116.524462 431.734795,186.016412 C343.772941,175.747445 260.37796,145.308281 187.077359,97.4214558 L189.168242,93.4526285 C223.686095,28.8792516 276.258594,-22.912826 359.047141,10.4075985 Z" id="bp-distal-phalanx-fourth-toe-right-plantar"></path>
            </g>
        </g>
        <g id="decoration" opacity="0.15" mask="url(#mask-2)">
            <g transform="translate(1184.3207, 3043.2427) scale(-1, 1) translate(-1184.3207, -3043.2427)translate(79, -414)">
                <g id="bp-ball-of-foot-right" transform="translate(0, 1371.3479)">
                    <path d="M1208.43409,78.6898689 C1295.85626,99.3133302 1378.94309,123.301194 1457.41454,150.308396 L1457.05518,152.59909 C1442.22673,248.965231 1428.05115,388.76047 1414.4713,572.25636 L1411.88241,607.882944 C1409.89362,653.04968 1407.83634,698.20781 1405.67544,743.369159 C1362.82489,743.790985 1319.38301,746.009286 1274.4976,750.103546 C1261.6895,751.271848 1248.76573,752.670826 1235.7165,754.297069 C1213.61664,757.051233 1191.76279,760.291016 1169.75447,764.091935 C1170.50777,684.757943 1170.58088,605.140686 1169.98419,525.200604 L1170.00242,517.14096 C1170.53358,379.693778 1183.2813,233.905688 1208.22252,79.9519431 L1208.43409,78.6898689 Z" id="bp-metatarsophalangeal-joint-third-toe-right-plantar" fill="#FFFFFF"></path>
                    <path d="M1519.76165,172.762491 C1598.50942,202.417032 1672.21674,235.216218 1740.57167,270.775689 L1739.18563,285.280842 C1736.65915,312.181788 1734.20865,340.795444 1731.76321,371.415677 L1729.1438,407.580052 C1724.83749,468.793744 1719.90745,547.049781 1714.63628,638.816274 L1710.92441,704.586667 C1709.88017,725.931028 1708.77457,747.250664 1707.5769,768.549219 C1625.73073,754.912295 1548.5089,746.570678 1470.71189,744.074344 C1472.13623,714.433925 1473.51035,684.795238 1474.83818,655.154821 L1476.71764,612.474278 L1479.35968,576.284156 C1492.12612,403.921683 1505.39065,270.80392 1519.10731,177.144492 L1519.76165,172.762491 Z" id="bp-metatarsophalangeal-joint-fourth-toe-right-plantar" fill="#FFFFFF"></path>
                    <path d="M1802.68189,304.683334 C1820.71925,315.016148 1838.337,325.552321 1855.52849,336.283639 C1961.37325,402.354362 2045.48225,472.976069 2101.60743,539.927471 C2144.62514,591.243045 2167.75939,636.837409 2170.0177,666.568993 C2169.27404,677.593358 2168.47963,688.768458 2167.64345,700.112468 L2165.91806,723.031085 C2165.13302,733.346702 2162.53421,751.815471 2158.41324,777.246104 L2155.85984,792.741932 C2144.8158,827.757528 2122.76912,839.339989 2073.14442,837.578307 L2068.3588,837.36756 C2044.88785,836.138898 2016.3577,831.853088 1977.42409,824.012875 L1966.42131,821.75657 C1940.72576,816.352987 1856.95795,797.731107 1830.19734,791.99329 L1827.26707,791.368266 C1808.54522,787.400974 1790.14805,783.664688 1772.02444,780.164859 C1772.95105,764.07122 1773.82259,747.967954 1774.64112,731.853673 L1775.73156,709.643359 L1775.81636,708.577093 L1779.16865,648.985536 C1785.17664,543.987505 1790.74586,456.464168 1795.44864,391.753648 L1796.57829,376.425339 L1797.89786,360.10942 C1798.99822,346.678783 1800.10124,333.659307 1801.21342,321.022893 L1802.68189,304.683334 Z" id="bp-metatarsophalangeal-joint-fifth-toe-right-plantar" fill="#FFFFFF"></path>
                </g>
                <g id="bp-second-toe-right-plantar" transform="translate(840.7, 261.7361)">
                    <path d="M374.904296,615.209793 L381.871955,614.443962 L379.740082,626.748549 C370.078155,684.241564 362.618925,755.676804 386.311421,793.971183 C357.559411,902.572644 333.871014,1007.92722 315.264837,1109.99121 C215.150544,1088.81773 109.934859,1071.89446 0,1059.66183 C6.72710668,928.408156 18.3394752,810.181638 34.8252715,704.897781 L36.7398465,692.895354 C56.1768512,665.178863 73.4006585,621.61673 82.3229917,570.135191 C173.810796,609.799903 274.10137,625.621852 374.904296,615.209793 L374.904296,615.209793 Z" id="bp-proximal-phalanx-second-toe-right-plantar" fill="#FFFFFF"></path>
                    <path d="M399.588008,517.1575 L405.451404,516.474787 L400.936115,532.20158 C394.78766,553.905746 389.758457,573.073697 386.669322,588.551299 L384.931837,597.712076 C281.553144,610.535822 178.395698,594.893191 84.8695613,553.516924 C87.3830606,534.732566 88.7734279,515.06417 88.7734279,494.860411 L88.7983867,480.618955 C88.815294,475.949788 88.8410571,471.356805 88.8764805,466.834601 C185.362285,511.465333 292.265337,529.198918 399.588008,517.1575 L399.588008,517.1575 Z" id="bp-proximal-interphalangeal-joint-second-toe-right-plantar" fill="#FFFFFF"></path>
                    <path d="M441.633524,386.058885 L443.310442,385.87195 C432.505181,425.565323 420.696538,464.619804 410.435541,499.448446 C299.38472,514.401079 188.376221,496.453649 89.0763814,448.985198 C89.7181919,404.427639 91.4938471,366.563226 95.2695718,329.547026 C201.273092,377.880165 318.132552,397.885329 435.751967,386.646858 L441.633524,386.058885 Z" id="bp-middle-phalanx-second-toe-right-plantar" fill="#FFFFFF"></path>
                    <path d="M460.54509,288.626259 L466.643692,287.970793 C461.56484,314.274856 455.015467,341.679326 447.822536,369.021427 C326.670288,383.147082 205.936541,363.199131 97.1556824,312.527111 C100.349552,285.801999 104.66332,259.056165 110.426429,230.066013 C219.164809,280.569529 339.533012,301.151217 460.54509,288.626259 L460.54509,288.626259 Z" id="bp-distal-interphalangeal-joint-second-toe-right-plantar" fill="#FFFFFF"></path>
                    <path d="M342.650094,7.51347755 C485.044535,42.7320203 488.635051,161.121393 469.696587,271.250876 C346.682408,286.040285 224.021681,265.685363 113.787824,213.687497 C115.416368,205.963674 117.147768,198.060887 118.986123,189.942169 L120.385009,183.812066 C146.38848,70.718954 196.980897,-28.5150134 342.650094,7.51347755 Z" id="bp-distal-phalanx-second-toe-right-plantar" fill="#FFFFFF"></path>
                </g>
                <g id="bp-third-toe-right-plantar" transform="translate(1219.4706, 474.8834)">
                    <path d="M336.899247,552.973863 L336.729376,553.404133 C316.95546,605.212757 305.034214,652.17311 314.613266,681.695382 C287.512435,773.706942 267.987694,864.036821 248.385297,981.666528 C169.846118,955.045322 86.9637506,931.381213 0,910.989483 C18.3530657,809.888382 41.8157396,705.371517 70.3767843,597.493134 C87.1256949,580.338686 97.094818,541.916072 104.228393,496.352543 C176.567185,530.893482 255.521016,550.334988 336.899247,552.973863 Z" id="bp-proximal-phalanx-third-toe-right-plantar" fill="#FFFFFF"></path>
                    <path d="M369.962796,474.996482 L368.98096,477.154125 C359.974871,497.119748 351.153328,517.247952 343.223001,536.88684 C260.353374,535.043432 179.965563,515.283414 106.702323,479.502581 C109.916302,456.242328 112.55348,431.662019 115.090163,407.458809 C193.359037,448.898818 280.192036,472.170762 369.962796,474.996482 Z" id="bp-proximal-interphalangeal-joint-third-toe-right-plantar" fill="#FFFFFF"></path>
                    <path d="M432.421526,332.295099 L431.225526,335.39777 C427.766819,344.348853 424.307539,352.983229 420.94009,361.218227 C409.05167,390.291006 393.207531,424.044912 377.266234,458.920459 C285.359459,457.125878 196.465799,433.292421 116.913843,390.00511 L118.829485,372.080934 C122.535068,338.119508 126.519887,306.720064 132.2345,283.072029 L132.989813,280.031888 C135.130155,271.655417 137.161716,262.426257 139.200583,252.574412 C227.7164,304.26085 328.345403,332.009065 432.421526,332.295099 Z" id="bp-middle-phalanx-third-toe-right-plantar" fill="#FFFFFF"></path>
                    <path d="M461.662265,241.282665 L460.950748,244.183327 C454.752115,268.869637 446.82382,293.217781 438.505024,316.029645 C333.287469,316.846466 231.522994,288.799185 142.606719,235.714489 L146.461905,216.35841 C150.444847,196.56563 154.886545,175.612304 160.466351,154.844398 C250.749926,210.293912 354.321911,240.395119 461.662265,241.282665 Z" id="bp-distal-interphalangeal-joint-third-toe-right-plantar" fill="#FFFFFF"></path>
                    <path d="M352.088582,4.79206071 C474.505545,31.1895422 485.739176,128.343317 465.375788,225.04961 C358.190452,224.832582 254.780419,194.664065 165.102052,138.604687 L166.646663,133.593254 C192.314206,51.9380402 239.781036,-19.4254685 352.088582,4.79206071 Z" id="bp-distal-phalanx-third-toe-right-plantar" fill="#FFFFFF"></path>
                </g>
                <g id="bp-fifth-toe-right-plantar" transform="translate(1809.7136, 989.3893)">
                    <path d="M336.823637,368.827299 L336.61869,369.712859 C321.593884,435.400458 311.998603,509.885921 323.700165,555.123165 C358.350205,685.997867 368.228946,794.639022 366.487785,911.603789 C307.959314,831.489538 208.5167,743.180543 80.2434576,663.109453 C54.3988172,646.976638 27.6439287,631.277928 0,616.0385 C13.4607623,493.209225 30.1134682,410.094851 59.2035907,326.68256 C78.9591952,322.491517 93.3626156,305.310515 104.798297,282.666537 C174.866598,327.494807 253.711817,356.952776 336.823637,368.827299 Z" id="bp-proximal-phalanx-fifth-toe-right-plantar" fill="#FFFFFF"></path>
                    <path d="M352.736402,308.799552 L351.872914,311.661778 C348.034592,324.499395 344.219645,338.410363 340.614967,352.946554 C258.500115,341.44126 180.649837,312.288976 111.631852,267.740884 C117.652784,253.354486 122.825192,237.649284 127.629978,222.120522 C194.073029,265.239978 268.53321,294.457347 347.11636,307.868518 L352.736402,308.799552 Z" id="bp-proximal-interphalangeal-joint-fifth-toe-right-plantar" fill="#FFFFFF"></path>
                    <path d="M386.281759,213.388515 L385.663471,215.432338 C380.649907,231.809958 375.12925,246.596398 370.306296,258.616765 L369.20624,261.341059 C365.582774,270.165736 361.667181,280.928693 357.673906,293.115742 C276.842793,280.489254 200.337877,250.702527 132.564442,205.933034 L136.108547,194.279669 C140.019715,181.546843 143.872314,169.628133 147.97159,159.486114 L149.209079,156.497772 C152.311041,149.192737 155.517461,140.923536 158.954497,132.095397 C226.38982,173.609309 301.574041,201.061752 380.628484,212.592028 L386.281759,213.388515 Z" id="bp-middle-phalanx-fifth-toe-right-plantar" fill="#FFFFFF"></path>
                    <path d="M399.402778,151.926458 L399.343229,152.483151 C397.577287,167.882046 394.470984,183.142782 390.719274,197.587653 C310.057333,186.949775 233.386146,159.307683 164.998843,116.731096 C171.081305,101.546545 177.95948,85.4923971 186.179525,70.3079064 C251.066569,111.210641 323.314285,138.97948 399.402778,151.926458 Z" id="bp-distal-interphalangeal-joint-fifth-toe-right-plantar" fill="#FFFFFF"></path>
                    <path d="M325.920078,9.11873272 C387.152587,32.483601 403.072286,83.4473993 400.704895,135.655215 C327.067156,122.940401 257.168342,95.9344265 194.368445,56.2691749 L196.409845,53.0945936 C222.929977,12.6690573 261.960979,-15.2865379 325.920078,9.11873272 Z" id="bp-distal-phalanx-fifth-toe-right-plantar" fill="#FFFFFF"></path>
                </g>
            </g>
        </g>
        <g id="viewport-boundary" mask="url(#mask-2)" stroke="#FF0000" stroke-width="3">
            <g transform="translate(260, 190)" id="boundary">
                <rect x="0" y="0" width="560" height="1080"></rect>
            </g>
        </g>
    </g>
</svg>