<?xml version="1.0" encoding="UTF-8"?>
<svg width="1080px" height="1460px" viewBox="0 0 1080 1460" version="1.1" xmlns="http://www.w3.org/2000/svg" xmlns:xlink="http://www.w3.org/1999/xlink">
    <title>genital-organ-female</title>
    <defs>
        <rect id="path-1" x="0" y="0" width="1080" height="1460"></rect>
    </defs>
    <g id="genital-organ-female" stroke="none" stroke-width="1" fill="none" fill-rule="evenodd">
        <mask id="mask-2" fill="white">
            <use xlink:href="#path-1"></use>
        </mask>
        <g id="mask"></g>
        <g id="bp-genital-organ-female" mask="url(#mask-2)" fill="#FFFFFF">
            <g transform="translate(389.7603, 476.7927)">
                <path d="M145.239586,0 L145.239586,25.4072391 C136.723428,27.2654464 129.733625,33.9435414 123.986465,44.3844332 C119.012211,53.4211836 114.959825,65.1662569 111.25768,80.0287388 L110.786924,81.9430432 C109.948128,85.3975685 108.684222,91.2519505 107.363275,97.5352044 L105.098672,108.421423 C103.487272,116.2243 102.126668,122.88447 101.777832,124.326986 C100.410494,129.983759 98.2280811,136.176697 95.287403,142.89912 C92.0611043,150.274475 88.0261543,158.077516 83.0427438,166.791881 L82.0001373,168.601414 C80.9498905,170.404798 79.45749,172.911656 77.7858892,175.699449 L66.315597,194.74016 C65.7656721,195.660377 65.3451552,196.370628 65.0946523,196.805661 L65.0398805,196.901138 C58.3192398,208.665857 52.1248784,227.520744 49.9464415,247.123335 C46.9584864,274.010348 51.3666122,300.390701 65.0421774,324.28745 C74.623728,341.025033 88.1893616,360.213298 101.618973,375.759474 L101.618149,442.676323 C48.3105056,398.036114 15.8466058,348.415613 4.02406196,293.768574 C-1.68119094,267.39585 -1.17247252,243.006965 4.61585704,219.089018 C9.05298423,200.754373 15.9816974,184.112319 27.1721604,162.777122 L28.8064399,159.68878 L39.7118446,139.465948 L41.3147332,136.466335 C41.7269485,135.690932 42.0766877,135.028557 42.3460048,134.511886 L43.2214123,132.822768 C47.6575857,124.211579 50.8330563,117.22705 53.2070553,110.58553 L54.30694,107.470397 L55.196579,104.981581 C65.2794185,76.9649254 75.3974862,55.3793506 88.2257604,37.515852 C104.591529,14.7263581 123.330635,1.70771423 145.239586,0 Z" id="bp-labium-majus-right" fill-rule="evenodd"></path>
                <path d="M155.239335,0 C177.136565,1.71532426 195.856163,14.7309728 212.202191,37.5137462 C225.756896,56.406029 236.268155,79.4343159 246.957662,109.922474 C249.431071,116.977024 252.797431,124.372697 257.612426,133.662756 L258.527521,135.414161 C259.063,136.428569 259.768327,137.750483 260.577458,139.259657 L272.076722,160.593118 C283.948896,182.989745 291.200483,200.137217 295.788002,219.093266 C301.576304,243.011057 302.083713,267.398363 296.375552,293.767877 L295.992854,295.502996 C283.868,349.442713 251.552572,398.466021 198.85068,442.618223 L198.850087,375.752989 C212.281727,360.204587 225.84516,341.017338 235.417555,324.286979 C249.092851,300.390701 253.500977,274.010348 250.513021,247.123335 C248.367591,227.817753 242.327009,209.237389 235.724692,197.440759 L235.23727,196.585572 C234.981855,196.147119 234.609187,195.518805 234.143866,194.74016 L222.673574,175.699449 C220.738036,172.471478 219.042756,169.620162 217.995945,167.801457 C212.744886,158.678383 208.522447,150.558142 205.17206,142.89912 C202.365049,136.482262 200.248937,130.547847 198.873259,125.102205 L198.629476,124.104954 C197.687831,120.010462 192.136744,92.1782154 189.747932,82.239164 L189.675068,81.9375214 C185.846034,66.168782 181.661732,53.8036012 176.476295,44.3828193 C170.732408,33.9474566 163.747872,27.2710717 155.239335,25.4096194 L155.239335,0 Z" id="bp-labium-majus-left" fill-rule="evenodd"></path>
                <path d="M150.239731,36.8772856 C161.214329,36.8772856 170.466135,53.6857544 178.013936,84.7691285 L178.343923,86.1586167 L178.726785,87.8278181 C179.42928,90.9332924 180.294538,94.9649919 181.199864,99.2657104 L182.954761,107.67943 L186.134604,123.057333 L186.771507,126.056752 C186.875637,126.534052 186.958566,126.902217 187.017448,127.145996 C188.424057,132.96524 190.543514,139.145692 193.324013,145.723216 L193.822,146.887322 L192.74121,146.887322 C191.688788,146.238322 190.618749,145.614162 189.531112,145.014463 L186.908443,143.56029 C169.210672,133.682131 160.589341,127.438963 154.657921,118.772707 C162.331019,116.809125 167.999731,109.849898 167.999731,101.567286 C167.999731,91.7627161 160.044301,83.8072856 150.239731,83.8072856 C140.435162,83.8072856 132.479731,91.7627161 132.479731,101.567286 C132.479731,109.846788 138.152761,116.807666 145.821728,118.772827 C139.604273,127.856613 130.431619,134.278228 110.949236,145.013975 C109.861179,145.613906 108.790737,146.238309 107.73793,146.887322 L106.638251,146.887322 C109.521398,140.204795 111.734929,133.928526 113.225475,128.02246 L113.494806,126.922378 C113.698189,126.044366 114.086183,124.212511 114.595069,121.768011 L118.186554,104.41026 L119.775526,96.8411297 C120.823469,91.9025289 121.782145,87.5171594 122.448092,84.7745017 L122.898515,82.9445317 C130.288116,53.3300604 139.280237,37.2081933 149.900809,36.882325 L150.239731,36.8772856 Z M150.239731,115.327286 L150.201604,115.327286 C142.623682,115.306645 136.479731,109.150003 136.479731,101.567286 C136.479731,93.9718551 142.644301,87.8072856 150.239731,87.8072856 C157.835162,87.8072856 163.999731,93.9718551 163.999731,101.567286 C163.999731,109.166367 157.841513,115.327286 150.239731,115.327286 Z" id="bp-clitoris" fill-rule="evenodd"></path>
                <path d="M186.850232,388.693669 L186.850232,517.987898 C175.707654,512.864351 163.307345,510.007286 150.239731,510.007286 C137.167842,510.007286 124.763693,512.866221 113.618448,517.992928 L113.620366,388.701836 C127.614937,402.625222 139.991774,410.497286 150.229731,410.497286 C160.347822,410.497286 172.556925,402.807964 186.350963,389.188518 L186.850232,388.693669 Z" id="bp-intergluteal-cleft" fill-rule="nonzero"></path>
                <path d="M150.239731,522.007286 C192.064256,522.007286 225.969731,555.912761 225.969731,597.737286 C225.969731,639.56181 192.064256,673.467286 150.239731,673.467286 C108.415207,673.467286 74.5097315,639.56181 74.5097315,597.737286 C74.5097315,555.912761 108.415207,522.007286 150.239731,522.007286 Z M150.239731,587.817286 C144.769731,587.817286 140.319731,592.267286 140.319731,597.737286 C140.319731,603.207286 144.769731,607.657286 150.239731,607.657286 C155.709731,607.657286 160.159731,603.207286 160.159731,597.737286 C160.159731,592.267286 155.709731,587.817286 150.239731,587.817286 Z" id="bp-anus" fill-rule="nonzero"></path>
                <path d="M148.241297,128.526996 L148.241297,219.869757 C146.500211,220.641642 145.279731,222.387639 145.279731,224.407286 C145.279731,226.43433 146.500211,228.176779 148.241297,228.946317 L148.241297,271.379113 C138.376977,274.076433 130.679731,296.515452 130.679731,323.797286 C130.679731,351.078195 138.376456,373.516619 148.239585,376.215185 L148.239766,398.304666 C131.594567,395.250127 97.2399906,356.378356 75.4568814,318.326415 C63.1349056,296.794935 59.1502948,272.9491 61.8730215,248.448736 C63.8385382,230.7621 69.3729792,213.735873 75.1868645,203.336049 L75.5852926,202.635436 L76.9403828,200.353168 L87.0857916,183.52367 L89.7898234,179.007669 L91.8137373,175.590907 L92.8637854,173.787644 L94.1038211,171.618537 C95.2380404,169.620552 96.3252295,167.665555 97.3670871,165.747572 C102.487077,160.181971 108.299882,155.61026 114.811112,152.020108 L116.582793,151.041358 L119.014901,149.687655 L121.536883,148.266416 C126.964669,145.183193 130.800913,142.825781 134.534136,140.232432 L135.214578,139.756354 L136.235349,139.029575 C140.932194,135.651364 144.922686,132.196271 148.241297,128.526996 Z" id="bp-labium-minus-right" fill-rule="evenodd"></path>
                <path d="M152.239125,128.528705 C155.558015,132.197343 159.547998,135.651888 164.244114,139.029575 L165.264885,139.756354 L165.945327,140.232432 L166.948511,140.92191 L167.623174,141.377324 L168.674576,142.0741 C173.039884,144.9351 177.991816,147.789962 185.669236,152.020596 C192.159596,155.599241 197.956184,160.153476 203.065465,165.696515 C204.488574,168.318996 205.997547,171.011087 207.595678,173.787644 L208.631136,175.566062 L209.950324,177.798679 L212.588701,182.216166 L213.825594,184.275488 L224.01224,201.177745 C224.467901,201.941424 224.80758,202.516804 224.99988,202.853433 C230.912661,213.203964 236.590214,230.485747 238.586441,248.448736 C241.309168,272.9491 237.324557,296.794935 225.002177,318.327121 C203.249011,356.346683 168.896771,395.217988 152.239125,398.300938 L152.239125,376.215391 C162.102615,373.517761 169.799731,351.07889 169.799731,323.797286 C169.799731,296.515681 162.102615,274.07681 152.239125,271.379181 L152.239125,228.944421 C153.979667,228.172336 155.199731,226.426589 155.199731,224.407286 C155.199731,222.387982 153.979667,220.642235 152.239125,219.87015 L152.239125,128.528705 Z" id="bp-labium-minus-left" fill-rule="evenodd"></path>
            </g>
        </g>
        <g id="decoration" opacity="0.15" mask="url(#mask-2)" fill="#FFFFFF">
            <g transform="translate(-86.1784, 62.11)" id="Shape">
                <path d="M1252.34689,0 L1252.34689,1163.61498 C1135.32095,1253.1934 1024.52201,1298 919.961675,1298 C768.321934,1298 643.422366,1163.61498 626.167649,1163.61498 C609.08548,1163.61498 486.796086,1295.32574 336.923578,1297.95995 L332.377,1298 L329.246542,1297.98656 C225.60851,1297.09962 115.867164,1252.30921 0,1163.62657 L0,0 L1.94811321,1.78577044 L9.15912962,8.36811159 C70.6380921,64.4116672 422.10453,383.127191 471.48978,389.924135 C509.408412,395.142296 523.949686,366.233687 626.167649,366.233687 L629.205778,366.233687 C728.675511,366.813483 743.309552,395.084316 780.845519,389.924135 C834.998428,382.47956 1252.34689,0 1252.34689,0 Z M626.178447,379.3 L626.168447,379.3 C589.199953,379.3 559.201361,398.780875 535.581229,431.672143 C519.602038,453.923325 507.866205,479.609718 496.172481,512.962059 L495.838406,513.896099 C494.005194,518.924018 491.340059,524.713823 487.448075,532.220035 L486.266772,534.470519 C485.804976,535.340166 485.244019,536.389529 484.616497,537.559245 L473.500191,558.175862 L473.171463,558.793073 C460.045176,583.556953 451.758874,603.152312 446.351909,625.494422 C439.338885,654.472928 438.718258,684.226899 445.568408,715.891948 L446.007382,717.882759 C459.857299,779.529716 496.1842,834.835551 554.008878,883.535775 L554.367722,883.836 L554.367722,927.863 L553.609649,928.513097 C529.637247,949.244684 515.258447,979.60176 515.258447,1012.41 C515.258447,1073.67119 564.917255,1123.33 626.178447,1123.33 C687.439639,1123.33 737.098447,1073.67119 737.098447,1012.41 L737.092342,1011.23933 C736.754735,978.880337 722.434262,948.997879 698.747246,928.513097 L697.987722,927.863 L697.987722,883.783 L698.344954,883.484224 C756.749902,834.273642 793.207522,778.322287 806.717985,715.894267 C813.57178,684.232369 812.952709,654.478377 805.939379,625.498655 C800.620974,603.522522 792.516177,584.203408 779.758986,560.008306 L778.152518,556.991227 L767.076278,536.449734 C766.336786,535.068065 765.722702,533.913358 765.301446,533.108381 L764.477861,531.521369 C760.66189,524.1213 758.060579,518.407941 756.279043,513.426914 L755.201949,510.375366 C743.794406,478.236015 732.28717,453.34752 716.74302,431.682388 C693.139497,398.78426 663.15094,379.3 626.178447,379.3 Z"></path>
            </g>
        </g>
        <g id="viewport-boundary" mask="url(#mask-2)" stroke="#FF0000" stroke-width="3">
            <g transform="translate(260, 190)" id="boundary">
                <rect x="0" y="0" width="560" height="1080"></rect>
            </g>
        </g>
    </g>
</svg>