<?xml version="1.0" encoding="UTF-8"?>
<svg width="1080px" height="1460px" viewBox="0 0 1080 1460" version="1.1" xmlns="http://www.w3.org/2000/svg" xmlns:xlink="http://www.w3.org/1999/xlink">
    <title>great-toe-right-plantar</title>
    <defs>
        <rect id="path-1" x="0" y="0" width="1080" height="1460"></rect>
    </defs>
    <g id="great-toe-right-plantar" stroke="none" stroke-width="1" fill="none" fill-rule="evenodd">
        <mask id="mask-2" fill="white">
            <use xlink:href="#path-1"></use>
        </mask>
        <g id="mask"></g>
        <g id="bp-great-toe-right-plantar" mask="url(#mask-2)" fill="#FFFFFF">
            <g transform="translate(540.1599, 729.4566) scale(-1, 1) translate(-540.1599, -729.4566)translate(279.6451, 254)">
                <path d="M288.391263,483.414734 C346.414808,483.414734 411.614729,476.443544 484.007689,462.514893 C482.527064,474.42941 481.671173,486.70993 481.671173,499.971155 L481.697352,509.986536 C481.97574,560.749592 484.656572,608.692657 498.271722,628.382464 C488.300246,694.726743 481.211244,768.481569 476.992055,849.711991 C355.080056,838.898771 244.320815,843.61657 155.43497,867.408196 C89.9383817,884.939338 37.3806237,912.568217 0,950.913196 C29.3358487,818.868874 75.0300939,708.36099 76.0526928,635.221353 C76.6500203,592.498532 71.4054089,543.188107 64.9652019,493.222709 L64.4332731,489.114611 C64.1660581,487.059947 63.8970389,485.004451 63.626538,482.948535 L62.5085627,474.507155 L60.799297,461.767081 C150.894174,476.194507 226.743437,483.414734 288.391263,483.414734 Z" id="bp-proximal-phalanx-great-toe-right-plantar"></path>
                <path d="M486.524152,445.72556 L484.893062,446.0456 C411.881963,460.296512 346.375509,467.414734 288.391263,467.414734 C226.600726,467.414734 149.976452,460.014661 58.564969,445.200794 L56.0123575,426.237886 C50.6129037,385.734314 45.8102328,346.578489 44.1703199,312.047797 C141.598749,328.287874 222.98735,336.414734 288.391263,336.414734 C354.723817,336.414734 430.435233,327.304033 515.550404,309.103139 C505.690983,368.859373 493.249993,406.905678 486.524152,445.72556 Z" id="bp-interphalangeal-joint-great-toe-right-plantar"></path>
                <path d="M292.29857,0.1334671 C472.01359,5.59387882 533.318246,183.687307 519.041819,286.175035 L518.186339,292.166039 C431.662881,311.005832 355.055626,320.414734 288.391263,320.414734 C223.266144,320.414734 141.663057,312.194406 43.6364736,295.737688 C43.3568863,279.21407 43.9776249,263.989398 45.8202596,250.472343 C58.4171068,158.065375 112.58355,-5.32694462 292.29857,0.1334671 Z" id="bp-distal-phalanx-great-toe-right-plantar"></path>
            </g>
        </g>
        <g id="decoration" opacity="0.15" mask="url(#mask-2)">
            <g transform="translate(110.9332, 2572.7876) scale(-1, 1) translate(-110.9332, -2572.7876)translate(-603, 423.1449)">
                <g id="bp-ball-of-foot-right" transform="translate(0, 717.0777)">
                    <path d="M190.480258,21.7613984 C274.343564,-0.685870078 381.126936,-5.12600011 499.280794,5.49325421 C495.650965,99.2552068 495.612026,202.400535 499.154905,315.022037 C499.170557,315.519577 499.203386,316.01253 499.252805,316.500343 C504.239925,398.370359 508.053703,479.955525 510.690117,561.183325 L428.276036,588.883308 L417.28251,592.508147 C390.873567,601.161419 368.779391,608.0373 348.190788,613.927641 L345.392319,614.724835 C289.699125,630.521124 245.549613,638.731089 207.777109,639.424383 C127.118395,640.904831 75.5039352,607.618939 44.5597575,524.309517 L44.1228826,523.110495 C24.7136605,465.724088 11.646531,411.388791 4.08842265,341.663534 C-1.30104759,292.734077 -1.02118577,244.964272 2.93911666,198.870042 C4.08243275,194.00389 5.25396054,188.855828 6.48209117,183.346327 C24.6143023,102.003657 87.6969776,49.2728809 190.480258,21.7613984 Z" id="bp-metatarsophalangeal-joint-great-toe-right-plantar" fill="#FFFFFF"></path>
                    <path d="M541.14447,9.7763923 C610.372024,17.5703836 676.565189,28.2925972 739.490534,41.65526 C722.757288,144.000624 714.157787,241.067796 713.727789,332.756038 L713.711399,339.720099 C714.116733,394.052438 714.041353,448.151087 713.481302,502.050506 L706.544641,503.59341 C661.274178,513.822441 612.324251,527.978384 552.247401,547.461681 C549.604242,469.500043 545.883077,391.211845 541.095087,312.663233 C537.665836,203.151624 537.661288,102.818437 541.070944,11.6036972 L541.14447,9.7763923 Z" id="bp-metatarsophalangeal-joint-second-toe-right-plantar" fill="#FFFFFF"></path>
                    <path d="M780.534739,50.8526927 C837.001231,64.1804381 890.667508,79.6824014 941.352686,97.1355881 L941.120572,98.6159305 C931.542787,160.891771 922.386697,251.233316 913.615388,369.816054 L911.943215,392.839447 C910.658641,422.028085 909.329833,451.211163 907.934093,480.396319 C880.256668,480.668922 852.197304,482.102481 823.205551,484.748363 C814.932721,485.503369 806.58518,486.407447 798.156605,487.458393 C783.882178,489.238249 769.766646,491.331933 755.55134,493.788247 C756.037905,442.519294 756.085122,391.067284 755.699721,339.406651 L755.711493,334.198172 C756.054576,245.37404 764.288401,151.159663 780.398086,51.668298 L780.534739,50.8526927 Z" id="bp-metatarsophalangeal-joint-third-toe-right-plantar" fill="#FFFFFF"></path>
                </g>
                <g id="bp-second-toe-right-plantar" transform="translate(543.0131, 0)">
                    <path d="M242.152905,397.574363 L246.653358,397.079452 L245.276369,405.031192 C239.035673,442.185589 234.217712,488.350036 249.520835,513.097469 C230.949741,583.280287 215.649265,651.364834 203.631426,717.322862 C138.967011,703.639672 71.0075767,692.703143 0,684.797908 C4.34507805,599.976278 11.8455757,523.573345 22.4938491,455.534502 L23.7304845,447.778031 C36.284961,429.866472 47.4099201,401.714795 53.172908,368.445266 C112.265423,394.078266 177.043699,404.303073 242.152905,397.574363 L242.152905,397.574363 Z" id="bp-proximal-phalanx-second-toe-right-plantar" fill="#FFFFFF"></path>
                    <path d="M258.096261,334.208861 L261.883464,333.767663 L258.967011,343.930976 C254.995688,357.957118 251.747296,370.344252 249.752006,380.346527 L248.629754,386.266605 C181.856843,394.553847 115.226838,384.444923 54.8177524,357.705845 C56.4412365,345.566605 57.3392829,332.856063 57.3392829,319.799547 L57.3554039,310.596121 C57.3663245,307.57871 57.382965,304.610531 57.4058452,301.688093 C119.726598,330.530344 188.775913,341.99053 258.096261,334.208861 L258.096261,334.208861 Z" id="bp-proximal-interphalangeal-joint-second-toe-right-plantar" fill="#FFFFFF"></path>
                    <path d="M285.253709,249.487439 L286.33684,249.366634 C279.357658,275.018156 271.730386,300.256799 265.102747,322.764527 C193.374364,332.427546 121.673317,320.829164 57.5349624,290.153061 C57.9495116,261.358098 59.0964178,236.888527 61.5351807,212.967106 C130.003483,244.202007 205.4837,257.130183 281.454776,249.867412 L285.253709,249.487439 Z" id="bp-middle-phalanx-second-toe-right-plantar" fill="#FFFFFF"></path>
                    <path d="M297.468802,186.522391 L301.407924,186.098801 C298.127464,203.097589 293.897185,220.807507 289.251229,238.477119 C210.998274,247.605709 133.015632,234.714507 62.7534307,201.968124 C64.81637,184.697235 67.6026582,167.412956 71.3250843,148.678304 C141.559848,181.315794 219.306384,194.616543 297.468802,186.522391 L297.468802,186.522391 Z" id="bp-distal-interphalangeal-joint-second-toe-right-plantar" fill="#FFFFFF"></path>
                    <path d="M221.319725,4.85552423 C313.293138,27.6152233 315.612274,104.1234 303.379808,175.293689 C223.924221,184.851226 144.69693,171.697022 73.4962293,138.09382 C74.548116,133.102362 75.666437,127.99525 76.8538419,122.748594 L77.7573903,118.787064 C94.5531866,45.7015533 127.231128,-18.4275973 221.319725,4.85552423 Z" id="bp-distal-phalanx-second-toe-right-plantar" fill="#FFFFFF"></path>
                </g>
                <g id="bp-third-toe-right-plantar" transform="translate(787.6633, 137.7447)">
                    <path d="M217.605219,357.354897 L217.495499,357.632955 C204.723409,391.11386 197.023406,421.461609 203.210572,440.540139 C185.705985,500.001867 173.094839,558.376823 160.433535,634.394071 C109.704614,617.190332 56.1704016,601.897592 0,588.719601 C11.8543539,523.383831 27.0090339,455.840651 45.4567819,386.125116 C56.2750024,375.039192 62.7141181,350.208888 67.3217365,320.763825 C114.045791,343.085628 165.042538,355.649545 217.605219,357.354897 Z" id="bp-proximal-phalanx-third-toe-right-plantar" fill="#FFFFFF"></path>
                </g>
            </g>
        </g>
        <g id="viewport-boundary" mask="url(#mask-2)" stroke="#FF0000" stroke-width="3">
            <g transform="translate(260, 190)" id="boundary">
                <rect x="0" y="0" width="560" height="1080"></rect>
            </g>
        </g>
    </g>
</svg>