<?xml version="1.0" encoding="UTF-8"?>
<svg width="1080px" height="1460px" viewBox="0 0 1080 1460" version="1.1" xmlns="http://www.w3.org/2000/svg" xmlns:xlink="http://www.w3.org/1999/xlink">
    <title>great-toe-right-dorsal</title>
    <defs>
        <rect id="path-1" x="0" y="0" width="1080" height="1460"></rect>
    </defs>
    <g id="great-toe-right-dorsal" stroke="none" stroke-width="1" fill="none" fill-rule="evenodd">
        <mask id="mask-2" fill="white">
            <use xlink:href="#path-1"></use>
        </mask>
        <g id="mask"></g>
        <g id="bp-great-toe-right-dorsal" mask="url(#mask-2)" fill="#FFFFFF">
            <g transform="translate(279.0426, 254)">
                <path d="M484.224246,461.543412 L484.330377,460.708347 C482.711034,473.17635 481.768178,486.012363 481.768178,499.928417 L481.794363,509.942942 L481.826141,514.502927 C482.243532,563.552571 485.162716,609.231269 498.372071,628.32875 L497.688815,632.915575 C488.074106,698.062045 481.211144,770.283085 477.088118,849.639357 C355.151566,838.827061 244.37002,843.544458 155.466274,867.33405 C89.9564946,884.863693 37.3881519,912.490211 0,950.831912 C29.3417567,818.798877 75.0452044,708.300439 76.0680093,635.167054 C76.665457,592.447885 71.4197895,543.141675 64.9782854,493.180549 L64.4462495,489.072802 C64.1789807,487.018313 63.9099073,484.962993 63.6393519,482.907252 L62.5211515,474.466594 L60.8906122,462.326442 C145.662897,476.639106 222.690826,483.800507 291.986367,483.800507 C349.800789,483.800507 413.8756,476.376737 484.224246,461.543412 Z" id="bp-proximal-phalanx-great-toe-right-dorsal"></path>
                <path d="M515.92024,307.459038 L515.480634,310.131349 C505.736067,368.73668 493.534593,406.407697 486.806594,444.631393 C415.178315,460.08305 350.233335,467.800507 291.986367,467.800507 C222.3045,467.800507 144.521819,460.442353 58.650996,445.715313 L56.0236379,426.201451 L54.8809641,417.578973 C49.9766638,380.313805 45.7391506,344.40085 44.1989114,312.432799 C135.579082,328.674176 218.169851,336.800507 291.986367,336.800507 C358.370371,336.800507 433.00821,327.012844 515.92024,307.459038 Z" id="bp-interphalangeal-joint-great-toe-right-dorsal"></path>
                <path d="M292.357437,0.133455691 C472.10865,5.59340065 533.425653,183.671606 519.146351,286.150572 L518.541797,290.386701 C434.245886,310.670298 358.720102,320.800507 291.986367,320.800507 C218.269243,320.800507 135.485908,312.56546 43.651364,296.082659 C43.3564201,279.417499 43.9727287,264.067691 45.8294874,250.450932 C58.4288715,158.051864 112.606223,-5.32648927 292.357437,0.133455691 Z M160.428194,73.3009822 C126.897033,100.736633 99.4624465,190.664599 126.897033,210.860287 C214.535295,275.638907 387.144567,266.112639 444.299955,216.194997 C466.400038,196.761411 454.587924,110.262901 422.199871,80.1598949 C389.811818,50.0568892 193.959355,45.8653314 160.428194,73.3009822 Z" id="bp-distal-phalanx-great-toe-right-dorsal"></path>
                <path d="M402.266746,84.523233 C386.575438,71.684392 331.99396,68.2980426 279.112762,69.6836299 C227.259499,71.0422834 174.421756,76.9562433 159.54779,90.7808188 C145.594841,103.749357 136.657469,128.891754 132.784332,152.732506 C129.29156,174.231949 128.049582,197.293708 137.124737,205.282784 C165.377472,229.94849 223.994025,243.017565 284.545031,241.999861 C339.666031,241.073422 397.075199,228.238441 436.38398,199.183031 C439.825331,196.649717 440.722361,191.675963 441.327431,186.38524 C442.452202,176.55026 441.01336,164.541921 437.997464,152.169416 C431.57135,125.806721 417.961453,97.3648557 402.266746,84.523233 Z" id="bp-nail-of-great-toe-right" transform="translate(285.9383, 155.725) scale(-1, 1) translate(-285.9383, -155.725)"></path>
            </g>
        </g>
        <g id="decoration" opacity="0.15" mask="url(#mask-2)">
            <g transform="translate(254.846, 423.1304)">
                <g id="bp-dorsum-of-foot-right" transform="translate(0, 717.0164)">
                    <path d="M780.691933,50.8483458 C837.169797,64.174952 890.846882,79.6755901 941.542268,97.127285 L941.310107,98.6075008 C931.730393,160.878018 922.572459,251.211841 913.799384,369.784442 L912.126874,392.805867 C910.842041,421.99201 909.512965,451.172593 908.116945,480.355255 C880.433946,480.627834 852.368931,482.061271 823.371339,484.706927 C815.096843,485.461868 806.747621,486.365869 798.317348,487.416725 C784.040046,489.196429 769.921672,491.289934 755.703503,493.746037 C756.190165,442.481468 756.237393,391.033856 755.851913,339.377639 L755.863688,334.169605 C756.20684,245.353065 764.442323,151.146742 780.555252,51.6638814 L780.691933,50.8483458 Z" id="bp-metatarsophalangeal-joint-third-toe-right-dorsal" fill="#FFFFFF"></path>
                    <path d="M541.253453,9.77555661 C610.494949,17.5688817 676.701445,28.2901787 739.639462,41.6516993 C722.902846,143.988314 714.301614,241.04719 713.871528,332.727594 L713.855136,339.69106 C714.260551,394.018754 714.185155,448.112779 713.624993,502.007591 L706.686934,503.550363 C661.407354,513.77852 612.447569,527.933252 552.35862,547.414884 C549.714928,469.45991 545.993014,391.178404 541.20406,312.636507 C537.774118,203.134258 537.769569,102.809648 541.179912,11.6027053 L541.253453,9.77555661 Z" id="bp-metatarsophalangeal-joint-second-toe-right-dorsal" fill="#FFFFFF"></path>
                    <path d="M190.518619,21.7595382 C274.398815,-0.685811449 381.203692,-5.12556194 499.381345,5.49278464 C495.750785,99.2467224 495.711838,202.383234 499.255431,314.995109 C499.271086,315.492607 499.303922,315.985517 499.35335,316.473289 C504.341476,398.336306 508.156021,479.914498 510.792966,561.135355 L428.362288,588.83297 L417.366548,592.457499 C390.952286,601.110032 368.85366,607.985325 348.260911,613.875162 L345.461879,614.672288 C289.757469,630.467227 245.599065,638.67649 207.818953,639.369725 C127.143996,640.850047 75.5191412,607.566999 44.5687315,524.264699 L44.1317687,523.065779 C24.7186376,465.684278 11.6488765,411.353625 4.08924603,341.634328 C-1.30130961,292.709054 -1.02139143,244.943333 2.93970858,198.853042 C4.08325492,193.987306 5.25501865,188.839684 6.48339661,183.330655 C24.6192594,101.994937 87.7146392,49.268669 190.518619,21.7595382 Z" id="bp-metatarsophalangeal-joint-great-toe-right-dorsal" fill="#FFFFFF"></path>
                </g>
                <g id="bp-second-toe-right-dorsal" transform="translate(543.1225, 0)">
                    <path d="M242.201673,397.540379 L246.703032,397.045509 L245.325765,404.99657 C239.083813,442.147791 234.264882,488.308292 249.571087,513.05361 C230.996253,583.230428 215.692696,651.309155 203.672436,717.261545 C138.994998,703.579525 71.0218771,692.64393 0,684.739371 C4.34595312,599.924992 11.8479613,523.52859 22.4983792,455.495563 L23.7352636,447.739755 C36.2922685,429.829727 47.4194681,401.680456 53.1836166,368.413771 C112.288032,394.04458 177.079354,404.268513 242.201673,397.540379 L242.201673,397.540379 Z" id="bp-proximal-phalanx-second-toe-right-dorsal" fill="#FFFFFF"></path>
                    <path d="M258.14824,334.180292 L261.936205,333.739133 L259.019165,343.901577 C255.047042,357.92652 251.797996,370.312595 249.802304,380.314015 L248.679826,386.233587 C181.893468,394.520121 115.250044,384.412061 54.8287923,357.675268 C56.4526033,345.537066 57.3508306,332.82761 57.3508306,319.772211 L57.3669549,310.569571 C57.3778776,307.552418 57.3945216,304.584493 57.4174064,301.662305 C119.75071,330.50209 188.813931,341.961297 258.14824,334.180292 L258.14824,334.180292 Z" id="bp-proximal-interphalangeal-joint-second-toe-right-dorsal" fill="#FFFFFF"></path>
                    <path d="M285.311157,249.466112 L286.394507,249.345318 C279.413919,274.994647 271.78511,300.231133 265.156137,322.736937 C193.413309,332.39913 121.697821,320.80174 57.5465495,290.128258 C57.9611822,261.335757 59.1083194,236.868277 61.5475735,212.948901 C130.029664,244.181133 205.525083,257.108203 281.511459,249.846053 L285.311157,249.466112 Z" id="bp-middle-phalanx-second-toe-right-dorsal" fill="#FFFFFF"></path>
                    <path d="M297.52871,186.506447 L301.468626,186.082893 C298.187505,203.080228 293.956374,220.788632 289.309482,238.456734 C211.040768,247.584544 133.04242,234.694444 62.7660688,201.950859 C64.8294235,184.681447 67.6162729,167.398646 71.3394487,148.665595 C141.588357,181.300295 219.35055,194.599907 297.52871,186.506447 L297.52871,186.506447 Z" id="bp-distal-interphalangeal-joint-second-toe-right-dorsal" fill="#FFFFFF"></path>
                    <path d="M221.364298,4.85510918 C313.356233,27.6128627 315.675836,104.114499 303.440906,175.278705 C223.969318,184.835424 144.726071,171.682345 73.5110309,138.082016 C74.5631294,133.090984 75.6816756,127.984309 76.8693198,122.738101 L77.7730501,118.77691 C94.5722289,45.6976467 127.256752,-18.4260221 221.364298,4.85510918 Z M270.231295,48.7845262 C257.041443,32.7053974 166.294869,17.9391055 148.716316,28.4984436 C131.55672,39.087079 112.76534,79.0330993 124.182669,90.3570416 C160.831209,126.180543 241.60191,133.091864 271.585057,113.716483 C283.06385,106.098762 283.391851,65.2826277 270.201999,49.2034989 Z" id="bp-distal-phalanx-second-toe-right-dorsal" fill="#FFFFFF"></path>
                    <path d="M250.669687,40.8106474 C243.378733,35.8445987 220.613307,36.2757481 198.163893,38.2810084 L194.960688,38.5777696 C171.871119,40.7919847 148.071988,44.5840282 141.78384,51.2418602 C136.146655,57.4666669 133.240178,68.6690867 132.296701,79.0474276 C131.525599,87.5296242 130.737268,97.3611783 134.670851,100.388377 C148.318951,110.54255 175.217657,114.249219 202.40543,111.868204 C227.415528,109.677903 253.147637,102.125708 270.138242,87.6914786 C270.642494,87.2126281 270.720006,86.4539073 270.720677,85.6468911 L270.706993,84.6701107 L270.714476,84.1921232 C270.902065,79.9331904 269.880949,74.8336794 268.223787,69.6202838 C264.603055,58.2295379 257.889179,46.0006026 250.669687,40.8106474 Z" id="bp-nail-of-second-toe-right" fill="#FFFFFF" transform="translate(201.2014, 74.7173) scale(-1, 1) rotate(-4) translate(-201.2014, -74.7173)"></path>
                </g>
                <g id="bp-third-toe-right-dorsal" transform="translate(787.8219, 137.7329)">
                    <path d="M217.649043,357.32435 L217.539301,357.602384 C204.764639,391.080427 197.063085,421.425582 203.251497,440.502481 C185.743384,499.959127 173.129699,558.329093 160.465845,634.339843 C109.726708,617.137574 56.1817139,601.846142 0,588.669278 C11.8567412,523.339092 27.0144734,455.801685 45.4659365,386.092109 C56.2863358,375.007134 62.7267482,350.178952 67.3352946,320.736406 C114.068759,343.056301 165.075776,355.619144 217.649043,357.32435 Z" id="bp-proximal-phalanx-third-toe-right-dorsal" fill="#FFFFFF"></path>
                </g>
            </g>
        </g>
        <g id="viewport-boundary" mask="url(#mask-2)" stroke="#FF0000" stroke-width="3">
            <g transform="translate(260, 190)" id="boundary">
                <rect x="0" y="0" width="560" height="1080"></rect>
            </g>
        </g>
    </g>
</svg>