<?xml version="1.0" encoding="UTF-8"?>
<svg width="1080px" height="1460px" viewBox="0 0 1080 1460" version="1.1" xmlns="http://www.w3.org/2000/svg" xmlns:xlink="http://www.w3.org/1999/xlink">
    <title>hand-right-dorsal</title>
    <defs>
        <rect id="path-1" x="0" y="0" width="1080" height="1460"></rect>
    </defs>
    <g id="hand-right-dorsal" stroke="none" stroke-width="1" fill="none" fill-rule="evenodd">
        <mask id="mask-2" fill="white">
            <use xlink:href="#path-1"></use>
        </mask>
        <g id="mask"></g>
        <g id="bp-hand-right-dorsal" mask="url(#mask-2)">
            <g transform="translate(290.02, 368)">
                <g id="bp-thumb-right-dorsal" stroke-width="1" fill="none" fill-rule="evenodd" transform="translate(337.2202, 213.542)">
                    <path d="M140.768351,93.8256699 L141.460223,94.5011304 C145.315382,98.2200282 150.651352,102.650955 159.360319,109.55701 L160.405065,110.411267 L166.423062,115.195961 C180.427168,126.36499 181.281545,127.465491 180.78017,130.528347 L180.747531,130.720411 C180.741838,130.752873 180.736026,130.785571 180.730109,130.818517 L180.730109,131.008352 C177.500896,144.961216 162.684509,151.225767 142.16951,147.42907 C132.116743,145.460779 121.390371,141.402078 110.618361,136.071875 C114.048958,127.571381 119.420777,118.626901 126.723422,109.282632 C131.387166,103.313504 136.064,98.1663861 140.768351,93.8256699 Z M137.880518,133.106957 C145.932516,139.019218 160.130141,144.835255 169.919242,139.344038 C179.48069,133.980523 178.501401,127.498604 176.042959,125.354953 L175.864963,125.209287 L171.943404,122.194273 C162.788405,115.13007 158.3288,111.490275 154.709383,108.449048 L151.540523,105.768301 C144.211343,99.5525781 129.828521,127.194695 137.880518,133.106957 Z" id="bp-distal-phalanx-thumb-right-dorsal" fill="#FFFFFF" fill-rule="nonzero"></path>
                    <path d="M149.038917,107.209202 C149.358221,107.181524 149.654971,107.285867 149.927445,107.516944 L153.102687,110.203071 C156.739182,113.258648 161.219519,116.916002 170.421195,124.016216 L174.271965,126.976806 C174.693221,127.364816 174.998564,127.969336 175.116071,128.675513 C175.242803,129.437127 175.142239,130.311209 174.752973,131.236611 C173.953871,133.136313 172.053931,135.120986 168.697722,137.003658 C164.907732,139.129662 160.365657,139.252131 155.88485,138.379838 C149.722102,137.180116 143.628699,134.064915 139.361711,130.931835 C138.097133,130.003306 137.92317,128.192218 138.021754,126.276043 C138.182581,123.150057 139.375349,119.457012 141.041552,116.122332 C142.715418,112.772315 144.866841,109.753746 147.057723,108.137432 C147.732055,107.639946 148.388775,107.265557 149.038917,107.209202 Z" id="bp-nail-of-thumb-right" fill="#FFFFFF" fill-rule="nonzero"></path>
                    <path d="M132.386895,83.6445477 C133.84384,85.7669017 135.185217,87.6005169 136.679786,89.3956335 L137.027528,89.8093217 C137.655737,90.5495328 138.313656,91.2864546 139.020267,92.0377629 C134.228257,96.4648963 129.478249,101.696135 124.753515,107.743326 C117.371436,117.189234 111.905556,126.267904 108.377534,134.944665 C97.7581233,129.522242 87.137193,122.919809 77.1152456,115.92143 C80.4097408,106.391413 86.2185676,96.2785038 94.5262721,85.6481889 C101.788938,76.3526977 109.08335,69.0506345 116.463983,63.6830488 C121.897039,69.3931965 126.86941,75.7017126 132.386895,83.6445477 Z" id="bp-interphalangeal-joint-thumb-right-dorsal" fill="#FFFFFF" fill-rule="nonzero"></path>
                    <path d="M108.832638,56.308324 C110.881607,58.1334371 112.826127,59.9742078 114.705385,61.871024 C107.220813,67.3660481 99.858404,74.7629966 92.5563647,84.1088823 C84.2854721,94.6920936 78.419982,104.81431 74.9903602,114.42677 C73.0763662,113.066974 71.1852444,111.695178 69.3222709,110.316349 L68.087572,109.367175 C38.5209005,87.658308 14.8227902,76.0711079 0,74.5054117 C4.98220875,58.8753338 11.5894755,44.3740468 19.4089734,34.3487282 C30.9509926,19.5507932 44.6243019,7.41408992 57.3415527,0 L63.9863707,7.54713561 C81.0183289,26.8354339 102.892433,51.1787358 108.832638,56.308324 Z" id="bp-proximal-phalanx-thumb-right-dorsal" fill="#FFFFFF" fill-rule="nonzero"></path>
                </g>
                <g id="bp-index-finger-right-dorsal" stroke-width="1" fill="none" fill-rule="evenodd" transform="translate(277.1453, 411.9768)">
                    <path d="M142.993919,185.699812 L145.241733,191.621945 L148.782756,201.03736 C152.19004,210.168575 154.561248,216.780312 155.135858,218.939494 C160.644515,239.251827 155.800696,251.591095 140.604401,255.672545 C125.218152,259.848912 116.100375,250.926673 99.0995202,214.573292 L96.5065865,209.311084 C95.9733455,208.221362 95.3872539,207.021213 94.756562,205.727952 C101.004917,201.350962 108.406939,197.339547 116.968949,193.702969 C126.301736,189.752732 134.984187,187.08534 142.993919,185.699812 Z M140.753958,213.735851 C135.990605,213.808638 131.648435,214.676063 127.727449,216.338126 C123.844399,217.984108 120.307262,220.437894 117.116039,223.699485 C115.082175,225.778193 114.491222,228.847353 115.615549,231.492396 L120.377224,242.694509 C123.961355,251.126384 133.803659,255.02134 142.360625,251.394136 L143.20594,251.035816 C150.080368,248.396971 155.794184,237.632798 152.210053,229.200923 L147.478904,218.070625 C146.344872,215.402753 143.689265,213.690998 140.753958,213.735851 Z" id="bp-distal-phalanx-index-finger-right-dorsal" fill="#FFFFFF" fill-rule="nonzero"></path>
                    <path d="M140.793724,216.07556 C141.754851,216.060873 142.670853,216.332116 143.439021,216.827263 C144.198164,217.316592 144.812514,218.024779 145.179703,218.888612 L149.910852,230.01891 C151.354385,233.414906 150.952261,237.248875 149.582554,240.570401 C148.067819,244.243619 145.348223,247.393372 142.274062,248.556165 L141.386508,248.932389 C137.7392,250.478443 133.817591,250.424215 130.425606,249.081883 C127.050624,247.746281 124.200256,245.134042 122.679562,241.556523 L117.917888,230.354409 C117.554178,229.498763 117.468842,228.574514 117.637949,227.696246 C117.808941,226.808188 118.239658,225.967418 118.904545,225.287871 C121.852725,222.274683 125.116454,220.000892 128.704703,218.479873 C132.343456,216.937445 136.374705,216.143085 140.793724,216.07556 L140.793724,216.07556 Z" id="bp-nail-of-index-finger-right" fill="#FFFFFF" fill-rule="nonzero"></path>
                    <path d="M130.553848,153.398217 L133.616494,161.297033 C136.549006,168.873917 139.430152,176.362891 142.085852,183.321488 C134.009237,184.763836 125.305384,187.459732 115.99305,191.401313 C107.426311,195.0399 99.9789881,199.058325 93.647666,203.452671 L79.6300277,174.612573 C86.155448,169.858359 94.0083314,165.523745 103.197307,161.620873 C113.049698,157.450706 122.177324,154.710206 130.553848,153.398217 Z" id="bp-distal-interphalangeal-joint-index-finger-right-dorsal" fill="#FFFFFF" fill-rule="nonzero"></path>
                    <path d="M109.072089,99.0587634 L109.64195,100.482525 L111.723808,105.612099 C115.450539,114.858402 120.884051,128.611433 126.657746,143.397612 L129.62709,151.016161 C121.182993,152.392046 112.040451,155.163165 102.221407,159.319218 C93.0351584,163.220931 85.1360816,167.559407 78.5199673,172.329814 L72.4398907,159.855168 C71.7703607,158.48507 71.1256286,157.167394 70.5114901,155.914312 L69.6566985,154.205798 L60.9741847,136.401558 C57.1389965,128.547635 53.2479562,120.587035 49.8249851,113.573252 C56.8519502,107.996253 65.6160155,102.965957 76.1289065,98.5007732 C86.6251633,94.0580807 96.2988308,91.238022 105.118064,90.0391999 L109.072089,99.0587634 Z" id="bp-middle-phalanx-index-finger-right-dorsal" fill="#FFFFFF" fill-rule="nonzero"></path>
                    <path d="M104.073192,87.6622937 L103.780946,87.7041896 C94.998107,89.0069162 85.4473471,91.8418888 75.1530066,96.1991179 C64.6582439,100.656602 55.8434662,105.684137 48.7023969,111.27452 L43.6330432,100.862195 L42.4933211,98.4892588 C38.8994183,91.1015456 35.4673151,84.3067262 32.1914807,78.088219 C39.3384173,72.2782982 48.3444132,67.0526645 59.2230282,62.4321447 C70.1587899,57.8034255 80.2016322,54.9360725 89.3155397,53.8285059 L91.4726349,58.8207838 C94.3260397,65.4108365 97.0759667,71.7096384 99.5713423,77.4054305 L104.073192,87.6622937 Z" id="bp-proximal-interphalangeal-joint-index-finger-right-dorsal" fill="#FFFFFF" fill-rule="nonzero"></path>
                    <path d="M79.1543829,29.9588648 C79.8439148,31.6047332 80.5399431,33.259486 81.2403138,34.918674 L82.6462066,38.2416456 L85.2336565,44.320938 L86.9393293,48.3056231 L88.2856181,51.4393162 C79.1169725,52.6378725 69.0948899,55.5390168 58.2471283,60.1304895 C47.3581924,64.7553922 38.2778086,69.993972 30.9989662,75.8381818 L30.0192686,74.0075739 C23.6823171,62.2234759 17.9507636,52.6768236 12.7821384,45.2390477 L8.6547507,39.319672 C5.30211496,34.528843 2.61694416,30.8597591 0,28.4290133 C8.46595517,20.1698557 18.8428651,12.8299676 30.169233,7.75419799 C41.6534373,2.60769597 55.1686492,0.0458302205 67.4544099,0 L68.3006169,2.29974012 C72.1044418,12.588571 75.8438348,22.0495354 79.1543829,29.9588648 Z" id="bp-proximal-phalanx-index-finger-right-dorsal" fill="#FFFFFF" fill-rule="nonzero"></path>
                </g>
                <g id="bp-middle-finger-right-dorsal" stroke-width="1" fill="none" fill-rule="evenodd" transform="translate(194.0738, 443.3113)">
                    <path d="M83.1832371,210.564296 L87.4791099,247.307973 L87.4791099,248.352065 C88.5238552,258.413314 84.1549204,278.915482 67.7239264,280.623996 L67.6289495,280.529078 C51.5778628,282.142675 45.1194374,271.132251 41.8902247,264.962618 L41.700271,264.582948 C39.9226447,261.245254 38.3588803,253.724595 37.1129447,245.969246 L36.9188744,244.743342 L36.6880507,243.238571 C35.9323143,238.228639 35.3142703,233.313897 34.8619383,229.558411 L34.5770077,226.900723 L34.1172955,223.090532 C33.8394029,220.800239 33.5448451,218.394134 33.2354976,215.886026 C40.5126158,213.517207 48.8398997,211.848615 58.2605445,210.869045 C67.416259,209.924209 75.7250867,209.822702 83.1832371,210.564296 Z M60.7327149,238.97738 C56.3267426,239.771911 52.0849627,241.504617 48.0073752,244.175496 C45.6042287,245.749587 44.3593793,248.576355 44.8402056,251.367405 L47.0315384,264.087425 C48.6511874,273.488994 57.6788567,279.719278 67.1954019,278.003153 L68.1355108,277.833623 C77.6520561,276.117498 84.0537553,267.104825 82.4341062,257.703256 L80.2561415,245.060834 C79.7708175,242.243666 77.622039,240.010001 74.8047572,239.394093 C69.8678873,238.314806 65.1772065,238.175901 60.7327149,238.97738 Z" id="bp-distal-phalanx-middle-finger-right-dorsal" fill="#FFFFFF" fill-rule="nonzero"></path>
                    <path d="M61.1779542,241.277696 C65.3144321,240.531762 69.67919,240.672255 74.2723922,241.676411 C75.1844724,241.875808 75.9894508,242.3355 76.6048323,242.975192 C77.2150359,243.609501 77.6381345,244.420498 77.7940025,245.325267 L79.9719672,257.967689 C80.6648601,261.989721 79.6375079,265.926865 77.4242812,269.04277 C75.2010913,272.172702 71.7813613,274.476123 67.6934091,275.213306 L66.7533003,275.382837 C62.6758452,276.118127 58.7014928,275.155441 55.5737002,272.996851 C52.4602524,270.848161 50.1878559,267.514273 49.496815,263.502991 L47.3054822,250.782972 C47.1499844,249.880354 47.2752651,248.972357 47.6318372,248.162664 C47.993181,247.342136 48.5917433,246.622318 49.3787787,246.1068 C53.1600961,243.629982 57.0909872,242.014701 61.1779542,241.277696 L61.1779542,241.277696 Z" id="bp-nail-of-middle-finger-right" fill="#FFFFFF" fill-rule="nonzero"></path>
                    <path d="M52.5840524,174.038578 C62.262339,172.829551 71.0056771,172.616865 78.8365644,173.392991 L82.8856983,208.025585 C75.3899526,207.322478 67.0945241,207.444135 58.0029512,208.382351 C48.6146879,209.358554 40.2674983,211.012025 32.9217543,213.35965 L31.3803611,201.022423 C30.5128423,194.135184 29.5782748,186.797291 28.603822,179.20633 C35.6346113,176.854868 43.6282088,175.13134 52.5840524,174.038578 Z" id="bp-distal-interphalangeal-joint-middle-finger-right-dorsal" fill="#FFFFFF" fill-rule="nonzero"></path>
                    <path d="M48.9749323,117.183029 C57.40172,116.130342 65.1197221,115.832981 72.1437887,116.285978 L78.5399092,170.85397 C70.6521449,170.119705 61.9046842,170.354801 52.2777065,171.557421 C43.3647849,172.644943 35.3647753,174.351339 28.2787973,176.679504 L26.23542,160.858763 L23.5627004,140.357357 L21.3673775,123.652034 C29.2389758,120.626144 38.4413861,118.468297 48.9749323,117.183029 Z" id="bp-middle-phalanx-middle-finger-right-dorsal" fill="#FFFFFF" fill-rule="nonzero"></path>
                    <path d="M42.2315764,78.8363822 C51.5570072,77.6714352 60.0144204,77.4315021 67.6239415,78.1098493 L68.4080541,84.999804 C69.0647036,90.6891311 69.8080933,96.9496084 70.6488594,103.87777 L71.7129538,112.620121 L71.8483496,113.762767 C64.7810732,113.340525 57.0588608,113.653744 48.6685864,114.701872 C38.1949048,115.979833 28.9818527,118.112389 21.031247,121.104238 L16.9842285,90.6376364 C16.7136161,88.614421 16.4491307,86.6401742 16.1915569,84.720673 C23.709659,81.999927 32.389572,80.0372708 42.2315764,78.8363822 Z" id="bp-proximal-interphalangeal-joint-middle-finger-right-dorsal" fill="#FFFFFF" fill-rule="nonzero"></path>
                    <path d="M31.8105652,0.380558121 C42.8530498,-0.554847872 54.297692,0.260277696 64.6613955,2.53811008 C63.7253024,6.67708918 63.6431728,12.3942673 63.6400235,20.034022 L63.6399221,25.1062386 L63.6664913,27.7336978 C63.8292617,38.9408801 64.6608176,51.3395198 67.3413028,75.5745106 C59.6759986,74.9354662 51.2096323,75.195401 41.9252305,76.3552254 C32.1304668,77.5503467 23.4381981,79.4928629 15.8499105,82.1866147 L13.1763608,62.4468483 C12.4653094,57.2585788 11.9207739,53.3588636 11.5926114,51.113618 L11.3802823,49.7081468 C8.66337114,32.23081 3.63059158,18.2093152 0.670274357,12.2923837 L0.219145022,11.4005502 C0.145437487,11.256704 0.0724161964,11.1152409 1.42108547e-14,10.9761411 C7.56806131,5.54430201 20.0218789,1.37917467 31.8105652,0.380558121 Z" id="bp-proximal-phalanx-middle-finger-right-dorsal" fill="#FFFFFF" fill-rule="nonzero"></path>
                </g>
                <g id="bp-ring-finger-right-dorsal" stroke-width="1" fill="none" fill-rule="evenodd" transform="translate(110.6772, 422.2091)">
                    <path d="M28.0609744,208.247012 C36.4314896,208.699191 43.9941201,209.737226 50.7663504,211.361539 L50.5400382,217.534515 L50.5400382,218.483689 L50.382816,222.961681 C49.3806084,250.216489 48.1941102,256.835082 43.3217981,264.138979 C34.6789053,277.237587 15.3036291,276.288412 9.32008787,262.810135 C8.39232964,260.745057 7.29605235,255.292993 6.43863346,249.594603 L6.17280136,247.76577 L5.95561369,246.167405 C5.17143053,240.20153 4.74184331,234.658943 5.14110673,233.195893 L5.14600742,233.05965 L5.11590004,231.16302 C5.03444868,227.473241 4.7999438,219.126244 4.54221235,209.019684 L5.27375248,208.923095 C12.1383983,208.042262 19.7303667,207.816388 28.0609744,208.247012 Z M14.5200238,234.922945 C11.4328325,235.993491 9.44565794,238.99967 9.67105418,242.258421 L10.5166202,254.483514 C11.1153214,263.139464 18.2723655,269.876585 26.9505029,269.953178 C35.5926126,270.029452 42.807749,263.375933 43.429102,254.757254 L44.2781823,242.979811 C44.5044176,239.841799 42.6760339,236.918169 39.755543,235.747995 C35.0066838,233.845235 30.6414208,232.859471 26.6597539,232.790702 C22.8553325,232.724995 18.8087558,233.435742 14.5200238,234.922945 Z" id="bp-distal-phalanx-ring-finger-right-dorsal" fill="#FFFFFF" fill-rule="nonzero"></path>
                    <path d="M26.0268223,235.126955 L26.6181508,235.13033 L26.6312655,235.13056 C30.3421827,235.196697 34.4050236,236.136747 38.8272805,237.908645 C39.7826501,238.291439 40.5594204,238.961007 41.0788215,239.791542 C41.5982151,240.622066 41.8602296,241.613527 41.7862228,242.640043 L40.9371426,254.417486 C40.6739035,258.068829 39.0138351,261.303839 36.5043638,263.617976 C33.9947498,265.932244 30.6355957,267.32559 26.9741355,267.293275 C23.2876842,267.260739 19.9242592,265.813606 17.4188992,263.455242 C14.9137221,261.09705 13.2665401,257.827789 13.0122304,254.15101 L12.1666644,241.925917 C12.0929123,240.859619 12.3812165,239.83467 12.9404228,238.988708 C13.499794,238.142496 14.3302285,237.47535 15.3406679,237.12496 C19.3247,235.743418 23.0825285,235.069265 26.6181508,235.13033 L26.0268223,235.126955 Z" id="bp-nail-of-ring-finger-right" fill="#FFFFFF" fill-rule="nonzero"></path>
                    <path d="M4.42508132,176.003428 C11.682553,174.95314 19.7781225,174.658302 28.7258123,175.120824 C37.3876774,175.588742 45.1844394,176.68401 52.135473,178.407093 L51.4166159,195.175054 C51.2023841,200.308183 51.015841,204.920215 50.8638917,208.816434 C44.0608833,207.219742 36.5087127,206.199719 28.19293,205.750498 C19.5282758,205.302605 11.6275686,205.553147 4.47817041,206.505926 L4.16778403,193.49933 L4.07261723,189.148267 L4.01814307,186.53587 C3.94587309,182.999449 3.88027261,179.487148 3.82547811,176.091289 L4.42508132,176.003428 Z" id="bp-distal-interphalangeal-joint-ring-finger-right-dorsal" fill="#FFFFFF" fill-rule="nonzero"></path>
                    <path d="M3.31608925,112.336829 L3.56423813,112.302786 C10.6272751,111.33902 18.4720572,111.079564 27.111206,111.526137 C37.7418743,112.100411 47.0694773,113.619632 55.1298315,116.084664 L54.8766553,120.861459 C53.9476785,138.584147 53.0163748,158.45285 52.2470434,175.863306 C45.2583115,174.166328 37.4672959,173.0894 28.8577679,172.624311 C19.6415835,172.147908 11.2896963,172.461685 3.78689791,173.570216 L3.74161068,170.29727 C3.73254439,169.581918 3.72415255,168.875004 3.71645406,168.177444 L3.71645406,166.658765 L3.59278762,154.362144 C3.53074483,147.474151 3.47525174,140.143828 3.42769785,132.780822 L3.34809956,119.021706 C3.33656252,116.767643 3.32587846,114.535236 3.31608925,112.336829 Z" id="bp-middle-phalanx-ring-finger-right-dorsal" fill="#FFFFFF" fill-rule="nonzero"></path>
                    <path d="M3.22077318,75.2104964 L3.28535919,75.2011037 C10.5428309,74.150815 18.6384004,73.8559774 27.5860902,74.3184995 C39.0281796,74.9366062 48.9606906,76.6494193 57.4282827,79.4580131 L57.2445842,81.7412567 C56.647591,89.4261648 55.9651396,100.676294 55.2680034,113.514475 C47.1370691,111.091842 37.806158,109.600239 27.2431616,109.029624 C18.4880816,108.577056 10.5129772,108.837578 3.30481051,109.815111 L3.24955098,91.9326547 L3.24164099,84.5879058 L3.24088981,81.3037464 L3.23425377,78.2294363 C3.23088556,77.2138761 3.2263766,76.2075443 3.22077318,75.2104964 Z" id="bp-proximal-interphalangeal-joint-ring-finger-right-dorsal" fill="#FFFFFF" fill-rule="nonzero"></path>
                    <path d="M0.335545901,1.50745895 C11.1720294,-0.882354908 27.757487,-0.564148586 38.0113867,3.42507328 C47.7552199,7.21585667 60.1087846,19.8368339 67.0585172,30.5377691 C66.6978671,31.2796428 66.3927625,32.0287519 66.1162407,32.7302528 L65.5463796,34.2489319 C62.2221901,42.6965843 59.847769,57.2189531 57.7582784,75.822772 L57.6541574,76.8961467 C49.0843636,74.1266109 39.1188456,72.4378601 27.7180458,71.821986 C18.7292149,71.3573355 10.5625645,71.64436 3.20398441,72.6873033 L3.18406269,70.3405015 C2.82608904,32.3054583 0.890636718,8.80007802 0.202310828,3.21092795 L0.202310828,3.02109306 C0.139857806,2.52178137 0.07291312,2.04234888 0,1.58253207 L0.335545901,1.50745895 Z" id="bp-proximal-phalanx-ring-finger-right-dorsal" fill="#FFFFFF" fill-rule="nonzero"></path>
                </g>
                <g id="bp-little-finger-right-dorsal" stroke-width="1" fill="none" fill-rule="evenodd" transform="translate(0, 388.1184)">
                    <path d="M6.08840496,165.918635 C11.9868351,166.502915 18.2902111,167.633555 25.0023798,169.310548 C32.9252476,171.301085 39.9818582,173.677471 46.1885488,176.449365 L43.2730132,185.596249 C42.3997447,188.316688 41.6382524,190.668715 41.028134,192.532655 L40.1001572,195.340132 L39.6973572,196.523752 C39.6797147,196.574419 39.6628834,196.622504 39.6468744,196.667975 L39.6468744,196.952728 C35.6578469,208.152986 29.3893752,218.498987 24.640533,221.251593 C15.6177328,226.56697 3.46069673,221.061758 0.611391407,210.525922 C-1.13287898,203.988999 0.970673189,189.229763 5.44983755,168.796059 L6.08840496,165.918635 Z M10.5878629,185.952377 C7.29612874,186.219176 4.63483276,188.71402 4.14168404,191.995384 L2.63797167,202.000941 C1.43286762,210.019587 6.62513069,217.441921 14.4234845,219.632617 C21.4085797,221.594853 28.0817231,214.825204 31.0590542,209.125607 L31.1861643,208.878502 C33.1268859,205.046072 34.5048961,202.104736 35.320195,200.054495 C36.2439331,197.007717 35.0597412,193.691548 32.4091127,191.902398 C28.6204049,189.345055 24.987305,187.62181 21.509813,186.732663 C18.2124632,185.889577 14.5718132,185.629481 10.5878629,185.952377 Z" id="bp-distal-phalanx-little-finger-right-dorsal" fill="#FFFFFF" fill-rule="nonzero"></path>
                    <path d="M10.7913924,188.284206 C14.4747634,187.985672 17.8424042,188.214982 20.8920893,188.994744 C24.1241334,189.821133 27.4926605,191.438998 31.0120123,193.814529 C31.8845025,194.403452 32.5152487,195.243935 32.8522207,196.18758 C33.1776276,197.098839 33.229221,198.107128 32.9557423,199.078246 C32.1541709,201.075804 30.8194878,203.911915 28.9573738,207.588663 C27.4108937,210.541194 24.8998053,213.736065 21.8831681,215.671391 C19.8223804,216.993492 17.4989027,217.739345 15.1011761,217.065781 C11.7610575,216.127482 8.97924144,214.063868 7.17771957,211.368708 C5.43059071,208.754922 4.61084173,205.545663 5.11177694,202.212488 L6.61548931,192.206931 C6.77572756,191.140721 7.28654675,190.201147 8.02668168,189.507303 C8.76333535,188.816723 9.72652454,188.370515 10.7913924,188.284206 Z" id="bp-nail-of-little-finger-right" fill="#FFFFFF" fill-rule="nonzero"></path>
                    <path d="M12.2202287,140.321026 C17.7735285,140.934507 23.6794698,142.023473 29.9411757,143.58792 C39.0320479,145.871906 46.9824257,148.663892 53.8169893,151.978469 L52.2221111,157.158978 L50.1802157,163.73853 C49.0681513,167.306562 47.9785662,170.778287 46.9454042,174.051323 C40.6619054,171.265102 33.5545839,168.881505 25.6099544,166.885501 C18.9017435,165.209497 12.5810035,164.06734 6.64331187,163.461845 L7.25058881,160.818633 C8.5903069,155.033286 10.084289,148.870876 11.7048461,142.379494 L12.2202287,140.321026 Z" id="bp-distal-interphalangeal-joint-little-finger-right-dorsal" fill="#FFFFFF" fill-rule="nonzero"></path>
                    <path d="M23.8173316,95.1748693 C29.5331243,95.7759041 35.6256012,96.8849943 42.0982118,98.5021349 C51.6645635,100.90558 59.9679984,103.871554 67.0372754,107.417061 L66.2739511,109.952758 C64.736855,115.075878 63.1370305,120.510296 61.4737113,126.272928 L60.0350035,131.256211 C58.3980851,136.874582 56.5108766,143.160044 54.5569593,149.558883 C47.6362363,146.239079 39.6408115,143.447158 30.5487503,141.162874 C24.3107228,139.604342 18.4077534,138.507445 12.836286,137.874445 L13.6952487,134.487017 C15.2884018,128.227611 16.9813488,121.700377 18.7519686,114.944057 L20.6495163,107.583899 C21.2311286,105.320303 21.8311003,102.9773 22.4460149,100.567036 L23.8173316,95.1748693 Z" id="bp-middle-phalanx-little-finger-right-dorsal" fill="#FFFFFF" fill-rule="nonzero"></path>
                    <path d="M30.8781101,66.9388082 C36.721648,67.5284374 42.9614975,68.6527212 49.6013825,70.3116542 C59.7041228,72.8498615 68.3983517,76.0154488 75.7179415,79.8284428 L74.397945,83.8642357 C72.3452079,90.1869968 70.1373078,97.2057195 67.7721844,104.988355 C60.6125384,101.441727 52.2653132,98.4788184 42.7057864,96.0770884 C36.2601752,94.466693 30.1722927,93.3491675 24.4382159,92.7270074 L26.2274164,85.6342636 C27.5867664,80.2259368 28.9809585,74.6336253 30.3801634,68.9636124 L30.8781101,66.9388082 Z" id="bp-proximal-interphalangeal-joint-little-finger-right-dorsal" fill="#FFFFFF" fill-rule="nonzero"></path>
                    <path d="M46.2827701,0.211408774 L46.5510006,0.192800131 C68.3482689,-1.32853913 81.3796537,6.21100292 90.0807973,20.7732879 C91.5072251,23.1605657 92.7880628,25.679898 94.0862434,28.57336 L94.5503805,29.6235025 C94.7013037,29.9718537 94.8859179,30.4046265 95.0891951,30.8848815 C94.0451926,32.3062782 93.1962042,34.0091946 92.3590229,35.782909 L92.1690692,36.0676613 L91.4405722,37.6503884 C88.3401965,44.4951949 83.3952724,56.7478005 76.5143487,77.4242043 C69.0837397,73.5982181 60.3251487,70.4281939 50.2089571,67.8866078 C43.5908526,66.233116 37.3498795,65.0992268 31.4817915,64.4876415 L32.4010383,60.7331032 C37.7063019,39.0115483 42.8772371,16.9046197 46.2827701,0.211408774 Z" id="bp-proximal-phalanx-little-finger-right-dorsal" fill="#FFFFFF" fill-rule="nonzero"></path>
                </g>
                <path d="M300.928173,135.731944 L303.25838,137.150823 C340.736232,160.100908 368.759402,183.533255 379.52644,196.186148 L380.896699,197.823578 C382.259834,199.430352 384.700313,202.256038 387.86642,205.88978 C374.494234,214.031464 360.547265,226.607632 348.744007,241.7405 C341.284048,251.304856 334.987064,264.125429 330.001763,278.122197 C329.169404,275.720931 328.04607,273.409098 326.638608,271.176746 C322.450755,264.534461 316.379112,259.1371 306.293316,252.256718 L304.816055,251.25796 L291.64477,242.586097 C291.311508,242.36428 291.023776,242.171735 290.791926,242.015134 L289.514009,241.145582 C271.391307,228.720632 261.58985,217.904784 256.870631,202.044723 C250.382693,180.240458 255.955018,158.395031 270.305632,140.142609 C274.652345,134.614062 279.633505,129.742787 284.674175,125.81355 L287.71377,127.6884 C291.836277,130.223947 296.238321,132.903011 300.928173,135.731944 Z" id="bp-metacarpophalangeal-joint-thumb-right-dorsal" fill="#FFFFFF" fill-rule="nonzero"></path>
                <path d="M307.632755,364.292779 C314.06318,363.785013 320.192153,363.924802 329.058525,364.611931 C332.611865,377.095116 336.777141,389.917203 341.038928,402.052038 C328.40601,402.532039 314.953616,405.349359 303.225016,410.605384 C291.358394,415.923262 280.506746,423.450135 271.49036,431.971742 L262.037993,385.39336 C271.293083,376.047654 280.467874,370.439381 295.415446,366.336343 C299.160465,365.308353 303.223708,364.64093 307.632755,364.292779 Z" id="bp-metacarpophalangeal-joint-index-finger-right-dorsal" fill="#FFFFFF" fill-rule="nonzero"></path>
                <path d="M216.677568,380.517617 C227.657922,380.017452 240.281422,382.846955 250.244692,387.61507 L260.045488,435.902149 C248.933505,433.548572 236.797157,432.731666 225.040277,433.727589 C213.106739,434.738476 200.657613,438.51865 191.511078,444.027889 L186.477001,390.498169 C194.433189,385.241913 206.44686,380.983635 216.677568,380.517617 Z" id="bp-metacarpophalangeal-joint-middle-finger-right-dorsal" fill="#FFFFFF" fill-rule="nonzero"></path>
                <path d="M113.501112,374.550126 C124.213822,370.351686 131.459275,369.251954 143.1752,371.287656 C156.479583,373.59936 166.827282,380.21132 174.333609,389.537255 L178.864371,437.707371 C177.66479,436.270197 176.419948,434.846737 175.151729,433.47032 C167.674788,425.355486 159.893333,419.263147 152.314305,416.314569 C140.64396,411.774287 123.139364,411.179821 110.395392,413.644413 L112.212117,389.676494 C112.547458,385.169854 112.919012,380.152175 113.327056,374.620284 L113.501112,374.550126 Z" id="bp-metacarpophalangeal-joint-ring-finger-right-dorsal" fill="#FFFFFF" fill-rule="nonzero"></path>
                <path d="M50.7829568,350.81842 C61.8982085,348.004914 72.436842,349.378763 81.9719993,354.184575 C90.8256248,358.64689 98.2131743,366.001045 101.452822,372.477321 L99.0696649,404.448495 L98.6651338,403.762434 C88.4226389,386.620535 72.5951843,377.165226 48.2488195,378.202882 C48.8167395,375.080716 49.2794387,372.290185 49.619443,369.893276 C50.1423479,366.078458 50.3453742,359.424896 50.3336024,350.938148 L50.7829568,350.81842 Z" id="bp-metacarpophalangeal-joint-little-finger-right-dorsal" fill="#FFFFFF" fill-rule="nonzero"></path>
                <path d="M239.383178,93.588599 L239.634241,93.8990127 C243.803253,98.9349062 255.279696,107.30436 275.703951,120.20957 C270.989408,124.19631 266.470921,128.840613 262.444421,133.961884 C246.208998,154.611578 239.799815,179.737776 247.285939,204.896683 C250.367377,215.252593 255.66063,224.136325 263.064893,232.121971 C268.800329,238.307753 275.381046,243.622038 284.370768,249.743193 L285.894884,250.771367 L299.48181,259.720973 L300.588403,260.470309 C309.655876,266.652309 314.895058,271.300591 318.17954,276.510052 C321.4951,281.768808 322.586687,287.547378 321.194742,294.688168 C316.163122,305.19413 319.510376,328.385342 326.269876,354.384841 C318.735389,353.888589 312.978327,353.839549 306.845575,354.323809 C301.838482,354.719184 297.15917,355.487801 292.768406,356.693046 C275.836185,361.340861 265.164666,367.950911 254.653347,378.640037 C243.219897,373.147985 228.928372,369.949213 216.222531,370.527976 C204.461449,371.063704 191.110886,375.668384 181.662287,381.704634 C181.344245,381.621554 181.01635,381.565479 180.681628,381.53725 C171.855722,371.321642 159.90812,364.045254 144.887101,361.435275 C131.112208,359.041818 122.136405,360.425848 109.836899,365.245758 L109.045714,365.559344 C104.41547,357.867002 96.1688942,350.14162 86.4727581,345.254672 C75.3657296,339.656621 63.0391042,337.87778 50.2357178,340.674855 L50.170083,337.0477 C49.3820946,297.29104 46.0552014,236.705351 46.6751608,217.360945 L46.7567975,214.978526 C47.4647418,195.43288 49.5763606,159.940976 48.7729277,131.191917 C98.164192,131.164002 141.825648,125.259504 179.797368,113.455077 C200.079367,107.188613 219.748408,100.312102 238.815829,92.8241632 L239.197159,93.3440546 C239.259685,93.4273164 239.321693,93.5088491 239.383178,93.588599 Z" id="bp-dorsum-of-hand-right" fill="#FFFFFF" fill-rule="nonzero"></path>
                <path d="M210.225287,0 C211.076279,5.50141501 212.269796,12.0595269 213.58692,18.7617068 L213.870973,20.1997608 C214.156758,21.6393546 214.447501,23.0825706 214.741048,24.5204286 L215.251094,27.0000153 L216.244855,31.7300328 C218.8721,44.0668929 221.433456,54.7940189 222.435876,57.6871572 L222.477299,57.8047229 C225.813408,67.2612211 229.963014,76.8725743 233.689126,84.0921729 C215.312699,91.2662417 196.365813,97.8695581 176.837076,103.903292 C139.765961,115.427738 96.9511779,121.197374 48.3523126,121.193376 L48.24441,119.445419 C47.7550897,111.932097 46.9805453,105.227111 45.8203692,99.8531503 L45.7321175,99.482443 C44.1535636,93.049354 35.9180835,68.2076747 30.0542131,43.0925192 L31.7991786,42.5859646 C62.2472603,33.8589503 186.769805,3.2556683 210.225287,0 Z" id="bp-wrist-right-dorsal" fill="#FFFFFF" fill-rule="nonzero"></path>
            </g>
        </g>
        <g id="decoration" opacity="0.15" mask="url(#mask-2)" fill="#FFFFFF">
            <g transform="translate(273.0567, -2.5578) scale(-1, 1) translate(-273.0567, 2.5578)translate(50, -399)" id="bp-forearm-right-back">
                <path d="M130.0297,21.7810526 L138.049894,0 L149.463878,2.10035348 C207.706164,12.9826992 254.630719,24.3369898 290.084218,36.1117753 C328.519875,48.8769928 380.53944,71.1812343 446.113448,103.017764 C444.909421,112.511592 443.727601,121.220729 442.435411,129.785019 L441.353154,136.757509 L440.205055,143.742679 L438.985714,150.753775 C435.048975,172.780929 429.696227,197.176317 420.711182,234.102133 L419.734498,238.106882 C411.532099,271.644298 385.214747,342.672616 357.109868,413.854913 L351.341389,428.405242 L340.022073,456.633166 C310.685498,529.267659 197.697478,730.162733 186.68513,771.947622 L184.441059,780.387925 C183.378556,784.316755 182.229243,788.482326 180.993275,792.884479 C139.119008,781.761788 108.431162,773.794157 88.9297372,768.981586 C70.5081222,764.435491 30.0188447,755.827961 0,749.095172 L1.75761882,741.199809 C3.93426516,731.202421 6.23089443,719.856295 8.82001463,706.341179 L10.2623062,698.749261 C16.1950885,667.273263 23.335689,611.618487 30.0188447,554.530971 L31.9602819,537.802641 L37.2928324,490.576337 C43.1777359,437.592166 48.0531407,391.251733 50.4249856,371.962612 L50.8107115,368.960748 C57.7623761,316.829152 96.3529529,114.602277 124.920278,35.8103851 L130.0297,21.7810526 Z"></path>
            </g>
        </g>
        <g id="viewport-boundary" mask="url(#mask-2)" stroke="#FF0000" stroke-width="3">
            <g transform="translate(260, 190)" id="boundary">
                <rect x="0" y="0" width="560" height="1080"></rect>
            </g>
        </g>
    </g>
</svg>