<?xml version="1.0" encoding="UTF-8"?>
<svg width="1080px" height="1460px" viewBox="0 0 1080 1460" version="1.1" xmlns="http://www.w3.org/2000/svg" xmlns:xlink="http://www.w3.org/1999/xlink">
    <title>index-finger-right-palmar</title>
    <defs>
        <rect id="path-1" x="0" y="0" width="1080" height="1460"></rect>
    </defs>
    <g id="index-finger-right-palmar" stroke="none" stroke-width="1" fill="none" fill-rule="evenodd">
        <mask id="mask-2" fill="white">
            <use xlink:href="#path-1"></use>
        </mask>
        <g id="mask"></g>
        <g id="bp-index-finger-right-palmar" mask="url(#mask-2)" fill="#FFFFFF" fill-rule="nonzero">
            <g transform="translate(539.6571, 731.7287) scale(-1, 1) translate(-539.6571, -731.7287)translate(343.0215, 410.9629)">
                <path d="M358.461171,466.971573 L365.542422,485.651674 L369.66604,496.616507 C379.371204,522.512425 386.217505,541.476293 387.776044,547.333551 C401.545428,598.113106 389.437867,628.960498 351.453359,639.163867 C312.994045,649.604523 290.20334,627.299485 247.708173,536.41832 L241.227012,523.263358 L238.233059,517.135565 C253.845733,506.093277 272.442299,495.968461 294.044411,486.792057 C317.182026,476.997396 338.674315,470.394772 358.461171,466.971573 Z" id="bp-distal-phalanx-index-finger-right-palmar"></path>
                <path d="M327.388361,386.216641 L335.767337,407.835241 L340.73616,420.705676 C345.340245,432.648498 349.837084,444.36218 354.113332,455.558583 C334.003822,459.250572 312.406052,465.988247 289.359552,475.74434 C267.739345,484.928427 248.9248,495.085029 232.910526,506.210571 L200.427939,439.370335 C216.715478,427.377723 236.437335,416.437166 259.620911,406.588969 C283.626435,396.426903 305.860883,389.700837 326.257128,386.396685 L327.388361,386.216641 Z" id="bp-distal-interphalangeal-joint-index-finger-right-palmar"></path>
                <path d="M263.941202,227.807566 L272.635506,247.639265 L274.059925,251.19858 L278.194303,261.371639 L282.280116,271.528651 C292.871715,297.954911 307.717116,335.652651 322.945647,374.782143 C301.917453,378.325929 279.231774,385.256337 254.936052,395.541253 C231.770549,405.381769 211.826106,416.338789 195.096096,428.407915 L183.10727,403.797923 L176.249818,389.77456 L174.113189,385.503383 L151.451407,339.02968 L125.952254,286.814294 C143.452878,272.752067 165.44223,260.057884 191.960929,248.792954 C217.637123,237.923657 241.287146,230.98526 262.828856,227.960527 L263.941202,227.807566 Z" id="bp-middle-phalanx-index-finger-right-palmar"></path>
                <path d="M224.427162,137.28902 L230.911889,152.283284 C241.29478,176.224704 251.033651,198.420489 258.934041,216.403294 C236.887392,219.736139 212.982986,226.862931 187.276069,237.745237 C160.851327,248.970252 138.617771,261.64804 120.565563,275.772077 L109.06472,252.147731 L106.215882,246.21554 L104.413005,242.517773 C96.624173,226.580764 89.1423714,211.769453 81.9584239,198.056328 C99.7329534,183.431475 122.29974,170.264536 149.703115,158.623802 C176.920444,147.102109 201.861071,139.997358 224.427162,137.28902 Z" id="bp-proximal-interphalangeal-joint-index-finger-right-palmar"></path>
                <path d="M168.290137,0 L168.609676,0.00489476276 L170.724594,5.7528835 L171.887849,8.89138142 C180.992774,33.3935219 189.916249,55.9280938 197.853506,74.8938655 C199.577053,79.0084331 201.316839,83.1452109 203.067478,87.2930766 L206.581634,95.6002966 L211.886199,108.073314 C214.421797,114.017734 216.961246,119.946899 219.488766,125.828216 C196.666512,128.965562 171.822202,136.229383 145.018256,147.576086 C117.570916,159.235492 94.6454237,172.462287 76.2307544,187.24916 L75.0358644,185.012867 L73.6000501,182.350131 C58.329101,154.111779 44.4780515,131.12388 31.9501058,113.093362 L21.6333286,98.2952948 L19.5721661,95.3596934 C12.1356603,84.8112754 5.99618024,76.639652 0,71.0693331 C21.1614171,50.4219586 47.0994376,32.0727001 75.4107139,19.3835953 C104.017394,6.5620908 137.66576,0.157468066 168.290137,0 Z" id="bp-proximal-phalanx-index-finger-right-palmar"></path>
            </g>
        </g>
        <g id="decoration" opacity="0.15" mask="url(#mask-2)">
            <g transform="translate(781.5211, 286.0228) scale(-1, 1) translate(-781.5211, -286.0228)translate(134, -618.9545)">
                <g id="bp-middle-finger-right-palmar" stroke-width="1" fill="none" fill-rule="evenodd" transform="translate(483.4231, 1108.2505)">
                    <path d="M147.309265,527.159348 C170.194798,524.797318 190.963461,524.543557 209.605779,526.397495 L220.3437,618.254376 L220.3437,620.86454 C222.955135,646.017029 212.034589,697.271159 170.96384,701.542337 L170.726437,701.305049 C130.605301,705.338939 114.461885,677.813573 106.390177,662.389876 L105.915371,661.440726 C101.472034,653.096701 97.5632639,634.295528 94.4489357,614.907642 L93.9638396,611.84296 L93.386875,608.081127 C91.4978436,595.556613 89.9529872,583.270065 88.8223425,573.881588 L88.1101329,567.237534 L86.9609627,557.711653 C86.2662964,551.985667 85.5299688,545.970122 84.7566686,539.699545 C102.94672,533.779585 123.761516,529.60821 147.309265,527.159348 Z" id="bp-distal-phalanx-middle-finger-right-palmar" fill="#FFFFFF" fill-rule="nonzero"></path>
                    <path d="M133.120362,435.085497 C157.312111,432.063007 179.166872,431.531304 198.740879,433.471569 L208.862054,520.050876 C190.125763,518.293154 169.390593,518.597288 146.665388,520.94277 C123.199644,523.383104 102.335922,527.516413 83.9751798,533.384903 L79.2997811,496.038376 C77.366254,480.733208 75.3111222,464.611222 73.1796445,448.004761 C90.7537083,442.126046 110.734425,437.817333 133.120362,435.085497 Z" id="bp-distal-interphalangeal-joint-middle-finger-right-palmar" fill="#FFFFFF" fill-rule="nonzero"></path>
                    <path d="M124.099042,292.950202 C145.162556,290.31855 164.454397,289.575167 182.011684,290.70763 L197.999363,427.124176 C178.283186,425.288561 156.418121,425.876287 132.354623,428.88276 C110.075973,431.601497 90.0792288,435.867381 72.3671889,441.687646 L67.259742,402.13801 L62.6926057,367.048965 C60.1442633,347.533504 57.5889735,328.065678 55.0910632,309.119199 C74.7672415,301.557773 97.7694946,296.163291 124.099042,292.950202 Z" id="bp-middle-phalanx-middle-finger-right-palmar" fill="#FFFFFF" fill-rule="nonzero"></path>
                    <path d="M107.243416,197.085996 C130.55317,194.173702 151.693236,193.573884 170.713919,195.26971 L172.673879,212.494163 C174.315234,226.717123 176.173403,242.367922 178.274974,259.68789 L180.934773,281.543219 L181.270453,284.399943 C163.607914,283.344183 144.305549,284.127211 123.333303,286.747466 C97.1522965,289.94242 74.1226113,295.27399 54.2487888,302.753916 L47.0601659,248.506861 C45.3431458,235.612206 43.698359,223.306538 42.153102,211.789337 C60.9462164,204.994659 82.6424404,200.088142 107.243416,197.085996 Z" id="bp-proximal-interphalangeal-joint-middle-finger-right-palmar" fill="#FFFFFF" fill-rule="nonzero"></path>
                    <path d="M81.1951608,0.951371364 C108.796845,-1.38708478 137.403759,0.650677866 163.308769,6.34511555 C161.134038,15.9622843 160.803227,28.9878442 160.761052,46.1129885 L160.755504,62.7640171 L160.821916,69.3324998 C161.228775,97.3497508 163.307324,128.34557 170.007438,188.931522 C150.84732,187.333952 129.684876,187.983772 106.477677,190.88326 C81.9958582,193.870857 60.2695831,198.72673 41.3025654,205.46048 L34.4571069,154.942667 C32.7579353,142.555637 31.4539735,133.223667 30.6585652,127.78083 L30.1278293,124.26724 C23.3366653,80.5749976 10.7567797,45.5221427 3.35720031,30.730186 L2.1984306,28.4399196 C1.44150351,26.9637245 0.713396757,25.5882514 0,24.3100409 C18.7940465,12.3805752 49.8724956,3.60507459 81.1951608,0.951371364 Z" id="bp-proximal-phalanx-middle-finger-right-palmar" fill="#FFFFFF" fill-rule="nonzero"></path>
                </g>
                <g id="bp-ring-finger-right-palmar" stroke-width="1" fill="none" fill-rule="evenodd" transform="translate(276.5342, 1055.1227)">
                    <path d="M13.2956469,522.667953 C30.4544472,520.465927 49.4312556,519.901255 70.2543597,520.977788 C91.177216,522.108207 110.080692,524.703231 127.008491,528.763911 L126.442803,544.195961 L126.442803,546.568838 L126.049812,557.763535 C123.544704,625.898841 120.578945,642.444908 108.400162,660.704191 C86.7964736,693.449885 38.3662264,691.077009 23.4098265,657.382164 C21.0908113,652.219599 18.3505675,638.589781 16.2073718,624.344166 L15.6846007,620.774476 C13.304082,604.067119 11.8552037,587.412348 12.9640869,583.348422 L12.973766,583.1775 C13.0326196,580.776512 12.29819,555.503947 11.4671347,522.91092 L13.2956469,522.667953 Z" id="bp-distal-phalanx-ring-finger-right-palmar" fill="#FFFFFF" fill-rule="nonzero"></path>
                    <path d="M11.174317,440.370858 C29.3150209,437.745202 49.5506257,437.008127 71.9161819,438.164403 C93.5672934,439.334168 113.056002,442.072268 130.430736,446.379869 L128.633888,488.298715 C128.098396,501.131215 127.632115,512.661006 127.252304,522.401308 C110.247572,518.409678 91.3702421,515.859685 70.5841946,514.736662 C48.9261114,513.616957 29.1775824,514.243296 11.3070179,516.625182 L10.8180734,496.555187 C10.7209926,492.443437 10.6249769,488.286687 10.5311792,484.109511 L10.2933012,473.232127 L10.1571382,466.701301 C9.97650394,457.861014 9.8125387,449.081017 9.67558002,440.59207 L11.174317,440.370858 Z" id="bp-distal-interphalangeal-joint-ring-finger-right-palmar" fill="#FFFFFF" fill-rule="nonzero"></path>
                    <path d="M9.02256191,281.123259 C26.6772586,278.713904 46.2859978,278.065282 67.880328,279.181686 C94.4526404,280.617333 117.767824,284.415292 137.915405,290.577717 L137.282568,302.519402 C134.960507,346.825009 132.63263,396.495517 130.709616,440.02056 C113.240652,435.778224 93.766307,433.085969 72.2460168,431.923276 C49.2083139,430.732246 28.3311909,431.516792 9.5766283,434.288348 L9.43318141,423.439727 C9.42271803,422.556298 9.41266199,421.67842 9.40303933,420.80639 L9.40303933,417.009788 L9.09392392,386.269009 C8.93884237,369.049459 8.8001324,350.724112 8.68126719,332.31706 L8.48230704,297.920714 C8.45347001,292.285889 8.42676493,286.705196 8.40229646,281.209492 L9.02256191,281.123259 Z" id="bp-middle-phalanx-ring-finger-right-palmar" fill="#FFFFFF" fill-rule="nonzero"></path>
                    <path d="M8.16403969,188.394752 L8.32547889,188.371387 C26.4661828,185.745732 46.7017876,185.008656 69.0673438,186.164932 C97.6678765,187.71016 122.495082,191.992085 143.660591,199.013393 L143.20142,204.721358 C141.709181,223.933145 140.003333,252.057761 138.260778,284.152406 C117.936776,278.095976 94.6133234,274.367063 68.2101628,272.94056 C46.3260523,271.809169 26.3915608,272.460457 8.37409921,274.904227 L8.24896659,236.582685 C8.22732344,226.953421 8.21602346,218.038532 8.21602346,210.094968 L8.21432366,203.62761 L8.19773608,195.941969 C8.18931684,193.403113 8.17804613,190.887328 8.16403969,188.394752 Z" id="bp-proximal-interphalangeal-joint-ring-finger-right-palmar" fill="#FFFFFF" fill-rule="nonzero"></path>
                    <path d="M0.611501138,3.4979812 C27.4302936,-2.29748174 69.1766871,-1.16113031 95.1263109,8.93582633 C120.160025,18.676404 152.744245,49.2875151 169.485473,73.4763041 C167.755554,76.3191997 166.475927,79.4085126 165.376924,82.1969317 L163.952505,85.9935339 C155.643394,107.112134 149.708314,143.417142 144.485445,189.925519 L144.225185,192.608888 C122.804214,185.685223 97.8945042,181.463452 69.3971787,179.923806 C46.9277664,178.762156 26.5136549,179.479817 8.11956962,182.0874 L8.06991938,176.220504 C7.17746719,81.1346732 2.3396501,22.3729645 0.61912194,8.40047648 L0.61912194,7.92590121 C0.431170515,6.42302156 0.226944022,4.99218214 0,3.63223305 L0.611501138,3.4979812 Z" id="bp-proximal-phalanx-ring-finger-right-palmar" fill="#FFFFFF" fill-rule="nonzero"></path>
                </g>
                <g id="bp-thumb-right-palmar" stroke-width="1" fill="none" fill-rule="evenodd" transform="translate(833.0918, 521.8825)">
                    <path d="M361.12144,247.037461 L361.683803,246.521454 L363.41334,248.209529 C373.050355,257.503795 386.387879,268.580621 408.155778,285.84457 L410.767213,287.980159 L425.809739,299.941593 C461.896877,328.727026 463.050514,330.760747 461.571492,338.997001 L461.571492,339.471576 C453.499784,374.352859 416.464889,390.013843 365.185804,380.522337 C340.058006,375.601736 313.246473,365.455239 286.320866,352.130064 C294.895952,330.879364 308.323296,308.518727 326.576916,285.158644 C338.048616,270.473968 349.552004,257.779303 361.12144,247.037461 Z" id="bp-thumb-distal-phalanx-right-palmar" fill="#FFFFFF" fill-rule="nonzero"></path>
                    <path d="M300.933745,171.162235 C314.512937,185.437564 326.941826,201.208457 340.733277,221.065045 C344.375042,226.370797 347.727934,230.954719 351.463743,235.442398 L352.332956,236.476592 C353.903045,238.326866 355.547379,240.168918 357.313392,242.046922 C345.335926,253.11511 333.462852,266.192879 321.652955,281.310474 C303.200785,304.924652 289.538324,327.620755 280.719717,349.312112 C254.175543,335.756395 227.627572,319.250727 202.576812,301.75522 C210.811699,277.930776 225.331385,252.649141 246.09724,226.074022 C263.782778,203.435146 281.54363,185.526002 299.505693,172.210327 L300.933745,171.162235 Z" id="bp-interphalangeal-joint-thumb-right-palmar" fill="#FFFFFF" fill-rule="nonzero"></path>
                    <path d="M140.826987,1.15605433 L142.67288,0 L160.731095,20.5864148 C204.216046,69.9920882 265.935376,138.975131 281.85729,152.726206 C286.978873,157.288873 291.839375,161.890684 296.53675,166.632606 C277.828388,180.36982 259.425384,198.861726 241.173279,222.225853 C220.499439,248.683215 205.838118,273.988118 197.26547,298.018665 C192.481269,294.61926 187.75424,291.189856 183.09757,287.742871 L180.011329,285.369995 C99.1850578,226.016327 35.9041785,196.927875 0,197.777086 C12.8450583,153.247339 30.9760904,110.979689 52.9298956,82.8289748 C79.6974958,48.5056733 111.051043,19.9094021 140.826987,1.15605433 L140.826987,1.15605433 Z" id="bp-proximal-phalanx-thumb-right-palmar" fill="#FFFFFF" fill-rule="nonzero"></path>
                </g>
                <path d="M596.942187,232.052674 C597.425923,232.729281 597.898741,233.367501 598.359804,233.96561 C611.654382,250.813033 659.372419,283.321439 752.19706,339.321321 L758.021623,342.86843 C851.700887,400.242198 921.747324,458.821592 948.660504,490.453028 L952.467807,494.996591 C954.148646,496.973809 956.408948,499.60647 959.159374,502.790198 C927.26222,523.172429 894.36495,553.365143 866.312149,589.33642 C837.826602,625.862595 816.124924,681.385593 802.53227,737.367762 C783.097348,780.02187 816.39513,902.408034 852.457503,1005.1048 C820.880387,1006.30478 787.254917,1013.3479 757.938225,1026.48763 C722.74079,1042.26311 691.115702,1065.81456 666.488911,1092.06987 L665.240898,1093.41178 C633.567335,1084.76234 597.370465,1081.33812 562.508433,1084.29169 C525.651411,1087.41427 489.294317,1097.86578 466.28522,1113.96789 C446.73735,1085.8864 410.747493,1052.44259 380.723317,1040.76023 C348.354139,1028.16544 298.292336,1027.21238 266.432926,1035.50404 L264.699317,1031.63372 C262.093856,1025.89386 259.873306,1021.38718 257.463896,1017.04376 L256.654195,1015.60268 C255.017711,1012.72673 253.269319,1009.87054 251.23971,1006.71862 C224.528297,965.236498 183.260594,942.466771 120.610385,945.445718 L121.547876,940.186626 C122.541985,934.494139 123.375569,929.311833 124.028265,924.709922 C131.079139,873.26359 114.862128,615.298992 116.610252,545.447417 L116.765828,540.465334 C118.416927,492.313275 123.962856,401.355449 121.912324,327.97154 C245.370235,327.901754 354.505975,313.140879 449.419708,283.630556 C498.821449,268.364939 546.768317,251.651158 593.286538,233.48602 L596.942187,232.052674 Z" id="bp-palm-right" fill="#FFFFFF" fill-rule="nonzero"></path>
            </g>
        </g>
        <g id="viewport-boundary" mask="url(#mask-2)" stroke="#FF0000" stroke-width="3">
            <g transform="translate(260, 190)" id="boundary">
                <rect x="0" y="0" width="560" height="1080"></rect>
            </g>
        </g>
    </g>
</svg>