<?xml version="1.0" encoding="UTF-8"?>
<svg width="1080px" height="1460px" viewBox="0 0 1080 1460" version="1.1" xmlns="http://www.w3.org/2000/svg" xmlns:xlink="http://www.w3.org/1999/xlink">
    <title>index-finger-right-dorsal</title>
    <defs>
        <rect id="path-1" x="0" y="0" width="1080" height="1460"></rect>
    </defs>
    <g id="index-finger-right-dorsal" stroke="none" stroke-width="1" fill="none" fill-rule="evenodd">
        <mask id="mask-2" fill="white">
            <use xlink:href="#path-1"></use>
        </mask>
        <g id="mask"></g>
        <g id="bp-index-finger-right-dorsal" mask="url(#mask-2)" fill="#FFFFFF" fill-rule="nonzero">
            <g transform="translate(343.7054, 409.8372)">
                <path d="M358.397894,466.868672 L363.045959,479.119121 L371.897094,502.660816 L374.611112,509.959973 C381.66355,528.994153 386.498993,542.617332 387.777295,547.422156 C401.546723,598.2098 389.439122,629.062107 351.454492,639.267101 C312.995054,649.70942 290.204276,627.400829 247.708971,536.505186 L241.227679,523.347901 L237.888972,516.512518 C253.278854,505.761049 271.520947,495.886411 292.634055,486.917732 C316.297767,476.900363 338.240481,470.22184 358.397894,466.868672 Z M351.828325,534.411304 C339.921856,534.593295 329.068176,536.762148 319.267287,540.917862 C309.561223,545.03337 300.719803,551.168658 292.743026,559.323729 C287.659183,564.521196 286.18204,572.195126 288.992405,578.808619 L300.894678,606.81766 C309.853566,627.900175 334.45537,637.63887 355.844345,628.569644 L357.957293,627.673725 C375.140601,621.075725 389.422845,594.161684 380.463957,573.07917 L368.637988,545.249691 C365.803362,538.579117 359.165412,534.299156 351.828325,534.411304 Z" id="bp-distal-phalanx-index-finger-right-dorsal"></path>
                <path d="M351.988857,544.260892 C353.58068,544.23656 355.099388,544.681901 356.372322,545.502653 C357.60854,546.299731 358.611341,547.451679 359.209511,548.85932 L371.035481,576.688799 C374.227545,584.200529 373.214742,592.664865 370.198188,599.982139 C366.858223,608.083913 360.974186,615.207642 354.142661,617.758837 L351.847959,618.731822 C343.741289,622.169164 335.024251,622.053924 327.483852,619.069035 C320.012774,616.111587 313.697977,610.331273 310.330997,602.407924 L298.428724,574.398883 C297.836947,573.006284 297.700424,571.502027 297.975486,570.073047 C298.258249,568.604061 298.974187,567.215682 300.073087,566.092221 C307.053477,558.955809 314.77402,553.558635 323.271516,549.955577 C331.915249,546.290513 341.494156,544.421304 351.988857,544.260892 L351.988857,544.260892 Z" id="bp-nail-of-index-finger-right"></path>
                <path d="M327.335251,386.134846 L333.987532,403.296673 L338.907073,416.028491 C344.123266,429.546724 349.222369,442.822449 354.04235,455.443703 C333.552683,459.078275 311.507858,465.897113 287.949195,475.870016 C266.809775,484.849869 248.352619,494.759464 232.572691,505.595461 L200.077802,438.720377 C216.158705,427.031285 235.527734,416.350125 258.210555,406.714644 C283.195964,396.137772 306.262759,389.283133 327.335251,386.134846 Z" id="bp-distal-interphalangeal-joint-index-finger-right-dorsal"></path>
                <path d="M263.904462,227.753322 L272.636385,247.680128 L274.060808,251.240009 L279.264616,264.065663 L285.128205,278.692913 C293.752645,300.300467 304.659616,327.97812 316.128213,357.35043 L322.884042,374.683954 C301.477293,378.156523 278.341339,385.161918 253.525695,395.666928 C230.85034,405.299234 211.261181,416.001296 194.752003,427.76899 L181.070612,399.691528 L176.250386,389.838065 L174.11375,385.566207 L150.972108,338.102349 L125.584234,286.106376 C142.914222,272.376103 164.556432,259.960731 190.550572,248.918629 C216.773751,237.817781 240.883512,230.817099 262.79235,227.898221 L263.904462,227.753322 Z" id="bp-middle-phalanx-index-finger-right-dorsal"></path>
                <path d="M224.40426,137.253378 L228.644823,147.071685 C235.777188,163.549027 242.650901,179.298143 248.888337,193.539534 L258.887149,216.325763 C236.463401,219.569114 212.103414,226.763914 185.865713,237.870913 C159.95163,248.879004 138.068309,261.284261 120.20647,275.08053 L109.065071,252.189311 L106.216224,246.256175 L104.383197,242.496134 C96.4645162,226.292211 88.8632387,211.252211 81.5697198,197.347209 C99.185692,183.055148 121.412352,170.168058 148.292759,158.749477 C176.069106,146.991139 201.47427,139.833047 224.40426,137.253378 Z" id="bp-proximal-interphalangeal-joint-index-finger-right-dorsal"></path>
                <path d="M168.608914,0 L170.724091,5.75012152 L171.887473,8.88971765 C180.993358,33.4002538 189.916861,55.9384155 197.854144,74.9072085 C199.577697,79.0224316 201.317488,83.1598684 203.068133,87.3083949 L206.5823,95.6169382 L213.049885,110.817208 L217.313381,120.780257 L219.455993,125.767357 C196.256889,128.800075 170.952109,136.126353 143.607899,147.701761 C116.667768,159.145709 94.0839066,172.099653 75.845891,186.556679 L75.0361063,185.043753 L73.6002874,182.380592 C58.3292891,154.137742 44.4781949,131.14618 31.9502088,113.11279 L21.6333983,98.3123658 L19.5722292,95.3762967 C12.1356994,84.8261983 5.99619957,76.6532731 0,71.0820668 C21.1614854,50.4314031 47.0995895,32.0792215 75.410957,19.3880953 C104.116852,6.52011439 137.89945,0.11459092 168.608914,0 Z" id="bp-proximal-phalanx-index-finger-right-dorsal"></path>
            </g>
        </g>
        <g id="decoration" opacity="0.15" mask="url(#mask-2)">
            <g transform="translate(-349.0465, -620.2428)">
                <g id="bp-thumb-right-dorsal" stroke-width="1" fill="none" fill-rule="evenodd" transform="translate(842.9148, 533.9265)">
                    <path d="M351.8643,234.595639 L353.593703,236.284516 C363.23005,245.583008 376.567831,256.661812 398.336749,273.929264 L400.948193,276.065193 L415.990767,288.028532 C452.078021,316.818551 453.231662,318.852596 451.752635,327.090162 L451.752635,327.564813 C443.680901,362.451652 406.645887,378.115131 355.366636,368.622113 C330.238758,363.700728 303.427138,353.552615 276.501444,340.225318 C285.076559,318.971232 298.503946,296.607032 316.757624,273.243228 C328.415108,258.318405 340.105315,245.448885 351.8643,234.595639 Z M344.64588,332.812028 C364.772637,347.594664 400.260994,362.136707 424.729812,348.406823 C448.629589,334.996238 446.181761,318.789267 440.036645,313.42942 L439.591726,313.065205 L429.789404,305.526659 C406.905585,287.863785 395.758366,278.763074 386.711278,271.158987 L378.7904,264.456221 C360.470398,248.91483 324.519124,318.029393 344.64588,332.812028 Z" id="bp-distal-phalanx-thumb-right-dorsal" fill="#FFFFFF" fill-rule="nonzero"></path>
                    <path d="M372.537393,268.058956 C373.335524,267.989753 374.07728,268.250645 374.758355,268.828414 L382.695185,275.544634 C391.78496,283.1846 402.984001,292.329213 425.984492,310.082128 L435.609871,317.484596 C436.662841,318.454752 437.426076,319.966255 437.719797,321.731933 C438.036576,323.636224 437.785205,325.821722 436.812197,328.135536 C434.814764,332.885429 430.065676,337.847777 421.676504,342.555089 C412.203051,347.870811 400.849689,348.177025 389.649473,345.996 C374.245079,342.996292 359.014021,335.207245 348.348266,327.373496 C345.187329,325.051861 344.752491,320.523533 344.998912,315.732455 C345.400916,307.916439 348.382357,298.68259 352.547194,290.344771 C356.731187,281.968604 362.108879,274.421172 367.585203,270.379844 C369.270762,269.135962 370.912297,268.199863 372.537393,268.058956 Z" id="bp-nail-of-thumb-right" fill="#FFFFFF" fill-rule="nonzero"></path>
                    <path d="M330.914031,209.139419 C334.555807,214.446016 337.908711,219.030669 341.644531,223.519062 L342.513747,224.553421 C344.084018,226.404197 345.72855,228.246749 347.494795,230.125272 C335.516694,241.19459 323.643583,254.274442 311.833647,269.394445 C293.381418,293.012385 279.718913,315.712103 270.900277,337.406916 C244.356018,323.849039 217.807961,307.340743 192.757121,289.842449 C200.992034,266.014209 215.511767,240.728546 236.277689,214.149194 C254.431434,190.907349 272.664534,172.649742 291.11315,159.228978 C304.693606,173.506262 317.122536,189.279668 330.914031,209.139419 Z" id="bp-interphalangeal-joint-thumb-right-dorsal" fill="#FFFFFF" fill-rule="nonzero"></path>
                    <path d="M272.037854,140.789693 C277.159454,145.353088 282.019971,149.955632 286.717361,154.698308 C268.008939,168.437711 249.605876,186.932563 231.353712,210.300411 C210.679805,236.761989 196.018437,262.070923 187.445761,286.105298 C182.661545,282.705352 177.934501,279.275401 173.277816,275.827867 L170.191565,273.454613 C96.2867691,219.175166 37.0510181,190.20328 0,186.288514 C12.4535195,147.208078 28.9690308,110.949998 48.5146327,85.8833392 C77.365042,48.8835394 111.54282,18.5377111 143.330835,0 L159.94021,18.8703699 C202.51326,67.0975839 257.189729,127.964002 272.037854,140.789693 Z" id="bp-proximal-phalanx-thumb-right-dorsal" fill="#FFFFFF" fill-rule="nonzero"></path>
                </g>
                <g id="bp-middle-finger-right-dorsal" stroke-width="1" fill="none" fill-rule="evenodd" transform="translate(485.1065, 1108.427)">
                    <path d="M207.92466,526.481352 L218.662616,618.352866 L218.662616,620.963446 C221.274059,646.119943 210.353478,697.382237 169.282597,701.654095 L169.045193,701.41677 C128.923927,705.451302 112.78046,677.921551 104.708726,662.495398 L104.233918,661.546096 C99.7905665,653.200742 95.8817839,634.396574 92.7674456,615.0056 L92.2823479,611.94043 L91.7053814,608.177997 C89.816344,595.651488 88.2714826,583.362982 87.1408342,573.973009 L86.4286224,567.327897 L85.2795265,557.801142 C84.5849067,552.074642 83.8486306,546.058572 83.0753863,539.787461 C101.265257,533.864618 122.08012,529.692579 145.627946,527.243326 C168.513552,524.880921 189.282282,524.627119 207.92466,526.481352 Z M151.807378,597.523589 C140.794218,599.510185 130.191473,603.84253 119.999143,610.520624 C113.992243,614.456378 110.88062,621.524247 112.082492,628.502808 L117.559943,660.307122 C121.608415,683.814199 144.17396,699.391998 167.961498,695.10111 L170.311393,694.677227 C194.098931,690.386339 210.100606,667.851636 206.052134,644.344559 L200.608098,612.734264 C199.394983,605.6904 194.0239,600.105489 186.981828,598.565513 C174.641638,595.866933 162.916821,595.519625 151.807378,597.523589 Z" id="bp-distal-phalanx-middle-finger-right-dorsal" fill="#FFFFFF" fill-rule="nonzero"></path>
                    <path d="M152.920297,603.275151 C163.25983,601.410066 174.16997,601.761347 185.651129,604.272072 C187.930963,604.770631 189.943086,605.920015 191.481292,607.51946 C193.006556,609.105447 194.064133,611.13321 194.45374,613.395437 L199.897776,645.005732 C201.62973,655.062161 199.061762,664.90634 193.529585,672.697147 C187.972504,680.523026 179.424554,686.282352 169.206316,688.125558 L166.856422,688.549441 C156.664423,690.387913 146.730139,687.980875 138.911915,682.583676 C131.129547,677.21123 125.449469,668.875393 123.722144,658.845842 L118.244693,627.041528 C117.856011,624.784681 118.169162,622.514384 119.060449,620.48988 C119.963664,618.438285 121.459829,616.638499 123.427101,615.349532 C132.878874,609.156656 142.704523,605.117912 152.920297,603.275151 L152.920297,603.275151 Z" id="bp-nail-of-middle-finger-right" fill="#FFFFFF" fill-rule="nonzero"></path>
                    <path d="M131.438997,435.154808 C155.630824,432.131836 177.485655,431.600048 197.059726,433.540623 L207.180933,520.133723 C188.444581,518.37572 167.709344,518.679902 144.984066,521.025759 C121.517181,523.466592 100.652562,527.600824 82.2911541,533.470673 L78.4382906,502.623471 C76.2698424,485.403062 73.9337992,467.055869 71.4980589,448.07592 C89.0722063,442.196478 109.052987,437.887079 131.438997,435.154808 Z" id="bp-distal-interphalangeal-joint-middle-finger-right-dorsal" fill="#FFFFFF" fill-rule="nonzero"></path>
                    <path d="M122.417647,292.99687 C143.481229,290.364799 162.773133,289.621297 180.330476,290.753941 L196.318207,427.192219 C176.601966,425.356311 154.73683,425.944131 130.673255,428.951083 C108.394533,431.670253 88.3977246,435.936817 70.6856276,441.758009 L65.5780057,402.200851 L58.8972808,350.940461 L53.4098559,309.171551 C73.085688,301.605812 96.0880152,296.210471 122.417647,292.99687 Z" id="bp-middle-phalanx-middle-finger-right-dorsal" fill="#FFFFFF" fill-rule="nonzero"></path>
                    <path d="M105.561968,197.117393 C128.871797,194.204635 150.01193,193.604722 169.032675,195.300817 L170.992641,212.528014 C172.634001,226.75324 174.492177,242.406533 176.593754,259.729259 L179.253562,281.58807 L179.591997,284.445066 C161.926647,283.389321 142.624219,284.172473 121.651906,286.793146 C95.471911,289.988475 72.4429837,295.320582 52.5696647,302.801207 L42.4537451,226.624486 C41.777323,221.565769 41.1162157,216.62949 40.4723847,211.830093 C59.2646183,205.027316 80.9609122,200.120017 105.561968,197.117393 Z" id="bp-proximal-interphalangeal-joint-middle-finger-right-dorsal" fill="#FFFFFF" fill-rule="nonzero"></path>
                    <path d="M79.513628,0.951522921 C107.115401,-1.38730575 135.722407,0.650781522 161.627501,6.34612636 C159.287644,16.6949621 159.082353,30.9898247 159.074481,50.0917734 L159.074227,62.7740157 L159.14064,69.3435448 C159.547501,97.365259 161.626056,128.366016 168.326192,188.96162 C149.166012,187.363795 128.003499,188.013719 104.796226,190.913669 C80.3132533,193.901873 58.5860753,198.758815 39.6184061,205.494098 L32.9356063,156.138062 C31.1582634,143.165648 29.7971436,133.415053 28.9768694,127.801186 L28.4461318,124.287036 C21.6549459,80.5878336 9.07501977,45.5293945 1.6754165,30.7350815 L0.547774479,28.5051986 C0.363535265,28.1455349 0.181011386,27.7918298 0,27.4440335 C18.9171116,13.8626143 50.0466502,3.44839918 79.513628,0.951522921 Z" id="bp-proximal-phalanx-middle-finger-right-dorsal" fill="#FFFFFF" fill-rule="nonzero"></path>
                </g>
                <g id="bp-ring-finger-right-dorsal" stroke-width="1" fill="none" fill-rule="evenodd" transform="translate(276.6485, 1055.6642)">
                    <path d="M70.1411581,520.687364 C91.0640818,521.817963 109.967618,524.4134 126.895472,528.474727 L126.329783,543.909236 L126.329783,546.28249 L125.93679,557.478971 C123.431674,625.625131 120.465906,642.173834 108.287084,660.436026 C86.6833253,693.186937 38.2529219,690.813682 23.2964738,657.11347 C20.9774511,651.950082 18.2371985,638.318093 16.0939959,624.070208 L15.4295225,619.497513 L14.8866406,615.501063 C12.9264979,600.584375 11.8527025,586.72605 12.8507005,583.067933 L12.8629503,582.72728 L12.787694,577.985071 C12.5840983,568.759385 11.9979303,547.889093 11.3537053,522.619304 L13.1822616,522.377799 C30.3411172,520.175422 49.3179868,519.61066 70.1411581,520.687364 Z M36.2942237,587.386142 C28.5774863,590.062867 23.6103485,597.579321 24.1737485,605.727294 L26.2873237,636.294124 C27.7838361,657.936902 45.6735698,674.781965 67.3654255,674.973471 C88.9672264,675.164182 107.002168,658.528155 108.5553,636.978567 L110.67766,607.531009 C111.243157,599.684927 106.672933,592.374873 99.3728794,589.449045 C87.5026399,584.691508 76.5912367,582.226766 66.6386699,582.054821 C57.1291455,581.890531 47.0143301,583.667638 36.2942237,587.386142 Z" id="bp-distal-phalanx-ring-finger-right-dorsal" fill="#FFFFFF" fill-rule="nonzero"></path>
                    <path d="M65.0565952,587.896236 L66.5346788,587.904674 L66.5674604,587.905249 C75.8432619,588.070615 85.9987313,590.421055 97.0525961,594.851393 C99.440636,595.808509 101.38225,597.482652 102.680544,599.559269 C103.978819,601.635857 104.63375,604.114841 104.448763,606.681475 L102.326403,636.129034 C101.668412,645.258614 97.5189076,653.347225 91.2462379,659.133343 C84.9732116,664.91979 76.5766765,668.403622 67.4244976,668.322823 C58.2098509,668.241472 49.8026403,664.623154 43.5402472,658.726453 C37.2783112,652.830183 33.1610182,644.655933 32.5253462,635.462752 L30.4117711,604.895922 C30.2274206,602.229819 30.9480651,599.667102 32.3458561,597.551913 C33.7440592,595.4361 35.8198118,593.768012 38.3455042,592.891919 C48.3039832,589.437601 57.6970442,587.751991 66.5346788,587.904674 L65.0565952,587.896236 Z" id="bp-nail-of-ring-finger-right" fill="#FFFFFF" fill-rule="nonzero"></path>
                    <path d="M11.0609248,440.067593 C29.2016872,437.441519 49.4373573,436.704326 71.8029856,437.860786 C93.4541669,439.030738 112.942938,441.769274 130.317729,446.077561 L128.520875,488.003085 C127.985381,500.83763 127.519099,512.369257 127.139286,522.11111 C110.1345,518.118844 91.2571085,515.568446 70.470994,514.445244 C48.8128409,513.32536 29.0642483,513.9518 11.1936262,516.334065 L10.417785,483.813214 L10.1799062,472.934097 L10.0437427,466.40223 C9.86309682,457.559991 9.69912199,448.778059 9.56215777,440.287274 L11.0609248,440.067593 Z" id="bp-distal-interphalangeal-joint-ring-finger-right-dorsal" fill="#FFFFFF" fill-rule="nonzero"></path>
                    <path d="M8.28889035,280.879743 L8.90916282,280.794625 C26.5639164,278.384886 46.1727189,277.73616 67.7671187,278.852743 C94.3395167,280.288619 117.654776,284.087183 137.802421,290.250589 L137.169583,302.194177 C134.847514,346.506842 132.519629,396.185262 130.59661,439.717239 C113.127589,435.474227 93.6531812,432.781544 72.1328215,431.618666 C49.0960647,430.427499 28.2197032,431.212047 9.46572277,433.983746 L9.35252291,425.800283 C9.32986081,424.011664 9.3088846,422.244141 9.28964147,420.500008 L9.28964147,416.702801 L8.98052507,385.957125 C8.82544302,368.734832 8.6867326,350.406566 8.567867,331.996581 L8.36890325,297.594177 C8.34006529,291.958266 8.31335944,286.3765 8.28889035,280.879743 Z" id="bp-middle-phalanx-ring-finger-right-dorsal" fill="#FFFFFF" fill-rule="nonzero"></path>
                    <path d="M8.05063849,188.051462 L8.21207756,188.027978 C26.35284,185.401904 46.58851,184.664711 68.9541384,185.821171 C97.5547632,187.366645 122.382049,191.649252 143.547626,198.671679 L143.088453,204.380553 C141.59621,223.595401 139.890356,251.724497 138.147796,283.824255 C117.823728,277.766859 94.5002003,274.037353 68.0969546,272.610622 C46.2127735,271.479052 26.2782177,272.130444 8.26069803,274.574602 L8.12257142,229.862466 L8.10279961,211.498131 L8.10092197,203.286631 L8.08433453,195.599825 C8.07591537,193.060584 8.06464478,190.544417 8.05063849,188.051462 Z" id="bp-proximal-interphalangeal-joint-ring-finger-right-dorsal" fill="#FFFFFF" fill-rule="nonzero"></path>
                    <path d="M0.838729893,3.76915289 C27.9255834,-2.20618316 69.3825615,-1.41056065 95.0131895,8.56383178 C119.368856,18.0420615 150.247803,49.5987369 167.619341,76.3546635 C166.717861,78.2095964 165.955222,80.0826205 165.264029,81.8366079 L163.839605,85.6338149 C155.530467,106.755779 149.595369,143.066571 144.372482,189.582357 L144.112222,192.266153 C122.691181,185.341385 97.7813917,181.118942 69.2839743,179.57905 C46.8155098,178.417268 26.4021661,179.134926 8.00867331,181.742634 L7.95887702,175.874842 C7.06408676,80.7744791 2.22623384,22.0031461 0.505695758,8.02839664 L0.505695758,7.55374577 C0.349588304,6.30529908 0.182253495,5.1065571 0,3.95686086 L0.838729893,3.76915289 Z" id="bp-proximal-phalanx-ring-finger-right-dorsal" fill="#FFFFFF" fill-rule="nonzero"></path>
                </g>
                <path d="M752.199485,339.375377 L758.024067,342.92305 C851.703633,400.305958 921.750296,458.894684 948.663563,490.531159 L952.088661,494.625285 C955.49595,498.642759 961.596166,505.707921 969.510162,514.793494 C936.085072,535.150435 901.223255,566.595073 871.719854,604.432316 C853.072955,628.346414 837.333024,660.402145 824.871775,695.398758 C822.791213,689.394789 819.98333,683.614432 816.465241,678.032803 C805.997291,661.424863 790.820623,647.92965 765.610188,630.726387 L761.917629,628.229159 L728.994709,606.546591 C728.161688,605.991976 727.442474,605.510548 726.862941,605.118993 L723.668664,602.944823 C678.369193,571.87828 653.869488,544.835034 642.073338,505.179563 C625.856099,450.661588 639.784674,396.040694 675.65544,350.403518 C686.520475,336.580297 698.971375,324.400476 711.571023,314.576066 L719.16879,319.263819 C729.473399,325.603537 740.476742,332.302096 752.199485,339.375377 Z" id="bp-metacarpophalangeal-joint-thumb-right-dorsal" fill="#FFFFFF" fill-rule="nonzero"></path>
                <path d="M768.958246,910.854111 C785.031723,909.584527 800.351693,909.934046 822.514061,911.652098 C831.395981,942.864246 841.807498,974.923763 852.460251,1005.26492 C820.883034,1006.46509 787.257456,1013.50933 757.940669,1026.65116 C728.278885,1039.94763 701.154126,1058.76734 678.616784,1080.07422 L654.989667,963.61264 C678.123671,940.245241 701.056961,926.222678 738.419884,915.963706 C747.780927,913.393386 757.9374,911.724606 768.958246,910.854111 Z" id="bp-metacarpophalangeal-joint-index-finger-right-dorsal" fill="#FFFFFF" fill-rule="nonzero"></path>
                <path d="M541.606836,951.421649 C569.053307,950.171068 600.606982,957.245773 625.511154,969.167661 L650.009204,1089.90155 C622.233713,1084.01682 591.89772,1081.97428 562.510247,1084.46442 C532.681198,1086.99198 501.563385,1096.44368 478.700724,1110.21862 L466.117555,976.376374 C486.004827,963.233973 516.034177,952.58685 541.606836,951.421649 Z" id="bp-metacarpophalangeal-joint-middle-finger-right-dorsal" fill="#FFFFFF" fill-rule="nonzero"></path>
                <path d="M283.707163,936.500918 C310.484632,926.003411 328.595353,923.253712 357.880455,928.343648 C391.136067,934.123684 417.001156,950.655803 435.763955,973.973767 L447.089041,1094.41521 C444.090568,1090.82179 440.978965,1087.26267 437.808926,1083.82116 C419.11958,1063.53136 399.669068,1048.29847 380.724544,1040.92603 C351.553372,1029.5738 307.798919,1028.08744 275.944111,1034.24975 L280.485194,974.321912 C281.32341,963.0538 282.252146,950.507919 283.272093,936.676336 L283.707163,936.500918 Z" id="bp-metacarpophalangeal-joint-ring-finger-right-dorsal" fill="#FFFFFF" fill-rule="nonzero"></path>
                <path d="M598.361733,234.002882 L598.98929,234.77902 C609.410145,247.370443 638.096639,268.296885 689.149068,300.564236 C677.364606,310.532423 666.070204,322.144738 656.005572,334.949632 C615.423541,386.580793 599.403158,449.404715 618.115459,512.310419 C625.817817,538.203665 639.048821,560.415975 657.556503,580.382769 C671.892787,595.849299 688.341937,609.136793 710.812628,624.441733 L714.622306,627.012511 L748.584161,649.38953 L751.350197,651.263121 C774.015235,666.720192 787.111086,678.342456 795.320969,691.367857 C803.608538,704.51651 806.337066,718.964872 802.857762,736.819242 C790.280735,763.087669 798.647524,821.073479 815.543557,886.080943 C796.710369,884.840147 782.320029,884.717531 766.990614,885.928345 C754.474893,886.916914 742.778494,888.838715 731.803348,891.852229 C689.479601,903.473326 662.805092,920.000667 636.531019,946.727068 C607.95199,932.995096 572.228922,924.997094 540.469426,926.444194 C511.071447,927.783694 477.700406,939.296939 454.082705,954.389588 C453.287727,954.18186 452.468122,954.041654 451.631451,953.971072 C429.570234,928.428627 399.706032,910.235216 362.15952,903.709394 C327.727824,897.724947 305.291924,901.185486 274.548102,913.236878 L272.570459,914.020949 C260.996709,894.787514 240.383584,875.471468 216.147141,863.25246 C188.384034,849.255455 157.572424,844.807757 125.569104,851.801382 L125.405044,842.732278 C123.435389,743.327295 115.119493,591.842755 116.669143,543.475253 L116.873202,537.518407 C118.642778,488.647739 123.920976,399.906075 121.912717,328.023787 C245.371027,327.95399 354.507118,313.190764 449.421157,283.67574 C500.118003,268.007478 549.282699,250.813894 596.943589,232.091536 L597.896762,233.391439 C598.053051,233.599621 598.208045,233.803481 598.361733,234.002882 Z" id="bp-dorsum-of-hand-right" fill="#FFFFFF" fill-rule="nonzero"></path>
            </g>
        </g>
        <g id="viewport-boundary" mask="url(#mask-2)" stroke="#FF0000" stroke-width="3">
            <g transform="translate(260, 190)" id="boundary">
                <rect x="0" y="0" width="560" height="1080"></rect>
            </g>
        </g>
    </g>
</svg>