<?xml version="1.0" encoding="UTF-8"?>
<svg width="1080px" height="1460px" viewBox="0 0 1080 1460" version="1.1" xmlns="http://www.w3.org/2000/svg" xmlns:xlink="http://www.w3.org/1999/xlink">
    <title>little-finger-right-dorsal</title>
    <defs>
        <rect id="path-1" x="0" y="0" width="1080" height="1460"></rect>
    </defs>
    <g id="little-finger-right-dorsal" stroke="none" stroke-width="1" fill="none" fill-rule="evenodd">
        <mask id="mask-2" fill="white">
            <use xlink:href="#path-1"></use>
        </mask>
        <g id="mask"></g>
        <g id="bp-little-finger-right-dorsal" mask="url(#mask-2)" fill="#FFFFFF" fill-rule="nonzero">
            <g transform="translate(397.9442, 395.3552)">
                <path d="M17.7778535,499.938702 C35.7378023,501.639461 54.9831403,505.055275 75.5256326,510.189073 C98.8590739,516.05294 119.657506,523.033137 137.969111,531.153225 L129.798169,556.788746 L125.4245,570.351406 C124.572596,572.978402 123.783567,575.401178 123.064614,577.597964 L120.281131,586.020397 L119.072926,589.571256 C119.020007,589.723257 118.969521,589.867513 118.921502,590.003926 L118.921502,590.858183 C106.956343,624.458958 88.1539513,655.496961 73.909715,663.754779 C46.845666,679.700909 10.3804211,663.185274 1.83387935,631.577766 C-3.39809057,611.966997 2.91155142,567.68929 16.3468842,506.388176 L17.7778535,499.938702 Z M31.7584822,557.857131 C21.8848673,558.657529 13.9022629,566.142061 12.4230546,575.986153 L7.91264273,606.002824 C4.29791179,630.058762 19.8721968,652.325763 43.2634972,658.89785 C64.2154139,664.78456 84.2316255,644.475611 93.1621831,627.37682 L93.543452,626.635507 L94.9930471,623.758117 C100.056007,613.65562 103.706175,605.790743 105.94355,600.163484 C108.714319,591.023152 105.162314,581.074645 97.2117073,575.707195 C85.8474112,568.035164 74.9498637,562.865429 64.5190648,560.19799 C54.6286059,557.66873 43.7084117,556.888444 31.7584822,557.857131 Z" id="bp-distal-phalanx-little-finger-right-dorsal"></path>
                <path d="M32.3689725,564.852619 C43.4173091,563.957016 53.5186075,564.644947 62.6661917,566.984233 C72.3607651,569.4634 82.464722,574.316994 93.0210799,581.443586 C95.6381297,583.210355 97.5300642,585.731806 98.5408175,588.562741 C99.5168813,591.296516 99.6716368,594.321385 98.8513326,597.234737 C96.4470049,603.227411 92.4435992,611.735744 86.8581553,622.765989 C82.219461,631.623583 74.6874068,641.208194 65.6389503,647.014174 C59.457581,650.980475 52.4882685,653.218034 45.296245,651.197342 C35.2775001,648.382447 26.9333937,642.191605 21.5296969,634.106123 C16.289153,626.264765 13.8303014,616.636988 15.3328654,606.637464 L19.8432773,576.620793 C20.3239148,573.422164 21.856126,570.60344 24.0761738,568.521909 C26.2857796,566.450169 29.1748826,565.111545 32.3689725,564.852619 Z" id="bp-nail-of-little-finger-right"></path>
                <path d="M36.1145277,423.116374 C53.0621471,424.915159 71.133969,428.213206 90.3396077,433.01291 C117.182536,439.758736 140.670548,447.981953 160.876999,457.718428 L156.641147,471.476934 L150.516446,491.215589 L146.333195,504.602247 C144.726381,509.730021 143.146386,514.756119 141.605397,519.64378 C122.927508,511.457234 101.886273,504.440569 78.442732,498.549036 C57.924326,493.421255 38.5959371,489.948188 20.4428894,488.141233 L21.7482695,482.4559 L22.7215531,478.268805 C26.4862036,462.135584 30.6368745,445.054696 35.1088932,427.138483 L36.1145277,423.116374 Z" id="bp-distal-interphalangeal-joint-little-finger-right-dorsal"></path>
                <path d="M70.8951866,287.670275 C88.328423,289.425919 106.961418,292.78196 126.804777,297.741037 C155.079376,304.846653 179.631645,313.591455 200.547314,324.017363 L198.78989,329.858274 L197.582869,333.888891 C193.343346,348.070428 188.946801,363.034182 184.391486,378.818783 L180.076056,393.768633 L178.545083,399.006351 C174.230095,413.720452 169.409734,429.767327 164.425905,446.115561 C143.817302,436.348016 120.113366,428.122147 93.2567071,421.372872 C74.1703578,416.602979 56.1137108,413.264882 39.0749535,411.367756 L41.079141,403.461052 L43.3648581,394.506469 C47.467227,378.482003 51.7744363,361.900768 56.246862,344.83217 L61.9385898,322.751698 L65.4980919,308.863289 C66.1025678,306.499215 66.7124034,304.111372 67.3272192,301.701108 L70.8951866,287.670275 Z" id="bp-middle-phalanx-little-finger-right-dorsal"></path>
                <path d="M92.0931709,202.960831 C109.901507,204.678268 128.970184,208.077216 149.310624,213.160519 C179.177704,220.666337 204.891349,230.001186 226.552604,241.214474 L223.157953,251.592707 L221.623941,256.331942 C216.135835,273.335069 210.286639,291.969336 204.072138,312.373824 C182.731469,301.932915 157.970697,293.200135 129.721877,286.101 C110.012169,281.175322 91.4005229,277.776493 73.8739288,275.914615 L78.6696,256.902791 L81.3042983,246.399549 C84.2457809,234.65177 87.2308028,222.657241 90.2267566,210.532161 L92.0931709,202.960831 Z" id="bp-proximal-interphalangeal-joint-little-finger-right-dorsal"></path>
                <path d="M270.198946,62.3198636 C274.477542,69.4816971 278.319437,77.039694 282.213353,85.7200799 L283.60554,88.8705074 L284.265064,90.4042662 C284.56152,91.0977595 284.882983,91.8542195 285.221724,92.6546445 C282.09022,96.9188347 279.543665,102.027584 277.032524,107.348727 L276.462755,108.202984 L274.277615,112.951165 L273.720988,114.184986 C264.523921,134.648799 250.155817,170.427151 230.369186,229.683422 C208.185407,218.402383 182.16535,209.044026 152.227723,201.520481 C131.994564,196.463987 112.918564,193.016519 94.9856524,191.189006 L97.1874881,182.19931 L98.618459,176.331838 L100.996423,166.5465 L104.214631,153.229998 C117.57829,97.7485592 130.123715,43.2978113 138.825988,0.634226323 L139.630551,0.578400392 C205.011843,-3.98561739 244.099712,18.6330088 270.198946,62.3198636 Z" id="bp-proximal-phalanx-little-finger-right-dorsal"></path>
            </g>
        </g>
        <g id="decoration" opacity="0.15" mask="url(#mask-2)">
            <g transform="translate(488.0924, -769)">
                <g id="bp-middle-finger-right-dorsal" stroke-width="1" fill="none" fill-rule="evenodd" transform="translate(491.9796, 1329.934)">
                    <path d="M249.509592,631.692889 L262.395139,741.923919 L262.395139,745.056195 C265.528871,775.239942 252.424174,836.746445 203.139116,841.871987 L202.854231,841.587235 C154.708713,846.428024 135.336551,813.396754 125.650471,794.887853 L125.080701,793.748843 C120.158835,784.505999 115.783558,764.570605 112.200148,743.258936 L111.94554,741.734459 C111.903331,741.480032 111.861235,741.22544 111.819253,740.970701 L111.568722,739.440617 C111.485668,738.930081 111.403071,738.41908 111.320935,737.907738 L110.738818,734.230027 L110.046458,729.715714 C107.779613,714.685918 105.925779,699.94169 104.569001,688.675234 L103.714347,680.702169 L102.335432,669.271596 C101.501888,662.400717 100.618357,655.182401 99.6904636,647.658077 C121.518308,640.55162 146.496144,635.545844 174.753535,632.607135 C202.216263,629.772628 227.138738,629.468107 249.509592,631.692889 Z M182.168854,716.932139 C168.953062,719.315734 156.229768,724.513851 143.998972,732.526488 C136.790691,737.24876 133.056744,745.729065 134.498991,754.102216 L141.071932,792.262274 C145.930098,820.466983 173.008752,839.157835 201.553798,834.00946 L204.373671,833.500868 C232.918717,828.352493 252.120727,801.314476 247.262561,773.109767 L240.729717,735.182501 C239.273979,726.730998 232.82868,720.030003 224.378194,718.18228 C209.569965,714.944418 195.500185,714.527704 182.168854,716.932139 Z" id="bp-distal-phalanx-middle-finger-right-dorsal" fill="#FFFFFF" fill-rule="nonzero"></path>
                    <path d="M157.726796,522.115733 C186.756988,518.488654 212.982786,517.850594 236.471671,520.178972 L248.61712,624.076755 C226.133498,621.967435 201.251213,622.332404 173.980879,625.147054 C145.820617,628.075661 120.783074,633.036075 98.7493849,640.078949 L94.1259487,603.06727 C91.5238109,582.405552 88.7205591,560.391873 85.7976707,537.618989 C106.886648,530.564605 130.863585,525.39402 157.726796,522.115733 Z" id="bp-distal-interphalangeal-joint-middle-finger-right-dorsal" fill="#FFFFFF" fill-rule="nonzero"></path>
                    <path d="M146.901177,351.549088 C172.177475,348.391026 195.327759,347.498944 216.396572,348.857934 L235.581848,512.561909 C211.922359,510.359114 185.684196,511.064404 156.807906,514.672263 C130.07344,517.934829 106.07727,523.054018 84.8227531,530.038512 L78.6936068,482.576289 L70.676737,421.072072 L64.091827,370.956102 C87.7028255,361.878433 115.305618,355.404892 146.901177,351.549088 Z" id="bp-middle-phalanx-middle-finger-right-dorsal" fill="#FFFFFF" fill-rule="nonzero"></path>
                    <path d="M126.674361,236.509147 C154.646156,233.014306 180.014317,232.294506 202.83921,234.329548 L205.191169,254.999412 C207.160801,272.067393 209.390612,290.848825 211.912505,311.633309 L215.104275,337.860364 L215.510397,341.2883 C194.311976,340.021575 171.149063,340.961232 145.982287,344.105617 C114.566293,347.939499 86.9315804,354.337168 63.0835977,363.312714 L50.9444941,271.912909 C50.1327875,265.843263 49.3394589,259.920523 48.5668616,254.162019 C71.1175419,245.999781 97.1530947,240.111812 126.674361,236.509147 Z" id="bp-proximal-interphalangeal-joint-middle-finger-right-dorsal" fill="#FFFFFF" fill-rule="nonzero"></path>
                    <path d="M95.4163536,1.14167436 C128.538481,-1.66454362 162.866888,0.780833087 193.953001,7.61433025 C191.145173,20.0312675 190.898824,37.182802 190.889377,60.1020661 L190.889073,75.3187157 L190.968768,83.2010933 C191.457001,116.82264 193.951267,154.018559 201.99143,226.723532 C178.999214,224.806399 153.604199,225.586203 125.755471,229.065676 C96.3759039,232.65104 70.3032903,238.478589 47.5420873,246.559844 L39.5227276,187.340545 C37.3899161,171.775736 35.7565724,160.076591 34.7722433,153.340854 L34.1353582,149.12444 C25.9859351,96.6924301 10.8900237,54.6279457 2.0104998,36.8771512 L0.657329375,34.2016506 C0.436242318,33.7701121 0.217213663,33.3457228 0,32.9284233 C22.7005339,16.632906 60.0559803,4.13752401 95.4163536,1.14167436 Z" id="bp-proximal-phalanx-middle-finger-right-dorsal" fill="#FFFFFF" fill-rule="nonzero"></path>
                </g>
                <g id="bp-ring-finger-right-dorsal" stroke-width="1" fill="none" fill-rule="evenodd" transform="translate(241.8301, 1266.6272)">
                    <path d="M84.1693897,624.741036 C109.276898,626.097572 131.961142,629.211679 152.274567,634.084617 L151.59574,652.603544 L151.59574,655.451068 L151.124149,668.885042 C148.118009,750.649466 144.559087,770.505246 129.9445,792.416938 C104.01999,831.71276 45.9035063,828.865236 27.9557686,788.430405 C25.1729413,782.235171 21.8846382,765.878978 19.3127951,748.783809 L18.515427,743.297311 L17.8639687,738.502214 C17.6594321,736.945899 17.4629379,735.399185 17.2754216,733.869286 L17.1364823,732.725127 C15.2610502,717.134455 14.3534166,703.499748 15.4208406,699.587679 L15.4355404,699.178949 L15.3452327,693.489061 C15.1009179,682.419723 14.3975164,657.378731 13.6244464,627.059052 L15.8187139,626.769285 C36.4093406,624.126787 59.1815842,623.449164 84.1693897,624.741036 Z M43.5530684,704.768834 C34.2929836,707.980474 28.3324182,716.999009 29.0084982,726.775264 L31.5447884,763.450541 C33.3406033,789.418391 54.8082838,809.629756 80.8385106,809.859533 C106.760672,810.088355 128.402601,790.1278 130.266361,764.271763 L132.813192,728.939432 C133.491789,719.525397 128.007519,710.754508 119.247455,707.243986 C105.003168,701.535706 91.9094841,698.578414 79.9664038,698.372107 C68.5549746,698.174985 56.4171961,700.307227 43.5530684,704.768834 Z" id="bp-distal-phalanx-ring-finger-right-dorsal" fill="#FFFFFF" fill-rule="nonzero"></path>
                    <path d="M78.0679142,705.380865 L79.8416146,705.390989 L79.8809525,705.391679 C91.0119143,705.590092 103.198478,708.410241 116.463115,713.725934 C119.328763,714.874318 121.6587,716.883021 123.216652,719.374627 C124.774583,721.866198 125.5605,724.840581 125.338515,727.920129 L122.791684,763.252459 C122.002094,774.206486 117.022689,783.911518 109.495485,790.853928 C101.967854,797.796733 91.8920118,801.976771 80.9093971,801.879825 C69.8518211,801.782216 59.7631683,797.440818 52.2482966,790.365726 C44.7339734,783.29115 39.7932219,773.483366 39.0304155,762.453029 L36.4941253,725.777752 C36.2729047,722.578858 37.1376781,719.50401 38.8150273,716.966123 C40.492871,714.427488 42.9837742,712.426051 46.014605,711.37488 C57.9647799,707.230255 69.236453,705.207794 79.8416146,705.390989 L78.0679142,705.380865 Z" id="bp-nail-of-ring-finger-right" fill="#FFFFFF" fill-rule="nonzero"></path>
                    <path d="M13.2731098,528.010285 C35.0420247,524.859419 59.3248287,523.974906 86.1635827,525.362473 C112.145,526.766226 135.531526,530.052029 156.381274,535.221279 L154.22505,585.525161 C153.582458,600.924549 153.022918,614.760646 152.567144,626.449302 C132.1614,621.659225 109.50853,618.599157 84.5651928,617.251495 C58.5754091,615.907816 34.877098,616.659442 13.4323514,619.517777 L12.501342,580.49799 L12.2158875,567.444801 L12.0524913,559.607611 C11.8357162,548.998348 11.6389464,538.461443 11.4745893,528.273867 L13.2731098,528.010285 Z" id="bp-distal-interphalangeal-joint-ring-finger-right-dorsal" fill="#FFFFFF" fill-rule="nonzero"></path>
                    <path d="M9.94666842,337.010486 L10.6909954,336.908357 C31.8766997,334.017059 55.4072627,333.238692 81.3205424,334.578412 C113.20742,336.301232 141.185731,340.858897 165.362906,348.253993 L164.603499,362.584376 C161.817017,415.752442 159.023555,475.358551 156.715932,527.589917 C135.753107,522.498985 112.383817,519.268199 86.5593858,517.872932 C58.9152776,516.443723 33.8636439,517.385055 11.3588673,520.710648 L11.2230275,510.89181 C11.195833,508.745754 11.1706615,506.625012 11.1475698,504.532333 L11.1475698,499.976296 L10.7766301,463.086433 C10.5905316,442.422453 10.4240791,420.431483 10.2814404,398.342465 L10.0426839,357.065117 C10.0080783,350.30293 9.97603132,343.605709 9.94666842,337.010486 Z" id="bp-middle-phalanx-ring-finger-right-dorsal" fill="#FFFFFF" fill-rule="nonzero"></path>
                    <path d="M9.66076619,225.631489 L9.85449307,225.603311 C31.623408,222.452445 55.906212,221.567932 82.744966,222.955498 C117.065716,224.809819 146.858458,229.948258 172.257151,238.374039 L171.706144,245.22377 C169.915452,268.278494 167.868427,302.028882 165.777355,340.543426 C141.388473,333.275526 113.40024,328.800718 81.7163455,327.088871 C55.4553282,325.731169 31.5338612,326.512734 9.91283764,329.445332 L9.7470857,275.797964 L9.72335953,253.763717 L9.72110636,243.911239 L9.70120144,234.688309 C9.69109845,231.641628 9.67757374,228.622633 9.66076619,225.631489 Z" id="bp-proximal-interphalangeal-joint-ring-finger-right-dorsal" fill="#FFFFFF" fill-rule="nonzero"></path>
                    <path d="M1.00647587,4.52237684 C33.5107,-2.64706472 83.2590738,-1.69244576 114.015827,10.2752198 C143.242628,21.64757 180.297364,59.5105017 201.14321,91.6133073 C200.061433,93.8389283 199.146267,96.0862558 198.316835,98.1907584 L196.607526,102.746796 C186.636561,128.089753 179.514443,171.656859 173.246979,227.468316 L172.934666,230.68844 C147.229418,222.379833 117.33767,217.31358 83.1407691,215.465958 C56.1786118,214.072006 31.6825993,214.93308 9.61040797,218.06191 L9.55065243,211.021504 C8.47690411,96.9163748 2.6714806,26.4002341 0.60683491,9.63278385 L0.60683491,9.06327919 C0.419505965,7.5653441 0.218704194,6.12704664 0,4.7475962 L1.00647587,4.52237684 Z" id="bp-proximal-phalanx-ring-finger-right-dorsal" fill="#FFFFFF" fill-rule="nonzero"></path>
                </g>
                <path d="M559.780058,1141.55285 C592.715824,1140.05236 630.580234,1148.54086 660.465241,1162.84521 L689.862901,1307.70645 C656.532312,1300.64572 620.12912,1298.195 584.864152,1301.18277 C549.069293,1304.21543 511.727918,1315.55595 484.292724,1332.08367 L469.192921,1171.49451 C493.057648,1155.72574 529.092868,1142.95091 559.780058,1141.55285 Z" id="bp-metacarpophalangeal-joint-middle-finger-right-dorsal" fill="#FFFFFF" fill-rule="nonzero"></path>
                <path d="M250.300452,1123.65038 C282.433415,1111.05506 304.16628,1107.75586 339.308402,1113.86297 C379.215136,1120.79808 410.253243,1140.63396 432.768601,1168.61176 L446.358705,1313.12211 C442.760538,1308.81059 439.026613,1304.54021 435.222567,1300.41096 C412.795351,1276.06646 389.454738,1257.78944 366.721309,1248.94371 C331.715903,1235.32286 279.210558,1233.53946 240.984788,1240.93324 L246.434088,1169.02948 C247.439948,1155.50956 248.55443,1140.45652 249.778368,1123.86085 L250.300452,1123.65038 Z" id="bp-metacarpophalangeal-joint-ring-finger-right-dorsal" fill="#FFFFFF" fill-rule="nonzero"></path>
                <path d="M62.1762336,1052.45526 C95.516628,1044.01474 127.127446,1048.13629 155.728319,1062.55373 C182.284925,1075.94067 204.444011,1098.00314 214.161392,1117.43196 L207.01307,1213.34548 L205.799671,1211.2873 C175.077127,1159.8616 127.602396,1131.49568 54.575044,1134.60865 C56.27853,1125.24215 57.6664046,1116.87055 58.6862535,1109.67983 C60.2547158,1098.23537 60.8636969,1078.27469 60.8283872,1052.81444 L62.1762336,1052.45526 Z" id="bp-metacarpophalangeal-joint-little-finger-right-dorsal" fill="#FFFFFF" fill-rule="nonzero"></path>
                <path d="M627.885936,280.765797 L628.639004,281.697038 C641.144029,296.804719 675.567822,321.913081 736.830737,360.628709 C722.689382,372.588929 709.136101,386.521838 697.058542,401.885651 C648.360105,463.834733 629.135645,539.213329 651.590407,614.690049 C660.833236,645.757778 676.710441,672.408974 698.91966,696.365913 C716.1232,714.92326 735.86218,730.866114 762.827009,749.229579 L767.398622,752.3141 L808.152849,779.16292 L811.472092,781.410928 C838.670137,799.956926 854.385159,813.901772 864.237018,829.530157 C874.182101,845.306424 877.456335,862.642134 873.28117,884.064503 C858.188738,915.582389 868.228884,985.156027 888.504125,1063.15452 C865.904298,1061.66577 848.63589,1061.51865 830.240592,1062.97143 C815.221727,1064.15755 801.186049,1066.4634 788.015874,1070.07914 C737.227377,1084.02258 705.217966,1103.85273 673.689078,1135.92011 C639.394244,1119.44396 596.526561,1109.84764 558.415166,1111.58393 C523.137592,1113.19111 483.092343,1127.00515 454.751102,1145.1139 C453.797129,1144.86466 452.813602,1144.69644 451.809597,1144.61175 C425.336136,1113.96493 389.499094,1092.13576 344.44328,1084.30583 C303.125244,1077.12545 276.202164,1081.27754 239.309577,1095.73727 L236.936407,1096.67803 C223.047906,1073.60101 198.312156,1050.42486 169.228425,1035.76402 C135.912696,1018.96986 98.9387648,1013.63334 60.5347808,1022.02457 L60.3379079,1011.1431 C57.9743228,891.87312 47.9952476,710.116053 49.854827,652.082835 L50.0996975,644.935578 C52.2231889,586.298641 58.557027,479.822928 56.147116,393.575751 C204.297088,393.492006 335.260397,375.778511 449.157245,340.365232 C509.993459,321.565839 568.991095,300.936305 626.184163,278.47249 L627.32797,280.032164 C627.515517,280.281949 627.70151,280.526547 627.885936,280.765797 Z" id="bp-dorsum-of-hand-right" fill="#FFFFFF" fill-rule="nonzero"></path>
            </g>
        </g>
        <g id="viewport-boundary" mask="url(#mask-2)" stroke="#FF0000" stroke-width="3">
            <g transform="translate(260, 190)" id="boundary">
                <rect x="0" y="0" width="560" height="1080"></rect>
            </g>
        </g>
    </g>
</svg>