<?xml version="1.0" encoding="UTF-8"?>
<svg width="1080px" height="1460px" viewBox="0 0 1080 1460" version="1.1" xmlns="http://www.w3.org/2000/svg" xmlns:xlink="http://www.w3.org/1999/xlink">
    <title>lower-limb-right-back</title>
    <defs>
        <rect id="path-1" x="0" y="0" width="1080" height="1460"></rect>
    </defs>
    <g id="lower-limb-right-back" stroke="none" stroke-width="1" fill="none" fill-rule="evenodd">
        <mask id="mask-2" fill="white">
            <use xlink:href="#path-1"></use>
        </mask>
        <g id="mask"></g>
        <g id="bp-lower-limb-right-back" mask="url(#mask-2)" fill="#FFFFFF">
            <g transform="translate(422.8718, 298.4134)">
                <path d="M212.388803,779.1373 L213.891737,786.794526 L213.930786,786.872581 L214.085756,787.283658 L214.159131,787.494976 C214.973355,789.881523 217.150423,797.543348 219.124323,809.781727 L219.182897,810.21103 L219.490141,812.171324 L219.701606,813.567831 C221.584907,826.185996 221.986215,833.805211 223.712599,839.520687 L223.966418,839.520687 L224.540251,839.486793 L224.949685,839.473443 C226.935928,839.427743 230.764259,839.610052 232.42056,841.394007 C234.763509,843.911281 234.958755,846.818831 234.978279,847.716463 L234.978279,847.989656 L235.379012,847.822103 C236.476068,847.383883 239.602117,846.389528 242.339045,847.85306 C247.310669,850.537391 245.592134,854.87476 245.215258,855.664597 L245.150584,855.795157 L245.382505,855.649253 L245.60966,855.521938 C246.690869,854.943744 249.551364,853.782934 252.784693,855.482937 C257.919657,858.175835 255.92815,863.464062 255.92815,863.464062 L256.045298,863.464062 L256.652036,863.384932 L257.163403,863.343807 C260.098093,863.166895 266.837833,863.764167 261.668376,873.650241 L259.433087,877.869987 L259.034394,878.61128 C254.279432,887.400799 252.904992,887.937646 242.182848,894.003086 C239.156539,895.700782 236.325475,900.579221 233.455362,905.67231 L232.264363,907.799309 L231.361558,909.383378 C229.702831,912.26334 228.021523,914.978869 226.270318,917.009801 C219.124323,925.303146 206.765266,931.586574 186.459707,931.586574 C158.969103,931.586574 150.690682,908.404236 152.194075,888.344097 L152.991143,878.116042 L153.472288,871.572266 C154.589121,855.945412 154.948438,847.367853 154.964741,841.824323 L154.964802,841.060019 C154.958861,838.99082 154.902983,837.360781 154.822311,835.926351 L154.664846,833.618973 L154.458925,830.973663 L154.366145,829.656407 C154.275238,828.28982 154.192766,826.750419 154.144033,824.81481 L154.10035,822.547994 L154.083228,822.313753 C154.035267,821.747274 153.916985,820.799182 153.733899,819.50085 L153.406594,817.26289 C152.540328,811.500691 150.913244,801.63617 148.762495,789.017751 L150.519601,788.850254 C159.702194,787.948222 170.500229,786.478427 182.92011,784.441512 L185.98145,783.933469 L188.717673,783.469666 C196.080189,782.209821 203.970132,780.765684 212.388803,779.1373 Z" id="bp-foot-right-plantar"></path>
                <path d="M127.991203,512.985328 L131.9548,562.606584 C132.312919,567.006649 132.653565,571.139797 132.998192,575.26419 L133.793519,584.670933 C135.534919,605.016373 137.231851,623.150767 139.091023,640.954119 C144.216181,690.032412 150.399585,734.48938 158.522282,777.896497 C154.425792,778.402855 150.605791,778.814747 147.061973,779.131968 L145.320385,769.051717 L143.004346,755.786261 C130.445629,684.158785 111.068921,578.230491 105.972923,557.955259 L105.320377,555.452379 L101.913932,542.671637 C97.1145733,524.586313 91.0310865,500.545656 89.0125447,481.014015 C88.5804866,476.833371 88.3467304,472.733996 88.2466096,468.76127 L91.0498237,468.822397 C95.6709947,468.915543 100.037904,468.965058 104.150576,468.971319 L105.690189,468.971629 C112.592124,468.963756 118.755085,468.830181 124.177194,468.570851 L124.773274,475.021044 C125.768084,485.960848 126.781465,497.975985 127.991203,512.985328 L127.991203,512.985328 Z" id="bp-lower-leg-medial-right-back"></path>
                <path d="M169.194538,572.996439 L169.458389,579.648419 L169.625377,584.075667 L169.94516,593.148324 C170.710868,615.965871 171.227129,640.03567 171.808127,676.865334 L172.974761,754.076267 L173.224952,768.238951 L173.370734,775.829971 C171.693588,776.085964 170.051774,776.329811 168.44478,776.561681 C160.481134,734.084241 154.385075,690.574759 149.322407,642.633875 L149.036939,639.915485 C147.016299,620.565921 145.187035,600.813154 143.28176,578.223192 L141.992928,562.668075 L137.780004,509.966781 C136.415864,493.106035 135.29647,480.032747 134.154066,467.87178 C141.866913,467.174418 150.791088,466.051161 160.930104,464.502664 L161.274002,467.278888 C165.019276,497.929066 167.527788,532.292309 169.194538,572.996439 L169.194538,572.996439 Z" id="bp-lower-leg-posterior-right"></path>
                <path d="M206.733336,456.289592 L206.838701,457.271108 L207.183251,460.627999 C210.373129,492.324498 210.644488,513.240218 209.672559,534.16908 L209.602754,535.62939 L209.490758,537.821717 L209.312683,541.025727 L209.186314,543.145805 L209.186314,543.37997 L209.073005,548.625648 L208.93592,555.94221 C208.238188,594.186019 206.416645,705.644534 206.676941,714.985835 L206.687168,715.276621 L206.770151,717.020555 C207.064958,722.929825 207.538219,729.780965 208.084768,736.98274 L208.952019,748.118267 L209.264412,751.864908 L210.455411,766.38314 L210.685109,769.281378 L207.596951,769.875385 C198.917059,771.534244 190.831291,772.98775 183.341194,774.235957 L183.008975,756.023712 L182.223512,704.397952 C181.394654,647.171531 180.804582,616.783678 179.730096,586.773099 L179.580505,582.6806 L179.371004,577.205439 L179.261677,574.449992 C177.529297,531.284491 174.867747,495.132916 170.810426,462.922632 L173.319814,462.501106 C183.441915,460.785412 194.578674,458.714702 206.733336,456.289592 Z" id="bp-lower-leg-lateral-right-back"></path>
                <path d="M185.982884,340.226116 L186.068372,340.724697 C186.589995,343.705502 187.057668,346.119448 187.435935,347.735081 C189.021277,357.252785 190.820906,366.256486 192.693397,375.209198 L193.666841,379.833678 C197.947076,400.063625 202.475165,420.440611 205.617293,446.313647 L201.245921,447.181825 C167.359663,453.859288 141.844204,457.640061 124.780666,458.528294 L123.105474,458.610032 C118.287613,458.829859 112.862299,458.949706 106.833057,458.969337 L104.266029,458.971689 L101.952044,458.964032 C97.6595738,458.941655 93.0912664,458.873405 88.2482125,458.759211 L88.2841122,457.313643 C88.6996758,442.22609 90.2843469,430.035298 88.5634794,423.877745 L84.4071587,408.996451 C81.2649923,397.86837 76.3966438,381.188498 69.8021132,358.965577 L74.3298329,358.57741 C107.16424,355.722158 131.886645,352.674947 148.70471,349.395193 L150.247542,349.089567 C160.125966,347.10295 172.040233,344.14756 185.982884,340.226116 Z M136.183922,393.728997 L136.183922,393.768024 L135.539611,393.885107 C124.820618,395.758427 111.875824,400.09048 104.593157,408.676532 C102.152585,411.545053 106.31132,415.701483 108.751892,412.813447 C115.097379,405.33968 126.265437,401.632067 135.520086,399.817288 L135.79343,399.758747 C148.211061,397.358555 163.186411,398.022023 174.491141,404.422534 C177.790794,406.295854 180.75853,401.222278 177.458877,399.348958 C165.31459,392.460603 149.636355,391.504429 136.183922,393.728997 Z" id="bp-popliteal-fossa-right"></path>
                <path d="M0,49.8966667 L80.7106322,27.5751163 L83.0888846,46.2995754 C85.4432929,64.7722795 87.7350043,82.5592363 90.043537,100.286106 L92.1119013,116.118834 C96.2659676,147.818372 100.549237,179.920489 105.414905,215.990975 L115.466229,290.535982 C119.355335,319.534501 120.582636,329.168798 122.312871,343.451612 L119.568776,343.80849 C105.045275,345.667588 87.4940619,347.45469 66.8923077,349.1738 L65.6025774,344.847045 L64.3678002,340.141578 C64.1646917,339.361977 63.9628733,338.584419 63.7622641,337.808488 L62.2791063,332.01302 L61.6968437,329.703177 L60.2509481,323.872473 L59.477995,320.695285 L58.5095981,316.650521 C53.8194945,296.881177 49.4317831,275.719105 44.0357661,246.408965 L42.4872193,237.953293 L42.0614344,235.743396 C39.0542755,220.403431 30.2404319,179.957083 20.9334906,138.836695 L16.8294391,120.803783 C10.5528383,93.3822071 4.40505117,67.272849 0,49.8966667 Z" id="bp-thigh-medial-right-back"></path>
                <path d="M90.4485855,24.874219 L180.407088,0 L179.732972,31.2961554 C179.187494,58.0507804 178.571824,91.8340044 178.13677,126.5051 L178.037859,134.676428 L178.000433,137.940407 L177.798217,158.073461 L177.715666,168.389662 C177.386088,213.893953 177.549393,256.626811 178.786548,282.364008 L178.839816,283.367711 C179.239792,290.393457 180.369075,300.791745 181.71846,311.295013 L181.949982,313.081747 L182.313501,315.828714 C182.986724,320.853488 183.693783,325.794011 184.378322,330.288655 L182.265258,330.883096 C168.285461,334.795444 156.45205,337.695977 146.790629,339.580087 L145.038871,339.915268 C141.179732,340.639965 136.906716,341.354727 132.218651,342.059685 L131.42815,335.592056 L130.148324,325.373617 C128.349394,311.262094 125.804133,292.275756 119.602395,246.332821 L114.38593,207.687029 C110.127708,176.078687 106.306464,147.423485 102.603918,119.21721 L100.569796,103.67435 L98.4567587,87.4260864 C95.8273274,67.1404232 93.1973312,46.5997597 90.4485855,24.874219 Z" id="bp-thigh-lateral-right-back"></path>
            </g>
        </g>
        <g id="decoration" opacity="0.15" mask="url(#mask-2)">
            <g transform="translate(7, -664)">
                <g id="bp-lower-limb-left-back" transform="translate(133.5665, 962.4134)">
                    <path d="M49.6699697,786.794526 L51.6432445,776.739888 L55.8446295,777.54491 C66.2349936,779.518133 75.7771738,781.196362 84.4723512,782.579555 C84.7291995,782.692552 85.0149849,782.757931 85.3158689,782.764111 C85.4035168,782.765845 85.4900871,782.762509 85.5752992,782.754371 L88.9349604,783.27505 C98.881987,784.79114 107.641483,785.89369 115.215689,786.582508 L113.058764,799.313235 C110.856206,812.461916 109.516999,821.028773 109.456315,822.651436 L109.432633,824.154627 C109.378069,826.85651 109.258526,828.809897 109.133985,830.544314 L108.796962,834.990541 L108.715302,836.375724 C108.646744,837.720694 108.600883,839.248581 108.596693,841.143186 L108.610671,843.447281 C108.704924,850.382314 109.285709,861.66207 110.950145,883.070816 L111.367632,888.344097 C112.871024,908.404236 104.592604,931.586574 77.1019998,931.586574 C56.7964402,931.586574 44.4373832,925.303146 37.2913881,917.009801 C35.221783,914.609609 33.2498008,911.253243 31.2973431,907.799309 L30.106344,905.67231 L28.7835961,903.347695 C26.3605135,899.153446 23.9395815,895.439598 21.3788582,894.003086 L17.562236,891.84131 C9.99892785,887.515743 8.55476583,886.143333 4.12861981,877.869987 L1.89333077,873.650241 C-4.19833712,862.000531 6.24731136,863.249411 7.51640883,863.464062 L7.63355629,863.464062 L7.54200367,863.176595 C7.21653921,862.038809 6.35855604,857.800082 10.7770131,855.482937 C14.8966988,853.31691 18.4111226,855.795157 18.4111226,855.795157 L18.2808588,855.520165 C17.8144441,854.445156 16.4996189,850.403174 21.2226616,847.85306 C24.178543,846.272446 27.5882962,847.558711 28.4057935,847.915054 L28.583427,847.989656 L28.583427,847.716463 C28.6029516,846.818831 28.7981973,843.911281 31.1411465,841.394007 C33.1521779,839.227981 38.3652399,839.423118 39.5952882,839.520687 L39.8491077,839.520687 C41.723467,833.315314 42.0358603,824.865858 44.3788095,810.21103 L44.4373832,809.781727 L44.6929556,808.228794 C46.8300392,795.500056 49.1240325,788.092191 49.6309206,786.872581 L49.6699697,786.794526 Z" id="bp-foot-left-plantar" fill="#FFFFFF"></path>
                    <path d="M136.499678,472.795961 L137.139425,465.977667 L138.15639,466.033355 L140.227492,466.133072 C149.712717,466.553987 161.428637,466.599407 175.361242,466.26907 C175.304594,471.011908 175.07216,475.953421 174.549162,481.014015 C171.913344,506.51849 162.346301,539.711384 157.758026,557.293276 C152.305586,578.226655 127.850829,713.033755 115.97177,782.167224 C111.714157,781.78413 107.064158,781.267454 102.023767,780.615886 C110.173515,737.582034 116.390538,693.583316 121.539441,645.113697 L121.97818,640.948128 C123.800002,623.502437 125.466097,605.736151 127.171369,585.876194 L128.817148,566.232021 L133.651246,505.903587 C134.693436,493.145812 135.598677,482.585135 136.499678,472.795961 L136.499678,472.795961 Z" id="bp-lower-leg-medial-left-back" fill="#FFFFFF"></path>
                    <path d="M99.9754345,465.769016 L100.495656,461.693089 L103.593602,462.169828 C114.814058,463.869552 124.509125,465.037779 132.681659,465.674408 L132.011517,472.8309 C131.119385,482.536999 130.222097,493.01409 129.191125,505.636886 L124.653542,562.334381 C124.296811,566.717118 123.957431,570.834773 123.614136,574.943224 L122.720929,585.491522 C121.017775,605.326923 119.354097,623.067516 117.535306,640.484177 C112.370038,689.946563 106.129295,734.673128 97.9067319,778.347677 L97.591148,780.022054 C94.4150397,779.582263 91.0968625,779.093368 87.6366972,778.555367 L88.0936267,753.48525 C88.2917903,741.554794 88.5052543,727.203292 88.8299705,704.78406 L89.0580361,689.522529 C90.8425715,573.965559 93.0831461,520.727955 99.9754345,465.769016 L99.9754345,465.769016 Z" id="bp-lower-leg-posterior-left" fill="#FFFFFF"></path>
                    <path d="M56.8347335,456.183634 L57.0855126,453.850812 L61.3753994,454.700408 C74.1149471,457.203968 85.6835531,459.300447 96.0831319,460.989778 C95.5909249,464.778001 95.1229671,468.549418 94.6760835,472.325181 L94.261307,475.883905 L93.8944829,479.12781 C88.3464324,528.92309 86.2990034,581.606965 84.6763209,684.031998 L83.4608884,763.062603 L83.1807409,777.844796 L79.6587197,777.267606 C71.3364561,775.884449 62.2847532,774.246744 52.504859,772.356721 L52.7158037,771.281092 L53.1062952,766.38314 L54.2972944,751.864908 L54.6096876,748.118267 L55.3944194,738.065562 C55.9514946,730.784981 56.4396871,723.829499 56.751846,717.801505 L56.8745385,715.276621 C56.8967965,714.783703 56.9081598,713.755274 56.9098092,712.255919 L56.9013493,708.815413 C56.746565,677.624766 54.5690296,549.432168 54.3753927,543.37997 L54.3753927,543.145805 C54.1374039,539.250174 53.9334976,535.407147 53.774127,531.549298 L53.6916771,529.443141 L53.5837466,526.218262 C53.003175,506.814194 53.6529208,486.268257 56.8347335,456.183634 Z" id="bp-lower-leg-lateral-left-back" fill="#FFFFFF"></path>
                    <path d="M77.989426,337.819013 L81.0930616,338.685626 C94.3923805,342.369825 105.744416,345.129325 115.137898,346.961184 L116.89615,347.297747 C134.464527,350.599528 160.262629,353.672818 194.4778,356.5512 L186.79987,382.546171 C183.168313,394.930934 180.365766,404.653018 178.391805,411.709858 L174.998227,423.877745 C173.109775,430.634942 175.20202,444.657671 175.36536,461.798935 L172.318343,461.866617 C159.273658,462.133106 148.297138,462.051219 139.405332,461.623322 L138.388607,461.572414 C120.508107,460.641654 93.5590866,456.582957 57.5825661,449.394893 C60.5899701,423.262047 65.0291315,402.759331 69.2986762,382.646198 L69.7812103,380.370622 C70.0220289,379.233385 70.2621105,378.096762 70.5011647,376.959804 L71.2052019,373.593876 C72.9564076,365.172052 74.6357375,356.680596 76.125771,347.735081 L76.3934682,346.529699 C76.7984608,344.622046 77.2802726,342.009145 77.8055832,338.904811 L77.989426,337.819013 Z M86.1028296,399.348958 C82.8031762,401.222278 85.7709118,406.295854 89.0705653,404.422534 C100.375295,398.022023 115.350645,397.358555 127.768276,399.758747 L128.04162,399.817288 C137.296269,401.632067 148.464327,405.33968 154.809815,412.813447 C157.250387,415.701483 161.409122,411.545053 158.96855,408.676532 C151.859279,400.29491 139.354297,395.967127 128.791417,394.023121 L127.377785,393.768024 L127.377785,393.728997 C113.925351,391.504429 98.2471163,392.460603 86.1028296,399.348958 Z" id="bp-popliteal-fossa-left" fill="#FFFFFF"></path>
                    <path d="M179.948801,26.7705047 L263.561706,49.8966667 L262.402042,54.5104931 C249.517436,106.177746 224.497714,219.000119 220.861457,239.102017 L219.218296,248.077111 C212.984593,281.818711 208.081868,304.705703 202.446051,327.376316 L201.574456,330.857815 L200.989233,333.169105 C200.008756,337.024535 199.002087,340.899833 197.959129,344.847045 L195.775899,352.178944 L191.853318,351.846564 C170.485567,350.013878 152.523442,348.10521 137.93073,346.114028 L139.83033,331.433391 C144.043324,299.312504 153.37886,229.551406 162.667078,159.295583 L171.801393,89.8422203 C174.801506,66.8754131 177.588588,45.3393801 179.948801,26.7705047 Z" id="bp-thigh-medial-left-back" fill="#FFFFFF"></path>
                    <path d="M83.1546186,0 L175.599567,25.5608154 L172.530004,49.5359669 C168.64285,79.6996285 164.026544,114.889819 159.345486,150.33294 L135.224192,332.204694 C134.453279,338.090209 133.868542,342.608189 133.505073,345.506509 L130.515823,345.059916 C125.133959,344.240303 120.293389,343.415445 115.992934,342.576797 L113.79213,342.137787 C104.100662,340.162683 92.399166,337.242229 78.7063755,333.380111 L79.1291955,330.64888 C79.7690326,326.45815 80.4306209,321.867014 81.0669639,317.173437 L81.5526486,313.532875 C83.044363,302.165181 84.3205456,290.64863 84.7353471,283.12762 L84.7751584,282.364008 C86.2004525,252.71286 86.2004525,200.503813 85.6635267,147.487385 L85.4548288,128.912043 C84.8805435,82.1834267 83.9683717,36.806685 83.3303398,7.76647374 L83.1546186,0 Z" id="bp-thigh-lateral-left-back" fill="#FFFFFF"></path>
                </g>
                <g id="bp-pelvic-region-back" transform="translate(216.6821, 802.7764)">
                    <path d="M187.585009,120.187829 L187.585009,195.014102 L164.959229,188.878824 C152.584506,154.205647 162.081152,122.590785 186.830271,120.249781 L187.585009,120.187829 Z M192.054529,120.188078 C217.361555,121.955411 227.175771,153.857059 214.676639,188.878824 L192.052042,195.014102 L192.054529,120.188078 Z" id="bp-intergluteal-cleft" fill="#FFFFFF"></path>
                    <path d="M241.452391,0 L245.488743,0.121643115 C263.692383,0.713325509 282.332923,1.91798602 297.204086,4.34656753 C318.798268,7.87855685 340.529122,15.5279481 362.396647,27.2947412 C373.877098,57.4434898 379.636848,96.392941 379.636848,144.143095 L219.865689,187.473328 C231.698112,150.933062 220.511307,117.372712 192.052445,115.708635 L192.052445,86.7874097 C215.392675,82.8990922 241.452391,48.1115925 241.452391,0 Z" id="bp-buttock-right" fill="#FFFFFF"></path>
                    <path d="M138.184457,0 C138.184457,48.5988066 164.239637,82.9310083 187.586535,86.7891091 L187.584081,115.708531 C159.125031,117.371303 147.937506,150.932295 159.770179,187.473328 L0,144.143095 C0,96.392941 5.7597501,57.4434898 17.2402011,27.2947412 C39.1077269,15.5279481 60.8385807,7.87855685 82.4327624,4.34656753 C98.4054927,1.73809109 118.72671,0.541572902 138.184457,0 Z" id="bp-buttock-left" fill="#FFFFFF"></path>
                </g>
                <g id="bp-upper-limb-right-back" transform="translate(581.694, 321.7184)">
                    <path d="M155.825646,580.4561 L155.669449,580.514642 L155.942793,580.631724 L157.485235,584.885722 L157.485235,584.846695 C158.656709,586.64196 160.550593,588.671391 162.171133,590.037353 L163.908821,591.11061 L164.728853,591.637481 L166.979551,593.064681 C170.327601,595.207202 173.971299,597.63796 176.287402,599.540551 L176.482648,599.716175 C181.031874,603.501843 190.735589,609.551106 196.163421,615.580856 C198.916386,618.644515 201.610778,625.708494 206.179529,629.299025 L206.413824,629.474648 C208.698199,631.191859 212.115,634.860444 215.473227,638.665626 L220.81028,644.749858 C222.317233,646.456408 223.639094,647.919737 224.610729,648.890833 C228.554694,652.813097 233.631084,653.496078 230.136184,658.39403 C226.641285,663.291983 217.796652,661.76991 213.169327,660.072213 C205.41807,657.242719 198.857813,649.456732 193.547128,644.968568 L193.00044,644.519752 L190.353032,642.231646 C187.412428,639.748782 186.452095,639.718377 185.737297,647.037026 C184.854652,656.242135 193.777708,683.973515 195.92033,693.335896 L196.143896,694.357877 L196.261044,694.962804 L196.584736,696.5838 C197.126634,699.395678 197.67983,702.729278 198.233026,706.144184 L198.662567,708.837082 L200.025982,717.253396 C200.638335,720.95042 201.212066,724.096837 201.688876,725.970158 L201.727925,726.145781 C203.192269,731.668173 202.821302,739.356592 197.081076,740.624986 C193.371407,741.444564 191.497047,738.829721 190.052229,735.609952 L189.896032,735.258704 C189.75936,734.946484 189.622688,734.61475 189.486016,734.283016 L189.388393,734.029338 L189.193147,733.561008 L188.763607,732.468237 C188.594394,732.038935 188.425181,731.618305 188.250182,731.206348 L187.826427,730.243669 C187.005367,728.462783 186.074894,725.135336 185.132904,721.379524 L184.487724,718.769583 L182.632889,710.866513 C182.008103,708.232156 181.422366,705.910019 180.953776,704.348919 L180.817104,703.919617 C180.172793,701.773104 179.255138,698.026463 178.220335,694.221281 L177.888417,693.030942 C177.849368,692.91386 177.829844,692.777263 177.790794,692.660181 L177.634598,692.113796 L177.536975,691.743035 C177.497926,691.625952 177.458877,691.50887 177.439352,691.372273 L177.341729,691.021026 L177.059436,690.060705 C175.591814,685.146741 173.99001,681.048907 172.577733,681.342204 C170.17074,681.846092 173.345127,693.831499 175.443141,701.272285 L176.521697,705.070928 L176.892664,706.436891 C177.458877,708.524862 178.103188,711.139705 178.747499,713.891144 L179.040367,715.140025 L180.148539,720.113617 C180.877772,723.454706 181.487831,726.484402 181.793333,728.42889 L181.851906,728.858193 C182.374476,732.394774 183.616347,737.66585 184.704418,742.114652 L185.717773,746.225433 C186.908772,751.04533 185.15156,758.32396 179.879924,758.928887 C174.647338,759.533813 171.621028,755.51398 170.761947,752.938164 L170.761947,752.860109 L170.625275,752.508862 L170.250153,751.198994 C169.894099,749.923489 169.439854,748.226987 168.965686,746.401057 L167.310673,740.170072 C167.026194,739.11511 166.755061,738.12875 166.511576,737.28722 L166.095573,735.883144 L165.343154,733.433445 C164.740242,731.500138 163.983665,729.115124 163.186411,726.594598 L162.112559,723.27726 L159.969647,716.838534 C159.86886,716.539052 159.76961,716.245804 159.671987,715.959602 L159.203398,714.593639 C158.335639,712.100215 157.015922,707.382056 155.555362,702.620634 L154.888558,700.478978 C152.839596,694.006634 150.614081,688.068058 149.011569,688.269587 C147.56675,688.44521 148.640602,693.831006 150.319715,699.919297 L150.417338,700.290058 L150.80783,701.616994 L151.334993,703.451286 L151.530239,704.114754 L152.309087,706.631114 C153.086104,709.105396 153.843901,711.417776 154.458925,713.247191 L155.552302,716.46696 L155.786597,717.208482 L156.444972,719.26597 C157.223376,721.735943 158.193862,724.930189 159.164348,728.27278 L160.218676,731.96088 L160.882511,734.419613 C161.936838,738.380905 162.79592,742.029976 163.108313,744.332599 L163.147362,744.644819 C163.869771,750.791652 162.112559,753.094274 158.324792,754.206558 C154.728783,755.260301 152.203912,754.118522 150.102438,750.781223 L149.773027,750.245266 C148.714921,748.432376 146.687697,742.653787 144.611516,736.428932 L143.759457,733.853714 L142.197491,729.111872 L140.44198,723.719762 C140.0417,722.504394 139.677033,721.410166 139.362974,720.485787 L138.995461,719.413537 C138.197123,717.123923 137.352504,714.371761 136.502743,711.499679 L133.762757,702.146285 C133.263475,700.464746 132.782467,698.892796 132.328169,697.523164 L131.543127,695.163861 C129.954668,690.25672 129.49392,687.644517 128.178845,687.918339 C126.812125,688.211045 127.378338,691.35276 129.057451,697.148344 L129.526041,698.748472 L131.673745,705.851478 L137.777635,725.912085 C138.094987,726.970433 138.349197,727.833721 138.526871,728.448404 L138.858789,729.638743 C138.917362,729.853394 138.975936,730.068046 139.03451,730.302211 L139.112608,730.575403 L139.24928,731.121788 L139.327379,731.394981 L139.493181,732.093341 C140.338671,735.828924 140.495408,739.681439 136.691561,740.820124 C131.809508,742.26868 130.83913,737.815744 127.940205,732.607318 L127.456436,731.746228 L127.26119,731.414495 L126.771917,730.526893 C123.804204,725.050525 120.25084,716.83464 115.663592,704.485515 L115.370723,703.665938 C114.605415,701.57082 113.840575,699.352047 113.094428,697.098224 L112.488486,695.248163 L111.893104,693.393245 L110.783621,689.844431 C107.780087,680.08131 105.510812,671.468245 105.510812,671.468245 L105.37414,670.375475 C105.198419,668.833888 104.866501,665.82877 104.632206,662.433377 L104.515059,660.247837 L104.515059,659.701452 L104.476009,659.291663 C104.476009,658.881874 104.456485,658.472085 104.43696,658.08181 L104.397911,656.130435 L104.296129,652.207859 C104.247982,650.562615 104.187885,648.745963 104.120057,646.89278 L104.046469,644.890513 L103.96837,642.997679 L103.832919,640.047139 C103.75238,638.399751 103.660858,636.870361 103.558354,635.582453 L103.499781,634.899472 C103.28501,632.245601 103.499781,627.796466 103.851223,623.249761 L103.909797,622.391156 L103.987895,621.454496 L104.026944,620.908111 L104.434968,616.624927 C104.655516,614.406077 104.876064,612.384227 105.060302,610.803037 L105.237468,609.336455 C105.647484,605.902035 105.940353,601.569981 105.745107,598.116047 L105.881779,598.116047 L104.729829,593.491288 L104.788403,593.374205 L102.873946,587.233032 C101.7814,583.71045 100.775727,580.42541 99.8565607,577.378647 C110.114095,575.973214 118.832587,574.384967 126.018847,572.614165 L127.501722,572.241274 C133.577369,570.684241 141.382718,568.341597 150.9156,565.21446 L151.713707,567.791719 C152.823552,571.31207 154.131802,575.241459 155.825646,580.4561 Z" id="bp-hand-right-dorsal" fill="#FFFFFF"></path>
                    <path d="M113.388461,358.887367 L114.004003,360.57513 C121.832382,382.134705 132.435486,437.814046 134.16234,451.232691 L134.565277,454.643023 C135.456673,462.443251 137.03337,477.405052 138.819143,493.066501 L140.181854,504.772503 C141.866998,518.913061 143.626595,532.310066 145.106653,540.1602 L145.799508,543.782583 C147.274873,551.345295 148.406317,556.306953 149.674005,560.921962 L146.192878,562.05419 C137.505681,564.853288 130.421374,566.928712 124.950061,568.276926 L122.853567,568.777853 C116.07569,570.348712 107.977614,571.773114 98.5629354,573.049401 L97.1109905,568.09873 C96.119328,564.670061 95.2882349,561.685643 94.6160982,559.147082 C92.4254407,550.847232 83.9978525,535.138574 78.1574355,524.657359 L73.2366868,515.904605 C71.0936693,512.07991 60.6051292,487.473348 50.9020357,462.934346 L49.0801593,458.303444 C42.1651612,440.634371 35.9608409,423.686539 33.9141896,415.330722 L33.1503943,412.18918 C30.6313019,401.750519 29.2416239,395.144964 28.1934965,388.765327 L27.9220727,387.070336 L27.7562352,385.990346 L27.5947415,384.904664 C27.3089018,382.952874 27.0398694,380.954966 26.7656623,378.810295 L29.4122286,377.532807 C45.9985592,369.565139 59.2549328,363.936153 69.1757415,360.646141 C79.4162993,357.250093 93.1842546,353.98326 110.429503,350.862411 L112.180838,355.594845 C112.578102,356.673958 112.980685,357.771431 113.388461,358.887367 L113.388461,358.887367 Z" id="bp-forearm-right-back" fill="#FFFFFF"></path>
                    <path d="M96.9004737,314.503159 L97.7574604,316.982477 C100.235626,324.036959 104.040174,333.783161 108.843471,346.608681 L105.776748,347.176627 C90.1240864,350.119635 77.4489896,353.196294 67.7696387,356.406231 L66.1448628,356.955399 C55.9566365,360.461714 42.6455821,366.18405 26.1845451,374.128285 L24.2471324,358.22834 C23.7884442,354.554007 23.2639165,350.443929 22.6485089,345.783705 L22.4379434,344.277935 C21.1824966,335.776207 18.3461743,323.678017 15.1753847,309.635031 L18.1384775,309.34601 C34.7192359,307.702665 47.7286146,305.964727 57.1836784,304.128843 C66.4395204,302.331641 78.3851571,299.251506 93.0303915,294.887525 L93.3067258,297.070376 C94.1350457,303.30517 95.3473421,309.876009 96.9004737,314.503159 Z" id="bp-elbow-right-back" fill="#FFFFFF"></path>
                </g>
                <g id="bp-back" transform="translate(209.5278, 259.9183)">
                    <path d="M157.956571,533.398432 L235.989778,533.396857 L235.988144,533.494647 C235.230589,578.706692 222.225862,606.615123 196.972173,617.219187 C171.70248,606.607603 158.697279,578.6671 157.956571,533.398432 Z" id="bp-sacrum" fill="#FFFFFF"></path>
                    <path d="M160.947614,343.789906 L153.774163,529.259482 L149.625317,529.288683 C82.6958731,529.927215 56.3954678,538.483412 28.3188806,554.971139 C39.6072098,514.63387 48.6183505,439.583946 48.7974445,419.701897 L48.815322,408.54201 C65.3332982,409.548828 90.0383395,405.126445 110.066893,396.117143 C127.057618,388.465415 144.875633,370.551223 160.229709,344.993512 L160.947614,343.789906 Z" id="bp-lower-back-structure-left" fill="#FFFFFF"></path>
                    <path d="M233.029538,343.845286 C248.537209,370.014762 266.633294,388.351281 283.876565,396.116744 C303.906557,405.126692 328.612797,409.549132 345.130806,408.541898 L345.148864,419.701897 L345.170156,420.960302 L345.211284,422.317839 C346.045212,445.473465 354.786117,516.231225 365.627428,554.971139 L363.876827,553.952284 L362.197358,552.99294 C334.772463,537.478906 307.391987,529.572169 240.219916,529.259703 L233.029538,343.845286 Z" id="bp-lower-back-structure-right" fill="#FFFFFF"></path>
                    <path d="M227.956266,332.736491 C228.260351,333.319866 230.854208,398.717661 235.737837,528.929875 L158.259831,528.929875 L165.702942,332.736491 L227.956266,332.736491 Z" id="bp-lumbar-vertebral-spine" fill="#FFFFFF"></path>
                    <path d="M232.652094,334.125964 L229.507407,252.991085 L233.597357,254.140119 C249.684438,258.619208 262.497827,261.693502 271.998673,263.355798 L272.782741,263.491054 C282.927446,265.215645 298.744859,266.864795 320.388211,268.461672 L320.365091,268.695068 C316.823502,305.72228 325.240929,333.043982 345.707043,350.438607 L345.656551,352.15255 L345.550842,356.210517 L345.459622,360.301197 L345.3586,365.791182 C345.287273,370.154585 345.236436,374.512517 345.200649,378.782192 L345.157577,385.110166 L345.126372,394.218086 L345.122621,402.100476 L345.126372,404.081651 C329.534242,405.10737 305.27206,400.842814 285.709984,392.043345 C267.842217,383.996643 248.621497,363.547942 232.652094,334.125964 Z" id="bp-infrascapular-region-right" fill="#FFFFFF"></path>
                    <path d="M164.458286,252.984796 L161.324163,334.067153 C145.348456,363.520694 126.113989,383.991302 108.233474,392.043745 C88.6728758,400.842549 64.4119404,405.107055 48.8197675,404.081772 L48.8236879,402.100476 L48.8199369,394.218086 L48.7887316,385.110166 L48.7456593,378.782192 L48.6800118,372.321835 C48.6539134,370.153217 48.6233726,367.972883 48.5877092,365.791182 L48.486687,360.301197 L48.3954671,356.210517 L48.2897575,352.15255 L48.23909,350.437089 C68.7468945,333.005854 77.1560486,305.60638 73.5567805,268.461614 L80.1308993,267.960854 C97.5826719,266.587323 110.794973,265.173943 119.863997,263.70623 L121.161605,263.491054 C130.977042,261.822438 144.470293,258.586411 161.595933,253.791398 L164.458286,252.984796 Z" id="bp-infrascapular-region-left" fill="#FFFFFF"></path>
                </g>
                <g id="bp-upper-limb-left-back" transform="translate(0, 321.7184)">
                    <path d="M79.9891671,566.520077 L80.3903739,565.21446 L85.0128439,566.712649 C93.2234069,569.339457 99.9820585,571.306916 105.287127,572.614165 C112.473387,574.384967 121.191879,575.973214 131.447165,577.381009 L130.639305,580.049606 C130.086407,581.867748 129.504883,583.76399 128.894861,585.737987 L126.517572,593.374205 L126.576145,593.491288 L125.424195,598.116047 L125.560867,598.116047 C125.365622,601.569981 125.65849,605.902035 126.068506,609.336455 L126.185654,610.292629 C126.419949,612.266306 126.725967,615.071507 127.01764,618.130672 L127.27903,620.908111 L127.318079,621.454496 L127.396178,622.391156 L127.454751,623.249761 L127.566435,624.759387 C127.848617,628.762999 127.997101,632.540476 127.806194,634.899472 L127.74762,635.582453 L127.648777,636.946281 C127.569458,638.142261 127.497766,639.477352 127.433701,640.880094 L127.337604,642.997679 L127.259506,644.890513 L127.090501,649.628296 C127.051139,650.816918 127.016151,651.959331 126.986786,653.015572 L126.908063,656.130435 L126.869014,658.08181 C126.849489,658.472085 126.829965,658.881874 126.829965,659.291663 L126.790916,659.701452 L126.790916,660.247837 L126.673768,662.433377 L126.581827,663.686259 C126.358934,666.557182 126.08559,669.026587 125.931834,670.375475 L125.795162,671.468245 C125.795162,671.468245 123.803159,679.028921 121.081611,688.012395 L119.995473,691.544252 L119.41287,693.393245 C119.019962,694.62908 118.618535,695.868866 118.211546,697.098224 L117.802812,698.323574 C117.341148,699.696983 116.873693,701.051128 116.404657,702.365535 L115.642382,704.485515 L114.887337,706.505671 C110.413582,718.399848 106.948808,726.238215 104.044784,731.414495 L103.849538,731.746228 L103.161904,732.977994 C100.418419,738.024443 99.3802264,742.23419 94.6144134,740.820124 C90.5728261,739.610271 91.0023668,735.336759 91.9785956,731.394981 L92.0566939,731.121788 L92.1933659,730.575403 L92.2714642,730.302211 L92.4471854,729.638743 L92.9498261,727.861899 C93.2016151,727.002045 93.5483715,725.837464 93.9701024,724.448085 L101.342766,700.209564 C101.501708,699.681473 101.648142,699.19241 101.779933,698.748472 L102.248523,697.148344 C103.927636,691.35276 104.493849,688.211045 103.127129,687.918339 C101.766707,687.635075 101.320547,690.440304 99.5944198,695.679659 L99.2026889,696.855638 C98.6833352,698.371857 98.1257133,700.184489 97.5432171,702.146285 L95.1220524,710.417696 C94.2716486,713.314405 93.4212449,716.134021 92.6119793,718.533919 L91.6126269,721.464978 C90.9203635,723.529377 90.0456625,726.208225 89.1084828,729.111872 L86.9022057,735.805089 C84.7545022,742.264141 82.6263234,748.371946 81.5329471,750.245266 L81.4353242,750.401376 C79.2876208,754.030935 76.7103767,755.299329 72.9811826,754.206558 C69.1934147,753.094274 67.4362028,750.791652 68.1586121,744.644819 L68.1976613,744.332599 C68.5100545,742.029976 69.3691359,738.380905 70.423463,734.419613 L71.0872986,731.96088 L72.1416258,728.27278 L73.0318638,725.246222 C73.6178952,723.278975 74.1815446,721.435015 74.6780483,719.848559 L75.7536724,716.46696 L76.8470487,713.247191 C77.6670809,710.807971 78.7409327,707.510147 79.7757352,704.114754 L79.970981,703.451286 L80.4981445,701.616994 L80.8886361,700.290058 L81.4128676,698.336374 C81.4812099,698.076271 81.548065,697.818279 81.6132714,697.56278 L81.8406136,696.654407 L82.0587916,695.742565 C83.0344235,691.557548 83.3944956,688.403307 82.2944056,688.269587 C79.3929915,687.90471 74.4493333,707.667467 72.2088572,714.283889 L71.0251092,717.754867 C70.6056924,718.999411 70.1631353,720.330683 69.7205783,721.696646 L69.1934147,723.27726 L68.119563,726.594598 L65.7866699,733.99957 L65.2104011,735.883144 L64.937057,736.800291 C64.56609,738.049171 64.1170248,739.70784 63.6484349,741.464078 L61.2806104,750.385504 C61.0452909,751.244848 60.8396851,751.973627 60.6806993,752.508862 L60.5440273,752.860109 L60.5440273,752.938164 C59.6849459,755.51398 56.6586365,759.533813 51.42605,758.928887 C46.1544143,758.32396 44.3972024,751.04533 45.5882016,746.225433 L46.3535904,743.125539 C47.4943137,738.487049 48.8913006,732.666818 49.4540678,728.858193 L49.5126415,728.42889 L49.6616768,727.531353 C49.9948783,725.61242 50.5323784,722.977408 51.1574351,720.113617 L51.9922627,716.349877 L52.2656068,715.140025 L52.9871591,712.081371 C53.4141286,710.3004 53.8333848,708.618684 54.2217872,707.15186 L54.608556,705.714882 L54.7842772,705.070928 C55.4388469,702.743169 56.6215617,698.716199 57.6499869,694.632736 L57.9143231,693.567283 C59.3873097,687.534696 60.3934564,681.690806 58.7282416,681.342204 C57.2248492,681.029984 55.5066865,685.693771 53.964245,691.021026 L53.8666221,691.372273 C53.8470975,691.50887 53.8080483,691.625952 53.7689992,691.743035 L53.6713763,692.113796 L53.5151797,692.660181 C53.4761305,692.777263 53.456606,692.91386 53.4175568,693.030942 L53.085639,694.221281 L52.3339428,697.040104 C51.6090929,699.799775 50.9721036,702.309732 50.4888703,703.919617 L50.3521983,704.348919 L50.1085026,705.190811 C49.687278,706.692738 49.1937401,708.671215 48.6730847,710.866513 L46.8182499,718.769583 L46.0069766,722.03764 C45.177303,725.303711 44.3610795,728.18507 43.6255561,729.913569 L43.3233507,730.594917 C43.1411213,730.998201 42.9675695,731.410158 42.7969103,731.830788 L42.112827,733.561008 L41.9175812,734.029338 L41.8199583,734.283016 C41.6832863,734.61475 41.5466142,734.946484 41.4099422,735.258704 L41.2537456,735.609952 C39.8089269,738.829721 37.9345676,741.444564 34.224898,740.624986 C28.4846725,739.356592 28.1137055,731.668173 29.5780488,726.145781 L29.6170979,725.970158 C30.1833107,723.74559 30.8861954,719.725757 31.6281293,715.120511 L32.6434073,708.837082 L33.072948,706.144184 C33.7367836,702.046296 34.4006192,698.065491 35.0449302,694.962804 L35.1620777,694.357877 L35.2792251,693.811492 C37.2121582,684.952248 46.4668075,656.403628 45.568677,647.037026 L45.4779229,646.160117 C44.7704132,639.725168 43.7710206,639.852235 40.952942,642.231646 L38.3055345,644.519752 L37.7588464,644.968568 C32.4481615,649.456732 25.8879038,657.242719 18.1366469,660.072213 C13.5093222,661.76991 4.66468904,663.291983 1.16978983,658.39403 C-2.32510938,653.496078 2.75128054,652.813097 6.69524501,648.890833 L7.28221236,648.289536 C8.31926024,647.205157 9.64087883,645.723673 11.1079555,644.054856 L15.8327469,638.665626 L17.3438832,636.968639 C20.0230846,633.989943 22.6254374,631.272887 24.5411498,629.746638 L25.1264453,629.299025 C29.6951962,625.708494 32.3895878,618.644515 35.1425531,615.580856 C40.5703854,609.551106 50.2741,603.501843 54.8233263,599.716175 L55.0185721,599.540551 C57.8691603,597.198901 62.7307798,594.057186 66.5771214,591.637481 L67.3971537,591.11061 L69.134841,590.037353 C70.7553808,588.671391 72.6492648,586.64196 73.8207394,584.846695 L73.8207394,584.885722 L75.3631809,580.631724 L75.636525,580.514642 L75.4803284,580.4561 L78.9378383,569.844798 C79.3091718,568.689489 79.6577321,567.590087 79.9891671,566.520077 L79.9891671,566.520077 Z" id="bp-hand-left-dorsal" fill="#FFFFFF"></path>
                    <path d="M119.367887,354.935402 L120.876346,350.862389 L123.973528,351.431422 C139.777545,354.3797 152.510292,357.455906 162.130233,360.646141 L163.724413,361.185061 C173.996439,364.72132 187.603753,370.596526 204.539615,378.809143 C204.247894,381.096298 203.961569,383.215882 203.654417,385.290473 L203.299088,387.609413 C202.900096,390.124814 202.455212,392.641424 201.915819,395.381825 L201.678723,396.570633 C200.665532,401.586499 199.328828,407.417381 197.391785,415.330722 L197.14404,416.307111 C194.936215,424.739137 189.184164,440.470796 182.732566,457.006621 L180.403938,462.934346 L177.207716,470.951776 C168.508828,492.601557 159.978194,512.497733 158.069287,515.904605 L153.542636,523.950979 C147.824376,534.188057 139.318397,549.939764 136.8488,558.569851 L135.893534,562.093201 C135.034046,565.21601 133.984984,568.86862 132.745143,573.048622 C122.338343,571.638949 113.540424,570.047297 106.355913,568.276926 L104.132771,567.712282 C98.2411605,566.17449 90.7381402,563.909925 81.6346911,560.921404 L82.0851925,559.241296 C83.2755085,554.700247 84.3952765,549.590014 85.8674031,541.916438 L86.1993209,540.1602 C87.8393853,531.461403 89.8226967,515.951583 91.6675951,500.166375 L92.869903,489.690062 C94.5683917,474.647106 96.0383839,460.698471 96.8468043,453.72055 L97.0940347,451.626302 C97.9374964,444.776975 101.45684,425.124674 105.7613,405.064727 L106.242708,402.834796 C109.795318,386.478904 113.822692,370.157164 117.301971,360.57513 L119.367887,354.935402 Z" id="bp-forearm-left-back" fill="#FFFFFF"></path>
                    <path d="M138.131805,296.049158 L138.277373,294.888059 L141.170268,295.743682 C154.502509,299.656717 165.483862,302.451523 174.122296,304.128843 L175.827771,304.451813 C185.701252,306.276223 199.130044,308.002873 216.128583,309.635014 L212.863591,324.103739 C211.022318,332.377201 209.530616,339.51937 208.758289,345.040866 L207.668315,353.400201 C206.546231,362.191064 205.782345,368.712626 205.122471,374.128649 L202.480434,372.85976 C186.35821,365.155083 173.3867,359.672881 163.536335,356.406231 C153.23287,352.98932 139.534879,349.72343 122.464385,346.610725 L126.27176,336.5101 C129.432736,328.166279 131.980741,321.49397 133.776946,316.328994 L134.405501,314.503159 C136.043668,309.622667 137.302656,302.579822 138.131805,296.049158 L138.131805,296.049158 Z" id="bp-elbow-left-back" fill="#FFFFFF"></path>
                </g>
            </g>
        </g>
        <g id="viewport-boundary" mask="url(#mask-2)" stroke="#FF0000" stroke-width="3">
            <g transform="translate(260, 190)" id="boundary">
                <rect x="0" y="0" width="560" height="1080"></rect>
            </g>
        </g>
    </g>
</svg>