<?xml version="1.0" encoding="UTF-8"?>
<svg width="1080px" height="1460px" viewBox="0 0 1080 1460" version="1.1" xmlns="http://www.w3.org/2000/svg" xmlns:xlink="http://www.w3.org/1999/xlink">
    <title>middle-finger-right-dorsal</title>
    <defs>
        <rect id="path-1" x="0" y="0" width="1080" height="1460"></rect>
    </defs>
    <g id="middle-finger-right-dorsal" stroke="none" stroke-width="1" fill="none" fill-rule="evenodd">
        <mask id="mask-2" fill="white">
            <use xlink:href="#path-1"></use>
        </mask>
        <g id="mask"></g>
        <g id="bp-middle-finger-right-dorsal" mask="url(#mask-2)" fill="#FFFFFF" fill-rule="nonzero">
            <g transform="translate(430.06, 400.1842)">
                <path d="M145.679046,529.628321 C168.721849,527.250066 189.570533,527.027436 208.2142,528.950853 L218.662616,618.352866 L218.662616,620.963446 C221.274059,646.119943 210.353478,697.382237 169.282597,701.654095 L169.045193,701.41677 C128.923927,705.451302 112.78046,677.921551 104.708726,662.495398 L104.233918,661.546096 C100.12534,653.829502 96.473813,637.170709 93.4847892,619.374276 L93.1211465,617.184088 L92.7674456,615.0056 L92.2823479,611.94043 L91.7053814,608.177997 L91.3756089,605.970449 C89.6360289,594.215811 88.2049738,582.810631 87.1408342,573.973009 L86.4286224,567.327897 L85.2795265,557.801142 C84.6729118,552.800163 84.0345275,547.57834 83.367496,542.158671 C101.433237,536.244021 122.166597,532.073505 145.679046,529.628321 Z M151.807378,597.523589 C140.794218,599.510185 130.191473,603.84253 119.999143,610.520624 C113.992243,614.456378 110.88062,621.524247 112.082492,628.502808 L117.559943,660.307122 C121.608415,683.814199 144.17396,699.391998 167.961498,695.10111 L170.311393,694.677227 C194.098931,690.386339 210.100606,667.851636 206.052134,644.344559 L200.608098,612.734264 C199.394983,605.6904 194.0239,600.105489 186.981828,598.565513 C174.641638,595.866933 162.916821,595.519625 151.807378,597.523589 Z" id="bp-distal-phalanx-middle-finger-right-dorsal"></path>
                <path d="M153.630373,607.211621 C163.476944,605.435458 173.86546,605.789283 184.796595,608.179727 C186.28188,608.504533 187.595469,609.249493 188.598211,610.292156 C189.579987,611.313017 190.260983,612.618138 190.511774,614.074336 L195.95581,645.684631 C197.500767,654.655277 195.201782,663.43343 190.268192,670.381264 C185.294089,677.386152 177.641957,682.539348 168.49624,684.189088 L166.146346,684.612971 C157.043884,686.254908 148.168564,684.113314 141.184364,679.291872 C134.258502,674.510703 129.201438,667.093292 127.66411,658.166943 L122.186659,626.362629 C121.933767,624.894233 122.141801,623.41806 122.721372,622.1016 C123.320397,620.740953 124.315131,619.549813 125.619288,618.695322 C134.596951,612.813088 143.925089,608.962297 153.630373,607.211621 Z" id="bp-nail-of-middle-finger-right"></path>
                <path d="M130.054088,437.73311 L131.541022,437.548872 C155.87933,434.508086 177.795137,434.010136 197.349416,436.025046 L206.786692,516.754935 C187.957888,515.025671 167.174288,515.346047 144.442431,517.692209 C121.083954,520.12138 100.255155,524.219959 81.8615578,530.036341 L78.4382906,502.623471 L75.3721969,478.397727 C74.2143191,469.291375 73.0220341,459.958007 71.8039234,450.460062 C88.8832595,444.71657 108.298902,440.469609 130.054088,437.73311 L130.054088,437.73311 Z" id="bp-distal-interphalangeal-joint-middle-finger-right-dorsal"></path>
                <path d="M121.087401,295.591183 L122.519691,295.413814 C143.710152,292.766315 163.064226,292.046422 180.622158,293.234351 L195.924353,423.830305 C176.508105,422.060732 155.072682,422.605433 131.573139,425.454367 L130.070364,425.639343 C107.913642,428.343187 87.9695259,432.571034 70.2431653,438.336185 L65.5780057,402.200851 L58.8972808,350.940461 L53.7278234,311.593701 C72.9150661,304.165169 95.3667283,298.822912 121.087401,295.591183 L121.087401,295.591183 Z" id="bp-middle-phalanx-middle-finger-right-dorsal"></path>
                <path d="M104.221676,199.728404 L105.664046,199.549769 C129.112825,196.62012 150.312943,196.050828 169.318931,197.815088 L170.992641,212.528014 L172.352487,224.217426 C173.642337,235.220378 175.052597,247.025926 176.593754,259.729259 L179.197695,281.12064 C161.887722,280.108923 143.052292,280.839552 122.662022,283.305963 L121.049033,283.504286 C95.0123276,286.681614 72.0310004,291.963434 52.1134097,299.371325 L42.4537451,226.624486 C41.8906714,222.413461 41.33821,218.287278 40.7974921,214.254269 C59.0987229,207.591359 80.2390294,202.742369 104.221676,199.728404 L104.221676,199.728404 Z" id="bp-proximal-interphalangeal-joint-middle-finger-right-dorsal"></path>
                <path d="M161.627501,6.34612636 C159.365639,16.3500009 159.098411,30.0412183 159.075998,48.1975702 L159.074227,62.7740157 L159.14064,69.3435448 L159.196476,72.6597329 C159.707879,99.3252455 161.806657,129.564293 167.961396,185.650065 C149.102084,184.103651 128.363838,184.707773 105.706707,187.453986 L104.193389,187.64024 C79.8396105,190.612197 58.1589967,195.425381 39.1583868,202.097456 L32.9356063,156.138062 C31.1582634,143.165648 29.7971436,133.415053 28.9768694,127.801186 L28.4461318,124.287036 C21.6549459,80.5878336 9.07501977,45.5293945 1.6754165,30.7350815 L0.547774479,28.5051986 L0,27.4440335 C18.9171116,13.8626143 50.0466502,3.44839918 79.513628,0.951522921 C107.115401,-1.38730575 135.722407,0.650781522 161.627501,6.34612636 Z" id="bp-proximal-phalanx-middle-finger-right-dorsal"></path>
            </g>
        </g>
        <g id="decoration" opacity="0.15" mask="url(#mask-2)">
            <g transform="translate(-55.0465, -708.2428)">
                <g id="bp-thumb-right-dorsal" stroke-width="1" fill="none" fill-rule="evenodd" transform="translate(842.9148, 533.9265)">
                    <path d="M351.8643,234.595639 L353.593703,236.284516 C363.23005,245.583008 376.567831,256.661812 398.336749,273.929264 L400.948193,276.065193 L415.990767,288.028532 C452.078021,316.818551 453.231662,318.852596 451.752635,327.090162 L451.752635,327.564813 C443.680901,362.451652 406.645887,378.115131 355.366636,368.622113 C330.238758,363.700728 303.427138,353.552615 276.501444,340.225318 C285.076559,318.971232 298.503946,296.607032 316.757624,273.243228 C328.415108,258.318405 340.105315,245.448885 351.8643,234.595639 Z M344.64588,332.812028 C364.772637,347.594664 400.260994,362.136707 424.729812,348.406823 C448.629589,334.996238 446.181761,318.789267 440.036645,313.42942 L439.591726,313.065205 L429.789404,305.526659 C406.905585,287.863785 395.758366,278.763074 386.711278,271.158987 L378.7904,264.456221 C360.470398,248.91483 324.519124,318.029393 344.64588,332.812028 Z" id="bp-distal-phalanx-thumb-right-dorsal" fill="#FFFFFF" fill-rule="nonzero"></path>
                    <path d="M330.914031,209.139419 C334.555807,214.446016 337.908711,219.030669 341.644531,223.519062 L342.513747,224.553421 C344.084018,226.404197 345.72855,228.246749 347.494795,230.125272 C335.516694,241.19459 323.643583,254.274442 311.833647,269.394445 C293.381418,293.012385 279.718913,315.712103 270.900277,337.406916 C244.356018,323.849039 217.807961,307.340743 192.757121,289.842449 C200.992034,266.014209 215.511767,240.728546 236.277689,214.149194 C254.431434,190.907349 272.664534,172.649742 291.11315,159.228978 C304.693606,173.506262 317.122536,189.279668 330.914031,209.139419 Z" id="bp-interphalangeal-joint-thumb-right-dorsal" fill="#FFFFFF" fill-rule="nonzero"></path>
                    <path d="M272.037854,140.789693 C277.159454,145.353088 282.019971,149.955632 286.717361,154.698308 C268.008939,168.437711 249.605876,186.932563 231.353712,210.300411 C210.679805,236.761989 196.018437,262.070923 187.445761,286.105298 C182.661545,282.705352 177.934501,279.275401 173.277816,275.827867 L170.191565,273.454613 C96.2867691,219.175166 37.0510181,190.20328 0,186.288514 C12.4535195,147.208078 28.9690308,110.949998 48.5146327,85.8833392 C77.365042,48.8835394 111.54282,18.5377111 143.330835,0 L159.94021,18.8703699 C202.51326,67.0975839 257.189729,127.964002 272.037854,140.789693 Z" id="bp-proximal-phalanx-thumb-right-dorsal" fill="#FFFFFF" fill-rule="nonzero"></path>
                </g>
                <g id="bp-index-finger-right-dorsal" stroke-width="1" fill="none" fill-rule="evenodd" transform="translate(692.7518, 1030.08)">
                    <path d="M357.427326,464.311804 L363.045959,479.119121 L371.897094,502.660816 C380.413933,525.491918 386.341001,542.023477 387.777295,547.422156 C401.546723,598.2098 389.439122,629.062107 351.454492,639.267101 C312.995054,649.70942 290.204276,627.400829 247.708971,536.505186 L241.227679,523.347901 C239.894791,520.623231 238.429797,517.622456 236.853321,514.38887 C252.471698,503.444927 270.973777,493.415045 292.375362,484.322379 C315.703577,474.445463 337.406217,467.776089 357.427326,464.311804 Z M351.828325,534.411304 C339.921856,534.593295 329.068176,536.762148 319.267287,540.917862 C309.561223,545.03337 300.719803,551.168658 292.743026,559.323729 C287.659183,564.521196 286.18204,572.195126 288.992405,578.808619 L300.894678,606.81766 C309.853566,627.900175 334.45537,637.63887 355.844345,628.569644 L357.957293,627.673725 C375.140601,621.075725 389.422845,594.161684 380.463957,573.07917 L368.637988,545.249691 C365.803362,538.579117 359.165412,534.299156 351.828325,534.411304 Z" id="bp-distal-phalanx-index-finger-right-dorsal" fill="#FFFFFF" fill-rule="nonzero"></path>
                    <path d="M351.927723,540.261359 C354.330154,540.224637 356.619792,540.902836 358.539904,542.140869 C360.437455,543.364356 361.973083,545.135062 362.890909,547.294932 L374.716879,575.124411 C378.325133,583.615539 377.319982,593.201747 373.896267,601.506676 C370.110038,610.690954 363.312139,618.566393 355.627974,621.473765 L353.409446,622.414452 C344.292641,626.280105 334.490195,626.144515 326.011595,622.788237 C317.575497,619.448783 310.450723,612.917309 306.6496,603.972311 L294.747326,575.963271 C293.8382,573.823868 293.624894,571.512938 294.047592,569.316971 C294.475002,567.096528 295.551623,564.994322 297.213574,563.295226 C304.582838,555.761247 312.740849,550.076006 321.710029,546.272948 C330.805448,542.416362 340.881951,540.430194 351.927723,540.261359 L351.927723,540.261359 Z" id="bp-nail-of-index-finger-right" fill="#FFFFFF" fill-rule="nonzero"></path>
                    <path d="M326.332148,383.546985 L333.987532,403.296673 C341.317634,422.241424 348.51934,440.966371 355.157523,458.365196 C334.969232,461.971549 313.213099,468.712195 289.936005,478.567469 C268.522602,487.665155 249.907287,497.712566 234.081527,508.699905 L199.043065,436.589989 C215.353993,424.702859 234.983045,413.86487 257.951791,404.106381 C282.57881,393.679565 305.394206,386.827396 326.332148,383.546985 Z" id="bp-distal-interphalangeal-joint-index-finger-right-dorsal" fill="#FFFFFF" fill-rule="nonzero"></path>
                    <path d="M272.636385,247.680128 L274.060808,251.240009 L279.264616,264.065663 C288.579946,287.184521 302.161542,321.571711 316.593459,358.542117 L324.015627,377.591046 C302.908777,381.031219 280.056097,387.959945 255.512434,398.351471 C232.550504,408.107063 212.805987,418.954707 196.26836,430.882324 L181.070612,399.691528 C179.397056,396.265821 177.785485,392.97119 176.250386,389.838065 L174.11375,385.566207 L152.410955,341.049637 C142.824526,321.412196 133.098489,301.508025 124.542438,283.971217 C142.107026,270.02685 164.013667,257.449423 190.291669,246.284965 C216.528093,235.176744 240.708373,228.125651 262.752911,225.128194 L272.636385,247.680128 Z" id="bp-middle-phalanx-index-finger-right-dorsal" fill="#FFFFFF" fill-rule="nonzero"></path>
                    <path d="M260.141152,219.185131 L259.410655,219.289885 C237.457086,222.547139 213.584025,229.635521 187.852311,240.530055 C161.619623,251.675259 139.586221,264.245784 121.736418,278.223616 L109.065071,252.189311 L106.216224,246.256175 C97.2329117,227.784415 88.654033,210.795087 80.4657636,195.246734 C98.3302326,180.719984 120.841603,167.654147 148.033768,156.101298 C175.368777,144.527948 200.471846,137.358604 223.252952,134.589316 L228.644823,147.071685 C235.777188,163.549027 242.650901,179.298143 248.888337,193.539534 L260.141152,219.185131 Z" id="bp-proximal-interphalangeal-joint-index-finger-right-dorsal" fill="#FFFFFF" fill-rule="nonzero"></path>
                    <path d="M197.854144,74.9072085 C199.577697,79.0224316 201.317488,83.1598684 203.068133,87.3083949 L206.5823,95.6169382 L213.049885,110.817208 L217.313381,120.780257 L220.678562,128.61554 C197.760633,131.612333 172.709455,138.866167 145.594411,150.346388 C118.376447,161.910196 95.6791371,175.008402 77.4849567,189.620886 L75.0361063,185.043753 C59.1962746,155.579556 44.8696944,131.709724 31.9502088,113.11279 L21.6333983,98.3123658 C13.2531564,86.3336865 6.54130863,77.1597464 0,71.0820668 C21.1614854,50.4314031 47.0995895,32.0792215 75.410957,19.3880953 C104.116852,6.52011439 137.89945,0.11459092 168.608914,0 L170.724091,5.75012152 C180.232125,31.475649 189.579104,55.1312328 197.854144,74.9072085 Z" id="bp-proximal-phalanx-index-finger-right-dorsal" fill="#FFFFFF" fill-rule="nonzero"></path>
                </g>
                <g id="bp-ring-finger-right-dorsal" stroke-width="1" fill="none" fill-rule="evenodd" transform="translate(276.6485, 1055.6642)">
                    <path d="M70.1411581,520.687364 C91.0640818,521.817963 109.967618,524.4134 126.895472,528.474727 L126.329783,543.909236 L126.329783,546.28249 L125.93679,557.478971 C123.431674,625.625131 120.465906,642.173834 108.287084,660.436026 C86.6833253,693.186937 38.2529219,690.813682 23.2964738,657.11347 C20.9774511,651.950082 18.2371985,638.318093 16.0939959,624.070208 L15.4295225,619.497513 L14.8866406,615.501063 C12.9264979,600.584375 11.8527025,586.72605 12.8507005,583.067933 L12.8629503,582.72728 L12.787694,577.985071 C12.5840983,568.759385 11.9979303,547.889093 11.3537053,522.619304 L13.1822616,522.377799 C30.3411172,520.175422 49.3179868,519.61066 70.1411581,520.687364 Z M36.2942237,587.386142 C28.5774863,590.062867 23.6103485,597.579321 24.1737485,605.727294 L26.2873237,636.294124 C27.7838361,657.936902 45.6735698,674.781965 67.3654255,674.973471 C88.9672264,675.164182 107.002168,658.528155 108.5553,636.978567 L110.67766,607.531009 C111.243157,599.684927 106.672933,592.374873 99.3728794,589.449045 C87.5026399,584.691508 76.5912367,582.226766 66.6386699,582.054821 C57.1291455,581.890531 47.0143301,583.667638 36.2942237,587.386142 Z" id="bp-distal-phalanx-ring-finger-right-dorsal" fill="#FFFFFF" fill-rule="nonzero"></path>
                    <path d="M65.0565952,587.896236 L66.5346788,587.904674 L66.5674604,587.905249 C75.8432619,588.070615 85.9987313,590.421055 97.0525961,594.851393 C99.440636,595.808509 101.38225,597.482652 102.680544,599.559269 C103.978819,601.635857 104.63375,604.114841 104.448763,606.681475 L102.326403,636.129034 C101.668412,645.258614 97.5189076,653.347225 91.2462379,659.133343 C84.9732116,664.91979 76.5766765,668.403622 67.4244976,668.322823 C58.2098509,668.241472 49.8026403,664.623154 43.5402472,658.726453 C37.2783112,652.830183 33.1610182,644.655933 32.5253462,635.462752 L30.4117711,604.895922 C30.2274206,602.229819 30.9480651,599.667102 32.3458561,597.551913 C33.7440592,595.4361 35.8198118,593.768012 38.3455042,592.891919 C48.3039832,589.437601 57.6970442,587.751991 66.5346788,587.904674 L65.0565952,587.896236 Z" id="bp-nail-of-ring-finger-right" fill="#FFFFFF" fill-rule="nonzero"></path>
                    <path d="M11.0609248,440.067593 C29.2016872,437.441519 49.4373573,436.704326 71.8029856,437.860786 C93.4541669,439.030738 112.942938,441.769274 130.317729,446.077561 L128.520875,488.003085 C127.985381,500.83763 127.519099,512.369257 127.139286,522.11111 C110.1345,518.118844 91.2571085,515.568446 70.470994,514.445244 C48.8128409,513.32536 29.0642483,513.9518 11.1936262,516.334065 L10.417785,483.813214 L10.1799062,472.934097 L10.0437427,466.40223 C9.86309682,457.559991 9.69912199,448.778059 9.56215777,440.287274 L11.0609248,440.067593 Z" id="bp-distal-interphalangeal-joint-ring-finger-right-dorsal" fill="#FFFFFF" fill-rule="nonzero"></path>
                    <path d="M8.28889035,280.879743 L8.90916282,280.794625 C26.5639164,278.384886 46.1727189,277.73616 67.7671187,278.852743 C94.3395167,280.288619 117.654776,284.087183 137.802421,290.250589 L137.169583,302.194177 C134.847514,346.506842 132.519629,396.185262 130.59661,439.717239 C113.127589,435.474227 93.6531812,432.781544 72.1328215,431.618666 C49.0960647,430.427499 28.2197032,431.212047 9.46572277,433.983746 L9.35252291,425.800283 C9.32986081,424.011664 9.3088846,422.244141 9.28964147,420.500008 L9.28964147,416.702801 L8.98052507,385.957125 C8.82544302,368.734832 8.6867326,350.406566 8.567867,331.996581 L8.36890325,297.594177 C8.34006529,291.958266 8.31335944,286.3765 8.28889035,280.879743 Z" id="bp-middle-phalanx-ring-finger-right-dorsal" fill="#FFFFFF" fill-rule="nonzero"></path>
                    <path d="M8.05063849,188.051462 L8.21207756,188.027978 C26.35284,185.401904 46.58851,184.664711 68.9541384,185.821171 C97.5547632,187.366645 122.382049,191.649252 143.547626,198.671679 L143.088453,204.380553 C141.59621,223.595401 139.890356,251.724497 138.147796,283.824255 C117.823728,277.766859 94.5002003,274.037353 68.0969546,272.610622 C46.2127735,271.479052 26.2782177,272.130444 8.26069803,274.574602 L8.12257142,229.862466 L8.10279961,211.498131 L8.10092197,203.286631 L8.08433453,195.599825 C8.07591537,193.060584 8.06464478,190.544417 8.05063849,188.051462 Z" id="bp-proximal-interphalangeal-joint-ring-finger-right-dorsal" fill="#FFFFFF" fill-rule="nonzero"></path>
                    <path d="M0.838729893,3.76915289 C27.9255834,-2.20618316 69.3825615,-1.41056065 95.0131895,8.56383178 C119.368856,18.0420615 150.247803,49.5987369 167.619341,76.3546635 C166.717861,78.2095964 165.955222,80.0826205 165.264029,81.8366079 L163.839605,85.6338149 C155.530467,106.755779 149.595369,143.066571 144.372482,189.582357 L144.112222,192.266153 C122.691181,185.341385 97.7813917,181.118942 69.2839743,179.57905 C46.8155098,178.417268 26.4021661,179.134926 8.00867331,181.742634 L7.95887702,175.874842 C7.06408676,80.7744791 2.22623384,22.0031461 0.505695758,8.02839664 L0.505695758,7.55374577 C0.349588304,6.30529908 0.182253495,5.1065571 0,3.95686086 L0.838729893,3.76915289 Z" id="bp-proximal-phalanx-ring-finger-right-dorsal" fill="#FFFFFF" fill-rule="nonzero"></path>
                </g>
                <g id="bp-little-finger-right-dorsal" stroke-width="1" fill="none" fill-rule="evenodd" transform="translate(0, 970.4261)">
                    <path d="M15.2185654,414.852227 C29.9622702,416.313125 45.7181767,419.140102 62.4959008,423.333146 C82.2998859,428.310157 99.9385762,434.251919 115.452808,441.182583 L108.165141,464.05286 C105.982321,470.854871 104.078896,476.735727 102.553845,481.396202 L100.234276,488.415837 L99.227438,491.375283 C99.1833389,491.501968 99.1412675,491.622197 99.1012514,491.73589 L99.1012514,492.447866 C89.130286,520.452268 73.461626,546.320741 61.5914291,553.203178 C39.038055,566.493403 8.65035094,552.728527 1.52823279,526.385404 C-2.83174214,510.040904 2.42629285,473.137866 13.6224035,422.046752 L15.2185654,414.852227 Z M26.4654018,464.943301 C18.2373895,465.610388 11.5852191,471.848335 10.3525455,480.052846 L6.59386894,505.070093 C3.58159316,525.119397 16.560164,543.677721 36.0529143,549.155194 C53.5128449,554.061444 70.1930213,537.13505 77.6351526,522.884146 L77.9528767,522.266302 C82.8039006,512.683941 86.2483723,505.329615 88.2862919,500.203324 C90.5952658,492.585359 87.635262,484.293825 81.0097561,479.820349 C71.5395093,473.426133 62.4582197,469.117443 53.7658874,466.894278 C45.5238383,464.786279 36.4236764,464.135953 26.4654018,464.943301 Z" id="bp-distal-phalanx-little-finger-right-dorsal" fill="#FFFFFF" fill-rule="nonzero"></path>
                    <path d="M26.9741437,470.773656 C36.1810909,470.02722 44.5988395,470.600573 52.2218264,472.55024 C60.3006376,474.616489 68.7206016,478.661693 77.5175666,484.601316 C79.6984414,486.073821 81.2750535,488.175313 82.1173479,490.534741 C82.9307344,492.813193 83.0596973,495.334255 82.3761105,497.762374 C80.3725041,502.756939 77.0363327,509.848168 72.3817961,519.041271 C68.5162175,526.42359 62.2395056,534.411837 54.6991252,539.250802 C49.5479842,542.556497 43.7402237,544.421379 37.7468708,542.737244 C29.3979168,540.391183 22.4444947,535.231456 17.9414141,528.492651 C13.5742942,521.957309 11.5252512,513.933085 12.7773879,505.599031 L16.5360644,480.581783 C16.9365957,477.915901 18.2134383,475.56665 20.0634782,473.831808 C21.9048163,472.105126 24.3124021,470.989457 26.9741437,470.773656 Z" id="bp-nail-of-little-finger-right" fill="#FFFFFF" fill-rule="nonzero"></path>
                    <path d="M30.5456603,350.84962 C44.426678,352.383528 59.1891575,355.106309 74.8409056,359.017953 C97.5644322,364.728684 117.437181,371.709584 134.520843,379.997138 L130.534289,392.950148 L125.430371,409.401233 C122.650657,418.322511 119.927132,427.002987 117.344643,435.186676 C101.638421,428.220188 83.8729737,422.260396 64.0145931,417.269717 C47.246762,413.079144 31.4474522,410.22337 16.6056096,408.709428 L18.1235579,402.100513 C21.4723147,387.635204 25.2066694,372.227112 29.257411,355.996482 L30.5456603,350.84962 Z" id="bp-distal-interphalangeal-joint-little-finger-right-dorsal" fill="#FFFFFF" fill-rule="nonzero"></path>
                    <path d="M59.5337565,237.96909 C73.8209411,239.471878 89.0496846,242.244976 105.22861,246.288369 C129.140644,252.297789 149.895894,259.713719 167.566245,268.578675 L165.658242,274.918767 C161.816119,287.728286 157.817201,301.316152 153.659571,315.724664 L150.06338,328.184543 C145.971742,342.232356 141.254479,357.948119 136.370471,373.947361 C119.071445,365.646738 99.0860965,358.666 76.3595979,352.954523 C60.7670362,349.057671 46.0119852,346.31506 32.0855559,344.732348 L34.2326175,336.262643 C38.2148599,320.612028 42.4465471,304.291754 46.872385,287.398687 L51.6154915,268.995826 C53.0692884,263.336077 54.5689765,257.477782 56.106016,251.451315 L59.5337565,237.96909 Z" id="bp-middle-phalanx-little-finger-right-dorsal" fill="#FFFFFF" fill-rule="nonzero"></path>
                    <path d="M77.182865,167.369468 C91.7893612,168.843739 107.386477,171.654825 123.983521,175.802714 C149.236311,182.149084 170.968389,190.064113 189.264422,199.597877 L185.964961,209.688713 C180.833943,225.497736 175.31508,243.046896 169.403223,262.506094 C151.506985,253.638336 130.642277,246.23007 106.747302,240.22494 C90.6358646,236.198411 75.4186052,233.404223 61.0857177,231.848614 L65.558,214.114376 C68.9558285,200.591745 72.4407486,186.609091 75.9381984,172.432158 L77.182865,167.369468 Z" id="bp-proximal-interphalangeal-joint-little-finger-right-dorsal" fill="#FFFFFF" fill-rule="nonzero"></path>
                    <path d="M115.688324,0.528592831 L116.358792,0.482064981 C170.843202,-3.32179335 203.416427,15.5295901 225.165789,51.9401859 C228.731285,57.909181 231.932864,64.2083566 235.177794,71.4429819 L236.33795,74.0686903 C236.715198,74.9396851 237.176659,76.0217624 237.68477,77.2225609 C235.075183,80.7765293 232.953054,85.0343913 230.860437,89.469272 L230.385629,90.1812483 L228.564679,94.1385969 C220.814986,111.252909 208.454663,141.888531 191.25512,193.586474 C172.681584,184.020226 150.788626,176.094102 125.502213,169.739285 C108.959612,165.605001 93.3596875,162.769898 78.6918259,161.240729 L80.9895734,151.853125 C94.2506001,97.5419532 107.17586,42.2672181 115.688324,0.528592831 Z" id="bp-proximal-phalanx-little-finger-right-dorsal" fill="#FFFFFF" fill-rule="nonzero"></path>
                </g>
                <path d="M768.958246,910.854111 C785.031723,909.584527 800.351693,909.934046 822.514061,911.652098 C831.395981,942.864246 841.807498,974.923763 852.460251,1005.26492 C820.883034,1006.46509 787.257456,1013.50933 757.940669,1026.65116 C728.278885,1039.94763 701.154126,1058.76734 678.616784,1080.07422 L654.989667,963.61264 C678.123671,940.245241 701.056961,926.222678 738.419884,915.963706 C747.780927,913.393386 757.9374,911.724606 768.958246,910.854111 Z" id="bp-metacarpophalangeal-joint-index-finger-right-dorsal" fill="#FFFFFF" fill-rule="nonzero"></path>
                <path d="M541.606836,951.421649 C569.053307,950.171068 600.606982,957.245773 625.511154,969.167661 L650.009204,1089.90155 C622.233713,1084.01682 591.89772,1081.97428 562.510247,1084.46442 C532.681198,1086.99198 501.563385,1096.44368 478.700724,1110.21862 L466.117555,976.376374 C486.004827,963.233973 516.034177,952.58685 541.606836,951.421649 Z" id="bp-metacarpophalangeal-joint-middle-finger-right-dorsal" fill="#FFFFFF" fill-rule="nonzero"></path>
                <path d="M283.707163,936.500918 C310.484632,926.003411 328.595353,923.253712 357.880455,928.343648 C391.136067,934.123684 417.001156,950.655803 435.763955,973.973767 L447.089041,1094.41521 C444.090568,1090.82179 440.978965,1087.26267 437.808926,1083.82116 C419.11958,1063.53136 399.669068,1048.29847 380.724544,1040.92603 C351.553372,1029.5738 307.798919,1028.08744 275.944111,1034.24975 L280.485194,974.321912 C281.32341,963.0538 282.252146,950.507919 283.272093,936.676336 L283.707163,936.500918 Z" id="bp-metacarpophalangeal-joint-ring-finger-right-dorsal" fill="#FFFFFF" fill-rule="nonzero"></path>
                <path d="M126.936982,877.163695 C154.720644,870.128986 181.062992,873.564069 204.897053,885.580213 C227.027558,896.737494 245.493463,915.12535 253.59128,931.318212 L247.634345,1011.25687 L246.62318,1009.54149 C221.021059,966.680988 181.458784,943.039545 120.602657,945.634034 C122.022229,937.827571 123.178791,930.850308 124.028665,924.857233 C125.335717,915.318908 125.843201,898.68277 125.813776,877.463055 L126.936982,877.163695 Z" id="bp-metacarpophalangeal-joint-little-finger-right-dorsal" fill="#FFFFFF" fill-rule="nonzero"></path>
                <path d="M598.361733,234.002882 L598.98929,234.77902 C609.410145,247.370443 638.096639,268.296885 689.149068,300.564236 C677.364606,310.532423 666.070204,322.144738 656.005572,334.949632 C615.423541,386.580793 599.403158,449.404715 618.115459,512.310419 C625.817817,538.203665 639.048821,560.415975 657.556503,580.382769 C671.892787,595.849299 688.341937,609.136793 710.812628,624.441733 L714.622306,627.012511 L748.584161,649.38953 L751.350197,651.263121 C774.015235,666.720192 787.111086,678.342456 795.320969,691.367857 C803.608538,704.51651 806.337066,718.964872 802.857762,736.819242 C790.280735,763.087669 798.647524,821.073479 815.543557,886.080943 C796.710369,884.840147 782.320029,884.717531 766.990614,885.928345 C754.474893,886.916914 742.778494,888.838715 731.803348,891.852229 C689.479601,903.473326 662.805092,920.000667 636.531019,946.727068 C607.95199,932.995096 572.228922,924.997094 540.469426,926.444194 C511.071447,927.783694 477.700406,939.296939 454.082705,954.389588 C453.287727,954.18186 452.468122,954.041654 451.631451,953.971072 C429.570234,928.428627 399.706032,910.235216 362.15952,903.709394 C327.727824,897.724947 305.291924,901.185486 274.548102,913.236878 L272.570459,914.020949 C260.996709,894.787514 240.383584,875.471468 216.147141,863.25246 C188.384034,849.255455 157.572424,844.807757 125.569104,851.801382 L125.405044,842.732278 C123.435389,743.327295 115.119493,591.842755 116.669143,543.475253 L116.873202,537.518407 C118.642778,488.647739 123.920976,399.906075 121.912717,328.023787 C245.371027,327.95399 354.507118,313.190764 449.421157,283.67574 C500.118003,268.007478 549.282699,250.813894 596.943589,232.091536 L597.896762,233.391439 C598.053051,233.599621 598.208045,233.803481 598.361733,234.002882 Z" id="bp-dorsum-of-hand-right" fill="#FFFFFF" fill-rule="nonzero"></path>
            </g>
        </g>
        <g id="viewport-boundary" mask="url(#mask-2)" stroke="#FF0000" stroke-width="3">
            <g transform="translate(260, 190)" id="boundary">
                <rect x="0" y="0" width="560" height="1080"></rect>
            </g>
        </g>
    </g>
</svg>