<?xml version="1.0" encoding="UTF-8"?>
<svg width="1080px" height="1460px" viewBox="0 0 1080 1460" version="1.1" xmlns="http://www.w3.org/2000/svg" xmlns:xlink="http://www.w3.org/1999/xlink">
    <title>middle-finger-right-palmar</title>
    <defs>
        <rect id="path-1" x="0" y="0" width="1080" height="1460"></rect>
    </defs>
    <g id="middle-finger-right-palmar" stroke="none" stroke-width="1" fill="none" fill-rule="evenodd">
        <mask id="mask-2" fill="white">
            <use xlink:href="#path-1"></use>
        </mask>
        <g id="mask"></g>
        <g id="bp-middle-finger-right-palmar" mask="url(#mask-2)" fill="#FFFFFF" fill-rule="nonzero">
            <g transform="translate(540.2652, 738.148) scale(-1, 1) translate(-540.2652, -738.148)translate(429.9112, 387.296)">
                <path d="M145.509025,530.516536 C169.374759,528.053347 190.886858,527.902499 210.033214,530.053354 L220.3437,618.254376 L220.3437,620.86454 C222.955135,646.017029 212.034589,697.271159 170.96384,701.542337 L170.726437,701.305049 C130.605301,705.338939 114.461885,677.813573 106.390177,662.389876 L105.915371,661.440726 C101.472034,653.096701 97.5632639,634.295528 94.4489357,614.907642 L93.9638396,611.84296 L93.386875,608.081127 L92.894924,604.7732 C91.2284467,593.410961 89.8532244,582.44167 88.8223425,573.881588 L88.1101329,567.237534 L86.5611696,554.422028 C86.0895719,550.548214 85.6000013,546.549645 85.0938302,542.436427 C102.710678,536.84385 122.815404,532.876566 145.509025,530.516536 Z" id="bp-distal-phalanx-middle-finger-right-palmar"></path>
                <path d="M129.870879,438.622985 L131.371001,438.437087 C156.537455,435.292835 179.113744,434.867408 199.167281,437.127669 L208.604283,517.834038 C189.253463,515.893784 167.807087,516.151403 144.27241,518.580424 C121.715266,520.926261 101.517211,524.828928 83.5931637,530.332011 L79.2997811,496.038376 L76.9890789,477.812354 C75.8649611,468.975135 74.7086831,459.925309 73.5280294,450.720037 C90.1405851,445.295663 108.920839,441.258909 129.870879,438.622985 L129.870879,438.622985 Z" id="bp-distal-interphalangeal-joint-middle-finger-right-palmar"></path>
                <path d="M120.910771,296.480229 L122.34967,296.30203 C144.338709,293.554758 164.350342,292.883116 182.429536,294.264998 L197.738891,424.908153 C177.798286,422.91407 155.699011,423.396394 131.391329,426.344012 L129.900344,426.527559 C108.53017,429.135418 89.2182982,433.160999 71.9693496,438.616235 L67.259742,402.13801 L62.6926057,367.048965 L60.7041491,351.841293 C58.9373905,338.346765 57.1753363,324.934396 55.4394415,311.762183 C74.2060691,304.708984 96.0286857,299.607009 120.910771,296.480229 L120.910771,296.480229 Z" id="bp-middle-phalanx-middle-finger-right-palmar"></path>
                <path d="M104.012907,200.621491 L105.494025,200.437984 C129.759397,197.406312 151.616763,196.902256 171.126554,198.896111 L172.673879,212.494163 L174.033721,224.181713 C175.323566,235.182912 176.733822,246.98658 178.274974,259.68789 L180.934773,281.543219 L181.004191,282.132391 C163.137388,280.942754 143.624527,281.634867 122.432636,284.201364 L120.879013,284.392501 C95.6588634,287.470183 73.305454,292.522425 53.8263802,299.56884 L47.0601659,248.506861 L42.5121859,214.466516 C60.3658089,208.154085 80.8650668,203.532823 104.012907,200.621491 Z" id="bp-proximal-interphalangeal-joint-middle-finger-right-palmar"></path>
                <path d="M163.308769,6.34511555 C161.134038,15.9622843 160.803227,28.9878442 160.761052,46.1129885 L160.755504,62.7640171 L160.821916,69.3324998 L160.862563,71.83156 C161.349753,98.8653543 163.451593,129.356905 169.762178,186.708208 C150.376308,184.951898 128.977902,185.500171 105.523265,188.343828 L104.023368,188.528456 C80.4733938,191.402322 59.4230388,195.997881 40.8784875,202.331104 L34.4571069,154.942667 L32.2930191,139.287875 C31.6216724,134.481519 31.0715656,130.606918 30.6585652,127.78083 L30.1278293,124.26724 C23.3366653,80.5749976 10.7567797,45.5221427 3.35720031,30.730186 L2.1984306,28.4399196 C1.44150351,26.9637245 0.713396757,25.5882514 0,24.3100409 C18.7940465,12.3805752 49.8724956,3.60507459 81.1951608,0.951371364 C108.796845,-1.38708478 137.403759,0.650677866 163.308769,6.34511555 Z" id="bp-proximal-phalanx-middle-finger-right-palmar"></path>
            </g>
        </g>
        <g id="decoration" opacity="0.15" mask="url(#mask-2)">
            <g transform="translate(486.5211, 148.609) scale(-1, 1) translate(-486.5211, -148.609)translate(-161, -720.9545)">
                <g id="bp-index-finger-right-palmar" stroke-width="1" fill="none" fill-rule="evenodd" transform="translate(692.7496, 1029.9174)">
                    <path d="M356.080482,464.473619 L357.425574,464.24351 L365.542422,485.651674 C377.405705,517.096743 386.004976,540.677576 387.776044,547.333551 C401.545428,598.113106 389.437867,628.960498 351.453359,639.163867 C312.994045,649.604523 290.20334,627.299485 247.708173,536.41832 L241.227012,523.263358 C239.894153,520.539173 238.429192,517.538934 236.852751,514.305924 C252.470884,503.363327 270.972904,493.335043 292.37442,484.243825 C315.180881,474.58932 336.433663,468.000016 356.080482,464.473619 Z" id="bp-distal-phalanx-index-finger-right-palmar" fill="#FFFFFF" fill-rule="nonzero"></path>
                    <path d="M325.321968,383.645091 L326.3303,383.486347 L335.767337,407.835241 C342.481206,425.20143 349.056858,442.30629 355.156676,458.291558 C334.968152,461.896555 313.212089,468.636127 289.93507,478.489832 C268.521736,487.586068 249.906482,497.631879 234.080772,508.617468 L199.042319,436.518823 C215.353299,424.633801 234.982288,413.797538 257.95096,404.040604 C282.182825,393.782692 304.660732,386.985105 325.321968,383.645091 Z" id="bp-distal-interphalangeal-joint-index-finger-right-palmar" fill="#FFFFFF" fill-rule="nonzero"></path>
                    <path d="M261.289293,225.295289 L262.752762,225.094234 L272.635506,247.639265 L274.059925,251.19858 L278.194303,261.371639 C289.04886,288.241883 306.334651,332.076846 324.014067,377.528167 C302.9078,380.969117 280.055194,387.896739 255.51161,398.28661 C232.549754,408.040648 212.805301,418.886565 196.267727,430.812282 L183.10727,403.797923 C180.698082,398.862652 178.399004,394.160347 176.249818,389.77456 L174.113189,385.503383 L152.410464,340.993903 C142.824066,321.35959 133.09806,301.458589 124.542036,283.924574 C142.106568,269.982428 164.013138,257.407005 190.291055,246.244325 C215.948324,235.383007 239.639218,228.401084 261.289293,225.295289 Z" id="bp-middle-phalanx-index-finger-right-palmar" fill="#FFFFFF" fill-rule="nonzero"></path>
                    <path d="M222.620965,134.644244 L223.251209,134.568671 L229.711073,149.513206 C241.080176,175.750998 251.73874,200.027661 260.140037,219.14818 C237.986602,222.353255 213.869244,229.476502 187.851706,240.490331 C161.619102,251.633761 139.585771,264.202283 121.736026,278.177889 L109.06472,252.147731 L106.215882,246.21554 C97.2325982,227.746721 88.6537472,210.7601 80.4655041,195.214224 C98.3299156,180.689787 120.841213,167.626031 148.033291,156.075023 C175.115963,144.610298 200.007706,137.467986 222.620965,134.644244 Z" id="bp-proximal-interphalangeal-joint-index-finger-right-palmar" fill="#FFFFFF" fill-rule="nonzero"></path>
                    <path d="M168.290137,0 L168.609676,0.00489476276 L170.724594,5.7528835 C180.231544,31.4692237 189.578493,55.1210397 197.853506,74.8938655 C199.577053,79.0084331 201.316839,83.1452109 203.067478,87.2930766 L206.581634,95.6002966 L211.886199,108.073314 C214.819521,114.950152 217.757997,121.806575 220.677195,128.59212 C197.759995,131.589958 172.708898,138.842636 145.593941,150.321029 C118.376065,161.882995 95.6788286,174.979115 77.4847069,189.589272 L75.0358644,185.012867 C59.1960837,155.553364 44.8695498,131.687333 31.9501058,113.093362 L21.6333286,98.2952948 C13.2531137,86.3185235 6.54128753,77.1460446 0,71.0693331 C21.1614171,50.4219586 47.0994376,32.0727001 75.4107139,19.3835953 C104.017394,6.5620908 137.66576,0.157468066 168.290137,0 Z" id="bp-proximal-phalanx-index-finger-right-palmar" fill="#FFFFFF" fill-rule="nonzero"></path>
                </g>
                <g id="bp-ring-finger-right-palmar" stroke-width="1" fill="none" fill-rule="evenodd" transform="translate(276.5342, 1055.1227)">
                    <path d="M13.2956469,522.667953 C30.4544472,520.465927 49.4312556,519.901255 70.2543597,520.977788 C91.177216,522.108207 110.080692,524.703231 127.008491,528.763911 L126.442803,544.195961 L126.442803,546.568838 L126.049812,557.763535 C123.544704,625.898841 120.578945,642.444908 108.400162,660.704191 C86.7964736,693.449885 38.3662264,691.077009 23.4098265,657.382164 C21.0908113,652.219599 18.3505675,638.589781 16.2073718,624.344166 L15.6846007,620.774476 C13.304082,604.067119 11.8552037,587.412348 12.9640869,583.348422 L12.973766,583.1775 C13.0326196,580.776512 12.29819,555.503947 11.4671347,522.91092 L13.2956469,522.667953 Z" id="bp-distal-phalanx-ring-finger-right-palmar" fill="#FFFFFF" fill-rule="nonzero"></path>
                    <path d="M11.174317,440.370858 C29.3150209,437.745202 49.5506257,437.008127 71.9161819,438.164403 C93.5672934,439.334168 113.056002,442.072268 130.430736,446.379869 L128.633888,488.298715 C128.098396,501.131215 127.632115,512.661006 127.252304,522.401308 C110.247572,518.409678 91.3702421,515.859685 70.5841946,514.736662 C48.9261114,513.616957 29.1775824,514.243296 11.3070179,516.625182 L10.8180734,496.555187 C10.7209926,492.443437 10.6249769,488.286687 10.5311792,484.109511 L10.2933012,473.232127 L10.1571382,466.701301 C9.97650394,457.861014 9.8125387,449.081017 9.67558002,440.59207 L11.174317,440.370858 Z" id="bp-distal-interphalangeal-joint-ring-finger-right-palmar" fill="#FFFFFF" fill-rule="nonzero"></path>
                    <path d="M9.02256191,281.123259 C26.6772586,278.713904 46.2859978,278.065282 67.880328,279.181686 C94.4526404,280.617333 117.767824,284.415292 137.915405,290.577717 L137.282568,302.519402 C134.960507,346.825009 132.63263,396.495517 130.709616,440.02056 C113.240652,435.778224 93.766307,433.085969 72.2460168,431.923276 C49.2083139,430.732246 28.3311909,431.516792 9.5766283,434.288348 L9.43318141,423.439727 C9.42271803,422.556298 9.41266199,421.67842 9.40303933,420.80639 L9.40303933,417.009788 L9.09392392,386.269009 C8.93884237,369.049459 8.8001324,350.724112 8.68126719,332.31706 L8.48230704,297.920714 C8.45347001,292.285889 8.42676493,286.705196 8.40229646,281.209492 L9.02256191,281.123259 Z" id="bp-middle-phalanx-ring-finger-right-palmar" fill="#FFFFFF" fill-rule="nonzero"></path>
                    <path d="M8.16403969,188.394752 L8.32547889,188.371387 C26.4661828,185.745732 46.7017876,185.008656 69.0673438,186.164932 C97.6678765,187.71016 122.495082,191.992085 143.660591,199.013393 L143.20142,204.721358 C141.709181,223.933145 140.003333,252.057761 138.260778,284.152406 C117.936776,278.095976 94.6133234,274.367063 68.2101628,272.94056 C46.3260523,271.809169 26.3915608,272.460457 8.37409921,274.904227 L8.24896659,236.582685 C8.22732344,226.953421 8.21602346,218.038532 8.21602346,210.094968 L8.21432366,203.62761 L8.19773608,195.941969 C8.18931684,193.403113 8.17804613,190.887328 8.16403969,188.394752 Z" id="bp-proximal-interphalangeal-joint-ring-finger-right-palmar" fill="#FFFFFF" fill-rule="nonzero"></path>
                    <path d="M0.611501138,3.4979812 C27.4302936,-2.29748174 69.1766871,-1.16113031 95.1263109,8.93582633 C120.160025,18.676404 152.744245,49.2875151 169.485473,73.4763041 C167.755554,76.3191997 166.475927,79.4085126 165.376924,82.1969317 L163.952505,85.9935339 C155.643394,107.112134 149.708314,143.417142 144.485445,189.925519 L144.225185,192.608888 C122.804214,185.685223 97.8945042,181.463452 69.3971787,179.923806 C46.9277664,178.762156 26.5136549,179.479817 8.11956962,182.0874 L8.06991938,176.220504 C7.17746719,81.1346732 2.3396501,22.3729645 0.61912194,8.40047648 L0.61912194,7.92590121 C0.431170515,6.42302156 0.226944022,4.99218214 0,3.63223305 L0.611501138,3.4979812 Z" id="bp-proximal-phalanx-ring-finger-right-palmar" fill="#FFFFFF" fill-rule="nonzero"></path>
                </g>
                <g id="bp-little-finger-right-palmar" stroke-width="1" fill="none" fill-rule="evenodd" transform="translate(0, 970.1644)">
                    <path d="M15.2185163,414.893286 C29.9621736,416.35395 45.7180293,419.180477 62.4956993,423.372854 C82.2996205,428.349071 99.938254,434.289887 115.452436,441.219447 L109.752339,459.132122 C104.456884,475.686944 100.50812,487.767272 99.1009318,491.764702 L99.1009318,492.476565 C89.1299986,520.476506 73.4613892,546.340859 61.5912305,553.2222 C39.0379291,566.510308 8.65032304,552.747625 1.52822786,526.408697 C-2.83173301,510.066801 2.42628502,473.169641 13.6223596,422.086664 L15.2185163,414.893286 Z" id="bp-distal-phalanx-little-finger-right-palmar" fill="#FFFFFF" fill-rule="nonzero"></path>
                    <path d="M30.5455618,350.900873 C44.4265347,352.434536 59.1889666,355.156884 74.8406643,359.067904 C97.5641176,364.777725 117.436803,371.757514 134.52041,380.043748 L130.68009,392.521295 C126.105034,407.335199 121.538499,421.935403 117.344028,435.225244 C101.638093,428.259117 83.8727033,422.300275 64.0143867,417.31039 C47.2466097,413.120485 31.4473508,410.265165 16.6055561,408.751465 L18.1234995,402.143602 C21.4722455,387.680597 25.2065881,372.27496 29.2573167,356.046915 L30.5455618,350.900873 Z" id="bp-distal-interphalangeal-joint-little-finger-right-palmar" fill="#FFFFFF" fill-rule="nonzero"></path>
                    <path d="M59.5335646,238.038322 C73.820703,239.540871 89.0493975,242.313526 105.22827,246.356276 C129.140228,252.364738 149.895411,259.779487 167.565705,268.643031 L165.657707,274.982114 C161.815597,287.789592 157.816692,301.375294 153.659076,315.781511 L151.567033,323.053192 C147.147875,338.361449 141.864278,355.999473 136.369649,373.996187 C119.071061,365.695634 99.085777,358.716007 76.3593517,353.00544 C60.7668403,349.109208 46.0118368,346.367035 32.0854525,344.784575 L34.2325071,336.316219 C38.2147367,320.668096 42.4464102,304.350422 46.8722338,287.460046 L51.6153251,269.060116 C53.0691173,263.401268 54.5688005,257.543907 56.1058351,251.518399 L59.5335646,238.038322 Z" id="bp-middle-phalanx-little-finger-right-palmar" fill="#FFFFFF" fill-rule="nonzero"></path>
                    <path d="M77.1826161,167.449945 C91.7890652,168.923981 107.386131,171.73462 123.983121,175.881848 C149.23583,182.227207 170.967838,190.140976 189.263811,199.673221 L185.964362,209.762449 C180.83336,225.568954 175.314515,243.115319 169.402676,262.571417 C151.506497,253.705072 130.641856,246.297986 106.746958,240.293813 C90.6355724,236.267925 75.418362,233.474182 61.0855208,231.918821 L65.5577886,214.187408 C68.9556061,200.666931 72.440515,186.686504 75.9379535,172.511828 L77.1826161,167.449945 Z" id="bp-proximal-interphalangeal-joint-little-finger-right-palmar" fill="#FFFFFF" fill-rule="nonzero"></path>
                    <path d="M115.690489,0.623197441 L116.680995,0.552093085 C173.196168,-3.49647159 207.560068,14.8923138 230.224776,50.0900048 C231.873299,52.6501177 233.314161,54.9986018 234.674287,57.3756039 L235.40893,58.6764222 C237.642027,62.6832446 239.713786,66.8920431 242.218318,72.4268826 C237.29074,76.4886018 234.041109,82.8208364 230.859693,89.5621568 L230.384886,90.2740197 L228.563942,94.230738 C220.814274,111.342324 208.453991,141.973067 191.254503,193.662776 C172.681027,184.098051 150.78814,176.17319 125.501808,169.819384 C108.95926,165.685759 93.3593864,162.851107 78.6915721,161.322183 L81.7542549,148.801091 C94.7472908,95.5067471 107.34183,41.5538441 115.690489,0.623197441 Z" id="bp-proximal-phalanx-little-finger-right-palmar" fill="#FFFFFF" fill-rule="nonzero"></path>
                </g>
                <g id="bp-thumb-right-palmar" stroke-width="1" fill="none" fill-rule="evenodd" transform="translate(833.0918, 521.8825)">
                    <path d="M361.12144,247.037461 L361.683803,246.521454 L363.41334,248.209529 C373.050355,257.503795 386.387879,268.580621 408.155778,285.84457 L410.767213,287.980159 L425.809739,299.941593 C461.896877,328.727026 463.050514,330.760747 461.571492,338.997001 L461.571492,339.471576 C453.499784,374.352859 416.464889,390.013843 365.185804,380.522337 C340.058006,375.601736 313.246473,365.455239 286.320866,352.130064 C294.895952,330.879364 308.323296,308.518727 326.576916,285.158644 C338.048616,270.473968 349.552004,257.779303 361.12144,247.037461 Z" id="bp-thumb-distal-phalanx-right-palmar" fill="#FFFFFF" fill-rule="nonzero"></path>
                    <path d="M300.933745,171.162235 C314.512937,185.437564 326.941826,201.208457 340.733277,221.065045 C344.375042,226.370797 347.727934,230.954719 351.463743,235.442398 L352.332956,236.476592 C353.903045,238.326866 355.547379,240.168918 357.313392,242.046922 C345.335926,253.11511 333.462852,266.192879 321.652955,281.310474 C303.200785,304.924652 289.538324,327.620755 280.719717,349.312112 C254.175543,335.756395 227.627572,319.250727 202.576812,301.75522 C210.811699,277.930776 225.331385,252.649141 246.09724,226.074022 C263.782778,203.435146 281.54363,185.526002 299.505693,172.210327 L300.933745,171.162235 Z" id="bp-interphalangeal-joint-thumb-right-palmar" fill="#FFFFFF" fill-rule="nonzero"></path>
                    <path d="M140.826987,1.15605433 L142.67288,0 L160.731095,20.5864148 C204.216046,69.9920882 265.935376,138.975131 281.85729,152.726206 C286.978873,157.288873 291.839375,161.890684 296.53675,166.632606 C277.828388,180.36982 259.425384,198.861726 241.173279,222.225853 C220.499439,248.683215 205.838118,273.988118 197.26547,298.018665 C192.481269,294.61926 187.75424,291.189856 183.09757,287.742871 L180.011329,285.369995 C99.1850578,226.016327 35.9041785,196.927875 0,197.777086 C12.8450583,153.247339 30.9760904,110.979689 52.9298956,82.8289748 C79.6974958,48.5056733 111.051043,19.9094021 140.826987,1.15605433 L140.826987,1.15605433 Z" id="bp-proximal-phalanx-thumb-right-palmar" fill="#FFFFFF" fill-rule="nonzero"></path>
                </g>
                <path d="M596.942187,232.052674 C597.425923,232.729281 597.898741,233.367501 598.359804,233.96561 C611.654382,250.813033 659.372419,283.321439 752.19706,339.321321 L758.021623,342.86843 C851.700887,400.242198 921.747324,458.821592 948.660504,490.453028 L952.467807,494.996591 C954.148646,496.973809 956.408948,499.60647 959.159374,502.790198 C927.26222,523.172429 894.36495,553.365143 866.312149,589.33642 C837.826602,625.862595 816.124924,681.385593 802.53227,737.367762 C783.097348,780.02187 816.39513,902.408034 852.457503,1005.1048 C820.880387,1006.30478 787.254917,1013.3479 757.938225,1026.48763 C722.74079,1042.26311 691.115702,1065.81456 666.488911,1092.06987 L665.240898,1093.41178 C633.567335,1084.76234 597.370465,1081.33812 562.508433,1084.29169 C525.651411,1087.41427 489.294317,1097.86578 466.28522,1113.96789 C446.73735,1085.8864 410.747493,1052.44259 380.723317,1040.76023 C348.354139,1028.16544 298.292336,1027.21238 266.432926,1035.50404 L264.699317,1031.63372 C262.093856,1025.89386 259.873306,1021.38718 257.463896,1017.04376 L256.654195,1015.60268 C255.017711,1012.72673 253.269319,1009.87054 251.23971,1006.71862 C224.528297,965.236498 183.260594,942.466771 120.610385,945.445718 L121.547876,940.186626 C122.541985,934.494139 123.375569,929.311833 124.028265,924.709922 C131.079139,873.26359 114.862128,615.298992 116.610252,545.447417 L116.765828,540.465334 C118.416927,492.313275 123.962856,401.355449 121.912324,327.97154 C245.370235,327.901754 354.505975,313.140879 449.419708,283.630556 C498.821449,268.364939 546.768317,251.651158 593.286538,233.48602 L596.942187,232.052674 Z" id="bp-palm-right" fill="#FFFFFF" fill-rule="nonzero"></path>
            </g>
        </g>
        <g id="viewport-boundary" mask="url(#mask-2)" stroke="#FF0000" stroke-width="3">
            <g transform="translate(260, 190)" id="boundary">
                <rect x="0" y="0" width="560" height="1080"></rect>
            </g>
        </g>
    </g>
</svg>