<?xml version="1.0" encoding="UTF-8"?>
<svg width="1080px" height="1460px" viewBox="0 0 1080 1460" version="1.1" xmlns="http://www.w3.org/2000/svg" xmlns:xlink="http://www.w3.org/1999/xlink">
    <title>ring-finger-right-dorsal</title>
    <defs>
        <rect id="path-1" x="0" y="0" width="1080" height="1460"></rect>
    </defs>
    <g id="ring-finger-right-dorsal" stroke="none" stroke-width="1" fill="none" fill-rule="evenodd">
        <mask id="mask-2" fill="white">
            <use xlink:href="#path-1"></use>
        </mask>
        <g id="mask"></g>
        <g id="bp-ring-finger-right-dorsal" mask="url(#mask-2)" fill="#FFFFFF" fill-rule="nonzero">
            <g transform="translate(456.602, 388.4214)">
                <path d="M11.4377578,525.904584 L11.7254496,525.864741 C29.2444019,523.457574 48.7446268,522.804553 70.2579055,523.916764 C91.1336044,525.044636 109.95849,527.639495 126.777519,531.696349 L126.329783,543.909236 L126.329783,546.28249 L125.93679,557.478971 L125.785861,561.50625 C123.309358,626.287764 120.222329,642.539078 108.287084,660.436026 C86.6833253,693.186937 38.2529219,690.813682 23.2964738,657.11347 C20.9774511,651.950082 18.2371985,638.318093 16.0939959,624.070208 L15.4295225,619.497513 L14.8866406,615.501063 L14.538233,612.786278 C12.8032502,598.93226 11.913556,586.502994 12.8507005,583.067933 L12.8629503,582.72728 L12.787694,577.985071 C12.5929906,569.162327 12.0484037,549.689947 11.4377578,525.904584 Z M36.2942237,587.386142 C28.5774863,590.062867 23.6103485,597.579321 24.1737485,605.727294 L26.2873237,636.294124 C27.7838361,657.936902 45.6735698,674.781965 67.3654255,674.973471 C88.9672264,675.164182 107.002168,658.528155 108.5553,636.978567 L110.67766,607.531009 C111.243157,599.684927 106.672933,592.374873 99.3728794,589.449045 C87.5026399,584.691508 76.5912367,582.226766 66.6386699,582.054821 C57.1291455,581.890531 47.0143301,583.667638 36.2942237,587.386142 Z" id="bp-distal-phalanx-ring-finger-right-dorsal"></path>
                <path d="M65.0565952,587.896236 L66.5346788,587.904674 L66.5674604,587.905249 C75.8432619,588.070615 85.9987313,590.421055 97.0525961,594.851393 C99.440636,595.808509 101.38225,597.482652 102.680544,599.559269 C103.978819,601.635857 104.63375,604.114841 104.448763,606.681475 L102.326403,636.129034 C101.668412,645.258614 97.5189076,653.347225 91.2462379,659.133343 C84.9732116,664.91979 76.5766765,668.403622 67.4244976,668.322823 C58.2098509,668.241472 49.8026403,664.623154 43.5402472,658.726453 C37.2783112,652.830183 33.1610182,644.655933 32.5253462,635.462752 L30.4117711,604.895922 C30.2274206,602.229819 30.9480651,599.667102 32.3458561,597.551913 C33.7440592,595.4361 35.8198118,593.768012 38.3455042,592.891919 C48.3039832,589.437601 57.6970442,587.751991 66.5346788,587.904674 L65.0565952,587.896236 Z" id="bp-nail-of-ring-finger-right"></path>
                <path d="M9.61671607,443.600759 L10.3162543,443.494495 C28.6190475,440.727261 49.140964,439.925882 71.9197296,441.103517 C93.5186267,442.270462 112.922156,445.007796 130.180111,449.309991 L128.520875,488.003085 L127.364911,516.370663 C127.323188,517.424196 127.282318,518.460326 127.242319,519.478545 C110.274891,515.555793 91.5031005,513.047106 70.8913782,511.933504 C49.0855865,510.806162 29.176942,511.435114 11.1328795,513.835972 L10.417785,483.813214 L10.1799062,472.934097 L10.0437427,466.40223 L9.91221174,459.819596 C9.80544566,454.349312 9.70611866,448.924537 9.61671607,443.600759 Z" id="bp-distal-interphalangeal-joint-ring-finger-right-dorsal"></path>
                <path d="M8.30396745,284.215674 L8.32317348,284.212664 C26.1064267,281.688162 45.9487634,280.987046 67.883871,282.121065 C94.4139242,283.55443 117.631748,287.357098 137.62962,293.518821 L137.169583,302.194177 L136.567379,313.801684 C134.4945,354.146364 132.445325,397.979924 130.712784,437.091025 C113.273801,432.923324 93.9002812,430.273589 72.5532023,429.120257 C49.3834197,427.922398 28.3555471,428.707422 9.43051798,431.494061 L9.35252291,425.800283 L9.28964147,420.500008 L9.28964147,416.702801 L8.98052507,385.957125 L8.78375562,362.428597 C8.70606483,352.426898 8.63390344,342.224351 8.567867,331.996581 L8.36890325,297.594177 L8.30396745,284.215674 Z" id="bp-middle-phalanx-ring-finger-right-dorsal"></path>
                <path d="M8.0677526,191.404464 L8.48651805,191.343732 C26.5310511,188.699208 46.7139516,187.94864 69.0708882,189.104467 C97.6014775,190.645917 122.301477,194.927463 143.285652,201.93636 L143.088453,204.380553 L142.687772,209.68261 C141.336287,228.030144 139.830057,253.003933 138.291336,281.187587 C117.959088,275.225268 94.7255857,271.553774 68.5173437,270.137806 C46.5067901,268.999877 26.4291802,269.651382 8.25102302,272.108376 L8.12257142,229.862466 L8.10279961,211.498131 L8.10092197,203.286631 L8.08433453,195.599825 L8.0677526,191.404464 Z" id="bp-proximal-interphalangeal-joint-ring-finger-right-dorsal"></path>
                <path d="M95.0131895,8.56383178 C119.368856,18.0420615 150.247803,49.5987369 167.619341,76.3546635 C166.717861,78.2095964 165.955222,80.0826205 165.264029,81.8366079 L163.839605,85.6338149 C155.613559,106.544559 149.714308,142.341874 144.529384,188.18995 L144.364904,189.665901 C122.891876,182.818494 98.0363027,178.651914 69.7043609,177.121207 C47.1066278,175.952922 26.5463452,176.670817 7.98726917,179.292269 L7.95887702,175.874842 L7.90051441,170.212483 C6.87181957,78.4415445 2.19182308,21.7236511 0.505695758,8.02839664 L0.505695758,7.55374577 C0.349588304,6.30529908 0.182253495,5.1065571 0,3.95686086 L0.838729893,3.76915289 C27.9255834,-2.20618316 69.3825615,-1.41056065 95.0131895,8.56383178 Z" id="bp-proximal-phalanx-ring-finger-right-dorsal"></path>
            </g>
        </g>
        <g id="decoration" opacity="0.15" mask="url(#mask-2)">
            <g transform="translate(179.9535, -667.2428)">
                <g id="bp-thumb-right-dorsal" stroke-width="1" fill="none" fill-rule="evenodd" transform="translate(842.9148, 533.9265)">
                    <path d="M272.037854,140.789693 C277.159454,145.353088 282.019971,149.955632 286.717361,154.698308 C268.008939,168.437711 249.605876,186.932563 231.353712,210.300411 C210.679805,236.761989 196.018437,262.070923 187.445761,286.105298 C182.661545,282.705352 177.934501,279.275401 173.277816,275.827867 L170.191565,273.454613 C96.2867691,219.175166 37.0510181,190.20328 0,186.288514 C12.4535195,147.208078 28.9690308,110.949998 48.5146327,85.8833392 C77.365042,48.8835394 111.54282,18.5377111 143.330835,0 L159.94021,18.8703699 C202.51326,67.0975839 257.189729,127.964002 272.037854,140.789693 Z" id="bp-proximal-phalanx-thumb-right-dorsal" fill="#FFFFFF" fill-rule="nonzero"></path>
                </g>
                <g id="bp-index-finger-right-dorsal" stroke-width="1" fill="none" fill-rule="evenodd" transform="translate(692.7518, 1030.08)">
                    <path d="M326.332148,383.546985 L333.987532,403.296673 C341.317634,422.241424 348.51934,440.966371 355.157523,458.365196 C334.969232,461.971549 313.213099,468.712195 289.936005,478.567469 C268.522602,487.665155 249.907287,497.712566 234.081527,508.699905 L199.043065,436.589989 C215.353993,424.702859 234.983045,413.86487 257.951791,404.106381 C282.57881,393.679565 305.394206,386.827396 326.332148,383.546985 Z" id="bp-distal-interphalangeal-joint-index-finger-right-dorsal" fill="#FFFFFF" fill-rule="nonzero"></path>
                    <path d="M272.636385,247.680128 L274.060808,251.240009 L279.264616,264.065663 C288.579946,287.184521 302.161542,321.571711 316.593459,358.542117 L324.015627,377.591046 C302.908777,381.031219 280.056097,387.959945 255.512434,398.351471 C232.550504,408.107063 212.805987,418.954707 196.26836,430.882324 L181.070612,399.691528 C179.397056,396.265821 177.785485,392.97119 176.250386,389.838065 L174.11375,385.566207 L152.410955,341.049637 C142.824526,321.412196 133.098489,301.508025 124.542438,283.971217 C142.107026,270.02685 164.013667,257.449423 190.291669,246.284965 C216.528093,235.176744 240.708373,228.125651 262.752911,225.128194 L272.636385,247.680128 Z" id="bp-middle-phalanx-index-finger-right-dorsal" fill="#FFFFFF" fill-rule="nonzero"></path>
                    <path d="M260.141152,219.185131 L259.410655,219.289885 C237.457086,222.547139 213.584025,229.635521 187.852311,240.530055 C161.619623,251.675259 139.586221,264.245784 121.736418,278.223616 L109.065071,252.189311 L106.216224,246.256175 C97.2329117,227.784415 88.654033,210.795087 80.4657636,195.246734 C98.3302326,180.719984 120.841603,167.654147 148.033768,156.101298 C175.368777,144.527948 200.471846,137.358604 223.252952,134.589316 L228.644823,147.071685 C235.777188,163.549027 242.650901,179.298143 248.888337,193.539534 L260.141152,219.185131 Z" id="bp-proximal-interphalangeal-joint-index-finger-right-dorsal" fill="#FFFFFF" fill-rule="nonzero"></path>
                    <path d="M197.854144,74.9072085 C199.577697,79.0224316 201.317488,83.1598684 203.068133,87.3083949 L206.5823,95.6169382 L213.049885,110.817208 L217.313381,120.780257 L220.678562,128.61554 C197.760633,131.612333 172.709455,138.866167 145.594411,150.346388 C118.376447,161.910196 95.6791371,175.008402 77.4849567,189.620886 L75.0361063,185.043753 C59.1962746,155.579556 44.8696944,131.709724 31.9502088,113.11279 L21.6333983,98.3123658 C13.2531564,86.3336865 6.54130863,77.1597464 0,71.0820668 C21.1614854,50.4314031 47.0995895,32.0792215 75.410957,19.3880953 C104.116852,6.52011439 137.89945,0.11459092 168.608914,0 L170.724091,5.75012152 C180.232125,31.475649 189.579104,55.1312328 197.854144,74.9072085 Z" id="bp-proximal-phalanx-index-finger-right-dorsal" fill="#FFFFFF" fill-rule="nonzero"></path>
                </g>
                <g id="bp-middle-finger-right-dorsal" stroke-width="1" fill="none" fill-rule="evenodd" transform="translate(485.1065, 1108.427)">
                    <path d="M207.92466,526.481352 L218.662616,618.352866 L218.662616,620.963446 C221.274059,646.119943 210.353478,697.382237 169.282597,701.654095 L169.045193,701.41677 C128.923927,705.451302 112.78046,677.921551 104.708726,662.495398 L104.233918,661.546096 C99.7905665,653.200742 95.8817839,634.396574 92.7674456,615.0056 L92.2823479,611.94043 L91.7053814,608.177997 C89.816344,595.651488 88.2714826,583.362982 87.1408342,573.973009 L86.4286224,567.327897 L85.2795265,557.801142 C84.5849067,552.074642 83.8486306,546.058572 83.0753863,539.787461 C101.265257,533.864618 122.08012,529.692579 145.627946,527.243326 C168.513552,524.880921 189.282282,524.627119 207.92466,526.481352 Z M151.807378,597.523589 C140.794218,599.510185 130.191473,603.84253 119.999143,610.520624 C113.992243,614.456378 110.88062,621.524247 112.082492,628.502808 L117.559943,660.307122 C121.608415,683.814199 144.17396,699.391998 167.961498,695.10111 L170.311393,694.677227 C194.098931,690.386339 210.100606,667.851636 206.052134,644.344559 L200.608098,612.734264 C199.394983,605.6904 194.0239,600.105489 186.981828,598.565513 C174.641638,595.866933 162.916821,595.519625 151.807378,597.523589 Z" id="bp-distal-phalanx-middle-finger-right-dorsal" fill="#FFFFFF" fill-rule="nonzero"></path>
                    <path d="M152.920297,603.275151 C163.25983,601.410066 174.16997,601.761347 185.651129,604.272072 C187.930963,604.770631 189.943086,605.920015 191.481292,607.51946 C193.006556,609.105447 194.064133,611.13321 194.45374,613.395437 L199.897776,645.005732 C201.62973,655.062161 199.061762,664.90634 193.529585,672.697147 C187.972504,680.523026 179.424554,686.282352 169.206316,688.125558 L166.856422,688.549441 C156.664423,690.387913 146.730139,687.980875 138.911915,682.583676 C131.129547,677.21123 125.449469,668.875393 123.722144,658.845842 L118.244693,627.041528 C117.856011,624.784681 118.169162,622.514384 119.060449,620.48988 C119.963664,618.438285 121.459829,616.638499 123.427101,615.349532 C132.878874,609.156656 142.704523,605.117912 152.920297,603.275151 L152.920297,603.275151 Z" id="bp-nail-of-middle-finger-right" fill="#FFFFFF" fill-rule="nonzero"></path>
                    <path d="M131.438997,435.154808 C155.630824,432.131836 177.485655,431.600048 197.059726,433.540623 L207.180933,520.133723 C188.444581,518.37572 167.709344,518.679902 144.984066,521.025759 C121.517181,523.466592 100.652562,527.600824 82.2911541,533.470673 L78.4382906,502.623471 C76.2698424,485.403062 73.9337992,467.055869 71.4980589,448.07592 C89.0722063,442.196478 109.052987,437.887079 131.438997,435.154808 Z" id="bp-distal-interphalangeal-joint-middle-finger-right-dorsal" fill="#FFFFFF" fill-rule="nonzero"></path>
                    <path d="M122.417647,292.99687 C143.481229,290.364799 162.773133,289.621297 180.330476,290.753941 L196.318207,427.192219 C176.601966,425.356311 154.73683,425.944131 130.673255,428.951083 C108.394533,431.670253 88.3977246,435.936817 70.6856276,441.758009 L65.5780057,402.200851 L58.8972808,350.940461 L53.4098559,309.171551 C73.085688,301.605812 96.0880152,296.210471 122.417647,292.99687 Z" id="bp-middle-phalanx-middle-finger-right-dorsal" fill="#FFFFFF" fill-rule="nonzero"></path>
                    <path d="M105.561968,197.117393 C128.871797,194.204635 150.01193,193.604722 169.032675,195.300817 L170.992641,212.528014 C172.634001,226.75324 174.492177,242.406533 176.593754,259.729259 L179.253562,281.58807 L179.591997,284.445066 C161.926647,283.389321 142.624219,284.172473 121.651906,286.793146 C95.471911,289.988475 72.4429837,295.320582 52.5696647,302.801207 L42.4537451,226.624486 C41.777323,221.565769 41.1162157,216.62949 40.4723847,211.830093 C59.2646183,205.027316 80.9609122,200.120017 105.561968,197.117393 Z" id="bp-proximal-interphalangeal-joint-middle-finger-right-dorsal" fill="#FFFFFF" fill-rule="nonzero"></path>
                    <path d="M79.513628,0.951522921 C107.115401,-1.38730575 135.722407,0.650781522 161.627501,6.34612636 C159.287644,16.6949621 159.082353,30.9898247 159.074481,50.0917734 L159.074227,62.7740157 L159.14064,69.3435448 C159.547501,97.365259 161.626056,128.366016 168.326192,188.96162 C149.166012,187.363795 128.003499,188.013719 104.796226,190.913669 C80.3132533,193.901873 58.5860753,198.758815 39.6184061,205.494098 L32.9356063,156.138062 C31.1582634,143.165648 29.7971436,133.415053 28.9768694,127.801186 L28.4461318,124.287036 C21.6549459,80.5878336 9.07501977,45.5293945 1.6754165,30.7350815 L0.547774479,28.5051986 C0.363535265,28.1455349 0.181011386,27.7918298 0,27.4440335 C18.9171116,13.8626143 50.0466502,3.44839918 79.513628,0.951522921 Z" id="bp-proximal-phalanx-middle-finger-right-dorsal" fill="#FFFFFF" fill-rule="nonzero"></path>
                </g>
                <g id="bp-little-finger-right-dorsal" stroke-width="1" fill="none" fill-rule="evenodd" transform="translate(0, 970.4261)">
                    <path d="M15.2185654,414.852227 C29.9622702,416.313125 45.7181767,419.140102 62.4959008,423.333146 C82.2998859,428.310157 99.9385762,434.251919 115.452808,441.182583 L108.165141,464.05286 C105.982321,470.854871 104.078896,476.735727 102.553845,481.396202 L100.234276,488.415837 L99.227438,491.375283 C99.1833389,491.501968 99.1412675,491.622197 99.1012514,491.73589 L99.1012514,492.447866 C89.130286,520.452268 73.461626,546.320741 61.5914291,553.203178 C39.038055,566.493403 8.65035094,552.728527 1.52823279,526.385404 C-2.83174214,510.040904 2.42629285,473.137866 13.6224035,422.046752 L15.2185654,414.852227 Z M26.4654018,464.943301 C18.2373895,465.610388 11.5852191,471.848335 10.3525455,480.052846 L6.59386894,505.070093 C3.58159316,525.119397 16.560164,543.677721 36.0529143,549.155194 C53.5128449,554.061444 70.1930213,537.13505 77.6351526,522.884146 L77.9528767,522.266302 C82.8039006,512.683941 86.2483723,505.329615 88.2862919,500.203324 C90.5952658,492.585359 87.635262,484.293825 81.0097561,479.820349 C71.5395093,473.426133 62.4582197,469.117443 53.7658874,466.894278 C45.5238383,464.786279 36.4236764,464.135953 26.4654018,464.943301 Z" id="bp-distal-phalanx-little-finger-right-dorsal" fill="#FFFFFF" fill-rule="nonzero"></path>
                    <path d="M26.9741437,470.773656 C36.1810909,470.02722 44.5988395,470.600573 52.2218264,472.55024 C60.3006376,474.616489 68.7206016,478.661693 77.5175666,484.601316 C79.6984414,486.073821 81.2750535,488.175313 82.1173479,490.534741 C82.9307344,492.813193 83.0596973,495.334255 82.3761105,497.762374 C80.3725041,502.756939 77.0363327,509.848168 72.3817961,519.041271 C68.5162175,526.42359 62.2395056,534.411837 54.6991252,539.250802 C49.5479842,542.556497 43.7402237,544.421379 37.7468708,542.737244 C29.3979168,540.391183 22.4444947,535.231456 17.9414141,528.492651 C13.5742942,521.957309 11.5252512,513.933085 12.7773879,505.599031 L16.5360644,480.581783 C16.9365957,477.915901 18.2134383,475.56665 20.0634782,473.831808 C21.9048163,472.105126 24.3124021,470.989457 26.9741437,470.773656 Z" id="bp-nail-of-little-finger-right" fill="#FFFFFF" fill-rule="nonzero"></path>
                    <path d="M30.5456603,350.84962 C44.426678,352.383528 59.1891575,355.106309 74.8409056,359.017953 C97.5644322,364.728684 117.437181,371.709584 134.520843,379.997138 L130.534289,392.950148 L125.430371,409.401233 C122.650657,418.322511 119.927132,427.002987 117.344643,435.186676 C101.638421,428.220188 83.8729737,422.260396 64.0145931,417.269717 C47.246762,413.079144 31.4474522,410.22337 16.6056096,408.709428 L18.1235579,402.100513 C21.4723147,387.635204 25.2066694,372.227112 29.257411,355.996482 L30.5456603,350.84962 Z" id="bp-distal-interphalangeal-joint-little-finger-right-dorsal" fill="#FFFFFF" fill-rule="nonzero"></path>
                    <path d="M59.5337565,237.96909 C73.8209411,239.471878 89.0496846,242.244976 105.22861,246.288369 C129.140644,252.297789 149.895894,259.713719 167.566245,268.578675 L165.658242,274.918767 C161.816119,287.728286 157.817201,301.316152 153.659571,315.724664 L150.06338,328.184543 C145.971742,342.232356 141.254479,357.948119 136.370471,373.947361 C119.071445,365.646738 99.0860965,358.666 76.3595979,352.954523 C60.7670362,349.057671 46.0119852,346.31506 32.0855559,344.732348 L34.2326175,336.262643 C38.2148599,320.612028 42.4465471,304.291754 46.872385,287.398687 L51.6154915,268.995826 C53.0692884,263.336077 54.5689765,257.477782 56.106016,251.451315 L59.5337565,237.96909 Z" id="bp-middle-phalanx-little-finger-right-dorsal" fill="#FFFFFF" fill-rule="nonzero"></path>
                    <path d="M77.182865,167.369468 C91.7893612,168.843739 107.386477,171.654825 123.983521,175.802714 C149.236311,182.149084 170.968389,190.064113 189.264422,199.597877 L185.964961,209.688713 C180.833943,225.497736 175.31508,243.046896 169.403223,262.506094 C151.506985,253.638336 130.642277,246.23007 106.747302,240.22494 C90.6358646,236.198411 75.4186052,233.404223 61.0857177,231.848614 L65.558,214.114376 C68.9558285,200.591745 72.4407486,186.609091 75.9381984,172.432158 L77.182865,167.369468 Z" id="bp-proximal-interphalangeal-joint-little-finger-right-dorsal" fill="#FFFFFF" fill-rule="nonzero"></path>
                    <path d="M115.688324,0.528592831 L116.358792,0.482064981 C170.843202,-3.32179335 203.416427,15.5295901 225.165789,51.9401859 C228.731285,57.909181 231.932864,64.2083566 235.177794,71.4429819 L236.33795,74.0686903 C236.715198,74.9396851 237.176659,76.0217624 237.68477,77.2225609 C235.075183,80.7765293 232.953054,85.0343913 230.860437,89.469272 L230.385629,90.1812483 L228.564679,94.1385969 C220.814986,111.252909 208.454663,141.888531 191.25512,193.586474 C172.681584,184.020226 150.788626,176.094102 125.502213,169.739285 C108.959612,165.605001 93.3596875,162.769898 78.6918259,161.240729 L80.9895734,151.853125 C94.2506001,97.5419532 107.17586,42.2672181 115.688324,0.528592831 Z" id="bp-proximal-phalanx-little-finger-right-dorsal" fill="#FFFFFF" fill-rule="nonzero"></path>
                </g>
                <path d="M752.199485,339.375377 L758.024067,342.92305 C851.703633,400.305958 921.750296,458.894684 948.663563,490.531159 L952.088661,494.625285 C955.49595,498.642759 961.596166,505.707921 969.510162,514.793494 C936.085072,535.150435 901.223255,566.595073 871.719854,604.432316 C853.072955,628.346414 837.333024,660.402145 824.871775,695.398758 C822.791213,689.394789 819.98333,683.614432 816.465241,678.032803 C805.997291,661.424863 790.820623,647.92965 765.610188,630.726387 L761.917629,628.229159 L728.994709,606.546591 C728.161688,605.991976 727.442474,605.510548 726.862941,605.118993 L723.668664,602.944823 C678.369193,571.87828 653.869488,544.835034 642.073338,505.179563 C625.856099,450.661588 639.784674,396.040694 675.65544,350.403518 C686.520475,336.580297 698.971375,324.400476 711.571023,314.576066 L719.16879,319.263819 C729.473399,325.603537 740.476742,332.302096 752.199485,339.375377 Z" id="bp-metacarpophalangeal-joint-thumb-right-dorsal" fill="#FFFFFF" fill-rule="nonzero"></path>
                <path d="M768.958246,910.854111 C785.031723,909.584527 800.351693,909.934046 822.514061,911.652098 C831.395981,942.864246 841.807498,974.923763 852.460251,1005.26492 C820.883034,1006.46509 787.257456,1013.50933 757.940669,1026.65116 C728.278885,1039.94763 701.154126,1058.76734 678.616784,1080.07422 L654.989667,963.61264 C678.123671,940.245241 701.056961,926.222678 738.419884,915.963706 C747.780927,913.393386 757.9374,911.724606 768.958246,910.854111 Z" id="bp-metacarpophalangeal-joint-index-finger-right-dorsal" fill="#FFFFFF" fill-rule="nonzero"></path>
                <path d="M541.606836,951.421649 C569.053307,950.171068 600.606982,957.245773 625.511154,969.167661 L650.009204,1089.90155 C622.233713,1084.01682 591.89772,1081.97428 562.510247,1084.46442 C532.681198,1086.99198 501.563385,1096.44368 478.700724,1110.21862 L466.117555,976.376374 C486.004827,963.233973 516.034177,952.58685 541.606836,951.421649 Z" id="bp-metacarpophalangeal-joint-middle-finger-right-dorsal" fill="#FFFFFF" fill-rule="nonzero"></path>
                <path d="M283.707163,936.500918 C310.484632,926.003411 328.595353,923.253712 357.880455,928.343648 C391.136067,934.123684 417.001156,950.655803 435.763955,973.973767 L447.089041,1094.41521 C444.090568,1090.82179 440.978965,1087.26267 437.808926,1083.82116 C419.11958,1063.53136 399.669068,1048.29847 380.724544,1040.92603 C351.553372,1029.5738 307.798919,1028.08744 275.944111,1034.24975 L280.485194,974.321912 C281.32341,963.0538 282.252146,950.507919 283.272093,936.676336 L283.707163,936.500918 Z" id="bp-metacarpophalangeal-joint-ring-finger-right-dorsal" fill="#FFFFFF" fill-rule="nonzero"></path>
                <path d="M126.936982,877.163695 C154.720644,870.128986 181.062992,873.564069 204.897053,885.580213 C227.027558,896.737494 245.493463,915.12535 253.59128,931.318212 L247.634345,1011.25687 L246.62318,1009.54149 C221.021059,966.680988 181.458784,943.039545 120.602657,945.634034 C122.022229,937.827571 123.178791,930.850308 124.028665,924.857233 C125.335717,915.318908 125.843201,898.68277 125.813776,877.463055 L126.936982,877.163695 Z" id="bp-metacarpophalangeal-joint-little-finger-right-dorsal" fill="#FFFFFF" fill-rule="nonzero"></path>
                <path d="M598.361733,234.002882 L598.98929,234.77902 C609.410145,247.370443 638.096639,268.296885 689.149068,300.564236 C677.364606,310.532423 666.070204,322.144738 656.005572,334.949632 C615.423541,386.580793 599.403158,449.404715 618.115459,512.310419 C625.817817,538.203665 639.048821,560.415975 657.556503,580.382769 C671.892787,595.849299 688.341937,609.136793 710.812628,624.441733 L714.622306,627.012511 L748.584161,649.38953 L751.350197,651.263121 C774.015235,666.720192 787.111086,678.342456 795.320969,691.367857 C803.608538,704.51651 806.337066,718.964872 802.857762,736.819242 C790.280735,763.087669 798.647524,821.073479 815.543557,886.080943 C796.710369,884.840147 782.320029,884.717531 766.990614,885.928345 C754.474893,886.916914 742.778494,888.838715 731.803348,891.852229 C689.479601,903.473326 662.805092,920.000667 636.531019,946.727068 C607.95199,932.995096 572.228922,924.997094 540.469426,926.444194 C511.071447,927.783694 477.700406,939.296939 454.082705,954.389588 C453.287727,954.18186 452.468122,954.041654 451.631451,953.971072 C429.570234,928.428627 399.706032,910.235216 362.15952,903.709394 C327.727824,897.724947 305.291924,901.185486 274.548102,913.236878 L272.570459,914.020949 C260.996709,894.787514 240.383584,875.471468 216.147141,863.25246 C188.384034,849.255455 157.572424,844.807757 125.569104,851.801382 L125.405044,842.732278 C123.435389,743.327295 115.119493,591.842755 116.669143,543.475253 L116.873202,537.518407 C118.642778,488.647739 123.920976,399.906075 121.912717,328.023787 C245.371027,327.95399 354.507118,313.190764 449.421157,283.67574 C500.118003,268.007478 549.282699,250.813894 596.943589,232.091536 L597.896762,233.391439 C598.053051,233.599621 598.208045,233.803481 598.361733,234.002882 Z" id="bp-dorsum-of-hand-right" fill="#FFFFFF" fill-rule="nonzero"></path>
            </g>
        </g>
        <g id="viewport-boundary" mask="url(#mask-2)" stroke="#FF0000" stroke-width="3">
            <g transform="translate(260, 190)" id="boundary">
                <rect x="0" y="0" width="560" height="1080"></rect>
            </g>
        </g>
    </g>
</svg>