<?xml version="1.0" encoding="UTF-8"?>
<svg width="1080px" height="1460px" viewBox="0 0 1080 1460" version="1.1" xmlns="http://www.w3.org/2000/svg" xmlns:xlink="http://www.w3.org/1999/xlink">
    <title>second-toe-right-plantar</title>
    <defs>
        <rect id="path-1" x="0" y="0" width="1080" height="1460"></rect>
    </defs>
    <g id="second-toe-right-plantar" stroke="none" stroke-width="1" fill="none" fill-rule="evenodd">
        <mask id="mask-2" fill="white">
            <use xlink:href="#path-1"></use>
        </mask>
        <g id="mask"></g>
        <g id="bp-second-toe-right-plantar" mask="url(#mask-2)" fill="#FFFFFF">
            <g transform="translate(539.8202, 729.9521) scale(-1, 1) translate(-539.8202, -729.9521)translate(319.3086, 217.6173)">
                <path d="M346.002701,567.920552 L352.43322,567.213588 L350.465694,578.57236 C341.548611,631.646068 334.664418,697.590306 356.530445,732.941116 C329.994944,833.194725 308.132699,930.451029 290.960884,1024.66968 C198.564461,1005.12374 101.459916,989.501304 0,978.208963 C6.20851004,857.044342 16.9256742,747.905524 32.1405707,650.714506 L33.90755,639.634669 C51.8461445,614.048657 67.7421583,573.835008 75.9766635,526.310693 C160.411619,562.926503 252.970733,577.532269 346.002701,567.920552 L346.002701,567.920552 Z" id="bp-proximal-phalanx-second-toe-right-plantar"></path>
                <path d="M368.783532,477.40523 L374.194915,476.774995 L370.027712,491.29292 C364.353246,511.328755 359.711747,529.023325 356.860755,543.311213 L355.257214,551.767829 C259.848045,563.605854 164.643068,549.165623 78.3269166,510.96982 C80.6466487,493.629357 81.9298318,475.472808 81.9298318,456.822049 L81.9528664,443.675288 C81.9684703,439.365026 81.9922474,435.125091 82.02494,430.950494 C171.072596,472.150603 269.734429,488.521062 368.783532,477.40523 L368.783532,477.40523 Z" id="bp-proximal-interphalangeal-joint-second-toe-right-plantar"></path>
                <path d="M407.587734,356.383753 L409.135377,356.211188 C399.163101,392.853456 388.264792,428.905941 378.794822,461.057415 C276.304975,474.860687 173.854187,458.29282 82.2094304,414.473119 C82.8017634,373.340559 84.4405322,338.386665 87.9251841,304.215783 C185.756831,348.833706 293.607525,367.301135 402.15959,356.926531 L407.587734,356.383753 Z" id="bp-middle-phalanx-second-toe-right-plantar"></path>
                <path d="M425.041396,266.440467 L430.669853,265.835384 C425.982533,290.117536 419.938055,315.415511 413.299632,340.655911 C301.487082,353.695771 190.060771,335.281157 89.6658933,288.504136 C92.6135455,263.833298 96.5947624,239.143333 101.91359,212.381562 C202.269264,259.003033 313.358211,278.00267 425.041396,266.440467 L425.041396,266.440467 Z" id="bp-distal-interphalangeal-joint-second-toe-right-plantar"></path>
                <path d="M316.234995,6.93594017 C447.652165,39.4473444 450.965885,148.736498 433.487399,250.400674 C319.956456,264.053268 206.751717,245.262965 105.015853,197.262012 C106.518852,190.131894 108.116777,182.83657 109.813413,175.341912 L111.104457,169.68301 C135.103306,65.2830105 181.795523,-26.3231541 316.234995,6.93594017 Z" id="bp-distal-phalanx-second-toe-right-plantar"></path>
            </g>
        </g>
        <g id="decoration" opacity="0.15" mask="url(#mask-2)">
            <g transform="translate(516.1109, 3167.4953) scale(-1, 1) translate(-516.1109, -3167.4953)translate(-504, -24)">
                <g id="bp-ball-of-foot-right" transform="translate(0, 1265.9367)">
                    <path d="M272.169701,31.085368 C391.99866,-0.979740518 544.577193,-7.32230515 713.402564,7.8469143 C708.216045,141.782461 708.160406,289.12182 713.222686,449.997549 C713.24505,450.708267 713.291958,451.412432 713.362571,452.109256 C720.488471,569.057602 725.937827,685.599051 729.704894,801.630016 L611.946676,841.198436 L596.238461,846.376387 C558.503769,858.737273 526.934274,868.55922 497.516034,876.973358 L493.517413,878.11212 C413.939613,900.676547 350.856123,912.404183 296.884486,913.394529 C181.634443,915.509296 107.884584,867.961606 63.6696737,748.95712 L63.0454405,747.24436 C35.3123712,665.26996 16.6412671,587.65396 5.8417853,488.05396 C-1.85901541,418.160006 -1.45913192,349.922574 4.19958746,284.078638 C5.83322657,277.127517 7.50717625,269.773697 9.2620035,261.903576 C35.1704022,145.708522 125.30674,70.3845224 272.169701,31.085368 Z" id="bp-metatarsophalangeal-joint-great-toe-right-plantar" fill="#FFFFFF"></path>
                    <path d="M773.219914,13.9652216 C872.136426,25.0986554 966.717219,40.4149484 1056.62875,59.5030274 C1032.71928,205.699666 1020.43179,344.3566 1019.81739,475.329926 L1019.79397,485.277834 C1020.37313,562.889609 1020.26543,640.167566 1019.46519,717.16093 L1009.55367,719.364913 C944.868499,733.976712 874.925885,754.197962 789.084452,782.029146 C785.307746,670.663775 779.990722,558.831924 773.149353,446.628083 C768.249432,290.194723 768.242933,146.872406 773.114855,16.5754604 L773.219914,13.9652216 Z" id="bp-metatarsophalangeal-joint-second-toe-right-plantar" fill="#FFFFFF"></path>
                    <path d="M1115.27519,72.6412262 C1195.95793,91.679427 1272.63955,113.823419 1345.06159,138.754663 L1344.72993,140.869278 C1331.04462,229.828057 1317.96184,358.877676 1305.42887,528.268814 L1303.03956,561.156895 C1301.20409,602.851806 1299.30541,644.538773 1297.31109,686.22871 C1257.76391,686.618113 1217.671,688.6659 1176.24583,692.445447 C1164.42511,693.523945 1152.49764,694.815388 1140.45438,696.316627 C1120.05822,698.859086 1099.88909,701.849838 1079.5774,705.358592 C1080.27264,632.122755 1080.3401,558.625425 1079.78942,484.830086 L1079.80624,477.389962 C1080.29646,350.507912 1092.06144,215.926093 1115.07993,73.8062888 L1115.27519,72.6412262 Z" id="bp-metatarsophalangeal-joint-third-toe-right-plantar" fill="#FFFFFF"></path>
                    <path d="M1402.60233,159.482782 C1475.27938,186.857871 1543.30456,217.135888 1606.38997,249.962014 L1605.11078,263.352202 C1602.77907,288.185356 1600.51747,314.599571 1598.26056,342.866123 L1595.84308,376.250656 C1591.86874,432.759044 1587.31877,504.999786 1582.45395,589.712477 L1579.02823,650.427307 C1578.06449,670.130994 1577.04412,689.811857 1575.93879,709.473258 C1500.40219,696.884562 1429.13343,689.184139 1357.33383,686.87969 C1358.64837,659.517637 1359.91656,632.157183 1361.14203,604.795132 L1362.87661,565.395307 L1365.31496,531.987006 C1377.09724,372.873495 1389.3392,249.988075 1401.99843,163.527952 L1402.60233,159.482782 Z" id="bp-metatarsophalangeal-joint-fourth-toe-right-plantar" fill="#FFFFFF"></path>
                </g>
                <g id="bp-great-toe-right-plantar" transform="translate(34.5665, 0)">
                    <path d="M405.927471,686.232801 C496.254673,686.660576 590.13624,677.206821 691.901161,658.161416 C689.587812,675.973028 688.240873,694.310375 688.240873,714.190653 L688.27828,728.497261 C688.676058,801.010444 692.506593,869.495373 711.960742,897.621549 C697.712893,992.391944 687.583699,1097.74804 681.555067,1213.78275 C507.359837,1198.33645 349.100343,1205.07566 222.094877,1239.06113 C128.509394,1264.10373 53.4116936,1303.57058 0,1358.34499 C41.916833,1169.72447 107.207531,1011.86797 108.668682,907.390653 C109.580639,842.182653 100.962652,766.231293 90.9134416,689.874458 L89.3160111,677.816253 L86.1817816,654.483066 C192.849082,674.271992 302.497305,685.742972 405.927471,686.232801 Z" id="bp-proximal-phalanx-great-toe-right-plantar" fill="#FFFFFF"></path>
                    <path d="M694.208428,642.457613 C591.346849,661.982976 496.794171,671.662963 405.998501,671.232969 C301.934987,670.740141 191.414837,659.015413 84.0673729,638.834062 L80.0338405,608.865353 C72.080615,549.22143 65.0335673,491.623409 62.9092483,441.199995 C174.979395,463.000026 290.907739,475.716499 399.927759,476.232801 C505.248555,476.731583 615.401646,463.796056 737.249381,437.885739 C722.856956,526.663765 704.37929,582.099991 694.744275,639.222242 L694.208428,642.457613 Z" id="bp-interphalangeal-joint-great-toe-right-plantar" fill="#FFFFFF"></path>
                    <path d="M417.653857,0.190652909 C674.441535,7.99065291 762.037332,262.390653 741.638311,408.790653 L740.371812,417.662983 C740.158225,419.124127 739.94342,420.57657 739.727444,422.020444 C616.632265,448.515666 505.766424,461.733868 399.998789,461.232969 C290.869392,460.716149 174.63943,447.84726 62.4140836,425.826935 C61.8705592,400.920315 62.7127303,378.017139 65.4707552,357.790653 C83.4698916,225.790653 160.866178,-7.60934709 417.653857,0.190652909 Z" id="bp-distal-phalanx-great-toe-right-plantar" fill="#FFFFFF"></path>
                </g>
                <g id="bp-third-toe-right-plantar" transform="translate(1125.4609, 438.3806)">
                    <path d="M310.927485,510.468503 L310.770709,510.865698 C292.521176,558.691957 281.518946,602.042615 290.359543,629.295603 C265.347931,714.234524 247.328364,797.62103 229.237127,906.208911 C156.752581,881.633993 80.2596636,859.788869 0,840.964588 C16.938217,747.63481 38.5921395,651.151828 64.9513963,551.565716 C80.4091235,535.729877 89.609721,500.260689 96.1933646,458.199484 C162.955516,490.08537 235.82275,508.032469 310.927485,510.468503 Z" id="bp-proximal-phalanx-third-toe-right-plantar" fill="#FFFFFF"></path>
                    <path d="M341.442145,438.484997 L340.535999,440.476789 C332.224195,458.907717 324.08271,477.488729 316.763737,495.618038 C240.282578,493.916327 166.091911,475.675199 98.4765779,442.644727 C101.442789,421.172416 103.876665,398.481518 106.217794,376.138733 C178.452874,414.393378 258.591866,435.876482 341.442145,438.484997 Z" id="bp-proximal-interphalangeal-joint-third-toe-right-plantar" fill="#FFFFFF"></path>
                    <path d="M399.085894,306.75262 L397.982095,309.616799 C394.790021,317.87984 391.59742,325.850519 388.489569,333.452519 C377.517634,360.290565 362.89493,391.449914 348.182557,423.644687 C263.360929,421.98805 181.320134,399.986596 107.900886,360.026644 L109.668849,343.480244 C113.088767,312.129325 116.766394,283.143458 122.040464,261.313173 L122.73755,258.506718 C124.712892,250.77412 126.587838,242.254377 128.469528,233.159812 C210.161608,280.873276 303.033061,306.488573 399.085894,306.75262 Z" id="bp-middle-phalanx-third-toe-right-plantar" fill="#FFFFFF"></path>
                    <path d="M426.072448,222.736026 L425.415781,225.413723 C419.695005,248.202474 412.377907,270.679052 404.700412,291.737441 C307.594141,292.491475 213.674749,266.600101 131.613083,217.595858 L135.17107,199.727619 C138.846965,181.456249 142.946249,162.113539 148.095905,142.941996 C231.419465,194.129281 327.007025,221.916702 426.072448,222.736026 Z" id="bp-distal-interphalangeal-joint-third-toe-right-plantar" fill="#FFFFFF"></path>
                    <path d="M324.945865,4.42371009 C437.925632,28.7921003 448.293255,118.47797 429.499693,207.750755 C330.577338,207.550409 235.139245,179.700851 152.374237,127.950581 L153.799773,123.324361 C177.48859,47.9457265 221.296174,-17.9322938 324.945865,4.42371009 Z" id="bp-distal-phalanx-third-toe-right-plantar" fill="#FFFFFF"></path>
                </g>
                <g id="bp-fourth-toe-right-plantar" transform="translate(1412.1439, 660.9825)">
                    <path d="M285.021874,424.55627 L283.571059,427.620083 C266.728886,463.565285 254.787269,498.85274 259.95343,523.171294 C230.919312,603.348867 214.160084,680.593438 201.080562,791.02272 C138.416642,759.474624 71.3033341,730.356094 0,703.967889 L2.33903496,689.861761 C19.4838925,587.490437 36.5454881,508.378408 59.7397202,428.747357 C75.3862013,416.83818 85.7810099,389.575317 93.7054223,358.012967 C152.434627,391.961334 217.17156,414.613403 285.021874,424.55627 Z" id="bp-proximal-phalanx-fourth-toe-right-plantar" fill="#FFFFFF"></path>
                    <path d="M316.369617,364.752246 L314.981628,367.251441 C307.378785,380.980626 299.423225,395.598594 291.968362,410.384486 C222.753443,400.894522 156.792686,377.820639 97.2913418,342.745573 C101.256176,324.809147 104.605684,306.102823 107.803516,288.458569 C171.048906,327.968295 241.845055,354.022896 316.369617,364.752246 Z" id="bp-proximal-interphalangeal-joint-fourth-toe-right-plantar" fill="#FFFFFF"></path>
                    <path d="M371.007664,253.106958 L367.668023,260.881641 C360.288659,277.85058 353.474706,292.222275 349.094698,302.508778 L348.387553,304.185114 C343.594197,315.66449 334.647117,331.909964 324.196191,350.683244 C247.666854,340.524017 175.068632,313.771856 110.717707,272.558911 L111.975267,265.937016 C115.123022,249.619782 118.320112,235.164527 122.02591,224.387346 L124.110067,218.545369 C128.211123,206.802784 133.16314,190.344753 139.386278,171.671604 C208.968869,216.076949 287.900477,244.066511 371.007664,253.106958 Z" id="bp-middle-phalanx-fourth-toe-right-plantar" fill="#FFFFFF"></path>
                </g>
            </g>
        </g>
        <g id="viewport-boundary" mask="url(#mask-2)" stroke="#FF0000" stroke-width="3">
            <g transform="translate(260, 190)" id="boundary">
                <rect x="0" y="0" width="560" height="1080"></rect>
            </g>
        </g>
    </g>
</svg>