<?xml version="1.0" encoding="UTF-8"?>
<svg width="1080px" height="1460px" viewBox="0 0 1080 1460" version="1.1" xmlns="http://www.w3.org/2000/svg" xmlns:xlink="http://www.w3.org/1999/xlink">
    <title>third-toe-right-dorsal</title>
    <defs>
        <rect id="path-1" x="0" y="0" width="1080" height="1460"></rect>
    </defs>
    <g id="third-toe-right-dorsal" stroke="none" stroke-width="1" fill="none" fill-rule="evenodd">
        <mask id="mask-2" fill="white">
            <use xlink:href="#path-1"></use>
        </mask>
        <g id="mask"></g>
        <g id="bp-third-toe-right-dorsal" mask="url(#mask-2)" fill="#FFFFFF">
            <g transform="translate(321.2399, 277.3927)">
                <path d="M310.927205,510.482609 L310.77043,510.879815 C292.520913,558.707396 281.518692,602.059251 290.359281,629.312993 C265.347692,714.254261 247.328141,797.643071 229.236921,906.233953 C156.75244,881.658356 80.2595914,859.812628 0,840.987827 C16.9382018,747.65547 38.5921048,651.169822 64.9513379,551.580958 C80.4090511,535.744681 89.6096403,500.274513 96.193278,458.212146 C162.95537,490.098913 235.822538,508.046508 310.927205,510.482609 Z" id="bp-proximal-phalanx-third-toe-right-dorsal"></path>
                <path d="M341.441838,438.497114 L340.535693,440.488961 C332.223896,458.920398 324.082419,477.501924 316.763452,495.631733 C240.282362,493.929976 166.091761,475.688344 98.4764893,442.656959 C101.442698,421.184054 103.876572,398.49253 106.217699,376.149127 C176.915799,413.590878 255.185045,434.966734 336.157259,438.304995 L341.441838,438.497114 Z" id="bp-proximal-interphalangeal-joint-third-toe-right-dorsal"></path>
                <path d="M399.085535,306.761097 L397.981737,309.625355 C394.789666,317.888625 391.597067,325.859523 388.489219,333.461733 C377.517295,360.300521 362.894603,391.460731 348.182244,423.656394 C263.360692,421.999711 181.319971,399.997649 107.900789,360.036593 L109.668751,343.489735 C113.088666,312.13795 116.766289,283.151283 122.040354,261.320394 L122.737439,258.513861 C124.712779,250.78105 126.587724,242.261071 128.469412,233.166255 C210.161419,280.881037 303.032788,306.497042 399.085535,306.761097 Z" id="bp-middle-phalanx-third-toe-right-dorsal"></path>
                <path d="M426.072065,222.742181 L425.415399,225.419952 C419.694627,248.209333 412.377536,270.686532 404.700048,291.745503 C307.593864,292.499557 213.674557,266.607468 131.612964,217.601871 L135.170948,199.733139 C138.84684,181.461263 142.94612,162.118019 148.095772,142.945946 C231.419257,194.134646 327.00673,221.922835 426.072065,222.742181 Z" id="bp-distal-interphalangeal-joint-third-toe-right-dorsal"></path>
                <path d="M324.945572,4.42383233 C437.925238,28.7928959 448.292852,118.481244 429.499306,207.756496 C330.577041,207.556144 235.139034,179.705817 152.3741,127.954116 L153.799634,123.327769 C177.488431,47.9470514 221.295975,-17.9327894 324.945572,4.42383233 Z M400.864133,65.1282123 C385.930935,43.2600704 272.865291,14.9914967 249.398837,26.1922523 C226.465711,37.3930079 198.199301,85.9296156 211.532513,101.397326 C254.198794,150.467303 355.53121,168.06849 395.530848,146.733718 C410.997375,138.199808 415.797331,86.4629849 400.864133,64.594843 Z" id="bp-distal-phalanx-third-toe-right-dorsal"></path>
                <path d="M361.623092,39.6818885 C351.100198,34.791656 320.530458,40.705479 291.867792,48.073559 C289.016798,48.8064409 286.158101,49.5582639 283.316328,50.3275991 L279.069441,51.4945577 C255.815244,57.9831036 234.551149,65.6149602 229.106651,73.5878708 C223.27456,81.9218118 222.046926,95.9611172 222.874031,108.616795 C223.526323,118.597633 224.020759,130.675615 229.294783,133.594954 C248.117,143.512592 282.001701,142.741695 315.069182,134.594011 C345.736773,127.037649 376.330648,112.719079 394.691267,91.6029607 C395.36756,90.8184015 394.476163,89.4200848 394.363548,88.41639 C393.780315,83.2182412 391.534237,77.2364047 388.514432,71.2388676 C381.907525,58.1171047 371.439902,44.4878966 361.623092,39.6818885 Z" id="bp-nail-of-third-toe-right" transform="translate(308.7922, 89.3813) scale(-1, 1) translate(-308.7922, -89.3813)"></path>
            </g>
        </g>
        <g id="decoration" opacity="0.15" mask="url(#mask-2)">
            <g transform="translate(-804.22, -161)">
                <g id="bp-dorsum-of-foot-right" transform="translate(0, 1265.9717)">
                    <path d="M1663.71058,281.271057 C1680.35741,290.809884 1696.61699,300.536443 1712.48316,310.443153 C1810.1682,371.436912 1887.79311,436.631953 1939.59153,498.438719 C1979.29294,545.811135 2000.64374,587.901966 2002.72795,615.348936 C2002.04162,625.526174 2001.30845,635.842565 2000.53674,646.314885 L1998.94435,667.472404 C1998.21984,676.995356 1995.82137,694.04496 1992.01809,717.521469 L1989.66154,731.826576 C1979.4689,764.151527 1959.12183,774.843977 1913.32277,773.217664 L1908.90608,773.023111 C1887.24454,771.888862 1860.91382,767.932379 1824.98165,760.694618 L1814.82709,758.611691 C1791.11245,753.623327 1713.80242,736.432377 1689.10482,731.135461 L1686.40045,730.558465 C1669.1219,726.896025 1652.14299,723.446841 1635.41656,720.215943 C1636.27173,705.35896 1637.07609,690.493091 1637.83151,675.617054 L1638.83789,655.11341 L1638.91615,654.129077 L1642.01,599.116615 C1647.55483,502.186774 1652.69471,421.388848 1657.03495,361.650771 L1658.07751,347.50031 L1659.29536,332.438128 C1660.31089,320.03952 1661.32888,308.020477 1662.35531,296.355063 L1663.71058,281.271057 Z" id="bp-metatarsophalangeal-joint-fifth-toe-right-dorsal" fill="#FFFFFF"></path>
                    <path d="M1402.60107,159.487189 C1475.27805,186.863035 1543.30317,217.141888 1606.38853,249.968921 L1605.10934,263.359479 C1602.77763,288.193319 1600.51603,314.608264 1598.25912,342.875597 L1595.84165,376.261053 C1591.86731,432.771002 1587.31734,505.013741 1582.45253,589.728773 L1579.02681,650.445281 C1578.06307,670.149512 1577.04271,689.830919 1575.93737,709.492864 C1500.40084,696.90382 1429.13215,689.203184 1357.33261,686.898671 C1358.64715,659.535862 1359.91534,632.174652 1361.14081,604.811845 L1362.87538,565.410931 L1365.31373,532.001707 C1377.096,372.883798 1389.33795,249.994983 1401.99717,163.532471 L1402.60107,159.487189 Z" id="bp-metatarsophalangeal-joint-fourth-toe-right-dorsal" fill="#FFFFFF"></path>
                    <path d="M1115.27419,72.6432336 C1195.95685,91.6819604 1272.6384,113.826564 1345.06038,138.758497 L1344.72872,140.873171 C1331.04342,229.834408 1317.96066,358.887593 1305.42769,528.283412 L1303.03839,561.172402 C1301.20292,602.868465 1299.30424,644.556584 1297.30992,686.247673 C1257.76278,686.637087 1217.6699,688.68493 1176.24477,692.464582 C1164.42406,693.543109 1152.4966,694.834589 1140.45335,696.335868 C1120.05721,698.878398 1099.8881,701.869232 1079.57643,705.378084 C1080.27166,632.140223 1080.33913,558.640862 1079.78845,484.843483 L1079.80527,477.403154 C1080.29549,350.517598 1092.06046,215.93206 1115.07893,73.8083284 L1115.27419,72.6432336 Z" id="bp-metatarsophalangeal-joint-third-toe-right-dorsal" fill="#FFFFFF"></path>
                    <path d="M773.219218,13.9656076 C872.135641,25.0993489 966.71635,40.4160652 1056.6278,59.5046717 C1032.71835,205.70535 1020.43088,344.366115 1019.81647,475.343062 L1019.79305,485.291244 C1020.37222,562.905163 1020.26451,640.185256 1019.46428,717.180748 L1009.55276,719.384792 C944.867649,733.996995 874.925098,754.218804 789.083742,782.050756 C785.30704,670.682308 779.99002,558.847367 773.148657,446.640425 C768.24874,290.202742 768.242241,146.876464 773.11416,16.5759184 L773.219218,13.9656076 Z" id="bp-metatarsophalangeal-joint-second-toe-right-dorsal" fill="#FFFFFF"></path>
                </g>
                <g id="bp-second-toe-right-dorsal" transform="translate(775.8893, 241.624)">
                    <path d="M346.00239,567.936245 L352.432903,567.229263 L350.465379,578.588348 C341.548304,631.663523 334.664117,697.609583 356.530124,732.96137 C329.994647,833.217749 308.132422,930.476741 290.960623,1024.69799 C198.564282,1005.15151 101.459824,989.528647 0,978.235994 C6.20850446,857.068026 16.925659,747.926192 32.1405418,650.732488 L33.9075195,639.652344 C51.8460978,614.065626 67.7420973,573.850865 75.9765951,526.325237 C160.411475,562.942059 252.970506,577.548228 346.00239,567.936245 L346.00239,567.936245 Z" id="bp-proximal-phalanx-second-toe-right-dorsal" fill="#FFFFFF"></path>
                    <path d="M368.7832,477.418423 L374.194579,476.788171 L370.027379,491.306496 C364.352918,511.342885 359.711423,529.037944 356.860434,543.326226 L355.256894,551.783076 C259.847812,563.621429 164.64292,549.180798 78.3268461,510.98394 C80.6465762,493.642997 81.9297581,475.485947 81.9297581,456.834672 L81.9527927,443.687549 C81.9683966,439.377167 81.9921736,435.137115 82.0248662,430.962403 C171.072443,472.16365 269.734187,488.534562 368.7832,477.418423 L368.7832,477.418423 Z" id="bp-proximal-interphalangeal-joint-second-toe-right-dorsal" fill="#FFFFFF"></path>
                    <path d="M407.587367,356.393601 L409.135009,356.221031 C399.162742,392.864312 388.264443,428.917794 378.794481,461.070156 C276.304726,474.873809 173.85403,458.305484 82.2093565,414.484572 C82.8016889,373.350876 84.4404563,338.396015 87.925105,304.22419 C185.756663,348.843346 293.607261,367.311285 402.159228,356.936394 L407.587367,356.393601 Z" id="bp-middle-phalanx-second-toe-right-dorsal" fill="#FFFFFF"></path>
                    <path d="M425.041014,266.44783 L430.669465,265.84273 C425.98215,290.125554 419.937677,315.424227 413.29926,340.665325 C301.486811,353.705545 190.0606,335.290422 89.6658126,288.512108 C92.6134622,263.840589 96.5946755,239.149941 101.913498,212.387431 C202.269082,259.01019 313.357929,278.010352 425.041014,266.44783 L425.041014,266.44783 Z" id="bp-distal-interphalangeal-joint-second-toe-right-dorsal" fill="#FFFFFF"></path>
                    <path d="M316.234711,6.93613184 C447.651762,39.4484345 450.96548,148.740609 433.487009,250.407594 C319.956168,264.060565 206.751531,245.269742 105.015758,197.267463 C106.518756,190.137148 108.116679,182.841623 109.813314,175.346758 L111.104357,169.687699 C135.103184,65.2848145 181.79536,-26.3238815 316.234711,6.93613184 Z M386.044708,69.6948088 C367.202062,46.7237584 237.564099,25.6282601 212.451881,40.7135977 C187.938171,55.8407902 161.093343,112.908686 177.403813,129.086356 C229.758871,180.264718 345.145586,190.138405 387.978653,162.458245 C404.376928,151.575376 404.845502,93.264414 386.002856,70.2933637 Z" id="bp-distal-phalanx-second-toe-right-dorsal" fill="#FFFFFF"></path>
                    <path d="M358.099781,58.3029501 C347.68415,51.2083559 315.162105,51.8243921 283.0915,54.6892414 L278.515491,55.1132138 C245.530378,58.2765836 211.5316,63.6940812 202.548503,73.2056502 C194.495358,82.0985862 190.343205,98.1026545 188.995341,112.929416 C187.893735,125.047297 186.767511,139.092905 192.386905,143.417621 C211.884155,157.924076 250.310872,163.219415 289.150563,159.817737 C324.87929,156.688524 361.639481,145.899172 385.911833,125.278007 C386.632194,124.593907 386.742928,123.509979 386.74389,122.357056 L386.724345,120.961603 L386.735037,120.278738 C387.003037,114.194319 385.544319,106.909034 383.176964,99.4610525 C378.00453,83.1879612 368.413323,65.717423 358.099781,58.3029501 Z" id="bp-nail-of-second-toe-right" fill="#FFFFFF" transform="translate(287.4306, 106.743) scale(-1, 1) rotate(-4) translate(-287.4306, -106.743)"></path>
                </g>
                <g id="bp-fourth-toe-right-dorsal" transform="translate(1412.1427, 661.0008)">
                    <path d="M285.021617,424.568002 L283.570804,427.6319 C266.728646,463.578095 254.78704,498.866525 259.953197,523.185751 C230.919104,603.36554 214.159891,680.612245 201.080382,791.044579 C138.416518,759.495612 71.30327,730.376277 0,703.987343 L2.33903286,689.880825 C19.4838749,587.506672 36.5454552,508.392456 59.7396665,428.759205 C75.3861335,416.849699 85.7809327,389.586082 93.705338,358.02286 C152.43449,391.972165 217.171365,414.624861 285.021617,424.568002 Z" id="bp-proximal-phalanx-fourth-toe-right-dorsal" fill="#FFFFFF"></path>
                    <path d="M316.369332,364.762326 L314.981345,367.261589 C307.378508,380.991154 299.422956,395.609525 291.9681,410.395827 C222.753242,400.905601 156.792545,377.83108 97.2912543,342.755044 C101.256084,324.818122 104.60559,306.111282 107.803419,288.46654 C171.048752,327.977358 241.844837,354.032679 316.369332,364.762326 Z" id="bp-proximal-interphalangeal-joint-fourth-toe-right-dorsal" fill="#FFFFFF"></path>
                    <path d="M371.007331,253.113953 L367.667693,260.88885 C360.288335,277.858258 353.474388,292.23035 349.094384,302.517137 L348.38724,304.19352 C343.593888,315.673213 334.646816,331.919136 324.195899,350.692935 C247.666631,340.533427 175.068475,313.780526 110.717608,272.566443 L111.975167,265.944365 C115.122919,249.62668 118.320006,235.171026 122.025801,224.393546 L124.109955,218.551408 C128.211008,206.808498 133.16302,190.350013 139.386153,171.676348 C208.968681,216.08292 287.900218,244.073255 371.007331,253.113953 Z" id="bp-middle-phalanx-fourth-toe-right-dorsal" fill="#FFFFFF"></path>
                    <path d="M394.781341,186.398658 L393.847667,189.744617 C389.014913,206.821053 383.056201,223.387266 376.962627,238.654004 C293.343456,230.254496 213.977483,202.15207 144.380363,157.058814 C150.423997,139.850857 157.524867,121.429321 165.966473,103.476952 C233.215842,147.105876 309.354445,175.304977 389.650463,185.755715 L394.781341,186.398658 Z" id="bp-distal-interphalangeal-joint-fourth-toe-right-dorsal" fill="#FFFFFF"></path>
                    <path d="M331.367686,9.60786469 C407.360803,40.2015778 412.982187,107.570565 398.451745,171.722661 C317.270996,162.242775 240.305053,134.142598 172.6553,89.9354602 L174.584993,86.271603 C206.441816,26.6601311 254.961426,-21.1521736 331.367686,9.60786469 Z M376.294928,72.4425813 C366.089785,53.1647247 275.377401,18.0109862 254.967114,24.8149356 C234.556828,31.618885 213.353554,57.3736106 222.991745,71.5485052 C253.040223,116.908168 335.248321,141.855982 370.399369,128.248083 C384.57318,122.578126 386.500071,92.2874337 376.294928,72.4425813 Z" id="bp-distal-phalanx-fourth-toe-right-dorsal" fill="#FFFFFF"></path>
                    <path d="M343.521347,39.0455783 C334.741246,36.1186539 310.855291,44.331087 288.652333,53.0469337 C266.986755,61.5518299 244.517214,71.3321947 240.201518,79.4474392 C236.324963,87.07113 234.874001,96.7132613 235.736183,104.874408 C236.075776,108.088887 236.731121,111.077436 238.009746,113.397631 C254.543904,120.477403 281.880854,116.227092 307.731015,106.283961 C331.748012,97.0459479 355.068858,82.3851973 367.735762,63.2638795 C367.209687,60.2858132 365.825281,57.7609112 364.122145,55.2716932 C359.314704,48.2453827 351.392079,41.6693563 343.521347,39.0455783 Z" id="bp-nail-of-fourth-toe-right" fill="#FFFFFF" transform="translate(301.6158, 77.6767) scale(-1, 1) translate(-301.6158, -77.6767)"></path>
                </g>
                <g id="bp-fifth-toe-right-dorsal" transform="translate(1670.2002, 913.3633)">
                    <path d="M310.857423,340.486114 L310.668276,341.303626 C296.801754,401.943701 287.946187,470.705601 298.745659,512.466755 C330.724478,633.284869 339.841653,733.577891 338.23472,841.554929 C284.218292,767.596764 192.441851,686.073551 74.0573753,612.155231 C50.205135,597.262083 25.5128189,582.769684 0,568.701274 C12.423053,455.310365 27.7919781,378.582611 54.6395016,301.579833 C72.8721185,297.710836 86.1651587,281.850045 96.7192476,260.94606 C161.385883,302.329666 234.152812,329.524045 310.857423,340.486114 Z" id="bp-proximal-phalanx-fifth-toe-right-dorsal" fill="#FFFFFF"></path>
                    <path d="M325.543451,285.070979 L324.74653,287.713268 C321.20411,299.564426 317.683263,312.406456 314.356475,325.825666 C238.571973,315.204455 166.723284,288.292271 103.025994,247.167315 C108.582764,233.886387 113.356423,219.387993 117.790802,205.052483 C179.111663,244.858582 247.831603,271.830849 320.356666,284.211487 L325.543451,285.070979 Z" id="bp-proximal-interphalangeal-joint-fifth-toe-right-dorsal" fill="#FFFFFF"></path>
                    <path d="M356.502749,196.991455 L355.932125,198.878227 C351.305064,213.997369 346.210002,227.647599 341.758857,238.744305 L340.743606,241.259261 C337.399478,249.405838 333.785744,259.341755 330.100316,270.592334 C255.500588,258.936083 184.893545,231.438208 122.34486,190.108863 L125.615746,179.350958 C129.225396,167.59654 132.780993,156.59368 136.56425,147.230987 L137.706339,144.472273 C140.569166,137.728567 143.528398,130.094782 146.700469,121.945009 C208.937106,160.268937 278.325269,185.611897 351.285292,196.256171 L356.502749,196.991455 Z" id="bp-middle-phalanx-fifth-toe-right-dorsal" fill="#FFFFFF"></path>
                    <path d="M368.61225,140.252224 L368.557291,140.766141 C366.927488,154.981764 364.060655,169.069844 360.598169,182.404752 C286.154572,172.584303 215.394076,147.066267 152.278847,107.761322 C157.892404,93.7435724 164.240331,78.9230464 171.826681,64.9053523 C231.71149,102.665066 298.389527,128.30011 368.61225,140.252224 Z" id="bp-distal-interphalangeal-joint-fifth-toe-right-dorsal" fill="#FFFFFF"></path>
                    <path d="M300.794436,8.41803705 C357.306443,29.9875174 371.99887,77.035189 369.813985,125.231286 C301.853084,113.493495 237.342869,88.5626962 179.384305,51.9453759 L181.268331,49.0147337 C205.743988,11.6955499 241.766034,-14.1118998 300.794436,8.41803705 Z M338.859572,46.8541043 C331.059953,31.8536898 270.485253,6.96391972 254.886015,12.3640689 C239.886748,17.7642182 222.292768,41.6176592 225.783464,46.8541043 C236.061787,61.8774178 318.507465,98.6885644 334.402087,92.330229 C344.601588,88.1301129 342.73973,54.3165192 338.859572,46.8541043 Z" id="bp-distal-phalanx-fifth-toe-right-dorsal" fill="#FFFFFF"></path>
                </g>
            </g>
        </g>
        <g id="viewport-boundary" mask="url(#mask-2)" stroke="#FF0000" stroke-width="3">
            <g transform="translate(260, 190)" id="boundary">
                <rect x="0" y="0" width="560" height="1080"></rect>
            </g>
        </g>
    </g>
</svg>