<?xml version="1.0" encoding="UTF-8"?>
<svg width="1080px" height="1460px" viewBox="0 0 1080 1460" version="1.1" xmlns="http://www.w3.org/2000/svg" xmlns:xlink="http://www.w3.org/1999/xlink">
    <title>thorax</title>
    <defs>
        <rect id="path-1" x="0" y="0" width="1080" height="1460"></rect>
    </defs>
    <g id="thorax" stroke="none" stroke-width="1" fill="none" fill-rule="evenodd">
        <mask id="mask-2" fill="white">
            <use xlink:href="#path-1"></use>
        </mask>
        <g id="mask"></g>
        <g id="bp-thorax" mask="url(#mask-2)" fill="#FFFFFF">
            <g transform="translate(282.1855, 492.3537)">
                <path d="M292.283407,237.682539 C292.967251,238.238794 293.652201,238.789524 294.338254,239.334741 C330.017175,267.689385 368.038278,280.757653 407.128213,280.981675 C437.43471,281.15536 466.551345,273.672971 493.447795,261.111087 C501.615899,257.296205 509.066984,253.239851 515.717577,249.1483 L515.72911,252.772999 L515.826805,252.805594 L515.826805,258.93349 L515.766782,264.10411 L515.748048,265.120354 C515.711572,266.944747 515.663149,268.549281 515.59885,269.820284 L515.232468,277.127837 L514.994768,282.198171 C514.393989,295.325606 513.802891,310.560882 513.2006,326.9958 L510.979125,388.921748 L509.884677,417.89034 L509.5102,427.263892 C508.066171,462.807232 506.417772,496.246097 504.396498,520.249147 L394.274874,488.889933 L358.635389,478.79779 C308.604066,464.662022 277.195375,455.944618 264.409317,452.649301 L263.163149,452.33437 C263.290839,451.847239 263.358829,451.335938 263.358829,450.808757 L263.358149,377.845539 L289.103356,326.337526 C294.800553,315.002133 297.327899,302.29483 296.450118,289.55531 L296.393363,288.790911 L292.283407,237.682539 Z" id="bp-side-of-chest-left"></path>
                <path d="M222.429982,237.738966 L218.394311,287.912277 L218.350781,288.118342 C218.308109,288.338264 218.277331,288.562675 218.259164,288.790911 C217.228413,301.74063 219.750753,314.72993 225.54851,326.336203 L251.358,377.971966 L251.358829,450.808757 C251.358829,451.433031 251.454169,452.035037 251.631082,452.601008 L249.967359,453.024817 L245.906366,454.096812 C217.56475,461.64947 139.405256,483.705675 11.4278843,520.249147 L11.0368697,515.419077 L10.7273142,511.342835 C8.55568267,481.952042 6.82769411,441.729704 5.30442779,401.095978 L4.39198266,376.161175 C3.04481783,338.643774 1.83222659,302.615089 0.562369425,276.441904 L0.190739049,269.079528 C0.0745666012,266.496934 0.0167433843,262.844851 0,258.841976 L0,249.719946 C6.41167562,253.617311 13.5474528,257.473946 21.3349917,261.111087 C48.2314422,273.672971 77.3480772,281.15536 107.654574,280.981675 C146.744509,280.757653 184.765612,267.689385 220.444534,239.334741 L221.438031,238.540718 L222.429982,237.738966 Z" id="bp-side-of-chest-right"></path>
                <path d="M257.358311,36.5652769 L296.380046,58.9700095 L296.585114,59.0924146 C299.412662,60.8524337 300.411551,64.5380182 298.863573,67.4986653 L298.790545,67.6281669 L298.574805,67.9768684 L283.434423,91.1652997 C274.78719,104.379697 270.778142,120.115678 272.057266,135.870616 L284.431587,289.747932 L284.484589,290.468644 C285.197935,301.038371 283.096092,311.568129 278.375486,320.96048 L257.326311,363.072277 L236.282964,320.972297 L235.965616,320.327233 C231.579272,311.272741 229.568972,301.234767 230.124495,291.179532 L230.162311,290.565277 L230.193981,290.420035 C230.236794,290.20027 230.267729,289.976016 230.28607,289.747932 L242.660762,135.866029 C243.939613,120.150035 239.931158,104.416379 231.283913,91.1663392 L216.173086,68.0227132 C214.281255,65.1247038 215.022512,61.2954729 217.812597,59.3173955 L218.127992,59.1075846 L218.480311,58.8872769 L257.358311,36.5652769 Z" id="bp-sternum"></path>
                <path d="M468.640154,44.4897197 C494.20366,69.7183986 515.175505,129.009053 515.53372,230.282316 L515.53372,233.770002 L515.554933,234.986112 C514.448323,235.734643 513.2507,236.5207 511.965893,237.339549 C505.076645,241.73029 497.166763,246.129874 488.369782,250.238471 C462.976118,262.098484 435.557928,269.144407 407.196983,268.981872 C370.763764,268.773075 335.353285,256.602107 301.804292,229.940154 C298.146248,227.033045 294.517053,223.957264 290.917679,220.710254 L284.018282,134.904133 C282.954619,121.803001 286.287667,108.720395 293.478972,97.7308904 L308.73923,74.3554558 L308.953036,74.0096883 C309.029352,73.8951078 309.101702,73.7779345 309.169957,73.6583767 C314.198881,64.8495942 311.147915,53.5924608 302.346563,48.5584503 L267.737364,28.686 L284.624857,18.7347215 L291.260511,14.867961 C308.18939,5.04332024 317.291356,0.105116223 318.548177,0.0624725684 C360.719822,-1.40431109 447.082139,23.2376543 468.640154,44.4897197 Z M407.352868,169.198926 C399.244189,169.198926 392.666064,175.783154 392.666064,183.866762 C392.666064,191.95037 399.244189,198.534599 407.352868,198.534599 C415.461547,198.534599 422.039673,191.95037 422.039673,183.866762 C422.039673,175.783154 415.461547,169.198926 407.352868,169.198926 Z M407.743648,179.173054 C410.441419,179.173054 412.628394,181.362059 412.628394,184.062333 C412.628394,186.762607 410.441419,188.951612 407.743648,188.951612 C405.045877,188.951612 402.858901,186.762607 402.858901,184.062333 C402.858901,181.362059 405.045877,179.173054 407.743648,179.173054 Z" id="bp-breast-left"></path>
                <path d="M197.145945,0.0624725684 L197.330029,0.0912421213 C199.811862,0.677028065 216.517988,10.1223051 247.470598,28.4048593 L212.362406,48.5634289 L212.189254,48.6667559 L211.493506,49.1057462 L211.400936,49.1669851 C202.944141,54.6975533 200.569633,66.0728792 206.124911,74.5827579 L221.235317,97.7257387 L221.610382,98.307803 C228.544941,109.208116 231.744285,122.063024 230.699835,134.898454 L223.795155,220.773334 C220.218714,223.997106 216.612842,227.051877 212.978496,229.940154 C179.429502,256.602107 144.019024,268.773075 107.585804,268.981872 C79.2248594,269.144407 51.8066692,262.098484 26.4130055,250.238471 C17.616024,246.129874 9.7061422,241.73029 2.81689415,237.339549 C1.87298961,236.737968 0.976141711,236.154087 0.127357335,235.590202 L0.160402443,233.346264 C0.0952724896,130.18248 21.2299422,69.9791601 47.0539686,44.4897197 C68.579418,23.2376543 154.941736,-1.37171589 197.145945,0.0624725684 Z M112.965481,169.198926 C104.856802,169.198926 98.2786765,175.783154 98.2786765,183.866762 C98.2786765,191.95037 104.856802,198.534599 112.965481,198.534599 C121.07416,198.534599 127.652285,191.95037 127.652285,183.866762 C127.652285,175.783154 121.07416,169.198926 112.965481,169.198926 Z M113.356261,179.173054 C116.054032,179.173054 118.241007,181.362059 118.241007,184.062333 C118.241007,186.762607 116.054032,188.951612 113.356261,188.951612 C110.65849,188.951612 108.471514,186.762607 108.471514,184.062333 C108.471514,181.362059 110.65849,179.173054 113.356261,179.173054 Z" id="bp-breast-right"></path>
            </g>
        </g>
        <g id="decoration" opacity="0.15" mask="url(#mask-2)">
            <g transform="translate(-138, -110)">
                <g id="bp-lower-limb-left-front" stroke-width="1" fill="none" transform="translate(693.5335, 1541.0925)">
                    <path d="M290.381895,0.0325951923 L290.47959,0 L290.288948,10.1062363 C290.053206,25.0294736 289.937154,43.568384 289.92442,64.7314944 L289.925885,74.7577878 L289.958869,91.7264426 C290.092733,136.975815 290.596598,190.728726 291.347891,245.561672 C268.037573,246.691876 250.235281,228.309724 237.478303,189.320175 C232.844838,175.182146 229.840301,138.255887 229.514459,100.750797 L229.490597,96.9355896 L229.488058,91.8076261 C229.551249,69.6093886 230.58455,47.8278696 232.806464,31.0858217 L233.007,29.61 L290.381895,0.0325951923 Z" id="bp-trochanter-left" fill="#FFFFFF"></path>
                </g>
                <g id="bp-lower-limb-right-front" stroke-width="1" fill="none" transform="translate(171.9401, 1541.0925)">
                    <path d="M200.046844,0 L200.144539,0.0325951923 L259.232046,30.4941428 C261.362978,46.2098552 262.426793,66.4971977 262.608792,87.4343841 L262.632468,91.2369206 L262.632468,96.6997945 C262.497018,135.576719 259.444846,174.703447 254.644386,189.351029 C241.597384,229.226985 223.273867,247.548232 199.180697,245.490025 L199.605155,212.375166 C200.662419,123.757568 200.989581,42.0850938 200.046844,0 Z" id="bp-trochanter-right" fill="#FFFFFF"></path>
                </g>
                <g id="bp-pelvic-region-front" stroke-width="1" fill="none" transform="translate(377.0671, 1374.8571)">
                    <path d="M583.173599,0 L583.206164,0 L584.125921,2.96511131 C590.253713,22.2335066 601.83333,51.5949299 601.83333,136.378285 L550.079946,162.661465 C552.688918,119.419273 548.917913,79.3002944 538.768498,42.3516294 L542.06602,39.5715968 C568.344002,17.2260205 583.173599,0 583.173599,0 Z" id="bp-hip-left" fill="#FFFFFF"></path>
                    <path d="M532.408509,47.5823483 C542.004839,84.0683965 545.312324,123.750942 542.306574,166.608456 L376.522031,250.804078 C388.142013,221.891208 391.314658,180.574414 386.217871,126.909472 C445.897264,109.445312 495.851935,76.8767143 530.519418,49.1066129 L532.408509,47.5823483 Z" id="bp-groin-left" fill="#FFFFFF"></path>
                    <path d="M377.449138,219.404115 L377.289944,220.289157 C353.833667,212.172868 328.376013,208.11875 300.932948,208.11875 C273.489882,208.11875 248.032228,212.172868 224.575951,220.289157 C220.166973,196.057176 219.602956,165.764401 222.947871,129.400896 C247.346619,135.722417 273.42627,139.507423 300.900383,139.507423 C328.211257,139.507423 354.328902,135.550949 378.880664,128.970583 C382.13809,164.129602 381.752694,193.629552 377.779176,217.48247 L377.449138,219.404115 Z" id="bp-mons-pubis" fill="#FFFFFF"></path>
                    <path d="M215.598374,127.404936 L215.120096,132.770374 C210.79434,183.606211 214.152441,222.97545 225.353559,250.828192 L60.124742,166.910872 C60.1835989,166.588277 60.200789,166.252559 60.1709606,165.910093 C56.4495578,123.183807 58.893767,83.5562605 67.4800544,47.0482257 L70.6062485,49.6114543 C104.952412,77.5311828 154.820745,110.165738 215.598374,127.404936 Z" id="bp-groin-right" fill="#FFFFFF"></path>
                    <path d="M18.6271665,0 L21.0865197,2.81707767 C26.3796085,8.80046922 40.1620358,23.7390716 61.0618646,41.6470587 C51.8280546,78.9568317 48.9385944,119.420053 52.4017867,162.989894 L0,136.378285 C0,47.1326481 12.8306007,19.2963539 18.6271665,0 Z" id="bp-hip-right" fill="#FFFFFF"></path>
                </g>
                <g id="bp-abdomen" stroke-width="1" fill="none" transform="translate(406.4405, 1084.464)">
                    <path d="M534.228552,222.562431 L534.729691,224.638413 C535.288723,227.074451 536.01058,230.52773 536.797567,234.43191 L541.230022,256.787383 L541.425412,257.700048 L542.272897,261.879042 C542.639372,263.628978 542.955989,265.069278 543.183977,266.077013 L541.416502,267.976059 C525.830209,284.503013 409.266516,403.377657 275.630638,405.744181 L275.505,304.506 L283.869013,304.508297 C301.683502,304.508297 310.714259,302.923807 319.482497,298.572551 L320.964334,297.810114 C329.244265,293.382977 335.77071,286.850476 340.222966,278.53896 C345.018163,269.554032 346.824385,260.727836 346.916128,242.87033 L346.918315,232.153998 C411.107675,230.913132 471.236866,218.39421 527.309947,194.584153 L528.224032,198.467228 C529.947324,205.71258 531.934332,213.66706 534.228552,222.562431 Z" id="bp-lower-left-quadrant-adbomen" fill="#FFFFFF"></path>
                    <path d="M15.8020903,194.843451 C70.7244972,218.07225 129.534175,230.480004 192.234932,232.078983 L196.197,232.164 L196.199069,241.402452 C196.199069,259.307154 197.777097,268.342874 202.142376,277.083459 L202.895938,278.53896 C207.312847,286.815096 213.839292,293.347597 222.143614,297.804258 C231.121413,302.604545 239.940899,304.412742 257.783259,304.504586 L268.005,304.506 L268.129176,405.745037 L271.592017,405.780007 C126.189397,405.780007 -0.0975817059,265.946632 0,266.077013 L0.331322146,264.587119 L1.52221221,258.851347 C2.2792804,255.116538 3.18164358,250.563484 4.10330026,245.933184 L4.33125509,244.857542 L4.42895002,244.303424 L7.16033742,230.686783 C7.88897877,227.142055 8.51585457,224.241083 8.95548175,222.562431 L10.7287274,215.620547 C12.2480085,209.621561 13.6174752,204.06944 14.8532722,198.8788 L15.8020903,194.843451 Z" id="bp-lower-right-quadrant-adbomen" fill="#FFFFFF"></path>
                    <path d="M283.869013,161.154641 L286.654393,161.16836 C302.41866,161.329505 309.876866,162.9293 317.433831,166.969886 C324.429952,170.724483 329.887419,176.187013 333.60903,183.160335 C337.777919,190.942867 339.337443,198.583465 339.416636,215.378484 L339.419835,241.402452 C339.419835,259.117921 337.877201,267.005174 333.60903,275.002604 C329.857635,282.005735 324.400169,287.468265 317.433831,291.193053 L316.131208,291.862801 C308.523745,295.631838 300.60009,297.008297 283.869013,297.008297 L259.249891,297.008297 C241.552287,297.008297 233.673865,295.464529 225.685073,291.193053 C218.688952,287.438456 213.231485,281.975925 209.509874,275.002604 C205.283204,267.112205 203.738732,259.367703 203.699825,242.080817 L203.699069,216.760487 C203.699069,199.045017 205.241703,191.157765 209.509874,183.160335 C213.261268,176.157203 218.718735,170.694673 225.685073,166.969886 L226.987696,166.300138 C234.488011,162.584185 242.295675,161.193889 258.548162,161.155463 L283.869013,161.154641 Z M271.559452,220.7371 C266.870095,220.7371 263.092558,224.550738 263.092558,229.21185 C263.092558,233.872963 266.90266,237.6866 271.559452,237.6866 C276.216244,237.6866 280.026346,233.872963 280.026346,229.21185 C280.026346,224.550738 276.216244,220.7371 271.559452,220.7371 Z" id="bp-umbilical-region" fill="#FFFFFF"></path>
                    <path d="M275.343,0 L515.145476,63.7586538 L516.148869,102.984015 C517.073337,136.165602 518.37819,154.466908 525.617839,187.147262 C470.128503,210.907967 410.580544,223.404723 346.918243,224.652288 L346.919835,216.760487 C346.919835,197.861079 345.1616,188.843469 340.222966,179.623978 C335.806057,171.347842 329.279612,164.815342 320.97529,160.358681 C311.997491,155.558393 303.178005,153.750196 285.335645,153.658352 L275.628645,153.65291 L275.343,0 Z" id="bp-upper-left-quadrant-adbomen" fill="#FFFFFF"></path>
                    <path d="M28.038558,63.7586538 L267.843,0 L268.128624,153.651894 L259.249891,153.654641 C240.431188,153.654641 231.414417,155.422804 222.154569,160.352824 C213.874639,164.779962 207.348194,171.312462 202.895938,179.623978 C198.100741,188.608906 196.294519,197.435103 196.202775,215.292608 L196.197065,224.66399 C132.537753,223.489417 72.9891604,211.076102 17.4937022,187.413566 L18.2021083,184.178247 C27.1585969,142.719852 26.3607638,124.13778 28.038558,63.7586538 Z" id="bp-upper-right-quadrant-adbomen" fill="#FFFFFF"></path>
                </g>
                <g id="bp-upper-limb-left-front" stroke-width="1" fill="none" transform="translate(756.1885, 434.1598)">
                    <path d="M462.409736,1035.55312 L463.019144,1037.89759 C464.755974,1044.45296 466.59738,1050.35206 469.004842,1057.78132 L473.896789,1072.80314 L476.620996,1080.10689 C478.607459,1083.10565 481.766262,1086.49555 484.469155,1088.77721 L487.367438,1090.56994 L489.942933,1092.19098 C496.149805,1096.11928 503.54409,1100.96781 508.046198,1104.61847 L508.371848,1104.91183 C515.959487,1111.2353 532.14428,1121.33981 541.197344,1131.41172 C545.789006,1136.52917 550.282972,1148.32863 557.903177,1154.32614 L558.293957,1154.6195 C562.047424,1157.44111 567.648169,1163.47609 573.190296,1169.72566 L574.196885,1170.86364 C579.892422,1177.31804 585.40312,1183.80731 588.644515,1187.05171 C595.22264,1193.60335 603.689534,1194.74418 597.860403,1202.92557 C592.031272,1211.10697 577.279338,1208.56454 569.561438,1205.72876 C556.633143,1201.00246 545.691311,1187.99697 536.833637,1180.50008 L535.921818,1179.75039 L533.95666,1178.06707 C527.074611,1172.08488 525.152954,1169.86122 523.807646,1183.95517 C522.309658,1199.60086 537.745456,1247.28763 540.969389,1262.08585 L541.164779,1262.99851 C542.402248,1268.80046 543.704847,1276.72109 545.007446,1284.73951 L547.499981,1300.2512 C548.589386,1306.87401 549.595619,1312.55019 550.445797,1315.83532 L550.510927,1316.12868 C552.9533,1325.35311 552.334566,1338.19562 542.760463,1340.31431 C536.507987,1341.68331 533.38175,1337.21776 530.939376,1331.74177 L530.092687,1329.72087 L529.929862,1329.29713 L529.604212,1328.51485 L528.887783,1326.68952 C528.605553,1325.97242 528.323323,1325.26982 528.031445,1324.5817 L527.324664,1322.97367 C526.003562,1320.09566 524.476406,1314.72208 522.939884,1308.62477 L522.676425,1307.57276 C522.369035,1306.33791 522.06172,1305.07816 521.756053,1303.80769 L518.66238,1290.60664 C517.707141,1286.57298 516.806629,1282.97755 516.061177,1280.3978 L515.329652,1277.92584 C514.290286,1274.30232 512.933048,1268.79684 511.414442,1263.1457 L511.144809,1262.14728 C508.251541,1251.48889 504.81913,1240.67631 501.891417,1241.29011 C498.903255,1241.91659 501.072499,1253.16817 503.820074,1264.00601 L504.08762,1265.05318 L504.357855,1266.09553 C505.89506,1271.98439 507.517343,1277.53466 508.469543,1280.92587 L509.331475,1284.10974 C510.210289,1287.43871 511.196119,1291.47782 512.18195,1295.69149 L512.670424,1297.77758 L513.126334,1299.79848 L513.419419,1301.13489 L514.497088,1305.95403 C515.794227,1311.86629 516.871306,1317.22147 517.359781,1320.46384 L517.359781,1320.692 C518.564685,1328.58004 521.886313,1341.65071 523.840211,1349.70172 C525.826675,1357.75274 522.895827,1369.91074 514.103283,1370.92119 C505.37587,1371.93164 500.328298,1365.21704 498.895439,1360.91447 L498.895439,1360.78409 L498.630467,1359.97023 C497.965302,1357.83473 496.982247,1354.10207 495.899462,1349.99508 L493.717608,1341.7485 C492.936049,1338.81493 492.187054,1336.04434 491.56832,1333.95825 L490.062523,1329.02117 C489.371957,1326.79814 488.541401,1324.16112 487.635335,1321.31392 L484.43659,1311.36978 L481.374276,1302.14534 C481.028122,1301.10591 480.691618,1300.10271 480.365968,1299.14658 L479.584408,1296.86492 C478.243152,1293.00523 476.254522,1285.95415 474.031491,1278.61167 L473.082768,1275.5109 C472.915276,1274.96986 472.746831,1274.42944 472.577599,1273.8908 L472.32318,1273.08431 C468.92359,1262.35261 465.241503,1252.55949 462.585491,1252.894 C460.1255,1253.20179 462.032245,1262.53496 464.938774,1272.92059 L465.431875,1274.6599 L465.940027,1276.4105 C467.14058,1280.50203 468.435757,1284.61875 469.627536,1288.29174 L471.669593,1294.49973 C471.683331,1294.54251 471.695543,1294.58325 471.703684,1294.61585 L473.527323,1299.99406 L474.432047,1302.79597 C475.852244,1307.25327 477.815128,1313.65331 479.734703,1320.32672 L481.310352,1325.84204 L481.929087,1328.12371 C483.948115,1335.58801 485.641494,1342.59597 486.162534,1346.76816 L486.162534,1347.02892 C487.400003,1357.2964 484.469155,1361.14264 478.151549,1363.00056 C471.833944,1364.85849 467.502802,1362.64201 463.88809,1356.38374 C462.120277,1353.31048 458.668832,1343.49644 455.193477,1332.99538 L454.845923,1331.9432 C454.788004,1331.76754 454.730095,1331.59173 454.672201,1331.41582 L454.411682,1330.66613 L453.043953,1326.59173 L447.79519,1310.52851 C447.340866,1309.15012 446.921296,1307.88709 446.544699,1306.76946 L445.912223,1304.91593 C444.580677,1301.09143 443.17194,1296.4943 441.754627,1291.69686 L437.184614,1276.07323 C436.351862,1273.26443 435.549591,1270.63869 434.791869,1268.3509 L434.058571,1266.16025 C430.932334,1256.83802 430.215904,1251.81836 427.871226,1252.30729 C425.559112,1252.79622 426.568627,1258.17442 429.434345,1268.05077 L430.847359,1272.83819 C431.642657,1275.48451 432.625712,1278.71754 433.700357,1282.26227 L442.851115,1312.31504 L445.163228,1320.0075 L445.716833,1321.99581 C445.814528,1322.35436 445.912223,1322.7129 446.009918,1323.10405 L446.140178,1323.56038 L446.368132,1324.47304 L446.498392,1324.92938 L446.774933,1326.0959 C448.185123,1332.3357 448.446544,1338.77083 442.10212,1340.67286 C434.153237,1343.03487 432.42164,1336.00303 427.845789,1327.5736 L425.893696,1324.076 C420.874552,1314.94018 414.84607,1301.03961 407.029641,1279.98061 L406.541166,1278.61161 C405.148669,1274.79384 403.757103,1270.73026 402.40593,1266.61301 L401.069683,1262.485 L399.803431,1258.47384 C394.347898,1240.99217 390.095853,1224.82954 390.095853,1224.82954 L389.900463,1223.36276 L389.578227,1220.53299 C389.279475,1217.77477 388.906274,1213.93508 388.630429,1209.77056 L388.435039,1206.1199 L388.435039,1205.20724 L388.369909,1204.52274 C388.369909,1203.83824 388.337344,1203.15374 388.304779,1202.50184 L388.239649,1199.24232 C388.174519,1196.43913 388.06597,1192.67982 387.933297,1188.58248 L387.65348,1180.46749 L387.52322,1177.30575 L387.336051,1173.32417 C387.168504,1169.86785 386.996259,1166.68268 386.80679,1164.16989 L386.80679,1163.81134 C386.436578,1159.33379 386.767821,1151.84304 387.385183,1144.22141 L387.620915,1141.38585 L387.686045,1140.47318 L387.926611,1137.75238 C388.45921,1131.90543 389.053774,1126.44204 389.477119,1122.7414 L389.672508,1121.14424 C390.356373,1115.40748 390.844848,1108.17135 390.519198,1102.402 L388.988644,1094.64434 L388.760689,1093.86206 L385.385255,1083.03317 C381.948498,1071.93199 379.035962,1062.26999 376.651153,1054.05068 L381.593091,1053.4264 C400.286935,1051.00381 416.103129,1048.242 429.051009,1045.13803 L430.723597,1044.73122 C439.109256,1042.6618 449.672078,1039.60203 462.409736,1035.55312 Z M453.304472,1108.88844 C450.243365,1124.86009 454.574506,1139.56052 466.135073,1152.69638 C475.481221,1163.32241 490.298286,1169.71107 510.000096,1173.45952 C511.758605,1173.78547 513.451984,1172.64464 513.777634,1170.8845 C514.103283,1169.12436 512.963509,1167.42941 511.205001,1167.10346 L510.032661,1166.87529 C492.187054,1163.35501 478.998239,1157.55306 470.987255,1148.42641 C460.729287,1136.75733 456.984315,1124.04521 459.654643,1110.09446 C459.980293,1108.33432 458.840518,1106.63937 457.08201,1106.31342 C455.323501,1105.98747 453.630122,1107.1283 453.304472,1108.88844 Z" id="bp-hand-left-palmar" fill="#FFFFFF"></path>
                    <path d="M404.131358,705.522938 L404.928193,707.77424 C417.763087,744.877886 434.580558,833.148805 437.66159,856.253938 L438.099609,859.805671 C440.987059,884.306598 449.72802,971.263301 455.809994,1004.4025 L456.659919,1008.8988 C458.150834,1016.68127 459.42746,1022.87416 460.651206,1028.24278 L454.749972,1030.09979 C444.555759,1033.26685 435.945347,1035.71759 428.926652,1037.44967 C414.632985,1040.97707 396.509682,1044.07974 374.570591,1046.7513 L373.373991,1042.44914 C372.872586,1040.61769 372.411491,1038.89366 371.989726,1037.27681 C367.920732,1021.83755 350.950635,991.05043 341.406273,974.066968 L336.331077,965.045859 C332.941624,958.987649 317.035408,921.714199 301.598866,882.922397 L296.195994,869.228428 C284.823096,840.141669 274.575583,812.166871 270.950759,797.875056 L269.471283,791.8027 C265.405232,774.928738 263.103356,764.051065 261.374689,753.708834 L260.750983,749.844931 L260.474383,748.040948 C259.889742,744.166109 259.355038,740.225735 258.807403,735.931563 L265.3799,732.763151 C291.974479,720.036745 313.318722,711.001648 329.404362,705.659299 L332.573782,704.630574 C349.283759,699.327831 371.179218,694.216838 398.190789,689.320873 L401.10185,697.216009 C402.092248,699.916149 403.102388,702.684922 404.131358,705.522938 Z" id="bp-forearm-left-front" fill="#FFFFFF"></path>
                    <path d="M375.637004,628.565689 C379.647633,640.558562 386.552443,658.13273 395.53459,682.180123 L390.420439,683.128409 C364.317741,688.042366 343.182055,693.180644 327.040433,698.541586 L324.262897,699.4822 C307.310246,705.330183 285.182996,714.855751 257.836073,728.068679 L254.79983,703.099846 C253.992933,696.602801 253.062233,689.276326 251.955223,680.880972 L251.603727,678.363779 C249.507902,664.151185 244.771354,643.921992 239.477794,620.441506 L244.408228,619.959067 C271.998217,617.21609 293.653312,614.317341 309.399219,611.255434 L312.546465,610.626491 C327.512736,607.558106 346.387076,602.623237 369.182882,595.820637 C370.559139,607.245544 372.747556,619.925455 375.637004,628.565689 Z" id="bp-elbow-left-front" fill="#FFFFFF"></path>
                    <path d="M354.594631,341.01196 L355.374148,349.302172 C357.428961,371.402451 359.276359,393.290983 360.526854,411.220946 L360.884516,416.449909 C362.008684,433.333223 363.051013,453.19787 363.96013,473.037052 L364.803071,492.281511 C366.393546,530.249749 367.41593,564.416046 367.491286,572.600788 L367.495759,573.447218 C367.495759,576.894235 367.793129,582.156889 368.366819,588.232309 L363.623285,589.644047 C341.759028,596.102938 323.706348,600.752799 309.477492,603.595658 L307.967605,603.893336 C291.387818,607.117398 268.000339,610.17622 237.823078,613.063632 L236.246036,605.955551 C229.386897,574.812237 222.306426,539.370374 219.194857,505.192886 L218.695925,499.265023 C218.418167,495.796608 218.099638,491.603571 217.747828,486.830378 L210.636622,385.944516 C210.239418,380.408971 209.845786,374.981879 209.459585,369.737646 C247.808296,363.667661 265.83223,338.712591 262.94167,296.073877 L268.470421,295.630768 C291.288161,293.734662 307.45046,291.518006 317.170922,288.929428 C319.641404,288.273128 322.161654,287.550028 324.726753,286.763309 C332.253075,284.454979 340.078686,281.628815 348.104869,278.372922 L348.958235,285.955468 C350.784153,302.416466 352.750557,321.615332 354.594631,341.01196 Z" id="bp-upper-arm-left-front" fill="#FFFFFF"></path>
                    <path d="M147.012114,187.909921 C156.296539,190.456874 164.997244,193.125796 173.504495,196.049537 C206.166225,207.274599 228.768132,220.409482 239.390298,235.834396 C244.221404,242.845999 247.183298,248.633135 249.106256,254.600954 C250.506082,258.945255 251.366211,263.205508 252.301881,270.061695 L252.85502,274.321513 L253.86596,282.390936 C254.000085,283.43056 254.129521,284.412638 254.261586,285.390738 L254.394799,286.369496 C260.616262,331.386027 245.694345,356.182191 208.901963,362.238026 L207.601265,345.298401 C206.810492,335.315144 206.090231,326.897548 205.485001,320.899668 C202.093034,287.5851 187.491217,221.08904 148.137323,188.818406 L147.012114,187.909921 Z" id="bp-armpit-left" fill="#FFFFFF"></path>
                    <path d="M23.8049978,0 C39.7618363,20.9261135 92.6392168,43.3516058 147.287318,65.2718726 L182.728738,79.4398762 C224.833869,96.3614913 263.350222,112.706627 281.393962,127.512392 C321.667137,160.53479 339.149123,221.187235 343.080168,240.876922 L343.202287,241.49778 C344.18245,246.55942 345.592349,256.990809 347.207364,270.631118 C338.696784,274.148332 330.426273,277.170442 322.527603,279.592972 C320.051379,280.352432 317.62214,281.04942 315.243103,281.681428 C305.294427,284.330779 287.630563,286.644904 262.244023,288.606413 L262.043154,286.984628 L261.434685,282.434826 L260.075381,271.640047 L259.723238,268.975857 C258.735018,261.747592 257.801183,257.130863 256.24482,252.300757 C254.084698,245.596909 250.792061,239.163549 245.566785,231.579868 C233.800434,214.493432 209.998204,200.660993 175.942126,188.956726 C160.474572,183.640895 144.439476,179.168785 125.560318,174.763003 C95.2086796,159.572048 53.3555136,148.924743 -1.13686838e-13,142.799538 L1.70402857,139.429542 C13.9564625,115.007731 20.8458325,96.9990408 22.3721388,85.4319991 L22.5971202,83.5572938 C23.5126998,75.1581092 23.9943865,60.6307177 24.0841344,39.9541229 L24.0980826,32.7907635 C24.0980826,23.0773962 24.0003877,12.1906019 23.8375628,0.097785577 L23.8049978,0 Z" id="bp-shoulder-left-front" fill="#FFFFFF"></path>
                </g>
                <g id="bp-upper-limb-right-front" stroke-width="1" fill="none" transform="translate(0, 434.1598)">
                    <path d="M137.399359,1035.55236 L141.34981,1036.7982 C151.691525,1040.03273 160.490607,1042.56564 167.745666,1044.39622 L169.087895,1044.73122 C183.442088,1048.27355 201.460819,1051.37851 223.15725,1054.05218 L221.271199,1060.48641 C218.458856,1069.98482 215.050109,1081.11171 211.050802,1093.86206 L210.822848,1094.64434 L209.327354,1102.19067 L209.292294,1102.402 C208.966644,1108.17135 209.455119,1115.40748 210.138983,1121.14424 L210.334373,1122.7414 C210.822848,1127.01137 211.539277,1133.62819 212.125447,1140.47318 L212.190577,1141.38585 L212.526482,1145.48997 C213.078311,1152.66604 213.354346,1159.58254 213.004701,1163.81134 L213.004701,1164.16989 L212.798154,1167.25928 C212.619842,1170.21993 212.454057,1173.7025 212.288272,1177.30575 L212.158012,1180.46749 L211.765823,1192.16213 C211.6843,1194.84935 211.617433,1197.28009 211.571842,1199.24232 L211.506712,1202.50184 L211.461935,1203.50006 L211.441582,1204.52274 C211.441582,1204.52274 211.376452,1205.20724 211.376452,1205.20724 L211.376452,1206.1199 L211.181062,1209.77056 L211.035822,1211.82225 C210.656417,1216.86628 210.169633,1221.20572 209.911028,1223.36276 L209.715638,1224.82954 C209.715638,1224.82954 205.463594,1240.99217 200.008061,1258.47384 L198.741808,1262.485 L197.74249,1265.5827 C196.577546,1269.15757 195.379791,1272.70416 194.174916,1276.09739 L192.781851,1279.98061 L191.529871,1283.33321 C184.316643,1302.52845 178.665635,1315.43401 173.917796,1324.076 L171.965703,1327.5736 C167.389852,1336.00303 165.658255,1343.03487 157.709371,1340.67286 C150.968421,1338.65195 151.68485,1331.51361 153.313099,1324.92938 L153.443359,1324.47304 L153.671314,1323.56038 L153.801574,1323.10405 L154.094659,1321.99581 L154.648263,1320.0075 L156.960377,1312.31504 L169.465459,1271.16391 L170.377147,1268.05077 C173.242865,1258.17442 174.252379,1252.79622 171.940266,1252.30729 C169.671222,1251.83413 168.927074,1256.5199 166.048072,1265.27157 L165.394705,1267.23589 C164.528477,1269.76853 163.598421,1272.7963 162.626878,1276.07323 L158.588625,1289.88955 C157.17024,1294.72812 155.751854,1299.43792 154.402083,1303.44664 L153.541054,1305.95898 C153.368548,1306.4664 153.185385,1307.01002 152.992511,1307.58637 L152.542558,1308.93693 C150.990757,1313.61318 148.93267,1319.9846 146.767539,1326.59173 L145.953415,1329.03637 L145.13929,1331.41582 L143.028127,1337.75231 C141.658486,1341.8058 140.333231,1345.6017 139.158126,1348.75424 L138.879038,1349.4983 C137.682617,1352.66732 136.657749,1355.10711 135.923402,1356.38374 C132.308689,1362.64201 127.977547,1364.85849 121.659942,1363.00056 C115.342337,1361.14264 112.411489,1357.2964 113.648958,1347.02892 L113.648958,1346.76816 C114.169997,1342.59597 115.863376,1335.58801 117.882405,1328.12371 L118.501139,1325.84204 L120.755129,1317.98547 C122.902861,1310.62467 125.018575,1303.85066 126.284169,1299.99406 L128.107807,1294.61585 C128.140372,1294.48547 128.238067,1294.22471 128.238067,1294.22471 L128.498587,1293.40983 L129.345597,1290.85582 C130.667153,1286.84356 132.194964,1282.07119 133.612827,1277.28748 L134.582309,1273.95021 L134.802284,1273.17177 C137.748244,1262.68591 139.705808,1253.20427 137.226001,1252.894 C134.80239,1252.58876 131.524411,1260.71636 128.386316,1270.29495 L128.128726,1271.08536 C127.65713,1272.5399 127.189328,1274.02304 126.728723,1275.5109 L126.132893,1277.45034 C123.886332,1284.81546 121.852437,1292.0418 120.44418,1296.22939 L118.949059,1300.61472 L115.374902,1311.36978 L111.511773,1323.40672 C110.539457,1326.47727 109.68311,1329.21731 109.034541,1331.33667 L108.243172,1333.95825 C107.624437,1336.04434 106.875443,1338.81493 106.093883,1341.7485 L102.592003,1354.97298 C101.908266,1357.51693 101.323114,1359.60251 100.916052,1360.78409 L100.916052,1360.91447 C99.4831931,1365.21704 94.4356217,1371.93164 85.708208,1370.92119 C76.9156644,1369.91074 73.9848165,1357.75274 75.9712801,1349.70172 L77.9616013,1341.55478 C79.6959697,1334.41041 81.6011898,1326.26003 82.4517104,1320.692 L82.4517104,1320.46384 L82.6776189,1319.05789 C83.316503,1315.27977 84.4948529,1309.59626 85.8441226,1303.56311 L87.141067,1297.77758 L88.2855877,1292.91412 C89.157184,1289.2611 90.0099901,1285.84005 90.7688445,1283.02712 L91.9855025,1278.65412 C92.9964378,1275.10145 94.3826697,1270.25127 95.6805165,1265.22139 L95.9304845,1264.24593 C98.7066885,1253.33484 100.930292,1241.92122 97.9200742,1241.29011 C95.3060449,1240.74207 92.2896731,1249.30308 89.6139447,1258.7303 L89.116419,1260.50605 L88.9588233,1261.07751 L88.6465712,1262.2214 C86.7852456,1269.0837 85.1484471,1275.87094 84.0148293,1279.49168 L83.5432402,1281.12612 C82.840681,1283.63489 82.0175107,1286.93968 81.1491113,1290.60664 L78.0554386,1303.80769 L77.003328,1308.10041 C75.5103425,1314.06228 74.0208924,1319.38896 72.715284,1322.45618 L72.2263078,1323.56038 C71.922368,1324.23401 71.6329016,1324.92213 71.3482595,1325.62474 L70.2072792,1328.51485 L69.8816295,1329.29713 L69.7188046,1329.72087 L68.8721152,1331.74177 C66.429742,1337.21776 63.3035042,1341.68331 57.0510288,1340.31431 C47.4769257,1338.19562 46.8581911,1325.35311 49.3005644,1316.12868 L49.3656943,1315.83532 L49.6721184,1314.57893 C50.3481541,1311.65792 51.1100741,1307.44346 51.9254897,1302.57742 L52.1304393,1301.34771 C52.5081549,1299.06972 52.8965412,1296.66609 53.2924798,1294.19862 L54.8040454,1284.73951 C56.1066444,1276.72109 57.4092435,1268.80046 58.6467126,1262.99851 L58.8421025,1262.08585 C60.3251115,1255.27867 64.3921514,1241.51227 68.2063008,1227.10665 L68.7021312,1225.22455 C72.9828573,1208.8906 76.7827993,1192.09093 76.0038451,1183.95517 L75.7819987,1181.82863 C74.3116565,1169.00475 71.9711265,1172.96311 63.8896738,1179.75039 L62.9778545,1180.50008 C54.1201809,1187.99697 43.1783488,1201.00246 30.2500531,1205.72876 C22.5321537,1208.56454 7.78021936,1211.10697 1.95108858,1202.92557 C-3.87804221,1194.74418 4.58885167,1193.60335 11.1669769,1187.05171 C14.5037071,1183.71189 20.2451909,1176.93351 26.1175802,1170.29431 L27.1251336,1169.15819 C32.5010652,1163.11328 37.8778089,1157.3556 41.517535,1154.6195 L41.9083147,1154.32614 C49.5285192,1148.32863 54.0224859,1136.52917 58.6141476,1131.41172 C67.6672111,1121.33981 83.8520044,1111.2353 91.4396439,1104.91183 L91.7652937,1104.61847 C96.91056,1100.44629 105.833364,1094.70953 112.444054,1090.56994 L115.342337,1088.77721 C118.04523,1086.49555 121.204032,1083.10565 123.190496,1080.10689 L125.925954,1072.77297 L131.539019,1055.51319 C133.520645,1049.35175 135.115651,1044.16235 136.620956,1038.53719 L137.399359,1035.55236 Z M142.729482,1106.31342 C140.970973,1106.63937 139.831199,1108.33432 140.156849,1110.09446 C142.827177,1124.04521 139.082204,1136.75733 128.824237,1148.42641 C120.813253,1157.55306 107.624437,1163.35501 89.7788301,1166.87529 L88.606491,1167.10346 C86.8479822,1167.42941 85.708208,1169.12436 86.0338578,1170.8845 C86.3595076,1172.64464 88.0528864,1173.78547 89.8113951,1173.45952 C109.513206,1169.71107 124.33027,1163.32241 133.676418,1152.69638 C144.947971,1139.88892 149.347051,1125.59413 146.722744,1110.08393 L146.507019,1108.88844 C146.181369,1107.1283 144.487991,1105.98747 142.729482,1106.31342 Z" id="bp-hand-right-palmar" fill="#FFFFFF"></path>
                    <path d="M197.991847,699.175488 L201.620515,689.320839 L206.784673,690.271126 C233.135892,695.194749 254.366501,700.331899 270.407129,705.659299 C287.79701,711.434811 311.332812,721.526173 341.001205,735.930335 C340.456453,740.225735 339.921749,744.166109 339.337109,748.040948 L338.847451,751.195591 L338.328003,754.35597 L337.776323,757.52808 C335.99518,767.494075 333.573375,778.531558 329.508169,795.238324 L329.066277,797.050238 C325.355172,812.223952 313.448114,844.360099 300.732305,876.565914 L298.122406,883.149085 L293.00108,895.920565 C279.728,928.783413 267.193938,958.024971 263.749656,964.549035 L263.480415,965.045859 C257.130244,976.454176 232.804207,1018.37159 227.821765,1037.27681 L226.806455,1041.09555 C226.325735,1042.87311 225.805738,1044.75779 225.246535,1046.7495 L220.432836,1046.1491 C200.637888,1043.61776 184.119716,1040.71578 170.88484,1037.44967 C162.550139,1035.39283 151.970869,1032.32256 139.161034,1028.24247 L139.956254,1024.67028 C140.941059,1020.14705 141.980149,1015.01359 143.151574,1008.8988 L143.804126,1005.4639 C146.488362,991.222854 149.719065,966.042333 152.742801,940.21358 L153.621187,932.644991 L156.033854,911.277859 C158.696427,887.305629 160.902262,866.339301 161.975383,857.612105 L162.149901,856.253938 C165.295122,832.667448 182.755094,741.171648 195.680134,705.522938 L197.991847,699.175488 Z" id="bp-forearm-right-front" fill="#FFFFFF"></path>
                    <path d="M230.241715,598.897121 L230.631617,595.821534 L235.456145,597.250554 C256.896489,603.552515 274.691659,608.117996 288.853667,610.948117 L290.412273,611.255434 C307.084409,614.497454 330.38138,617.556555 360.331807,620.439197 L355.302373,642.735065 C352.033685,657.376115 349.372414,669.989347 348.024568,679.639181 L346.654218,690.107205 C344.54534,706.49497 343.161078,718.351924 341.978983,728.073609 C313.110328,714.122172 290.059187,704.283304 272.771058,698.541586 C255.587881,692.834724 232.745351,687.380187 204.280027,682.181502 L217.713376,646.527668 C220.330016,639.528228 222.503462,633.562511 224.174488,628.565689 C226.806613,620.694918 228.85701,609.471946 230.241715,598.897121 L230.241715,598.897121 Z" id="bp-elbow-right-front" fill="#FFFFFF"></path>
                    <path d="M251.706622,278.372922 C259.732806,281.628815 267.558417,284.454979 275.084739,286.763309 C277.649838,287.550028 280.170087,288.273128 282.642751,288.930009 L284.230833,289.33557 C294.901824,291.951755 312.371729,294.179539 336.869643,296.074868 C333.978441,338.710764 352.00157,363.666535 390.349916,369.742038 L389.174621,385.945065 L382.227318,484.601124 C381.56899,493.602755 381.017052,500.756762 380.616635,505.192886 C377.265714,541.999411 369.311807,580.272312 361.989518,613.064716 L357.155257,612.594819 C329.302667,609.845054 307.527468,606.943124 291.843887,603.893336 C276.392738,600.888746 256.253827,595.669233 231.444498,588.236411 L231.659248,585.850536 C232.059057,581.175388 232.280128,577.108264 232.311773,574.160534 L232.339893,571.097385 C232.511415,560.390194 233.584837,525.542281 235.196569,487.835042 L235.855458,472.947673 C236.811544,452.092624 237.914746,431.214426 239.105392,413.805784 L239.651757,406.076855 C240.671,392.097407 242.005462,376.08885 243.490827,359.631876 L244.630578,347.229765 L245.216861,341.01196 C247.030999,321.930198 248.963529,303.03983 250.763559,286.754404 L251.706622,278.372922 Z" id="bp-upper-arm-right-front" fill="#FFFFFF"></path>
                    <path d="M452.804364,187.906512 C413.523444,219.086844 398.446823,284.185823 394.580926,318.527479 L394.32649,320.899668 C393.402718,330.054326 392.210966,344.846052 390.908857,362.235328 C354.492546,356.243935 339.502005,331.890337 345.232347,287.744858 L345.945491,282.391229 L347.175236,272.593679 L347.50961,270.061695 C348.44528,263.205508 349.30541,258.945255 350.705236,254.600954 C352.628194,248.633135 355.590088,242.845999 360.420647,235.835189 C371.043359,220.409482 393.645267,207.274599 426.306996,196.049537 C434.331111,193.291839 442.52733,190.760838 451.223134,188.345059 L452.804364,187.906512 Z" id="bp-armpit-right" fill="#FFFFFF"></path>
                    <path d="M576.006494,0 L575.973929,0.097785577 L575.816811,13.5176728 C575.767007,18.6730246 575.733745,23.5741427 575.720227,28.2242319 L575.713409,34.9420462 C575.745974,60.0077491 576.299578,76.8268683 577.439353,85.4319991 C579.035037,97.5248154 586.492416,116.658193 599.811492,142.799538 C546.455978,148.924743 504.602812,159.572048 474.251993,174.76262 C455.372016,179.168785 439.336919,183.640895 423.869366,188.956726 C389.813287,200.660993 366.011057,214.493432 354.24416,231.580662 C349.01943,239.163549 345.726794,245.596909 343.566672,252.300757 C341.918758,257.414987 340.968764,262.289998 339.91316,270.279118 L338.376711,282.435521 L337.986283,285.350177 C337.834777,286.446425 337.695441,287.532465 337.568266,288.60828 L332.119396,288.171655 C309.636875,286.304405 293.789223,284.136953 284.570571,281.682008 C282.189352,281.04942 279.760113,280.352432 277.283888,279.592972 C269.384394,277.170189 261.112981,274.147701 252.604259,270.636632 L253.889198,260.122638 C254.964315,251.644197 255.899431,245.163105 256.609205,241.49778 L256.862843,240.227648 C261.04096,219.886075 278.577399,160.17971 318.41753,127.512392 C336.461269,112.706627 374.977622,96.3614913 417.082754,79.4398762 L456.205234,63.7933592 C509.530142,42.3444757 560.408236,20.4558637 576.006494,0 Z" id="bp-shoulder-right-front" fill="#FFFFFF"></path>
                </g>
                <path d="M605.705752,410.691274 C606.552442,422.425544 606.389617,477.478824 607.334001,500.393244 C608.864555,538.692595 617.754794,552.024028 636.284265,571.678929 C645.435024,581.392297 674.157333,601.601316 678,604.306717 C681.842667,601.601316 710.564976,581.392297 719.715735,571.678929 C738.245206,551.991433 747.135445,538.659999 748.665999,500.393244 C749.577818,477.478824 749.414993,422.425544 750.294248,410.691274 C750.294248,410.691274 737.072867,441.787088 678,441.950064 C618.927133,441.787088 605.705752,410.691274 605.705752,410.691274 L605.705752,410.691274 Z" id="bp-neck-front" fill="#FFFFFF"></path>
                <path d="M626.579902,3.8380839 C648.821781,-1.2793613 707.178219,-1.2793613 729.420098,3.8380839 C748.307784,8.20583967 802.561035,28.773406 818.192224,87.4773474 C828.352496,125.744103 820.243817,156.285798 812.330528,193.77027 C812.949262,192.727223 825.421648,180.047694 829.88305,194.845911 C832.455683,203.320661 825.063434,222.095492 817.410664,240.805132 L816.79193,242.337106 L816.173195,243.86908 L815.554461,245.368459 C813.502867,250.420714 811.483839,255.375183 809.692765,260.101486 C802.85412,278.028842 804.091589,280.27791 801.909735,283.407048 C797.057554,290.415015 792.172807,278.191818 792.172807,278.191818 C792.498457,281.288361 789.632739,296.249554 785.724942,311.60189 L785.431857,312.742722 L785.138773,313.883553 C784.389778,316.719335 783.640784,319.587712 782.826659,322.325708 C777.941913,339.53597 758.142407,360.592464 751.564282,369.882094 C742.315829,382.952766 728.573408,408.507397 678.26052,410.626084 L678.26052,410.626084 C678.26052,410.626084 678.06513,410.626084 677.967435,410.626084 C677.86974,410.626084 677.772045,410.626084 677.67435,410.626084 L677.67435,410.626084 C627.328897,408.474801 613.619042,382.920171 604.370588,369.849498 C597.792463,360.559869 577.992957,339.503374 573.108211,322.293113 C567.86525,303.844234 563.371283,281.940265 563.794628,278.126627 C563.794628,278.126627 558.909881,290.349824 554.0577,283.341858 C551.875846,280.21272 553.113315,277.963651 546.27467,260.036296 C544.483596,255.342588 542.464568,250.355523 540.412974,245.303269 L539.79424,243.80389 L539.175505,242.271916 L538.556771,240.739942 C530.904001,222.030301 523.544317,203.255471 526.084385,194.780721 C530.545787,179.982503 543.018173,192.662033 543.636907,193.705079 C535.756183,156.188013 527.614939,125.646318 537.775211,87.412157 C553.373835,28.7408108 607.659651,8.14064928 626.547337,3.77289351 L626.579902,3.8380839 Z M708.545948,345.631271 C714.179689,342.860679 709.262377,334.45112 703.628636,337.189116 C689.397742,344.131892 662.922416,345.370509 648.724086,337.580258 C643.220605,334.548905 638.303294,342.99106 643.806775,346.022413 C661.294167,355.605399 691.025991,354.203806 708.545948,345.631271 Z M664.32271,193.379127 C663.215501,187.186041 653.836787,189.826251 654.911432,195.986743 C659.828743,223.757846 658.395884,250.388119 649.505646,277.311747 C649.114866,278.387389 648.658956,279.495625 648.203047,280.603862 L648.007657,281.060195 C648.007657,281.060195 647.942527,281.223171 647.909962,281.288361 L647.551747,282.168431 C647.388922,282.526978 647.258662,282.918121 647.095837,283.276668 L646.933012,283.733 C645.109374,288.328922 643.9696,293.02263 647.323792,297.618552 C649.766165,300.943262 653.967047,302.801188 657.90741,301.008452 C660.577738,299.80243 661.945467,298.074885 664.77862,300.323953 C669.630801,304.235376 676.567141,297.357791 671.682395,293.413772 C668.556157,290.871347 665.169399,289.013422 661.001082,289.404564 C660.447478,289.469754 656.963025,290.317229 654.911432,291.197299 C654.878867,291.099514 654.846302,290.969133 654.813737,290.936538 C654.650912,289.958682 655.399906,288.622279 655.758121,287.742209 C656.8002,285.134594 657.972539,282.592169 658.916924,279.951958 C668.393332,251.300784 669.533106,222.910371 664.32271,193.411722 L664.32271,193.379127 Z M700.665224,277.344343 C698.5485,271.477208 689.137222,273.987038 691.253945,279.951958 C692.19833,282.592169 693.370669,285.134594 694.412748,287.742209 C694.738398,288.589684 695.389697,289.730516 695.357132,290.643181 C695.357132,290.773562 695.292003,290.969133 695.194308,291.164704 C693.142714,290.284634 689.690827,289.437159 689.202352,289.404564 C685.034035,289.013422 681.679842,290.871347 678.52104,293.413772 C673.636293,297.357791 680.572633,304.235376 685.424815,300.323953 C688.225403,298.074885 689.625697,299.80243 692.296025,301.008452 C696.236387,302.801188 700.437269,300.943262 702.879642,297.618552 C706.429224,292.761869 704.931236,287.742209 702.912207,282.85293 L702.716817,282.396597 C702.586557,282.103241 702.456297,281.809884 702.358602,281.516527 L702.163213,281.060195 C702.000388,280.701647 701.837563,280.310505 701.707303,279.951958 L701.511913,279.528221 C701.511913,279.528221 701.446783,279.39784 701.414218,279.300054 L701.251393,278.876317 C701.056003,278.354794 700.860613,277.865866 700.665224,277.344343 L700.665224,277.344343 Z M777.030093,202.147234 C756.383898,181.09074 723.037362,183.144237 706.657179,207.883988 C703.172727,213.131814 711.607056,218.053688 715.091508,212.805862 C718.315441,207.916583 722.386063,204.233326 726.88003,201.690901 C726.261295,203.12509 725.805385,204.657064 725.544866,206.286823 C725.414606,206.743156 725.349476,207.199489 725.349476,207.721012 C725.284346,208.242535 725.349476,208.731463 725.414606,209.1552 C726.1636,218.021093 732.937115,225.550582 742.218134,225.843939 C751.727107,226.137296 759.900916,218.477425 760.259131,208.959629 C760.356825,206.091252 759.738091,203.353256 758.533187,200.908617 C762.701504,202.831733 766.674431,205.537134 770.126318,209.057415 C774.52259,213.555551 781.426365,206.645371 777.030093,202.147234 L777.030093,202.147234 Z M648.886911,207.883988 C632.474163,183.176832 599.160192,181.09074 578.513997,202.147234 C574.117725,206.645371 580.988935,213.555551 585.417772,209.057415 C588.902224,205.504539 592.875152,202.799138 597.043469,200.876021 C595.838564,203.353256 595.187265,206.091252 595.28496,208.959629 C595.54548,218.249259 603.426204,225.811344 612.642092,225.843939 C622.216195,225.909129 629.38049,218.314449 630.129485,209.187796 C630.22718,208.731463 630.259745,208.27513 630.194615,207.721012 C630.194615,207.199489 630.129485,206.743156 629.999225,206.286823 C629.738705,204.689659 629.282795,203.157685 628.664061,201.690901 C633.158027,204.233326 637.228649,207.916583 640.452582,212.773267 C643.90447,217.988497 652.371364,213.099219 648.886911,207.851393 L648.886911,207.883988 Z M735.086404,207.721012 C736.063353,197.746883 751.238632,199.050691 750.522203,208.959629 C749.773208,219.064139 735.184099,217.56476 735.086404,207.721012 Z M605.054453,208.959629 C604.305458,199.050691 619.480737,197.746883 620.490252,207.721012 C620.392557,217.56476 605.803447,219.031544 605.054453,208.959629 Z M789.17683,166.814045 C774.71798,159.219366 758.174972,153.15666 741.664529,154.78642 C727.694154,156.155418 713.528389,161.305458 701.349088,168.280829 C695.910737,171.409968 700.795484,179.852122 706.2664,176.722984 C716.947712,170.627683 729.420098,165.90138 741.664529,164.564977 C756.416463,162.967813 771.363788,168.443805 784.259518,175.2562 C789.828129,178.189768 794.745441,169.747613 789.17683,166.814045 L789.17683,166.814045 Z M614.237776,154.78642 C597.727333,153.124065 581.15176,159.219366 566.725475,166.814045 C561.156864,169.747613 566.106741,178.189768 571.642787,175.2562 C584.538518,168.4764 599.485842,162.967813 614.237776,164.564977 C626.482207,165.90138 638.954593,170.595088 649.635905,176.722984 C655.106822,179.852122 660.024133,171.409968 654.553217,168.280829 C642.373916,161.305458 628.208151,156.188013 614.237776,154.78642 L614.237776,154.78642 Z" id="bp-head-front" fill="#FFFFFF"></path>
            </g>
        </g>
        <g id="viewport-boundary" mask="url(#mask-2)" stroke="#FF0000" stroke-width="3">
            <g transform="translate(260, 190)" id="boundary">
                <rect x="0" y="0" width="560" height="1080"></rect>
            </g>
        </g>
    </g>
</svg>