<?xml version="1.0" encoding="UTF-8"?>
<svg width="1080px" height="1460px" viewBox="0 0 1080 1460" version="1.1" xmlns="http://www.w3.org/2000/svg" xmlns:xlink="http://www.w3.org/1999/xlink">
    <title>thumb-right-dorsal</title>
    <defs>
        <rect id="path-1" x="0" y="0" width="1080" height="1460"></rect>
    </defs>
    <g id="thumb-right-dorsal" stroke="none" stroke-width="1" fill="none" fill-rule="evenodd">
        <mask id="mask-2" fill="white">
            <use xlink:href="#path-1"></use>
        </mask>
        <g id="mask"></g>
        <g id="bp-thumb-right-dorsal" mask="url(#mask-2)" fill="#FFFFFF" fill-rule="nonzero">
            <g transform="translate(304.7354, 538.6722)">
                <path d="M367.712669,245.665735 L367.77477,245.728291 L368.778766,246.690879 C378.721802,256.165084 392.416726,267.512031 414.31226,284.877617 L417.028437,287.098914 L432.674302,299.540402 L437.006192,303.001917 C470.300466,329.660644 471.347229,331.939108 469.870419,340.16324 L469.870419,340.656861 C461.474964,376.938051 422.95464,393.227565 369.618808,383.355132 C344.278104,378.392722 317.291046,368.320314 290.145763,355.078838 C298.936443,332.910649 312.917076,309.505493 332.072255,284.994701 C343.573214,270.274411 355.09266,257.504759 366.660878,246.647492 L367.712669,245.665735 Z M358.46809,346.113797 C379.402041,361.487262 416.313677,376.610519 441.763831,362.331881 C466.622121,348.385304 464.076122,331.530576 457.684552,325.956508 L457.22179,325.577736 L447.026341,317.737891 L441.701176,313.619056 C422.736746,298.916099 412.290589,290.424494 403.913881,283.416534 L402.220543,281.996618 L393.981994,275.025957 C374.927258,258.863411 337.534139,330.740331 358.46809,346.113797 Z" id="bp-thumb-distal-phalanx-right-dorsal"></path>
                <path d="M387.434799,282.821321 L395.464802,289.615485 C404.94736,297.584631 416.628594,307.122926 440.630536,325.64635 L450.46326,333.207276 C450.929715,333.695613 451.195146,334.44264 451.329022,335.24732 C451.55037,336.577754 451.318822,338.094235 450.643618,339.699656 C448.808365,344.063308 444.280656,348.465942 436.630885,352.757795 C427.57399,357.839105 416.711744,357.97607 406.04104,355.898433 C390.612573,352.894436 375.367057,345.077389 364.686609,337.233887 C362.321172,335.496758 362.659561,331.870392 362.829999,328.557079 C363.223441,320.908528 366.19187,311.889213 370.264603,303.736861 C374.298844,295.661561 379.41144,288.308956 384.702337,284.404983 C385.638245,283.714409 386.519262,283.039192 387.434799,282.821321 Z" id="bp-nail-of-thumb-right"></path>
                <path d="M344.185517,217.498264 C347.973349,223.016954 351.460722,227.784845 355.34637,232.45263 L356.250446,233.52833 C357.249294,234.705451 358.277031,235.879373 359.344946,237.060609 C346.997639,248.545732 334.768992,262.052084 322.616649,277.606094 C303.084705,302.598991 288.650074,326.647744 279.383898,349.668984 C253.440965,336.255178 227.533225,320.183175 202.957218,303.145195 C211.30498,278.190355 226.44774,251.592936 248.364801,223.548066 C266.952426,199.75742 285.588339,181.06192 304.40039,167.300076 C317.902826,181.699867 330.388648,197.633404 344.185517,217.498264 Z" id="bp-interphalangeal-joint-thumb-right-dorsal"></path>
                <path d="M149.079196,0 L166.354698,19.6245773 L174.449474,28.7807608 C217.310347,77.1953625 268.431079,133.878741 282.948079,146.416749 C287.457342,150.434013 291.772023,154.480451 295.953922,158.619761 C276.648331,172.979061 257.687664,192.124548 238.909196,216.159458 C217.178604,243.965724 201.757492,270.603324 192.74383,295.957447 L194.963375,297.540301 C189.987285,294.004466 185.07066,290.437428 180.227216,286.852103 L177.017189,284.383995 C100.148402,227.935118 38.5369693,197.805289 0,193.734058 C12.9529746,153.091663 30.1308494,115.384426 50.4603383,89.3159082 C80.4678088,50.8373075 116.016305,19.2786228 149.079196,0 Z" id="bp-proximal-phalanx-thumb-right-dorsal"></path>
            </g>
        </g>
        <g id="decoration" opacity="0.15" mask="url(#mask-2)">
            <g transform="translate(-571.985, -16.5942)">
                <g id="bp-index-finger-right-dorsal" stroke-width="1" fill="none" fill-rule="evenodd" transform="translate(720.535, 1071.2501)">
                    <path d="M339.419875,398.876519 L347.382283,419.415558 C355.006363,439.117489 362.496897,458.590832 369.401308,476.685049 C348.403354,480.435541 325.77468,487.445595 301.564045,497.694763 C279.291847,507.156063 259.929954,517.605048 243.469493,529.031527 L207.025795,454.039535 C223.990881,441.677303 244.407168,430.406143 268.297088,420.257629 C293.911786,409.414076 317.642205,402.28804 339.419875,398.876519 Z" id="bp-distal-interphalangeal-joint-index-finger-right-dorsal" fill="#FFFFFF" fill-rule="nonzero"></path>
                    <path d="M283.570614,257.57936 L285.052165,261.281522 L290.464675,274.61979 C300.153601,298.662658 314.279894,334.424229 329.290611,372.87226 L337.010449,392.682533 C315.057097,396.260203 291.287899,403.465855 265.759898,414.272707 C241.877068,424.418209 221.340686,435.69941 204.139809,448.103748 L188.332547,415.666323 C186.591872,412.103699 184.915668,408.677388 183.319003,405.419039 L181.096677,400.976444 L158.523479,354.680644 C148.552581,334.258338 138.436476,313.558641 129.537279,295.320924 C147.806305,280.819232 170.591524,267.739113 197.923419,256.128436 C225.212069,244.576243 250.362113,237.243334 273.290759,234.126075 L283.570614,257.57936 Z" id="bp-middle-phalanx-index-finger-right-dorsal" fill="#FFFFFF" fill-rule="nonzero"></path>
                    <path d="M270.574253,227.945481 L269.81446,228.054422 C246.980431,231.441861 222.149928,238.81355 195.38623,250.143515 C168.101465,261.734168 145.184402,274.80711 126.618723,289.343605 L113.439185,262.268766 L110.476083,256.098495 C101.13249,236.888459 92.209551,219.220106 83.6928866,203.050319 C102.27382,187.942966 125.688021,174.354916 153.970742,162.340325 C182.402037,150.304414 208.511878,142.848527 232.206633,139.968556 L237.814748,152.949818 C245.23316,170.085723 252.382546,186.464298 258.870138,201.274885 L270.574253,227.945481 Z" id="bp-proximal-interphalangeal-joint-index-finger-right-dorsal" fill="#FFFFFF" fill-rule="nonzero"></path>
                    <path d="M205.789192,77.9010857 C207.581868,82.1807852 209.391435,86.4835863 211.21229,90.7979203 L214.867395,99.438538 L221.594366,115.246329 L226.028852,125.607579 L229.528995,133.756022 C205.69193,136.87259 179.636061,144.416344 151.433553,156.355404 C123.123999,168.381392 99.5164007,182.003105 80.5925328,197.199618 L78.04547,192.439547 C61.5703732,161.79773 46.6692178,136.973873 33.2315892,117.633661 L22.5010174,102.241696 C13.7846814,89.784255 6.80365135,80.2436526 0,73.9230614 C22.0101782,52.4470359 48.988544,33.3613578 78.4353543,20.162995 C108.292515,6.7807091 143.429982,0.119170868 175.371066,0 L177.571073,5.97994129 C187.460432,32.7336618 197.182277,57.3347075 205.789192,77.9010857 Z" id="bp-proximal-phalanx-index-finger-right-dorsal" fill="#FFFFFF" fill-rule="nonzero"></path>
                </g>
                <g id="bp-middle-finger-right-dorsal" stroke-width="1" fill="none" fill-rule="evenodd" transform="translate(504.5619, 1152.7284)">
                    <path d="M127.327273,304.707314 C149.235622,301.970045 169.301237,301.196826 187.562728,302.374739 L204.191655,444.266157 C183.684684,442.356872 160.942635,442.968186 135.913977,446.095319 C112.741755,448.923169 91.9429632,453.360257 73.5205129,459.414109 L68.208047,418.275939 L61.2593881,364.966783 L55.551887,321.528461 C76.016829,313.660337 99.9416771,308.049356 127.327273,304.707314 Z" id="bp-middle-phalanx-middle-finger-right-dorsal" fill="#FFFFFF" fill-rule="nonzero"></path>
                    <path d="M109.795587,204.995744 C134.04027,201.966569 156.02824,201.342679 175.811822,203.106563 L177.850394,221.022294 C179.557581,235.81607 181.49028,252.094991 183.676142,270.110069 L186.442623,292.842528 L186.794632,295.813713 C168.420803,294.715772 148.344241,295.530225 126.530821,298.25564 C99.3008636,301.57868 75.3483487,307.123899 54.6779996,314.903508 L44.1563755,235.68217 C43.4528251,230.421268 42.7652038,225.287696 42.0955515,220.296478 C61.6414578,213.221809 84.2078934,208.118376 109.795587,204.995744 Z" id="bp-proximal-interphalangeal-joint-middle-finger-right-dorsal" fill="#FFFFFF" fill-rule="nonzero"></path>
                    <path d="M82.702565,0.98955321 C111.411322,-1.44275332 141.165628,0.676791835 168.109659,6.59976714 C165.675961,17.3622232 165.462437,32.2284201 165.454249,52.0938319 L165.453985,65.2829557 L165.523061,72.1150545 C165.946239,101.256735 168.108156,133.496525 175.077005,196.514002 C155.148396,194.852316 133.137149,195.528216 108.999135,198.54407 C83.5342597,201.651706 60.9357015,206.70277 41.2073237,213.707247 L34.2565066,162.378559 C32.4078824,148.887666 30.9921742,138.74736 30.1390024,132.909119 L29.5869793,129.254517 C22.5234293,83.8087529 9.43897834,47.3491048 1.74260999,31.9634954 L0.569743271,29.644489 C0.378115044,29.2704504 0.188270946,28.9026084 0,28.5409115 C19.6757926,14.4166726 52.0537982,3.58622414 82.702565,0.98955321 Z" id="bp-proximal-phalanx-middle-finger-right-dorsal" fill="#FFFFFF" fill-rule="nonzero"></path>
                </g>
                <path d="M782.366852,352.939468 L788.425033,356.628934 C885.861668,416.305311 958.717591,477.2357 986.710228,510.136616 L990.272691,514.394375 C993.816632,518.572418 1000.1615,525.91996 1008.39289,535.368663 C973.627271,556.539227 937.367301,589.240638 906.68065,628.590153 C887.285907,653.460045 870.914717,686.796973 857.953703,723.192325 C855.7897,716.948389 852.869205,710.937004 849.210021,705.13229 C838.322248,687.860567 822.536912,673.82598 796.315398,655.93514 L792.474748,653.338103 L758.231436,630.788931 C757.365006,630.212149 756.616948,629.711479 756.014173,629.304274 L752.691787,627.043207 C705.575556,594.735004 680.093277,566.610898 667.824036,525.370484 C650.956397,468.673545 665.443584,411.869573 702.752967,364.408379 C714.05375,350.032674 727.004,337.366053 740.108964,327.148982 L748.011444,332.024096 C758.729324,338.617198 770.173962,345.583484 782.366852,352.939468 Z" id="bp-metacarpophalangeal-joint-thumb-right-dorsal" fill="#FFFFFF" fill-rule="nonzero"></path>
                <path d="M799.797732,947.258956 C816.515845,945.93863 832.450231,946.302118 855.501432,948.088837 C864.739567,980.548466 875.568643,1013.88933 886.648631,1045.44316 C853.804992,1046.69129 818.830842,1054.01708 788.33829,1067.68415 C757.486904,1081.51206 729.274291,1101.08395 705.833078,1123.24242 L681.258382,1002.12613 C705.320187,977.824785 729.17323,963.241771 768.034613,952.572771 C777.771086,949.89972 788.334889,948.164243 799.797732,947.258956 Z" id="bp-metacarpophalangeal-joint-index-finger-right-dorsal" fill="#FFFFFF" fill-rule="nonzero"></path>
                <path d="M563.328271,989.447889 C591.875497,988.147326 624.69465,995.504791 650.597618,1007.90317 L676.078175,1133.46253 C647.188733,1127.3426 615.636098,1125.21842 585.070025,1127.80809 C554.044665,1130.43667 521.678856,1140.26613 497.899275,1154.59163 L484.811451,1015.4 C505.496313,1001.73233 536.730007,990.659661 563.328271,989.447889 Z" id="bp-metacarpophalangeal-joint-middle-finger-right-dorsal" fill="#FFFFFF" fill-rule="nonzero"></path>
                <path d="M622.359354,243.355465 L623.01208,244.162624 C633.850868,257.257298 663.68785,279.020124 716.787764,312.577131 C704.53068,322.943724 692.78331,335.020158 682.31503,348.336836 C640.105435,402.031581 623.442546,467.366438 642.905314,532.786345 C650.916579,559.714488 664.67822,582.814575 683.928162,603.579397 C698.839411,619.664091 715.948262,633.482657 739.320153,649.399302 L743.28262,652.072829 L778.606533,675.344208 L781.483503,677.292682 C805.057534,693.367539 818.678602,705.45432 827.217747,719.000317 C835.837693,732.674492 838.67565,747.700325 835.056807,766.268294 C821.975371,793.586613 830.677715,853.889988 848.251373,921.495659 C828.662869,920.205271 813.695397,920.077755 797.751187,921.336961 C784.733517,922.365042 772.568028,924.363653 761.152717,927.497611 C717.131553,939.583177 689.387248,956.77108 662.05944,984.565677 C632.334234,970.284868 595.178472,961.967203 562.145244,963.472141 C531.568244,964.865177 496.85884,976.838582 472.293938,992.534451 C471.467077,992.31842 470.614601,992.172611 469.744374,992.099207 C446.79838,965.535887 415.736458,946.615325 376.684124,939.828681 C340.871525,933.605048 317.535821,937.203897 285.559002,949.736957 L283.502045,950.552366 C271.464123,930.550212 250.024298,910.462147 224.815839,897.754772 C195.939277,883.198336 163.891952,878.572873 130.605121,885.846019 L130.434481,876.414442 C128.385832,773.03646 119.736423,615.497415 121.348222,565.19677 L121.560465,559.001842 C123.401011,508.177919 128.890894,415.889446 126.802092,341.13418 C255.211764,341.061593 368.724817,325.708313 467.445436,295.013638 C520.175506,278.71915 571.311979,260.838376 620.884335,241.367727 L621.875735,242.719584 C622.038292,242.936087 622.199502,243.148094 622.359354,243.355465 Z" id="bp-dorsum-of-hand-right" fill="#FFFFFF" fill-rule="nonzero"></path>
                <path d="M546.553333,0 C548.765782,14.3051549 551.868742,31.3580053 555.293061,48.7854711 L556.031555,52.5247971 C556.774552,56.2681274 557.53044,60.020876 558.293616,63.7596926 L559.619657,70.2072832 L562.203283,82.5065976 C569.033714,114.585744 575.692846,142.479149 578.298982,150.002085 L578.406677,150.307787 C587.080044,174.897219 597.868381,199.889316 607.555698,218.662209 C559.77982,237.316713 510.520838,254.487107 459.749133,270.176435 C363.36995,300.143085 252.058115,315.145687 125.708558,315.13529 L125.428028,310.590133 C124.15587,291.05348 122.142174,273.618719 119.125896,259.644979 L118.896455,258.681041 C114.792458,241.953283 93.3814792,177.358253 78.1363204,112.052111 L82.6729616,110.734933 C161.83328,88.0423545 485.572697,8.46561101 546.553333,0 Z" id="bp-wrist-right-dorsal" fill="#FFFFFF" fill-rule="nonzero"></path>
            </g>
        </g>
        <g id="viewport-boundary" mask="url(#mask-2)" stroke="#FF0000" stroke-width="3">
            <g transform="translate(260, 190)" id="boundary">
                <rect x="0" y="0" width="560" height="1080"></rect>
            </g>
        </g>
    </g>
</svg>