<?xml version="1.0" encoding="UTF-8"?>
<svg width="1080px" height="1460px" viewBox="0 0 1080 1460" version="1.1" xmlns="http://www.w3.org/2000/svg" xmlns:xlink="http://www.w3.org/1999/xlink">
    <title>upper-limb-right-back</title>
    <defs>
        <rect id="path-1" x="0" y="0" width="1080" height="1460"></rect>
    </defs>
    <g id="upper-limb-right-back" stroke="none" stroke-width="1" fill="none" fill-rule="evenodd">
        <mask id="mask-2" fill="white">
            <use xlink:href="#path-1"></use>
        </mask>
        <g id="mask"></g>
        <g id="bp-upper-limb-right-back" mask="url(#mask-2)" fill="#FFFFFF">
            <g transform="translate(512.8037, 359.7291)">
                <path d="M168.517654,630.774732 L168.995712,632.294705 C170.164756,635.968632 171.534622,640.093493 173.267385,645.427955 L173.093705,645.493049 L173.397645,645.623237 L175.112733,650.353396 L175.112733,650.31 C176.415333,652.306213 178.521201,654.562803 180.32313,656.081661 L182.255318,657.27505 L183.167138,657.860895 L185.669759,659.447845 L186.691863,660.104838 C190.117004,662.316755 193.678224,664.725345 196.019448,666.648575 L196.236548,666.843856 C201.294975,671.053264 212.084837,677.779636 218.120212,684.48431 C221.18132,687.890892 224.177298,695.745559 229.257434,699.737986 L229.517954,699.933268 C232.058022,701.84269 235.85727,705.921909 239.591387,710.153014 L245.525822,716.918268 L247.030824,718.609557 C248.082057,719.779338 249.008891,720.780395 249.75166,721.522753 C254.137076,725.884046 259.781672,726.643475 255.895585,732.089666 C252.009498,737.535858 242.174875,735.843416 237.029609,733.955692 C228.410745,730.809486 221.11619,722.151994 215.211074,717.16146 L214.603195,716.662406 L211.65946,714.118187 L211.141483,713.689819 C208.273509,711.37824 207.278336,711.769511 206.527081,719.461445 C205.54564,729.696904 215.467464,760.532325 217.849912,770.942659 L218.098502,772.079034 L218.228762,772.751671 L218.588686,774.55411 L218.867633,776.036573 C219.380505,778.823402 219.900988,781.971641 220.421471,785.184611 L220.89909,788.178931 L222.415114,797.537303 L222.817979,799.923912 C223.346877,802.990961 223.839993,805.563348 224.264138,807.229753 L224.307558,807.425035 C225.935807,813.565561 225.523317,822.114563 219.140582,823.524932 C215.015685,824.436247 212.931526,821.528718 211.324987,817.948552 L211.151307,817.557989 C210.999338,817.210821 210.847368,816.841956 210.695398,816.47309 L210.586848,816.191016 L210.369748,815.670265 L209.892128,814.455178 C209.703975,813.977823 209.515822,813.510111 209.321236,813.052043 L208.850049,811.981609 C207.937087,810.001384 206.902465,806.301488 205.855037,802.125278 L205.137642,799.2232 L203.075193,790.43552 L202.593146,788.431993 C202.081191,786.338057 201.606577,784.515802 201.208135,783.188397 L201.056165,782.711041 L200.885518,782.129443 C200.181985,779.682954 199.230856,775.832783 198.168737,771.927148 L197.799667,770.603572 L197.691117,770.19131 L197.517437,769.583767 L197.408887,769.171505 C197.365467,769.041317 197.322047,768.911129 197.300337,768.759244 L197.191787,768.36868 L196.877897,767.300868 L196.58844,766.346863 C195.037191,761.317707 193.372533,757.299541 191.894551,757.606485 C190.089531,757.984354 191.1073,764.169023 192.676979,770.69416 L192.841235,771.370165 C192.979601,771.93414 193.121486,772.499245 193.265436,773.061978 L193.439074,773.735894 C193.991477,775.864935 194.565291,777.939488 195.080688,779.767388 L196.279968,783.991222 L196.692458,785.51008 C197.232106,787.500094 197.835555,789.920526 198.448118,792.498093 L199.080556,795.187377 L200.312767,800.717675 L200.740671,802.704564 C201.359099,805.617875 201.86373,808.194675 202.141664,809.963698 L202.206794,810.441053 C202.787855,814.373492 204.16873,820.234573 205.37859,825.18134 L206.505371,829.752251 C207.82968,835.11165 205.875781,843.204995 200.014085,843.877632 C194.19581,844.550269 190.830762,840.080487 189.875523,837.216354 L189.875523,837.129562 L189.723553,836.738998 L189.306443,835.282514 L188.760989,833.289309 C188.485782,832.267257 188.185762,831.13188 187.878204,829.947532 L186.037944,823.019098 L185.513184,821.0987 C185.387112,820.64519 185.265434,820.214586 185.149403,819.813561 L184.686837,818.252324 L183.850198,815.528425 L182.638242,811.673828 C182.260714,810.479057 181.861199,809.217621 181.452049,807.924088 L180.258,804.235432 L177.875228,797.076005 L177.544252,796.098692 L177.023212,794.579834 C176.058324,791.807315 174.59089,786.561041 172.966848,781.26666 L172.225408,778.885284 L171.767393,777.455683 C169.620233,770.838379 167.353691,765.100118 165.6906,765.309266 C164.084061,765.504547 165.278111,771.493188 167.145169,778.262957 L167.253719,778.675218 L167.687919,780.15068 L168.274088,782.19029 L168.491188,782.928021 L169.357213,785.726043 L169.725785,786.893081 C170.458711,789.20095 171.161516,791.339086 171.747686,793.082673 L172.963445,796.662839 L173.223965,797.487362 L173.956033,799.775149 L174.290202,800.841565 C175.091343,803.412116 176.035567,806.53797 176.979792,809.790114 L178.152131,813.891031 L178.890271,816.624976 L179.414512,818.629071 C180.342142,822.242697 181.071289,825.481088 181.365209,827.647547 L181.408629,827.994715 C182.211898,834.829577 180.258,837.389938 176.046263,838.626722 C172.047749,839.798413 169.240266,838.528832 166.903571,834.81798 L166.53729,834.222033 C165.360749,832.206221 163.106615,825.780821 160.798045,818.859203 L159.850614,815.995735 L158.113816,810.723127 L156.161808,804.727465 L155.678674,803.266815 L155.095588,801.525693 L154.553378,799.939233 C153.665681,797.393338 152.726523,794.33312 151.781648,791.139559 L148.734972,780.739216 L148.322553,779.361357 C147.914237,778.009568 147.51867,776.740822 147.139809,775.598619 L146.266896,772.975233 L145.936713,771.940418 C144.429774,767.153613 143.892954,764.634087 142.526047,764.918702 C141.006348,765.244172 141.635938,768.737546 143.502996,775.181844 L144.024036,776.961078 L146.412134,784.859141 L153.19924,807.16518 L154.032339,809.985396 L154.401408,811.308972 L154.531668,811.792757 C154.553378,811.87553 154.575088,811.959911 154.596798,812.046703 L154.683638,812.350475 L154.835608,812.958018 L154.922448,813.26179 L155.106808,814.038319 C156.046935,818.192035 156.221216,822.475771 151.9916,823.741912 C146.563094,825.352608 145.4841,820.401245 142.260695,814.609827 L141.722778,813.652353 L141.505678,813.283488 L140.96164,812.296535 L140.605565,811.632378 C137.37806,805.548785 133.528483,796.581268 128.609947,783.340283 L128.284297,782.428968 C127.433327,780.099339 126.582878,777.632213 125.753214,775.126114 L125.079448,773.068971 L124.417424,771.006427 L123.183756,767.060386 L122.076645,763.412192 C119.301858,754.14662 117.320755,746.627309 117.320755,746.627309 L117.168785,745.412223 L116.978711,743.697138 C116.782534,741.867364 116.534186,739.340128 116.343806,736.581147 L116.213546,734.150974 L116.213546,733.543431 L116.170126,733.087773 C116.170126,732.632116 116.148416,732.176458 116.126706,731.742499 L116.083286,729.572701 L115.970112,725.211061 L115.866194,721.916226 C115.837398,721.059833 115.806654,720.184174 115.774331,719.301054 L115.692506,717.074668 L115.605666,714.969964 L115.455053,711.689163 L115.361429,709.9062 C115.296299,708.753495 115.225742,707.679445 115.149757,706.724734 L115.084627,705.965305 C114.845817,703.01438 115.084627,698.067242 115.475407,693.011614 L115.540536,692.056903 L115.627376,691.0154 L115.670796,690.407857 L116.124491,685.645246 L116.349685,683.437929 C116.516816,681.840941 116.677993,680.388897 116.819819,679.171698 L117.016815,677.540958 C117.472725,673.722114 117.798375,668.905164 117.581275,665.064623 L117.733245,665.064623 L116.452356,659.922203 L116.517486,659.792015 L114.388742,652.963446 L112.759989,647.681671 C112.446701,646.659471 112.140886,645.657774 111.842535,644.676597 L113.98647,644.365401 C123.185485,643.0058 131.196859,641.501996 138.027222,639.852484 L138.8101,639.661509 C146.216598,637.836434 156.117461,634.874132 168.517654,630.774732 Z" id="bp-hand-right-dorsal"></path>
                <path d="M123.735216,392.689186 L124.737365,395.397436 L126.080159,399.058497 L126.764598,400.935177 C135.469217,424.907967 147.259138,486.819631 149.17928,501.740257 L149.627319,505.532316 L150.743249,515.590887 C151.697687,524.318788 152.926637,535.682557 154.265847,547.45346 L155.872566,561.27291 L156.565917,567.018422 C158.222198,580.562041 159.904987,592.964779 161.348603,600.621638 L162.11901,604.649483 L162.536944,606.770696 C163.721458,612.720082 164.716612,617.162662 165.74811,621.158132 L163.261068,621.977278 C152.093041,625.635896 143.137278,628.296097 136.417516,629.95195 C128.892866,631.806139 119.733506,633.486077 108.948816,634.987438 L107.980732,631.687395 L107.340547,629.459217 C106.515495,626.567388 105.80448,623.991934 105.206584,621.733767 C102.770724,612.504895 93.3998261,595.037929 86.9056847,583.383526 L81.4341511,573.651055 C79.1704077,569.610892 68.5317835,544.715732 58.2232144,518.842229 L56.5995575,514.751706 L54.5737564,509.602457 L53.4546227,506.734054 L51.4947011,501.664959 C45.1891041,485.255089 39.8342366,470.288986 37.7979197,462.173278 L36.8609551,458.326511 L35.9909538,454.68751 C33.7836487,445.358886 32.4539302,438.923404 31.4257808,432.743802 L31.0474216,430.396055 L30.8630216,429.195179 L30.6834518,427.987974 C30.4670946,426.510627 30.2593974,425.009518 30.0526502,423.449346 L32.9042091,422.077626 C50.7763746,413.521622 65.0816495,407.465243 75.7945055,403.912563 L77.0679698,403.496206 C88.4613025,399.823131 103.680316,396.276235 122.657048,392.881196 L123.735216,392.689186 Z" id="bp-forearm-right-back"></path>
                <path d="M103.756525,330.364895 L103.750652,330.322181 C104.671687,337.254851 106.019677,344.561179 107.746652,349.706258 L108.699562,352.463092 L109.576842,354.925213 C112.156857,362.076745 115.766631,371.402453 120.18543,383.163465 L118.040949,383.553124 C99.236524,387.001594 84.1021503,390.621974 72.6468019,394.420885 L71.4626092,394.818527 C60.489338,398.547977 46.2657914,404.598335 28.7471374,412.979343 L26.9611411,398.325705 L26.2473576,392.674469 C25.9214355,390.124143 25.5684955,387.402904 25.1835818,384.488112 L24.9494475,382.813797 L24.7774309,381.684839 C23.3979042,372.890118 20.6361981,360.909132 17.5051818,347.084077 L20.5750129,346.778184 C37.7626896,345.039111 51.4143008,343.20337 61.5552351,341.265063 L63.4208685,340.899552 C73.9375458,338.789483 87.3756517,335.278591 103.756525,330.364895 Z" id="bp-elbow-right-back"></path>
                <path d="M46.8322976,104.263623 C56.8092799,104.200041 69.4346968,105.765729 88.5217967,109.217567 L88.8032427,111.515423 L89.3430438,116.147032 C90.5150468,126.366638 91.8088385,138.668627 93.0526596,151.397866 L93.6326141,157.402547 L94.4019156,165.595645 L94.9879568,172.033268 L95.3841184,176.49582 C96.0768985,184.385568 96.7056503,192.016843 97.2278709,198.98117 L97.6732194,205.024163 L97.9022191,208.380407 C100.353117,245.239291 102.234921,303.549893 102.319156,312.51593 L102.319156,313.470641 L102.340976,314.51304 L102.369673,315.338182 C102.426501,316.761886 102.528237,318.422886 102.673448,320.245515 L99.7761136,321.116162 C83.8558572,325.869898 70.870095,329.237038 60.8398806,331.217127 L60.2416145,331.334268 C49.5669766,333.406958 34.5770641,335.382152 15.2974046,337.252138 L14.7241382,334.67382 L14.000664,331.374775 C9.77784124,311.997484 5.55198897,290.350312 3.5127256,269.335667 L3.23478766,266.364337 L2.98077862,263.281361 C2.27948412,254.500906 1.19070914,239.026558 0,221.905187 C1.47627893,215.395795 3.19136769,208.517537 5.21039623,201.183621 C11.9695493,176.46629 21.8589225,155.127726 30.1538785,138.482308 L30.9917529,136.805783 L32.0899103,134.621281 L37.0589432,124.80675 L39.4459994,120.043264 L40.1852839,118.549453 C41.0296511,116.834336 41.8090878,115.216246 42.5081493,113.697387 L46.8322976,104.263623 Z" id="bp-upper-arm-right-back"></path>
                <path d="M16.564718,0 L17.4548274,0.412261519 L18.9693178,1.12435171 C29.9880547,6.33814658 39.0619252,11.3706821 44.9179575,16.1649912 C71.4841225,37.9159546 83.1743537,77.6745156 85.956326,91.2065988 L86.1235078,92.0428087 L86.2260503,92.5871824 C86.5053692,94.1125457 86.8312379,96.2234101 87.1934209,98.821408 L85.4024866,98.5079244 C65.9055215,95.1227456 53.0729165,93.819034 42.4565895,94.3805065 L35.6260843,90.1984808 C17.2160176,78.915534 5.8182758,48.1912018 5.8182758,33.8488405 C5.8182758,24.3688598 9.2004115,13.89109 15.2541288,2.23799101 L16.4344581,0 L16.564718,0 Z" id="bp-shoulder-right-back"></path>
            </g>
        </g>
        <g id="decoration" opacity="0.15" mask="url(#mask-2)">
            <g transform="translate(-134, 2)">
                <g id="bp-lower-limb-right-back" stroke-width="1" fill="none" transform="translate(462.4208, 1070.1387)">
                    <path d="M206.343932,375.631816 L206.895214,378.862837 C207.475222,382.17729 207.995242,384.861435 208.415849,386.657909 C210.128426,396.939487 212.065893,406.681625 214.084057,416.35641 L214.590195,418.773976 C214.674804,419.176761 214.759532,419.579497 214.844369,419.982219 L215.354612,422.398649 C220.297973,445.761076 225.537174,469.304542 229.037045,499.692087 L225.315914,500.431627 C187.783495,507.846502 159.373464,512.096245 140.123213,513.18627 L139.183865,513.23733 C128.354889,513.801027 114.641177,513.886203 98.0715904,513.491275 C98.2498844,494.429279 100.576317,478.836953 98.4764888,471.323406 L94.3061633,456.378058 C90.7157267,443.60292 84.8865554,423.626997 76.8186494,396.462534 L82.5492491,395.972388 C119.012403,392.80285 146.442973,389.423494 165.037052,385.797388 L167.486084,385.309021 C178.266034,383.113433 191.222828,379.886608 206.343932,375.631816 Z M151.427141,437.800036 L151.427141,437.843431 L150.710711,437.973619 C138.79193,440.056625 124.39821,444.873575 116.300386,454.420684 C113.586638,457.610286 118.210865,462.231955 120.924613,459.020655 C127.980358,450.71033 140.398469,446.587715 150.689001,444.569804 L150.992941,444.50471 C164.800491,441.835859 181.452049,442.57359 194.02213,449.690526 C197.691117,451.773531 200.991035,446.132058 197.322047,444.049052 C183.818437,436.389667 166.38532,435.326466 151.427141,437.800036 Z" id="bp-popliteal-fossa-right" fill="#FFFFFF"></path>
                    <path d="M0,55.4817213 L92.9717909,29.7669921 L98.3273466,71.4412017 C102.185639,101.207837 106.544863,134.403885 110.955536,167.799877 L137.580856,368.532954 C138.540362,375.848623 139.260923,381.408564 139.693145,384.857896 L136.701875,385.259014 C120.022625,387.45976 99.5927256,389.5714 75.3744242,391.597385 L72.9455473,383.446609 C72.2497285,380.813189 71.5684365,378.208556 70.8992457,375.620209 L69.2500764,369.17604 L68.6026405,366.607651 L66.9949042,360.124302 C60.8045857,334.853836 55.3116236,308.733501 48.2192311,269.925635 L47.2428613,264.58798 C44.4557651,249.805708 34.1699445,202.506593 23.2765997,154.377022 L19.574221,138.091619 C12.2991581,106.237282 5.09940581,75.5968811 0,55.4817213 Z" id="bp-thigh-medial-right-back" fill="#FFFFFF"></path>
                    <path d="M97.8078398,28.4218992 L200.600255,0 L199.936772,30.6032076 C199.244147,64.1536543 198.429194,108.607547 197.924221,153.38041 L197.69937,175.767006 C197.220541,230.575602 197.319153,283.197626 198.798326,313.969694 C199.448848,327.251566 202.773487,353.057288 205.5479,370.696296 L202.073351,371.668697 C187.187473,375.801885 174.518585,378.887806 164.086311,380.922246 C158.43508,382.024315 151.945036,383.104968 144.611989,384.164821 L143.012856,371.76187 C138.688137,338.662726 128.240407,260.610295 117.730104,181.148202 L112.270827,139.776865 C106.900578,98.9707859 101.797343,59.8246165 97.8078398,28.4218992 Z" id="bp-thigh-lateral-right-back" fill="#FFFFFF"></path>
                </g>
                <g id="bp-lower-limb-left-back" stroke-width="1" fill="none" transform="translate(148.5167, 1070.1387)">
                    <path d="M86.7188698,375.631912 L90.1698988,376.595527 C104.957825,380.692108 117.580507,383.760485 128.025412,385.797388 L129.980466,386.171624 C149.515292,389.842981 178.201005,393.260272 216.245918,396.460838 L207.708588,425.365489 C203.670548,439.136508 200.554308,449.946809 198.359399,457.793538 L194.585974,471.323406 C192.486146,478.836953 194.812579,494.429279 194.994201,513.489206 L191.606128,513.564465 C177.101336,513.860782 164.896203,513.769729 155.009127,513.293936 L153.878599,513.23733 C133.996715,512.202388 104.03126,507.689392 64.0278472,499.69675 C67.2151539,472.000607 71.8487517,449.991752 76.3868219,428.624528 L76.8905805,426.252777 C77.2260531,424.673027 77.5606881,423.095773 77.893859,421.518963 L78.3924389,419.153826 L79.1752799,415.411142 C81.1225,406.046642 82.9897992,396.604718 84.6466138,386.657909 L84.9442746,385.317606 C85.3945985,383.196425 85.93034,380.291056 86.5144492,376.839246 L86.7188698,375.631912 Z M95.7404157,444.049052 C92.0714284,446.132058 95.371346,451.773531 99.0403334,449.690526 C111.610414,442.57359 128.261972,441.835859 142.069522,444.50471 L142.373462,444.569804 C152.663995,446.587715 165.082106,450.71033 172.137851,459.020655 C174.851599,462.231955 179.475825,457.610286 176.762077,454.420684 C168.857058,445.100887 154.95238,440.288685 143.207184,438.127082 L141.635323,437.843431 L141.635323,437.800036 C126.677143,435.326466 109.244026,436.389667 95.7404157,444.049052 Z" id="bp-popliteal-fossa-left" fill="#FFFFFF"></path>
                    <path d="M200.090672,29.7669921 L293.062463,55.4817213 L291.772996,60.6119844 C277.446202,118.062477 249.625995,243.513332 245.582727,265.865284 L243.755646,275.844982 C236.824197,313.363361 231.372705,338.812149 225.106064,364.020338 L224.136911,367.89153 L223.486182,370.461529 C222.39596,374.748506 221.276614,379.057576 220.116916,383.446609 L217.689315,391.599184 L213.327675,391.2296 C189.568207,389.191778 169.595561,387.069467 153.369471,384.855408 L155.481695,368.531532 C160.166254,332.815276 170.546728,255.24565 180.874586,177.125923 L191.031315,99.8984773 C194.367235,74.3609397 197.466277,50.4143266 200.090672,29.7669921 Z" id="bp-thigh-medial-left-back" fill="#FFFFFF"></path>
                    <path d="M92.4622081,0 L195.254623,28.4218992 L191.841481,55.0806475 C187.519233,88.6206006 182.386219,127.749715 177.181204,167.16007 L150.359988,369.389168 C149.502785,375.933464 148.852598,380.957152 148.448446,384.179888 L145.124605,383.683307 C139.140344,382.771953 133.757963,381.854766 128.976153,380.922246 L126.529011,380.434096 C115.752765,378.237915 102.741508,374.990567 87.5160682,370.696153 L87.9862149,367.659209 C88.6976698,362.999401 89.4333103,357.894368 90.1408799,352.675427 L90.6809279,348.627368 C92.3396115,335.987261 93.7586387,323.181634 94.2198694,314.81878 L94.2641368,313.969694 C95.8489657,280.999621 95.8489657,222.94669 95.2519411,163.996005 L95.0198834,143.34148 C94.3813178,91.3824164 93.3670455,40.9265463 92.657598,8.63579393 L92.4622081,0 Z" id="bp-thigh-lateral-left-back" fill="#FFFFFF"></path>
                </g>
                <g id="bp-pelvic-region-back" stroke-width="1" fill="none" transform="translate(240.9355, 892.6331)">
                    <path d="M208.581609,133.640744 L208.581609,216.842502 L183.4233,210.020487 C169.663461,171.466258 180.223077,136.312667 207.742393,133.70963 L208.581609,133.640744 Z M213.551407,133.64102 C241.691077,135.606175 252.603809,171.078652 238.705635,210.020487 L213.548642,216.842502 L213.551407,133.64102 Z" id="bp-intergluteal-cleft" fill="#FFFFFF"></path>
                    <path d="M268.478427,0 L272.966573,0.135258923 C293.207766,0.793169758 313.934763,2.13267083 330.470472,4.83308935 C354.481715,8.76042277 378.644927,17.2660289 402.96011,30.3499076 C415.72558,63.8732785 422.130026,107.182436 422.130026,160.27738 L244.475501,208.457671 C257.632342,167.827364 245.193384,130.510524 213.54909,128.660183 L213.54909,96.5017344 C239.501819,92.178188 268.478427,53.4968394 268.478427,0 Z" id="bp-buttock-right" fill="#FFFFFF"></path>
                    <path d="M153.651598,0 C153.651598,54.0385885 182.623163,92.2136766 208.583306,96.503624 L208.580578,128.660066 C176.936073,130.508957 164.496317,167.826511 177.653434,208.457671 L0,160.27738 C0,107.182436 6.40444537,63.8732785 19.1699161,30.3499076 C43.4850986,17.2660289 67.6483111,8.76042277 91.6595538,4.83308935 C109.42013,1.93263983 132.015924,0.602192466 153.651598,0 Z" id="bp-buttock-left" fill="#FFFFFF"></path>
                </g>
                <g id="bp-back" stroke-width="1" fill="none" transform="translate(232.9805, 289.0116)">
                    <path d="M175.636827,593.103008 L262.404378,593.101257 L262.402562,593.209993 C261.560212,643.482732 247.099852,674.515021 219.019489,686.306023 C190.92133,674.506659 176.460443,643.438708 175.636827,593.103008 Z" id="bp-sacrum" fill="#FFFFFF"></path>
                    <path d="M178.962661,382.271142 L170.986277,588.500776 L166.373046,588.533246 C91.9521148,589.24325 62.7078757,598.757163 31.4886446,617.090401 C44.0404891,572.238083 54.0602569,488.78764 54.2593971,466.680145 L54.2792756,454.271105 C72.6461274,455.390618 100.116432,450.473227 122.386803,440.455493 C141.279319,431.947288 161.091725,412.027917 178.1644,383.60947 L178.962661,382.271142 Z" id="bp-lower-back-left" fill="#FFFFFF"></path>
                    <path d="M259.112795,382.332721 C276.356257,411.431409 296.477857,431.820379 315.651187,440.455049 C337.923158,450.473502 365.394795,455.390956 383.761683,454.270981 L383.781763,466.680145 L383.805438,468.079407 L383.851169,469.588896 C384.778439,495.336387 394.497724,574.014235 406.552515,617.090401 L404.605968,615.957503 L402.738513,614.890777 C372.24392,597.64022 341.798716,588.848462 267.108,588.501022 L259.112795,382.332721 Z" id="bp-lower-back-right" fill="#FFFFFF"></path>
                    <path d="M253.471666,369.980491 C253.809787,370.629165 256.693978,443.347093 262.124237,588.134275 L175.974031,588.134275 L184.250258,369.980491 L253.471666,369.980491 Z" id="bp-lumbar-vertebral-spine" fill="#FFFFFF"></path>
                    <path d="M258.693103,371.525491 L255.196428,281.308988 L259.74417,282.586637 C277.631897,287.567081 291.879502,290.985488 302.443789,292.833849 L303.315619,292.984244 C314.595831,294.901873 332.183706,296.735616 356.249622,298.511237 L356.223914,298.770756 C352.285911,339.942514 361.64551,370.3224 384.402419,389.664048 L384.346276,391.569837 L384.228734,396.082022 L384.127304,400.630581 L384.014974,406.735073 C383.935664,411.586882 383.879137,416.432608 383.839345,421.180199 L383.791451,428.216478 L383.756753,438.343869 L383.752582,447.108555 L383.756753,449.311487 C366.419379,450.452018 339.441503,445.71012 317.689822,435.925705 C297.822096,426.978316 276.44998,404.240743 258.693103,371.525491 Z" id="bp-infrascapular-region-right" fill="#FFFFFF"></path>
                    <path d="M182.866286,281.301996 L179.381357,371.460097 C161.617471,404.210444 140.230069,426.972377 120.348168,435.92615 C98.59813,445.709825 71.621641,450.451668 54.2842187,449.311621 L54.2885779,447.108555 L54.2844071,438.343869 L54.249709,428.216478 L54.2018155,421.180199 L54.12882,413.996718 C54.0998004,411.585362 54.0658411,409.160978 54.0261859,406.735073 L53.9138561,400.630581 L53.8124259,396.082022 L53.6948841,391.569837 L53.6385453,389.66236 C76.4418113,370.280004 85.7922115,339.813641 81.7900733,298.511172 L89.1000406,297.954361 C108.50521,296.427087 123.196379,294.855504 133.280508,293.223507 L134.723359,292.984244 C145.637449,291.128856 160.641015,287.530614 179.683547,282.198883 L182.866286,281.301996 Z" id="bp-infrascapular-region-left" fill="#FFFFFF"></path>
                    <path d="M401.537509,265.105855 C392.27085,298.980722 388.902898,323.159529 386.771437,348.527189 L386.400121,353.108558 L386.042891,357.819065 L385.580671,364.308995 C385.179056,370.107324 384.864111,376.48725 384.617559,383.170662 C365.146233,364.635439 357.362345,336.288506 361.308477,297.829981 L361.381951,297.145896 L367.706049,288.431859 C391.671505,255.326437 409.979728,229.05097 422.642115,209.578624 C415.213086,225.23981 407.300055,243.999434 401.537509,265.105855 Z" id="bp-lateral-chest-wall-right" fill="#FFFFFF"></path>
                    <path d="M16.2490599,211.379853 L15.3994538,209.582609 L18.0694878,213.662336 C31.3555612,233.840049 50.1650671,260.674266 74.5090329,294.190946 L76.6595209,297.149068 C80.7678234,335.952784 73.0080205,364.524299 53.4261554,383.169702 C53.1769871,376.48599 52.8620641,370.106751 52.4604894,364.308995 L51.9982695,357.819065 L51.6410389,353.108558 L51.269723,348.527189 L50.8716988,343.971498 L50.4678045,339.699959 C48.2742813,317.399331 44.6916709,295.037688 36.503651,265.105855 C30.9604058,244.802666 23.4272404,226.671052 16.2490599,211.379853 L16.2490599,211.379853 Z" id="bp-lateral-chest-wall-left" fill="#FFFFFF"></path>
                    <path d="M242.336874,77.8555546 L253.471666,365.013509 L184.598787,365.013509 L195.702526,77.8555546 C202.613359,81.7264345 210.415011,84.8474893 219.019489,86.6812391 C227.623967,84.8474893 235.425792,81.7264345 242.336874,77.8555546 Z" id="bp-thoracic-vertebral-spine" fill="#FFFFFF"></path>
                    <path d="M26.895747,66.304933 L26.4099487,65.3116619 L32.3767615,66.7660694 C95.7682104,82.3709065 129.476237,95.6825763 131.900499,105.197405 C137.822282,128.496115 139.418732,191.555692 131.93309,215.925048 L131.565571,217.107916 C120.92999,250.978532 101.716737,281.498178 80.2651145,292.849573 L79.8347763,293.07086 L74.2320374,285.347313 C32.0713838,227.099032 7.48088804,190.047587 0.713237074,174.64809 L0.305631445,173.69495 C0.224480055,173.499435 0.121238033,173.319786 0,173.157697 C22.3446888,157.854798 36.503651,120.441982 36.503651,102.566326 C36.503651,91.6691213 33.2959338,79.5718308 26.895747,66.304933 Z" id="bp-scapula-left" fill="#FFFFFF"></path>
                    <path d="M401.537509,102.566326 C401.537509,120.441452 415.695632,157.852579 438.040384,173.161638 C437.91774,173.319786 437.814498,173.499435 437.733347,173.69495 L437.533532,174.168988 C430.871972,189.741809 404.852212,228.833488 359.760217,290.928971 L358.202681,293.07086 L357.773864,292.849573 C336.072803,281.366184 316.662466,250.266165 306.105736,215.924551 C298.620246,191.555692 300.216696,128.496115 306.138835,105.196004 C308.637734,95.388239 344.385795,81.5438432 411.629227,65.3116141 C404.906765,78.9693592 401.537509,91.3981033 401.537509,102.566326 Z" id="bp-scapula-right" fill="#FFFFFF"></path>
                    <path d="M247.304598,77.8524623 L300.866615,105.886022 C295.118582,131.316697 293.773405,192.692639 301.357807,217.383507 C311.164473,249.285118 328.351835,278.473636 348.546121,292.94248 L344.171774,292.587795 C327.014686,291.166192 313.93966,289.710054 304.89267,288.212417 L302.463183,287.79287 C291.871279,285.890903 277.548839,282.417184 259.574598,277.382218 L255.130505,276.12671 C255.084628,276.113643 255.038684,276.101956 254.992718,276.091623 L247.304598,77.8524623 Z" id="bp-interscapular-region-right" fill="#FFFFFF"></path>
                    <path d="M190.732079,77.8524623 L183.066954,276.088653 L182.908473,276.12671 L176.870957,277.827142 C159.65383,282.619001 145.872011,285.942816 135.59727,287.789012 L133.890901,288.087518 L131.601172,288.46164 C121.842726,289.996151 107.826345,291.487118 89.4953364,292.94066 C109.68714,278.473645 126.874485,249.285184 136.681018,217.384003 C144.265765,192.692015 142.920327,131.313534 137.172249,105.885353 L190.732079,77.8524623 Z" id="bp-interscapular-region-left" fill="#FFFFFF"></path>
                    <path d="M284.824633,5.68434189e-14 C294.159927,10.0027663 311.875274,19.5498752 333.628678,28.6413266 L345.903034,33.7366414 L357.175458,38.3817764 L369.157702,43.2851668 C372.447609,44.6271184 375.813231,45.9965534 379.254567,47.3934206 L396.558107,54.3909207 L411.24664,60.2930775 L407.353387,61.2346005 C344.345841,76.5629392 309.859575,89.4561131 302.559403,101.168655 L249.483425,73.385638 C263.169628,63.8829864 272.438928,51.7214753 276.368595,42.5311426 L277.234159,40.4894175 L277.997624,38.650905 C283.196935,25.9779507 285.358029,17.237017 284.824633,5.68434189e-14 Z" id="bp-suprascapular-region-right" fill="#FFFFFF"></path>
                    <path d="M153.216527,5.68434189e-14 C152.630473,18.938697 155.297183,27.6209991 161.672566,42.5311426 C165.602232,51.7214753 174.870703,63.8829864 188.55627,73.385638 L135.478626,101.167798 C128.026553,89.2157864 92.2713162,76.0355935 26.7943272,60.2935557 L41.483053,54.3909207 L58.7865935,47.3934206 L71.3366924,42.2838571 C78.653806,39.2953919 85.5876171,36.446126 92.1381258,33.7366414 L104.412482,28.6413266 C126.165886,19.5498752 143.881233,10.0027663 153.216527,5.68434189e-14 Z" id="bp-suprascapular-region-left" fill="#FFFFFF"></path>
                </g>
                <g id="bp-upper-limb-left-back" stroke-width="1" fill="none" transform="translate(0, 357.7291)">
                    <path d="M88.9424441,629.932039 L89.3885584,628.480281 L94.5284267,630.146166 C103.658007,633.066999 111.173162,635.254681 117.072034,636.708253 C125.062659,638.677266 134.757022,640.443289 146.160194,642.008661 L145.261909,644.975961 C144.647125,646.997613 144.00051,649.106105 143.322207,651.301056 L140.678825,659.792015 L140.743955,659.922203 L139.463066,665.064623 L139.615036,665.064623 C139.397936,668.905164 139.723586,673.722114 140.179495,677.540958 L140.309755,678.604159 C140.570275,680.798754 140.910546,683.917949 141.234866,687.319533 L141.525514,690.407857 L141.568934,691.0154 L141.655774,692.056903 L141.720904,693.011614 L141.845089,694.690216 C142.158856,699.141962 142.323959,703.342261 142.111684,705.965305 L142.046554,706.724734 L141.936647,708.241219 C141.84845,709.571068 141.768734,711.055599 141.697498,712.615353 L141.590644,714.969964 L141.503804,717.074668 L141.315883,722.342763 C141.272115,723.66443 141.233211,724.934716 141.200559,726.109184 L141.113025,729.572701 L141.069605,731.742499 C141.047895,732.176458 141.026185,732.632116 141.026185,733.087773 L140.982765,733.543431 L140.982765,734.150974 L140.852505,736.581147 L140.750273,737.974267 C140.502431,741.166539 140.198492,743.91235 140.027525,745.412223 L139.875556,746.627309 C139.875556,746.627309 137.660585,755.034271 134.634411,765.023286 L133.426701,768.950473 L132.778886,771.006427 C132.342,772.380592 131.89564,773.759151 131.443096,775.126114 L130.988613,776.48862 C130.475274,778.015758 129.955496,779.521476 129.433961,780.983008 L128.586364,783.340283 L127.746805,785.586559 C122.772298,798.812081 118.919708,807.527814 115.690633,813.283488 L115.473533,813.652353 L114.708932,815.021994 C111.658365,820.633304 110.503966,825.314258 105.204711,823.741912 C100.710744,822.396637 101.188364,817.644781 102.273863,813.26179 L102.360703,812.958018 L102.512673,812.350475 L102.599513,812.046703 L102.794902,811.308972 L103.353804,809.333241 C103.633776,808.377142 104.019345,807.082207 104.488281,805.537311 L112.686175,778.585714 C112.862908,777.998513 113.025732,777.454707 113.172275,776.961078 L113.693314,775.181844 C115.560373,768.737546 116.189963,765.244172 114.670264,764.918702 C113.157568,764.603732 112.661469,767.722957 110.742135,773.548765 L110.306557,774.856375 C109.729071,776.542307 109.109034,778.557832 108.461339,780.739216 L105.76917,789.936467 C104.82358,793.157411 103.877989,796.292634 102.978142,798.961158 L101.866931,802.220298 C101.097182,804.51577 100.124574,807.494468 99.0824951,810.723127 L96.6292668,818.165532 C94.2411686,825.347562 91.8747803,832.139028 90.6590211,834.222033 L90.5504712,834.395617 C88.1623729,838.43144 85.296655,839.841809 81.150048,838.626722 C76.9383111,837.389938 74.9844125,834.829577 75.7876819,827.994715 L75.8311019,827.647547 C76.1784616,825.087186 77.1337009,821.029665 78.3060401,816.624976 L79.0441795,813.891031 L80.2165187,809.790114 L81.2064021,806.424786 C81.8580286,804.23734 82.4847679,802.186981 83.0368458,800.422948 L84.2328658,796.662839 L85.4486249,793.082673 C86.3604442,790.370426 87.5544934,786.703469 88.7051226,782.928021 L88.9222224,782.19029 L89.508392,780.15068 L89.9425917,778.675218 L90.525501,776.502853 C90.6014929,776.213636 90.6758312,775.926767 90.7483362,775.642669 L91.0011251,774.632619 L91.243724,773.618713 C92.3285594,768.965257 92.7289348,765.457954 91.5057105,765.309266 C88.2795379,764.903548 82.7825305,786.878397 80.2912754,794.235412 L78.9750292,798.094905 C78.5086666,799.478754 78.0165736,800.959038 77.5244806,802.477896 L76.9383111,804.235432 L75.7442619,807.924088 L73.1502454,816.157917 L72.5094743,818.252324 L72.2055345,819.272129 C71.7930448,820.660799 71.2937151,822.505127 70.7726755,824.457945 L68.1398177,834.377968 C67.8781586,835.333501 67.6495392,836.143854 67.4727579,836.738998 L67.320788,837.129562 L67.320788,837.216354 C66.3655487,840.080487 63.0005011,844.550269 57.1822253,843.877632 C51.3205296,843.204995 49.366631,835.11165 50.69094,829.752251 L51.5419997,826.305377 C52.8104054,821.14769 54.3637585,814.675987 54.9895169,810.441053 L55.0546469,809.963698 L55.2203639,808.965697 C55.5908609,806.831973 56.188524,803.902018 56.883544,800.717675 L57.8118149,796.532651 L58.1157547,795.187377 L58.9180711,791.786361 C59.3928318,789.806041 59.8590158,787.936086 60.2908926,786.305077 L60.7209528,784.707255 L60.9163426,783.991222 C61.6441791,781.402911 62.9592765,776.925193 64.1028145,772.384657 L64.3967381,771.199946 C66.0345977,764.492117 67.1533636,757.994106 65.3017595,757.606485 C63.6300907,757.259317 61.7196121,762.445133 60.0045233,768.36868 L59.8959734,768.759244 C59.8742634,768.911129 59.8308434,769.041317 59.7874235,769.171505 L59.6788735,769.583767 L59.5051937,770.19131 C59.4617737,770.321498 59.4400637,770.473384 59.3966437,770.603572 L59.027574,771.927148 L58.1917396,775.061488 C57.3857564,778.130056 56.6774682,780.920958 56.1401461,782.711041 L55.9881762,783.188397 L55.7172034,784.124524 C55.2488306,785.794565 54.7000505,787.994498 54.1211175,790.43552 L52.058669,799.2232 L51.156589,802.857059 C50.2340491,806.48871 49.3264648,809.692585 48.5086134,811.61456 L48.1725818,812.372173 C47.9699553,812.820598 47.7769777,813.278666 47.5872163,813.746378 L46.8265628,815.670265 L46.609463,816.191016 L46.5009131,816.47309 C46.3489432,816.841956 46.1969733,817.210821 46.0450034,817.557989 L45.8713235,817.948552 C44.2647847,821.528718 42.1806262,824.436247 38.0557292,823.524932 C31.6729938,822.114563 31.2605041,813.565561 32.8887529,807.425035 L32.9321729,807.229753 C33.5617624,804.756184 34.3433218,800.286401 35.1683012,795.165679 L36.2972204,788.178931 L36.7748401,785.184611 C37.5129795,780.628036 38.251119,776.201649 38.9675485,772.751671 L39.0978084,772.079034 L39.2280683,771.47149 C41.3773568,761.62061 51.6678893,729.876473 50.66923,719.461445 L50.5683178,718.486382 C49.7816157,711.331153 48.6703599,711.472443 45.5368506,714.118187 L42.5931159,716.662406 L41.9852363,717.16146 C36.0801206,722.151994 28.7855659,730.809486 20.1667021,733.955692 C15.0214358,735.843416 5.18681291,737.535858 1.30072572,732.089666 C-2.58536147,726.643475 3.05923445,725.884046 7.44465128,721.522753 L8.09731854,720.854151 C9.25044435,719.648395 10.7199932,718.001085 12.3512814,716.145474 L17.6049239,710.153014 L19.2852034,708.266079 C22.2642909,704.95397 25.1579279,701.932788 27.2880681,700.235702 L27.9388765,699.737986 C33.0190128,695.745559 36.0149906,687.890892 39.0760984,684.48431 C45.1114741,677.779636 55.9013363,671.053264 60.9597626,666.843856 L61.1768624,666.648575 C64.3465202,664.044818 69.7523062,660.551444 74.0291732,657.860895 L74.9409925,657.27505 L76.8731811,656.081661 C78.6751098,654.562803 80.7809783,652.306213 82.0835773,650.31 L82.0835773,650.353396 L83.7986661,645.623237 L84.1026059,645.493049 L83.928926,645.427955 L87.7734389,633.628904 C88.1863362,632.344278 88.5739112,631.121818 88.9424441,629.932039 L88.9424441,629.932039 Z" id="bp-hand-left-dorsal" fill="#FFFFFF"></path>
                    <path d="M132.728868,394.66418 L134.406171,390.135264 L137.850024,390.767991 C155.423002,394.046277 169.580939,397.46681 180.277651,401.014136 L182.05027,401.613378 C193.472055,405.545459 208.602451,412.078292 227.433963,421.210167 C227.10959,423.753328 226.791216,426.110162 226.449684,428.416967 L226.054582,430.995472 C225.610931,433.792428 225.11625,436.590728 224.516483,439.637869 L224.252848,440.959743 C223.126249,446.537047 221.639927,453.020594 219.486068,461.819694 L219.210593,462.905372 C216.755643,472.281216 210.359759,489.773757 203.186026,508.160477 L200.596753,514.751706 L197.042774,523.666547 C187.37021,547.73964 177.884732,569.862844 175.76216,573.651055 L170.728835,582.598079 C164.370524,593.981018 154.912461,611.495852 152.166439,621.091925 L151.10425,625.009652 C150.148558,628.482004 148.982074,632.543461 147.603456,637.19134 C136.031811,635.623879 126.249131,633.854069 118.26045,631.885536 L115.788468,631.25769 C109.237404,629.54777 100.894562,627.029726 90.7721534,623.706693 L91.27308,621.838527 C92.5966293,616.789187 93.8417342,611.106953 95.4786377,602.574455 L95.8477074,600.621638 C97.6713461,590.949163 99.8766516,573.703291 101.928052,556.151207 L103.264935,544.502254 C105.153538,527.775504 106.788068,512.265565 107.686976,504.506588 L107.961879,502.177926 C108.89975,494.561937 112.813018,472.709907 117.59928,450.404601 L118.134573,447.925069 C122.084831,429.738422 126.562993,411.58975 130.431712,400.935177 L132.728868,394.66418 Z" id="bp-forearm-left-back" fill="#FFFFFF"></path>
                    <path d="M153.593053,329.186657 L153.754914,327.895592 L156.971614,328.846988 C171.796148,333.198018 184.006656,336.305654 193.611999,338.17072 L195.508371,338.529841 C206.487001,340.558461 221.418893,342.47838 240.320097,344.29321 L236.689651,360.381454 C234.642282,369.580985 232.983612,377.522594 232.124838,383.662124 L230.912862,392.95714 C229.665182,402.731986 228.815793,409.983521 228.082059,416.005774 L225.144296,414.594854 C207.217493,406.027774 192.794067,399.931936 181.841141,396.299642 C170.384397,392.500268 155.153174,388.868819 136.171961,385.407701 L140.405499,374.176489 C143.920287,364.898725 146.753493,357.479567 148.75075,351.736463 L149.449659,349.706258 C151.271188,344.279481 152.671096,336.448313 153.593053,329.186657 L153.593053,329.186657 Z" id="bp-elbow-left-back" fill="#FFFFFF"></path>
                    <path d="M169.095151,105.733619 L171.942266,105.235767 C188.380627,102.40175 199.750178,101.131124 208.978866,101.241955 L214.688162,113.697387 C216.18615,116.952084 218.053209,120.662437 220.137368,124.80675 L224.566204,133.551034 C233.293618,150.822622 244.53939,173.952663 251.985915,201.183621 C254.004943,208.517537 255.720032,215.395795 257.196311,221.905187 L254.941239,253.740052 C254.551383,259.03812 254.217267,263.379564 253.961523,266.364337 L253.852973,267.536028 C251.616787,292.061966 246.305787,317.566 241.420215,339.409811 L236.604601,338.939106 C218.750704,337.15245 204.732532,335.27024 194.558774,333.294805 L192.526054,332.88928 C182.512687,330.840264 169.76547,327.501141 154.293792,322.872783 L154.437709,321.277078 C154.705724,318.150561 154.85446,315.432691 154.877155,313.470641 L154.877155,312.51593 C154.935337,306.322894 155.851134,276.587744 157.219712,246.640744 L157.53993,239.808709 C158.137557,227.381102 158.808355,215.224706 159.523091,205.024163 L159.609931,203.895868 L160.010633,198.420109 C160.670504,189.670404 161.495052,179.89569 162.401262,169.893768 L163.304449,160.133232 L164.143651,151.397866 C165.848142,133.954097 167.646395,117.3127 169.095151,105.733619 Z" id="bp-upper-arm-left-back" fill="#FFFFFF"></path>
                    <path d="M240.631593,0 L240.761853,0 L241.348022,1.10659671 C247.774178,13.2140666 251.378035,24.0630539 251.378035,33.8488405 C251.378035,48.1912018 239.980293,78.915534 221.570227,90.1984808 L211.549838,96.3341118 C201.260552,95.9284087 188.691049,97.2690577 169.764064,100.572785 L170.154869,97.7476138 C170.437568,95.7696265 170.696043,94.1162103 170.924779,92.8384421 L171.072803,92.0428087 C173.526031,79.3928894 185.140873,38.3837172 212.278353,16.1649912 C218.400569,11.152759 228.039802,5.88015114 239.741483,0.412261519 L240.631593,0 Z" id="bp-shoulder-left-back" fill="#FFFFFF"></path>
                </g>
                <path d="M452.001097,205.689184 C478.048867,205.689184 490.364825,212.655002 504.102873,225.067667 C502.887114,229.146886 501.845035,233.855347 501.237155,239.214747 L501.170796,239.85874 C500.951793,242.20397 500.754114,246.507278 500.559799,251.934924 L499.787735,276.708041 L499.494068,285.721336 C499.019503,299.450168 498.433455,307.580035 497.589878,312.011452 C494.173489,325.893828 478.048723,349.952083 452.001082,356.427206 C425.950188,349.952083 409.825422,325.893828 406.409033,312.011452 C405.565456,307.580035 404.979408,299.450168 404.504843,285.721336 L404.211176,276.708041 L403.439112,251.934924 L403.233075,246.684836 C403.083922,243.280979 402.929342,240.673704 402.761756,239.214747 C402.153876,233.855347 401.111797,229.146886 399.896038,225.067667 C413.634086,212.655002 425.953327,205.689184 452.001097,205.689184 Z" id="bp-neck-back" fill="#FFFFFF"></path>
                <path d="M553.255367,129.618276 C550.281099,119.789094 541.966175,128.207908 541.553685,128.902243 C546.807501,103.949572 552.234998,83.640268 545.461482,58.1885437 C535.0624,19.1538872 498.871856,5.46246513 486.280065,2.55493652 C471.452146,-0.851645507 432.547854,-0.851645507 417.719935,2.55493652 C405.128144,5.44076716 368.95931,19.1538872 358.538518,58.1885437 C351.765002,83.640268 357.170789,103.949572 362.446315,128.902243 C362.033825,128.207908 353.718901,119.789094 350.744633,129.618276 C348.443375,137.234265 358.234578,157.348288 364.204823,173.014226 C368.76392,184.948112 367.938941,186.423574 369.39351,188.528278 C372.280938,192.694289 375.190076,186.640554 375.776245,185.316977 C375.841375,185.165092 375.884795,185.056602 375.884795,185.056602 C375.884795,185.165092 375.884795,185.316977 375.884795,185.447165 C378.099213,188.680164 387.260827,201.698948 390.756134,206.646087 C401.003247,198.487648 412.683218,192.650893 425.383559,189.287707 C433.980713,186.68395 443.033776,185.360373 452.41249,185.360373 C463.115512,185.360373 473.297495,187.074513 482.784758,190.481095 C493.81343,193.974469 503.973702,199.485755 513.178736,206.971556 C516.435233,202.306492 525.879077,188.766955 528.136915,185.447165 C528.136915,185.295279 528.136915,185.143394 528.136915,185.034904 C528.136915,185.034904 528.180335,185.121696 528.245465,185.295279 C528.831634,186.640554 531.740772,192.672591 534.6282,188.50658 C536.082769,186.423574 535.25779,184.926414 539.816887,172.992528 C545.787132,157.348288 555.578335,137.212568 553.277077,129.596578" id="bp-head-back" fill="#FFFFFF"></path>
            </g>
        </g>
        <g id="viewport-boundary" mask="url(#mask-2)" stroke="#FF0000" stroke-width="3">
            <g transform="translate(260, 190)" id="boundary">
                <rect x="0" y="0" width="560" height="1080"></rect>
            </g>
        </g>
    </g>
</svg>