<?xml version="1.0" encoding="UTF-8"?>
<svg width="1080px" height="1460px" viewBox="0 0 1080 1460" version="1.1" xmlns="http://www.w3.org/2000/svg" xmlns:xlink="http://www.w3.org/1999/xlink">
    <title>whole-body-front</title>
    <defs>
        <rect id="path-1" x="0" y="0" width="1080" height="1460"></rect>
    </defs>
    <g id="whole-body-front" stroke="none" stroke-width="1" fill="none" fill-rule="evenodd">
        <mask id="mask-2" fill="white">
            <use xlink:href="#path-1"></use>
        </mask>
        <g id="mask"></g>
        <g id="bp-whole-body-front" mask="url(#mask-2)">
            <g transform="translate(314, 200)">
                <g class="hover" id="bp-lower-limb-left-front" stroke-width="1" fill="none" transform="translate(231.1778, 513.6975)">
                    <path d="M115.818987,433.677549 L116.376371,440.795651 L117.031232,448.749896 C117.100942,449.609255 117.168785,450.457409 117.233915,451.291303 L117.255625,451.617255 L118.916439,460.254981 L119.64101,461.329264 L121.11585,463.543361 C121.774946,464.525176 122.390506,465.428184 122.784682,465.946423 L124.015625,467.512605 C130.938962,476.369635 144.335258,494.387135 155.554133,505.225997 L156.324188,505.967914 C159.313365,508.920517 165.382698,516.480825 162.944287,519.436985 C161.015545,521.767627 155.62747,516.206253 156.351349,517.038332 L157.018493,517.785714 C158.098679,519.028849 160.77712,522.333483 161.131504,524.826057 C161.359458,526.477546 159.980874,528.400663 157.408241,527.596648 C154.271149,526.618792 152.024165,523.772145 151.155766,523.71782 C155.085273,527.955195 156.073077,530.56281 155.291518,531.996999 C154.846463,533.09437 153.771819,533.920115 152.501785,534.180877 C151.220896,534.441638 149.950862,533.768004 148.300903,532.25776 C147.714733,531.725372 147.128564,531.106064 146.564104,530.465025 L146.281874,530.139073 L145.953925,529.752457 C144.444582,527.95196 143.250437,526.243585 143.209912,526.31457 L144.797369,528.989972 C148.030353,534.484352 148.936445,536.58486 146.705219,538.363926 C145.96708,538.939775 143.275041,539.602544 142.406642,539.124481 C138.498845,536.929738 136.544946,532.670633 133.266739,529.856581 C135.177217,534.213472 139.920849,540.906351 137.402491,544.144141 C135.025247,547.164628 127.307348,546.675701 124.48505,544.752584 C122.24519,543.226382 119.210732,538.284317 118.036385,535.83341 L117.928635,535.6042 C115.442842,530.225993 111.806419,526.912149 108.571632,522.185846 L108.362216,521.870616 C106.689583,519.279492 103.49278,512.735179 100.108108,506.174824 L99.576989,505.148414 C96.0284976,498.312262 92.3513609,491.682311 90.0638699,489.7319 L88.7288961,488.592943 C83.4871146,484.089086 82.1674662,482.451502 81.5644111,477.823789 C80.9565315,473.075756 82.6607653,467.78447 83.9199444,463.818722 L83.8765244,455.028885 C83.1383849,453.094903 82.4002454,450.74805 82.0745957,448.900989 C81.2604713,444.305067 82.1071607,441.404094 83.3337748,437.025474 L82.8021593,434.597799 C82.3403503,432.517318 81.6971576,429.66668 80.9163071,426.235955 C92.8665944,426.309991 104.237819,424.873071 115.028089,421.924154 C115.207718,425.413186 115.49267,429.45661 115.818987,433.677549 Z" id="bp-foot-left-dorsal" fill="#FFFFFF"></path>
                    <path d="M49.3471532,281.049087 C56.081205,282.354867 63.0030957,282.865744 70.111463,282.582567 C71.5862736,297.809992 73.3316032,311.45202 75.5807052,325.611073 L76.1999492,329.446597 L76.9346561,333.853322 C78.5397914,343.323541 80.4231183,353.450172 83.092997,367.155924 L90.3400707,404.031926 C91.6415463,410.696351 92.8338882,416.861786 94.0406295,423.177056 C89.5666238,423.594921 85.0016911,423.779121 80.3455488,423.730427 L74.950113,400.301673 C74.0056139,396.225931 73.0274106,392.015833 72.0393639,387.775161 L65.1782864,358.540865 C62.5303774,347.359905 60.2846018,338.032418 59.0460547,333.188681 L57.9439481,328.950681 L57.4120535,326.951509 L56.3048443,322.866245 L55.3427076,319.208283 C52.827327,309.573367 50.535416,299.858566 49.5204742,289.988561 L49.3359393,281.633327 L49.3471532,281.049087 Z" id="bp-lower-leg-medial-left-front" fill="#FFFFFF"></path>
                    <path d="M90.590867,279.692585 C95.1416927,297.660088 97.7594828,330.723795 101.288165,405.634516 L102.051862,422.166935 C100.229323,422.458568 98.3909383,422.70961 96.5366916,422.920054 L94.7072103,413.399538 C94.0908789,410.210745 93.4627719,406.978974 92.8070752,403.621152 L85.3709153,365.773963 C82.6234594,351.648642 80.7208397,341.353806 79.0852619,331.568643 L78.7711657,329.675891 C78.6320255,328.831297 78.4946147,327.988923 78.3585558,327.146601 C76.1120171,313.238581 74.3602474,299.921932 72.882157,285.205739 L72.6105311,282.450801 C78.2306485,282.082483 83.9658191,281.223888 89.815382,279.875429 L90.590867,279.692585 Z" id="bp-lower-leg-anterior-left" fill="#FFFFFF"></path>
                    <path d="M113.79108,271.883354 L114.020838,273.354148 L114.596152,281.622462 C116.304503,295.102634 117.183074,308.825895 116.430695,323.056288 L116.340721,324.677708 C116.291488,326.366886 115.732054,349.424334 115.306701,372.65802 L115.065559,386.91742 C114.844134,401.408228 114.734631,414.137257 114.911497,419.366466 C111.512731,420.309752 108.054105,421.103034 104.535498,421.742608 L104.06913,411.57521 C100.383774,332.131901 97.7488511,297.7808 93.017051,279.089474 C99.7912442,277.336006 106.716125,274.933144 113.79108,271.883354 Z" id="bp-lower-leg-lateral-left-front" fill="#FFFFFF"></path>
                    <path d="M102.403365,208.13115 L103.600045,215.780173 C105.022049,224.341844 106.650298,232.805729 108.278547,241.258748 L108.788731,243.931554 C110.410461,252.389974 112.014605,260.830792 113.387509,269.333214 C98.6492943,275.756075 84.6123104,279.317779 71.2698234,280.025736 L71.1964936,280.025641 L71.0942667,280.033452 C63.6575697,280.415735 56.4364088,279.909154 49.4302038,278.516192 C49.4603295,277.79958 49.4958293,277.085292 49.5313292,276.374636 L49.6181691,274.288543 L49.6830855,272.924299 C49.9071079,267.929538 49.9411052,263.016945 48.5977999,258.186518 L40.6176483,229.615073 L38.9888511,223.70044 C38.8181226,223.054176 38.4023427,221.478905 37.7436442,218.97463 C64.9517311,219.946159 86.5091308,216.34389 102.403365,208.13115 Z" id="bp-knee-left" fill="#FFFFFF"></path>
                    <path d="M23.8375628,37.625717 L46.36791,26.0110556 L57.4551047,114.327781 C62.9870074,158.587287 67.0843437,191.754158 69.7470629,213.827971 L69.9058397,215.138627 C60.1084991,216.478 49.1670295,216.915151 37.0802102,216.446709 L36.9069733,215.791038 C35.4821551,210.437378 34.1831297,205.357477 32.9308354,200.144352 L32.3137476,197.548324 C29.8799712,187.199997 27.5761148,176.078262 24.8029667,161.098599 L23.6590336,154.856642 C22.3227341,147.728314 17.1352128,124.728445 11.6382998,101.18334 L9.28819548,91.1646838 C5.82239026,76.4606994 2.43305464,62.4012057 2.84217094e-14,52.7933465 L0.596330295,52.6163062 C3.56692929,51.6988264 16.9002021,47.1566082 23.8375628,37.625717 Z" id="bp-thigh-medial-left-front" fill="#FFFFFF"></path>
                    <path d="M48.734,24.789 L74.9700766,11.2616287 L74.8558817,12.2753807 C73.0887102,28.724672 74.1894238,55.9692315 76.7835731,63.8847247 C81.3502706,77.842065 88.1941652,84.7941042 97.1512378,84.3701133 L97.3397963,96.9099154 C97.8796997,130.674764 98.6627867,163.356171 99.4317281,179.382208 C99.8666997,188.276302 100.795713,196.923145 102.011373,205.511454 C93.7812188,209.895396 83.9046132,212.985889 72.3803395,214.777382 L69.7300847,192.987282 C65.7637631,160.61181 59.8972679,113.541174 52.130286,51.7749453 L48.734,24.789 Z" id="bp-thigh-lateral-left-front" fill="#FFFFFF"></path>
                    <path d="M96.793965,0.0108650641 L96.82653,0 L96.7629825,3.36874545 C96.684402,8.34315786 96.6457179,14.5227947 96.6414734,21.5771648 L96.6419616,24.9192626 L96.6529562,30.5754809 C96.6975778,45.6586049 96.8655327,63.5762421 97.1159636,81.8538907 C89.3458577,82.2306255 83.4117602,76.1032414 79.1594342,63.1067249 C77.6149461,58.3940486 76.6134336,46.0852957 76.5048196,33.5835989 L76.4968658,32.3118632 L76.4960195,30.602542 C76.517083,23.2031295 76.8615167,15.9426232 77.6021548,10.3619406 L77.669,9.87 L96.793965,0.0108650641 Z" id="bp-trochanter-left" fill="#FFFFFF"></path>
                </g>
                <g class="hover" id="bp-lower-limb-right-front" stroke-width="1" fill="none" transform="translate(57.3134, 513.6975)">
                    <path d="M48.4815693,421.924385 C59.2715874,424.873146 70.6425295,426.309989 82.591969,426.23521 L80.6419049,434.889732 C80.4514458,435.749765 80.2946713,436.46666 80.1750366,437.025474 L80.5546459,438.385901 C81.5640187,442.045189 82.1611125,444.797487 81.4342157,448.900989 C81.108566,450.74805 80.3704265,453.094903 79.632287,455.028885 L79.5888671,463.818722 L80.128073,465.530472 C81.2741917,469.2338 82.4684345,473.730657 81.9444004,477.823789 L81.8683889,478.365137 C81.176257,482.938924 79.5703734,484.53196 73.4449415,489.7319 C68.7555849,493.730243 58.2262425,517.394353 54.9371799,522.185846 C51.837175,526.71522 48.3683078,529.947388 45.8967814,534.942425 L45.5801766,535.6042 C44.4946774,537.961919 41.3358747,543.17715 39.0237614,544.752584 C36.2014634,546.675701 28.483564,547.164628 26.1063207,544.144141 C23.5879625,540.906351 28.3315941,534.213472 30.2420727,529.856581 C26.9638651,532.670633 25.0099665,536.929738 21.1021693,539.124481 C20.23377,539.602544 17.5417319,538.939775 16.8035924,538.363926 C14.2418143,536.321294 15.8157881,533.854925 20.2988999,526.31457 C20.2569273,526.24105 18.9774614,528.076256 17.3920034,529.945643 L16.9447073,530.465025 C16.3802477,531.106064 15.7940782,531.725372 15.2079086,532.25776 C13.5579498,533.768004 12.2879157,534.441638 11.0070266,534.180877 C9.73699254,533.920115 8.66234832,533.09437 8.21729364,531.996999 C7.43573421,530.56281 8.42353849,527.955195 12.3530457,523.71782 C11.4846463,523.772145 9.2376629,526.618792 6.10057017,527.596648 C3.52793703,528.400663 2.14935303,526.477546 2.37730786,524.826057 C2.74350421,522.250397 5.5912776,518.807638 6.59286384,517.668379 L7.15746205,517.038332 C7.88134134,516.206253 2.49326675,521.767627 0.564524172,519.436985 C-1.87388613,516.480825 4.19544657,508.920517 7.18462351,505.967914 L7.46829918,505.692679 C19.1071978,494.603266 33.2534807,475.439578 40.0786903,466.765915 L40.6303002,466.06779 C41.0753549,465.502807 41.8894793,464.296784 42.7253137,463.047302 L44.0634459,461.037074 C44.2550195,460.751548 44.4336181,460.487221 44.5923724,460.254981 L46.2531862,451.617255 L46.2748961,451.291303 L46.4775792,448.749896 C46.6867074,446.17182 46.9126269,443.492903 47.1324405,440.795651 L47.7681515,432.657367 C48.0417555,429.066851 48.281326,425.629022 48.4470037,422.580914 L48.4815693,421.924385 Z" id="bp-foot-right-dorsal" fill="#FFFFFF"></path>
                    <path d="M114.160659,281.049281 L114.172872,281.633327 L113.988337,289.988561 C112.973395,299.858566 110.681484,309.573367 108.166104,319.208283 L107.203967,322.866245 L106.096758,326.951509 L105.564863,328.950681 L104.462757,333.188681 C102.317416,341.578726 97.1500688,363.421447 92.105383,385.047361 L86.8588198,407.649724 C85.4834268,413.605641 84.2225253,419.092785 83.1629664,423.733626 C78.5071335,423.77912 73.9422134,423.594922 69.4682805,423.177932 L71.5128982,412.546985 C72.0508496,409.767887 72.5993507,406.947661 73.1687435,404.03195 L79.8712007,369.945662 C83.0790052,353.547511 85.1920759,342.185044 86.9939545,331.353459 L87.2045517,330.081332 C87.3440558,329.234519 87.4818345,328.389884 87.618266,327.545255 C89.9751559,312.954064 91.7897347,299.008734 93.3145753,283.434385 L93.3963474,282.582527 C100.13059,282.85087 106.697469,282.406547 113.095826,281.248838 L114.160659,281.049281 Z" id="bp-lower-leg-medial-right-front" fill="#FFFFFF"></path>
                    <path d="M72.9184764,279.694077 C79.0368632,281.147213 85.0305646,282.06629 90.8988282,282.450837 C89.4306643,297.584669 87.694498,311.146448 85.4583113,325.223599 L84.9451062,328.410394 L84.2170257,332.798501 C82.6275543,342.220458 80.7707587,352.237732 78.1384055,365.771344 L71.2019474,401.062426 C69.9476417,407.471627 68.8037962,413.366601 67.6669591,419.290712 L66.9711205,422.91994 C65.1173552,422.709536 63.2794439,422.458554 61.4573702,422.167002 L61.921924,412.031078 C65.5549803,333.650031 68.1689909,299.092254 72.7312895,280.442468 L72.9184764,279.694077 Z" id="bp-lower-leg-anterior-right" fill="#FFFFFF"></path>
                    <path d="M49.717731,271.883354 C56.7926865,274.933144 63.7175672,277.336006 70.4913682,279.091313 C65.6846312,298.07837 63.0416866,333.229423 59.2636075,415.399593 L58.9733129,421.742608 C55.4543616,421.102971 51.9954032,420.309597 48.5963186,419.362537 L48.636264,417.832457 C48.7877589,410.215399 48.5647415,392.949693 48.2502115,375.318972 L47.7331576,349.204308 C47.4336463,335.251458 47.1766117,324.819136 47.1650055,324.582925 C46.2640411,309.806438 47.1432955,295.584069 48.9126592,281.622462 L49.4879738,273.354148 L49.717731,271.883354 Z" id="bp-lower-leg-lateral-right-front" fill="#FFFFFF"></path>
                    <path d="M61.1054469,208.13115 C76.9996806,216.34389 98.5570803,219.946159 125.76493,218.973086 L124.43084,224.037622 L122.489313,231.061649 C120.326988,238.837736 117.855299,247.60705 114.911012,258.186518 C113.445588,263.456074 113.619267,268.823416 113.890642,274.288543 L113.977482,276.374636 C114.012982,277.085292 114.048482,277.79958 114.079532,278.516014 C107.072681,279.909098 99.8518158,280.415695 92.4150009,280.034912 L92.3862408,280.030432 L92.2584005,280.024693 L92.239987,280.025789 C78.8972017,279.317956 64.8598849,275.756235 50.1222068,269.334457 C51.3227061,261.89375 52.7009417,254.50116 54.1131748,247.102794 L55.2302647,241.258748 L56.4482287,234.915588 C57.6597476,228.567675 58.8422633,222.201426 59.9087663,215.780173 L61.1054469,208.13115 Z" id="bp-knee-right" fill="#FFFFFF"></path>
                    <path d="M117.140901,26.0110556 L139.671249,37.625717 C146.428418,46.9090526 159.25356,51.4595014 162.660326,52.5374541 L163.272715,52.7252775 L163.508811,52.7933465 L162.385985,57.2690006 C160.141303,66.2900712 157.320853,78.0169932 154.434599,90.2465583 L151.306598,103.585983 C145.901749,126.781508 140.917315,148.936539 139.768944,155.294361 L139.042191,159.275373 C134.807451,182.309724 131.691738,196.312538 127.648101,211.820764 L126.429453,216.447389 C114.341782,216.915151 103.400312,216.478 93.6029717,215.138627 L95.7278964,197.6409 C99.3664857,167.869281 104.754794,124.565597 111.892954,67.7309105 L117.140901,26.0110556 Z" id="bp-thigh-medial-right-front" fill="#FFFFFF"></path>
                    <path d="M89.103444,11.5529221 L114.774987,24.7897839 L106.724833,88.8386812 C100.162582,141.190338 95.2866306,180.502904 92.0969141,206.776917 L91.1284719,214.777382 C79.6041982,212.985889 69.7275926,209.895396 61.4965458,205.511726 C62.7130983,196.923145 63.6421117,188.276302 64.0770833,179.382208 L64.232745,175.917925 C65.0458298,156.690134 65.8553538,120.047236 66.3582197,84.3462434 C75.5765263,85.0756393 82.6006702,78.1272825 87.257323,63.8950094 C89.8900292,55.8618682 90.9847099,27.9058939 89.103444,11.5529221 Z" id="bp-thigh-lateral-right-front" fill="#FFFFFF"></path>
                    <path d="M66.6822814,0 L66.7148464,0.0108650641 L86.4106819,10.1647143 C87.1209928,15.4032851 87.4755976,22.1657326 87.5362639,29.1447947 L87.5441559,30.4123069 L87.5441559,32.2332648 C87.4990059,45.1922397 86.4816154,58.2344822 84.8814618,63.1170097 C80.5324614,76.4089949 74.4246224,82.5160773 66.3935656,81.8300082 L66.5350518,70.7917219 C66.8874731,41.2525227 66.9965271,14.0283646 66.6822814,0 Z" id="bp-trochanter-right" fill="#FFFFFF"></path>
                </g>
                <g class="hover" id="bp-pelvic-region-front" stroke-width="1" fill="none" transform="translate(125.689, 458.2857)">
                    <path d="M194.3912,0 L194.402055,0 L194.70864,0.988370435 C196.751238,7.41116888 200.61111,17.19831 200.61111,45.4594282 L183.359982,54.2204885 C184.229639,39.8064244 182.972638,26.4334315 179.589499,14.1172098 L180.688673,13.1905323 C189.448001,5.74200684 194.3912,0 194.3912,0 Z" id="bp-hip-left" fill="#FFFFFF"></path>
                    <path d="M177.469503,15.8607828 C180.66828,28.0227988 181.770775,41.2503142 180.768858,55.536152 L125.507344,83.6013592 C129.380671,73.963736 130.438219,60.1914712 128.73929,42.3031573 C148.632421,36.4817706 165.283978,25.6255714 176.839806,16.368871 L177.469503,15.8607828 Z" id="bp-groin-left" fill="#FFFFFF"></path>
                    <path d="M100.310983,71.8729167 C109.267667,71.8729167 117.545879,73.2040934 125.151089,75.8636877 L125.259415,75.9023098 C124.337459,79.9639282 123.055412,83.4577031 121.416426,86.3843989 C112.684394,95.9652354 103.027177,99.1073849 100.571502,99.5239872 C97.9428013,99.0926528 87.6049148,95.5897661 78.7796251,85.5951097 C77.3428392,82.8359573 76.2030559,79.6051052 75.3625503,75.9023098 C82.9974555,73.2167701 91.3117526,71.8729167 100.310983,71.8729167 Z" id="bp-genital-organ" fill="#FFFFFF"></path>
                    <path d="M125.816379,73.1347051 L125.763315,73.429719 C117.944556,70.7242893 109.458671,69.3729167 100.310983,69.3729167 C91.1632942,69.3729167 82.6774093,70.7242893 74.8586503,73.429719 C73.388991,65.3523919 73.2009852,55.2548003 74.3159568,43.1336321 C82.448873,45.2408057 91.1420899,46.5024744 100.300128,46.5024744 C109.403752,46.5024744 118.109634,45.1836497 126.293555,42.9901942 C127.379363,54.7098675 127.250898,64.5431839 125.926392,72.4941565 L125.816379,73.1347051 Z" id="bp-mons-pubis" fill="#FFFFFF"></path>
                    <path d="M71.8661248,42.4683121 L71.7066987,44.2567914 C70.2647799,61.2020703 71.384147,74.3251501 75.117853,83.6093973 L20.0415807,55.6369575 C20.0611996,55.5294257 20.0669297,55.4175198 20.0569869,55.3033642 C18.8165193,41.0612689 19.6312557,27.8520868 22.4933515,15.6827419 L23.5354162,16.5371514 C34.9841375,25.8437276 51.6069151,36.7219128 71.8661248,42.4683121 Z" id="bp-groin-right" fill="#FFFFFF"></path>
                    <path d="M6.20905551,0 L7.02883991,0.939025889 C8.79320285,2.93348974 13.3873453,7.91302388 20.3539549,13.8823529 C17.2760182,26.3189439 16.3128648,39.8066844 17.4672622,54.3299646 L1.42108547e-14,45.4594282 C1.42108547e-14,15.7108827 4.27686691,6.43211795 6.20905551,0 Z" id="bp-hip-right" fill="#FFFFFF"></path>
                </g>
                <g class="hover" id="bp-abdomen" stroke-width="1" fill="none" transform="translate(135.4802, 361.488)">
                    <path d="M178.076184,74.1874769 L178.24323,74.8794709 C178.429574,75.6914835 178.670193,76.8425767 178.932522,78.1439699 L180.410007,85.5957943 L180.475137,85.900016 L180.757632,87.2930141 C180.879791,87.8763259 180.98533,88.356426 181.061326,88.6923375 L180.472167,89.325353 C175.276736,94.8343375 136.422172,134.459219 91.8768795,135.24806 L91.835,101.502 L94.6230044,101.502766 C100.561167,101.502766 103.57142,100.974602 106.494166,99.5241836 L106.988111,99.2700381 C109.748088,97.7943257 111.92357,95.6168255 113.407655,92.8463201 C115.006054,89.8513441 115.608128,86.9092785 115.638709,80.9567768 L115.639438,77.3846659 C137.035892,76.9710439 157.078955,72.7980699 175.769982,64.8613842 L176.074677,66.1557428 C176.649108,68.5708599 177.311444,71.2223533 178.076184,74.1874769 Z" id="bp-lower-left-quadrant-adbomen" fill="#FFFFFF"></path>
                    <path d="M5.26736342,64.947817 C23.5748324,72.6907502 43.1780584,76.826668 64.0783107,77.3596609 L65.399,77.388 L65.3996896,80.467484 C65.3996896,86.4357179 65.9256989,89.4476246 67.380792,92.3611529 L67.6319793,92.8463201 C69.1042824,95.605032 71.279764,97.7825322 74.0478713,99.268086 C77.0404709,100.868182 79.9802995,101.470914 85.9277531,101.501529 L89.335,101.502 L89.3763919,135.248346 L90.5306723,135.260002 C42.0631323,135.260002 -0.0325272353,88.6488773 0,88.6923375 L0.110440715,88.1957065 L0.50740407,86.2837824 C0.759760132,85.038846 1.06054786,83.5211612 1.36776675,81.9777279 L1.4437517,81.6191808 L1.47631667,81.4344747 L2.38677914,76.8955942 C2.62965959,75.7140184 2.83861819,74.7470277 2.98516058,74.1874769 L3.57624246,71.8735158 C4.08266951,69.8738538 4.53915842,68.0231468 4.95109074,66.2929333 L5.26736342,64.947817 Z" id="bp-lower-right-quadrant-adbomen" fill="#FFFFFF"></path>
                    <path d="M94.6230044,53.7182138 L95.5514642,53.7227868 C100.80622,53.7765017 103.292289,54.3097666 105.811277,55.6566286 C108.143317,56.908161 109.962473,58.7290045 111.20301,61.0534449 C112.59264,63.6476224 113.112481,66.1944884 113.138879,71.792828 L113.139945,80.467484 C113.139945,86.3726405 112.625734,89.0017247 111.20301,91.6675346 C109.952545,94.0019118 108.13339,95.8227551 105.811277,97.0643509 L105.377069,97.2876002 C102.841248,98.5439461 100.20003,99.0027657 94.6230044,99.0027657 L86.4166303,99.0027657 C80.5174291,99.0027657 77.8912882,98.4881765 75.2283577,97.0643509 C72.8963173,95.8128185 71.0771618,93.9919751 69.8366246,91.6675346 C68.4094374,89.0032442 67.8996896,86.3888572 67.8996896,80.467484 L67.8996896,72.2534955 C67.8996896,66.348339 68.4139009,63.7192549 69.8366246,61.0534449 C71.0870895,58.7190678 72.9062449,56.8982244 75.2283577,55.6566286 L75.6625654,55.4333793 C78.1983862,54.1770334 80.8396047,53.7182138 86.4166303,53.7182138 L94.6230044,53.7182138 Z M90.5198173,73.5790334 C88.9566985,73.5790334 87.6975194,74.8502459 87.6975194,76.40395 C87.6975194,77.9576542 88.9675534,79.2288667 90.5198173,79.2288667 C92.0720812,79.2288667 93.3421153,77.9576542 93.3421153,76.40395 C93.3421153,74.8502459 92.0720812,73.5790334 90.5198173,73.5790334 Z" id="bp-umbilical-region" fill="#FFFFFF"></path>
                    <path d="M91.781,0 L171.715159,21.2528846 L172.049623,34.3280049 C172.357779,45.3885342 172.79273,51.4889695 175.205946,62.3824206 C156.709501,70.3026555 136.860181,74.4682408 115.639414,74.884096 L115.639945,72.2534955 C115.639945,65.953693 115.053867,62.947823 113.407655,59.8746594 C111.935352,57.1159475 109.759871,54.9384473 106.991763,53.4528936 C103.999164,51.8527977 101.059335,51.2500654 95.1118816,51.2194507 L91.8762151,51.2176366 L91.781,0 Z" id="bp-upper-left-quadrant-adbomen" fill="#FFFFFF"></path>
                    <path d="M9.34618599,21.2528846 L89.281,0 L89.3762082,51.2172979 L86.4166303,51.2182138 C80.1437292,51.2182138 77.1381389,51.8076012 74.0515232,53.4509415 C71.2915463,54.9266538 69.1160647,57.1041541 67.6319793,59.8746594 C66.0335804,62.8696354 65.4315063,65.811701 65.4009252,71.7642028 L65.3990215,74.8879967 C44.1792511,74.4964724 24.3297201,70.3587007 5.83123406,62.4711885 L6.06736944,61.392749 C9.05286563,47.5732839 8.78692125,41.3792601 9.34618599,21.2528846 Z" id="bp-upper-right-quadrant-adbomen" fill="#FFFFFF"></path>
                </g>
                <g class="hover" id="bp-upper-limb-left-front" stroke-width="1" fill="none" transform="translate(252.0628, 144.7199)">
                    <path d="M154.136579,345.184375 L154.339715,345.965864 C154.918658,348.150986 155.53246,350.117352 156.334947,352.593773 L157.965596,357.601045 L158.873665,360.035629 C159.53582,361.035215 160.588754,362.165182 161.489718,362.925736 L162.455813,363.523315 L163.314311,364.063661 C165.383268,365.373092 167.84803,366.98927 169.348733,368.206158 L169.457283,368.303943 C171.986496,370.411766 177.381427,373.779935 180.399115,377.13724 C181.929669,378.843055 183.427657,382.776208 185.967726,384.77538 L186.097986,384.873166 C187.329069,385.798614 189.156314,387.761092 190.974508,389.808351 L191.654725,390.578187 C193.461201,392.631762 195.182975,394.651084 196.214838,395.683905 C198.407547,397.867783 201.229845,398.24806 199.286801,400.975191 C197.343757,403.702322 192.426446,402.854847 189.853813,401.909586 C185.544381,400.334152 181.897104,395.998992 178.944546,393.500027 L178.640606,393.25013 L177.985553,392.689023 C175.691537,390.69496 175.050985,389.953741 174.602549,394.651724 C174.103219,399.866954 179.248485,415.762543 180.32313,420.695282 L180.38826,420.999504 C180.800749,422.933485 181.234949,425.573696 181.669149,428.246502 L182.499994,433.417066 C182.863129,435.62467 183.19854,437.51673 183.481932,438.611773 L183.503642,438.709559 C184.317767,441.784372 184.111522,446.065207 180.920154,446.771436 C178.835996,447.227769 177.793917,445.739255 176.979792,443.913924 L176.697562,443.24029 L176.643287,443.099044 L176.534737,442.838283 L176.295928,442.229839 C176.201851,441.990808 176.107774,441.756605 176.010482,441.527232 L175.774888,440.991222 C175.221283,439.7852 174.559129,437.264505 173.918684,434.602564 L172.88746,430.202213 C172.569047,428.857662 172.268876,427.659185 172.020392,426.799266 L171.776551,425.97528 C171.454766,424.853448 171.041576,423.190453 170.57878,421.450022 L170.422734,420.867646 C169.449833,417.26649 168.286954,413.555853 167.297139,413.763371 C166.289649,413.974596 167.040997,417.809314 167.971645,421.459714 L168.123883,422.049454 C168.634919,424.005859 169.173397,425.848269 169.489848,426.975289 L169.777158,428.03658 C170.070096,429.146237 170.398706,430.492607 170.727317,431.897163 L170.890141,432.592527 L171.042111,433.266161 L171.139806,433.711629 L171.499029,435.318011 C171.931409,437.288763 172.290435,439.073824 172.45326,440.154612 L172.45326,440.230667 C172.854895,442.860013 173.962104,447.216904 174.613404,449.900575 C175.275558,452.584245 174.298609,456.636914 171.367761,456.973731 C168.458623,457.310548 166.776099,455.072345 166.29848,453.638157 L166.29848,453.594696 L166.210156,453.323409 C165.988434,452.611578 165.660749,451.367358 165.299821,449.99836 L164.572536,447.249499 C164.312016,446.271643 164.062351,445.348113 163.856107,444.652749 L163.354174,443.007055 C163.123986,442.266046 162.847134,441.387039 162.545112,440.437973 L161.478863,437.123259 L160.458092,434.048446 C160.342707,433.701971 160.230539,433.367569 160.121989,433.04886 L159.861469,432.288306 C159.414384,431.001742 158.751507,428.651385 158.010497,426.203891 L157.694256,425.1703 L157.521837,424.617443 C156.366503,420.941564 155.10158,417.517176 154.195164,417.631334 C153.375167,417.733929 154.010748,420.844987 154.979591,424.306862 L155.143958,424.886634 L155.313342,425.470168 C155.713527,426.834011 156.145252,428.20625 156.542512,429.430582 L157.223198,431.499909 C157.227777,431.51417 157.231848,431.527751 157.234561,431.538616 L157.842441,433.331352 L158.144016,434.265323 C158.617415,435.75109 159.271709,437.884438 159.911568,440.108908 L160.436784,441.947348 L160.643029,442.707902 C161.316038,445.196002 161.880498,447.531991 162.054178,448.922719 L162.054178,449.009639 C162.466668,452.432134 161.489718,453.714212 159.38385,454.333521 C157.277981,454.952829 155.834267,454.214005 154.629363,452.127913 C154.090465,451.191064 153.082205,448.375022 152.027725,445.223183 L151.792808,444.517874 C151.714363,444.281347 151.635837,444.043604 151.5574,443.805274 L151.470561,443.555377 L151.014651,442.197244 L149.265063,436.842835 C149.113622,436.383373 148.973765,435.962363 148.848233,435.589821 L148.637408,434.971976 C148.193559,433.697142 147.72398,432.164766 147.251542,430.565619 L145.728205,425.357742 C145.450621,424.421478 145.183197,423.546232 144.930623,422.783634 L144.68619,422.053415 C143.644111,418.946007 143.405301,417.272787 142.623742,417.435763 C141.853037,417.598739 142.189542,419.391475 143.144782,422.683589 L143.615786,424.279395 C143.880886,425.161503 144.208571,426.239181 144.566786,427.420757 L147.617038,437.438346 L148.387743,440.002501 L148.572278,440.66527 C148.604843,440.784786 148.637408,440.904301 148.669973,441.034682 L148.713393,441.186793 L148.789377,441.491015 L148.832797,441.643126 L148.924978,442.031966 C149.395041,444.111901 149.482181,446.256943 147.367373,446.890952 C145.181431,447.540506 144.406034,446.05883 143.34512,443.942597 L143.148702,443.551168 C142.98177,443.219706 142.805923,442.875759 142.615263,442.524532 L141.964565,441.358665 C140.291517,438.313394 138.282023,433.67987 135.676547,426.660202 L135.513722,426.20387 C135.049556,424.93128 134.585701,423.576753 134.13531,422.204338 L133.689894,420.828333 L133.26781,419.491279 C131.449299,413.664057 130.031951,408.276514 130.031951,408.276514 L129.966821,407.787586 L129.859409,406.844329 C129.759825,405.924923 129.635425,404.645026 129.543476,403.256854 L129.478346,402.039967 L129.478346,401.735745 L129.456636,401.507579 C129.456636,401.279413 129.445781,401.051246 129.434926,400.833945 L129.413216,399.747439 C129.391506,398.813043 129.355323,397.559939 129.311099,396.19416 L129.217827,393.489162 L129.174407,392.43525 L129.112017,391.108056 C129.056168,389.955951 128.998753,388.894227 128.935597,388.05663 L128.935597,387.937114 C128.812193,386.444597 128.922607,383.947679 129.128394,381.407136 L129.206972,380.46195 L129.228682,380.157728 L129.30887,379.250793 C129.486403,377.30181 129.684591,375.48068 129.825706,374.247133 L129.890836,373.714745 C130.118791,371.802494 130.281616,369.39045 130.173066,367.467333 L129.662881,364.881448 L129.586896,364.620686 L128.461752,361.011057 C127.316166,357.310662 126.345321,354.089995 125.550384,351.350227 L127.197697,351.142132 C133.428978,350.334605 138.701043,349.414001 143.017003,348.379342 L143.574532,348.243739 C146.369752,347.553934 149.890693,346.53401 154.136579,345.184375 Z M151.101491,369.629481 C150.081122,374.953362 151.524835,379.853506 155.378358,384.232127 C158.49374,387.774138 163.432762,389.903691 170.000032,391.153173 C170.586202,391.261824 171.150661,390.881546 171.259211,390.294833 C171.367761,389.708119 170.987836,389.143136 170.401667,389.034485 L170.010887,388.95843 C164.062351,387.785003 159.66608,385.851022 156.995752,382.808804 C153.576429,378.919111 152.328105,374.681736 153.218214,370.031488 C153.326764,369.444775 152.946839,368.879791 152.36067,368.771141 C151.7745,368.66249 151.210041,369.042767 151.101491,369.629481 Z" id="bp-hand-left-palmar" fill="#FFFFFF"></path>
                    <path d="M134.710453,235.174313 L134.976064,235.924747 C139.254362,248.292629 144.860186,277.716268 145.887197,285.417979 L146.033203,286.60189 C146.995686,294.768866 149.90934,323.754434 151.936665,334.800832 L152.219973,336.299599 C152.716945,338.893756 153.142487,340.958054 153.550402,342.747594 L151.583324,343.366597 C148.185253,344.422284 145.315116,345.239197 142.975551,345.816556 C138.210995,346.992355 132.169894,348.026581 124.856864,348.917101 L124.457997,347.483046 C124.290862,346.872562 124.137164,346.297888 123.996575,345.758935 C122.640244,340.612516 116.983545,330.350143 113.802091,324.688989 L112.110359,321.681953 C110.980541,319.66255 105.678469,307.238066 100.532955,294.307466 L98.731998,289.742809 C94.941032,280.047223 91.5251943,270.72229 90.3169197,265.958352 L89.8237609,263.934233 C88.4684106,258.309579 87.7011186,254.683688 87.1248965,251.236278 L86.9169942,249.94831 L86.8247942,249.346983 C86.6299141,248.05537 86.4516795,246.741912 86.2691343,245.310521 L88.4599665,244.254384 C97.3248263,240.012248 104.439574,237.000549 109.801454,235.219766 L110.857927,234.876858 C116.42792,233.109277 123.726406,231.405613 132.730263,229.773624 L133.700617,232.405336 C134.030749,233.305383 134.367463,234.228307 134.710453,235.174313 Z" id="bp-forearm-left-front" fill="#FFFFFF"></path>
                    <path d="M125.212335,209.521896 C126.549211,213.519521 128.850814,219.377577 131.844863,227.393374 L130.140146,227.70947 C121.439247,229.347455 114.394018,231.060215 109.013478,232.847195 L108.087632,233.160733 C102.436749,235.110061 95.0609985,238.28525 85.9453575,242.68956 L84.9332765,234.366615 C84.6643111,232.200934 84.3540777,229.758775 83.9850743,226.960324 L83.8679089,226.12126 C83.1693007,221.383728 81.5904512,214.640664 79.8259312,206.813835 L81.4694094,206.653022 C90.6660723,205.738697 97.8844373,204.772447 103.133073,203.751811 L104.182155,203.542164 C109.170912,202.519369 115.462359,200.874412 123.060961,198.606879 C123.519713,202.415181 124.249185,206.641818 125.212335,209.521896 Z" id="bp-elbow-left-front" fill="#FFFFFF"></path>
                    <path d="M118.19821,113.670653 L118.458049,116.434057 C119.142987,123.800817 119.758786,131.096994 120.175618,137.073649 L120.294839,138.816636 C120.669561,144.444408 121.017004,151.065957 121.320043,157.679017 L121.601024,164.093837 C122.131182,176.749916 122.471977,188.138682 122.497095,190.866929 L122.498586,191.149073 C122.498586,192.298078 122.59771,194.052296 122.78894,196.077436 L121.207762,196.548016 C113.919676,198.700979 107.902116,200.250933 103.159164,201.198553 L102.655868,201.297779 C97.1292728,202.372466 89.3334465,203.392073 79.2743595,204.354544 L78.7486788,201.985184 C76.4622989,191.604079 74.1021419,179.790125 73.0649522,168.397629 L72.8986415,166.421674 C72.8060558,165.265536 72.6998793,163.867857 72.5826094,162.276793 L70.2122073,128.648172 C70.0798061,126.80299 69.9485955,124.99396 69.8198615,123.245882 C82.6027652,121.222554 88.6107434,112.904197 87.6472233,98.6912923 L89.4901402,98.5435892 C97.0960538,97.911554 102.483487,97.1726687 105.723641,96.3098094 C106.547135,96.0910426 107.387218,95.8500093 108.242251,95.5877698 C110.751025,94.8183264 113.359562,93.8762716 116.034956,92.7909741 L116.319412,95.3184892 C116.928051,100.805489 117.583519,107.205111 118.19821,113.670653 Z" id="bp-upper-arm-left-front" fill="#FFFFFF"></path>
                    <path d="M49.0040379,62.6366404 C52.0988462,63.4856246 54.9990812,64.3752653 57.8348317,65.3498455 C68.722075,69.0915329 76.256044,73.4698272 79.7967659,78.6114653 C81.4071346,80.9486665 82.3944326,82.8777115 83.0354186,84.8669846 C83.5020273,86.3150848 83.7887371,87.7351694 84.100627,90.0205649 L84.2850066,91.4405044 L84.6219868,94.130312 C84.6666949,94.4768532 84.7098404,94.8042125 84.7538621,95.1302459 L84.7982662,95.4564986 C86.8720875,110.462009 81.8981149,118.727397 69.6339876,120.746009 L69.2004218,115.099467 C68.9368306,111.771715 68.6967437,108.965849 68.4950005,106.966556 C67.3643445,95.8617001 62.4970724,73.6963467 49.3791078,62.9394687 L49.0040379,62.6366404 Z" id="bp-armpit-left" fill="#FFFFFF"></path>
                    <path d="M7.93499927,0 C13.2539454,6.97537116 30.8797389,14.4505353 49.0957726,21.7572909 L60.9095793,26.4799587 C74.9446231,32.1204971 87.7834075,37.5688756 93.7979872,42.5041308 C107.222379,53.5115966 113.049708,73.7290782 114.360056,80.2923074 L114.400762,80.49926 C114.727483,82.1864732 115.19745,85.663603 115.735788,90.2103728 C112.898928,91.3827773 110.142091,92.3901474 107.509201,93.1976573 C106.683793,93.4508108 105.874047,93.6831399 105.081034,93.8938094 C101.764809,94.7769262 95.8768544,95.5483013 87.4146742,96.2021375 L87.3477181,95.6615426 L87.1448949,94.144942 L86.6917937,90.5466823 L86.5744125,89.658619 C86.2450061,87.2491973 85.9337275,85.7102878 85.4149399,84.1002524 C84.6948993,81.8656365 83.5973537,79.721183 81.855595,77.1932895 C77.933478,71.4978106 69.9994015,66.8869977 58.6473753,62.9855754 C53.4915241,61.2136316 48.146492,59.7229283 41.8534392,58.2543345 C31.7362265,53.1906828 17.7851712,49.6415811 -1.42108547e-14,47.5998459 L0.568009523,46.4765141 C4.65215415,38.3359102 6.94861085,32.3330136 7.45737961,28.477333 L7.53237341,27.8524313 C7.83756659,25.0527031 7.99812882,20.2102392 8.02804479,13.318041 L8.03269419,10.9302545 C8.03269419,7.69246539 8.00012922,4.06353398 7.94585426,0.0325951923 L7.93499927,0 Z" id="bp-shoulder-left-front" fill="#FFFFFF"></path>
                </g>
                <g class="hover" id="bp-thorax" stroke-width="1" fill="none" transform="translate(140.0624, 200.7846)">
                    <path d="M96.6880071,77.6118056 C97.3656307,78.1889787 98.046551,78.7493648 98.7307144,79.2930811 C110.490568,88.6388357 123.001105,92.9388438 135.865038,93.0125663 C145.845607,93.0697643 155.444999,90.602914 164.316558,86.4594861 C167.110443,85.1546132 169.649673,83.764383 171.902763,82.3651785 L171.90915,84.2576662 L171.941715,84.2685313 L171.941715,86.3111633 L171.921707,88.0347033 C171.908999,88.7834181 171.891058,89.4393964 171.86573,89.9400947 L171.743603,92.3759456 C171.277598,102.069081 170.833809,115.743871 170.325822,129.640583 L169.961005,139.29678 C169.450042,152.294396 168.864325,164.715277 168.131613,173.416382 L131.424405,162.963311 C107.762977,156.250147 93.3334702,152.22266 88.1358856,150.8831 L87.1571262,150.635644 C87.1778947,150.551249 87.1876121,150.46255 87.1876121,150.371581 L87.1866392,125.874 L95.8482592,108.545844 C97.6491848,104.96264 98.468835,100.955328 98.2360702,96.9285597 L98.2014881,96.4251417 L96.6880071,77.6118056 Z" id="bp-side-of-chest-left" fill="#FFFFFF"></path>
                    <path d="M75.1855889,77.6316764 L73.6914395,96.198088 L73.6688009,96.2972631 C73.6611037,96.3391582 73.6554744,96.3818191 73.6520261,96.4251417 C73.3192714,100.605662 74.1335522,104.798965 76.0051172,108.545569 L84.6866392,125.914 L84.6876121,150.371581 C84.6876121,150.467943 84.6985159,150.561759 84.719157,150.651861 L83.3218998,151.008272 C75.2174686,153.122632 48.7130825,160.594112 3.80874142,173.416382 L3.67840322,171.806359 C2.06861193,151.193641 1.1803288,112.622922 0.186903125,92.1473014 L0.0746241152,89.9292297 C0.0281027202,89.0631288 0.0055066141,87.7420257 0,86.2806588 L0,82.36758 C2.25098284,83.7664205 4.78853897,85.1555694 7.58037563,86.4594861 C16.4519349,90.602914 26.0513272,93.0697643 36.0318958,93.0125663 C48.8958294,92.9388438 61.4063664,88.6388357 73.1662197,79.2930811 C73.8425291,78.7556065 74.5156694,78.2018427 75.1855889,77.6316764 Z" id="bp-side-of-chest-right" fill="#FFFFFF"></path>
                    <path d="M85.8636392,11.466 L85.9484671,11.516062 L86.0207865,11.4730481 L99.3181347,19.1082542 C100.64159,19.8652181 101.135417,21.5285907 100.47088,22.8825513 L100.38844,23.037088 L100.300486,23.1767098 L95.2574715,30.9004564 C92.4658458,35.1665215 91.1717464,40.2460128 91.5846316,45.3315091 L95.7094514,96.6245211 L95.7425047,97.1123561 C95.9425416,100.689119 95.2117496,104.245245 93.6132862,107.425626 L85.9264395,122.803088 L78.2414619,107.428088 L78.0292426,106.990317 C76.5811983,103.91054 75.9214325,100.51279 76.1112423,97.1096685 L76.1294395,96.834088 L76.1489072,96.7523113 C76.1566317,96.7104463 76.1622912,96.6678148 76.1657727,96.6245211 L80.2906698,45.3305535 C80.703498,40.2572438 79.409524,35.1782447 76.617894,30.9006729 L71.5810362,23.1862608 C70.7427757,21.9021674 71.0538478,20.2081032 72.2631956,19.3052187 L72.4513135,19.1758989 L72.6284926,19.0640013 L85.8636392,11.466 Z" id="bp-sternum" fill="#FFFFFF"></path>
                    <path d="M156.212831,14.8299066 C164.734,23.2394662 171.724615,43.0030178 171.84402,76.760772 L171.84402,77.9233338 C171.848024,78.1597781 171.857935,78.6948104 171.868851,79.4193883 L171.550712,79.6287092 L171.209726,79.8476472 C168.886834,81.3281014 166.221857,82.810398 163.258639,84.1943578 C154.70016,88.1915626 145.454611,90.5674825 135.879365,90.5126073 C123.568914,90.4420568 111.602257,86.3289863 100.286139,77.3358753 C99.1496012,76.4326495 98.0215671,75.4812615 96.9022952,74.4810595 L96.3996392,74.025 L94.0765098,45.1301584 C93.7212018,40.7538355 94.7840518,36.3830273 97.0974449,32.6642083 L97.3500861,32.2682878 L102.47082,24.4211029 L102.511465,24.3561338 C104.027981,21.7057387 103.135128,18.4113833 100.561159,16.9391794 L88.4886467,10.0076701 L94.8743991,6.24490718 C101.939322,2.11292791 105.711453,0.0367955957 106.182172,0.0208241895 C120.239387,-0.468103695 149.026826,7.74588477 156.212831,14.8299066 Z M135.783736,56.3996418 C133.080843,56.3996418 130.888135,58.5943848 130.888135,61.2889207 C130.888135,63.9834566 133.080843,66.1781995 135.783736,66.1781995 C138.486629,66.1781995 140.679338,63.9834566 140.679338,61.2889207 C140.679338,58.5943848 138.486629,56.3996418 135.783736,56.3996418 Z M135.913996,59.7243515 C136.813253,59.7243515 137.542245,60.4540197 137.542245,61.3541111 C137.542245,62.2542025 136.813253,62.9838707 135.913996,62.9838707 C135.014739,62.9838707 134.285747,62.2542025 134.285747,61.3541111 C134.285747,60.4540197 135.014739,59.7243515 135.913996,59.7243515 Z" id="bp-breast-left" fill="#FFFFFF"></path>
                    <path d="M65.7147617,0.0208241895 L65.7761231,0.0304140404 C66.6272465,0.231304304 72.4970764,3.55805739 83.393669,10.0026097 L71.3122549,16.9402166 L71.0346069,17.1148503 C68.5565804,18.7354539 67.8620415,22.0627153 69.4876665,24.5529368 L74.5244365,32.2672145 L74.7771345,32.6642468 C77.0910434,36.3930856 78.1540048,40.7639269 77.79881,45.1289755 L75.4739325,74.0492813 C74.197585,75.2083717 72.9097439,76.3035787 71.6107951,77.3358753 C60.2946768,86.3289863 48.3280199,90.4420568 36.0175687,90.5126073 C26.4423234,90.5674825 17.1967739,88.1915626 8.63829516,84.1943578 C5.67507693,82.810398 3.01009986,81.3281014 0.687207946,79.8476472 C0.459959687,79.7028145 0.240706966,79.5609663 0.0295698523,79.4223799 L0.0529141309,77.782088 C0.0312041465,43.3941601 7.07609406,23.3263867 15.6841028,14.8299066 C22.8592526,7.74588477 51.6466918,-0.457238631 65.7147617,0.0208241895 Z M37.654607,56.3996418 C34.9517139,56.3996418 32.7590055,58.5943848 32.7590055,61.2889207 C32.7590055,63.9834566 34.9517139,66.1781995 37.654607,66.1781995 C40.3575,66.1781995 42.5502084,63.9834566 42.5502084,61.2889207 C42.5502084,58.5943848 40.3575,56.3996418 37.654607,56.3996418 Z M37.7848669,59.7243515 C38.6841239,59.7243515 39.4131157,60.4540197 39.4131157,61.3541111 C39.4131157,62.2542025 38.6841239,62.9838707 37.7848669,62.9838707 C36.8856099,62.9838707 36.156618,62.2542025 36.156618,61.3541111 C36.156618,60.4540197 36.8856099,59.7243515 37.7848669,59.7243515 Z" id="bp-breast-right" fill="#FFFFFF"></path>
                </g>
                <g class="hover" id="bp-upper-limb-right-front" stroke-width="1" fill="none" transform="translate(0, 144.7199)">
                    <path d="M45.7997862,345.184121 L47.1166033,345.5994 C50.5638416,346.677577 53.4968689,347.521882 55.9152219,348.132072 L56.3626316,348.243739 C61.1473625,349.424518 67.1536062,350.459504 74.38575,351.350726 L73.7570664,353.495468 C72.8196186,356.661607 71.6833698,360.370569 70.3502675,364.620686 L70.2742825,364.881448 L69.7757847,367.396891 L69.7640979,367.467333 C69.655548,369.39045 69.8183729,371.802494 70.0463277,373.714745 L70.1114577,374.247133 L70.1450004,374.542019 L70.2173155,375.189352 C70.3680697,376.555742 70.5521703,378.332397 70.7084822,380.157728 L70.7301922,380.46195 L70.8421605,381.829991 C71.0261035,384.222014 71.1181154,386.527515 71.001567,387.937114 L71.001567,388.05663 L70.9327181,389.086427 C70.8732807,390.073311 70.818019,391.234167 70.7627572,392.43525 L70.7193372,393.489162 L70.5886077,397.387376 C70.5614333,398.283118 70.5391444,399.093362 70.5239474,399.747439 L70.5022374,400.833945 L70.4873118,401.166688 L70.4805274,401.507579 C70.4805274,401.507579 70.4588174,401.735745 70.4588174,401.735745 L70.4588174,402.039967 L70.3936875,403.256854 L70.3452741,403.94075 C70.2188056,405.622092 70.0565442,407.068574 69.9703428,407.787586 L69.9052128,408.276514 C69.9052128,408.276514 68.4878646,413.664057 66.6693537,419.491279 L66.2472695,420.828333 L65.9141635,421.860899 C65.5258486,423.052523 65.1265971,424.234721 64.7249719,425.365798 L64.2606169,426.660202 L63.8432903,427.777737 C61.4388809,434.176151 59.5552116,438.478004 57.9725986,441.358665 L57.3219009,442.524532 C55.7966173,445.334345 55.2194182,447.67829 52.5697903,446.890952 C50.322807,446.217318 50.5616168,443.837869 51.1043664,441.643126 L51.1477864,441.491015 L51.2237713,441.186793 L51.2671913,441.034682 L51.3648862,440.66527 L51.5494211,440.002501 L52.3201255,437.438346 L56.4884865,423.721303 L56.7923823,422.683589 C57.7476216,419.391475 58.0841264,417.598739 57.3134219,417.435763 C56.5570741,417.278044 56.3090245,418.839968 55.3493574,421.757189 L55.1315685,422.411962 C54.8428257,423.256178 54.5328071,424.265434 54.2089593,425.357742 L52.8628751,429.963182 C52.3900799,431.57604 51.9172847,433.145975 51.4673609,434.482214 L51.1803513,435.319659 C50.6484567,436.884228 49.8126223,439.480978 48.922513,442.197244 L48.6511382,443.012124 L48.3797634,443.805274 L47.6760424,445.917437 C46.7081623,448.781903 45.8067801,451.26046 45.3078006,452.127913 C44.1028965,454.214005 42.6591825,454.952829 40.553314,454.333521 C38.4474455,453.714212 37.4704962,452.432134 37.882986,449.009639 L37.882986,448.922719 C38.0566658,447.531991 38.6211254,445.196002 39.2941349,442.707902 L39.5003798,441.947348 L40.2517098,439.328491 C40.9676204,436.874889 41.6728584,434.616886 42.0947229,433.331352 L42.7026025,431.538616 C42.7134575,431.495156 42.7460224,431.408235 42.7460224,431.408235 L42.8328624,431.136609 L43.1151992,430.285272 C43.5557176,428.947854 44.0649881,427.357063 44.537609,425.762492 L44.8607698,424.650072 C45.8829562,421.053245 46.5890125,417.737309 45.7420003,417.631334 C44.7902626,417.511468 43.4432721,421.292849 42.2429077,425.1703 L42.0442975,425.816779 C41.2954441,428.271819 40.6174792,430.6806 40.14806,432.076465 L39.6496862,433.538241 L38.4583005,437.123259 L37.1705909,441.135575 C36.8464855,442.159089 36.5610366,443.072438 36.344847,443.77889 L36.0810573,444.652749 C35.8748124,445.348113 35.6251476,446.271643 35.3646278,447.249499 L34.1973345,451.657659 C33.9694221,452.505643 33.7743714,453.200838 33.638684,453.594696 L33.638684,453.638157 C33.1610644,455.072345 31.4785406,457.310548 28.5694027,456.973731 C25.6385548,456.636914 24.6616055,452.584245 25.32376,449.900575 L25.9872004,447.184928 C26.5653232,444.803468 27.2003966,442.086676 27.4839035,440.230667 L27.4839035,440.154612 L27.5592063,439.685965 C27.7721677,438.42659 28.164951,436.532087 28.6147075,434.521036 L29.0470223,432.592527 L29.4285292,430.971372 C29.7190613,429.753701 30.00333,428.613351 30.2562815,427.675706 L30.6618342,426.218042 C31.7488614,422.39796 34.1376457,414.077353 32.6400247,413.763371 C31.7686816,413.580691 30.7632244,416.434361 29.8713149,419.576768 L29.705473,420.168682 C29.0205132,422.6435 28.4143051,425.189736 28.0049431,426.497226 L27.8477467,427.042039 C27.6135603,427.878297 27.3391702,428.979894 27.0497038,430.202213 L26.0184795,434.602564 L25.667776,436.033471 C25.1701142,438.020762 24.6736308,439.79632 24.238428,440.818726 L24.0754359,441.186793 C23.9741227,441.411338 23.8776339,441.640711 23.7827532,441.874914 L23.4024264,442.838283 L23.2938765,443.099044 L23.2396015,443.24029 L22.9573717,443.913924 C22.1432473,445.739255 21.1011681,447.227769 19.0170096,446.771436 C15.8256419,446.065207 15.619397,441.784372 16.4335215,438.709559 L16.4552314,438.611773 L16.5573728,438.192977 C16.90478,436.691903 17.3202287,434.166093 17.7641599,431.39954 L18.2680151,428.246502 C18.7022148,425.573696 19.1364145,422.933485 19.5489042,420.999504 L19.6140342,420.695282 C20.6886784,415.762543 25.8339447,399.866954 25.334615,394.651724 L25.2606662,393.942877 C24.7705522,389.668251 23.9903755,390.987703 21.2965579,393.25013 L20.9926182,393.500027 C18.0400603,395.998992 14.3927829,400.334152 10.083351,401.909586 C7.5107179,402.854847 2.59340645,403.702322 0.650362859,400.975191 C-1.29268074,398.24806 1.52961722,397.867783 3.72232564,395.683905 C5.91503405,393.489162 11.2231252,386.839742 13.8391783,384.873166 L13.9694382,384.77538 C16.5095064,382.776208 18.0074953,378.843055 19.5380492,377.13724 C22.555737,373.779935 27.9506681,370.411766 30.4798813,368.303943 L30.5884312,368.206158 C32.30352,366.815429 35.2777878,364.903178 37.4813512,363.523315 L38.4474455,362.925736 C39.3484099,362.165182 40.4013441,361.035215 41.0634987,360.035629 L41.975318,357.59099 L43.8463397,351.837729 C44.5068816,349.783917 45.0385504,348.054117 45.5403185,346.179064 L45.7997862,345.184121 Z M47.5764939,368.771141 C46.9903244,368.879791 46.6103996,369.444775 46.7189496,370.031488 C47.6090589,374.681736 46.3607348,378.919111 42.9414123,382.808804 C40.2710842,385.851022 35.8748124,387.785003 29.9262767,388.95843 L29.535497,389.034485 C28.9493274,389.143136 28.5694027,389.708119 28.6779526,390.294833 C28.7865025,390.881546 29.3509621,391.261824 29.9371317,391.153173 C36.5044019,389.903691 41.4434234,387.774138 44.5588061,384.232127 C48.3159903,379.962972 49.7823505,375.198044 48.9075814,370.027976 L48.835673,369.629481 C48.7271231,369.042767 48.1626635,368.66249 47.5764939,368.771141 Z" id="bp-hand-right-palmar" fill="#FFFFFF"></path>
                    <path d="M65.9972825,233.058496 L67.2068383,229.773613 L68.9282244,230.090375 C77.7119639,231.731583 84.7888335,233.443966 90.1357098,235.219766 C95.9323367,237.144937 103.777604,240.508724 113.667068,245.310112 C113.485484,246.741912 113.30725,248.05537 113.11237,249.346983 L112.94915,250.39853 L112.776001,251.45199 L112.592108,252.50936 C111.998393,255.831358 111.191125,259.510519 109.836056,265.079441 L109.688759,265.683413 C108.451724,270.741317 104.482705,281.453366 100.244102,292.188638 L99.3741355,294.383028 L97.6670267,298.640188 C93.2426668,309.594471 89.0646459,319.341657 87.916552,321.516345 L87.8268049,321.681953 C85.7100814,325.484725 77.6014022,339.457198 75.9405884,345.758935 L75.6021515,347.031849 C75.4419115,347.624371 75.2685792,348.252596 75.0821782,348.916502 L73.4776121,348.716367 C66.8792961,347.872586 61.3732388,346.905259 56.9616132,345.816556 C54.1833797,345.130942 50.6569564,344.10752 46.3870115,342.74749 L46.6520846,341.55676 C46.9803529,340.049016 47.3267162,338.337864 47.7171912,336.299598 L47.9347087,335.154633 C48.829454,330.407618 49.906355,322.014111 50.914267,313.404527 L51.2070625,310.881664 L52.0112846,303.759286 C52.8988092,295.768543 53.6340874,288.779767 53.9917943,285.870702 L54.0499671,285.417979 C55.0983739,277.555816 60.9183648,247.057216 65.2267112,235.174313 L65.9972825,233.058496 Z" id="bp-forearm-right-front" fill="#FFFFFF"></path>
                    <path d="M76.7472383,199.632374 L76.8772056,198.607178 L78.4853818,199.083518 C85.6321631,201.184172 91.5638863,202.705999 96.2845556,203.649372 L96.8040908,203.751811 C102.36147,204.832485 110.127127,205.852185 120.110602,206.813066 L118.434124,214.245022 C117.344562,219.125372 116.457471,223.329782 116.008189,226.546394 L115.551406,230.035735 C114.848447,235.498323 114.387026,239.450641 113.992994,242.691203 C104.370109,238.040724 96.6863956,234.761101 90.923686,232.847195 C85.1959602,230.944908 77.5817836,229.126729 68.0933423,227.393834 L72.5711253,215.509223 C73.4433386,213.176076 74.1678206,211.187504 74.7248293,209.521896 C75.6022044,206.898306 76.28567,203.157315 76.7472383,199.632374 L76.7472383,199.632374 Z" id="bp-elbow-right-front" fill="#FFFFFF"></path>
                    <path d="M83.9022075,92.7909741 C86.577602,93.8762716 89.186139,94.8183264 91.6949129,95.5877698 C92.5499459,95.8500093 93.3900292,96.0910426 94.2142504,96.3100029 L94.7436109,96.4451901 C98.300608,97.3172517 104.12391,98.0598465 112.289881,98.6916227 C111.326147,112.903588 117.333857,121.222178 130.116639,123.247346 L129.724874,128.648355 L127.409106,161.533708 C127.189663,164.534252 127.005684,166.918921 126.872212,168.397629 C125.755238,180.66647 123.103936,193.424104 120.663173,204.354905 L119.051752,204.198273 C109.767556,203.281685 102.509156,202.314375 97.2812956,201.297779 C92.1309126,200.296249 85.4179425,198.556411 77.1481661,196.078804 L77.2197494,195.283512 C77.353019,193.725129 77.4267094,192.369421 77.4372578,191.386845 L77.446631,190.365795 C77.503805,186.796731 77.8616124,175.18076 78.3988564,162.611681 L78.6184859,157.649224 C78.9371814,150.697541 79.3049155,143.738142 79.7017973,137.935261 L79.8839188,135.358952 C80.2236666,130.699136 80.6684873,125.36295 81.1636091,119.877292 L81.5435261,115.743255 L81.7389536,113.670653 C82.3436665,107.310066 82.9878431,101.013277 83.5878529,95.5848015 L83.9022075,92.7909741 Z" id="bp-upper-arm-right-front" fill="#FFFFFF"></path>
                    <path d="M150.934788,62.6355039 C137.841148,73.028948 132.815608,94.7286077 131.526975,106.175826 L131.442163,106.966556 C131.134239,110.018109 130.736989,114.948684 130.302952,120.745109 C118.164182,118.747978 113.167335,110.630112 115.077449,95.9149527 L115.315164,94.1304097 L115.725079,90.8645596 L115.836537,90.0205649 C116.148427,87.7351694 116.435137,86.3150848 116.901745,84.8669846 C117.542731,82.8777115 118.530029,80.9486665 120.140216,78.6117298 C123.68112,73.4698272 131.215089,69.0915329 142.102332,65.3498455 C144.777037,64.4306129 147.50911,63.586946 150.407711,62.7816864 L150.934788,62.6355039 Z" id="bp-armpit-right" fill="#FFFFFF"></path>
                    <path d="M192.002165,0 L191.99131,0.0325951923 L191.938937,4.50589094 C191.922336,6.22434153 191.911248,7.85804758 191.906742,9.40807731 L191.90447,11.6473487 C191.915325,20.002583 192.099859,25.6089561 192.479784,28.477333 C193.011679,32.5082718 195.497472,38.8860644 199.937164,47.5998459 C182.151993,49.6415811 168.200937,53.1906828 158.083998,58.2542068 C151.790672,59.7229283 146.44564,61.2136316 141.289789,62.9855754 C129.937762,66.8869977 122.003686,71.4978106 118.081387,77.193554 C116.33981,79.721183 115.242265,81.8656365 114.522224,84.1002524 C113.972919,85.8049958 113.656255,87.4299994 113.304387,90.0930392 L112.792237,94.1451738 L112.662094,95.1167258 C112.611592,95.4821418 112.565147,95.8441551 112.522755,96.2027599 L110.706465,96.0572185 C103.212292,95.4348016 97.9297411,94.7123177 94.856857,93.8940028 C94.0631173,93.6831399 93.2533709,93.4508108 92.4279627,93.1976573 C89.794798,92.3900631 87.0376604,91.3825669 84.2014197,90.2122108 L84.6297327,86.707546 C84.9881049,83.881399 85.2998104,81.7210351 85.5364015,80.49926 L85.6209478,80.0758827 C87.0136534,73.2953585 92.859133,53.3932367 106.139177,42.5041308 C112.153756,37.5688756 124.992541,32.1204971 139.027585,26.4799587 L152.068411,21.2644531 C169.843381,14.1148252 186.802745,6.81862124 192.002165,0 Z" id="bp-shoulder-right-front" fill="#FFFFFF"></path>
                </g>
                <g class="hover" id="bp-neck-front">
                        <path d="M201.901917,136.897091 C202.184147,140.808515 202.129872,159.159608 202.444667,166.797748 C202.954852,179.564198 205.918265,184.008009 212.094755,190.559643 C215.145008,193.797432 224.719111,200.533772 226,201.435572 C227.280889,200.533772 236.854992,193.797432 239.905245,190.559643 C246.081735,183.997144 249.045148,179.553333 249.555333,166.797748 C249.859273,159.159608 249.804998,140.808515 250.098083,136.897091 C250.098083,136.897091 245.690956,147.262363 226,147.316688 C206.309044,147.262363 201.901917,136.897091 201.901917,136.897091 L201.901917,136.897091 Z"
                          fill="#FFFFFF"></path>
                </g>
                <g class="hover" id="bp-head-front">
                    <path d="M208.859967,1.2793613 C216.273927,-0.426453766 235.726073,-0.426453766 243.140033,1.2793613 C249.435928,2.73527989 267.520345,9.59113534 272.730741,29.1591158 C276.117499,41.9147011 273.414606,52.0952661 270.776843,64.5900898 C270.983087,64.2424078 275.140549,60.0158979 276.627683,64.948637 C277.485228,67.7735536 275.021145,74.0318306 272.470221,80.2683774 L272.263977,80.7790354 L272.057732,81.2896934 L271.851487,81.7894863 C271.167622,83.4735713 270.494613,85.125061 269.897588,86.7004953 C267.61804,92.6762806 268.03053,93.42597 267.303245,94.4690161 C265.685851,96.8050049 264.057602,92.7306059 264.057602,92.7306059 C264.166152,93.762787 263.210913,98.7498514 261.908314,103.867297 L261.810619,104.247574 L261.712924,104.627851 C261.463259,105.573112 261.213595,106.529237 260.94222,107.441903 C259.313971,113.178657 252.714136,120.197488 250.521427,123.294031 C247.43861,127.650922 242.857803,136.169132 226.08684,136.875361 L226.08684,136.875361 C226.08684,136.875361 226.02171,136.875361 225.989145,136.875361 C225.95658,136.875361 225.924015,136.875361 225.89145,136.875361 L225.89145,136.875361 C209.109632,136.158267 204.539681,127.640057 201.456863,123.283166 C199.264154,120.186623 192.664319,113.167791 191.03607,107.431038 C189.288417,101.281411 187.790428,93.9800883 187.931543,92.7088758 C187.931543,92.7088758 186.303294,96.7832748 184.6859,94.447286 C183.958615,93.4042399 184.371105,92.6545504 182.091557,86.6787652 C181.494532,85.1141959 180.821523,83.4518411 180.137658,81.7677562 L179.931413,81.2679633 L179.725168,80.7573052 L179.518924,80.2466472 C176.968,74.0101004 174.514772,67.7518235 175.361462,64.9269068 C176.848596,59.9941677 181.006058,64.2206777 181.212302,64.5683597 C178.585394,52.0626709 175.871646,41.8821059 179.258404,29.1373857 C184.457945,9.58027028 202.553217,2.71354976 208.849112,1.25763117 L208.859967,1.2793613 Z M236.181983,115.210424 C238.059896,114.286893 236.420792,111.483707 234.542879,112.396372 C229.799247,114.710631 220.974139,115.123503 216.241362,112.526753 C214.406868,111.516302 212.767765,114.330353 214.602258,115.340804 C220.431389,118.535133 230.341997,118.067935 236.181983,115.210424 Z M221.440903,64.4597091 C221.071834,62.3953469 217.945596,63.2754171 218.303811,65.3289142 C219.942914,74.5859488 219.465295,83.4627062 216.501882,92.4372492 C216.371622,92.7957963 216.219652,93.1652084 216.067682,93.5346206 L216.002552,93.6867315 C216.002552,93.6867315 215.980842,93.7410568 215.969987,93.762787 L215.850582,94.0561437 C215.796307,94.1756594 215.752887,94.3060402 215.698612,94.4255559 L215.644337,94.5776668 C215.036458,96.1096408 214.656533,97.6742101 215.774597,99.2061841 C216.588722,100.314421 217.989016,100.933729 219.30247,100.336151 C220.192579,99.9341434 220.648489,99.358295 221.592873,100.107984 C223.210267,101.411792 225.52238,99.1192636 223.894132,97.8045908 C222.852052,96.9571158 221.723133,96.3378072 220.333694,96.4681879 C220.149159,96.4899181 218.987675,96.7724097 218.303811,97.0657665 C218.292956,97.0331713 218.282101,96.989711 218.271246,96.978846 C218.216971,96.652894 218.466635,96.2074264 218.58604,95.9140697 C218.9334,95.0448645 219.32418,94.1973895 219.638975,93.3173193 C222.797777,83.766928 223.177702,74.3034572 221.440903,64.4705741 L221.440903,64.4597091 Z M233.555075,92.4481142 C232.8495,90.4924027 229.712407,91.3290126 230.417982,93.3173193 C230.732777,94.1973895 231.123556,95.0448645 231.470916,95.9140697 C231.579466,96.1965613 231.796566,96.5768386 231.785711,96.8810604 C231.785711,96.9245206 231.764001,96.989711 231.731436,97.0549014 C231.047571,96.7615447 229.896942,96.479053 229.734117,96.4681879 C228.344678,96.3378072 227.226614,96.9571158 226.17368,97.8045908 C224.545431,99.1192636 226.857544,101.411792 228.474938,100.107984 C229.408468,99.358295 229.875232,99.9341434 230.765342,100.336151 C232.078796,100.933729 233.47909,100.314421 234.293214,99.2061841 C235.476408,97.5872895 234.977079,95.9140697 234.304069,94.2843101 L234.238939,94.1321992 C234.195519,94.0344136 234.152099,93.936628 234.119534,93.8388424 L234.054404,93.6867315 C234.000129,93.5672158 233.945854,93.4368351 233.902434,93.3173193 L233.837304,93.1760735 C233.837304,93.1760735 233.815594,93.1326133 233.804739,93.1000181 L233.750464,92.9587722 C233.685334,92.7849312 233.620204,92.6219552 233.555075,92.4481142 L233.555075,92.4481142 Z M259.010031,67.3824113 C252.127966,60.3635799 241.012454,61.048079 235.552393,69.2946626 C234.390909,71.0439379 237.202352,72.6845626 238.363836,70.9352873 C239.43848,69.3055277 240.795354,68.0777754 242.293343,67.2303004 C242.087098,67.7083632 241.935128,68.2190213 241.848289,68.7622745 C241.804869,68.9143854 241.783159,69.0664963 241.783159,69.2403373 C241.761449,69.4141783 241.783159,69.5771543 241.804869,69.7184001 C242.054533,72.6736975 244.312372,75.1835274 247.406045,75.2813129 C250.575702,75.3790985 253.300305,72.8258084 253.41971,69.6532097 C253.452275,68.6970841 253.24603,67.7844187 252.844396,66.9695389 C254.233835,67.6105777 255.558144,68.512378 256.708773,69.6858049 C258.174197,71.1851838 260.475455,68.8817902 259.010031,67.3824113 L259.010031,67.3824113 Z M216.295637,69.2946626 C210.824721,61.058944 199.720064,60.3635799 192.837999,67.3824113 C191.372575,68.8817902 193.662978,71.1851838 195.139257,69.6858049 C196.300741,68.5015129 197.625051,67.5997126 199.01449,66.9586738 C198.612855,67.7844187 198.395755,68.6970841 198.42832,69.6532097 C198.51516,72.749753 201.142068,75.2704479 204.214031,75.2813129 C207.405398,75.3030431 209.793497,72.7714831 210.043162,69.7292652 C210.075727,69.5771543 210.086582,69.4250434 210.064872,69.2403373 C210.064872,69.0664963 210.043162,68.9143854 209.999742,68.7622745 C209.912902,68.2298863 209.760932,67.7192283 209.554687,67.2303004 C211.052676,68.0777754 212.40955,69.3055277 213.484194,70.9244222 C214.634823,72.6628325 217.457121,71.0330729 216.295637,69.2837975 L216.295637,69.2946626 Z M245.028801,69.2403373 C245.354451,65.9156277 250.412877,66.3502302 250.174068,69.6532097 C249.924403,73.0213796 245.061366,72.5215866 245.028801,69.2403373 Z M201.684818,69.6532097 C201.435153,66.3502302 206.493579,65.9156277 206.830084,69.2403373 C206.797519,72.5215866 201.934482,73.0105145 201.684818,69.6532097 Z M263.058943,55.6046818 C258.239327,53.0731219 252.724991,51.05222 247.22151,51.5954732 C242.564718,52.0518059 237.842796,53.768486 233.783029,56.0936097 C231.970246,57.1366559 233.598495,59.9507075 235.422133,58.9076613 C238.982571,56.8758943 243.140033,55.30046 247.22151,54.8549924 C252.138821,54.3226043 257.121263,56.147935 261.419839,58.4187334 C263.276043,59.3965892 264.915147,56.5825376 263.058943,55.6046818 L263.058943,55.6046818 Z M204.745925,51.5954732 C199.242444,51.0413549 193.717253,53.0731219 188.908492,55.6046818 C187.052288,56.5825376 188.702247,59.3965892 190.547596,58.4187334 C194.846173,56.1588001 199.828614,54.3226043 204.745925,54.8549924 C208.827402,55.30046 212.984864,56.8650293 216.545302,58.9076613 C218.368941,59.9507075 220.008044,57.1366559 218.184406,56.0936097 C214.124639,53.768486 209.402717,52.0626709 204.745925,51.5954732 L204.745925,51.5954732 Z" 
                     fill="#FFFFFF"></path>
                </g>
            </g>
        </g>
        <g id="viewport-boundary" mask="url(#mask-2)" stroke="#FF0000" stroke-width="3">
            <g transform="translate(260, 190)" id="boundary">
                <rect x="0" y="0" width="560" height="1080"></rect>
            </g>
        </g>
    </g>
</svg>