<?xml version="1.0" encoding="UTF-8"?>
<svg width="1080px" height="1460px" viewBox="0 0 1080 1460" version="1.1" xmlns="http://www.w3.org/2000/svg" xmlns:xlink="http://www.w3.org/1999/xlink">
    <title>whole-body-back</title>
    <defs>
        <rect id="path-1" x="0" y="0" width="1080" height="1460"></rect>
    </defs>
    <g id="whole-body-back" stroke="none" stroke-width="1" fill="none" fill-rule="evenodd">
        <mask id="mask-2" fill="white">
            <use xlink:href="#path-1"></use>
        </mask>
        <g id="mask"></g>
        <g id="bp-whole-body-back" mask="url(#mask-2)">
            <g transform="translate(313, 200)">
                <g class="hover" id="bp-lower-limb-right-back" stroke-width="1" fill="none" transform="translate(232.745, 538.6263)">
                    <path d="M118.601353,434.71187 L119.705707,440.339069 L119.727562,440.382754 L119.814291,440.612818 C120.233567,441.79707 121.49438,446.137338 122.634154,453.204135 L122.666935,453.444399 L122.838886,454.541502 C123.99588,462.073451 124.200694,466.53285 125.202008,469.847903 L125.344059,469.847903 L125.665208,469.828934 C126.681878,469.785688 129.079846,469.823961 130.075467,470.896329 C131.386712,472.305152 131.495982,473.932397 131.506909,474.434768 L131.506909,474.587664 L131.731181,474.493891 C132.345155,474.248636 134.094666,473.692133 135.626403,474.511216 C138.4088,476.013534 137.447012,478.440996 137.236091,478.883038 L137.199896,478.956107 L137.329692,478.87445 C137.803693,478.59548 139.516097,477.752799 141.472368,478.781369 C144.346179,480.288482 143.231621,483.248102 143.231621,483.248102 L143.297184,483.248102 L143.636748,483.203816 C145.056675,483.060297 149.521953,483.062899 146.444171,488.948921 L145.193179,491.310552 C142.347129,496.630446 141.704097,496.852037 135.538986,500.339636 C133.845295,501.289773 132.260875,504.02005 130.6546,506.870459 L129.988051,508.060859 L129.482791,508.947403 C128.554475,510.559208 127.613521,512.078987 126.63345,513.215622 C122.634154,517.857093 115.717338,521.37369 104.353218,521.37369 C88.967948,521.37369 84.3348836,508.399414 85.1762656,497.172515 L85.6223496,491.44826 C86.7863417,476.010253 86.8277674,471.047474 86.6471729,467.836289 L86.5590468,466.544937 L86.4438021,465.064458 L86.3918768,464.327239 C86.3410005,463.562412 86.2948447,462.700868 86.2675708,461.617581 L86.2431234,460.34893 C86.1641905,458.997899 84.9303988,451.376134 83.0238897,440.225043 L84.4019494,440.092649 C88.8375375,439.648774 93.9545914,438.970817 99.7533542,438.055386 C99.8453178,438.075804 99.9416285,438.085353 100.040383,438.083399 C100.260347,438.078881 100.465892,438.01783 100.643418,437.914398 L102.698156,437.580117 C106.861892,436.892702 111.351207,436.092157 116.166525,435.178263 L118.601353,434.71187 Z" id="bp-foot-right-plantar" fill="#FFFFFF"></path>
                    <path d="M70.1837873,260.821202 L71.0358724,260.773427 L71.4581275,265.293111 C71.7945121,268.970442 72.1333266,272.854451 72.4965775,277.181538 L73.4010255,288.220268 L75.7477775,317.546201 L76.1152258,321.982095 C77.2064236,335.041378 78.2453615,346.382771 79.3896108,357.439745 L79.5221159,358.714369 C82.449952,386.751528 85.9950061,412.084705 90.6826821,436.8459 L88.7652221,437.088034 C86.5684581,437.356719 84.5126613,437.577051 82.5979681,437.748677 L81.3293669,430.409092 C74.4215655,390.661219 62.3423862,324.33798 59.3083394,312.266407 L58.9431384,310.86564 C56.2872254,300.801502 51.2415139,282.995336 49.8163688,269.205309 C49.5236697,266.373087 49.3935871,263.607509 49.3619297,260.953623 L51.0743386,260.991148 C58.6882193,261.144464 65.0604688,261.087896 70.1837873,260.821202 Z" id="bp-lower-leg-medial-right-back" fill="#FFFFFF"></path>
                    <path d="M91.5381963,258.348683 L91.8360756,260.673261 C95.6104305,290.770224 96.8921961,319.944811 97.8812473,381.775212 L98.5530823,425.642666 L98.6753707,432.292707 C98.6967135,433.402369 98.7187647,434.526056 98.7418389,435.682288 C96.8031689,435.986501 94.943836,436.262037 93.1635249,436.51026 L92.6129095,433.573366 C88.3245874,410.455925 85.0130202,386.762231 82.2508969,360.755474 L81.7449546,355.907138 C80.7849678,346.546168 79.8957417,336.940478 78.9819704,326.222707 L78.1328409,316.041302 L75.7052204,285.690938 C74.8837996,275.538097 74.2211807,267.842244 73.530562,260.597196 L74.8011607,260.490165 C79.5366672,260.070914 85.1153016,259.356853 91.5381963,258.348683 Z" id="bp-lower-leg-tibial-posterior-right" fill="#FFFFFF"></path>
                    <path d="M117.242675,300.998427 L117.143014,302.791589 C117.120094,303.186276 117.096508,303.58171 117.072291,303.978117 L117.072291,304.10917 L117.008877,307.044977 C116.701731,322.829203 115.511266,394.528992 115.667907,400.150467 L115.67363,400.313209 C115.839721,403.991438 116.145678,408.410555 116.501987,413.067316 L116.941167,418.693434 L117.115999,420.790286 L117.782549,428.915591 L118.001089,431.656789 L118.119146,432.258777 L115.689718,432.72409 C110.485268,433.71172 105.666353,434.565789 101.233456,435.286313 L100.970996,420.780551 L100.414208,383.83467 C99.392809,318.800632 98.0817035,289.388195 94.0096187,257.953818 C100.405376,256.909851 107.586908,255.593195 115.55456,254.003293 L115.758437,255.917305 C117.835541,275.774945 117.922191,288.172493 117.242675,300.998427 L117.242675,300.998427 Z" id="bp-lower-leg-lateral-right-back" fill="#FFFFFF"></path>
                    <path d="M103.856736,189.064447 L104.134206,190.690696 C104.426135,192.35894 104.687871,193.709934 104.89957,194.614142 C108.024217,213.373384 112.636276,228.564774 115.278601,251.506938 L113.405687,251.879166 C94.5149229,255.61125 80.2156264,257.750247 70.5266172,258.298882 L70.0538256,258.324582 C64.6034009,258.608304 57.7010351,258.651175 49.361254,258.452398 C49.4509927,248.858042 50.6219294,241.010052 49.5650469,237.228305 L47.4660446,229.705955 C45.6589111,223.275924 42.7249809,213.221565 38.6642539,199.549044 L41.5485712,199.302342 C59.9011541,197.707038 73.7074699,196.006127 83.0662151,194.181022 L84.2988589,193.935215 C89.724608,192.830123 96.246003,191.205985 103.856736,189.064447 Z M76.216094,220.355194 L76.216094,220.377036 L75.8555017,220.442562 C69.8565575,221.490989 62.611931,223.915475 58.5361456,228.720762 C57.1702658,230.326165 59.497725,232.652361 60.8636048,231.036037 C64.4148923,226.853253 70.6651584,224.778242 75.8445747,223.762579 L75.9975532,223.729816 C82.9471497,222.38652 91.3281883,222.757837 97.6549436,226.339961 C99.5016132,227.388387 101.162523,224.548899 99.3158535,223.500473 C92.5192355,219.645322 83.7448235,219.110187 76.216094,220.355194 Z" id="bp-popliteal-fossa-right" fill="#FFFFFF"></path>
                    <path d="M0,27.9252728 L46.7944302,14.9824367 L49.4899809,35.9580597 C51.4319313,50.9403168 53.6260095,67.6486789 55.8459833,84.4576778 L69.2470015,185.491421 C69.7299387,189.173571 70.0926104,191.972022 70.3101562,193.708153 L68.8045944,193.910045 C60.4096175,195.017733 50.1268696,196.080571 37.9373485,197.100298 L36.7148496,192.997818 C36.3646311,191.672355 36.0217241,190.361381 35.684908,189.058605 L34.8548504,185.815101 L34.5289839,184.52237 L33.7197803,181.259145 C30.604078,168.539917 27.8393681,155.39293 24.2696351,135.860006 L23.77821,133.173437 C22.3754127,125.733167 17.1983681,101.926395 11.7155452,77.701635 L9.85206922,69.5048037 C6.19039485,53.4717565 2.56662571,38.0497123 0,27.9252728 Z" id="bp-thigh-medial-right-back" fill="#FFFFFF"></path>
                    <path d="M49.2285034,14.3054194 L100.965836,0 L100.631893,15.4033239 C100.283282,32.2900634 99.873101,54.6647674 99.6189386,77.2000164 L99.5057671,88.4677238 C99.2647635,116.054196 99.3143966,142.540116 100.058892,158.028431 C100.386312,164.713514 102.059664,177.702149 103.456078,186.580282 L101.707273,187.069715 C94.214934,189.150047 87.8384472,190.703264 82.5876895,191.727246 C79.7433203,192.281944 76.4767606,192.825863 72.7859015,193.359312 L71.9810283,187.116611 C69.8043167,170.457023 64.5457799,131.171373 59.2557492,91.1762081 L56.5079939,70.353028 C53.8050478,49.8143557 51.2364946,30.1111555 49.2285034,14.3054194 Z" id="bp-thigh-lateral-right-back" fill="#FFFFFF"></path>
                </g>
                <g class="hover" id="bp-lower-limb-left-back" stroke-width="1" fill="none" transform="translate(74.7512, 538.6263)">
                    <path d="M27.7980765,440.339069 L28.9024308,434.71187 L31.2537594,435.16241 C37.0687848,436.266748 42.4091194,437.205989 47.2754241,437.98011 C47.4191707,438.04335 47.5791121,438.07994 47.7475035,438.083399 C47.7965561,438.08437 47.8450057,438.082502 47.8926951,438.077948 L49.7729483,438.369352 C55.3398574,439.21785 60.2421582,439.834906 64.4811051,440.220411 L63.2739703,447.345316 C62.0412959,454.704135 61.2918014,459.49868 61.2578393,460.406823 L61.2445857,461.248102 C61.2140483,462.760243 61.1471457,463.85348 61.0774458,464.824167 L60.8888287,467.312552 L60.8431274,468.087786 C60.8047584,468.840515 60.7790919,469.695616 60.7767468,470.755954 L60.7845699,472.045469 C60.8373193,475.926744 61.1623585,482.239596 62.0938695,494.221259 L62.3275184,497.172515 C63.1689004,508.399414 58.535836,521.37369 43.1505657,521.37369 C31.7864456,521.37369 24.8696302,517.857093 20.8703341,513.215622 C19.712068,511.872326 18.6084371,509.993896 17.5157332,508.060859 L16.8491839,506.870459 L16.1089006,505.56946 C14.7528089,503.222098 13.3979208,501.143598 11.9647976,500.339636 L9.82880366,499.129772 C5.59595593,496.708916 4.78772257,495.94083 2.31060518,491.310552 L1.05961316,488.948921 C-2.34962287,482.429019 3.49634276,483.12797 4.20660027,483.248102 L4.2721625,483.248102 L4.22092456,483.087218 C4.03877656,482.450442 3.55860147,480.078187 6.03141571,478.781369 C8.33702085,477.569126 10.3038878,478.956107 10.3038878,478.956107 L10.230985,478.802204 C9.96995333,478.200562 9.23410406,475.938418 11.8773813,474.511216 C13.5316569,473.626606 15.4399444,474.34648 15.8974613,474.545912 L15.9968749,474.587664 L15.9968749,474.434768 C16.0078019,473.932397 16.1170723,472.305152 17.4283169,470.896329 C18.5538019,469.684086 21.4713212,469.793297 22.1597246,469.847903 L22.3017761,469.847903 C23.3507718,466.374991 23.5256044,461.646151 24.8368491,453.444399 L24.8696302,453.204135 L25.0126627,452.335017 C26.2086935,445.211225 27.4925397,441.065323 27.7762225,440.382754 L27.7980765,440.339069 Z" id="bp-foot-left-plantar" fill="#FFFFFF"></path>
                    <path d="M76.3928085,264.605976 L76.7508468,260.790035 L77.3199967,260.821202 L78.4791009,260.87701 C83.7875597,261.11258 90.3444401,261.138 98.1419006,260.953122 C98.1101969,263.607509 97.9801142,266.373087 97.6874152,269.205309 C96.212265,283.479197 90.8580161,302.056002 88.290162,311.89592 C85.2386737,323.611538 71.552432,399.057962 64.9042501,437.749344 C62.5214529,437.534941 59.9190552,437.245777 57.0981723,436.881119 C61.6592243,412.796703 65.1386161,388.172289 68.0202284,361.045681 L68.2657711,358.714369 C69.285364,348.950678 70.2178034,339.00756 71.1721684,327.892696 L72.093238,316.898597 L74.798668,283.135059 C75.3819353,275.995016 75.8885583,270.084605 76.3928085,264.605976 L76.3928085,264.605976 Z" id="bp-lower-leg-medial-left-back" fill="#FFFFFF"></path>
                    <path d="M55.9518114,260.673261 L56.2429562,258.392119 L57.9767391,258.658932 C64.2563304,259.610204 69.6822289,260.264016 74.2560328,260.620313 L73.8809845,264.62553 C73.3816974,270.057666 72.8795255,275.921296 72.3025364,282.985797 L69.7630527,314.717235 C69.5634062,317.170087 69.3734699,319.474582 69.181343,321.773927 L68.6814546,327.677409 C67.7282752,338.778532 66.7971882,348.707269 65.7792918,358.454714 C62.8885207,386.136936 59.3958541,411.168699 54.7940504,435.611688 L54.6174322,436.548773 C52.8399054,436.302639 50.9828689,436.029023 49.046368,435.727924 L49.3020912,421.697131 C49.4129946,415.020106 49.5324609,406.988115 49.7141901,394.44092 L49.8418283,385.89962 C50.8405536,321.226765 52.0945036,291.431696 55.9518114,260.673261 L55.9518114,260.673261 Z" id="bp-lower-leg-tibial-posterior-left" fill="#FFFFFF"></path>
                    <path d="M31.8078767,255.308686 L31.9482266,254.003094 L34.3490857,254.478581 C41.4788449,255.879729 47.95328,257.053048 53.7734625,257.998503 C53.4979961,260.118628 53.2361009,262.229347 52.986,264.342498 L52.753868,266.334181 L52.5485729,268.149672 C49.4435753,296.018202 48.2977202,325.50337 47.3895769,382.826778 L46.7093533,427.057212 L46.5525672,435.330245 L44.5814483,435.007213 C39.9238469,434.233113 34.8580107,433.316552 29.3846382,432.258777 L29.5026945,431.656789 L29.7212353,428.915591 L30.3877847,420.790286 L30.5626173,418.693434 L31.0017968,413.067316 C31.3135671,408.99265 31.5867868,405.099931 31.7614882,401.726291 L31.8301538,400.313209 C31.8426106,400.037342 31.8489701,399.461769 31.8498932,398.622637 L31.8451586,396.697116 C31.7585327,379.240893 30.5398628,307.496356 30.4314928,304.10917 L30.4314928,303.978117 C30.2983011,301.79788 30.1841838,299.647084 30.0949911,297.487991 L30.0488476,296.309255 L29.9884437,294.504413 C29.6635235,283.644691 30.0271574,272.145909 31.8078767,255.308686 Z" id="bp-lower-leg-lateral-left-back" fill="#FFFFFF"></path>
                    <path d="M43.6472187,189.064495 L45.3841858,189.549505 C52.827224,191.611412 59.1804544,193.1558 64.4375689,194.181022 L65.4215843,194.369383 C75.2538251,196.217265 89.6918773,197.937269 108.840589,199.54819 L104.543592,214.09659 C102.511172,221.027872 100.942711,226.468954 99.8379719,230.4184 L97.9387371,237.228305 C96.8818546,241.010052 98.0527913,248.858042 98.1442051,258.451357 L96.4389248,258.489237 C89.1383939,258.63838 82.9953234,258.592551 78.0189742,258.353073 L77.4499584,258.324582 C67.4430367,257.803671 52.3608664,255.532172 32.2264054,251.509285 C34.0682999,235.503952 36.8698039,223.272155 39.4563714,210.970112 L39.8503898,209.08633 C40.8304618,204.372954 41.7703082,199.620608 42.6042138,194.614142 L42.754032,193.939536 C42.9806884,192.871895 43.250337,191.409553 43.5443301,189.672175 L43.6472187,189.064495 Z M48.1879305,223.500473 C46.341261,224.548899 48.0021708,227.388387 49.8488403,226.339961 C56.1755957,222.757837 64.5566343,222.38652 71.5062308,223.729816 L71.6592093,223.762579 C76.8386256,224.778242 83.0888917,226.853253 86.6401792,231.036037 C88.006059,232.652361 90.3335182,230.326165 88.9676384,228.720762 C84.9888955,224.029886 77.9904123,221.60779 72.0788372,220.519804 L71.28769,220.377036 L71.28769,220.355194 C63.7589604,219.110187 54.9845485,219.645322 48.1879305,223.500473 Z" id="bp-popliteal-fossa-left" fill="#FFFFFF"></path>
                    <path d="M100.709354,14.9824367 L147.503784,27.9252728 L146.854771,30.5074565 C139.64383,59.4236591 125.641402,122.566065 123.606351,133.816335 L122.686746,138.839355 C119.198019,157.723249 116.454182,170.532231 113.300066,183.220113 L112.812273,185.168576 L112.484749,186.462118 C111.93602,188.619856 111.372632,190.788713 110.788934,192.997818 L109.567078,197.101204 L107.371783,196.915184 C95.4132018,195.889499 85.3605977,194.821289 77.1937051,193.706901 L78.2568267,185.490705 C80.6146524,167.513862 85.8393376,128.47122 91.0375405,89.151699 L96.149611,50.2812849 C97.8286413,37.4276335 99.3884471,25.3747323 100.709354,14.9824367 Z" id="bp-thigh-medial-left-back" fill="#FFFFFF"></path>
                    <path d="M46.5379477,0 L98.2752805,14.3054194 L96.5573825,27.7234028 C94.3819148,44.6048607 91.7983734,64.2994766 89.1785928,84.1356477 L75.6789761,185.922373 C75.2475301,189.216273 74.9202789,191.744815 74.7168615,193.366895 L73.0439106,193.116954 C70.0319208,192.658248 67.3228684,192.196606 64.9160945,191.727246 L63.6844026,191.481549 C58.2605178,190.376158 51.7117104,188.741691 44.0484635,186.58021 L44.2850971,185.051644 C44.6431856,182.706251 45.0134471,180.136766 45.36958,177.509949 L45.6413962,175.472464 C46.4762425,169.110397 47.1904653,162.66502 47.4226112,158.455796 L47.4448919,158.028431 C48.2425657,141.433808 48.2425657,112.214383 47.9420721,82.5430985 L47.8252732,72.1471836 C47.5038712,45.9949484 46.9933691,20.5993063 46.636291,4.34660093 L46.5379477,0 Z" id="bp-thigh-lateral-left-back" fill="#FFFFFF"></path>
                </g>
                <g class="hover" id="bp-pelvic-region-back" stroke-width="1" fill="none" transform="translate(121.2673, 449.2835)">
                    <path d="M104.983,67.2645718 L104.983,109.142 L92.3203556,105.708317 C85.394773,86.3030551 90.7096239,68.6094148 104.560607,67.299244 L104.983,67.2645718 Z M107.484392,67.2647112 C121.647611,68.2538202 127.140191,86.1079634 120.144982,105.708317 L107.483,109.142 L107.484392,67.2647112 Z" id="bp-intergluteal-cleft" fill="#FFFFFF"></path>
                    <path d="M135.130182,0 L137.389149,0.0680790399 C147.576918,0.399221246 158.009201,1.07342406 166.33193,2.43260907 C178.417235,4.4093296 190.579029,8.69040389 202.817312,15.2758319 C209.242411,32.1489436 212.465887,53.9474749 212.465887,80.6714259 L123.049063,104.921715 C129.671145,84.471513 123.410387,65.6890577 107.483225,64.7577368 L107.483225,48.5716232 C120.545716,46.3954792 135.130182,26.9262345 135.130182,0 Z" id="bp-buttock-right" fill="#FFFFFF"></path>
                    <path d="M77.335705,0 C77.335705,27.1989097 91.9176318,46.4133415 104.983854,48.5725743 L104.982481,64.7576782 C89.0552139,65.6882689 82.7940534,84.4710836 89.4162747,104.921715 L0,80.6714259 C0,53.9474749 3.22347638,32.1489436 9.64857505,15.2758319 C21.8868582,8.69040389 34.0486522,4.4093296 46.1339568,2.43260907 C55.0731847,0.972743694 66.4460677,0.303097822 77.335705,0 Z" id="bp-buttock-left" fill="#FFFFFF"></path>
                </g>
                <g class="hover" id="bp-upper-limb-right-back" stroke-width="1" fill="none" transform="translate(325.5483, 180.0536)">
                    <path d="M87.2086948,324.859275 L87.1212785,324.892038 L87.274257,324.957565 L88.1374931,327.338366 L88.1374931,327.316524 C88.7931154,328.321266 89.8530381,329.457061 90.7599823,330.221539 L91.7324887,330.8222 L92.1914244,331.11707 L93.4510403,331.91582 C95.3247953,333.114907 97.3640112,334.47531 98.6602312,335.540118 L98.7695016,335.638408 C101.315502,337.757103 106.74624,341.142647 109.783956,344.517269 C111.324669,346.231883 112.8326,350.185324 115.389527,352.194808 L115.520652,352.293098 C116.799115,353.254155 118.711347,355.307324 120.590798,357.43694 L123.577709,360.842053 C124.421084,361.797145 125.160871,362.616114 125.704652,363.1596 C127.911913,365.354743 130.752943,365.736982 128.797004,368.47818 C126.841064,371.219378 121.891115,370.367531 119.301407,369.417395 C114.963373,367.833834 111.291888,363.476312 108.319733,360.964457 L108.013776,360.713272 L106.53214,359.432706 C104.886414,358.043141 104.348959,358.026124 103.948918,362.122095 C103.45494,367.273845 108.448779,382.794048 109.647909,388.033817 L109.773029,388.605781 L109.838592,388.944336 L110.019748,389.851546 C110.323024,391.425248 110.632623,393.290937 110.942223,395.202131 L111.182617,396.709244 L111.94566,401.419535 C112.288367,403.48862 112.609459,405.24955 112.876308,406.297976 L112.898162,406.396266 C113.71769,409.48694 113.510077,413.789856 110.297527,414.499728 C108.22139,414.958415 107.172394,413.494986 106.363793,411.693004 L106.276377,411.496424 C106.199888,411.321686 106.123399,411.136027 106.046909,410.950368 L105.992274,410.808394 L105.883004,410.546287 L105.642609,409.934705 C105.547908,409.694441 105.453207,409.45903 105.355268,409.228474 L105.118111,408.689699 C104.6586,407.693004 104.137856,405.830759 103.610666,403.728772 L103.249587,402.268087 L102.211519,397.845039 C101.861853,396.370689 101.534042,395.071077 101.271793,394.197389 L101.195304,393.957124 C100.834712,392.755802 100.321141,390.65895 99.742008,388.529334 L99.5562483,387.863146 C99.5343943,387.79762 99.5234672,387.721172 99.5016132,387.655645 L99.4141968,387.349854 L99.3595617,387.142353 C99.3377076,387.076826 99.3158535,387.0113 99.3049265,386.934852 L99.2502913,386.738272 L99.0923042,386.200817 C98.2709416,383.450658 97.374483,381.157255 96.5840939,381.321403 C95.2370072,381.603409 97.0135706,388.311187 98.1877356,392.475513 L98.7913557,394.60147 L98.9989694,395.365947 C99.3158535,396.534506 99.6764458,397.997934 100.037038,399.53781 L100.200944,400.236761 L100.821138,403.020292 C101.229257,404.890174 101.57068,406.58578 101.741656,407.674036 L101.774437,407.9143 C102.066896,409.89359 102.761916,412.843612 103.370861,415.333438 L103.937991,417.634086 C104.60454,420.3316 103.621107,424.405173 100.670806,424.743727 C97.7423599,425.082282 96.048669,422.832534 95.5678793,421.390947 L95.5678793,421.347263 L95.49139,421.150683 L95.2814507,420.4176 C95.0821836,419.703748 94.8279627,418.75428 94.5625917,417.732376 L93.6363545,414.24513 C93.4771441,413.654708 93.3254034,413.10268 93.1891355,412.631707 L92.9563171,411.845899 L92.5352214,410.474896 C92.1977985,409.392897 91.7743757,408.058095 91.3281883,406.647452 L90.7272012,404.790863 L89.5279081,401.187353 C89.4715023,401.019744 89.4159566,400.855624 89.3613214,400.695448 L89.0990724,399.93097 C88.6134263,398.535495 87.8748394,395.894921 87.0574288,393.230133 L86.6842485,392.03153 C85.5375355,388.409204 84.2920131,385.085608 83.3951583,385.198396 C82.5865575,385.296686 83.1875446,388.310912 84.1272699,391.718297 L84.1819051,391.925798 L84.4004459,392.668434 L84.6954759,393.695018 L84.8047463,394.066335 L85.2406327,395.474646 C85.6754947,396.859409 86.0996004,398.15356 86.4438021,399.177414 L87.0557162,400.979397 L87.1868407,401.394399 L87.5553041,402.545897 C87.9909422,403.928247 88.5340803,405.715945 89.0772184,407.586667 L89.6672785,409.650756 L90.0387978,411.026816 C90.6288578,413.243801 91.1096475,415.286048 91.2844802,416.574739 L91.3063342,416.749476 C91.7106347,420.189625 90.7272012,421.478316 88.6073557,422.100819 C86.5948294,422.690559 85.1817709,422.051549 84.0056693,420.183789 L83.8213128,419.883834 C83.2291378,418.869228 82.0945906,415.635171 80.9326441,412.151356 L80.4557849,410.710104 L79.5816219,408.056275 L78.5991403,405.038515 C78.3751214,404.35832 78.1710335,403.745922 77.9952684,403.228582 L77.7895875,402.628484 C77.3427931,401.347074 76.8700975,399.806793 76.394524,398.199398 L74.8610756,392.964658 C74.5816494,392.023564 74.3124509,391.143803 74.0582005,390.377273 L73.6188472,389.05686 C72.729857,386.310519 72.4719971,384.848568 71.7360082,385.001816 C70.9711155,385.165633 71.2879996,386.923931 72.2277249,390.1675 L72.4899738,391.063031 L73.6919481,395.038314 L77.1080244,406.265475 C77.2856325,406.857792 77.4279026,407.340942 77.5273386,407.684957 L77.7130983,408.351145 C77.7458794,408.471277 77.7786605,408.591409 77.8114416,408.722462 L77.8551498,408.875358 L77.931639,409.181149 L77.9753472,409.334044 L78.0681392,409.72489 C78.5413224,411.815554 78.6290412,413.971661 76.500197,414.608939 C73.7679291,415.419641 73.2248512,412.927502 71.6024517,410.012543 L71.3317077,409.530624 L71.2224374,409.344965 L70.948613,408.848209 C69.2877159,405.783293 67.2990554,401.185173 64.7317764,394.273836 L64.5678709,393.81515 C64.1395617,392.642592 63.7115149,391.400829 63.2939298,390.13945 L62.9548107,389.104041 L62.6216018,388.065913 L62.0006737,386.079777 C60.3197288,380.615728 59.0497164,375.795322 59.0497164,375.795322 L58.9732271,375.18374 C58.8748838,374.320972 58.6891241,372.639122 58.5579997,370.738849 L58.4924374,369.515685 L58.4924374,369.209894 L58.4705834,368.980551 C58.4705834,368.751207 58.4596563,368.521864 58.4487293,368.303442 L58.4268752,367.211331 L58.3699125,365.016014 C58.3429665,364.095233 58.309333,363.078522 58.2713725,362.041366 L58.2301885,360.920773 L58.1864803,359.861426 L58.110674,358.21012 C58.0656,357.28814 58.0143795,356.432198 57.9570125,355.711405 L57.9242314,355.329166 C57.804034,353.843895 57.9242314,351.353883 58.1209181,348.809264 L58.1536992,348.328736 L58.1974074,347.804522 L58.2192615,347.498731 L58.4476143,345.101596 C58.5710452,343.85979 58.6944761,342.728237 58.7975861,341.843305 L58.8967379,341.022514 C59.1262057,339.100399 59.2901112,336.675914 59.1808409,334.742877 L59.2573301,334.742877 L58.6126349,332.154575 L58.645416,332.089048 L57.5739798,328.652067 C56.96253,326.680611 56.3996996,324.842098 55.885283,323.136941 C61.6259696,322.350373 66.5053224,321.461492 70.5271528,320.470441 L71.3570521,320.261748 C74.7573219,319.390336 79.1256293,318.079246 84.4607603,316.329107 L84.9074254,317.771501 C85.5285561,319.741708 86.2607255,321.940837 87.2086948,324.859275 Z" id="bp-hand-right-dorsal" fill="#FFFFFF"></path>
                    <path d="M63.4584869,200.855654 L63.8029782,201.800231 C68.1841743,213.866308 74.118261,245.027925 75.0847042,252.537831 L75.3102105,254.446465 C75.8090849,258.811957 76.6914927,267.18551 77.6909105,275.950629 L78.4535594,282.502035 C79.3966594,290.415969 80.3814278,297.913764 81.2097506,302.307187 L81.5975105,304.334497 C82.4232067,308.56706 83.056426,311.343913 83.7658945,313.926758 L81.8176624,314.560423 C76.9558239,316.126972 72.9910518,317.288508 69.9290009,318.043052 L68.7556865,318.323402 C64.9624094,319.202552 60.4302761,319.999736 55.1612984,320.714026 L54.3487093,317.943323 C53.7937199,316.024427 53.3285939,314.354161 52.9524289,312.933425 C51.7264152,308.288314 47.0098682,299.496773 43.7412462,293.630834 L40.9873217,288.73225 C39.7879699,286.591713 33.9179997,272.820353 28.4876091,259.086804 L27.4679858,256.495064 C23.5979685,246.606353 20.1256858,237.121294 18.980266,232.44486 L18.5528037,230.686658 C17.1429795,224.844536 16.3652385,221.147657 15.7786481,217.577216 L15.6267443,216.628594 L15.5339324,216.024164 L15.4435515,215.416549 C15.2835797,214.324206 15.1330143,213.206053 14.9795527,212.005762 L16.4607183,211.2908 C25.7433511,206.831598 33.1623547,203.681268 38.7145909,201.839974 C44.4457763,199.939334 52.1510896,198.111012 61.8024895,196.364391 L62.782634,199.012954 C63.0049646,199.616893 63.2302729,200.231107 63.4584869,200.855654 L63.4584869,200.855654 Z" id="bp-forearm-right-back" fill="#FFFFFF"></path>
                    <path d="M54.2308924,176.015496 L54.7105098,177.403076 C56.0974289,181.351202 58.2266657,186.805782 60.9148576,193.983739 L59.1985488,194.301597 C50.4384493,195.948687 43.3447605,197.670576 37.9276576,199.467056 L37.0183427,199.774405 C31.3164448,201.736756 23.8668387,204.939331 14.6543272,209.385418 L13.5700433,200.486822 C13.313336,198.430437 13.0197811,196.130182 12.6753647,193.522032 L12.5575206,192.679309 C11.8549028,187.921214 10.2675391,181.150316 8.49298897,173.290989 L10.1513004,173.129235 C19.4308147,172.209517 26.7115863,171.236859 32.0031656,170.209384 C37.1832494,169.203559 43.8686918,167.479724 52.0649792,165.037369 L52.2196313,166.259028 C52.6832052,169.748406 53.3616736,173.425855 54.2308924,176.015496 Z" id="bp-elbow-right-back" fill="#FFFFFF"></path>
                    <path d="M24.2692227,50.9574833 C29.1774834,50.89859 35.2889156,51.6160544 44.3421978,53.2179147 L44.6963224,56.1283708 C45.3537944,61.6736272 46.1112761,68.7941428 46.8351329,76.2021545 L47.1270348,79.2244536 L47.5142385,83.3482353 L47.8092039,86.5884446 C48.2592314,91.6042646 48.6651722,96.4770435 48.9852439,100.805228 L49.1607465,103.193548 C50.450137,121.595615 51.4554246,152.644325 51.4991327,157.296717 L51.4991327,157.777245 L51.5101154,158.30191 C51.5425923,159.411401 51.6379547,160.872139 51.7928869,162.509062 L49.4200351,163.211364 C42.1749082,165.331426 36.2093034,166.845979 31.5266366,167.75522 L30.6029018,167.930196 C25.0972891,168.948042 17.5414753,169.916065 7.94051956,170.832519 L7.41093241,168.449311 C5.10742421,158.007222 2.72788432,146.12 1.68276394,134.65726 L1.62812875,134.06752 C1.28939055,130.114079 0.677476391,121.431798 0,111.69017 C0.743038622,108.413838 1.60627467,104.951847 2.62248926,101.260512 C6.37046348,87.5545218 12.0306695,75.9126208 16.423339,67.219419 L18.6524548,62.8182125 L19.8539046,60.4206362 C20.4235092,59.2749683 20.9427621,58.209505 21.3951415,57.2266053 L24.2692227,50.9574833 Z" id="bp-upper-arm-right-back" fill="#FFFFFF"></path>
                    <path d="M8.33733042,0 L8.785339,0.20750105 C14.6750128,2.95962023 19.5266179,5.61344945 22.6080428,8.13622537 C35.9792873,19.0840037 41.863198,39.0954352 43.2634163,45.9064552 L43.347562,46.3273396 C43.5281247,47.2570552 43.7519776,48.7278418 44.0066976,50.6203062 L42.6979498,50.3947326 C33.8939438,48.8969662 27.9126301,48.2925521 22.9747147,48.4872549 L17.9312703,45.3990454 C8.66514158,39.7200693 2.92844633,24.2557806 2.92844633,17.0369283 C2.92844633,12.265428 4.63073809,6.99171672 7.6776865,1.12643422 L8.27176819,0 L8.33733042,0 Z" id="bp-shoulder-right-back" fill="#FFFFFF"></path>
                </g>
                <g class="hover" id="bp-back" stroke-width="1" fill="none" transform="translate(117.2634, 145.4664)">
                    <path d="M88.401279,298.522881 L132.073,298.522 L132.072086,298.57673 C131.648116,323.880197 124.369948,339.499488 110.236579,345.434181 C96.0942537,339.495279 88.8158203,323.858039 88.401279,298.522881 Z" id="bp-sacrum" fill="#FFFFFF"></path>
                    <path d="M90.0752331,192.406178 L86.060571,296.206469 L83.7386458,296.222811 C46.2812082,296.580173 31.5620392,301.368752 15.84882,310.596308 C22.1663966,288.021067 27.209532,246.01847 27.3097629,234.891241 L27.3197681,228.645476 C36.564146,229.208953 50.3904606,226.733913 61.5995525,221.691749 C71.108507,217.409366 81.0804589,207.383472 89.6734535,193.07979 L90.0752331,192.406178 Z" id="bp-lower-back-left" fill="#FFFFFF"></path>
                    <path d="M130.416285,192.437172 C139.09524,207.083235 149.222815,217.34549 158.873109,221.691525 C170.083005,226.734051 183.909991,229.209123 193.154387,228.645413 L193.164494,234.891241 L193.176409,235.595523 L193.199427,236.355285 C193.666139,249.314611 198.558036,288.915047 204.625436,310.596308 L203.645703,310.026094 L202.705778,309.489185 C187.357283,300.806568 172.033646,296.381467 134.44042,296.206592 L130.416285,192.437172 Z" id="bp-lower-back-right" fill="#FFFFFF"></path>
                    <path d="M127.577,186.22 C127.747183,186.546493 129.198849,223.14716 131.932,296.022 L88.571,296.022 L92.7365791,186.22 L127.577,186.22 Z" id="bp-lumbar-vertebral-spine" fill="#FFFFFF"></path>
                    <path d="M130.205046,186.997635 L128.445105,141.589519 L130.734068,142.23259 C139.737293,144.739367 146.908378,146.459932 152.22558,147.390256 L152.664388,147.465954 C158.341928,148.431142 167.194232,149.354109 179.307055,150.247821 L179.294116,150.378443 C177.312046,171.10117 182.022906,186.392091 193.476881,196.127204 L193.448623,197.086432 L193.389462,199.357523 L193.338411,201.646921 L193.281873,204.719458 C193.241955,207.161489 193.213504,209.600458 193.193475,211.990034 L193.16937,215.53156 L193.151906,220.628918 L193.149806,225.040393 L193.151906,226.149182 C184.425683,226.723238 170.847217,224.336528 159.899191,219.411798 C149.899396,214.908364 139.142412,203.464002 130.205046,186.997635 Z" id="bp-infrascapular-region-right" fill="#FFFFFF"></path>
                    <path d="M92.04,141.586 L90.2859706,186.964721 C81.3450767,203.448752 70.5803996,214.905375 60.5734696,219.412022 C49.6262712,224.336379 36.048503,226.723062 27.3222561,226.149249 L27.3244502,225.040393 L27.3223509,220.628918 L27.3048867,215.53156 L27.280781,211.990034 L27.244041,208.374416 C27.229435,207.160723 27.2123426,205.940473 27.1923834,204.719458 L27.1358457,201.646921 L27.084794,199.357523 L27.0256331,197.086432 L26.9972767,196.126354 C38.4745842,186.370752 43.1808144,171.036306 41.1664639,150.247788 L44.8457063,149.967532 C54.6126884,149.198819 62.0070269,148.407803 67.0825567,147.58638 L67.8087704,147.465954 C73.3020346,146.532093 80.8536081,144.721012 90.4380684,142.037424 L92.04,141.586 Z" id="bp-infrascapular-region-left" fill="#FFFFFF"></path>
                    <path d="M202.101291,133.434096 C197.437209,150.484124 195.742056,162.653894 194.669252,175.422042 L194.482362,177.727954 L194.302561,180.098865 L194.069917,183.365401 C193.867777,186.283838 193.709259,189.495007 193.585165,192.858928 C183.784885,183.529708 179.867109,169.262021 181.853271,149.904929 L181.890252,149.560613 L185.073288,145.17463 C197.135547,128.511882 206.350416,115.286813 212.723631,105.485917 C208.984463,113.368565 205.001687,122.810731 202.101291,133.434096 Z" id="bp-lateral-chest-wall-right" fill="#FFFFFF"></path>
                    <path d="M8.1784538,106.392518 L7.75083127,105.487923 L9.09470901,107.541347 C15.7818367,117.697271 25.2490105,131.203572 37.5017809,148.073316 L38.5841615,149.562209 C40.6519465,169.093044 36.7462935,183.473769 26.8903769,192.858444 C26.7649658,189.494373 26.6064593,186.28355 26.4043393,183.365401 L26.1716954,180.098865 L25.9918946,177.727954 L25.8050044,175.422042 L25.6046714,173.129054 L25.4013839,170.979086 C24.2973429,159.754649 22.4941485,148.499501 18.3729659,133.434096 C15.5829476,123.215017 11.7913655,114.088944 8.1784538,106.392518 L8.1784538,106.392518 Z" id="bp-lateral-chest-wall-left" fill="#FFFFFF"></path>
                    <path d="M121.972652,39.1865564 L127.577,183.72 L92.912,183.72 L98.5007183,39.1865564 C101.979069,41.1348626 105.905785,42.7057638 110.236579,43.6287338 C114.567373,42.7057638 118.494176,41.1348626 121.972652,39.1865564 Z" id="bp-thoracic-vertebral-spine" fill="#FFFFFF"></path>
                    <path d="M13.5371293,33.3728533 L13.292618,32.8729162 L16.2958258,33.6049542 C48.2019201,41.4592407 65.1677964,48.1593214 66.3879726,52.9483617 C69.368516,64.6751577 70.1720389,96.4145456 66.404376,108.680224 L66.2193967,109.275589 C60.8663111,126.323478 51.1959242,141.684743 40.3989238,147.398171 L40.1823265,147.50955 L37.362364,143.622104 C16.1421235,114.304356 3.76526997,95.6554805 0.358985474,87.9045467 L0.153829986,87.4248086 C0.112984983,87.3264012 0.0610213549,87.2359798 0,87.1543963 C11.2464971,79.4520827 18.3729659,60.6213206 18.3729659,51.6240769 C18.3729659,46.1392539 16.7584622,40.0503991 13.5371293,33.3728533 Z" id="bp-scapula-left" fill="#FFFFFF"></path>
                    <path d="M202.101291,51.6240769 C202.101291,60.6210538 209.227337,79.4509659 220.473866,87.1563802 C220.412137,87.2359798 220.360173,87.3264012 220.319328,87.4248086 L220.218758,87.6634032 C216.865871,95.5015751 203.769642,115.177349 181.074003,146.431486 L180.290066,147.50955 L180.074234,147.398171 C169.151687,141.618307 159.382104,125.964926 154.068705,108.679974 C150.301119,96.4145456 151.104642,64.6751577 154.085365,52.9476564 C155.343108,48.0111744 173.335771,41.04296 207.18064,32.8728922 C203.7971,39.7471608 202.101291,46.002844 202.101291,51.6240769 Z" id="bp-scapula-right" fill="#FFFFFF"></path>
                    <path d="M124.473,39.185 L151.431759,53.2949589 C148.538667,66.0948237 147.861614,96.9867983 151.678985,109.414301 C156.614862,125.471142 165.265581,140.162419 175.42974,147.444933 L173.22805,147.266412 C164.592569,146.550885 158.011665,145.817976 153.458147,145.06418 L152.235341,144.853011 C146.904239,143.895706 139.695489,142.147301 130.648719,139.613082 L128.411925,138.981155 C128.388834,138.974578 128.365709,138.968696 128.342574,138.963495 L124.473,39.185 Z" id="bp-interscapular-region-right" fill="#FFFFFF"></path>
                    <path d="M95.999,39.185 L92.141,138.962 L92.0612337,138.981155 L89.0224397,139.837023 C80.3567395,142.24888 73.420094,143.921835 68.248626,144.85107 L67.3897789,145.001315 L66.2373155,145.189619 C61.3257083,145.961975 54.2710035,146.712415 45.044666,147.444017 C55.2075762,140.162423 63.8582861,125.471175 68.7940965,109.414551 C72.6116404,96.9864844 71.9344565,66.0932317 69.041342,53.2946223 L95.999,39.185 Z" id="bp-interscapular-region-left" fill="#FFFFFF"></path>
                    <path d="M143.357531,0 C148.056158,5.03463073 156.972621,9.83991819 167.921514,14.4158624 L174.099425,16.9804558 L179.773046,19.3184629 L185.803932,21.7864562 C187.459803,22.4618925 189.153783,23.1511617 190.885871,23.8542383 L199.595065,27.3762469 L206.988076,30.3469431 L205.02853,30.8208341 C173.315661,38.5359523 155.958082,45.025394 152.28377,50.9205958 L125.569644,36.9367409 C132.458165,32.1538298 137.123576,26.0326514 139.10145,21.4069379 L139.537105,20.3792889 L139.92137,19.4539218 C142.53828,13.0753218 143.625999,8.67580155 143.357531,0 Z" id="bp-suprascapular-region-right" fill="#FFFFFF"></path>
                    <path d="M77.1167252,0 C76.8217535,9.53229763 78.163958,13.9023072 81.3728068,21.4069379 C83.3506809,26.0326514 88.0156746,32.1538298 94.903875,36.9367409 L68.1889101,50.9201643 C64.4381432,44.9044319 46.4418682,38.2705267 13.4860828,30.3471838 L20.8791915,27.3762469 L29.588385,23.8542383 L35.905083,21.2824732 C39.5879222,19.7783074 43.0778383,18.3442039 46.374831,16.9804558 L52.5527425,14.4158624 C63.5016352,9.83991819 72.4180987,5.03463073 77.1167252,0 Z" id="bp-suprascapular-region-left" fill="#FFFFFF"></path>
                </g>
                <g class="hover" id="bp-upper-limb-left-back" stroke-width="1" fill="none" transform="translate(0, 180.0536)">
                    <path d="M44.766385,317.059811 L44.9909226,316.329107 L47.5779139,317.167586 C52.1730014,318.637711 55.9555186,319.738823 58.9245301,320.470441 C62.9463605,321.461492 67.8257134,322.350373 73.5651418,323.138262 L73.1130182,324.631775 C72.803586,325.649321 72.4781327,326.710575 72.1367304,327.815347 L70.806267,332.089048 L70.8390481,332.154575 L70.1943528,334.742877 L70.2708421,334.742877 C70.1615717,336.675914 70.3254773,339.100399 70.5549451,341.022514 L70.6205073,341.557649 C70.7516318,342.662241 70.9228964,344.232206 71.086133,345.944304 L71.2324215,347.498731 L71.2542756,347.804522 L71.2979837,348.328736 L71.3307649,348.809264 L71.3932693,349.654145 C71.5511942,351.894814 71.6342937,354.008925 71.5274515,355.329166 L71.4946704,355.711405 L71.4393523,356.474688 C71.3949612,357.144032 71.3548385,357.891232 71.3189841,358.676293 L71.2652026,359.861426 L71.2214945,360.920773 L71.12691,363.572331 C71.1048811,364.237557 71.0852999,364.876923 71.0688656,365.46806 L71.0248078,367.211331 L71.0029537,368.303442 C70.9920267,368.521864 70.9810996,368.751207 70.9810996,368.980551 L70.9592455,369.209894 L70.9592455,369.515685 L70.8936833,370.738849 L70.8422281,371.44004 C70.7174848,373.046786 70.5645063,374.428818 70.4784558,375.18374 L70.4019666,375.795322 C70.4019666,375.795322 69.2871308,380.026746 67.7640012,385.054455 L67.1561382,387.031102 L66.8300811,388.065913 C66.6101879,388.757563 66.3855268,389.451424 66.1577531,390.13945 L65.9290032,390.825231 C65.6706303,391.593876 65.4090163,392.35174 65.146518,393.087364 L64.7199065,394.273836 L64.2973413,395.404441 C61.793579,402.061161 59.8544988,406.447998 58.2292456,409.344965 L58.1199752,409.530624 L57.7351371,410.219997 C56.1997299,413.044303 55.6186999,415.400339 52.951486,414.608939 C50.689589,413.931831 50.9299839,411.540108 51.4763358,409.334044 L51.5200439,409.181149 L51.5965332,408.875358 L51.6402414,408.722462 L51.7385847,408.351145 L52.0198904,407.356712 C52.1608055,406.875484 52.3548697,406.223713 52.5908937,405.44613 L56.7170459,391.880749 C56.8059988,391.585196 56.8879516,391.311486 56.9617091,391.063031 L57.2239581,390.1675 C58.1636834,386.923931 58.4805675,385.165633 57.7156748,385.001816 C56.954307,384.843284 56.704611,386.413264 55.7385744,389.345532 L55.5193401,390.003683 C55.2286808,390.852253 54.9166046,391.866715 54.5906073,392.964658 L53.235589,397.593853 C52.7596558,399.215031 52.2837225,400.793064 51.8308125,402.136195 L51.2715194,403.776598 C50.8840903,404.931964 50.394559,406.431214 49.8700611,408.056275 L48.6353058,411.802215 C47.4333315,415.417101 46.2422843,418.835408 45.6303702,419.883834 L45.575735,419.971203 C44.3737607,422.002529 42.9313916,422.712401 40.8443273,422.100819 C38.7244818,421.478316 37.7410483,420.189625 38.1453487,416.749476 L38.1672028,416.574739 C38.3420354,415.286048 38.8228251,413.243801 39.4128852,411.026816 L39.7844045,409.650756 L40.3744646,407.586667 L40.8726913,405.892817 C41.200667,404.791824 41.5161166,403.759829 41.7939877,402.871949 L42.3959667,400.979397 L43.0078809,399.177414 C43.4668165,397.812275 44.0678036,395.966608 44.6469367,394.066335 L44.7562071,393.695018 L45.0512371,392.668434 L45.2697779,391.925798 L45.563167,390.832395 C45.6014151,390.686825 45.6388309,390.542437 45.6753241,390.399444 L45.8025574,389.891062 L45.924662,389.380739 C46.4706798,387.038543 46.6721962,385.273234 46.0565247,385.198396 C44.432732,384.994188 41.6659861,396.054654 40.412091,399.757615 L39.7495999,401.70019 C39.5148709,402.396714 39.2671914,403.141776 39.0195118,403.906254 L38.7244818,404.790863 L38.1234947,406.647452 L36.817878,410.791734 L36.4953659,411.845899 L36.3423874,412.359191 C36.1347736,413.058142 35.8834518,413.986436 35.6212028,414.969336 L34.2960366,419.96232 C34.1643387,420.443263 34.0492703,420.851133 33.960293,421.150683 L33.8838037,421.347263 L33.8838037,421.390947 C33.403014,422.832534 31.709323,425.082282 28.7808767,424.743727 C25.8305763,424.405173 24.8471428,420.3316 25.5136922,417.634086 L25.9420463,415.899193 C26.5804585,413.303206 27.36229,410.045844 27.6772458,407.9143 L27.7100269,407.674036 L27.7934354,407.171718 C27.9799134,406.097764 28.2807284,404.623048 28.6305448,403.020292 L29.0977608,400.91387 L29.2507393,400.236761 L29.6545601,398.524949 C29.893516,397.528207 30.1281551,396.587014 30.3455267,395.766088 L30.561984,394.961866 L30.6603273,394.60147 C31.0266609,393.298711 31.6885739,391.044969 32.2641378,388.759609 L32.4120751,388.163316 C33.2364402,384.787105 33.7995359,381.516502 32.8675891,381.321403 C32.0262071,381.146665 31.0646277,383.75681 30.2013917,386.738272 L30.1467565,386.934852 C30.1358295,387.0113 30.1139754,387.076826 30.0921213,387.142353 L30.0374861,387.349854 L29.9500698,387.655645 C29.9282157,387.721172 29.9172887,387.79762 29.8954346,387.863146 L29.709675,388.529334 L29.288984,390.106922 C28.8833177,391.651405 28.526823,393.056133 28.2563788,393.957124 L28.1798896,394.197389 L28.0435039,394.668564 C27.8077632,395.509135 27.5315519,396.616414 27.2401643,397.845039 L26.2020956,402.268087 L25.7480619,404.097095 C25.2837305,405.924992 24.8269264,407.537579 24.4152866,408.504954 L24.2461557,408.886279 C24.14417,409.111982 24.0470408,409.342538 23.9515303,409.577949 L23.5686793,410.546287 L23.4594089,410.808394 L23.4047737,410.950368 C23.3282844,411.136027 23.2517952,411.321686 23.1753059,411.496424 L23.0878896,411.693004 C22.2792887,413.494986 21.230293,414.958415 19.1541557,414.499728 C15.9416064,413.789856 15.7339926,409.48694 16.5535205,406.396266 L16.5753746,406.297976 C16.8922587,405.05297 17.2856321,402.803222 17.7008596,400.22584 L18.2690656,396.709244 L18.5094604,395.202131 C18.8809798,392.908698 19.2524991,390.680792 19.6130913,388.944336 L19.6786536,388.605781 L19.7442158,388.29999 C20.8259926,383.341807 26.0054089,367.364227 25.5027651,362.122095 L25.4519741,361.631322 C25.0560123,358.029925 24.4966966,358.10104 22.9195432,359.432706 L21.4379068,360.713272 L21.1319497,360.964457 C18.1597952,363.476312 14.4883102,367.833834 10.1502759,369.417395 C7.5605678,370.367531 2.61061933,371.219378 0.654679427,368.47818 C-1.30126048,365.736982 1.53976955,365.354743 3.74703134,363.1596 L4.0755309,362.823077 C4.65592055,362.216191 5.39557179,361.387061 6.21662947,360.453088 L8.86088539,357.43694 L9.70660129,356.4872 C11.2060314,354.820137 12.6624526,353.299504 13.7345918,352.44532 L14.0621557,352.194808 C16.6190828,350.185324 18.1270141,346.231883 19.6677265,344.517269 C22.7054432,341.142647 28.1361814,337.757103 30.6821814,335.638408 L30.7914518,335.540118 C32.3867994,334.229585 35.107632,332.471287 37.2602586,331.11707 L37.7191942,330.8222 L38.6917007,330.221539 C39.5986449,329.457061 40.6585676,328.321266 41.3141899,327.316524 L41.3141899,327.338366 L42.177426,324.957565 L42.3304045,324.892038 L42.2429882,324.859275 L44.178003,318.920531 C44.3858219,318.273948 44.5808956,317.658655 44.766385,317.059811 L44.766385,317.059811 Z" id="bp-hand-left-dorsal" fill="#FFFFFF"></path>
                    <path d="M66.8049061,198.643889 L67.6491236,196.364378 L69.3824787,196.682844 C78.2272852,198.332884 85.3532382,200.05452 90.7370921,201.839974 L91.6292843,202.141586 C97.378081,204.120696 104.99349,207.408827 114.47174,212.005117 C114.308477,213.285151 114.148234,214.471402 113.976334,215.632472 L113.777472,216.930295 C113.554174,218.338069 113.305192,219.74652 113.003318,221.280219 L112.870626,221.94555 C112.303588,224.75274 111.555494,228.016063 110.471417,232.44486 L110.332765,232.991308 C109.097143,237.710393 105.877976,246.514806 102.267303,255.769281 L100.964074,259.086804 L99.1752902,263.573856 C94.3069088,275.690417 89.5326915,286.825553 88.4643613,288.73225 L85.9309957,293.235501 C82.7307393,298.964805 77.9703203,307.780438 76.5881968,312.610371 L76.053577,314.582256 C75.5725596,316.329974 74.9854464,318.374201 74.2915624,320.71359 C68.4673383,319.924649 63.5435337,319.033862 59.5226821,318.043052 L58.278488,317.727042 C54.9812153,316.866399 50.782108,315.599008 45.6873117,313.926446 L45.9394374,312.986153 C46.6056044,310.4447 47.2322888,307.584696 48.0561727,303.290087 L48.2419324,302.307187 C49.1598036,297.4388 50.2697749,288.758542 51.3022826,279.924159 L51.975161,274.060964 C52.9257297,265.641992 53.748419,257.835469 54.200856,253.930191 L54.3392199,252.758121 C54.811268,248.924812 56.7808885,237.926164 59.1899032,226.699372 L59.4593259,225.451364 C61.4475644,216.297591 63.7015065,207.162932 65.6487048,201.800231 L66.8049061,198.643889 Z" id="bp-forearm-left-back" fill="#FFFFFF"></path>
                    <path d="M77.3062379,165.687491 L77.3877058,165.037668 L79.0067306,165.516528 C86.4681939,167.706505 92.6139695,169.270652 97.4485173,170.209384 L98.4029963,170.390138 C103.928745,171.411191 111.444244,172.377532 120.957571,173.29098 L119.1303,181.388576 C118.099821,186.018919 117.264982,190.01612 116.832745,193.106292 L116.222735,197.784696 C115.594754,202.704608 115.167241,206.354479 114.797939,209.385622 L113.319308,208.675473 C104.296415,204.363457 97.0368369,201.295277 91.5240254,199.467056 C85.7576333,197.554741 78.0914757,195.726946 68.5378786,193.984883 L70.6686971,188.331946 C72.4377551,183.662226 73.8637602,179.927987 74.8690166,177.037346 L75.2207906,176.015496 C76.1376001,173.284069 76.8421998,169.342456 77.3062379,165.687491 L77.3062379,165.687491 Z" id="bp-elbow-left-back" fill="#FFFFFF"></path>
                    <path d="M85.1087322,53.218251 L86.541738,52.9676702 C94.8154705,51.5412418 100.537977,50.9017055 105.182947,50.9574891 L108.056541,57.2266053 C108.810507,58.8647714 109.750232,60.7322809 110.799228,62.8182125 L113.028344,67.219419 C117.421014,75.9126208 123.081219,87.5545218 126.829194,101.260512 C127.845408,104.951847 128.708644,108.413838 129.451683,111.69017 L128.316663,127.713416 C128.120442,130.380061 127.952275,132.565213 127.823554,134.06752 L127.768919,134.65726 C126.643405,147.00175 123.97028,159.838538 121.511281,170.833048 L119.087493,170.596131 C110.101294,169.696865 103.045688,168.749504 97.9250464,167.75522 L96.9019409,167.551109 C91.862027,166.519791 85.4461162,164.839131 77.658933,162.509568 L77.7313689,161.706412 C77.8662662,160.132761 77.9411273,158.764792 77.9525502,157.777245 L77.9525502,157.296717 C77.9818347,154.179614 78.4427721,139.213204 79.1316028,124.140166 L79.2927744,120.701439 C79.5935714,114.446329 79.9311965,108.327725 80.2909365,103.193548 L80.3346446,102.625651 L80.536325,99.8695704 C80.8684505,95.4656357 81.2834607,90.5457887 81.7395731,85.5115829 L82.1941642,80.5988728 L82.6165499,76.2021546 C83.4744518,67.4222899 84.3795461,59.0462782 85.1087322,53.218251 Z" id="bp-upper-arm-left-back" fill="#FFFFFF"></path>
                    <path d="M121.114353,0 L121.179915,0 L121.474945,0.556976502 C124.709348,6.6509547 126.523237,12.1115086 126.523237,17.0369283 C126.523237,24.2557806 120.786541,39.7200693 111.520413,45.3990454 L106.476965,48.4872547 C101.298176,48.2830547 94.9717116,48.9578353 85.4454083,50.6206799 L85.6421076,49.198704 C85.7843956,48.2031358 85.9144905,47.370932 86.0296175,46.7278009 L86.104121,46.3273396 C87.3388763,39.9603337 93.184842,19.3194398 106.84364,8.13622537 C109.925065,5.61344945 114.77667,2.95962023 120.666344,0.20750105 L121.114353,0 Z" id="bp-shoulder-left-back" fill="#FFFFFF"></path>
                </g>
                <g class="hover" id="bp-neck-back">
                 <path d="M227.500552,103.528269 C240.610879,103.528269 246.809729,107.034331 253.724344,113.281922 C253.11243,115.33509 252.587932,117.70497 252.281975,120.402484 L252.248576,120.726621 C252.138347,121.907031 252.038852,124.072989 251.941049,126.804853 L251.552455,139.273753 L251.404647,143.810359 C251.165789,150.720408 250.870821,154.812363 250.446233,157.042801 C248.726701,164.030132 240.610806,176.139225 227.500544,179.398309 C214.388645,176.139225 206.272751,164.030132 204.553219,157.042801 C204.128631,154.812363 203.833662,150.720408 203.594805,143.810359 L203.446997,139.273753 L203.058403,126.804853 L202.9547,124.162358 C202.879629,122.449116 202.801826,121.136812 202.717477,120.402484 C202.411519,117.70497 201.887022,115.33509 201.275107,113.281922 C208.189722,107.034331 214.390225,103.528269 227.500552,103.528269 Z" id="bp-neck-back" fill="#FFFFFF"></path>
                </g>
                <g class="hover" id="bp-head-back">
                    <path d="M278.463708,65.2399682 C276.966704,60.2927063 272.781648,64.5300962 272.574034,64.8795716 C275.218377,52.3202975 277.950137,42.0981406 274.540901,29.287681 C269.30685,9.64060798 251.091476,2.74938891 244.753794,1.28596045 C237.290627,-0.428653484 217.709373,-0.428653484 210.246206,1.28596045 C203.908524,2.7384678 185.704077,9.64060798 180.459099,29.287681 C177.049863,42.0981406 179.770696,52.3202975 182.425966,64.8795716 C182.218352,64.5300962 178.033296,60.2927063 176.536292,65.2399682 C175.378026,69.073277 180.30612,79.197144 183.311056,87.0821839 C185.605734,93.0887932 185.190507,93.8314286 185.922618,94.890776 C187.375914,96.9876288 188.840138,93.9406397 189.135168,93.2744521 C189.167949,93.1980043 189.189803,93.1433988 189.189803,93.1433988 C189.189803,93.1980043 189.189803,93.2744521 189.189803,93.3399787 C190.304361,94.9672238 194.915571,101.519889 196.674824,104.009901 C201.832386,99.9035646 207.711133,96.9657865 214.103451,95.2730148 C218.430558,93.9624819 222.987133,93.2962943 227.707614,93.2962943 C233.094644,93.2962943 238.219425,94.1590618 242.994541,95.8736758 C248.545476,97.6319741 253.65933,100.405936 258.292395,104.173718 C259.93145,101.82568 264.684712,95.0109082 265.821124,93.3399787 C265.821124,93.263531 265.821124,93.1870832 265.821124,93.1324777 C265.821124,93.1324777 265.842978,93.1761621 265.875759,93.263531 C266.170789,93.9406397 267.635013,96.9767076 269.088309,94.8798549 C269.82042,93.8314286 269.405193,93.0778721 271.699871,87.0712628 C274.704807,79.197144 279.632901,69.0623559 278.474635,65.2290471" id="bp-head-back" fill="#FFFFFF"></path>
                </g>
            </g>
        </g>
        <g id="viewport-boundary" mask="url(#mask-2)" stroke="#FF0000" stroke-width="3">
            <g transform="translate(260, 190)" id="boundary">
                <rect x="0" y="0" width="560" height="1080"></rect>
            </g>
        </g>
    </g>
</svg>